%MOIN*%
%OFA0B0*%
%FSLAX46Y46*%
%IPPOS*%
%LPD*%
%ADD10C,0.0039370078740157488*%
%ADD21C,0.0039370078740157488*%
%ADD22C,0.005905511811023622*%
%ADD23C,0.0047244094488188976*%
%ADD24C,0.002952755905511811*%
%ADD35C,0.0039370078740157488*%
%ADD36C,0.005905511811023622*%
%ADD47C,0.0039370078740157488*%
%ADD58C,0.0039370078740157488*%
%ADD69C,0.0039370078740157488*%
%LPD*%
G01*
D10*
G01*
D21*
X0003005520Y0002921179D02*
X0002981898Y0002921179D01*
X0002993146Y0002921179D02*
X0002993146Y0002907681D01*
X0003005520Y0002907681D02*
X0002981898Y0002907681D01*
X0003005520Y0002896433D02*
X0002981898Y0002896433D01*
X0002998771Y0002888559D01*
X0002981898Y0002880685D01*
X0003005520Y0002880685D01*
X0003004395Y0002870561D02*
X0003005520Y0002867186D01*
X0003005520Y0002861562D01*
X0003004395Y0002859312D01*
X0003003271Y0002858187D01*
X0003001021Y0002857062D01*
X0002998771Y0002857062D01*
X0002996521Y0002858187D01*
X0002995397Y0002859312D01*
X0002994272Y0002861562D01*
X0002993146Y0002866061D01*
X0002992022Y0002868311D01*
X0002990897Y0002869436D01*
X0002988647Y0002870561D01*
X0002986398Y0002870561D01*
X0002984148Y0002869436D01*
X0002983023Y0002868311D01*
X0002981898Y0002866061D01*
X0002981898Y0002860437D01*
X0002983023Y0002857062D01*
X0003004395Y0002837940D02*
X0003005520Y0002840190D01*
X0003005520Y0002844689D01*
X0003004395Y0002846939D01*
X0003002146Y0002848063D01*
X0002993146Y0002848063D01*
X0002990897Y0002846939D01*
X0002989772Y0002844689D01*
X0002989772Y0002840190D01*
X0002990897Y0002837940D01*
X0002993146Y0002836815D01*
X0002995397Y0002836815D01*
X0002997646Y0002848063D01*
X0002989772Y0002826691D02*
X0003005520Y0002826691D01*
X0002992022Y0002826691D02*
X0002990897Y0002825565D01*
X0002989772Y0002823317D01*
X0002989772Y0002819941D01*
X0002990897Y0002817692D01*
X0002993146Y0002816568D01*
X0003005520Y0002816568D01*
X0003004395Y0002806444D02*
X0003005520Y0002804194D01*
X0003005520Y0002799695D01*
X0003004395Y0002797445D01*
X0003002146Y0002796320D01*
X0003001021Y0002796320D01*
X0002998771Y0002797445D01*
X0002997646Y0002799695D01*
X0002997646Y0002803069D01*
X0002996521Y0002805318D01*
X0002994272Y0002806444D01*
X0002993146Y0002806444D01*
X0002990897Y0002805318D01*
X0002989772Y0002803069D01*
X0002989772Y0002799695D01*
X0002990897Y0002797445D01*
X0003005520Y0002782822D02*
X0003004395Y0002785071D01*
X0003003271Y0002786196D01*
X0003001021Y0002787321D01*
X0002994272Y0002787321D01*
X0002992022Y0002786196D01*
X0002990897Y0002785071D01*
X0002989772Y0002782822D01*
X0002989772Y0002779447D01*
X0002990897Y0002777197D01*
X0002992022Y0002776073D01*
X0002994272Y0002774948D01*
X0003001021Y0002774948D01*
X0003003271Y0002776073D01*
X0003004395Y0002777197D01*
X0003005520Y0002779447D01*
X0003005520Y0002782822D01*
X0003005520Y0002764824D02*
X0002989772Y0002764824D01*
X0002994272Y0002764824D02*
X0002992022Y0002763699D01*
X0002990897Y0002762574D01*
X0002989772Y0002760325D01*
X0002989772Y0002758075D01*
X0003042528Y0002930178D02*
X0003031280Y0002938052D01*
X0003042528Y0002943677D02*
X0003018906Y0002943677D01*
X0003018906Y0002934678D01*
X0003020031Y0002932428D01*
X0003021156Y0002931303D01*
X0003023406Y0002930178D01*
X0003026780Y0002930178D01*
X0003029030Y0002931303D01*
X0003030155Y0002932428D01*
X0003031280Y0002934678D01*
X0003031280Y0002943677D01*
X0003041403Y0002911056D02*
X0003042528Y0002913305D01*
X0003042528Y0002917805D01*
X0003041403Y0002920055D01*
X0003039154Y0002921179D01*
X0003030155Y0002921179D01*
X0003027905Y0002920055D01*
X0003026780Y0002917805D01*
X0003026780Y0002913305D01*
X0003027905Y0002911056D01*
X0003030155Y0002909931D01*
X0003032403Y0002909931D01*
X0003034654Y0002921179D01*
X0003042528Y0002896433D02*
X0003041403Y0002898681D01*
X0003039154Y0002899807D01*
X0003018906Y0002899807D01*
X0003042528Y0002877310D02*
X0003030155Y0002877310D01*
X0003027905Y0002878434D01*
X0003026780Y0002880685D01*
X0003026780Y0002885184D01*
X0003027905Y0002887434D01*
X0003041403Y0002877310D02*
X0003042528Y0002879560D01*
X0003042528Y0002885184D01*
X0003041403Y0002887434D01*
X0003039154Y0002888559D01*
X0003036904Y0002888559D01*
X0003034654Y0002887434D01*
X0003033529Y0002885184D01*
X0003033529Y0002879560D01*
X0003032403Y0002877310D01*
X0003026780Y0002868311D02*
X0003042528Y0002862686D01*
X0003026780Y0002857062D02*
X0003042528Y0002862686D01*
X0003048152Y0002864936D01*
X0003049277Y0002866061D01*
X0003050402Y0002868311D01*
X0003030155Y0002822192D02*
X0003031280Y0002818817D01*
X0003032403Y0002817692D01*
X0003034654Y0002816568D01*
X0003038029Y0002816568D01*
X0003040278Y0002817692D01*
X0003041403Y0002818817D01*
X0003042528Y0002821067D01*
X0003042528Y0002830066D01*
X0003018906Y0002830066D01*
X0003018906Y0002822192D01*
X0003020031Y0002819941D01*
X0003021156Y0002818817D01*
X0003023406Y0002817692D01*
X0003025655Y0002817692D01*
X0003027905Y0002818817D01*
X0003029030Y0002819941D01*
X0003030155Y0002822192D01*
X0003030155Y0002830066D01*
X0003042528Y0002803069D02*
X0003041403Y0002805318D01*
X0003040278Y0002806444D01*
X0003038029Y0002807569D01*
X0003031280Y0002807569D01*
X0003029030Y0002806444D01*
X0003027905Y0002805318D01*
X0003026780Y0002803069D01*
X0003026780Y0002799695D01*
X0003027905Y0002797445D01*
X0003029030Y0002796320D01*
X0003031280Y0002795195D01*
X0003038029Y0002795195D01*
X0003040278Y0002796320D01*
X0003041403Y0002797445D01*
X0003042528Y0002799695D01*
X0003042528Y0002803069D01*
X0003042528Y0002774948D02*
X0003030155Y0002774948D01*
X0003027905Y0002776073D01*
X0003026780Y0002778322D01*
X0003026780Y0002782822D01*
X0003027905Y0002785071D01*
X0003041403Y0002774948D02*
X0003042528Y0002777197D01*
X0003042528Y0002782822D01*
X0003041403Y0002785071D01*
X0003039154Y0002786196D01*
X0003036904Y0002786196D01*
X0003034654Y0002785071D01*
X0003033529Y0002782822D01*
X0003033529Y0002777197D01*
X0003032403Y0002774948D01*
X0003042528Y0002763699D02*
X0003026780Y0002763699D01*
X0003031280Y0002763699D02*
X0003029030Y0002762574D01*
X0003027905Y0002761449D01*
X0003026780Y0002759199D01*
X0003026780Y0002756950D01*
X0003042528Y0002738952D02*
X0003018906Y0002738952D01*
X0003041403Y0002738952D02*
X0003042528Y0002741202D01*
X0003042528Y0002745701D01*
X0003041403Y0002747951D01*
X0003040278Y0002749076D01*
X0003038029Y0002750201D01*
X0003031280Y0002750201D01*
X0003029030Y0002749076D01*
X0003027905Y0002747951D01*
X0003026780Y0002745701D01*
X0003026780Y0002741202D01*
X0003027905Y0002738952D01*
X0003055914Y0002877310D02*
X0003079536Y0002869436D01*
X0003055914Y0002861562D01*
X0003079536Y0002841314D02*
X0003079536Y0002854813D01*
X0003079536Y0002848063D02*
X0003055914Y0002848063D01*
X0003059289Y0002850313D01*
X0003061538Y0002852563D01*
X0003062663Y0002854813D01*
X0003077286Y0002831191D02*
X0003078411Y0002830066D01*
X0003079536Y0002831191D01*
X0003078411Y0002832315D01*
X0003077286Y0002831191D01*
X0003079536Y0002831191D01*
X0003079536Y0002807569D02*
X0003079536Y0002821067D01*
X0003079536Y0002814318D02*
X0003055914Y0002814318D01*
X0003059289Y0002816568D01*
X0003061538Y0002818817D01*
X0003062663Y0002821067D01*
D22*
X0003420662Y0002849944D02*
G75*
G03X0003420662Y0002849944I-0000005567D01*
G01*
X0003399346Y0002948370D02*
X0003462338Y0002948370D01*
X0003462338Y0002948370D02*
X0003462338Y0002830259D01*
X0003462338Y0002830259D02*
X0003399346Y0002830259D01*
X0003399346Y0002830259D02*
X0003399346Y0002948370D01*
D23*
X0003528377Y0002865629D02*
X0003528377Y0002905000D01*
X0003595307Y0002905000D02*
X0003595307Y0002865629D01*
X0003261377Y0002864129D02*
X0003261377Y0002903500D01*
X0003328307Y0002903500D02*
X0003328307Y0002864129D01*
X0002958881Y0003582172D02*
X0003088802Y0003582172D01*
X0003088802Y0003582172D02*
X0003088802Y0003369574D01*
X0002958881Y0003582172D02*
X0002958881Y0003369574D01*
X0003109488Y0003022692D02*
X0003109488Y0003069937D01*
X0003040196Y0003069937D02*
X0003040196Y0003022692D01*
X0003037487Y0003022692D02*
X0003037487Y0003069937D01*
X0002968196Y0003069937D02*
X0002968196Y0003022692D01*
D22*
X0002999040Y0003221062D02*
G75*
G03X0002999040Y0003221062I-0000005567D01*
G01*
X0003091897Y0003236811D02*
X0003091897Y0003173817D01*
X0003091897Y0003173817D02*
X0002973787Y0003173817D01*
X0002973787Y0003173817D02*
X0002973787Y0003236811D01*
X0002973787Y0003236811D02*
X0003091897Y0003236811D01*
D23*
X0003132881Y0003582172D02*
X0003262803Y0003582172D01*
X0003262803Y0003582172D02*
X0003262803Y0003369574D01*
X0003132881Y0003582172D02*
X0003132881Y0003369574D01*
X0003300881Y0003580173D02*
X0003430803Y0003580173D01*
X0003430803Y0003580173D02*
X0003430803Y0003367574D01*
X0003300881Y0003580173D02*
X0003300881Y0003367574D01*
X0003467881Y0003582172D02*
X0003597803Y0003582172D01*
X0003597803Y0003582172D02*
X0003597803Y0003369574D01*
X0003467881Y0003582172D02*
X0003467881Y0003369574D01*
D22*
X0003165040Y0003220062D02*
G75*
G03X0003165040Y0003220062I-0000005567D01*
G01*
X0003257897Y0003235811D02*
X0003257897Y0003172818D01*
X0003257897Y0003172818D02*
X0003139787Y0003172818D01*
X0003139787Y0003172818D02*
X0003139787Y0003235811D01*
X0003139787Y0003235811D02*
X0003257897Y0003235811D01*
X0003332040Y0003220062D02*
G75*
G03X0003332040Y0003220062I-0000005567D01*
G01*
X0003424897Y0003235811D02*
X0003424897Y0003172818D01*
X0003424897Y0003172818D02*
X0003306787Y0003172818D01*
X0003306787Y0003172818D02*
X0003306787Y0003235811D01*
X0003306787Y0003235811D02*
X0003424897Y0003235811D01*
X0003499040Y0003221062D02*
G75*
G03X0003499040Y0003221062I-0000005567D01*
G01*
X0003591897Y0003236811D02*
X0003591897Y0003173817D01*
X0003591897Y0003173817D02*
X0003473787Y0003173817D01*
X0003473787Y0003173817D02*
X0003473787Y0003236811D01*
X0003473787Y0003236811D02*
X0003591897Y0003236811D01*
D23*
X0003277488Y0003021692D02*
X0003277488Y0003068937D01*
X0003208196Y0003068937D02*
X0003208196Y0003021692D01*
X0003204488Y0003021692D02*
X0003204488Y0003068937D01*
X0003135196Y0003068937D02*
X0003135196Y0003021692D01*
X0003442488Y0003021692D02*
X0003442488Y0003068937D01*
X0003373196Y0003068937D02*
X0003373196Y0003021692D01*
X0003370488Y0003021692D02*
X0003370488Y0003068937D01*
X0003301196Y0003068937D02*
X0003301196Y0003021692D01*
X0003609487Y0003020692D02*
X0003609487Y0003067937D01*
X0003540196Y0003067937D02*
X0003540196Y0003020692D01*
X0003537488Y0003020692D02*
X0003537488Y0003067937D01*
X0003468196Y0003067937D02*
X0003468196Y0003020692D01*
D22*
X0003406282Y0002935311D02*
X0003438153Y0002935311D01*
X0003441903Y0002933436D01*
X0003443777Y0002931561D01*
X0003445652Y0002927812D01*
X0003445652Y0002920313D01*
X0003443777Y0002916563D01*
X0003441903Y0002914688D01*
X0003438153Y0002912814D01*
X0003406282Y0002912814D01*
X0003445652Y0002873443D02*
X0003445652Y0002895941D01*
X0003445652Y0002884692D02*
X0003406282Y0002884692D01*
X0003411907Y0002888442D01*
X0003415656Y0002892191D01*
X0003417531Y0002895941D01*
X0003569404Y0002970253D02*
X0003571278Y0002968379D01*
X0003576903Y0002966504D01*
X0003580652Y0002966504D01*
X0003586277Y0002968379D01*
X0003590026Y0002972127D01*
X0003591901Y0002975877D01*
X0003593776Y0002983377D01*
X0003593776Y0002989001D01*
X0003591901Y0002996499D01*
X0003590026Y0003000249D01*
X0003586277Y0003004000D01*
X0003580652Y0003005874D01*
X0003576903Y0003005874D01*
X0003571278Y0003004000D01*
X0003569404Y0003002125D01*
X0003531908Y0002966504D02*
X0003554406Y0002966504D01*
X0003543157Y0002966504D02*
X0003543157Y0003005874D01*
X0003546907Y0003000249D01*
X0003550655Y0002996499D01*
X0003554406Y0002994626D01*
X0003239404Y0002783754D02*
X0003241278Y0002781879D01*
X0003246903Y0002780003D01*
X0003250652Y0002780003D01*
X0003256277Y0002781879D01*
X0003260026Y0002785628D01*
X0003261901Y0002789378D01*
X0003263776Y0002796877D01*
X0003263776Y0002802501D01*
X0003261901Y0002810000D01*
X0003260026Y0002813750D01*
X0003256277Y0002817500D01*
X0003250652Y0002819374D01*
X0003246903Y0002819374D01*
X0003241278Y0002817500D01*
X0003239404Y0002815624D01*
X0003224406Y0002815624D02*
X0003222531Y0002817500D01*
X0003218781Y0002819374D01*
X0003209407Y0002819374D01*
X0003205658Y0002817500D01*
X0003203783Y0002815624D01*
X0003201908Y0002811875D01*
X0003201908Y0002808126D01*
X0003203783Y0002802501D01*
X0003226280Y0002780003D01*
X0003201908Y0002780003D01*
X0003056901Y0003428504D02*
X0003056901Y0003467874D01*
X0003047527Y0003467874D01*
X0003041903Y0003466000D01*
X0003038153Y0003462250D01*
X0003036277Y0003458499D01*
X0003034403Y0003451001D01*
X0003034403Y0003445377D01*
X0003036277Y0003437878D01*
X0003038153Y0003434127D01*
X0003041903Y0003430379D01*
X0003047527Y0003428504D01*
X0003056901Y0003428504D01*
X0002996908Y0003428504D02*
X0003019406Y0003428504D01*
X0003008157Y0003428504D02*
X0003008157Y0003467874D01*
X0003011907Y0003462250D01*
X0003015656Y0003458499D01*
X0003019406Y0003456625D01*
D24*
X0003078123Y0003037409D02*
X0003084684Y0003046783D01*
X0003089371Y0003037409D02*
X0003089371Y0003057094D01*
X0003081872Y0003057094D01*
X0003079998Y0003056157D01*
X0003079060Y0003055220D01*
X0003078123Y0003053345D01*
X0003078123Y0003050533D01*
X0003079060Y0003048658D01*
X0003079998Y0003047721D01*
X0003081872Y0003046783D01*
X0003089371Y0003046783D01*
X0003059375Y0003037409D02*
X0003070623Y0003037409D01*
X0003065000Y0003037409D02*
X0003065000Y0003057094D01*
X0003066874Y0003054282D01*
X0003068749Y0003052407D01*
X0003070623Y0003051470D01*
X0003006123Y0003037409D02*
X0003012685Y0003046783D01*
X0003017371Y0003037409D02*
X0003017371Y0003057094D01*
X0003009872Y0003057094D01*
X0003007998Y0003056157D01*
X0003007060Y0003055220D01*
X0003006123Y0003053345D01*
X0003006123Y0003050533D01*
X0003007060Y0003048658D01*
X0003007998Y0003047721D01*
X0003009872Y0003046783D01*
X0003017371Y0003046783D01*
X0002998624Y0003055220D02*
X0002997686Y0003056157D01*
X0002995812Y0003057094D01*
X0002991125Y0003057094D01*
X0002989250Y0003056157D01*
X0002988313Y0003055220D01*
X0002987375Y0003053345D01*
X0002987375Y0003051470D01*
X0002988313Y0003048658D01*
X0002999561Y0003037409D01*
X0002987375Y0003037409D01*
D22*
X0003051592Y0003182755D02*
X0003055341Y0003184629D01*
X0003059091Y0003188379D01*
X0003064715Y0003194003D01*
X0003068464Y0003195878D01*
X0003072214Y0003195878D01*
X0003070339Y0003186504D02*
X0003074089Y0003188379D01*
X0003077838Y0003192127D01*
X0003079713Y0003199628D01*
X0003079713Y0003212751D01*
X0003077838Y0003220250D01*
X0003074089Y0003224000D01*
X0003070339Y0003225874D01*
X0003062839Y0003225874D01*
X0003059091Y0003224000D01*
X0003055341Y0003220250D01*
X0003053466Y0003212751D01*
X0003053466Y0003199628D01*
X0003055341Y0003192127D01*
X0003059091Y0003188379D01*
X0003062839Y0003186504D01*
X0003070339Y0003186504D01*
X0003015971Y0003186504D02*
X0003038467Y0003186504D01*
X0003027220Y0003186504D02*
X0003027220Y0003225874D01*
X0003030969Y0003220250D01*
X0003034719Y0003216499D01*
X0003038467Y0003214625D01*
X0003226901Y0003428504D02*
X0003226901Y0003467874D01*
X0003217527Y0003467874D01*
X0003211903Y0003466000D01*
X0003208153Y0003462250D01*
X0003206278Y0003458499D01*
X0003204403Y0003451001D01*
X0003204403Y0003445377D01*
X0003206278Y0003437878D01*
X0003208153Y0003434127D01*
X0003211903Y0003430379D01*
X0003217527Y0003428504D01*
X0003226901Y0003428504D01*
X0003191280Y0003467874D02*
X0003166908Y0003467874D01*
X0003180032Y0003452876D01*
X0003174407Y0003452876D01*
X0003170658Y0003451001D01*
X0003168783Y0003449127D01*
X0003166908Y0003445377D01*
X0003166908Y0003436003D01*
X0003168783Y0003432253D01*
X0003170658Y0003430379D01*
X0003174407Y0003428504D01*
X0003185656Y0003428504D01*
X0003189406Y0003430379D01*
X0003191280Y0003432253D01*
X0003392901Y0003425504D02*
X0003392901Y0003464874D01*
X0003383527Y0003464874D01*
X0003377903Y0003463000D01*
X0003374153Y0003459250D01*
X0003372278Y0003455500D01*
X0003370404Y0003448001D01*
X0003370404Y0003442377D01*
X0003372278Y0003434878D01*
X0003374153Y0003431128D01*
X0003377903Y0003427379D01*
X0003383527Y0003425504D01*
X0003392901Y0003425504D01*
X0003334783Y0003464874D02*
X0003353531Y0003464874D01*
X0003355406Y0003446127D01*
X0003353531Y0003448001D01*
X0003349781Y0003449876D01*
X0003340406Y0003449876D01*
X0003336658Y0003448001D01*
X0003334783Y0003446127D01*
X0003332908Y0003442377D01*
X0003332908Y0003433003D01*
X0003334783Y0003429254D01*
X0003336658Y0003427379D01*
X0003340406Y0003425504D01*
X0003349781Y0003425504D01*
X0003353531Y0003427379D01*
X0003355406Y0003429254D01*
X0003559901Y0003428504D02*
X0003559901Y0003467874D01*
X0003550527Y0003467874D01*
X0003544903Y0003466000D01*
X0003541153Y0003462250D01*
X0003539278Y0003458499D01*
X0003537404Y0003451001D01*
X0003537404Y0003445377D01*
X0003539278Y0003437878D01*
X0003541153Y0003434127D01*
X0003544903Y0003430379D01*
X0003550527Y0003428504D01*
X0003559901Y0003428504D01*
X0003524280Y0003467874D02*
X0003498034Y0003467874D01*
X0003514907Y0003428504D01*
X0003217592Y0003181755D02*
X0003221341Y0003183629D01*
X0003225091Y0003187379D01*
X0003230715Y0003193003D01*
X0003234464Y0003194878D01*
X0003238214Y0003194878D01*
X0003236339Y0003185504D02*
X0003240089Y0003187379D01*
X0003243838Y0003191128D01*
X0003245713Y0003198628D01*
X0003245713Y0003211751D01*
X0003243838Y0003219250D01*
X0003240089Y0003223000D01*
X0003236339Y0003224874D01*
X0003228840Y0003224874D01*
X0003225091Y0003223000D01*
X0003221341Y0003219250D01*
X0003219466Y0003211751D01*
X0003219466Y0003198628D01*
X0003221341Y0003191128D01*
X0003225091Y0003187379D01*
X0003228840Y0003185504D01*
X0003236339Y0003185504D01*
X0003204468Y0003221125D02*
X0003202593Y0003223000D01*
X0003198844Y0003224874D01*
X0003189470Y0003224874D01*
X0003185721Y0003223000D01*
X0003183846Y0003221125D01*
X0003181971Y0003217375D01*
X0003181971Y0003213626D01*
X0003183846Y0003208001D01*
X0003206343Y0003185504D01*
X0003181971Y0003185504D01*
X0003386592Y0003181755D02*
X0003390341Y0003183629D01*
X0003394091Y0003187379D01*
X0003399715Y0003193003D01*
X0003403464Y0003194878D01*
X0003407214Y0003194878D01*
X0003405338Y0003185504D02*
X0003409089Y0003187379D01*
X0003412838Y0003191128D01*
X0003414713Y0003198628D01*
X0003414713Y0003211751D01*
X0003412838Y0003219250D01*
X0003409089Y0003223000D01*
X0003405338Y0003224874D01*
X0003397840Y0003224874D01*
X0003394091Y0003223000D01*
X0003390341Y0003219250D01*
X0003388466Y0003211751D01*
X0003388466Y0003198628D01*
X0003390341Y0003191128D01*
X0003394091Y0003187379D01*
X0003397840Y0003185504D01*
X0003405338Y0003185504D01*
X0003375343Y0003224874D02*
X0003350971Y0003224874D01*
X0003364094Y0003209876D01*
X0003358470Y0003209876D01*
X0003354720Y0003208001D01*
X0003352846Y0003206127D01*
X0003350971Y0003202377D01*
X0003350971Y0003193003D01*
X0003352846Y0003189254D01*
X0003354720Y0003187379D01*
X0003358470Y0003185504D01*
X0003369719Y0003185504D01*
X0003373468Y0003187379D01*
X0003375343Y0003189254D01*
X0003552592Y0003181755D02*
X0003556341Y0003183629D01*
X0003560091Y0003187379D01*
X0003565715Y0003193003D01*
X0003569464Y0003194878D01*
X0003573214Y0003194878D01*
X0003571339Y0003185504D02*
X0003575089Y0003187379D01*
X0003578838Y0003191128D01*
X0003580712Y0003198628D01*
X0003580712Y0003211751D01*
X0003578838Y0003219250D01*
X0003575089Y0003223000D01*
X0003571339Y0003224874D01*
X0003563840Y0003224874D01*
X0003560091Y0003223000D01*
X0003556341Y0003219250D01*
X0003554466Y0003211751D01*
X0003554466Y0003198628D01*
X0003556341Y0003191128D01*
X0003560091Y0003187379D01*
X0003563840Y0003185504D01*
X0003571339Y0003185504D01*
X0003520719Y0003211751D02*
X0003520719Y0003185504D01*
X0003530094Y0003226749D02*
X0003539468Y0003198628D01*
X0003515096Y0003198628D01*
D24*
X0003246123Y0003036409D02*
X0003252684Y0003045783D01*
X0003257371Y0003036409D02*
X0003257371Y0003056094D01*
X0003249872Y0003056094D01*
X0003247998Y0003055157D01*
X0003247060Y0003054220D01*
X0003246123Y0003052345D01*
X0003246123Y0003049533D01*
X0003247060Y0003047658D01*
X0003247998Y0003046721D01*
X0003249872Y0003045783D01*
X0003257371Y0003045783D01*
X0003229250Y0003049533D02*
X0003229250Y0003036409D01*
X0003233937Y0003057032D02*
X0003238623Y0003042971D01*
X0003226438Y0003042971D01*
X0003173123Y0003036409D02*
X0003179685Y0003045783D01*
X0003184371Y0003036409D02*
X0003184371Y0003056094D01*
X0003176872Y0003056094D01*
X0003174998Y0003055157D01*
X0003174060Y0003054220D01*
X0003173123Y0003052345D01*
X0003173123Y0003049533D01*
X0003174060Y0003047658D01*
X0003174998Y0003046721D01*
X0003176872Y0003045783D01*
X0003184371Y0003045783D01*
X0003155313Y0003056094D02*
X0003164686Y0003056094D01*
X0003165624Y0003046721D01*
X0003164686Y0003047658D01*
X0003162812Y0003048595D01*
X0003158125Y0003048595D01*
X0003156249Y0003047658D01*
X0003155313Y0003046721D01*
X0003154375Y0003044846D01*
X0003154375Y0003040159D01*
X0003155313Y0003038284D01*
X0003156249Y0003037347D01*
X0003158125Y0003036409D01*
X0003162812Y0003036409D01*
X0003164686Y0003037347D01*
X0003165624Y0003038284D01*
X0003411123Y0003036409D02*
X0003417685Y0003045783D01*
X0003422371Y0003036409D02*
X0003422371Y0003056094D01*
X0003414872Y0003056094D01*
X0003412998Y0003055157D01*
X0003412060Y0003054220D01*
X0003411123Y0003052345D01*
X0003411123Y0003049533D01*
X0003412060Y0003047658D01*
X0003412998Y0003046721D01*
X0003414872Y0003045783D01*
X0003422371Y0003045783D01*
X0003404561Y0003056094D02*
X0003391438Y0003056094D01*
X0003399874Y0003036409D01*
X0003339123Y0003036409D02*
X0003345685Y0003045783D01*
X0003350371Y0003036409D02*
X0003350371Y0003056094D01*
X0003342872Y0003056094D01*
X0003340998Y0003055157D01*
X0003340060Y0003054220D01*
X0003339123Y0003052345D01*
X0003339123Y0003049533D01*
X0003340060Y0003047658D01*
X0003340998Y0003046721D01*
X0003342872Y0003045783D01*
X0003350371Y0003045783D01*
X0003327874Y0003047658D02*
X0003329749Y0003048595D01*
X0003330685Y0003049533D01*
X0003331624Y0003051407D01*
X0003331624Y0003052345D01*
X0003330685Y0003054220D01*
X0003329749Y0003055157D01*
X0003327874Y0003056094D01*
X0003324125Y0003056094D01*
X0003322250Y0003055157D01*
X0003321313Y0003054220D01*
X0003320374Y0003052345D01*
X0003320374Y0003051407D01*
X0003321313Y0003049533D01*
X0003322250Y0003048595D01*
X0003324125Y0003047658D01*
X0003327874Y0003047658D01*
X0003329749Y0003046721D01*
X0003330685Y0003045783D01*
X0003331624Y0003043908D01*
X0003331624Y0003040159D01*
X0003330685Y0003038284D01*
X0003329749Y0003037347D01*
X0003327874Y0003036409D01*
X0003324125Y0003036409D01*
X0003322250Y0003037347D01*
X0003321313Y0003038284D01*
X0003320374Y0003040159D01*
X0003320374Y0003043908D01*
X0003321313Y0003045783D01*
X0003322250Y0003046721D01*
X0003324125Y0003047658D01*
X0003587497Y0003035409D02*
X0003594058Y0003044783D01*
X0003598745Y0003035409D02*
X0003598745Y0003055094D01*
X0003591245Y0003055094D01*
X0003589371Y0003054157D01*
X0003588434Y0003053220D01*
X0003587497Y0003051345D01*
X0003587497Y0003048533D01*
X0003588434Y0003046658D01*
X0003589371Y0003045721D01*
X0003591245Y0003044783D01*
X0003598745Y0003044783D01*
X0003568749Y0003035409D02*
X0003579998Y0003035409D01*
X0003574373Y0003035409D02*
X0003574373Y0003055094D01*
X0003576248Y0003052282D01*
X0003578123Y0003050407D01*
X0003579998Y0003049470D01*
X0003556563Y0003055094D02*
X0003554688Y0003055094D01*
X0003552814Y0003054157D01*
X0003551876Y0003053220D01*
X0003550938Y0003051345D01*
X0003550001Y0003047595D01*
X0003550001Y0003042908D01*
X0003550938Y0003039159D01*
X0003551876Y0003037284D01*
X0003552814Y0003036347D01*
X0003554688Y0003035409D01*
X0003556563Y0003035409D01*
X0003558438Y0003036347D01*
X0003559375Y0003037284D01*
X0003560313Y0003039159D01*
X0003561250Y0003042908D01*
X0003561250Y0003047595D01*
X0003560313Y0003051345D01*
X0003559375Y0003053220D01*
X0003558438Y0003054157D01*
X0003556563Y0003055094D01*
X0003515497Y0003035409D02*
X0003522058Y0003044783D01*
X0003526745Y0003035409D02*
X0003526745Y0003055094D01*
X0003519246Y0003055094D01*
X0003517371Y0003054157D01*
X0003516434Y0003053220D01*
X0003515497Y0003051345D01*
X0003515497Y0003048533D01*
X0003516434Y0003046658D01*
X0003517371Y0003045721D01*
X0003519246Y0003044783D01*
X0003526745Y0003044783D01*
X0003496749Y0003035409D02*
X0003507998Y0003035409D01*
X0003502373Y0003035409D02*
X0003502373Y0003055094D01*
X0003504248Y0003052282D01*
X0003506123Y0003050407D01*
X0003507998Y0003049470D01*
X0003478001Y0003035409D02*
X0003489249Y0003035409D01*
X0003483626Y0003035409D02*
X0003483626Y0003055094D01*
X0003485500Y0003052282D01*
X0003487375Y0003050407D01*
X0003489249Y0003049470D01*
G04 next file*
%LPD*%
G01*
D35*
D36*
X0000522069Y0001775922D02*
X0000523943Y0001770298D01*
X0000525819Y0001768423D01*
X0000529568Y0001766548D01*
X0000535193Y0001766548D01*
X0000538942Y0001768423D01*
X0000540817Y0001770298D01*
X0000542692Y0001774047D01*
X0000542692Y0001789045D01*
X0000503322Y0001789045D01*
X0000503322Y0001775922D01*
X0000505196Y0001772172D01*
X0000507071Y0001770298D01*
X0000510820Y0001768423D01*
X0000514570Y0001768423D01*
X0000518320Y0001770298D01*
X0000520194Y0001772172D01*
X0000522069Y0001775922D01*
X0000522069Y0001789045D01*
X0000542692Y0001749675D02*
X0000503322Y0001749675D01*
X0000522069Y0001749675D02*
X0000522069Y0001727178D01*
X0000542692Y0001727178D02*
X0000503322Y0001727178D01*
X0000527694Y0001708430D02*
X0000527694Y0001678434D01*
X0000542692Y0001639064D02*
X0000542692Y0001661560D01*
X0000542692Y0001650313D02*
X0000503322Y0001650313D01*
X0000508946Y0001654062D01*
X0000512695Y0001657812D01*
X0000514570Y0001661560D01*
X0000520194Y0001616567D02*
X0000518320Y0001620316D01*
X0000516445Y0001622191D01*
X0000512695Y0001624065D01*
X0000510820Y0001624065D01*
X0000507071Y0001622191D01*
X0000505196Y0001620316D01*
X0000503322Y0001616567D01*
X0000503322Y0001609068D01*
X0000505196Y0001605318D01*
X0000507071Y0001603443D01*
X0000510820Y0001601569D01*
X0000512695Y0001601569D01*
X0000516445Y0001603443D01*
X0000518320Y0001605318D01*
X0000520194Y0001609068D01*
X0000520194Y0001616567D01*
X0000522069Y0001620316D01*
X0000523943Y0001622191D01*
X0000527694Y0001624065D01*
X0000535193Y0001624065D01*
X0000538942Y0001622191D01*
X0000540817Y0001620316D01*
X0000542692Y0001616567D01*
X0000542692Y0001609068D01*
X0000540817Y0001605318D01*
X0000538942Y0001603443D01*
X0000535193Y0001601569D01*
X0000527694Y0001601569D01*
X0000523943Y0001603443D01*
X0000522069Y0001605318D01*
X0000520194Y0001609068D01*
X0000503322Y0001567823D02*
X0000503322Y0001575321D01*
X0000505196Y0001579072D01*
X0000507071Y0001580946D01*
X0000512695Y0001584696D01*
X0000520194Y0001586570D01*
X0000535193Y0001586570D01*
X0000538942Y0001584696D01*
X0000540817Y0001582821D01*
X0000542692Y0001579072D01*
X0000542692Y0001571572D01*
X0000540817Y0001567823D01*
X0000538942Y0001565948D01*
X0000535193Y0001564073D01*
X0000525819Y0001564073D01*
X0000522069Y0001565948D01*
X0000520194Y0001567823D01*
X0000518320Y0001571572D01*
X0000518320Y0001579072D01*
X0000520194Y0001582821D01*
X0000522069Y0001584696D01*
X0000525819Y0001586570D01*
X0000503322Y0001528453D02*
X0000503322Y0001547200D01*
X0000522069Y0001549075D01*
X0000520194Y0001547200D01*
X0000518320Y0001543451D01*
X0000518320Y0001534077D01*
X0000520194Y0001530328D01*
X0000522069Y0001528453D01*
X0000525819Y0001526578D01*
X0000535193Y0001526578D01*
X0000538942Y0001528453D01*
X0000540817Y0001530328D01*
X0000542692Y0001534077D01*
X0000542692Y0001543451D01*
X0000540817Y0001547200D01*
X0000538942Y0001549075D01*
X0000503322Y0001502206D02*
X0000503322Y0001498457D01*
X0000505196Y0001494707D01*
X0000507071Y0001492832D01*
X0000510820Y0001490957D01*
X0000518320Y0001489083D01*
X0000527694Y0001489083D01*
X0000535193Y0001490957D01*
X0000538942Y0001492832D01*
X0000540817Y0001494707D01*
X0000542692Y0001498457D01*
X0000542692Y0001502206D01*
X0000540817Y0001505956D01*
X0000538942Y0001507830D01*
X0000535193Y0001509705D01*
X0000527694Y0001511580D01*
X0000518320Y0001511580D01*
X0000510820Y0001509705D01*
X0000507071Y0001507830D01*
X0000505196Y0001505956D01*
X0000503322Y0001502206D01*
X0000527694Y0001472210D02*
X0000527694Y0001442214D01*
X0000542692Y0001423466D02*
X0000503322Y0001423466D01*
X0000503322Y0001408468D01*
X0000505196Y0001404718D01*
X0000507071Y0001402844D01*
X0000510820Y0001400967D01*
X0000516445Y0001400967D01*
X0000520194Y0001402844D01*
X0000522069Y0001404718D01*
X0000523943Y0001408468D01*
X0000523943Y0001423466D01*
X0000538942Y0001361598D02*
X0000540817Y0001363473D01*
X0000542692Y0001369098D01*
X0000542692Y0001372847D01*
X0000540817Y0001378472D01*
X0000537067Y0001382221D01*
X0000533318Y0001384096D01*
X0000525819Y0001385970D01*
X0000520194Y0001385970D01*
X0000512695Y0001384096D01*
X0000508946Y0001382221D01*
X0000505196Y0001378472D01*
X0000503322Y0001372847D01*
X0000503322Y0001369098D01*
X0000505196Y0001363473D01*
X0000507071Y0001361598D01*
G01*
D47*
G04 next file*
G01*
D58*
G04 next file*
G04 #@! TF.FileFunction,Legend,Bot*
G04 Gerber Fmt 4.6, Leading zero omitted, Abs format (unit mm)*
G04 Created by KiCad (PCBNEW 4.0.2-stable) date 05.07.2017 20:46:59*
G01*
G04 APERTURE LIST*
G04 APERTURE END LIST*
D69*
M02*