%MOIN*%
%OFA0B0*%
%FSLAX44Y44*%
%IPPOS*%
%LPD*%
%ADD10C,0*%
D10*
X00028740Y00003952D02*
X00028740Y00003952D01*
X00028740Y00007547D01*
X00028741Y00007585D01*
X00028747Y00007622D01*
X00028756Y00007659D01*
X00028768Y00007694D01*
X00028784Y00007728D01*
X00028803Y00007761D01*
X00028824Y00007791D01*
X00028849Y00007820D01*
X00028876Y00007846D01*
X00028906Y00007869D01*
X00028938Y00007889D01*
X00028971Y00007906D01*
X00029006Y00007920D01*
X00029042Y00007930D01*
X00029079Y00007937D01*
X00029117Y00007941D01*
X00029154Y00007941D01*
X00029192Y00007937D01*
X00029229Y00007929D01*
X00029265Y00007919D01*
X00029265Y00007919D01*
X00029287Y00007910D01*
X00029309Y00007900D01*
X00029331Y00007888D01*
X00029351Y00007875D01*
X00029371Y00007861D01*
X00029390Y00007846D01*
X00029408Y00007830D01*
X00029424Y00007812D01*
X00029440Y00007794D01*
X00029455Y00007775D01*
X00029468Y00007754D01*
X00029480Y00007733D01*
X00029491Y00007712D01*
X00029501Y00007689D01*
X00029509Y00007667D01*
X00029515Y00007643D01*
X00029520Y00007620D01*
X00029524Y00007596D01*
X00029526Y00007572D01*
X00029527Y00007547D01*
X00029527Y00003952D01*
X00029526Y00003928D01*
X00029524Y00003903D01*
X00029520Y00003879D01*
X00029515Y00003855D01*
X00029508Y00003831D01*
X00029500Y00003808D01*
X00029490Y00003785D01*
X00029479Y00003763D01*
X00029466Y00003742D01*
X00029452Y00003721D01*
X00029437Y00003702D01*
X00029421Y00003683D01*
X00029404Y00003666D01*
X00029385Y00003649D01*
X00029366Y00003634D01*
X00029345Y00003620D01*
X00029324Y00003608D01*
X00029302Y00003596D01*
X00029280Y00003587D01*
X00029256Y00003578D01*
X00029256Y00003578D01*
X00029221Y00003568D01*
X00029184Y00003562D01*
X00029147Y00003559D01*
X00029110Y00003559D01*
X00029073Y00003563D01*
X00029036Y00003571D01*
X00029001Y00003581D01*
X00028967Y00003596D01*
X00028934Y00003613D01*
X00028903Y00003633D01*
X00028873Y00003656D01*
X00028847Y00003682D01*
X00028823Y00003710D01*
X00028801Y00003741D01*
X00028783Y00003773D01*
X00028767Y00003807D01*
X00028755Y00003842D01*
X00028747Y00003878D01*
X00028741Y00003915D01*
X00028740Y00003952D01*
X00007874Y00016157D02*
X00007874Y00016157D01*
X00007874Y00025574D01*
X00007874Y00025598D01*
X00007876Y00025622D01*
X00007880Y00025646D01*
X00007885Y00025669D01*
X00007892Y00025693D01*
X00007900Y00025715D01*
X00007909Y00025737D01*
X00007919Y00025759D01*
X00007931Y00025780D01*
X00007944Y00025800D01*
X00007959Y00025819D01*
X00007974Y00025837D01*
X00007991Y00025855D01*
X00008009Y00025871D01*
X00008027Y00025886D01*
X00008047Y00025900D01*
X00008067Y00025913D01*
X00008088Y00025925D01*
X00008110Y00025935D01*
X00008132Y00025944D01*
X00008211Y00025973D01*
X00008247Y00025984D01*
X00008284Y00025992D01*
X00008321Y00025996D01*
X00008359Y00025997D01*
X00008397Y00025994D01*
X00008434Y00025987D01*
X00008470Y00025977D01*
X00008506Y00025963D01*
X00008539Y00025946D01*
X00008571Y00025926D01*
X00008601Y00025903D01*
X00008629Y00025877D01*
X00008654Y00025849D01*
X00008676Y00025818D01*
X00008695Y00025785D01*
X00008711Y00025751D01*
X00008723Y00025715D01*
X00008732Y00025678D01*
X00008738Y00025641D01*
X00008740Y00025603D01*
X00008740Y00019685D01*
X00012900Y00019685D01*
X00012929Y00019683D01*
X00012958Y00019680D01*
X00012986Y00019675D01*
X00013014Y00019668D01*
X00013041Y00019659D01*
X00013067Y00019647D01*
X00013093Y00019634D01*
X00013117Y00019619D01*
X00013141Y00019603D01*
X00013163Y00019584D01*
X00013184Y00019564D01*
X00013203Y00019543D01*
X00013220Y00019520D01*
X00013236Y00019496D01*
X00013250Y00019471D01*
X00013263Y00019445D01*
X00013273Y00019419D01*
X00013281Y00019391D01*
X00013287Y00019363D01*
X00013292Y00019335D01*
X00013303Y00019237D01*
X00013305Y00019204D01*
X00013305Y00019171D01*
X00013301Y00019138D01*
X00013295Y00019105D01*
X00013287Y00019074D01*
X00013275Y00019042D01*
X00013261Y00019012D01*
X00013245Y00018984D01*
X00013226Y00018956D01*
X00013205Y00018931D01*
X00013182Y00018907D01*
X00013157Y00018885D01*
X00013130Y00018866D01*
X00013102Y00018849D01*
X00013072Y00018834D01*
X00013041Y00018822D01*
X00013010Y00018812D01*
X00012977Y00018805D01*
X00012945Y00018801D01*
X00012911Y00018800D01*
X00008740Y00018800D01*
X00008740Y00016128D01*
X00008738Y00016090D01*
X00008732Y00016053D01*
X00008723Y00016016D01*
X00008711Y00015980D01*
X00008695Y00015946D01*
X00008676Y00015913D01*
X00008654Y00015883D01*
X00008629Y00015854D01*
X00008601Y00015828D01*
X00008571Y00015805D01*
X00008539Y00015785D01*
X00008506Y00015768D01*
X00008470Y00015755D01*
X00008434Y00015744D01*
X00008397Y00015738D01*
X00008359Y00015735D01*
X00008321Y00015735D01*
X00008284Y00015739D01*
X00008247Y00015747D01*
X00008211Y00015758D01*
X00008132Y00015787D01*
X00008110Y00015796D01*
X00008088Y00015806D01*
X00008067Y00015818D01*
X00008047Y00015831D01*
X00008027Y00015845D01*
X00008009Y00015860D01*
X00007991Y00015876D01*
X00007974Y00015894D01*
X00007959Y00015912D01*
X00007944Y00015931D01*
X00007931Y00015951D01*
X00007919Y00015972D01*
X00007909Y00015994D01*
X00007900Y00016016D01*
X00007892Y00016039D01*
X00007885Y00016062D01*
X00007880Y00016085D01*
X00007876Y00016109D01*
X00007874Y00016133D01*
X00007874Y00016157D01*
X00028740Y00001559D02*
X00028740Y00001559D01*
X00028741Y00001596D01*
X00028747Y00001633D01*
X00028755Y00001669D01*
X00028767Y00001704D01*
X00028783Y00001738D01*
X00028801Y00001770D01*
X00028823Y00001800D01*
X00028847Y00001829D01*
X00028873Y00001854D01*
X00028903Y00001878D01*
X00028934Y00001898D01*
X00028967Y00001915D01*
X00029001Y00001929D01*
X00029036Y00001940D01*
X00029073Y00001948D01*
X00029110Y00001952D01*
X00029147Y00001952D01*
X00029184Y00001949D01*
X00029221Y00001943D01*
X00029256Y00001933D01*
X00029256Y00001933D01*
X00029280Y00001924D01*
X00029302Y00001914D01*
X00029324Y00001903D01*
X00029345Y00001890D01*
X00029366Y00001877D01*
X00029385Y00001861D01*
X00029404Y00001845D01*
X00029421Y00001828D01*
X00029437Y00001809D01*
X00029452Y00001789D01*
X00029466Y00001769D01*
X00029479Y00001748D01*
X00029490Y00001726D01*
X00029500Y00001703D01*
X00029508Y00001680D01*
X00029515Y00001656D01*
X00029520Y00001632D01*
X00029524Y00001608D01*
X00029526Y00001583D01*
X00029527Y00001559D01*
X00029527Y00000000D01*
X00037401Y00000000D01*
X00037401Y00012204D01*
X00034539Y00012204D01*
X00034508Y00012204D01*
X00034446Y00012209D01*
X00034386Y00012223D01*
X00034329Y00012247D01*
X00034276Y00012279D01*
X00034229Y00012320D01*
X00034189Y00012367D01*
X00034157Y00012419D01*
X00034133Y00012476D01*
X00034119Y00012536D01*
X00034114Y00012598D01*
X00034119Y00012660D01*
X00034133Y00012720D01*
X00034157Y00012777D01*
X00034189Y00012829D01*
X00034229Y00012876D01*
X00034276Y00012916D01*
X00034329Y00012949D01*
X00034386Y00012972D01*
X00034446Y00012987D01*
X00034508Y00012992D01*
X00037401Y00012992D01*
X00037401Y00024803D01*
X00034628Y00024803D01*
X00034566Y00024807D01*
X00034506Y00024822D01*
X00034449Y00024846D01*
X00034396Y00024878D01*
X00034349Y00024918D01*
X00034309Y00024965D01*
X00034277Y00025018D01*
X00034253Y00025075D01*
X00034239Y00025135D01*
X00034234Y00025196D01*
X00034239Y00025258D01*
X00034253Y00025318D01*
X00034277Y00025375D01*
X00034309Y00025428D01*
X00034349Y00025475D01*
X00034396Y00025515D01*
X00034449Y00025547D01*
X00034506Y00025571D01*
X00034566Y00025585D01*
X00034628Y00025590D01*
X00034636Y00025590D01*
X00037401Y00025590D01*
X00037401Y00037401D01*
X00029527Y00037401D01*
X00029527Y00031218D01*
X00029526Y00031194D01*
X00029524Y00031169D01*
X00029520Y00031145D01*
X00029515Y00031121D01*
X00029508Y00031097D01*
X00029500Y00031074D01*
X00029490Y00031051D01*
X00029479Y00031029D01*
X00029466Y00031008D01*
X00029452Y00030988D01*
X00029437Y00030968D01*
X00029421Y00030950D01*
X00029404Y00030932D01*
X00029385Y00030916D01*
X00029366Y00030901D01*
X00029345Y00030887D01*
X00029324Y00030874D01*
X00029302Y00030863D01*
X00029280Y00030853D01*
X00029256Y00030844D01*
X00029256Y00030844D01*
X00029221Y00030835D01*
X00029184Y00030828D01*
X00029147Y00030825D01*
X00029110Y00030825D01*
X00029073Y00030829D01*
X00029036Y00030837D01*
X00029001Y00030848D01*
X00028967Y00030862D01*
X00028934Y00030879D01*
X00028903Y00030900D01*
X00028873Y00030923D01*
X00028847Y00030949D01*
X00028823Y00030977D01*
X00028801Y00031007D01*
X00028783Y00031039D01*
X00028767Y00031073D01*
X00028755Y00031108D01*
X00028747Y00031145D01*
X00028741Y00031181D01*
X00028740Y00031218D01*
X00028740Y00033285D01*
X00008740Y00033285D01*
X00008740Y00027939D01*
X00008738Y00027901D01*
X00008732Y00027864D01*
X00008723Y00027827D01*
X00008711Y00027791D01*
X00008695Y00027757D01*
X00008676Y00027724D01*
X00008654Y00027694D01*
X00008629Y00027665D01*
X00008601Y00027639D01*
X00008571Y00027616D01*
X00008539Y00027596D01*
X00008506Y00027579D01*
X00008470Y00027566D01*
X00008434Y00027555D01*
X00008397Y00027549D01*
X00008359Y00027546D01*
X00008321Y00027546D01*
X00008284Y00027550D01*
X00008247Y00027558D01*
X00008211Y00027569D01*
X00008132Y00027598D01*
X00008110Y00027607D01*
X00008088Y00027617D01*
X00008067Y00027629D01*
X00008047Y00027642D01*
X00008027Y00027656D01*
X00008009Y00027671D01*
X00007991Y00027687D01*
X00007974Y00027705D01*
X00007959Y00027723D01*
X00007944Y00027742D01*
X00007931Y00027763D01*
X00007919Y00027783D01*
X00007909Y00027805D01*
X00007900Y00027827D01*
X00007892Y00027850D01*
X00007885Y00027873D01*
X00007880Y00027896D01*
X00007876Y00027920D01*
X00007874Y00027944D01*
X00007874Y00027968D01*
X00007874Y00031496D01*
X00000000Y00031496D01*
X00000000Y00000000D01*
X00007874Y00000000D01*
X00007874Y00002806D01*
X00007874Y00002829D01*
X00007876Y00002852D01*
X00007880Y00002874D01*
X00007884Y00002897D01*
X00007890Y00002919D01*
X00007897Y00002941D01*
X00007906Y00002962D01*
X00007916Y00002983D01*
X00007926Y00003003D01*
X00007938Y00003022D01*
X00007952Y00003041D01*
X00007966Y00003059D01*
X00007981Y00003076D01*
X00007997Y00003093D01*
X00008015Y00003108D01*
X00008033Y00003122D01*
X00008051Y00003135D01*
X00008071Y00003147D01*
X00008091Y00003158D01*
X00008112Y00003168D01*
X00008191Y00003201D01*
X00008227Y00003215D01*
X00008265Y00003225D01*
X00008303Y00003231D01*
X00008342Y00003233D01*
X00008381Y00003232D01*
X00008419Y00003226D01*
X00008457Y00003217D01*
X00008494Y00003205D01*
X00008529Y00003188D01*
X00008563Y00003168D01*
X00008594Y00003145D01*
X00008623Y00003119D01*
X00008649Y00003091D01*
X00008672Y00003060D01*
X00008693Y00003026D01*
X00008709Y00002991D01*
X00008722Y00002955D01*
X00008732Y00002917D01*
X00008738Y00002878D01*
X00008740Y00002840D01*
X00008740Y00000000D01*
X00028740Y00000000D01*
X00028740Y00001559D01*
X00029527Y00023243D02*
X00029527Y00023243D01*
X00029526Y00023219D01*
X00029524Y00023194D01*
X00029520Y00023170D01*
X00029515Y00023146D01*
X00029508Y00023122D01*
X00029500Y00023099D01*
X00029490Y00023076D01*
X00029479Y00023054D01*
X00029466Y00023033D01*
X00029452Y00023013D01*
X00029437Y00022993D01*
X00029421Y00022975D01*
X00029404Y00022957D01*
X00029385Y00022941D01*
X00029366Y00022926D01*
X00029345Y00022912D01*
X00029324Y00022899D01*
X00029302Y00022888D01*
X00029280Y00022878D01*
X00029256Y00022870D01*
X00029256Y00022870D01*
X00029221Y00022860D01*
X00029184Y00022853D01*
X00029147Y00022850D01*
X00029110Y00022850D01*
X00029073Y00022854D01*
X00029036Y00022862D01*
X00029001Y00022873D01*
X00028967Y00022887D01*
X00028934Y00022904D01*
X00028903Y00022925D01*
X00028873Y00022948D01*
X00028847Y00022974D01*
X00028823Y00023002D01*
X00028801Y00023032D01*
X00028783Y00023064D01*
X00028767Y00023098D01*
X00028755Y00023133D01*
X00028747Y00023170D01*
X00028741Y00023206D01*
X00028740Y00023243D01*
X00028740Y00028825D01*
X00028741Y00028862D01*
X00028747Y00028899D01*
X00028755Y00028935D01*
X00028767Y00028970D01*
X00028783Y00029004D01*
X00028801Y00029036D01*
X00028823Y00029067D01*
X00028847Y00029095D01*
X00028873Y00029121D01*
X00028903Y00029144D01*
X00028934Y00029164D01*
X00028967Y00029182D01*
X00029001Y00029196D01*
X00029036Y00029207D01*
X00029073Y00029214D01*
X00029110Y00029218D01*
X00029147Y00029218D01*
X00029184Y00029215D01*
X00029221Y00029209D01*
X00029256Y00029199D01*
X00029256Y00029199D01*
X00029280Y00029191D01*
X00029302Y00029181D01*
X00029324Y00029169D01*
X00029345Y00029157D01*
X00029366Y00029143D01*
X00029385Y00029128D01*
X00029404Y00029111D01*
X00029421Y00029094D01*
X00029437Y00029075D01*
X00029452Y00029056D01*
X00029466Y00029035D01*
X00029479Y00029014D01*
X00029490Y00028992D01*
X00029500Y00028970D01*
X00029508Y00028946D01*
X00029515Y00028923D01*
X00029520Y00028899D01*
X00029524Y00028874D01*
X00029526Y00028850D01*
X00029527Y00028825D01*
X00029527Y00025590D01*
X00032401Y00025590D01*
X00032409Y00025590D01*
X00032470Y00025585D01*
X00032530Y00025571D01*
X00032587Y00025547D01*
X00032640Y00025515D01*
X00032687Y00025475D01*
X00032727Y00025428D01*
X00032759Y00025375D01*
X00032783Y00025318D01*
X00032797Y00025258D01*
X00032802Y00025196D01*
X00032797Y00025135D01*
X00032783Y00025075D01*
X00032759Y00025018D01*
X00032727Y00024965D01*
X00032687Y00024918D01*
X00032640Y00024878D01*
X00032587Y00024846D01*
X00032530Y00024822D01*
X00032470Y00024807D01*
X00032409Y00024803D01*
X00029527Y00024803D01*
X00029527Y00023243D01*
X00028740Y00014907D02*
X00028740Y00014907D01*
X00028741Y00014944D01*
X00028747Y00014981D01*
X00028755Y00015017D01*
X00028767Y00015052D01*
X00028783Y00015086D01*
X00028801Y00015118D01*
X00028823Y00015149D01*
X00028847Y00015177D01*
X00028873Y00015203D01*
X00028903Y00015226D01*
X00028934Y00015246D01*
X00028967Y00015264D01*
X00029001Y00015278D01*
X00029036Y00015289D01*
X00029073Y00015296D01*
X00029110Y00015300D01*
X00029147Y00015300D01*
X00029184Y00015297D01*
X00029221Y00015291D01*
X00029256Y00015281D01*
X00029256Y00015281D01*
X00029280Y00015273D01*
X00029302Y00015263D01*
X00029324Y00015251D01*
X00029345Y00015239D01*
X00029366Y00015225D01*
X00029385Y00015210D01*
X00029404Y00015193D01*
X00029421Y00015176D01*
X00029437Y00015157D01*
X00029452Y00015138D01*
X00029466Y00015117D01*
X00029479Y00015096D01*
X00029490Y00015074D01*
X00029500Y00015051D01*
X00029508Y00015028D01*
X00029515Y00015005D01*
X00029520Y00014981D01*
X00029524Y00014956D01*
X00029526Y00014932D01*
X00029527Y00014907D01*
X00029527Y00012992D01*
X00032314Y00012992D01*
X00032376Y00012987D01*
X00032436Y00012972D01*
X00032493Y00012949D01*
X00032546Y00012916D01*
X00032593Y00012876D01*
X00032633Y00012829D01*
X00032665Y00012777D01*
X00032689Y00012720D01*
X00032703Y00012660D01*
X00032708Y00012598D01*
X00032703Y00012536D01*
X00032689Y00012476D01*
X00032665Y00012419D01*
X00032633Y00012367D01*
X00032593Y00012320D01*
X00032546Y00012279D01*
X00032493Y00012247D01*
X00032436Y00012223D01*
X00032376Y00012209D01*
X00032314Y00012204D01*
X00032283Y00012204D01*
X00029527Y00012204D01*
X00029527Y00009774D01*
X00029526Y00009750D01*
X00029524Y00009726D01*
X00029520Y00009702D01*
X00029515Y00009679D01*
X00029509Y00009655D01*
X00029501Y00009632D01*
X00029491Y00009610D01*
X00029480Y00009588D01*
X00029468Y00009567D01*
X00029455Y00009547D01*
X00029440Y00009528D01*
X00029424Y00009509D01*
X00029408Y00009492D01*
X00029390Y00009476D01*
X00029371Y00009460D01*
X00029351Y00009446D01*
X00029331Y00009434D01*
X00029309Y00009422D01*
X00029287Y00009412D01*
X00029265Y00009403D01*
X00029265Y00009403D01*
X00029229Y00009392D01*
X00029192Y00009385D01*
X00029154Y00009381D01*
X00029117Y00009381D01*
X00029079Y00009385D01*
X00029042Y00009391D01*
X00029006Y00009402D01*
X00028971Y00009416D01*
X00028938Y00009433D01*
X00028906Y00009453D01*
X00028876Y00009476D01*
X00028849Y00009502D01*
X00028824Y00009530D01*
X00028803Y00009561D01*
X00028784Y00009593D01*
X00028768Y00009628D01*
X00028756Y00009663D01*
X00028747Y00009700D01*
X00028741Y00009737D01*
X00028740Y00009774D01*
X00028740Y00014907D01*
X00029527Y00017300D02*
X00029527Y00017300D01*
X00029526Y00017276D01*
X00029524Y00017251D01*
X00029520Y00017227D01*
X00029515Y00017203D01*
X00029508Y00017179D01*
X00029500Y00017156D01*
X00029490Y00017133D01*
X00029479Y00017111D01*
X00029466Y00017090D01*
X00029452Y00017070D01*
X00029437Y00017050D01*
X00029421Y00017032D01*
X00029404Y00017014D01*
X00029385Y00016998D01*
X00029366Y00016983D01*
X00029345Y00016969D01*
X00029324Y00016956D01*
X00029302Y00016945D01*
X00029280Y00016935D01*
X00029256Y00016926D01*
X00029256Y00016926D01*
X00029221Y00016917D01*
X00029184Y00016910D01*
X00029147Y00016907D01*
X00029110Y00016907D01*
X00029073Y00016911D01*
X00029036Y00016919D01*
X00029001Y00016930D01*
X00028967Y00016944D01*
X00028934Y00016961D01*
X00028903Y00016982D01*
X00028873Y00017005D01*
X00028847Y00017031D01*
X00028823Y00017059D01*
X00028801Y00017089D01*
X00028783Y00017121D01*
X00028767Y00017155D01*
X00028755Y00017190D01*
X00028747Y00017227D01*
X00028741Y00017263D01*
X00028740Y00017300D01*
X00028740Y00018800D01*
X00025569Y00018800D01*
X00025531Y00018801D01*
X00025494Y00018807D01*
X00025457Y00018816D01*
X00025421Y00018828D01*
X00025386Y00018844D01*
X00025354Y00018864D01*
X00025323Y00018886D01*
X00025294Y00018911D01*
X00025268Y00018939D01*
X00025245Y00018969D01*
X00025225Y00019001D01*
X00025208Y00019035D01*
X00025195Y00019071D01*
X00025185Y00019107D01*
X00025178Y00019145D01*
X00025175Y00019183D01*
X00025176Y00019221D01*
X00025181Y00019258D01*
X00025189Y00019295D01*
X00025200Y00019332D01*
X00025237Y00019429D01*
X00025246Y00019451D01*
X00025257Y00019473D01*
X00025268Y00019494D01*
X00025281Y00019514D01*
X00025295Y00019533D01*
X00025310Y00019551D01*
X00025327Y00019569D01*
X00025344Y00019585D01*
X00025362Y00019600D01*
X00025382Y00019614D01*
X00025402Y00019627D01*
X00025422Y00019639D01*
X00025444Y00019650D01*
X00025466Y00019659D01*
X00025488Y00019667D01*
X00025511Y00019673D01*
X00025535Y00019678D01*
X00025558Y00019682D01*
X00025582Y00019684D01*
X00025606Y00019685D01*
X00028740Y00019685D01*
X00028740Y00020850D01*
X00028741Y00020887D01*
X00028747Y00020924D01*
X00028755Y00020960D01*
X00028767Y00020995D01*
X00028783Y00021029D01*
X00028801Y00021061D01*
X00028823Y00021092D01*
X00028847Y00021120D01*
X00028873Y00021146D01*
X00028903Y00021169D01*
X00028934Y00021189D01*
X00028967Y00021207D01*
X00029001Y00021221D01*
X00029036Y00021232D01*
X00029073Y00021239D01*
X00029110Y00021243D01*
X00029147Y00021243D01*
X00029184Y00021240D01*
X00029221Y00021234D01*
X00029256Y00021224D01*
X00029256Y00021224D01*
X00029280Y00021216D01*
X00029302Y00021206D01*
X00029324Y00021194D01*
X00029345Y00021182D01*
X00029366Y00021168D01*
X00029385Y00021153D01*
X00029404Y00021136D01*
X00029421Y00021119D01*
X00029437Y00021100D01*
X00029452Y00021081D01*
X00029466Y00021060D01*
X00029479Y00021039D01*
X00029490Y00021017D01*
X00029500Y00020995D01*
X00029508Y00020971D01*
X00029515Y00020948D01*
X00029520Y00020924D01*
X00029524Y00020899D01*
X00029526Y00020875D01*
X00029527Y00020850D01*
X00029527Y00017300D01*
X00023212Y00019685D02*
X00023212Y00019685D01*
X00023236Y00019684D01*
X00023260Y00019682D01*
X00023283Y00019678D01*
X00023307Y00019673D01*
X00023330Y00019667D01*
X00023352Y00019659D01*
X00023374Y00019650D01*
X00023396Y00019639D01*
X00023416Y00019627D01*
X00023436Y00019614D01*
X00023456Y00019600D01*
X00023474Y00019585D01*
X00023491Y00019569D01*
X00023507Y00019551D01*
X00023523Y00019533D01*
X00023537Y00019514D01*
X00023550Y00019494D01*
X00023561Y00019473D01*
X00023572Y00019451D01*
X00023581Y00019429D01*
X00023617Y00019332D01*
X00023629Y00019295D01*
X00023637Y00019258D01*
X00023642Y00019221D01*
X00023642Y00019183D01*
X00023640Y00019145D01*
X00023633Y00019107D01*
X00023623Y00019071D01*
X00023609Y00019035D01*
X00023593Y00019001D01*
X00023573Y00018969D01*
X00023549Y00018939D01*
X00023524Y00018911D01*
X00023495Y00018886D01*
X00023464Y00018864D01*
X00023432Y00018844D01*
X00023397Y00018828D01*
X00023361Y00018816D01*
X00023324Y00018807D01*
X00023287Y00018801D01*
X00023249Y00018800D01*
X00015090Y00018800D01*
X00015057Y00018801D01*
X00015025Y00018805D01*
X00014992Y00018812D01*
X00014960Y00018822D01*
X00014930Y00018834D01*
X00014900Y00018849D01*
X00014872Y00018866D01*
X00014845Y00018885D01*
X00014820Y00018907D01*
X00014797Y00018931D01*
X00014776Y00018956D01*
X00014757Y00018984D01*
X00014741Y00019012D01*
X00014727Y00019042D01*
X00014715Y00019074D01*
X00014707Y00019105D01*
X00014701Y00019138D01*
X00014697Y00019171D01*
X00014697Y00019204D01*
X00014699Y00019237D01*
X00014710Y00019335D01*
X00014714Y00019363D01*
X00014721Y00019391D01*
X00014729Y00019419D01*
X00014739Y00019445D01*
X00014752Y00019471D01*
X00014766Y00019496D01*
X00014782Y00019520D01*
X00014799Y00019543D01*
X00014818Y00019564D01*
X00014839Y00019584D01*
X00014861Y00019603D01*
X00014884Y00019619D01*
X00014909Y00019634D01*
X00014935Y00019647D01*
X00014961Y00019659D01*
X00014988Y00019668D01*
X00015016Y00019675D01*
X00015044Y00019680D01*
X00015073Y00019683D01*
X00015101Y00019685D01*
X00023212Y00019685D01*
X00007874Y00013763D02*
X00007874Y00013763D01*
X00007874Y00013787D01*
X00007876Y00013811D01*
X00007880Y00013835D01*
X00007885Y00013858D01*
X00007892Y00013882D01*
X00007900Y00013904D01*
X00007909Y00013926D01*
X00007919Y00013948D01*
X00007931Y00013969D01*
X00007944Y00013989D01*
X00007959Y00014008D01*
X00007974Y00014026D01*
X00007991Y00014044D01*
X00008009Y00014060D01*
X00008027Y00014075D01*
X00008047Y00014089D01*
X00008067Y00014102D01*
X00008088Y00014114D01*
X00008110Y00014124D01*
X00008132Y00014133D01*
X00008211Y00014162D01*
X00008247Y00014173D01*
X00008284Y00014181D01*
X00008321Y00014185D01*
X00008359Y00014186D01*
X00008397Y00014183D01*
X00008434Y00014176D01*
X00008470Y00014166D01*
X00008506Y00014152D01*
X00008539Y00014135D01*
X00008571Y00014115D01*
X00008601Y00014092D01*
X00008629Y00014066D01*
X00008654Y00014038D01*
X00008676Y00014007D01*
X00008695Y00013974D01*
X00008711Y00013940D01*
X00008723Y00013904D01*
X00008732Y00013867D01*
X00008738Y00013830D01*
X00008740Y00013792D01*
X00008740Y00005002D01*
X00008738Y00004963D01*
X00008732Y00004924D01*
X00008722Y00004887D01*
X00008709Y00004850D01*
X00008693Y00004815D01*
X00008672Y00004782D01*
X00008649Y00004750D01*
X00008623Y00004722D01*
X00008594Y00004696D01*
X00008563Y00004673D01*
X00008529Y00004653D01*
X00008494Y00004637D01*
X00008457Y00004624D01*
X00008419Y00004615D01*
X00008381Y00004609D01*
X00008342Y00004608D01*
X00008303Y00004610D01*
X00008265Y00004616D01*
X00008227Y00004626D01*
X00008191Y00004640D01*
X00008112Y00004674D01*
X00008091Y00004683D01*
X00008071Y00004694D01*
X00008051Y00004706D01*
X00008033Y00004719D01*
X00008015Y00004733D01*
X00007997Y00004749D01*
X00007981Y00004765D01*
X00007966Y00004782D01*
X00007952Y00004800D01*
X00007938Y00004819D01*
X00007926Y00004838D01*
X00007916Y00004858D01*
X00007906Y00004879D01*
X00007897Y00004901D01*
X00007890Y00004922D01*
X00007884Y00004944D01*
X00007880Y00004967D01*
X00007876Y00004990D01*
X00007874Y00005012D01*
X00007874Y00005035D01*
X00007874Y00013763D01*
M02*