%
M48
METRIC,000.000
T01C1.00
T02C1.40
T10C0.90
T11C2.20
T12C0.40
T13C0.80
%
T01
X018658Y017558
X018658Y015018
X048424Y014923
X050965Y014923
X053504Y014923
X056044Y014923
X024675Y014986
X027215Y014986
X029755Y014986
X066268Y014986
X068808Y014986
X071348Y014986
X024675Y017526
X027215Y017526
X029755Y017526
X066268Y017526
X068808Y017526
X071348Y017526
X024675Y020066
X027215Y020066
X029755Y020066
X061124Y020066
X066268Y020066
X068808Y020066
X071348Y020066
X024675Y022606
X027215Y022606
X029755Y022606
X061124Y022606
X066268Y022606
X068808Y022606
X071348Y022606
X024675Y025146
X027215Y025146
X029755Y025146
X061124Y025146
X066268Y025146
X068808Y025146
X071348Y025146
X024675Y027686
X027215Y027686
X029755Y027686
X061124Y027686
X066268Y027686
X068808Y027686
X071348Y027686
X027215Y030226
X029755Y030226
X061124Y030226
X066268Y030226
X068808Y030226
X071348Y030226
X050965Y032703
X053504Y032703
X056044Y032703
X058584Y032703
X027215Y032766
X029755Y032766
X061124Y032766
X066268Y032766
X068808Y032766
X071348Y032766
X048424Y051714
X050965Y051714
X053504Y051714
X056044Y051714
X024675Y051777
X027215Y051777
X029755Y051777
X066268Y051777
X068808Y051777
X071348Y051777
X024675Y054317
X027215Y054317
X029755Y054317
X066268Y054317
X068808Y054317
X071348Y054317
X024675Y056857
X027215Y056857
X029755Y056857
X061124Y056857
X066268Y056857
X068808Y056857
X071348Y056857
X024675Y059397
X027215Y059397
X029755Y059397
X061124Y059397
X066268Y059397
X068808Y059397
X071348Y059397
X024675Y061937
X027215Y061937
X029755Y061937
X061124Y061937
X066268Y061937
X068808Y061937
X071348Y061937
X024675Y064477
X027215Y064477
X029755Y064477
X061124Y064477
X066268Y064477
X068808Y064477
X071348Y064477
X027215Y067017
X029755Y067017
X061124Y067017
X066268Y067017
X068808Y067017
X071348Y067017
X050965Y069494
X053504Y069494
X056044Y069494
X058584Y069494
X027215Y069557
X029755Y069557
X061124Y069557
X066268Y069557
X068808Y069557
X071348Y069557
X075878Y046938
X075878Y044397
X075878Y041858
X075878Y039319
X081021Y034239
X083562Y034239
X086102Y034239
X088642Y034239
X091181Y034239
X093658Y044397
X093658Y041858
X093658Y039319
X093658Y036779
X093722Y034239
X075810Y029510
X075810Y026970
X075810Y024430
X075810Y021890
X075810Y019349
X075810Y016810
X075810Y014269
X075810Y011729
X075810Y009189
X075810Y006650
X078350Y029510
X078350Y026970
X078350Y024430
X078350Y021890
X078350Y019349
X078350Y016810
X078350Y014269
X078350Y011729
X078350Y009189
X078350Y006650
X080889Y029510
X080889Y026970
X080889Y024430
X080889Y021890
X080889Y019349
X080889Y016810
X080889Y014269
X080889Y011729
X080889Y009189
X080889Y006650
X080889Y004110
X080889Y001569
X083430Y029510
X083430Y026970
X083430Y024430
X083430Y021890
X083430Y019349
X083430Y016810
X083430Y014269
X083430Y011729
X083430Y009189
X083430Y001569
X085970Y029510
X085970Y026970
X085970Y024430
X085970Y021890
X085970Y019349
X085970Y016810
X085970Y014269
X085970Y011729
X085970Y009189
X085970Y001569
X088509Y029510
X088509Y026970
X088509Y024430
X088509Y021890
X088509Y019349
X088509Y016810
X088509Y014269
X088509Y011729
X088509Y009189
X088509Y006650
X088509Y004110
X088509Y001569
X091050Y029510
X091050Y026970
X091050Y024430
X091050Y021890
X091050Y019349
X091050Y016810
X091050Y014269
X091050Y011729
X091050Y009189
X091050Y006650
X091050Y004110
X091050Y001569
X093590Y029510
X093590Y026970
X093590Y024430
X093590Y021890
X093590Y019349
X093590Y016810
X093590Y014269
X093590Y011729
X093590Y009189
X093590Y006650
X093590Y004110
X093590Y001569
X075942Y092896
X078482Y092896
X081021Y092896
X081021Y066239
X083562Y092896
X083562Y066239
X086102Y092896
X086102Y066239
X088642Y092896
X088642Y066239
X091181Y092896
X091181Y066239
X093595Y086114
X093595Y083574
X093658Y076398
X093658Y073859
X093658Y071319
X093658Y068779
X093722Y092896
X093722Y066239
T02
X009331Y076487
X009331Y003587
X009831Y076487
X009831Y003587
X010331Y076487
X010331Y003587
T10
X025249Y006858
X069949Y006858
X025249Y040894
X069949Y040894
X025630Y077748
X070330Y077748
T11
X060553Y016001
X024104Y032131
X060553Y052793
X024104Y068922
X076958Y034810
X084832Y038111
X077000Y002000
X084699Y005379
X076958Y066810
X084832Y070112
T12
X077148Y055702
X080259Y052209
X083181Y036080
X085530Y044334
X086800Y054495
X076806Y085587
X078799Y080018
X081225Y085587
X083092Y079993
X085491Y085536
X086926Y075179
X087334Y080005
X089759Y085695
X090533Y069960
X091487Y080018
X092173Y078786
T13
X084197Y041858
X086197Y041858
X088197Y041858
X090197Y041858
M30