%MOIN*%
%OFA0B0*%
%FSLAX46Y46*%
%IPPOS*%
%LPD*%
%ADD10C,0.0039370078740157488*%
%ADD11R,0.082677165354330714X0.082677165354330714*%
%ADD12C,0.10236220472440946*%
%ADD23C,0.0039370078740157488*%
%ADD24C,0.082677165354330714*%
%ADD25O,0.082677165354330714X0.082677165354330714*%
%ADD26C,0.10236220472440946*%
%ADD27R,0.07874015748031496X0.10157480314960631*%
%ADD28R,0.092519685039370081X0.1141732283464567*%
%ADD29R,0.074803149606299218X0.074803149606299218*%
%ADD30R,0.043307086614173235X0.066929133858267723*%
%ADD41C,0.0039370078740157488*%
%ADD42O,0.1141732283464567X0.1141732283464567*%
%ADD43O,0.11023622047244094X0.11023622047244094*%
%ADD44R,0.082677165354330714X0.082677165354330714*%
%ADD45O,0.082677165354330714X0.082677165354330714*%
%ADD56C,0.0039370078740157488*%
%ADD57C,0.10236220472440946*%
%ADD58R,0.082677165354330714X0.082677165354330714*%
%ADD59C,0.082677165354330714*%
%ADD60O,0.082677165354330714X0.082677165354330714*%
%ADD61C,0.094488188976377951*%
%ADD72C,0.0039370078740157488*%
%ADD73C,0.10236220472440946*%
%ADD74R,0.082677165354330714X0.082677165354330714*%
%ADD75C,0.082677165354330714*%
%ADD76O,0.082677165354330714X0.082677165354330714*%
%ADD77C,0.094488188976377951*%
%ADD88C,0.0039370078740157488*%
%ADD89C,0.082677165354330714*%
%ADD90O,0.082677165354330714X0.082677165354330714*%
%ADD91C,0.10236220472440946*%
%ADD92R,0.074803149606299218X0.064960629921259838*%
%ADD93R,0.064960629921259838X0.074803149606299218*%
%ADD94R,0.053937007874015758X0.065748031496063*%
%ADD95R,0.074803149606299218X0.066929133858267723*%
%ADD96C,0.03937007874015748*%
%ADD97R,0.086614173228346469X0.047244094488188976*%
%ADD98R,0.074803149606299218X0.043307086614173235*%
%ADD99R,0.035433070866141732X0.03937007874015748*%
%ADD100R,0.03937007874015748X0.035433070866141732*%
%ADD101R,0.068897637795275593X0.068897637795275593*%
%ADD102O,0.068897637795275593X0.068897637795275593*%
%ADD103R,0.017716535433070866X0.023622047244094488*%
%LPD*%
G01*
D10*
D11*
X-0002165354Y0005511811D02*
X0003684645Y0001161811D03*
X0003584645Y0001161811D03*
X0003684645Y0001061811D03*
X0003584645Y0001061811D03*
D12*
X0003031496Y0000078740D03*
X0003334645Y0000211810D03*
D11*
X0002984645Y0001161811D03*
X0003084645Y0001161811D03*
X0003184645Y0001161811D03*
X0003284645Y0001161811D03*
X0003384645Y0001161811D03*
X0003484645Y0001161811D03*
X0002984645Y0001061811D03*
X0003084645Y0001061811D03*
X0003184645Y0001061811D03*
X0003284645Y0001061811D03*
X0003384645Y0001061811D03*
X0003484645Y0001061811D03*
X0002984645Y0000961810D03*
X0003084645Y0000961810D03*
X0003184645Y0000961810D03*
X0003284645Y0000961810D03*
X0003384645Y0000961810D03*
X0003484645Y0000961810D03*
X0003584645Y0000961810D03*
X0003684645Y0000961810D03*
X0002984645Y0000861810D03*
X0003084645Y0000861810D03*
X0003184645Y0000861810D03*
X0003284645Y0000861810D03*
X0003384645Y0000861810D03*
X0003484645Y0000861810D03*
X0003584645Y0000861810D03*
X0003684645Y0000861810D03*
X0002984645Y0000761810D03*
X0003084645Y0000761810D03*
X0003184645Y0000761810D03*
X0003284645Y0000761810D03*
X0003384645Y0000761810D03*
X0003484645Y0000761810D03*
X0003584645Y0000761810D03*
X0003684645Y0000761810D03*
X0002984645Y0000661811D03*
X0003084645Y0000661811D03*
X0003184645Y0000661811D03*
X0003284645Y0000661811D03*
X0003384645Y0000661811D03*
X0003484645Y0000661811D03*
X0003584645Y0000661811D03*
X0003684645Y0000661811D03*
X0002984645Y0000561810D03*
X0003084645Y0000561810D03*
X0003184645Y0000561810D03*
X0003284645Y0000561810D03*
X0003384645Y0000561810D03*
X0003484645Y0000561810D03*
X0003584645Y0000561810D03*
X0003684645Y0000561810D03*
X0002984645Y0000461809D03*
X0003084645Y0000461809D03*
X0003184645Y0000461809D03*
X0003284645Y0000461809D03*
X0003384645Y0000461809D03*
X0003484645Y0000461809D03*
X0003584645Y0000461809D03*
X0003684645Y0000461809D03*
X0002984645Y0000361810D03*
X0003084645Y0000361810D03*
X0003184645Y0000361810D03*
X0003284645Y0000361810D03*
X0003384645Y0000361810D03*
X0003484645Y0000361810D03*
X0003584645Y0000361810D03*
X0003684645Y0000361810D03*
X0002984645Y0000261811D03*
X0003084645Y0000261811D03*
X0003184645Y0000261811D03*
X0003484645Y0000261811D03*
X0003584645Y0000261811D03*
X0003684645Y0000261811D03*
X0003184645Y0000161811D03*
X0003484645Y0000161811D03*
X0003584645Y0000161811D03*
X0003684645Y0000161811D03*
X0003184645Y0000061810D03*
X0003284645Y0000061810D03*
X0003384645Y0000061810D03*
X0003484645Y0000061810D03*
X0003584645Y0000061810D03*
X0003684645Y0000061810D03*
G01*
D23*
D24*
X-0003740157Y0007480314D02*
X0003684842Y0003390314D03*
D25*
X0003684842Y0003290314D03*
D24*
X0002989842Y0003657314D03*
D25*
X0003089842Y0003657314D03*
X0003189842Y0003657314D03*
X0003289842Y0003657314D03*
X0003389842Y0003657314D03*
X0003489842Y0003657314D03*
X0003589842Y0003657314D03*
X0003689842Y0003657314D03*
D24*
X0003687341Y0003007814D03*
D25*
X0003687341Y0002907814D03*
X0003687341Y0002807814D03*
X0003687341Y0002707814D03*
D24*
X0003689842Y0002607813D03*
D25*
X0003589842Y0002607813D03*
X0003489842Y0002607813D03*
X0003389842Y0002607813D03*
X0003289842Y0002607813D03*
X0003189842Y0002607813D03*
D26*
X0003029842Y0002630314D03*
X0003339842Y0002760313D03*
D27*
X0003035842Y0002888606D03*
X0003035842Y0003250023D03*
X0003200842Y0002889606D03*
X0003200842Y0003251023D03*
X0003366842Y0002889606D03*
X0003366842Y0003251023D03*
X0003533842Y0002889606D03*
X0003533842Y0003251023D03*
D28*
X0003443803Y0002751314D03*
X0003563881Y0002751314D03*
D29*
X0003031842Y0003473274D03*
X0003031842Y0003343354D03*
D30*
X0002994440Y0003551314D03*
X0003069244Y0003551314D03*
D29*
X0003199842Y0003473274D03*
X0003199842Y0003343354D03*
X0003365842Y0003473274D03*
X0003365842Y0003343354D03*
X0003533842Y0003473274D03*
X0003533842Y0003343354D03*
D30*
X0003237244Y0003551314D03*
X0003162440Y0003551314D03*
X0003402244Y0003550314D03*
X0003327440Y0003550314D03*
X0003569243Y0003551314D03*
X0003494440Y0003551314D03*
G04 next file*
%LPD*%
G01*
D41*
D42*
X-0006692913Y0004921259D02*
X0000406771Y0003011299D03*
X0000367401Y0003011299D03*
D43*
X0000367401Y0000141220D03*
X0000406771Y0000141220D03*
X0000387086Y0000141220D03*
D42*
X0000387086Y0003011299D03*
D44*
X0000734586Y0000691259D03*
D45*
X0000734586Y0000591259D03*
G01*
D56*
D57*
X-0002465984Y-0006139999D02*
X0000949015Y0001265000D03*
D58*
X0001171515Y0000590000D03*
X0001171515Y0000689999D03*
X0001171515Y0000790000D03*
X0001171515Y0000890000D03*
X0001171515Y0000990000D03*
X0001171515Y0001090000D03*
X0001171515Y0001190000D03*
X0001171515Y0001290000D03*
X0001071515Y0000590000D03*
X0001071515Y0000689999D03*
X0001071515Y0000790000D03*
X0001071515Y0000890000D03*
X0001071515Y0000990000D03*
X0001071515Y0001090000D03*
X0001071515Y0001190000D03*
X0001071515Y0001290000D03*
X0000971515Y0000590000D03*
X0000971515Y0000689999D03*
X0000971515Y0000790000D03*
X0000971515Y0000890000D03*
X0000971515Y0000990000D03*
X0000971515Y0001090000D03*
X0002609015Y0000590000D03*
X0002609015Y0000689999D03*
X0002609015Y0000790000D03*
X0002609015Y0000890000D03*
X0002609015Y0000990000D03*
X0002609015Y0001090000D03*
X0002609015Y0001190000D03*
X0002609015Y0001290000D03*
X0002709014Y0000590000D03*
X0002709014Y0000689999D03*
X0002709014Y0000790000D03*
X0002709014Y0000890000D03*
X0002709014Y0000990000D03*
X0002709014Y0001090000D03*
X0002709014Y0001190000D03*
X0002709014Y0001290000D03*
X0002809015Y0000590000D03*
X0002809015Y0000689999D03*
X0002809015Y0000790000D03*
X0002809015Y0000890000D03*
X0002809015Y0000990000D03*
X0002809015Y0001090000D03*
X0002809015Y0001190000D03*
X0002809015Y0001290000D03*
D59*
X0001906515Y0000587500D03*
D60*
X0002006514Y0000587500D03*
X0002106515Y0000587500D03*
X0002206515Y0000587500D03*
D59*
X0002006514Y0001287500D03*
D60*
X0002106515Y0001287500D03*
X0002206515Y0001287500D03*
X0002306515Y0001287500D03*
D59*
X0002406515Y0001290000D03*
D60*
X0002406515Y0001190000D03*
X0002406515Y0001090000D03*
X0002406515Y0000990000D03*
X0002406515Y0000890000D03*
X0002406515Y0000790000D03*
D57*
X0002384015Y0000630000D03*
D61*
X0000994094Y0001610000D03*
X0002753935Y0001610000D03*
X0002753935Y0000270000D03*
X0000994094Y0000270000D03*
G04 next file*
G01*
D72*
D73*
X-0002465984Y-0004691496D02*
X0000949015Y0002713503D03*
D74*
X0001171515Y0002038503D03*
X0001171515Y0002138503D03*
X0001171515Y0002238503D03*
X0001171515Y0002338503D03*
X0001171515Y0002438503D03*
X0001171515Y0002538503D03*
X0001171515Y0002638503D03*
X0001171515Y0002738503D03*
X0001071515Y0002038503D03*
X0001071515Y0002138503D03*
X0001071515Y0002238503D03*
X0001071515Y0002338503D03*
X0001071515Y0002438503D03*
X0001071515Y0002538503D03*
X0001071515Y0002638503D03*
X0001071515Y0002738503D03*
X0000971515Y0002038503D03*
X0000971515Y0002138503D03*
X0000971515Y0002238503D03*
X0000971515Y0002338503D03*
X0000971515Y0002438503D03*
X0000971515Y0002538503D03*
X0002609015Y0002038503D03*
X0002609015Y0002138503D03*
X0002609015Y0002238503D03*
X0002609015Y0002338503D03*
X0002609015Y0002438503D03*
X0002609015Y0002538503D03*
X0002609015Y0002638503D03*
X0002609015Y0002738503D03*
X0002709014Y0002038503D03*
X0002709014Y0002138503D03*
X0002709014Y0002238503D03*
X0002709014Y0002338503D03*
X0002709014Y0002438503D03*
X0002709014Y0002538503D03*
X0002709014Y0002638503D03*
X0002709014Y0002738503D03*
X0002809015Y0002038503D03*
X0002809015Y0002138503D03*
X0002809015Y0002238503D03*
X0002809015Y0002338503D03*
X0002809015Y0002438503D03*
X0002809015Y0002538503D03*
X0002809015Y0002638503D03*
X0002809015Y0002738503D03*
D75*
X0001906515Y0002036003D03*
D76*
X0002006514Y0002036003D03*
X0002106515Y0002036003D03*
X0002206515Y0002036003D03*
D75*
X0002006514Y0002736002D03*
D76*
X0002106515Y0002736002D03*
X0002206515Y0002736002D03*
X0002306515Y0002736002D03*
D75*
X0002406515Y0002738503D03*
D76*
X0002406515Y0002638503D03*
X0002406515Y0002538503D03*
X0002406515Y0002438503D03*
X0002406515Y0002338503D03*
X0002406515Y0002238503D03*
D73*
X0002384015Y0002078503D03*
D77*
X0001009093Y0003061003D03*
X0002768936Y0003061003D03*
G04 next file*
G04 #@! TF.FileFunction,Soldermask,Top*
G04 Gerber Fmt 4.6, Leading zero omitted, Abs format (unit mm)*
G04 Created by KiCad (PCBNEW 4.0.2-stable) date 05.07.2017 20:47:00*
G01*
G04 APERTURE LIST*
G04 APERTURE END LIST*
D88*
D89*
X-0003740157Y0006220472D02*
X0002987342Y0001847972D03*
D90*
X0002987342Y0001747972D03*
X0002987342Y0001647972D03*
X0002987342Y0001547972D03*
D89*
X0003687341Y0001747972D03*
D90*
X0003687341Y0001647972D03*
X0003687341Y0001547972D03*
X0003687341Y0001447972D03*
D89*
X0003689842Y0001347972D03*
D90*
X0003589842Y0001347972D03*
X0003489842Y0001347972D03*
X0003389842Y0001347972D03*
X0003289842Y0001347972D03*
X0003189842Y0001347972D03*
D91*
X0003029842Y0001370472D03*
D92*
X0003134055Y0002352972D03*
X0003035629Y0002352972D03*
D93*
X0003164842Y0001992185D03*
X0003164842Y0001893759D03*
D94*
X0003424841Y0001745472D03*
X0003474842Y0001745472D03*
X0003524842Y0001745472D03*
X0003137342Y0002247972D03*
X0003087342Y0002247972D03*
X0003037342Y0002247972D03*
D95*
X0003111692Y0001582972D03*
X0003217992Y0001582972D03*
X0003111692Y0001500472D03*
X0003217992Y0001500472D03*
D96*
X0003582677Y0002322834D03*
D97*
X0003478740Y0002244094D03*
X0003478740Y0002294094D03*
X0003478740Y0002344094D03*
X0003478740Y0002194094D03*
X0003478740Y0002144094D03*
X0003686614Y0002244094D03*
X0003686614Y0002294094D03*
X0003686614Y0002344094D03*
X0003686614Y0002194094D03*
X0003686614Y0002144094D03*
D98*
X0003243287Y0002275570D03*
X0003243287Y0002312972D03*
X0003243287Y0002350374D03*
X0003361397Y0002350374D03*
X0003361397Y0002312972D03*
X0003361397Y0002275570D03*
D91*
X0003339842Y0001500472D03*
D99*
X0003247755Y0002109527D03*
X0003247755Y0002050472D03*
X0003247755Y0001991417D03*
X0003361929Y0001991417D03*
X0003361929Y0002050472D03*
X0003361929Y0002109527D03*
D100*
X0003304842Y0002111496D03*
D101*
X0003314841Y0001647972D03*
D102*
X0003393582Y0001647972D03*
X0003472322Y0001647972D03*
X0003551062Y0001647972D03*
D92*
X0003480629Y0002017971D03*
X0003579055Y0002017971D03*
D103*
X0003266456Y0001919467D03*
X0003292046Y0001919467D03*
X0003317637Y0001919467D03*
X0003343228Y0001919467D03*
X0003266456Y0001856476D03*
X0003292046Y0001856476D03*
X0003317637Y0001856476D03*
X0003343228Y0001856476D03*
M02*