%
M48
METRIC,000.000
T01C0.50
%
T01
X020250Y035607
X020250Y036607
X020250Y037607
X020250Y038607
X020250Y039607
X020250Y040607
X021949Y040482
X021949Y039482
X021949Y038482
X021949Y037482
X021949Y036482
X021949Y035482
X064537Y048002
X063537Y048002
X062537Y048002
X061537Y048002
X060537Y048002
X059537Y048002
X059741Y049749
X060741Y049749
X061741Y049749
X062741Y049749
X063741Y049749
X064741Y049749
X020250Y065607
X020250Y066607
X020250Y067607
X020250Y068607
X020250Y069607
X020250Y070607
X021949Y070066
X021949Y069066
X021949Y068066
X021949Y067066
X021949Y066066
X021949Y065066
X073249Y038607
X073249Y039607
X073249Y040607
X073249Y041607
X073249Y042607
X073249Y043607
X074750Y043178
X074750Y042178
X074750Y041178
X074750Y040178
X074750Y039178
X074750Y038178
X073249Y053607
X073249Y054607
X073249Y055607
X073249Y056607
X073249Y057607
X073249Y058607
X074750Y058178
X074750Y057178
X074750Y056178
X074750Y055178
X074750Y054178
X074750Y053178
X073249Y004607
X073249Y005607
X073249Y006607
X073249Y007607
X073249Y008607
X073249Y009607
X074750Y009178
X074750Y008178
X074750Y007178
X074750Y006178
X074750Y005178
X074750Y004178
X073249Y073607
X073249Y074607
X073249Y075607
X073249Y076607
X073249Y077607
X073249Y078607
X074750Y079178
X074750Y078178
X074750Y077178
X074750Y076178
X074750Y075178
X074750Y074178
X074750Y073178
X037537Y048002
X036537Y048002
X035537Y048002
X034537Y048002
X033537Y048002
X032741Y049749
X033741Y049749
X034741Y049749
X035741Y049749
X036741Y049749
X037741Y049749
X020250Y007607
X020250Y008607
X020250Y009607
X020250Y010607
X020250Y011607
X020250Y012607
X021949Y012482
X021949Y011482
X021949Y010482
X021949Y009482
X021949Y008482
X021949Y007482
X073249Y019607
X073249Y020607
X073249Y021607
X073249Y022607
X073249Y023607
X073249Y024607
X074750Y024178
X074750Y023178
X074750Y022178
X074750Y021178
X074750Y020178
X074750Y019178
X087785Y063250
X086785Y063250
X085785Y063250
X084785Y063250
X083785Y063250
X082785Y063250
X082429Y064750
X083429Y064750
X084429Y064750
X085429Y064750
X086429Y064750
X087429Y064750
X082429Y032750
X083429Y032750
X084429Y032750
X085429Y032750
X086429Y032750
X087429Y032750
X087785Y031250
X086785Y031250
X085785Y031250
X084785Y031250
X083785Y031250
X082785Y031250
M30