%MOIN*%
%OFA0B0*%
%FSLAX46Y46*%
%IPPOS*%
%LPD*%
%ADD10C,0.0039370078740157488*%
%ADD11R,0.066929133858267723X0.066929133858267723*%
%ADD22C,0.0039370078740157488*%
%ADD23C,0.066929133858267723*%
%ADD24O,0.066929133858267723X0.066929133858267723*%
%ADD25R,0.035433070866141732X0.023622047244094488*%
%ADD26R,0.049212598425196853X0.03937007874015748*%
%ADD27R,0.070866141732283464X0.0984251968503937*%
%ADD28R,0.051181102362204731X0.027559055118110236*%
%ADD29R,0.023622047244094488X0.035433070866141732*%
%ADD30C,0.023622047244094488*%
%ADD31C,0.00984251968503937*%
%ADD32C,0.01968503937007874*%
%ADD33C,0.01*%
%ADD44C,0.0039370078740157488*%
%ADD45O,0.0984251968503937X0.0984251968503937*%
%ADD46O,0.094488188976377951X0.094488188976377951*%
%ADD47R,0.066929133858267723X0.066929133858267723*%
%ADD48O,0.066929133858267723X0.066929133858267723*%
%ADD59C,0.0039370078740157488*%
%ADD60R,0.066929133858267723X0.066929133858267723*%
%ADD61C,0.066929133858267723*%
%ADD62O,0.066929133858267723X0.066929133858267723*%
%ADD63C,0.07874015748031496*%
%ADD74C,0.0039370078740157488*%
%ADD75R,0.066929133858267723X0.066929133858267723*%
%ADD76C,0.066929133858267723*%
%ADD77O,0.066929133858267723X0.066929133858267723*%
%ADD78C,0.07874015748031496*%
%ADD89C,0.0039370078740157488*%
%ADD90C,0.066929133858267723*%
%ADD91O,0.066929133858267723X0.066929133858267723*%
%ADD92R,0.053149606299212608X0.053149606299212608*%
%ADD93O,0.053149606299212608X0.053149606299212608*%
%ADD94C,0.023622047244094488*%
%ADD95C,0.00984251968503937*%
%ADD96C,0.01*%
%LPD*%
G01*
D10*
D11*
X-0002165354Y0005511811D02*
X0003684645Y0001161811D03*
X0003584645Y0001161811D03*
X0003684645Y0001061811D03*
X0003584645Y0001061811D03*
X0002984645Y0001161811D03*
X0003084645Y0001161811D03*
X0003184645Y0001161811D03*
X0003284645Y0001161811D03*
X0003384645Y0001161811D03*
X0003484645Y0001161811D03*
X0002984645Y0001061811D03*
X0003084645Y0001061811D03*
X0003184645Y0001061811D03*
X0003284645Y0001061811D03*
X0003384645Y0001061811D03*
X0003484645Y0001061811D03*
X0002984645Y0000961810D03*
X0003084645Y0000961810D03*
X0003184645Y0000961810D03*
X0003284645Y0000961810D03*
X0003384645Y0000961810D03*
X0003484645Y0000961810D03*
X0003584645Y0000961810D03*
X0003684645Y0000961810D03*
X0002984645Y0000861810D03*
X0003084645Y0000861810D03*
X0003184645Y0000861810D03*
X0003284645Y0000861810D03*
X0003384645Y0000861810D03*
X0003484645Y0000861810D03*
X0003584645Y0000861810D03*
X0003684645Y0000861810D03*
X0002984645Y0000761810D03*
X0003084645Y0000761810D03*
X0003184645Y0000761810D03*
X0003284645Y0000761810D03*
X0003384645Y0000761810D03*
X0003484645Y0000761810D03*
X0003584645Y0000761810D03*
X0003684645Y0000761810D03*
X0002984645Y0000661811D03*
X0003084645Y0000661811D03*
X0003184645Y0000661811D03*
X0003284645Y0000661811D03*
X0003384645Y0000661811D03*
X0003484645Y0000661811D03*
X0003584645Y0000661811D03*
X0003684645Y0000661811D03*
X0002984645Y0000561810D03*
X0003084645Y0000561810D03*
X0003184645Y0000561810D03*
X0003284645Y0000561810D03*
X0003384645Y0000561810D03*
X0003484645Y0000561810D03*
X0003584645Y0000561810D03*
X0003684645Y0000561810D03*
X0002984645Y0000461809D03*
X0003084645Y0000461809D03*
X0003184645Y0000461809D03*
X0003284645Y0000461809D03*
X0003384645Y0000461809D03*
X0003484645Y0000461809D03*
X0003584645Y0000461809D03*
X0003684645Y0000461809D03*
X0002984645Y0000361810D03*
X0003084645Y0000361810D03*
X0003184645Y0000361810D03*
X0003284645Y0000361810D03*
X0003384645Y0000361810D03*
X0003484645Y0000361810D03*
X0003584645Y0000361810D03*
X0003684645Y0000361810D03*
X0002984645Y0000261811D03*
X0003084645Y0000261811D03*
X0003184645Y0000261811D03*
X0003484645Y0000261811D03*
X0003584645Y0000261811D03*
X0003684645Y0000261811D03*
X0003184645Y0000161811D03*
X0003484645Y0000161811D03*
X0003584645Y0000161811D03*
X0003684645Y0000161811D03*
X0003184645Y0000061810D03*
X0003284645Y0000061810D03*
X0003384645Y0000061810D03*
X0003484645Y0000061810D03*
X0003584645Y0000061810D03*
X0003684645Y0000061810D03*
G01*
D22*
D23*
X-0003740157Y0007480314D02*
X0003684842Y0003390314D03*
D24*
X0003684842Y0003290314D03*
D23*
X0002989842Y0003657314D03*
D24*
X0003089842Y0003657314D03*
X0003189842Y0003657314D03*
X0003289842Y0003657314D03*
X0003389842Y0003657314D03*
X0003489842Y0003657314D03*
X0003589842Y0003657314D03*
X0003689842Y0003657314D03*
D23*
X0003687341Y0003007814D03*
D24*
X0003687341Y0002907814D03*
X0003687341Y0002807814D03*
X0003687341Y0002707814D03*
D23*
X0003689842Y0002607813D03*
D24*
X0003589842Y0002607813D03*
X0003489842Y0002607813D03*
X0003389842Y0002607813D03*
X0003289842Y0002607813D03*
X0003189842Y0002607813D03*
D25*
X0003485960Y0002889314D03*
X0003375724Y0002926716D03*
X0003375724Y0002851912D03*
D26*
X0003561842Y0002924684D03*
X0003561842Y0002845944D03*
X0003294842Y0002923185D03*
X0003294842Y0002844444D03*
D27*
X0003023842Y0003527055D03*
X0003023842Y0003369574D03*
D28*
X0003074842Y0003083716D03*
X0003074842Y0003008913D03*
X0003002842Y0003083716D03*
X0003002842Y0003008913D03*
D29*
X0003032842Y0003150196D03*
X0003070244Y0003260433D03*
X0002995440Y0003260433D03*
D27*
X0003197842Y0003527055D03*
X0003197842Y0003369574D03*
X0003365842Y0003525055D03*
X0003365842Y0003367574D03*
X0003532841Y0003527055D03*
X0003532841Y0003369574D03*
D29*
X0003198842Y0003149196D03*
X0003236244Y0003259433D03*
X0003161440Y0003259433D03*
X0003365842Y0003149196D03*
X0003403244Y0003259433D03*
X0003328439Y0003259433D03*
X0003532841Y0003150196D03*
X0003570244Y0003260433D03*
X0003495440Y0003260433D03*
D28*
X0003242841Y0003082716D03*
X0003242841Y0003007913D03*
X0003169842Y0003082716D03*
X0003169842Y0003007913D03*
X0003407842Y0003082716D03*
X0003407842Y0003007913D03*
X0003335842Y0003082716D03*
X0003335842Y0003007913D03*
X0003574842Y0003081716D03*
X0003574842Y0003006913D03*
X0003502842Y0003081716D03*
X0003502842Y0003006913D03*
D30*
X0003564342Y0002754314D03*
X0003628842Y0003101814D03*
X0003422342Y0002959814D03*
X0003102342Y0003150313D03*
X0003023842Y0003369574D03*
X0003271342Y0003149314D03*
X0003197842Y0003369574D03*
X0003438342Y0003149814D03*
X0003365842Y0003367574D03*
X0003601842Y0003150313D03*
X0003533842Y0003373814D03*
D31*
X0003561842Y0002845944D02*
X0003561842Y0002756814D01*
X0003561842Y0002756814D02*
X0003564342Y0002754314D01*
X0003684842Y0003073779D02*
X0003684842Y0003242988D01*
X0003641082Y0003030019D02*
X0003684842Y0003073779D01*
X0003641082Y0002954074D02*
X0003641082Y0003030019D01*
X0003687341Y0002907814D02*
X0003641082Y0002954074D01*
X0003684842Y0003242988D02*
X0003684842Y0003290314D01*
X0003305090Y0002834196D02*
X0003294842Y0002844444D01*
X0003561842Y0002845944D02*
X0003566763Y0002845944D01*
X0003546593Y0002830696D02*
X0003561842Y0002845944D01*
X0003547094Y0002831196D02*
X0003561842Y0002845944D01*
X0003464401Y0002858313D02*
X0003506889Y0002858313D01*
X0003506889Y0002858313D02*
X0003526999Y0002878425D01*
X0003526999Y0002878425D02*
X0003616732Y0002878425D01*
X0003616732Y0002878425D02*
X0003653877Y0002841279D01*
X0003653877Y0002841279D02*
X0003687341Y0002807814D01*
X0003481933Y0002925814D02*
X0003469901Y0002925814D01*
X0003469901Y0002925814D02*
X0003455448Y0002911362D01*
X0003455448Y0002911362D02*
X0003455448Y0002867267D01*
X0003455448Y0002867267D02*
X0003464401Y0002858313D01*
X0003563031Y0003006913D02*
X0003481933Y0002925814D01*
X0003574842Y0003006913D02*
X0003563031Y0003006913D01*
X0003234842Y0002916814D02*
X0003234842Y0002933314D01*
X0003272342Y0002970814D02*
X0003358933Y0002970814D01*
X0003234842Y0002933314D02*
X0003272342Y0002970814D01*
X0003351842Y0002695314D02*
X0003283342Y0002695314D01*
X0003235842Y0002801813D02*
X0003234842Y0002801813D01*
X0003235842Y0002742814D02*
X0003235842Y0002801813D01*
X0003283342Y0002695314D02*
X0003235842Y0002742814D01*
X0003351842Y0002695314D02*
X0003627516Y0002695314D01*
X0003627516Y0002695314D02*
X0003640015Y0002707814D01*
X0003640015Y0002707814D02*
X0003687341Y0002707814D01*
X0003234842Y0002916814D02*
X0003234842Y0002801813D01*
X0003396031Y0003007913D02*
X0003358933Y0002970814D01*
X0003407842Y0003007913D02*
X0003396031Y0003007913D01*
X0003338342Y0002673314D02*
X0003254841Y0002673314D01*
X0003206841Y0002814814D02*
X0003207409Y0002814814D01*
X0003206841Y0002721314D02*
X0003206841Y0002814814D01*
X0003254841Y0002673314D02*
X0003206841Y0002721314D01*
X0003656377Y0002641279D02*
X0003689842Y0002607813D01*
X0003624342Y0002673314D02*
X0003656377Y0002641279D01*
X0003338342Y0002673314D02*
X0003624342Y0002673314D01*
X0003242841Y0003007913D02*
X0003242841Y0002984291D01*
X0003207409Y0002948858D02*
X0003207409Y0002814814D01*
X0003242841Y0002984291D02*
X0003207409Y0002948858D01*
X0003326841Y0002654074D02*
X0003239582Y0002654074D01*
X0003074342Y0002921813D02*
X0003074842Y0002921813D01*
X0003074342Y0002819314D02*
X0003074342Y0002921813D01*
X0003239582Y0002654074D02*
X0003074342Y0002819314D01*
X0003556377Y0002641279D02*
X0003589842Y0002607813D01*
X0003326841Y0002654074D02*
X0003543582Y0002654074D01*
X0003543582Y0002654074D02*
X0003556377Y0002641279D01*
X0003074842Y0003008913D02*
X0003074842Y0002921813D01*
X0003485960Y0002889314D02*
X0003485960Y0002902933D01*
X0003507711Y0002924684D02*
X0003561842Y0002924684D01*
X0003485960Y0002902933D02*
X0003507711Y0002924684D01*
X0003623365Y0003027314D02*
X0003623365Y0003096338D01*
X0003623365Y0003096338D02*
X0003628842Y0003101814D01*
X0003566763Y0002924684D02*
X0003623365Y0002981286D01*
X0003623365Y0002981286D02*
X0003623365Y0003027314D01*
X0003561842Y0002924684D02*
X0003566763Y0002924684D01*
X0003555826Y0002924684D02*
X0003561842Y0002924684D01*
X0003532841Y0003527055D02*
X0003532841Y0003600314D01*
X0003532841Y0003600314D02*
X0003589842Y0003657314D01*
D32*
X0003684842Y0003458314D02*
X0003616102Y0003527055D01*
X0003684842Y0003390314D02*
X0003684842Y0003458314D01*
X0003616102Y0003527055D02*
X0003532841Y0003527055D01*
D31*
X0003365842Y0003525055D02*
X0003365842Y0003633314D01*
X0003365842Y0003633314D02*
X0003389842Y0003657314D01*
X0003197842Y0003527055D02*
X0003197842Y0003649314D01*
X0003197842Y0003649314D02*
X0003189842Y0003657314D01*
X0003023842Y0003527055D02*
X0003023842Y0003623314D01*
X0003023842Y0003623314D02*
X0002989842Y0003657314D01*
D32*
X0003197842Y0003527055D02*
X0003152566Y0003527055D01*
X0003152566Y0003527055D02*
X0003023842Y0003527055D01*
X0003365842Y0003525055D02*
X0003199842Y0003525055D01*
D31*
X0003199842Y0003525055D02*
X0003197842Y0003527055D01*
D32*
X0003532841Y0003527055D02*
X0003367842Y0003527055D01*
D31*
X0003367842Y0003527055D02*
X0003365842Y0003525055D01*
X0003375724Y0002926716D02*
X0003389244Y0002926716D01*
X0003389244Y0002926716D02*
X0003422342Y0002959814D01*
X0003294842Y0002923185D02*
X0003372192Y0002923185D01*
X0003372192Y0002923185D02*
X0003375724Y0002926716D01*
X0003102342Y0003150313D02*
X0003032960Y0003150313D01*
X0003032960Y0003150313D02*
X0003032842Y0003150196D01*
X0003032842Y0003360574D02*
X0003023842Y0003369574D01*
X0003002842Y0003008913D02*
X0002967409Y0003008913D01*
X0002967409Y0003008913D02*
X0002964456Y0003011866D01*
X0002964456Y0003011866D02*
X0002964456Y0003201888D01*
X0002964456Y0003201888D02*
X0002995440Y0003232874D01*
X0002995440Y0003232874D02*
X0002995440Y0003260433D01*
X0003002842Y0003008913D02*
X0003014652Y0003008913D01*
X0003014652Y0003008913D02*
X0003074842Y0003069102D01*
X0003074842Y0003069102D02*
X0003074842Y0003083716D01*
X0003271342Y0003149314D02*
X0003198959Y0003149314D01*
X0003198959Y0003149314D02*
X0003198842Y0003149196D01*
X0003198842Y0003368574D02*
X0003197842Y0003369574D01*
X0003438342Y0003149814D02*
X0003366460Y0003149814D01*
X0003366460Y0003149814D02*
X0003365842Y0003149196D01*
X0003601842Y0003150313D02*
X0003532960Y0003150313D01*
X0003532960Y0003150313D02*
X0003532841Y0003150196D01*
X0003169842Y0003007913D02*
X0003158031Y0003007913D01*
X0003158031Y0003007913D02*
X0003131456Y0003034488D01*
X0003131456Y0003034488D02*
X0003131456Y0003201888D01*
X0003131456Y0003201888D02*
X0003161440Y0003231874D01*
X0003161440Y0003231874D02*
X0003161440Y0003259433D01*
X0003169842Y0003007913D02*
X0003181653Y0003007913D01*
X0003181653Y0003007913D02*
X0003242841Y0003069102D01*
X0003242841Y0003069102D02*
X0003242841Y0003082716D01*
X0003335842Y0003007913D02*
X0003324031Y0003007913D01*
X0003324031Y0003007913D02*
X0003297455Y0003034488D01*
X0003297455Y0003034488D02*
X0003297455Y0003200889D01*
X0003297455Y0003200889D02*
X0003328439Y0003231874D01*
X0003328439Y0003231874D02*
X0003328439Y0003259433D01*
X0003335842Y0003007913D02*
X0003347653Y0003007913D01*
X0003347653Y0003007913D02*
X0003407842Y0003068101D01*
X0003407842Y0003068101D02*
X0003407842Y0003082716D01*
X0003502842Y0003006913D02*
X0003491031Y0003006913D01*
X0003491031Y0003006913D02*
X0003464456Y0003033488D01*
X0003464456Y0003033488D02*
X0003464456Y0003201888D01*
X0003464456Y0003201888D02*
X0003495440Y0003232874D01*
X0003495440Y0003232874D02*
X0003495440Y0003260433D01*
X0003574842Y0003081716D02*
X0003563031Y0003081716D01*
X0003563031Y0003081716D02*
X0003502842Y0003021527D01*
X0003502842Y0003021527D02*
X0003502842Y0003006913D01*
D33*
G36*
X0003427929Y0002922999D02*
X0003427805Y0002922812D01*
X0003425527Y0002911362D01*
X0003425527Y0002867267D01*
X0003427805Y0002855817D01*
X0003434291Y0002846110D01*
X0003443243Y0002837157D01*
X0003452951Y0002830671D01*
X0003464401Y0002828393D01*
X0003506889Y0002828393D01*
X0003518340Y0002830671D01*
X0003528047Y0002837157D01*
X0003539393Y0002848503D01*
X0003604338Y0002848503D01*
X0003630600Y0002822240D01*
X0003627732Y0002807814D01*
X0003632182Y0002785441D01*
X0003644856Y0002766474D01*
X0003657815Y0002757814D01*
X0003644856Y0002749155D01*
X0003636798Y0002737096D01*
X0003628566Y0002735458D01*
X0003618858Y0002728972D01*
X0003615121Y0002725236D01*
X0003399238Y0002725236D01*
X0003408136Y0002746668D01*
X0003408161Y0002773842D01*
X0003397784Y0002798957D01*
X0003378585Y0002818189D01*
X0003353489Y0002828609D01*
X0003326315Y0002828633D01*
X0003301200Y0002818256D01*
X0003281968Y0002799058D01*
X0003271546Y0002773961D01*
X0003271525Y0002749445D01*
X0003265763Y0002755208D01*
X0003265763Y0002801813D01*
X0003264763Y0002806842D01*
X0003264763Y0002879118D01*
X0003270236Y0002878010D01*
X0003319448Y0002878010D01*
X0003328713Y0002879753D01*
X0003337222Y0002885228D01*
X0003342712Y0002893263D01*
X0003345398Y0002893263D01*
X0003348090Y0002891423D01*
X0003358007Y0002889415D01*
X0003393440Y0002889415D01*
X0003402705Y0002891158D01*
X0003411213Y0002896634D01*
X0003416922Y0002904988D01*
X0003418723Y0002913880D01*
X0003427841Y0002922999D01*
X0003427929Y0002922999D01*
X0003427929Y0002922999D01*
G37*
X0003427929Y0002922999D02*
X0003427805Y0002922812D01*
X0003425527Y0002911362D01*
X0003425527Y0002867267D01*
X0003427805Y0002855817D01*
X0003434291Y0002846110D01*
X0003443243Y0002837157D01*
X0003452951Y0002830671D01*
X0003464401Y0002828393D01*
X0003506889Y0002828393D01*
X0003518340Y0002830671D01*
X0003528047Y0002837157D01*
X0003539393Y0002848503D01*
X0003604338Y0002848503D01*
X0003630600Y0002822240D01*
X0003627732Y0002807814D01*
X0003632182Y0002785441D01*
X0003644856Y0002766474D01*
X0003657815Y0002757814D01*
X0003644856Y0002749155D01*
X0003636798Y0002737096D01*
X0003628566Y0002735458D01*
X0003618858Y0002728972D01*
X0003615121Y0002725236D01*
X0003399238Y0002725236D01*
X0003408136Y0002746668D01*
X0003408161Y0002773842D01*
X0003397784Y0002798957D01*
X0003378585Y0002818189D01*
X0003353489Y0002828609D01*
X0003326315Y0002828633D01*
X0003301200Y0002818256D01*
X0003281968Y0002799058D01*
X0003271546Y0002773961D01*
X0003271525Y0002749445D01*
X0003265763Y0002755208D01*
X0003265763Y0002801813D01*
X0003264763Y0002806842D01*
X0003264763Y0002879118D01*
X0003270236Y0002878010D01*
X0003319448Y0002878010D01*
X0003328713Y0002879753D01*
X0003337222Y0002885228D01*
X0003342712Y0002893263D01*
X0003345398Y0002893263D01*
X0003348090Y0002891423D01*
X0003358007Y0002889415D01*
X0003393440Y0002889415D01*
X0003402705Y0002891158D01*
X0003411213Y0002896634D01*
X0003416922Y0002904988D01*
X0003418723Y0002913880D01*
X0003427841Y0002922999D01*
X0003427929Y0002922999D01*
G36*
X0003654181Y0002958280D02*
X0003675662Y0002949360D01*
X0003698920Y0002949340D01*
X0003712204Y0002954829D01*
X0003712204Y0002860931D01*
X0003710861Y0002861829D01*
X0003688487Y0002866279D01*
X0003686197Y0002866279D01*
X0003673682Y0002863790D01*
X0003637888Y0002899582D01*
X0003628182Y0002906068D01*
X0003616732Y0002908346D01*
X0003611938Y0002908346D01*
X0003611938Y0002927543D01*
X0003644523Y0002960129D01*
X0003647655Y0002964817D01*
X0003654181Y0002958280D01*
X0003654181Y0002958280D01*
G37*
X0003654181Y0002958280D02*
X0003675662Y0002949360D01*
X0003698920Y0002949340D01*
X0003712204Y0002954829D01*
X0003712204Y0002860931D01*
X0003710861Y0002861829D01*
X0003688487Y0002866279D01*
X0003686197Y0002866279D01*
X0003673682Y0002863790D01*
X0003637888Y0002899582D01*
X0003628182Y0002906068D01*
X0003616732Y0002908346D01*
X0003611938Y0002908346D01*
X0003611938Y0002927543D01*
X0003644523Y0002960129D01*
X0003647655Y0002964817D01*
X0003654181Y0002958280D01*
G36*
X0003136919Y0003477842D02*
X0003138662Y0003468578D01*
X0003144138Y0003460069D01*
X0003152492Y0003454360D01*
X0003162409Y0003452352D01*
X0003233275Y0003452352D01*
X0003242540Y0003454095D01*
X0003251048Y0003459571D01*
X0003256757Y0003467925D01*
X0003258765Y0003477842D01*
X0003258765Y0003490212D01*
X0003304919Y0003490212D01*
X0003304919Y0003475842D01*
X0003306662Y0003466578D01*
X0003312138Y0003458069D01*
X0003320492Y0003452360D01*
X0003330409Y0003450352D01*
X0003401274Y0003450352D01*
X0003410539Y0003452095D01*
X0003419048Y0003457571D01*
X0003424757Y0003465925D01*
X0003426765Y0003475842D01*
X0003426765Y0003492212D01*
X0003471919Y0003492212D01*
X0003471919Y0003477842D01*
X0003473662Y0003468578D01*
X0003479138Y0003460069D01*
X0003487492Y0003454360D01*
X0003497409Y0003452352D01*
X0003568275Y0003452352D01*
X0003577540Y0003454095D01*
X0003586048Y0003459571D01*
X0003591757Y0003467925D01*
X0003593765Y0003477842D01*
X0003593765Y0003492212D01*
X0003601670Y0003492212D01*
X0003650000Y0003443881D01*
X0003650000Y0003438142D01*
X0003635307Y0003423475D01*
X0003626388Y0003401995D01*
X0003626367Y0003378736D01*
X0003635249Y0003357240D01*
X0003651681Y0003340780D01*
X0003673162Y0003331860D01*
X0003696420Y0003331840D01*
X0003712204Y0003338362D01*
X0003712204Y0003060795D01*
X0003699022Y0003066269D01*
X0003675764Y0003066289D01*
X0003654268Y0003057407D01*
X0003653286Y0003056428D01*
X0003653286Y0003074203D01*
X0003660031Y0003080934D01*
X0003665647Y0003094460D01*
X0003665659Y0003109105D01*
X0003660067Y0003122639D01*
X0003649721Y0003133003D01*
X0003636749Y0003138390D01*
X0003638647Y0003142960D01*
X0003638658Y0003157605D01*
X0003633067Y0003171139D01*
X0003622720Y0003181503D01*
X0003609196Y0003187118D01*
X0003594552Y0003187132D01*
X0003581017Y0003181540D01*
X0003579711Y0003180236D01*
X0003566432Y0003180236D01*
X0003562924Y0003185686D01*
X0003554569Y0003191394D01*
X0003544653Y0003193403D01*
X0003521031Y0003193403D01*
X0003511767Y0003191659D01*
X0003503258Y0003186184D01*
X0003497549Y0003177830D01*
X0003495540Y0003167912D01*
X0003495540Y0003132480D01*
X0003497284Y0003123215D01*
X0003502760Y0003114707D01*
X0003511114Y0003108998D01*
X0003521031Y0003106990D01*
X0003526847Y0003106990D01*
X0003525770Y0003105412D01*
X0003523762Y0003095496D01*
X0003523762Y0003084762D01*
X0003494377Y0003055377D01*
X0003494377Y0003189495D01*
X0003516597Y0003211716D01*
X0003520280Y0003217226D01*
X0003523084Y0003221422D01*
X0003523487Y0003223455D01*
X0003525024Y0003224445D01*
X0003530733Y0003232799D01*
X0003532741Y0003242715D01*
X0003532741Y0003278149D01*
X0003530997Y0003287414D01*
X0003526199Y0003294872D01*
X0003568275Y0003294872D01*
X0003577540Y0003296615D01*
X0003586048Y0003302090D01*
X0003591757Y0003310445D01*
X0003593765Y0003320362D01*
X0003593765Y0003418787D01*
X0003592022Y0003428051D01*
X0003586546Y0003436560D01*
X0003578192Y0003442268D01*
X0003568275Y0003444277D01*
X0003497409Y0003444277D01*
X0003488145Y0003442533D01*
X0003479636Y0003437058D01*
X0003473927Y0003428704D01*
X0003471919Y0003418787D01*
X0003471919Y0003320362D01*
X0003473662Y0003311097D01*
X0003479020Y0003302772D01*
X0003474365Y0003301896D01*
X0003465855Y0003296420D01*
X0003460148Y0003288066D01*
X0003458140Y0003278149D01*
X0003458140Y0003242715D01*
X0003458904Y0003238652D01*
X0003443299Y0003223047D01*
X0003436813Y0003213340D01*
X0003434534Y0003201888D01*
X0003434534Y0003186629D01*
X0003431052Y0003186632D01*
X0003417517Y0003181040D01*
X0003416211Y0003179736D01*
X0003399110Y0003179736D01*
X0003395924Y0003184685D01*
X0003387570Y0003190394D01*
X0003377653Y0003192403D01*
X0003354031Y0003192403D01*
X0003344767Y0003190658D01*
X0003336258Y0003185184D01*
X0003330549Y0003176830D01*
X0003328541Y0003166913D01*
X0003328541Y0003131479D01*
X0003330284Y0003122215D01*
X0003335760Y0003113707D01*
X0003344114Y0003107998D01*
X0003354031Y0003105990D01*
X0003358683Y0003105990D01*
X0003356762Y0003096496D01*
X0003356762Y0003068937D01*
X0003358282Y0003060857D01*
X0003344607Y0003047182D01*
X0003327377Y0003047182D01*
X0003327377Y0003188495D01*
X0003349598Y0003210716D01*
X0003354444Y0003217970D01*
X0003356084Y0003220423D01*
X0003356488Y0003222456D01*
X0003358025Y0003223445D01*
X0003363732Y0003231798D01*
X0003365741Y0003241716D01*
X0003365741Y0003277149D01*
X0003363998Y0003286414D01*
X0003359842Y0003292872D01*
X0003401274Y0003292872D01*
X0003410539Y0003294615D01*
X0003419048Y0003300090D01*
X0003424757Y0003308445D01*
X0003426765Y0003318362D01*
X0003426765Y0003416787D01*
X0003425021Y0003426051D01*
X0003419546Y0003434560D01*
X0003411192Y0003440268D01*
X0003401274Y0003442277D01*
X0003330409Y0003442277D01*
X0003321144Y0003440533D01*
X0003312636Y0003435058D01*
X0003306926Y0003426704D01*
X0003304919Y0003416787D01*
X0003304919Y0003318362D01*
X0003306662Y0003309097D01*
X0003311446Y0003301664D01*
X0003307365Y0003300896D01*
X0003298856Y0003295420D01*
X0003293148Y0003287066D01*
X0003291140Y0003277149D01*
X0003291140Y0003241716D01*
X0003291904Y0003237652D01*
X0003276299Y0003222047D01*
X0003269812Y0003212340D01*
X0003267535Y0003200889D01*
X0003267535Y0003186129D01*
X0003264052Y0003186131D01*
X0003250517Y0003180540D01*
X0003249211Y0003179236D01*
X0003232432Y0003179236D01*
X0003228924Y0003184685D01*
X0003220570Y0003190394D01*
X0003210653Y0003192403D01*
X0003187031Y0003192403D01*
X0003177767Y0003190658D01*
X0003169258Y0003185184D01*
X0003163549Y0003176830D01*
X0003161541Y0003166913D01*
X0003161541Y0003131479D01*
X0003163284Y0003122215D01*
X0003168760Y0003113707D01*
X0003177114Y0003107998D01*
X0003187031Y0003105990D01*
X0003193684Y0003105990D01*
X0003191762Y0003096496D01*
X0003191762Y0003068937D01*
X0003193124Y0003061699D01*
X0003178607Y0003047182D01*
X0003161377Y0003047182D01*
X0003161377Y0003189495D01*
X0003182598Y0003210716D01*
X0003189083Y0003220423D01*
X0003189488Y0003222456D01*
X0003191025Y0003223445D01*
X0003196733Y0003231798D01*
X0003198741Y0003241716D01*
X0003198741Y0003277149D01*
X0003196998Y0003286414D01*
X0003191555Y0003294872D01*
X0003233275Y0003294872D01*
X0003242540Y0003296615D01*
X0003251048Y0003302090D01*
X0003256757Y0003310445D01*
X0003258765Y0003320362D01*
X0003258765Y0003418787D01*
X0003257022Y0003428051D01*
X0003251546Y0003436560D01*
X0003243192Y0003442268D01*
X0003233275Y0003444277D01*
X0003162409Y0003444277D01*
X0003153144Y0003442533D01*
X0003144636Y0003437058D01*
X0003138926Y0003428704D01*
X0003136919Y0003418787D01*
X0003136919Y0003320362D01*
X0003138662Y0003311097D01*
X0003144138Y0003302588D01*
X0003145266Y0003301818D01*
X0003140365Y0003300896D01*
X0003131856Y0003295420D01*
X0003126148Y0003287066D01*
X0003124140Y0003277149D01*
X0003124140Y0003241716D01*
X0003124904Y0003237652D01*
X0003110299Y0003223047D01*
X0003103813Y0003213340D01*
X0003101535Y0003201888D01*
X0003101535Y0003187126D01*
X0003095051Y0003187132D01*
X0003081517Y0003181540D01*
X0003080211Y0003180236D01*
X0003066432Y0003180236D01*
X0003062924Y0003185686D01*
X0003054570Y0003191394D01*
X0003044653Y0003193403D01*
X0003021031Y0003193403D01*
X0003011767Y0003191659D01*
X0003003258Y0003186184D01*
X0002997549Y0003177830D01*
X0002995541Y0003167912D01*
X0002995541Y0003132480D01*
X0002997284Y0003123215D01*
X0003002760Y0003114707D01*
X0003011114Y0003108998D01*
X0003021031Y0003106990D01*
X0003025684Y0003106990D01*
X0003023762Y0003097496D01*
X0003023762Y0003069937D01*
X0003025282Y0003061857D01*
X0003011606Y0003048182D01*
X0002994377Y0003048182D01*
X0002994377Y0003189495D01*
X0003016598Y0003211716D01*
X0003020279Y0003217226D01*
X0003023084Y0003221422D01*
X0003023488Y0003223455D01*
X0003025025Y0003224445D01*
X0003030733Y0003232799D01*
X0003032741Y0003242715D01*
X0003032741Y0003278149D01*
X0003030998Y0003287414D01*
X0003026199Y0003294872D01*
X0003059275Y0003294872D01*
X0003068540Y0003296615D01*
X0003077048Y0003302090D01*
X0003082757Y0003310445D01*
X0003084765Y0003320362D01*
X0003084765Y0003418787D01*
X0003083021Y0003428051D01*
X0003077546Y0003436560D01*
X0003069192Y0003442268D01*
X0003059275Y0003444277D01*
X0002988409Y0003444277D01*
X0002980708Y0003442828D01*
X0002980708Y0003453911D01*
X0002988409Y0003452352D01*
X0003059275Y0003452352D01*
X0003068540Y0003454095D01*
X0003077048Y0003459571D01*
X0003082757Y0003467925D01*
X0003084765Y0003477842D01*
X0003084765Y0003492212D01*
X0003136919Y0003492212D01*
X0003136919Y0003477842D01*
X0003136919Y0003477842D01*
G37*
X0003136919Y0003477842D02*
X0003138662Y0003468578D01*
X0003144138Y0003460069D01*
X0003152492Y0003454360D01*
X0003162409Y0003452352D01*
X0003233275Y0003452352D01*
X0003242540Y0003454095D01*
X0003251048Y0003459571D01*
X0003256757Y0003467925D01*
X0003258765Y0003477842D01*
X0003258765Y0003490212D01*
X0003304919Y0003490212D01*
X0003304919Y0003475842D01*
X0003306662Y0003466578D01*
X0003312138Y0003458069D01*
X0003320492Y0003452360D01*
X0003330409Y0003450352D01*
X0003401274Y0003450352D01*
X0003410539Y0003452095D01*
X0003419048Y0003457571D01*
X0003424757Y0003465925D01*
X0003426765Y0003475842D01*
X0003426765Y0003492212D01*
X0003471919Y0003492212D01*
X0003471919Y0003477842D01*
X0003473662Y0003468578D01*
X0003479138Y0003460069D01*
X0003487492Y0003454360D01*
X0003497409Y0003452352D01*
X0003568275Y0003452352D01*
X0003577540Y0003454095D01*
X0003586048Y0003459571D01*
X0003591757Y0003467925D01*
X0003593765Y0003477842D01*
X0003593765Y0003492212D01*
X0003601670Y0003492212D01*
X0003650000Y0003443881D01*
X0003650000Y0003438142D01*
X0003635307Y0003423475D01*
X0003626388Y0003401995D01*
X0003626367Y0003378736D01*
X0003635249Y0003357240D01*
X0003651681Y0003340780D01*
X0003673162Y0003331860D01*
X0003696420Y0003331840D01*
X0003712204Y0003338362D01*
X0003712204Y0003060795D01*
X0003699022Y0003066269D01*
X0003675764Y0003066289D01*
X0003654268Y0003057407D01*
X0003653286Y0003056428D01*
X0003653286Y0003074203D01*
X0003660031Y0003080934D01*
X0003665647Y0003094460D01*
X0003665659Y0003109105D01*
X0003660067Y0003122639D01*
X0003649721Y0003133003D01*
X0003636749Y0003138390D01*
X0003638647Y0003142960D01*
X0003638658Y0003157605D01*
X0003633067Y0003171139D01*
X0003622720Y0003181503D01*
X0003609196Y0003187118D01*
X0003594552Y0003187132D01*
X0003581017Y0003181540D01*
X0003579711Y0003180236D01*
X0003566432Y0003180236D01*
X0003562924Y0003185686D01*
X0003554569Y0003191394D01*
X0003544653Y0003193403D01*
X0003521031Y0003193403D01*
X0003511767Y0003191659D01*
X0003503258Y0003186184D01*
X0003497549Y0003177830D01*
X0003495540Y0003167912D01*
X0003495540Y0003132480D01*
X0003497284Y0003123215D01*
X0003502760Y0003114707D01*
X0003511114Y0003108998D01*
X0003521031Y0003106990D01*
X0003526847Y0003106990D01*
X0003525770Y0003105412D01*
X0003523762Y0003095496D01*
X0003523762Y0003084762D01*
X0003494377Y0003055377D01*
X0003494377Y0003189495D01*
X0003516597Y0003211716D01*
X0003520280Y0003217226D01*
X0003523084Y0003221422D01*
X0003523487Y0003223455D01*
X0003525024Y0003224445D01*
X0003530733Y0003232799D01*
X0003532741Y0003242715D01*
X0003532741Y0003278149D01*
X0003530997Y0003287414D01*
X0003526199Y0003294872D01*
X0003568275Y0003294872D01*
X0003577540Y0003296615D01*
X0003586048Y0003302090D01*
X0003591757Y0003310445D01*
X0003593765Y0003320362D01*
X0003593765Y0003418787D01*
X0003592022Y0003428051D01*
X0003586546Y0003436560D01*
X0003578192Y0003442268D01*
X0003568275Y0003444277D01*
X0003497409Y0003444277D01*
X0003488145Y0003442533D01*
X0003479636Y0003437058D01*
X0003473927Y0003428704D01*
X0003471919Y0003418787D01*
X0003471919Y0003320362D01*
X0003473662Y0003311097D01*
X0003479020Y0003302772D01*
X0003474365Y0003301896D01*
X0003465855Y0003296420D01*
X0003460148Y0003288066D01*
X0003458140Y0003278149D01*
X0003458140Y0003242715D01*
X0003458904Y0003238652D01*
X0003443299Y0003223047D01*
X0003436813Y0003213340D01*
X0003434534Y0003201888D01*
X0003434534Y0003186629D01*
X0003431052Y0003186632D01*
X0003417517Y0003181040D01*
X0003416211Y0003179736D01*
X0003399110Y0003179736D01*
X0003395924Y0003184685D01*
X0003387570Y0003190394D01*
X0003377653Y0003192403D01*
X0003354031Y0003192403D01*
X0003344767Y0003190658D01*
X0003336258Y0003185184D01*
X0003330549Y0003176830D01*
X0003328541Y0003166913D01*
X0003328541Y0003131479D01*
X0003330284Y0003122215D01*
X0003335760Y0003113707D01*
X0003344114Y0003107998D01*
X0003354031Y0003105990D01*
X0003358683Y0003105990D01*
X0003356762Y0003096496D01*
X0003356762Y0003068937D01*
X0003358282Y0003060857D01*
X0003344607Y0003047182D01*
X0003327377Y0003047182D01*
X0003327377Y0003188495D01*
X0003349598Y0003210716D01*
X0003354444Y0003217970D01*
X0003356084Y0003220423D01*
X0003356488Y0003222456D01*
X0003358025Y0003223445D01*
X0003363732Y0003231798D01*
X0003365741Y0003241716D01*
X0003365741Y0003277149D01*
X0003363998Y0003286414D01*
X0003359842Y0003292872D01*
X0003401274Y0003292872D01*
X0003410539Y0003294615D01*
X0003419048Y0003300090D01*
X0003424757Y0003308445D01*
X0003426765Y0003318362D01*
X0003426765Y0003416787D01*
X0003425021Y0003426051D01*
X0003419546Y0003434560D01*
X0003411192Y0003440268D01*
X0003401274Y0003442277D01*
X0003330409Y0003442277D01*
X0003321144Y0003440533D01*
X0003312636Y0003435058D01*
X0003306926Y0003426704D01*
X0003304919Y0003416787D01*
X0003304919Y0003318362D01*
X0003306662Y0003309097D01*
X0003311446Y0003301664D01*
X0003307365Y0003300896D01*
X0003298856Y0003295420D01*
X0003293148Y0003287066D01*
X0003291140Y0003277149D01*
X0003291140Y0003241716D01*
X0003291904Y0003237652D01*
X0003276299Y0003222047D01*
X0003269812Y0003212340D01*
X0003267535Y0003200889D01*
X0003267535Y0003186129D01*
X0003264052Y0003186131D01*
X0003250517Y0003180540D01*
X0003249211Y0003179236D01*
X0003232432Y0003179236D01*
X0003228924Y0003184685D01*
X0003220570Y0003190394D01*
X0003210653Y0003192403D01*
X0003187031Y0003192403D01*
X0003177767Y0003190658D01*
X0003169258Y0003185184D01*
X0003163549Y0003176830D01*
X0003161541Y0003166913D01*
X0003161541Y0003131479D01*
X0003163284Y0003122215D01*
X0003168760Y0003113707D01*
X0003177114Y0003107998D01*
X0003187031Y0003105990D01*
X0003193684Y0003105990D01*
X0003191762Y0003096496D01*
X0003191762Y0003068937D01*
X0003193124Y0003061699D01*
X0003178607Y0003047182D01*
X0003161377Y0003047182D01*
X0003161377Y0003189495D01*
X0003182598Y0003210716D01*
X0003189083Y0003220423D01*
X0003189488Y0003222456D01*
X0003191025Y0003223445D01*
X0003196733Y0003231798D01*
X0003198741Y0003241716D01*
X0003198741Y0003277149D01*
X0003196998Y0003286414D01*
X0003191555Y0003294872D01*
X0003233275Y0003294872D01*
X0003242540Y0003296615D01*
X0003251048Y0003302090D01*
X0003256757Y0003310445D01*
X0003258765Y0003320362D01*
X0003258765Y0003418787D01*
X0003257022Y0003428051D01*
X0003251546Y0003436560D01*
X0003243192Y0003442268D01*
X0003233275Y0003444277D01*
X0003162409Y0003444277D01*
X0003153144Y0003442533D01*
X0003144636Y0003437058D01*
X0003138926Y0003428704D01*
X0003136919Y0003418787D01*
X0003136919Y0003320362D01*
X0003138662Y0003311097D01*
X0003144138Y0003302588D01*
X0003145266Y0003301818D01*
X0003140365Y0003300896D01*
X0003131856Y0003295420D01*
X0003126148Y0003287066D01*
X0003124140Y0003277149D01*
X0003124140Y0003241716D01*
X0003124904Y0003237652D01*
X0003110299Y0003223047D01*
X0003103813Y0003213340D01*
X0003101535Y0003201888D01*
X0003101535Y0003187126D01*
X0003095051Y0003187132D01*
X0003081517Y0003181540D01*
X0003080211Y0003180236D01*
X0003066432Y0003180236D01*
X0003062924Y0003185686D01*
X0003054570Y0003191394D01*
X0003044653Y0003193403D01*
X0003021031Y0003193403D01*
X0003011767Y0003191659D01*
X0003003258Y0003186184D01*
X0002997549Y0003177830D01*
X0002995541Y0003167912D01*
X0002995541Y0003132480D01*
X0002997284Y0003123215D01*
X0003002760Y0003114707D01*
X0003011114Y0003108998D01*
X0003021031Y0003106990D01*
X0003025684Y0003106990D01*
X0003023762Y0003097496D01*
X0003023762Y0003069937D01*
X0003025282Y0003061857D01*
X0003011606Y0003048182D01*
X0002994377Y0003048182D01*
X0002994377Y0003189495D01*
X0003016598Y0003211716D01*
X0003020279Y0003217226D01*
X0003023084Y0003221422D01*
X0003023488Y0003223455D01*
X0003025025Y0003224445D01*
X0003030733Y0003232799D01*
X0003032741Y0003242715D01*
X0003032741Y0003278149D01*
X0003030998Y0003287414D01*
X0003026199Y0003294872D01*
X0003059275Y0003294872D01*
X0003068540Y0003296615D01*
X0003077048Y0003302090D01*
X0003082757Y0003310445D01*
X0003084765Y0003320362D01*
X0003084765Y0003418787D01*
X0003083021Y0003428051D01*
X0003077546Y0003436560D01*
X0003069192Y0003442268D01*
X0003059275Y0003444277D01*
X0002988409Y0003444277D01*
X0002980708Y0003442828D01*
X0002980708Y0003453911D01*
X0002988409Y0003452352D01*
X0003059275Y0003452352D01*
X0003068540Y0003454095D01*
X0003077048Y0003459571D01*
X0003082757Y0003467925D01*
X0003084765Y0003477842D01*
X0003084765Y0003492212D01*
X0003136919Y0003492212D01*
X0003136919Y0003477842D01*
G04 next file*
%LPD*%
G01*
D44*
D45*
X-0006692913Y0004921259D02*
X0000406771Y0003011299D03*
X0000367401Y0003011299D03*
D46*
X0000367401Y0000141220D03*
X0000406771Y0000141220D03*
X0000387086Y0000141220D03*
D45*
X0000387086Y0003011299D03*
D47*
X0000734586Y0000691259D03*
D48*
X0000734586Y0000591259D03*
G01*
D59*
D60*
X-0002465984Y-0006139999D02*
X0001171515Y0000590000D03*
X0001171515Y0000689999D03*
X0001171515Y0000790000D03*
X0001171515Y0000890000D03*
X0001171515Y0000990000D03*
X0001171515Y0001090000D03*
X0001171515Y0001190000D03*
X0001171515Y0001290000D03*
X0001071515Y0000590000D03*
X0001071515Y0000689999D03*
X0001071515Y0000790000D03*
X0001071515Y0000890000D03*
X0001071515Y0000990000D03*
X0001071515Y0001090000D03*
X0001071515Y0001190000D03*
X0001071515Y0001290000D03*
X0000971515Y0000590000D03*
X0000971515Y0000689999D03*
X0000971515Y0000790000D03*
X0000971515Y0000890000D03*
X0000971515Y0000990000D03*
X0000971515Y0001090000D03*
X0002609015Y0000590000D03*
X0002609015Y0000689999D03*
X0002609015Y0000790000D03*
X0002609015Y0000890000D03*
X0002609015Y0000990000D03*
X0002609015Y0001090000D03*
X0002609015Y0001190000D03*
X0002609015Y0001290000D03*
X0002709014Y0000590000D03*
X0002709014Y0000689999D03*
X0002709014Y0000790000D03*
X0002709014Y0000890000D03*
X0002709014Y0000990000D03*
X0002709014Y0001090000D03*
X0002709014Y0001190000D03*
X0002709014Y0001290000D03*
X0002809015Y0000590000D03*
X0002809015Y0000689999D03*
X0002809015Y0000790000D03*
X0002809015Y0000890000D03*
X0002809015Y0000990000D03*
X0002809015Y0001090000D03*
X0002809015Y0001190000D03*
X0002809015Y0001290000D03*
D61*
X0001906515Y0000587500D03*
D62*
X0002006514Y0000587500D03*
X0002106515Y0000587500D03*
X0002206515Y0000587500D03*
D61*
X0002006514Y0001287500D03*
D62*
X0002106515Y0001287500D03*
X0002206515Y0001287500D03*
X0002306515Y0001287500D03*
D61*
X0002406515Y0001290000D03*
D62*
X0002406515Y0001190000D03*
X0002406515Y0001090000D03*
X0002406515Y0000990000D03*
X0002406515Y0000890000D03*
X0002406515Y0000790000D03*
D63*
X0000994094Y0001610000D03*
X0002753935Y0001610000D03*
X0002753935Y0000270000D03*
X0000994094Y0000270000D03*
G04 next file*
G01*
D74*
D75*
X-0002465984Y-0004691496D02*
X0001171515Y0002038503D03*
X0001171515Y0002138503D03*
X0001171515Y0002238503D03*
X0001171515Y0002338503D03*
X0001171515Y0002438503D03*
X0001171515Y0002538503D03*
X0001171515Y0002638503D03*
X0001171515Y0002738503D03*
X0001071515Y0002038503D03*
X0001071515Y0002138503D03*
X0001071515Y0002238503D03*
X0001071515Y0002338503D03*
X0001071515Y0002438503D03*
X0001071515Y0002538503D03*
X0001071515Y0002638503D03*
X0001071515Y0002738503D03*
X0000971515Y0002038503D03*
X0000971515Y0002138503D03*
X0000971515Y0002238503D03*
X0000971515Y0002338503D03*
X0000971515Y0002438503D03*
X0000971515Y0002538503D03*
X0002609015Y0002038503D03*
X0002609015Y0002138503D03*
X0002609015Y0002238503D03*
X0002609015Y0002338503D03*
X0002609015Y0002438503D03*
X0002609015Y0002538503D03*
X0002609015Y0002638503D03*
X0002609015Y0002738503D03*
X0002709014Y0002038503D03*
X0002709014Y0002138503D03*
X0002709014Y0002238503D03*
X0002709014Y0002338503D03*
X0002709014Y0002438503D03*
X0002709014Y0002538503D03*
X0002709014Y0002638503D03*
X0002709014Y0002738503D03*
X0002809015Y0002038503D03*
X0002809015Y0002138503D03*
X0002809015Y0002238503D03*
X0002809015Y0002338503D03*
X0002809015Y0002438503D03*
X0002809015Y0002538503D03*
X0002809015Y0002638503D03*
X0002809015Y0002738503D03*
D76*
X0001906515Y0002036003D03*
D77*
X0002006514Y0002036003D03*
X0002106515Y0002036003D03*
X0002206515Y0002036003D03*
D76*
X0002006514Y0002736002D03*
D77*
X0002106515Y0002736002D03*
X0002206515Y0002736002D03*
X0002306515Y0002736002D03*
D76*
X0002406515Y0002738503D03*
D77*
X0002406515Y0002638503D03*
X0002406515Y0002538503D03*
X0002406515Y0002438503D03*
X0002406515Y0002338503D03*
X0002406515Y0002238503D03*
D78*
X0001009093Y0003061003D03*
X0002768936Y0003061003D03*
G04 next file*
G04 #@! TF.FileFunction,Copper,L2,Bot,Signal*
G04 Gerber Fmt 4.6, Leading zero omitted, Abs format (unit mm)*
G04 Created by KiCad (PCBNEW 4.0.2-stable) date 05.07.2017 20:46:59*
G01*
G04 APERTURE LIST*
G04 APERTURE END LIST*
D89*
D90*
X-0003740157Y0006220472D02*
X0002987342Y0001847972D03*
D91*
X0002987342Y0001747972D03*
X0002987342Y0001647972D03*
X0002987342Y0001547972D03*
D90*
X0003687341Y0001747972D03*
D91*
X0003687341Y0001647972D03*
X0003687341Y0001547972D03*
X0003687341Y0001447972D03*
D90*
X0003689842Y0001347972D03*
D91*
X0003589842Y0001347972D03*
X0003489842Y0001347972D03*
X0003389842Y0001347972D03*
X0003289842Y0001347972D03*
X0003189842Y0001347972D03*
D92*
X0003314841Y0001647972D03*
D93*
X0003393582Y0001647972D03*
X0003472322Y0001647972D03*
X0003551062Y0001647972D03*
D94*
X0003274842Y0001420472D03*
X0003159842Y0002055472D03*
X0003417342Y0002145472D03*
X0003037342Y0002192972D03*
X0003367342Y0001745472D03*
D95*
X0003274842Y0001420472D02*
X0003417342Y0001420472D01*
X0003417342Y0001420472D02*
X0003489842Y0001347972D01*
X0003393582Y0001647972D02*
X0003189842Y0001444232D01*
X0003189842Y0001444232D02*
X0003189842Y0001347972D01*
X0003159842Y0002159783D02*
X0003159842Y0002055472D01*
X0003159842Y0002159783D02*
X0003403031Y0002159783D01*
X0003070531Y0002159783D02*
X0003159842Y0002159783D01*
X0003403031Y0002159783D02*
X0003417342Y0002145472D01*
X0003070531Y0002159783D02*
X0003037342Y0002192972D01*
X0003367342Y0001745472D02*
X0002989842Y0001745472D01*
X0002989842Y0001745472D02*
X0002987342Y0001747972D01*
D96*
G36*
X0003712204Y0001800953D02*
X0003699022Y0001806426D01*
X0003675764Y0001806447D01*
X0003654268Y0001797564D01*
X0003637807Y0001781133D01*
X0003628888Y0001759652D01*
X0003628867Y0001736394D01*
X0003637749Y0001714898D01*
X0003654181Y0001698435D01*
X0003675662Y0001689518D01*
X0003698920Y0001689497D01*
X0003712204Y0001694986D01*
X0003712204Y0001601088D01*
X0003710861Y0001601986D01*
X0003688487Y0001606437D01*
X0003686197Y0001606437D01*
X0003663823Y0001601986D01*
X0003644856Y0001589311D01*
X0003632182Y0001570345D01*
X0003627732Y0001547972D01*
X0003632182Y0001525598D01*
X0003644856Y0001506631D01*
X0003657815Y0001497972D01*
X0003644856Y0001489313D01*
X0003632182Y0001470345D01*
X0003627732Y0001447972D01*
X0003632182Y0001425599D01*
X0003644856Y0001406630D01*
X0003657792Y0001397988D01*
X0003656768Y0001397565D01*
X0003640307Y0001381133D01*
X0003639198Y0001378461D01*
X0003631183Y0001390458D01*
X0003612215Y0001403132D01*
X0003589842Y0001407582D01*
X0003567469Y0001403132D01*
X0003548500Y0001390458D01*
X0003539842Y0001377498D01*
X0003531182Y0001390458D01*
X0003512215Y0001403132D01*
X0003489842Y0001407582D01*
X0003475416Y0001404712D01*
X0003438500Y0001441629D01*
X0003428792Y0001448116D01*
X0003417342Y0001450393D01*
X0003386361Y0001450393D01*
X0003397716Y0001461729D01*
X0003408136Y0001486825D01*
X0003408161Y0001513999D01*
X0003397784Y0001539113D01*
X0003378585Y0001558346D01*
X0003355752Y0001567827D01*
X0003385016Y0001597091D01*
X0003393582Y0001595387D01*
X0003413319Y0001599313D01*
X0003430051Y0001610493D01*
X0003432952Y0001614834D01*
X0003435853Y0001610493D01*
X0003452586Y0001599313D01*
X0003472322Y0001595387D01*
X0003492059Y0001599313D01*
X0003508791Y0001610493D01*
X0003519971Y0001627225D01*
X0003523897Y0001646962D01*
X0003523897Y0001648982D01*
X0003519971Y0001668719D01*
X0003508791Y0001685450D01*
X0003492059Y0001696631D01*
X0003472322Y0001700557D01*
X0003452586Y0001696631D01*
X0003435853Y0001685450D01*
X0003432952Y0001681109D01*
X0003430051Y0001685450D01*
X0003413319Y0001696631D01*
X0003393582Y0001700557D01*
X0003373845Y0001696631D01*
X0003362005Y0001688720D01*
X0003359688Y0001692320D01*
X0003351334Y0001698028D01*
X0003341417Y0001700037D01*
X0003288267Y0001700037D01*
X0003279003Y0001698293D01*
X0003270493Y0001692818D01*
X0003264786Y0001684464D01*
X0003262777Y0001674547D01*
X0003262777Y0001621397D01*
X0003264521Y0001612133D01*
X0003269996Y0001603624D01*
X0003278350Y0001597916D01*
X0003288267Y0001595907D01*
X0003299203Y0001595907D01*
X0003168684Y0001465389D01*
X0003162198Y0001455682D01*
X0003159920Y0001444232D01*
X0003159920Y0001398088D01*
X0003148500Y0001390458D01*
X0003135828Y0001371490D01*
X0003131377Y0001349117D01*
X0003131377Y0001346827D01*
X0003135288Y0001327165D01*
X0003083145Y0001327165D01*
X0003087716Y0001331729D01*
X0003098137Y0001356825D01*
X0003098161Y0001383999D01*
X0003087784Y0001409114D01*
X0003068585Y0001428346D01*
X0003043488Y0001438766D01*
X0003016313Y0001438791D01*
X0002991200Y0001428414D01*
X0002980708Y0001417940D01*
X0002980708Y0001490599D01*
X0002986197Y0001489507D01*
X0002988487Y0001489507D01*
X0003010861Y0001493958D01*
X0003029827Y0001506631D01*
X0003042502Y0001525598D01*
X0003046952Y0001547972D01*
X0003042502Y0001570345D01*
X0003029827Y0001589311D01*
X0003016869Y0001597971D01*
X0003029827Y0001606630D01*
X0003042502Y0001625599D01*
X0003046952Y0001647972D01*
X0003042502Y0001670343D01*
X0003029827Y0001689313D01*
X0003016869Y0001697972D01*
X0003029827Y0001706631D01*
X0003035788Y0001715551D01*
X0003345198Y0001715551D01*
X0003346463Y0001714283D01*
X0003359988Y0001708665D01*
X0003374632Y0001708655D01*
X0003388167Y0001714247D01*
X0003398531Y0001724592D01*
X0003404147Y0001738118D01*
X0003404159Y0001752762D01*
X0003398567Y0001766296D01*
X0003388221Y0001776661D01*
X0003374696Y0001782277D01*
X0003360052Y0001782289D01*
X0003346517Y0001776697D01*
X0003345211Y0001775393D01*
X0003039129Y0001775393D01*
X0003029827Y0001789312D01*
X0003010861Y0001801986D01*
X0002988487Y0001806437D01*
X0002986197Y0001806437D01*
X0002980708Y0001805345D01*
X0002980708Y0002185682D01*
X0003000525Y0002185682D01*
X0003006117Y0002172147D01*
X0003016463Y0002161783D01*
X0003029988Y0002156167D01*
X0003031833Y0002156166D01*
X0003049374Y0002138625D01*
X0003059081Y0002132139D01*
X0003060980Y0002131761D01*
X0003070531Y0002129862D01*
X0003129921Y0002129862D01*
X0003129921Y0002077616D01*
X0003128653Y0002076350D01*
X0003123037Y0002062825D01*
X0003123024Y0002048182D01*
X0003128617Y0002034647D01*
X0003138963Y0002024283D01*
X0003152488Y0002018667D01*
X0003167132Y0002018654D01*
X0003180667Y0002024247D01*
X0003191030Y0002034593D01*
X0003196647Y0002048118D01*
X0003196659Y0002062762D01*
X0003191067Y0002076296D01*
X0003189762Y0002077602D01*
X0003189762Y0002129862D01*
X0003383962Y0002129862D01*
X0003386117Y0002124647D01*
X0003396463Y0002114283D01*
X0003409988Y0002108667D01*
X0003424632Y0002108655D01*
X0003438167Y0002114247D01*
X0003448530Y0002124593D01*
X0003454147Y0002138118D01*
X0003454159Y0002152762D01*
X0003448567Y0002166296D01*
X0003438221Y0002176661D01*
X0003424696Y0002182277D01*
X0003422186Y0002182279D01*
X0003414481Y0002187427D01*
X0003403031Y0002189704D01*
X0003082925Y0002189704D01*
X0003074158Y0002198471D01*
X0003074158Y0002200262D01*
X0003068567Y0002213796D01*
X0003058221Y0002224161D01*
X0003044696Y0002229777D01*
X0003030052Y0002229789D01*
X0003016517Y0002224197D01*
X0003006152Y0002213851D01*
X0003000537Y0002200326D01*
X0003000525Y0002185682D01*
X0002980708Y0002185682D01*
X0002980708Y0002452362D01*
X0003712204Y0002452362D01*
X0003712204Y0001800953D01*
X0003712204Y0001800953D01*
G37*
X0003712204Y0001800953D02*
X0003699022Y0001806426D01*
X0003675764Y0001806447D01*
X0003654268Y0001797564D01*
X0003637807Y0001781133D01*
X0003628888Y0001759652D01*
X0003628867Y0001736394D01*
X0003637749Y0001714898D01*
X0003654181Y0001698435D01*
X0003675662Y0001689518D01*
X0003698920Y0001689497D01*
X0003712204Y0001694986D01*
X0003712204Y0001601088D01*
X0003710861Y0001601986D01*
X0003688487Y0001606437D01*
X0003686197Y0001606437D01*
X0003663823Y0001601986D01*
X0003644856Y0001589311D01*
X0003632182Y0001570345D01*
X0003627732Y0001547972D01*
X0003632182Y0001525598D01*
X0003644856Y0001506631D01*
X0003657815Y0001497972D01*
X0003644856Y0001489313D01*
X0003632182Y0001470345D01*
X0003627732Y0001447972D01*
X0003632182Y0001425599D01*
X0003644856Y0001406630D01*
X0003657792Y0001397988D01*
X0003656768Y0001397565D01*
X0003640307Y0001381133D01*
X0003639198Y0001378461D01*
X0003631183Y0001390458D01*
X0003612215Y0001403132D01*
X0003589842Y0001407582D01*
X0003567469Y0001403132D01*
X0003548500Y0001390458D01*
X0003539842Y0001377498D01*
X0003531182Y0001390458D01*
X0003512215Y0001403132D01*
X0003489842Y0001407582D01*
X0003475416Y0001404712D01*
X0003438500Y0001441629D01*
X0003428792Y0001448116D01*
X0003417342Y0001450393D01*
X0003386361Y0001450393D01*
X0003397716Y0001461729D01*
X0003408136Y0001486825D01*
X0003408161Y0001513999D01*
X0003397784Y0001539113D01*
X0003378585Y0001558346D01*
X0003355752Y0001567827D01*
X0003385016Y0001597091D01*
X0003393582Y0001595387D01*
X0003413319Y0001599313D01*
X0003430051Y0001610493D01*
X0003432952Y0001614834D01*
X0003435853Y0001610493D01*
X0003452586Y0001599313D01*
X0003472322Y0001595387D01*
X0003492059Y0001599313D01*
X0003508791Y0001610493D01*
X0003519971Y0001627225D01*
X0003523897Y0001646962D01*
X0003523897Y0001648982D01*
X0003519971Y0001668719D01*
X0003508791Y0001685450D01*
X0003492059Y0001696631D01*
X0003472322Y0001700557D01*
X0003452586Y0001696631D01*
X0003435853Y0001685450D01*
X0003432952Y0001681109D01*
X0003430051Y0001685450D01*
X0003413319Y0001696631D01*
X0003393582Y0001700557D01*
X0003373845Y0001696631D01*
X0003362005Y0001688720D01*
X0003359688Y0001692320D01*
X0003351334Y0001698028D01*
X0003341417Y0001700037D01*
X0003288267Y0001700037D01*
X0003279003Y0001698293D01*
X0003270493Y0001692818D01*
X0003264786Y0001684464D01*
X0003262777Y0001674547D01*
X0003262777Y0001621397D01*
X0003264521Y0001612133D01*
X0003269996Y0001603624D01*
X0003278350Y0001597916D01*
X0003288267Y0001595907D01*
X0003299203Y0001595907D01*
X0003168684Y0001465389D01*
X0003162198Y0001455682D01*
X0003159920Y0001444232D01*
X0003159920Y0001398088D01*
X0003148500Y0001390458D01*
X0003135828Y0001371490D01*
X0003131377Y0001349117D01*
X0003131377Y0001346827D01*
X0003135288Y0001327165D01*
X0003083145Y0001327165D01*
X0003087716Y0001331729D01*
X0003098137Y0001356825D01*
X0003098161Y0001383999D01*
X0003087784Y0001409114D01*
X0003068585Y0001428346D01*
X0003043488Y0001438766D01*
X0003016313Y0001438791D01*
X0002991200Y0001428414D01*
X0002980708Y0001417940D01*
X0002980708Y0001490599D01*
X0002986197Y0001489507D01*
X0002988487Y0001489507D01*
X0003010861Y0001493958D01*
X0003029827Y0001506631D01*
X0003042502Y0001525598D01*
X0003046952Y0001547972D01*
X0003042502Y0001570345D01*
X0003029827Y0001589311D01*
X0003016869Y0001597971D01*
X0003029827Y0001606630D01*
X0003042502Y0001625599D01*
X0003046952Y0001647972D01*
X0003042502Y0001670343D01*
X0003029827Y0001689313D01*
X0003016869Y0001697972D01*
X0003029827Y0001706631D01*
X0003035788Y0001715551D01*
X0003345198Y0001715551D01*
X0003346463Y0001714283D01*
X0003359988Y0001708665D01*
X0003374632Y0001708655D01*
X0003388167Y0001714247D01*
X0003398531Y0001724592D01*
X0003404147Y0001738118D01*
X0003404159Y0001752762D01*
X0003398567Y0001766296D01*
X0003388221Y0001776661D01*
X0003374696Y0001782277D01*
X0003360052Y0001782289D01*
X0003346517Y0001776697D01*
X0003345211Y0001775393D01*
X0003039129Y0001775393D01*
X0003029827Y0001789312D01*
X0003010861Y0001801986D01*
X0002988487Y0001806437D01*
X0002986197Y0001806437D01*
X0002980708Y0001805345D01*
X0002980708Y0002185682D01*
X0003000525Y0002185682D01*
X0003006117Y0002172147D01*
X0003016463Y0002161783D01*
X0003029988Y0002156167D01*
X0003031833Y0002156166D01*
X0003049374Y0002138625D01*
X0003059081Y0002132139D01*
X0003060980Y0002131761D01*
X0003070531Y0002129862D01*
X0003129921Y0002129862D01*
X0003129921Y0002077616D01*
X0003128653Y0002076350D01*
X0003123037Y0002062825D01*
X0003123024Y0002048182D01*
X0003128617Y0002034647D01*
X0003138963Y0002024283D01*
X0003152488Y0002018667D01*
X0003167132Y0002018654D01*
X0003180667Y0002024247D01*
X0003191030Y0002034593D01*
X0003196647Y0002048118D01*
X0003196659Y0002062762D01*
X0003191067Y0002076296D01*
X0003189762Y0002077602D01*
X0003189762Y0002129862D01*
X0003383962Y0002129862D01*
X0003386117Y0002124647D01*
X0003396463Y0002114283D01*
X0003409988Y0002108667D01*
X0003424632Y0002108655D01*
X0003438167Y0002114247D01*
X0003448530Y0002124593D01*
X0003454147Y0002138118D01*
X0003454159Y0002152762D01*
X0003448567Y0002166296D01*
X0003438221Y0002176661D01*
X0003424696Y0002182277D01*
X0003422186Y0002182279D01*
X0003414481Y0002187427D01*
X0003403031Y0002189704D01*
X0003082925Y0002189704D01*
X0003074158Y0002198471D01*
X0003074158Y0002200262D01*
X0003068567Y0002213796D01*
X0003058221Y0002224161D01*
X0003044696Y0002229777D01*
X0003030052Y0002229789D01*
X0003016517Y0002224197D01*
X0003006152Y0002213851D01*
X0003000537Y0002200326D01*
X0003000525Y0002185682D01*
X0002980708Y0002185682D01*
X0002980708Y0002452362D01*
X0003712204Y0002452362D01*
X0003712204Y0001800953D01*
M02*