G04 #@! TF.FileFunction,Legend,Top*
%FSLAX46Y46*%
G04 Gerber Fmt 4.6, Leading zero omitted, Abs format (unit mm)*
G04 Created by KiCad (PCBNEW 4.0.2-stable) date 29.05.2017 13:31:58*
%MOMM*%
G01*
G04 APERTURE LIST*
%ADD10C,0.100000*%
%ADD11C,0.127000*%
%ADD12C,0.254000*%
%ADD13C,0.120000*%
%ADD14C,0.076200*%
%ADD15C,0.150000*%
G04 APERTURE END LIST*
D10*
X171289429Y-117725571D02*
X170689429Y-117725571D01*
X170975143Y-117725571D02*
X170975143Y-117382714D01*
X171289429Y-117382714D02*
X170689429Y-117382714D01*
X171289429Y-117097000D02*
X170689429Y-117097000D01*
X171118000Y-116897000D01*
X170689429Y-116697000D01*
X171289429Y-116697000D01*
X171260857Y-116439857D02*
X171289429Y-116354143D01*
X171289429Y-116211286D01*
X171260857Y-116154143D01*
X171232286Y-116125572D01*
X171175143Y-116097000D01*
X171118000Y-116097000D01*
X171060857Y-116125572D01*
X171032286Y-116154143D01*
X171003714Y-116211286D01*
X170975143Y-116325572D01*
X170946571Y-116382714D01*
X170918000Y-116411286D01*
X170860857Y-116439857D01*
X170803714Y-116439857D01*
X170746571Y-116411286D01*
X170718000Y-116382714D01*
X170689429Y-116325572D01*
X170689429Y-116182714D01*
X170718000Y-116097000D01*
X171260857Y-115611285D02*
X171289429Y-115668428D01*
X171289429Y-115782714D01*
X171260857Y-115839857D01*
X171203714Y-115868428D01*
X170975143Y-115868428D01*
X170918000Y-115839857D01*
X170889429Y-115782714D01*
X170889429Y-115668428D01*
X170918000Y-115611285D01*
X170975143Y-115582714D01*
X171032286Y-115582714D01*
X171089429Y-115868428D01*
X170889429Y-115325571D02*
X171289429Y-115325571D01*
X170946571Y-115325571D02*
X170918000Y-115296999D01*
X170889429Y-115239857D01*
X170889429Y-115154142D01*
X170918000Y-115096999D01*
X170975143Y-115068428D01*
X171289429Y-115068428D01*
X171260857Y-114811285D02*
X171289429Y-114754142D01*
X171289429Y-114639857D01*
X171260857Y-114582714D01*
X171203714Y-114554142D01*
X171175143Y-114554142D01*
X171118000Y-114582714D01*
X171089429Y-114639857D01*
X171089429Y-114725571D01*
X171060857Y-114782714D01*
X171003714Y-114811285D01*
X170975143Y-114811285D01*
X170918000Y-114782714D01*
X170889429Y-114725571D01*
X170889429Y-114639857D01*
X170918000Y-114582714D01*
X171289429Y-114211286D02*
X171260857Y-114268428D01*
X171232286Y-114297000D01*
X171175143Y-114325571D01*
X171003714Y-114325571D01*
X170946571Y-114297000D01*
X170918000Y-114268428D01*
X170889429Y-114211286D01*
X170889429Y-114125571D01*
X170918000Y-114068428D01*
X170946571Y-114039857D01*
X171003714Y-114011286D01*
X171175143Y-114011286D01*
X171232286Y-114039857D01*
X171260857Y-114068428D01*
X171289429Y-114125571D01*
X171289429Y-114211286D01*
X171289429Y-113754143D02*
X170889429Y-113754143D01*
X171003714Y-113754143D02*
X170946571Y-113725571D01*
X170918000Y-113697000D01*
X170889429Y-113639857D01*
X170889429Y-113582714D01*
X172172286Y-116954144D02*
X172200857Y-116982715D01*
X172229429Y-117068429D01*
X172229429Y-117125572D01*
X172200857Y-117211287D01*
X172143714Y-117268429D01*
X172086571Y-117297001D01*
X171972286Y-117325572D01*
X171886571Y-117325572D01*
X171772286Y-117297001D01*
X171715143Y-117268429D01*
X171658000Y-117211287D01*
X171629429Y-117125572D01*
X171629429Y-117068429D01*
X171658000Y-116982715D01*
X171686571Y-116954144D01*
X172229429Y-116354144D02*
X171943714Y-116554144D01*
X172229429Y-116697001D02*
X171629429Y-116697001D01*
X171629429Y-116468429D01*
X171658000Y-116411287D01*
X171686571Y-116382715D01*
X171743714Y-116354144D01*
X171829429Y-116354144D01*
X171886571Y-116382715D01*
X171915143Y-116411287D01*
X171943714Y-116468429D01*
X171943714Y-116697001D01*
X171686571Y-116125572D02*
X171658000Y-116097001D01*
X171629429Y-116039858D01*
X171629429Y-115897001D01*
X171658000Y-115839858D01*
X171686571Y-115811287D01*
X171743714Y-115782715D01*
X171800857Y-115782715D01*
X171886571Y-115811287D01*
X172229429Y-116154144D01*
X172229429Y-115782715D01*
X171629429Y-115411286D02*
X171629429Y-115354143D01*
X171658000Y-115297000D01*
X171686571Y-115268429D01*
X171743714Y-115239858D01*
X171858000Y-115211286D01*
X172000857Y-115211286D01*
X172115143Y-115239858D01*
X172172286Y-115268429D01*
X172200857Y-115297000D01*
X172229429Y-115354143D01*
X172229429Y-115411286D01*
X172200857Y-115468429D01*
X172172286Y-115497000D01*
X172115143Y-115525572D01*
X172000857Y-115554143D01*
X171858000Y-115554143D01*
X171743714Y-115525572D01*
X171686571Y-115497000D01*
X171658000Y-115468429D01*
X171629429Y-115411286D01*
X171629429Y-115011286D02*
X171629429Y-114639857D01*
X171858000Y-114839857D01*
X171858000Y-114754143D01*
X171886571Y-114697000D01*
X171915143Y-114668429D01*
X171972286Y-114639857D01*
X172115143Y-114639857D01*
X172172286Y-114668429D01*
X172200857Y-114697000D01*
X172229429Y-114754143D01*
X172229429Y-114925571D01*
X172200857Y-114982714D01*
X172172286Y-115011286D01*
X171686571Y-114411285D02*
X171658000Y-114382714D01*
X171629429Y-114325571D01*
X171629429Y-114182714D01*
X171658000Y-114125571D01*
X171686571Y-114097000D01*
X171743714Y-114068428D01*
X171800857Y-114068428D01*
X171886571Y-114097000D01*
X172229429Y-114439857D01*
X172229429Y-114068428D01*
X172569429Y-116611286D02*
X173169429Y-116411286D01*
X172569429Y-116211286D01*
X173169429Y-115697000D02*
X173169429Y-116039857D01*
X173169429Y-115868429D02*
X172569429Y-115868429D01*
X172655143Y-115925572D01*
X172712286Y-115982714D01*
X172740857Y-116039857D01*
X173112286Y-115439857D02*
X173140857Y-115411285D01*
X173169429Y-115439857D01*
X173140857Y-115468428D01*
X173112286Y-115439857D01*
X173169429Y-115439857D01*
X173169429Y-114839857D02*
X173169429Y-115182714D01*
X173169429Y-115011286D02*
X172569429Y-115011286D01*
X172655143Y-115068429D01*
X172712286Y-115125571D01*
X172740857Y-115182714D01*
X187051190Y-114331666D02*
X187551190Y-114164999D01*
X187051190Y-113998333D01*
X187503571Y-113545952D02*
X187527381Y-113569762D01*
X187551190Y-113641190D01*
X187551190Y-113688809D01*
X187527381Y-113760238D01*
X187479762Y-113807857D01*
X187432143Y-113831666D01*
X187336905Y-113855476D01*
X187265476Y-113855476D01*
X187170238Y-113831666D01*
X187122619Y-113807857D01*
X187075000Y-113760238D01*
X187051190Y-113688809D01*
X187051190Y-113641190D01*
X187075000Y-113569762D01*
X187098810Y-113545952D01*
X187503571Y-113045952D02*
X187527381Y-113069762D01*
X187551190Y-113141190D01*
X187551190Y-113188809D01*
X187527381Y-113260238D01*
X187479762Y-113307857D01*
X187432143Y-113331666D01*
X187336905Y-113355476D01*
X187265476Y-113355476D01*
X187170238Y-113331666D01*
X187122619Y-113307857D01*
X187075000Y-113260238D01*
X187051190Y-113188809D01*
X187051190Y-113141190D01*
X187075000Y-113069762D01*
X187098810Y-113045952D01*
X175589453Y-122654190D02*
X175589453Y-122154190D01*
X175708500Y-122154190D01*
X175779929Y-122178000D01*
X175827548Y-122225619D01*
X175851357Y-122273238D01*
X175875167Y-122368476D01*
X175875167Y-122439905D01*
X175851357Y-122535143D01*
X175827548Y-122582762D01*
X175779929Y-122630381D01*
X175708500Y-122654190D01*
X175589453Y-122654190D01*
X176303738Y-122154190D02*
X176208500Y-122154190D01*
X176160881Y-122178000D01*
X176137072Y-122201810D01*
X176089453Y-122273238D01*
X176065643Y-122368476D01*
X176065643Y-122558952D01*
X176089453Y-122606571D01*
X176113262Y-122630381D01*
X176160881Y-122654190D01*
X176256119Y-122654190D01*
X176303738Y-122630381D01*
X176327548Y-122606571D01*
X176351357Y-122558952D01*
X176351357Y-122439905D01*
X176327548Y-122392286D01*
X176303738Y-122368476D01*
X176256119Y-122344667D01*
X176160881Y-122344667D01*
X176113262Y-122368476D01*
X176089453Y-122392286D01*
X176065643Y-122439905D01*
X178129453Y-122717690D02*
X178129453Y-122217690D01*
X178248500Y-122217690D01*
X178319929Y-122241500D01*
X178367548Y-122289119D01*
X178391357Y-122336738D01*
X178415167Y-122431976D01*
X178415167Y-122503405D01*
X178391357Y-122598643D01*
X178367548Y-122646262D01*
X178319929Y-122693881D01*
X178248500Y-122717690D01*
X178129453Y-122717690D01*
X178581834Y-122217690D02*
X178891357Y-122217690D01*
X178724691Y-122408167D01*
X178796119Y-122408167D01*
X178843738Y-122431976D01*
X178867548Y-122455786D01*
X178891357Y-122503405D01*
X178891357Y-122622452D01*
X178867548Y-122670071D01*
X178843738Y-122693881D01*
X178796119Y-122717690D01*
X178653262Y-122717690D01*
X178605643Y-122693881D01*
X178581834Y-122670071D01*
X180681358Y-122511333D02*
X180919453Y-122511333D01*
X180633739Y-122654190D02*
X180800406Y-122154190D01*
X180967072Y-122654190D01*
X181371834Y-122154190D02*
X181133739Y-122154190D01*
X181109929Y-122392286D01*
X181133739Y-122368476D01*
X181181358Y-122344667D01*
X181300405Y-122344667D01*
X181348024Y-122368476D01*
X181371834Y-122392286D01*
X181395643Y-122439905D01*
X181395643Y-122558952D01*
X181371834Y-122606571D01*
X181348024Y-122630381D01*
X181300405Y-122654190D01*
X181181358Y-122654190D01*
X181133739Y-122630381D01*
X181109929Y-122606571D01*
X183221358Y-122511333D02*
X183459453Y-122511333D01*
X183173739Y-122654190D02*
X183340406Y-122154190D01*
X183507072Y-122654190D01*
X183888024Y-122320857D02*
X183888024Y-122654190D01*
X183768977Y-122130381D02*
X183649929Y-122487524D01*
X183959453Y-122487524D01*
X185697858Y-122511333D02*
X185935953Y-122511333D01*
X185650239Y-122654190D02*
X185816906Y-122154190D01*
X185983572Y-122654190D01*
X186102620Y-122154190D02*
X186412143Y-122154190D01*
X186245477Y-122344667D01*
X186316905Y-122344667D01*
X186364524Y-122368476D01*
X186388334Y-122392286D01*
X186412143Y-122439905D01*
X186412143Y-122558952D01*
X186388334Y-122606571D01*
X186364524Y-122630381D01*
X186316905Y-122654190D01*
X186174048Y-122654190D01*
X186126429Y-122630381D01*
X186102620Y-122606571D01*
X187575888Y-123056963D02*
X187744246Y-122888604D01*
X187643231Y-123191650D02*
X187407529Y-122720245D01*
X187878933Y-122955948D01*
X187660067Y-122535052D02*
X187660067Y-122501379D01*
X187676903Y-122450871D01*
X187761082Y-122366692D01*
X187811590Y-122349857D01*
X187845262Y-122349857D01*
X187895769Y-122366693D01*
X187929441Y-122400365D01*
X187963113Y-122467707D01*
X187963113Y-122871768D01*
X188181979Y-122652902D01*
X187344833Y-121515142D02*
X187344833Y-121277047D01*
X187487690Y-121562761D02*
X186987690Y-121396094D01*
X187487690Y-121229428D01*
X187487690Y-120800857D02*
X187487690Y-121086571D01*
X187487690Y-120943714D02*
X186987690Y-120943714D01*
X187059119Y-120991333D01*
X187106738Y-121038952D01*
X187130548Y-121086571D01*
X187344833Y-119038642D02*
X187344833Y-118800547D01*
X187487690Y-119086261D02*
X186987690Y-118919594D01*
X187487690Y-118752928D01*
X186987690Y-118491023D02*
X186987690Y-118443404D01*
X187011500Y-118395785D01*
X187035310Y-118371976D01*
X187082929Y-118348166D01*
X187178167Y-118324357D01*
X187297214Y-118324357D01*
X187392452Y-118348166D01*
X187440071Y-118371976D01*
X187463881Y-118395785D01*
X187487690Y-118443404D01*
X187487690Y-118491023D01*
X187463881Y-118538642D01*
X187440071Y-118562452D01*
X187392452Y-118586261D01*
X187297214Y-118610071D01*
X187178167Y-118610071D01*
X187082929Y-118586261D01*
X187035310Y-118562452D01*
X187011500Y-118538642D01*
X186987690Y-118491023D01*
X187075000Y-116585953D02*
X187051190Y-116633572D01*
X187051190Y-116705000D01*
X187075000Y-116776429D01*
X187122619Y-116824048D01*
X187170238Y-116847857D01*
X187265476Y-116871667D01*
X187336905Y-116871667D01*
X187432143Y-116847857D01*
X187479762Y-116824048D01*
X187527381Y-116776429D01*
X187551190Y-116705000D01*
X187551190Y-116657381D01*
X187527381Y-116585953D01*
X187503571Y-116562143D01*
X187336905Y-116562143D01*
X187336905Y-116657381D01*
X187551190Y-116347857D02*
X187051190Y-116347857D01*
X187551190Y-116062143D01*
X187051190Y-116062143D01*
X187551190Y-115824047D02*
X187051190Y-115824047D01*
X187051190Y-115705000D01*
X187075000Y-115633571D01*
X187122619Y-115585952D01*
X187170238Y-115562143D01*
X187265476Y-115538333D01*
X187336905Y-115538333D01*
X187432143Y-115562143D01*
X187479762Y-115585952D01*
X187527381Y-115633571D01*
X187551190Y-115705000D01*
X187551190Y-115824047D01*
X173609047Y-99191000D02*
X173561428Y-99167190D01*
X173490000Y-99167190D01*
X173418571Y-99191000D01*
X173370952Y-99238619D01*
X173347143Y-99286238D01*
X173323333Y-99381476D01*
X173323333Y-99452905D01*
X173347143Y-99548143D01*
X173370952Y-99595762D01*
X173418571Y-99643381D01*
X173490000Y-99667190D01*
X173537619Y-99667190D01*
X173609047Y-99643381D01*
X173632857Y-99619571D01*
X173632857Y-99452905D01*
X173537619Y-99452905D01*
X173847143Y-99667190D02*
X173847143Y-99167190D01*
X174132857Y-99667190D01*
X174132857Y-99167190D01*
X174370953Y-99667190D02*
X174370953Y-99167190D01*
X174490000Y-99167190D01*
X174561429Y-99191000D01*
X174609048Y-99238619D01*
X174632857Y-99286238D01*
X174656667Y-99381476D01*
X174656667Y-99452905D01*
X174632857Y-99548143D01*
X174609048Y-99595762D01*
X174561429Y-99643381D01*
X174490000Y-99667190D01*
X174370953Y-99667190D01*
X173609047Y-96651000D02*
X173561428Y-96627190D01*
X173490000Y-96627190D01*
X173418571Y-96651000D01*
X173370952Y-96698619D01*
X173347143Y-96746238D01*
X173323333Y-96841476D01*
X173323333Y-96912905D01*
X173347143Y-97008143D01*
X173370952Y-97055762D01*
X173418571Y-97103381D01*
X173490000Y-97127190D01*
X173537619Y-97127190D01*
X173609047Y-97103381D01*
X173632857Y-97079571D01*
X173632857Y-96912905D01*
X173537619Y-96912905D01*
X173847143Y-97127190D02*
X173847143Y-96627190D01*
X174132857Y-97127190D01*
X174132857Y-96627190D01*
X174370953Y-97127190D02*
X174370953Y-96627190D01*
X174490000Y-96627190D01*
X174561429Y-96651000D01*
X174609048Y-96698619D01*
X174632857Y-96746238D01*
X174656667Y-96841476D01*
X174656667Y-96912905D01*
X174632857Y-97008143D01*
X174609048Y-97055762D01*
X174561429Y-97103381D01*
X174490000Y-97127190D01*
X174370953Y-97127190D01*
X173656667Y-94587190D02*
X173490000Y-94349095D01*
X173370953Y-94587190D02*
X173370953Y-94087190D01*
X173561429Y-94087190D01*
X173609048Y-94111000D01*
X173632857Y-94134810D01*
X173656667Y-94182429D01*
X173656667Y-94253857D01*
X173632857Y-94301476D01*
X173609048Y-94325286D01*
X173561429Y-94349095D01*
X173370953Y-94349095D01*
X173823334Y-94087190D02*
X174156667Y-94587190D01*
X174156667Y-94087190D02*
X173823334Y-94587190D01*
X174347143Y-94587190D02*
X174347143Y-94087190D01*
X174466190Y-94087190D01*
X174537619Y-94111000D01*
X174585238Y-94158619D01*
X174609047Y-94206238D01*
X174632857Y-94301476D01*
X174632857Y-94372905D01*
X174609047Y-94468143D01*
X174585238Y-94515762D01*
X174537619Y-94563381D01*
X174466190Y-94587190D01*
X174347143Y-94587190D01*
X173359048Y-91547190D02*
X173644762Y-91547190D01*
X173501905Y-92047190D02*
X173501905Y-91547190D01*
X173763810Y-91547190D02*
X174097143Y-92047190D01*
X174097143Y-91547190D02*
X173763810Y-92047190D01*
X174287619Y-92047190D02*
X174287619Y-91547190D01*
X174406666Y-91547190D01*
X174478095Y-91571000D01*
X174525714Y-91618619D01*
X174549523Y-91666238D01*
X174573333Y-91761476D01*
X174573333Y-91832905D01*
X174549523Y-91928143D01*
X174525714Y-91975762D01*
X174478095Y-92023381D01*
X174406666Y-92047190D01*
X174287619Y-92047190D01*
X173323334Y-89134190D02*
X173490001Y-89634190D01*
X173656667Y-89134190D01*
X174109048Y-89586571D02*
X174085238Y-89610381D01*
X174013810Y-89634190D01*
X173966191Y-89634190D01*
X173894762Y-89610381D01*
X173847143Y-89562762D01*
X173823334Y-89515143D01*
X173799524Y-89419905D01*
X173799524Y-89348476D01*
X173823334Y-89253238D01*
X173847143Y-89205619D01*
X173894762Y-89158000D01*
X173966191Y-89134190D01*
X174013810Y-89134190D01*
X174085238Y-89158000D01*
X174109048Y-89181810D01*
X174609048Y-89586571D02*
X174585238Y-89610381D01*
X174513810Y-89634190D01*
X174466191Y-89634190D01*
X174394762Y-89610381D01*
X174347143Y-89562762D01*
X174323334Y-89515143D01*
X174299524Y-89419905D01*
X174299524Y-89348476D01*
X174323334Y-89253238D01*
X174347143Y-89205619D01*
X174394762Y-89158000D01*
X174466191Y-89134190D01*
X174513810Y-89134190D01*
X174585238Y-89158000D01*
X174609048Y-89181810D01*
D11*
X179451000Y-115252500D02*
X177673000Y-115252500D01*
X180467000Y-115252500D02*
X182245000Y-115252500D01*
X179705000Y-115379500D02*
X180213000Y-115379500D01*
X179705000Y-115379500D02*
X179578000Y-115506500D01*
X179578000Y-115506500D02*
X179578000Y-116268500D01*
X179578000Y-116268500D02*
X179451000Y-116395500D01*
X179451000Y-116395500D02*
X177673000Y-116395500D01*
X177673000Y-116395500D02*
X177546000Y-116268500D01*
X177546000Y-116268500D02*
X177546000Y-115506500D01*
X177546000Y-115506500D02*
X177419000Y-115379500D01*
X182499000Y-115379500D02*
X182372000Y-115506500D01*
X182372000Y-115506500D02*
X182372000Y-116268500D01*
X182372000Y-116268500D02*
X182245000Y-116395500D01*
X182245000Y-116395500D02*
X180467000Y-116395500D01*
X180467000Y-116395500D02*
X180340000Y-116268500D01*
X180340000Y-116268500D02*
X180340000Y-115506500D01*
X180340000Y-115506500D02*
X180213000Y-115379500D01*
X180467000Y-94424500D02*
X182245000Y-94424500D01*
X177673000Y-94424500D02*
X179451000Y-94424500D01*
X179705000Y-94297500D02*
X180213000Y-94297500D01*
X182499000Y-94297500D02*
X182372000Y-94170500D01*
X182372000Y-94170500D02*
X182372000Y-93408500D01*
X182372000Y-93408500D02*
X182245000Y-93281500D01*
X182245000Y-93281500D02*
X180467000Y-93281500D01*
X180213000Y-94297500D02*
X180340000Y-94170500D01*
X180340000Y-94170500D02*
X180340000Y-93408500D01*
X180340000Y-93408500D02*
X180467000Y-93281500D01*
X177673000Y-93281500D02*
X179451000Y-93281500D01*
X179451000Y-93281500D02*
X179578000Y-93408500D01*
X179578000Y-93408500D02*
X179578000Y-94170500D01*
X179578000Y-94170500D02*
X179705000Y-94297500D01*
X177419000Y-94297500D02*
X177546000Y-94170500D01*
X177546000Y-94170500D02*
X177546000Y-93408500D01*
X177546000Y-93408500D02*
X177673000Y-93281500D01*
X180975000Y-111061500D02*
X180975000Y-109537500D01*
X180975000Y-100139500D02*
X180975000Y-98615500D01*
X181483000Y-100647500D02*
G75*
G03X182753000Y-99377500I0J1270000D01*
G01*
X182753000Y-99377500D02*
G75*
G03X181483000Y-98107500I-1270000J0D01*
G01*
X181483000Y-98107500D02*
X176911000Y-98107500D01*
X181483000Y-100647500D02*
X176911000Y-100647500D01*
X180489229Y-100682392D02*
G75*
G03X180467000Y-98107500I2009771J1304892D01*
G01*
X180489229Y-111604392D02*
G75*
G03X180467000Y-109029500I2009771J1304892D01*
G01*
X181483000Y-111569500D02*
X176911000Y-111569500D01*
X181483000Y-109029500D02*
X176911000Y-109029500D01*
X182753000Y-110299500D02*
G75*
G03X181483000Y-109029500I-1270000J0D01*
G01*
X181483000Y-111569500D02*
G75*
G03X182753000Y-110299500I0J1270000D01*
G01*
X171714956Y-99107706D02*
G75*
G03X171704000Y-110553500I8244044J-5730794D01*
G01*
X177419000Y-94805500D02*
X171831000Y-96583500D01*
X171826557Y-96618645D02*
G75*
G03X171577000Y-98361500I639443J-980855D01*
G01*
X171831000Y-113093500D02*
X177419000Y-114871500D01*
X171541576Y-111315318D02*
G75*
G03X171831000Y-113093500I924424J-762182D01*
G01*
X177419000Y-94297500D02*
X177419000Y-94805500D01*
X177419000Y-115379500D02*
X177419000Y-114871500D01*
X184531000Y-94297500D02*
X184277000Y-94551500D01*
X184531000Y-115379500D02*
X184277000Y-115125500D01*
X184277000Y-94297500D02*
X184277000Y-94551500D01*
X184277000Y-115379500D02*
X184277000Y-115125500D01*
X171580285Y-111311632D02*
G75*
G03X171577000Y-98361500I-7623285J6473132D01*
G01*
X187582285Y-111311632D02*
G75*
G03X187579000Y-98361500I-7623285J6473132D01*
G01*
X187325000Y-112077500D02*
X187325000Y-97599500D01*
X184531000Y-115379500D02*
X187579000Y-112331500D01*
X187579000Y-112331500D02*
X187325000Y-112077500D01*
X184277000Y-115379500D02*
X182499000Y-115379500D01*
X187579000Y-97345500D02*
X184531000Y-94297500D01*
X187579000Y-97345500D02*
X187325000Y-97599500D01*
X184277000Y-94297500D02*
X182499000Y-94297500D01*
D12*
X183769000Y-105854500D02*
X183769000Y-103822500D01*
X184785000Y-104838500D02*
X182753000Y-104838500D01*
D13*
X182828500Y-121825000D02*
X176708500Y-121825000D01*
X176708500Y-121825000D02*
X176708500Y-118205000D01*
X176708500Y-118205000D02*
X182828500Y-118205000D01*
X182828500Y-118205000D02*
X182828500Y-121825000D01*
X176772000Y-85439000D02*
X182892000Y-85439000D01*
X182892000Y-85439000D02*
X182892000Y-89059000D01*
X182892000Y-89059000D02*
X176772000Y-89059000D01*
X176772000Y-89059000D02*
X176772000Y-85439000D01*
X189507500Y-92480500D02*
X189507500Y-90780500D01*
X189457500Y-90780500D02*
X185407500Y-90780500D01*
X189457500Y-92480500D02*
X185407500Y-92480500D01*
X189507500Y-90385000D02*
X189507500Y-88685000D01*
X189457500Y-88685000D02*
X185407500Y-88685000D01*
X189457500Y-90385000D02*
X185407500Y-90385000D01*
X187925000Y-94606000D02*
X186725000Y-94606000D01*
X186725000Y-92846000D02*
X187925000Y-92846000D01*
X179359000Y-89290000D02*
X180559000Y-89290000D01*
X180559000Y-91050000D02*
X179359000Y-91050000D01*
X170771000Y-87423500D02*
X170771000Y-87483500D01*
X170771000Y-87483500D02*
X172891000Y-87483500D01*
X172891000Y-87483500D02*
X172891000Y-87423500D01*
X172891000Y-87423500D02*
X170771000Y-87423500D01*
X170771000Y-86423500D02*
X170771000Y-85363500D01*
X170771000Y-85363500D02*
X171831000Y-85363500D01*
X175299000Y-91194000D02*
X175299000Y-92194000D01*
X176999000Y-92194000D02*
X176999000Y-91194000D01*
D14*
X175328943Y-105477128D02*
X175367648Y-105361014D01*
X175406352Y-105322309D01*
X175483762Y-105283604D01*
X175599876Y-105283604D01*
X175677286Y-105322309D01*
X175715990Y-105361014D01*
X175754695Y-105438423D01*
X175754695Y-105748061D01*
X174941895Y-105748061D01*
X174941895Y-105477128D01*
X174980600Y-105399718D01*
X175019305Y-105361014D01*
X175096714Y-105322309D01*
X175174124Y-105322309D01*
X175251533Y-105361014D01*
X175290238Y-105399718D01*
X175328943Y-105477128D01*
X175328943Y-105748061D01*
X174941895Y-105051375D02*
X174941895Y-104586918D01*
X175754695Y-104819147D02*
X174941895Y-104819147D01*
X175754695Y-103890233D02*
X175754695Y-104354690D01*
X175754695Y-104122461D02*
X174941895Y-104122461D01*
X175058010Y-104199871D01*
X175135419Y-104277280D01*
X175174124Y-104354690D01*
X186123943Y-106522157D02*
X186162648Y-106406043D01*
X186201352Y-106367338D01*
X186278762Y-106328633D01*
X186394876Y-106328633D01*
X186472286Y-106367338D01*
X186510990Y-106406043D01*
X186549695Y-106483452D01*
X186549695Y-106793090D01*
X185736895Y-106793090D01*
X185736895Y-106522157D01*
X185775600Y-106444747D01*
X185814305Y-106406043D01*
X185891714Y-106367338D01*
X185969124Y-106367338D01*
X186046533Y-106406043D01*
X186085238Y-106444747D01*
X186123943Y-106522157D01*
X186123943Y-106793090D01*
X186549695Y-105631947D02*
X186123943Y-105631947D01*
X186046533Y-105670652D01*
X186007829Y-105748062D01*
X186007829Y-105902881D01*
X186046533Y-105980290D01*
X186510990Y-105631947D02*
X186549695Y-105709357D01*
X186549695Y-105902881D01*
X186510990Y-105980290D01*
X186433581Y-106018995D01*
X186356171Y-106018995D01*
X186278762Y-105980290D01*
X186240057Y-105902881D01*
X186240057Y-105709357D01*
X186201352Y-105631947D01*
X186007829Y-105361014D02*
X186007829Y-105051376D01*
X185736895Y-105244900D02*
X186433581Y-105244900D01*
X186510990Y-105206195D01*
X186549695Y-105128786D01*
X186549695Y-105051376D01*
X186007829Y-104896557D02*
X186007829Y-104586919D01*
X185736895Y-104780443D02*
X186433581Y-104780443D01*
X186510990Y-104741738D01*
X186549695Y-104664329D01*
X186549695Y-104586919D01*
X186510990Y-104006348D02*
X186549695Y-104083758D01*
X186549695Y-104238577D01*
X186510990Y-104315986D01*
X186433581Y-104354691D01*
X186123943Y-104354691D01*
X186046533Y-104315986D01*
X186007829Y-104238577D01*
X186007829Y-104083758D01*
X186046533Y-104006348D01*
X186123943Y-103967643D01*
X186201352Y-103967643D01*
X186278762Y-104354691D01*
X186549695Y-103619300D02*
X186007829Y-103619300D01*
X186162648Y-103619300D02*
X186085238Y-103580595D01*
X186046533Y-103541891D01*
X186007829Y-103464481D01*
X186007829Y-103387072D01*
X186007829Y-103193548D02*
X186549695Y-103000024D01*
X186007829Y-102806500D02*
X186549695Y-103000024D01*
X186743219Y-103077433D01*
X186781924Y-103116138D01*
X186820629Y-103193548D01*
D15*
X178435167Y-120419762D02*
X178578024Y-120467381D01*
X178816120Y-120467381D01*
X178911358Y-120419762D01*
X178958977Y-120372143D01*
X179006596Y-120276905D01*
X179006596Y-120181667D01*
X178958977Y-120086429D01*
X178911358Y-120038810D01*
X178816120Y-119991190D01*
X178625643Y-119943571D01*
X178530405Y-119895952D01*
X178482786Y-119848333D01*
X178435167Y-119753095D01*
X178435167Y-119657857D01*
X178482786Y-119562619D01*
X178530405Y-119515000D01*
X178625643Y-119467381D01*
X178863739Y-119467381D01*
X179006596Y-119515000D01*
X179339929Y-119467381D02*
X179578024Y-120467381D01*
X179768501Y-119753095D01*
X179958977Y-120467381D01*
X180197072Y-119467381D01*
X181101834Y-120467381D02*
X180530405Y-120467381D01*
X180816119Y-120467381D02*
X180816119Y-119467381D01*
X180720881Y-119610238D01*
X180625643Y-119705476D01*
X180530405Y-119753095D01*
X173507524Y-118662405D02*
X173240857Y-118281452D01*
X173050381Y-118662405D02*
X173050381Y-117862405D01*
X173355143Y-117862405D01*
X173431334Y-117900500D01*
X173469429Y-117938595D01*
X173507524Y-118014786D01*
X173507524Y-118129071D01*
X173469429Y-118205262D01*
X173431334Y-118243357D01*
X173355143Y-118281452D01*
X173050381Y-118281452D01*
X174155143Y-118624310D02*
X174078953Y-118662405D01*
X173926572Y-118662405D01*
X173850381Y-118624310D01*
X173812286Y-118548119D01*
X173812286Y-118243357D01*
X173850381Y-118167167D01*
X173926572Y-118129071D01*
X174078953Y-118129071D01*
X174155143Y-118167167D01*
X174193238Y-118243357D01*
X174193238Y-118319548D01*
X173812286Y-118395738D01*
X174498000Y-118624310D02*
X174574190Y-118662405D01*
X174726571Y-118662405D01*
X174802762Y-118624310D01*
X174840857Y-118548119D01*
X174840857Y-118510024D01*
X174802762Y-118433833D01*
X174726571Y-118395738D01*
X174612286Y-118395738D01*
X174536095Y-118357643D01*
X174498000Y-118281452D01*
X174498000Y-118243357D01*
X174536095Y-118167167D01*
X174612286Y-118129071D01*
X174726571Y-118129071D01*
X174802762Y-118167167D01*
X175488476Y-118624310D02*
X175412286Y-118662405D01*
X175259905Y-118662405D01*
X175183714Y-118624310D01*
X175145619Y-118548119D01*
X175145619Y-118243357D01*
X175183714Y-118167167D01*
X175259905Y-118129071D01*
X175412286Y-118129071D01*
X175488476Y-118167167D01*
X175526571Y-118243357D01*
X175526571Y-118319548D01*
X175145619Y-118395738D01*
X175755142Y-118129071D02*
X176059904Y-118129071D01*
X175869428Y-117862405D02*
X175869428Y-118548119D01*
X175907523Y-118624310D01*
X175983714Y-118662405D01*
X176059904Y-118662405D01*
X178498667Y-87653762D02*
X178641524Y-87701381D01*
X178879620Y-87701381D01*
X178974858Y-87653762D01*
X179022477Y-87606143D01*
X179070096Y-87510905D01*
X179070096Y-87415667D01*
X179022477Y-87320429D01*
X178974858Y-87272810D01*
X178879620Y-87225190D01*
X178689143Y-87177571D01*
X178593905Y-87129952D01*
X178546286Y-87082333D01*
X178498667Y-86987095D01*
X178498667Y-86891857D01*
X178546286Y-86796619D01*
X178593905Y-86749000D01*
X178689143Y-86701381D01*
X178927239Y-86701381D01*
X179070096Y-86749000D01*
X179403429Y-86701381D02*
X179641524Y-87701381D01*
X179832001Y-86987095D01*
X180022477Y-87701381D01*
X180260572Y-86701381D01*
X180593905Y-86796619D02*
X180641524Y-86749000D01*
X180736762Y-86701381D01*
X180974858Y-86701381D01*
X181070096Y-86749000D01*
X181117715Y-86796619D01*
X181165334Y-86891857D01*
X181165334Y-86987095D01*
X181117715Y-87129952D01*
X180546286Y-87701381D01*
X181165334Y-87701381D01*
X183654857Y-86010714D02*
X183616762Y-86048810D01*
X183502476Y-86086905D01*
X183426286Y-86086905D01*
X183312000Y-86048810D01*
X183235809Y-85972619D01*
X183197714Y-85896429D01*
X183159619Y-85744048D01*
X183159619Y-85629762D01*
X183197714Y-85477381D01*
X183235809Y-85401190D01*
X183312000Y-85325000D01*
X183426286Y-85286905D01*
X183502476Y-85286905D01*
X183616762Y-85325000D01*
X183654857Y-85363095D01*
X184112000Y-86086905D02*
X184035809Y-86048810D01*
X183997714Y-86010714D01*
X183959619Y-85934524D01*
X183959619Y-85705952D01*
X183997714Y-85629762D01*
X184035809Y-85591667D01*
X184112000Y-85553571D01*
X184226286Y-85553571D01*
X184302476Y-85591667D01*
X184340571Y-85629762D01*
X184378667Y-85705952D01*
X184378667Y-85934524D01*
X184340571Y-86010714D01*
X184302476Y-86048810D01*
X184226286Y-86086905D01*
X184112000Y-86086905D01*
X184721524Y-85553571D02*
X184721524Y-86086905D01*
X184721524Y-85629762D02*
X184759619Y-85591667D01*
X184835810Y-85553571D01*
X184950096Y-85553571D01*
X185026286Y-85591667D01*
X185064381Y-85667857D01*
X185064381Y-86086905D01*
X185331048Y-85553571D02*
X185635810Y-85553571D01*
X185445334Y-86086905D02*
X185445334Y-85401190D01*
X185483429Y-85325000D01*
X185559620Y-85286905D01*
X185635810Y-85286905D01*
X185902477Y-86086905D02*
X185902477Y-85553571D01*
X185902477Y-85286905D02*
X185864382Y-85325000D01*
X185902477Y-85363095D01*
X185940572Y-85325000D01*
X185902477Y-85286905D01*
X185902477Y-85363095D01*
X186626286Y-85553571D02*
X186626286Y-86201190D01*
X186588191Y-86277381D01*
X186550096Y-86315476D01*
X186473905Y-86353571D01*
X186359620Y-86353571D01*
X186283429Y-86315476D01*
X186626286Y-86048810D02*
X186550096Y-86086905D01*
X186397715Y-86086905D01*
X186321524Y-86048810D01*
X186283429Y-86010714D01*
X186245334Y-85934524D01*
X186245334Y-85705952D01*
X186283429Y-85629762D01*
X186321524Y-85591667D01*
X186397715Y-85553571D01*
X186550096Y-85553571D01*
X186626286Y-85591667D01*
X186396405Y-92146381D02*
X186396405Y-91146381D01*
X186634500Y-91146381D01*
X186777358Y-91194000D01*
X186872596Y-91289238D01*
X186920215Y-91384476D01*
X186967834Y-91574952D01*
X186967834Y-91717810D01*
X186920215Y-91908286D01*
X186872596Y-92003524D01*
X186777358Y-92098762D01*
X186634500Y-92146381D01*
X186396405Y-92146381D01*
X187920215Y-92146381D02*
X187348786Y-92146381D01*
X187634500Y-92146381D02*
X187634500Y-91146381D01*
X187539262Y-91289238D01*
X187444024Y-91384476D01*
X187348786Y-91432095D01*
X186269405Y-90114381D02*
X186269405Y-89114381D01*
X186507500Y-89114381D01*
X186650358Y-89162000D01*
X186745596Y-89257238D01*
X186793215Y-89352476D01*
X186840834Y-89542952D01*
X186840834Y-89685810D01*
X186793215Y-89876286D01*
X186745596Y-89971524D01*
X186650358Y-90066762D01*
X186507500Y-90114381D01*
X186269405Y-90114381D01*
X187221786Y-89209619D02*
X187269405Y-89162000D01*
X187364643Y-89114381D01*
X187602739Y-89114381D01*
X187697977Y-89162000D01*
X187745596Y-89209619D01*
X187793215Y-89304857D01*
X187793215Y-89400095D01*
X187745596Y-89542952D01*
X187174167Y-90114381D01*
X187793215Y-90114381D01*
X188491834Y-95956381D02*
X188158500Y-95480190D01*
X187920405Y-95956381D02*
X187920405Y-94956381D01*
X188301358Y-94956381D01*
X188396596Y-95004000D01*
X188444215Y-95051619D01*
X188491834Y-95146857D01*
X188491834Y-95289714D01*
X188444215Y-95384952D01*
X188396596Y-95432571D01*
X188301358Y-95480190D01*
X187920405Y-95480190D01*
X188872786Y-95051619D02*
X188920405Y-95004000D01*
X189015643Y-94956381D01*
X189253739Y-94956381D01*
X189348977Y-95004000D01*
X189396596Y-95051619D01*
X189444215Y-95146857D01*
X189444215Y-95242095D01*
X189396596Y-95384952D01*
X188825167Y-95956381D01*
X189444215Y-95956381D01*
X182840334Y-90749381D02*
X182507000Y-90273190D01*
X182268905Y-90749381D02*
X182268905Y-89749381D01*
X182649858Y-89749381D01*
X182745096Y-89797000D01*
X182792715Y-89844619D01*
X182840334Y-89939857D01*
X182840334Y-90082714D01*
X182792715Y-90177952D01*
X182745096Y-90225571D01*
X182649858Y-90273190D01*
X182268905Y-90273190D01*
X183173667Y-89749381D02*
X183792715Y-89749381D01*
X183459381Y-90130333D01*
X183602239Y-90130333D01*
X183697477Y-90177952D01*
X183745096Y-90225571D01*
X183792715Y-90320810D01*
X183792715Y-90558905D01*
X183745096Y-90654143D01*
X183697477Y-90701762D01*
X183602239Y-90749381D01*
X183316524Y-90749381D01*
X183221286Y-90701762D01*
X183173667Y-90654143D01*
X173712167Y-88137857D02*
X173712167Y-87661666D01*
X173997881Y-88233095D02*
X172997881Y-87899762D01*
X173997881Y-87566428D01*
X173997881Y-87233095D02*
X172997881Y-87233095D01*
X173997881Y-86661666D01*
X172997881Y-86661666D01*
X172997881Y-86328333D02*
X172997881Y-85756904D01*
X173997881Y-86042619D02*
X172997881Y-86042619D01*
X175791834Y-94845143D02*
X175744215Y-94892762D01*
X175601358Y-94940381D01*
X175506120Y-94940381D01*
X175363262Y-94892762D01*
X175268024Y-94797524D01*
X175220405Y-94702286D01*
X175172786Y-94511810D01*
X175172786Y-94368952D01*
X175220405Y-94178476D01*
X175268024Y-94083238D01*
X175363262Y-93988000D01*
X175506120Y-93940381D01*
X175601358Y-93940381D01*
X175744215Y-93988000D01*
X175791834Y-94035619D01*
X176648977Y-93940381D02*
X176458500Y-93940381D01*
X176363262Y-93988000D01*
X176315643Y-94035619D01*
X176220405Y-94178476D01*
X176172786Y-94368952D01*
X176172786Y-94749905D01*
X176220405Y-94845143D01*
X176268024Y-94892762D01*
X176363262Y-94940381D01*
X176553739Y-94940381D01*
X176648977Y-94892762D01*
X176696596Y-94845143D01*
X176744215Y-94749905D01*
X176744215Y-94511810D01*
X176696596Y-94416571D01*
X176648977Y-94368952D01*
X176553739Y-94321333D01*
X176363262Y-94321333D01*
X176268024Y-94368952D01*
X176220405Y-94416571D01*
X176172786Y-94511810D01*
M02*
