M48
;DRILL file {KiCad 4.0.2-stable} date 29.05.2017 13:32:03
;FORMAT={-:-/ absolute / metric / decimal}
FMAT,2
METRIC,TZ
T1C0.400
T2C0.800
T3C1.000
T4C2.200
%
G90
G05
M71
T1
X171.386Y-102.87
X173.99Y-110.871
X174.811Y-99.06
X175.178Y-120.015
X175.26Y-88.9
X175.26Y-95.631
X176.022Y-95.377
X176.657Y-109.855
X176.784Y-104.775
X177.165Y-120.587
X177.419Y-91.313
X177.8Y-113.411
X177.964Y-120.622
X178.181Y-112.014
X178.498Y-121.221
X179.832Y-112.014
X179.832Y-114.681
X179.879Y-121.158
X179.959Y-93.218
X180.594Y-114.046
X182.245Y-111.823
X183.007Y-114.173
X183.134Y-117.348
X183.959Y-121.158
X184.422Y-87.249
X184.594Y-109.728
X185.674Y-104.838
X186.754Y-111.442
T2
X171.831Y-86.423
T3
X176.022Y-123.761
X178.562Y-123.761
X181.102Y-123.761
X183.642Y-123.761
X186.182Y-123.761
X188.659Y-113.602
X188.659Y-116.141
X188.659Y-118.681
X188.659Y-121.221
X188.722Y-123.761
T4
X171.958Y-123.19
X188.087Y-86.741
T0
M30
