G04 #@! TF.FileFunction,Copper,L2,Bot,Signal*
%FSLAX46Y46*%
G04 Gerber Fmt 4.6, Leading zero omitted, Abs format (unit mm)*
G04 Created by KiCad (PCBNEW 4.0.2-stable) date 29.05.2017 13:31:58*
%MOMM*%
G01*
G04 APERTURE LIST*
%ADD10C,0.100000*%
%ADD11R,3.000000X1.700000*%
%ADD12R,1.600000X0.550000*%
%ADD13R,0.550000X1.600000*%
%ADD14C,1.700000*%
%ADD15O,1.700000X1.700000*%
%ADD16R,1.200000X2.524000*%
%ADD17R,1.250000X1.500000*%
%ADD18R,1.500000X1.250000*%
%ADD19R,1.500000X1.300000*%
%ADD20R,1.800000X1.750000*%
%ADD21R,1.350000X1.350000*%
%ADD22C,0.600000*%
%ADD23C,0.250000*%
%ADD24C,0.254000*%
G04 APERTURE END LIST*
D10*
D11*
X171410500Y-99441000D03*
X171410500Y-94361000D03*
X171410500Y-89281000D03*
X171386500Y-96901000D03*
X171386500Y-91821000D03*
D12*
X175963000Y-117417500D03*
X175963000Y-116617500D03*
X175963000Y-115817500D03*
X175963000Y-115017500D03*
X175963000Y-114217500D03*
X175963000Y-113417500D03*
X175963000Y-112617500D03*
X175963000Y-111817500D03*
D13*
X177413000Y-110367500D03*
X178213000Y-110367500D03*
X179013000Y-110367500D03*
X179813000Y-110367500D03*
X180613000Y-110367500D03*
X181413000Y-110367500D03*
X182213000Y-110367500D03*
X183013000Y-110367500D03*
D12*
X184463000Y-111817500D03*
X184463000Y-112617500D03*
X184463000Y-113417500D03*
X184463000Y-114217500D03*
X184463000Y-115017500D03*
X184463000Y-115817500D03*
X184463000Y-116617500D03*
X184463000Y-117417500D03*
D13*
X183013000Y-118867500D03*
X182213000Y-118867500D03*
X181413000Y-118867500D03*
X180613000Y-118867500D03*
X179813000Y-118867500D03*
X179013000Y-118867500D03*
X178213000Y-118867500D03*
X177413000Y-118867500D03*
D14*
X188658500Y-113601500D03*
D15*
X188658500Y-116141500D03*
X188658500Y-118681500D03*
X188658500Y-121221500D03*
D14*
X188722000Y-123761500D03*
D15*
X186182000Y-123761500D03*
X183642000Y-123761500D03*
X181102000Y-123761500D03*
X178562000Y-123761500D03*
X176022000Y-123761500D03*
D16*
X188610000Y-107282000D03*
X186610000Y-107282000D03*
X184610000Y-107282000D03*
X182610000Y-107282000D03*
X180610000Y-107282000D03*
X178610000Y-107282000D03*
X176610000Y-107282000D03*
X174610000Y-107282000D03*
X180610000Y-88282000D03*
X182610000Y-88282000D03*
X178610000Y-88282000D03*
D17*
X186690000Y-114193000D03*
X186690000Y-116693000D03*
X173799500Y-115971000D03*
X173799500Y-118471000D03*
D18*
X188448000Y-109791500D03*
X185948000Y-109791500D03*
D19*
X179879000Y-121158000D03*
X182579000Y-121158000D03*
D17*
X171704000Y-115971000D03*
X171704000Y-118471000D03*
X171831000Y-107739500D03*
X171831000Y-105239500D03*
D20*
X172085000Y-113512000D03*
X172085000Y-110262000D03*
D21*
X171831000Y-86423500D03*
D22*
X177800000Y-113411000D03*
X179959000Y-93218000D03*
X179879000Y-121158000D03*
X183007000Y-114173000D03*
X186753500Y-111442500D03*
X176784000Y-104775000D03*
X185674000Y-104838500D03*
X171386500Y-102870000D03*
X184422000Y-87249000D03*
X175178500Y-120015000D03*
X179832000Y-114681000D03*
X176657000Y-109855000D03*
X176022000Y-95377000D03*
X177419000Y-91313000D03*
X179832000Y-112014000D03*
X175260000Y-88900000D03*
X175260000Y-95631000D03*
X173990000Y-110871000D03*
X177165000Y-120586500D03*
X182245000Y-111823500D03*
X184594500Y-109728000D03*
X180594000Y-114046000D03*
X174811031Y-99060198D03*
X183959500Y-121158000D03*
X183134000Y-117348000D03*
X178498500Y-121221500D03*
X177964224Y-120621992D03*
X178181000Y-112014000D03*
D23*
X188610000Y-107282000D02*
X188610000Y-106538000D01*
X188610000Y-106538000D02*
X189230000Y-105918000D01*
X189230000Y-102489000D02*
X187960000Y-101219000D01*
X189230000Y-105918000D02*
X189230000Y-102489000D01*
X175963000Y-113417500D02*
X177793500Y-113417500D01*
X177793500Y-113417500D02*
X177800000Y-113411000D01*
X183007000Y-114173000D02*
X184418500Y-114173000D01*
X184418500Y-114173000D02*
X184463000Y-114217500D01*
X187960000Y-101219000D02*
X179959000Y-93218000D01*
X175963000Y-113417500D02*
X174913000Y-113417500D01*
X174913000Y-113417500D02*
X174628000Y-113702500D01*
X174628000Y-113702500D02*
X174628000Y-115017500D01*
X173799500Y-115971000D02*
X173799500Y-115846000D01*
X173799500Y-115846000D02*
X174628000Y-115017500D01*
X174628000Y-115017500D02*
X174913000Y-115017500D01*
X174913000Y-115017500D02*
X175963000Y-115017500D01*
X186690000Y-114193000D02*
X186690000Y-113794500D01*
X186690000Y-113794500D02*
X185513000Y-112617500D01*
X185513000Y-112617500D02*
X184463000Y-112617500D01*
X186690000Y-114193000D02*
X184487500Y-114193000D01*
X184487500Y-114193000D02*
X184463000Y-114217500D01*
X188658500Y-113601500D02*
X187281500Y-113601500D01*
X187281500Y-113601500D02*
X186690000Y-114193000D01*
X188448000Y-109791500D02*
X188448000Y-113391000D01*
X188448000Y-113391000D02*
X188658500Y-113601500D01*
X188610000Y-107282000D02*
X188610000Y-109629500D01*
X188610000Y-109629500D02*
X188448000Y-109791500D01*
X188610000Y-109185000D02*
X188448000Y-109347000D01*
X188323000Y-109347000D02*
X188448000Y-109347000D01*
X175963000Y-114217500D02*
X177463500Y-114217500D01*
X177425500Y-115817500D02*
X175963000Y-115817500D01*
X177673000Y-115570000D02*
X177425500Y-115817500D01*
X177673000Y-114427000D02*
X177673000Y-115570000D01*
X177463500Y-114217500D02*
X177673000Y-114427000D01*
X184291500Y-115189000D02*
X184463000Y-115017500D01*
X176784000Y-104775000D02*
X172295500Y-104775000D01*
X172295500Y-104775000D02*
X171831000Y-105239500D01*
X185948000Y-109791500D02*
X185948000Y-110637000D01*
X185948000Y-110637000D02*
X186753500Y-111442500D01*
X171704000Y-118471000D02*
X173799500Y-118471000D01*
X171831000Y-105239500D02*
X171831000Y-105364500D01*
X171831000Y-105364500D02*
X170753999Y-106441501D01*
X170753999Y-106441501D02*
X170753999Y-117395999D01*
X170753999Y-117395999D02*
X171704000Y-118346000D01*
X171704000Y-118346000D02*
X171704000Y-118471000D01*
X185676250Y-104836250D02*
X186610000Y-105770000D01*
X185674000Y-104838500D02*
X185676250Y-104836250D01*
X186610000Y-105770000D02*
X186610000Y-107282000D01*
X185948000Y-109791500D02*
X185948000Y-107944000D01*
X185948000Y-107944000D02*
X186610000Y-107282000D01*
X171386500Y-102870000D02*
X171386500Y-104795000D01*
X171386500Y-104795000D02*
X171831000Y-105239500D01*
X185678500Y-104838500D02*
X178610000Y-97770000D01*
X186610000Y-105770000D02*
X185678500Y-104838500D01*
X186610000Y-107282000D02*
X186610000Y-105770000D01*
X178610000Y-97770000D02*
X178610000Y-89794000D01*
X178610000Y-89794000D02*
X178610000Y-88282000D01*
X182610000Y-88282000D02*
X183389000Y-88282000D01*
X183389000Y-88282000D02*
X184422000Y-87249000D01*
X173799500Y-118471000D02*
X173799500Y-118636000D01*
X173799500Y-118636000D02*
X175178500Y-120015000D01*
X175963000Y-115817500D02*
X174913000Y-115817500D01*
X174913000Y-115817500D02*
X174749501Y-115980999D01*
X174749501Y-115980999D02*
X174749501Y-117395999D01*
X174749501Y-117395999D02*
X173799500Y-118346000D01*
X173799500Y-118346000D02*
X173799500Y-118471000D01*
X184463000Y-115017500D02*
X185513000Y-115017500D01*
X185513000Y-115017500D02*
X185815000Y-115319500D01*
X185815000Y-115319500D02*
X185815000Y-115693000D01*
X185815000Y-115693000D02*
X186690000Y-116568000D01*
X186690000Y-116568000D02*
X186690000Y-116693000D01*
X188658500Y-116141500D02*
X187241500Y-116141500D01*
X187241500Y-116141500D02*
X186690000Y-116693000D01*
X175963000Y-116617500D02*
X179292500Y-116617500D01*
X179292500Y-116617500D02*
X179832000Y-116078000D01*
X179832000Y-116078000D02*
X179832000Y-114681000D01*
X176657000Y-109855000D02*
X177169500Y-110367500D01*
X177169500Y-110367500D02*
X177413000Y-110367500D01*
X176022000Y-92710000D02*
X176022000Y-95377000D01*
X177419000Y-91313000D02*
X176022000Y-92710000D01*
X177419000Y-110373500D02*
X177413000Y-110367500D01*
X179813000Y-110367500D02*
X179813000Y-111995000D01*
X175260000Y-88900000D02*
X175260000Y-95631000D01*
X179813000Y-111995000D02*
X179832000Y-112014000D01*
X179832000Y-110386500D02*
X179813000Y-110367500D01*
X179895500Y-110450000D02*
X179813000Y-110367500D01*
X174610000Y-107282000D02*
X174610000Y-106620000D01*
X174610000Y-106620000D02*
X175535001Y-105694999D01*
X175535001Y-105694999D02*
X177470001Y-105694999D01*
X177470001Y-105694999D02*
X177684999Y-105909997D01*
X177684999Y-105909997D02*
X177684999Y-108804001D01*
X177684999Y-108804001D02*
X178123497Y-109242499D01*
X178123497Y-109242499D02*
X181148001Y-109242499D01*
X181148001Y-109242499D02*
X181413000Y-109507498D01*
X181413000Y-109507498D02*
X181413000Y-110367500D01*
X174610000Y-107282000D02*
X174610000Y-107944000D01*
X173990000Y-110871000D02*
X174752000Y-110871000D01*
X174752000Y-110871000D02*
X175641000Y-109982000D01*
X176610000Y-108966000D02*
X176610000Y-109013000D01*
X176610000Y-107282000D02*
X176610000Y-108966000D01*
X176610000Y-109013000D02*
X175641000Y-109982000D01*
X177165000Y-120586500D02*
X177165000Y-119115500D01*
X177165000Y-119115500D02*
X177413000Y-118867500D01*
X176610000Y-107282000D02*
X176610000Y-107944000D01*
X180610000Y-88282000D02*
X180610000Y-86770000D01*
X172756000Y-86423500D02*
X171831000Y-86423500D01*
X180263500Y-86423500D02*
X172756000Y-86423500D01*
X180610000Y-86770000D02*
X180263500Y-86423500D01*
X182689500Y-105283000D02*
X182181500Y-105283000D01*
X175255522Y-97663000D02*
X175255531Y-97663000D01*
X175255522Y-98357022D02*
X175255522Y-97663000D01*
X182181500Y-105283000D02*
X175255522Y-98357022D01*
X183273000Y-105283000D02*
X184610000Y-106620000D01*
X182689500Y-105283000D02*
X183273000Y-105283000D01*
X175255531Y-96569620D02*
X175255531Y-97663000D01*
X172410500Y-89281000D02*
X174625000Y-91495500D01*
X174625000Y-91495500D02*
X174625000Y-95939089D01*
X174625000Y-95939089D02*
X175255531Y-96569620D01*
X171410500Y-89281000D02*
X172410500Y-89281000D01*
X184610000Y-106620000D02*
X184610000Y-107282000D01*
X182245000Y-111823500D02*
X182245000Y-110399500D01*
X182245000Y-110399500D02*
X182213000Y-110367500D01*
X184610000Y-107282000D02*
X184610000Y-109712500D01*
X184610000Y-109712500D02*
X184594500Y-109728000D01*
X174282000Y-100292000D02*
X175412500Y-100292000D01*
X180403500Y-105283000D02*
X180403500Y-107075500D01*
X175412500Y-100292000D02*
X180403500Y-105283000D01*
X180403500Y-107075500D02*
X180610000Y-107282000D01*
X171410500Y-99441000D02*
X173431000Y-99441000D01*
X173431000Y-99441000D02*
X174282000Y-100292000D01*
X180610000Y-106620000D02*
X180610000Y-107282000D01*
X183013000Y-110367500D02*
X183013000Y-109317500D01*
X183013000Y-109317500D02*
X182564501Y-108869001D01*
X182564501Y-108869001D02*
X181535001Y-108869001D01*
X181535001Y-108869001D02*
X180610000Y-107944000D01*
X180610000Y-107944000D02*
X180610000Y-107282000D01*
X171386500Y-96901000D02*
X173609000Y-96901000D01*
X174117000Y-97409000D02*
X174117000Y-99294859D01*
X173609000Y-96901000D02*
X174117000Y-97409000D01*
X171386500Y-96901000D02*
X172386500Y-96901000D01*
X174507341Y-99685200D02*
X175675200Y-99685200D01*
X174117000Y-99294859D02*
X174507341Y-99685200D01*
X175675200Y-99685200D02*
X182610000Y-106620000D01*
X182610000Y-106620000D02*
X182610000Y-107282000D01*
X184463000Y-111292500D02*
X184463000Y-111817500D01*
X183969498Y-110798998D02*
X184463000Y-111292500D01*
X183969498Y-109303498D02*
X183969498Y-110798998D01*
X182610000Y-107944000D02*
X183969498Y-109303498D01*
X182610000Y-107282000D02*
X182610000Y-107944000D01*
X183134000Y-117348000D02*
X180086000Y-117348000D01*
X180086000Y-117348000D02*
X179813000Y-117621000D01*
X180594000Y-114046000D02*
X180594000Y-116840000D01*
X180594000Y-116840000D02*
X179813000Y-117621000D01*
X174805520Y-98630423D02*
X174811031Y-98635934D01*
X174811031Y-98635934D02*
X174811031Y-99060198D01*
X172410500Y-94361000D02*
X174805520Y-96756020D01*
X174805520Y-96756020D02*
X174805520Y-98630423D01*
X179813000Y-117621000D02*
X179813000Y-118867500D01*
X182579000Y-121158000D02*
X183959500Y-121158000D01*
X171410500Y-94361000D02*
X172410500Y-94361000D01*
X179013000Y-120038998D02*
X179013000Y-119917500D01*
X178498500Y-121221500D02*
X178798499Y-120921501D01*
X179013000Y-119917500D02*
X179013000Y-118867500D01*
X178798499Y-120921501D02*
X178798499Y-120253499D01*
X178798499Y-120253499D02*
X179013000Y-120038998D01*
X178213000Y-120373216D02*
X177964224Y-120621992D01*
X178213000Y-118867500D02*
X178213000Y-120373216D01*
X185513000Y-116617500D02*
X184463000Y-116617500D01*
X185588001Y-116692501D02*
X185513000Y-116617500D01*
X185588001Y-117514591D02*
X185588001Y-116692501D01*
X186754910Y-118681500D02*
X185588001Y-117514591D01*
X188658500Y-118681500D02*
X186754910Y-118681500D01*
X188658500Y-121221500D02*
X184854500Y-117417500D01*
X184854500Y-117417500D02*
X184463000Y-117417500D01*
X188722000Y-123761500D02*
X183828000Y-118867500D01*
X183828000Y-118867500D02*
X183013000Y-118867500D01*
X175963000Y-121162500D02*
X175963000Y-117942500D01*
X178562000Y-123761500D02*
X175963000Y-121162500D01*
X175963000Y-117942500D02*
X175963000Y-117417500D01*
X186182000Y-122559419D02*
X186182000Y-123761500D01*
X182478499Y-120182999D02*
X183909503Y-120182999D01*
X182213000Y-119917500D02*
X182478499Y-120182999D01*
X182213000Y-118867500D02*
X182213000Y-119917500D01*
X186182000Y-122455496D02*
X186182000Y-122559419D01*
X183909503Y-120182999D02*
X186182000Y-122455496D01*
X181413000Y-118867500D02*
X181413000Y-121977002D01*
X181413000Y-121977002D02*
X182347499Y-122911501D01*
X182347499Y-122911501D02*
X182792001Y-122911501D01*
X182792001Y-122911501D02*
X183642000Y-123761500D01*
X181102000Y-123761500D02*
X181102000Y-122559419D01*
X181102000Y-122559419D02*
X180954001Y-122411420D01*
X180954001Y-122411420D02*
X180954001Y-120258501D01*
X180954001Y-120258501D02*
X180613000Y-119917500D01*
X180613000Y-119917500D02*
X180613000Y-118867500D01*
X171704000Y-115971000D02*
X171704000Y-113893000D01*
X171704000Y-113893000D02*
X172085000Y-113512000D01*
X172085000Y-113512000D02*
X173235000Y-113512000D01*
X173235000Y-113512000D02*
X174129500Y-112617500D01*
X174913000Y-112617500D02*
X175963000Y-112617500D01*
X174129500Y-112617500D02*
X174913000Y-112617500D01*
X171831000Y-107739500D02*
X171831000Y-110008000D01*
X171831000Y-110008000D02*
X172085000Y-110262000D01*
X173671500Y-111823500D02*
X173677500Y-111817500D01*
X173677500Y-111817500D02*
X175963000Y-111817500D01*
X172085000Y-110262000D02*
X172110000Y-110262000D01*
X172110000Y-110262000D02*
X173671500Y-111823500D01*
X178181000Y-112014000D02*
X178181000Y-110399500D01*
X178181000Y-110399500D02*
X178213000Y-110367500D01*
D24*
G36*
X175163000Y-118339940D02*
X175203000Y-118339940D01*
X175203000Y-121162500D01*
X175260852Y-121453339D01*
X175425599Y-121699901D01*
X175981217Y-122255519D01*
X175453715Y-122360446D01*
X174971946Y-122682353D01*
X174650039Y-123164122D01*
X174537000Y-123732407D01*
X174537000Y-123790593D01*
X174636338Y-124290000D01*
X173311883Y-124290000D01*
X173428004Y-124174082D01*
X173692699Y-123536627D01*
X173693301Y-122846401D01*
X173429719Y-122208485D01*
X172942082Y-121719996D01*
X172304627Y-121455301D01*
X171614401Y-121454699D01*
X170976485Y-121718281D01*
X170710000Y-121984301D01*
X170710000Y-119750026D01*
X170719301Y-119759327D01*
X170952690Y-119856000D01*
X171418250Y-119856000D01*
X171577000Y-119697250D01*
X171577000Y-118598000D01*
X171831000Y-118598000D01*
X171831000Y-119697250D01*
X171989750Y-119856000D01*
X172455310Y-119856000D01*
X172688699Y-119759327D01*
X172751750Y-119696276D01*
X172814801Y-119759327D01*
X173048190Y-119856000D01*
X173513750Y-119856000D01*
X173672500Y-119697250D01*
X173672500Y-118598000D01*
X173926500Y-118598000D01*
X173926500Y-119697250D01*
X174085250Y-119856000D01*
X174550810Y-119856000D01*
X174784199Y-119759327D01*
X174962827Y-119580698D01*
X175059500Y-119347309D01*
X175059500Y-118756750D01*
X174900750Y-118598000D01*
X173926500Y-118598000D01*
X173672500Y-118598000D01*
X171831000Y-118598000D01*
X171577000Y-118598000D01*
X171557000Y-118598000D01*
X171557000Y-118344000D01*
X171577000Y-118344000D01*
X171577000Y-118324000D01*
X171831000Y-118324000D01*
X171831000Y-118344000D01*
X173672500Y-118344000D01*
X173672500Y-118324000D01*
X173926500Y-118324000D01*
X173926500Y-118344000D01*
X174900750Y-118344000D01*
X174948290Y-118296460D01*
X175163000Y-118339940D01*
X175163000Y-118339940D01*
G37*
X175163000Y-118339940D02*
X175203000Y-118339940D01*
X175203000Y-121162500D01*
X175260852Y-121453339D01*
X175425599Y-121699901D01*
X175981217Y-122255519D01*
X175453715Y-122360446D01*
X174971946Y-122682353D01*
X174650039Y-123164122D01*
X174537000Y-123732407D01*
X174537000Y-123790593D01*
X174636338Y-124290000D01*
X173311883Y-124290000D01*
X173428004Y-124174082D01*
X173692699Y-123536627D01*
X173693301Y-122846401D01*
X173429719Y-122208485D01*
X172942082Y-121719996D01*
X172304627Y-121455301D01*
X171614401Y-121454699D01*
X170976485Y-121718281D01*
X170710000Y-121984301D01*
X170710000Y-119750026D01*
X170719301Y-119759327D01*
X170952690Y-119856000D01*
X171418250Y-119856000D01*
X171577000Y-119697250D01*
X171577000Y-118598000D01*
X171831000Y-118598000D01*
X171831000Y-119697250D01*
X171989750Y-119856000D01*
X172455310Y-119856000D01*
X172688699Y-119759327D01*
X172751750Y-119696276D01*
X172814801Y-119759327D01*
X173048190Y-119856000D01*
X173513750Y-119856000D01*
X173672500Y-119697250D01*
X173672500Y-118598000D01*
X173926500Y-118598000D01*
X173926500Y-119697250D01*
X174085250Y-119856000D01*
X174550810Y-119856000D01*
X174784199Y-119759327D01*
X174962827Y-119580698D01*
X175059500Y-119347309D01*
X175059500Y-118756750D01*
X174900750Y-118598000D01*
X173926500Y-118598000D01*
X173672500Y-118598000D01*
X171831000Y-118598000D01*
X171577000Y-118598000D01*
X171557000Y-118598000D01*
X171557000Y-118344000D01*
X171577000Y-118344000D01*
X171577000Y-118324000D01*
X171831000Y-118324000D01*
X171831000Y-118344000D01*
X173672500Y-118344000D01*
X173672500Y-118324000D01*
X173926500Y-118324000D01*
X173926500Y-118344000D01*
X174900750Y-118344000D01*
X174948290Y-118296460D01*
X175163000Y-118339940D01*
G36*
X186817000Y-116566000D02*
X186837000Y-116566000D01*
X186837000Y-116820000D01*
X186817000Y-116820000D01*
X186817000Y-116840000D01*
X186563000Y-116840000D01*
X186563000Y-116820000D01*
X186543000Y-116820000D01*
X186543000Y-116566000D01*
X186563000Y-116566000D01*
X186563000Y-116546000D01*
X186817000Y-116546000D01*
X186817000Y-116566000D01*
X186817000Y-116566000D01*
G37*
X186817000Y-116566000D02*
X186837000Y-116566000D01*
X186837000Y-116820000D01*
X186817000Y-116820000D01*
X186817000Y-116840000D01*
X186563000Y-116840000D01*
X186563000Y-116820000D01*
X186543000Y-116820000D01*
X186543000Y-116566000D01*
X186563000Y-116566000D01*
X186563000Y-116546000D01*
X186817000Y-116546000D01*
X186817000Y-116566000D01*
G36*
X181138000Y-111814940D02*
X181310007Y-111814940D01*
X181309838Y-112008667D01*
X181451883Y-112352443D01*
X181714673Y-112615692D01*
X182058201Y-112758338D01*
X182430167Y-112758662D01*
X182773943Y-112616617D01*
X183015560Y-112375421D01*
X183015560Y-112892500D01*
X183039944Y-113022089D01*
X183015560Y-113142500D01*
X183015560Y-113238007D01*
X182821833Y-113237838D01*
X182478057Y-113379883D01*
X182214808Y-113642673D01*
X182072162Y-113986201D01*
X182071838Y-114358167D01*
X182213883Y-114701943D01*
X182476673Y-114965192D01*
X182820201Y-115107838D01*
X183028000Y-115108019D01*
X183028000Y-115144502D01*
X183166400Y-115144502D01*
X183122505Y-115208745D01*
X183028000Y-115303250D01*
X183028000Y-115418810D01*
X183036468Y-115439253D01*
X183015560Y-115542500D01*
X183015560Y-116092500D01*
X183039944Y-116222089D01*
X183015560Y-116342500D01*
X183015560Y-116412896D01*
X182948833Y-116412838D01*
X182605057Y-116554883D01*
X182571882Y-116588000D01*
X181354000Y-116588000D01*
X181354000Y-114608463D01*
X181386192Y-114576327D01*
X181528838Y-114232799D01*
X181529162Y-113860833D01*
X181387117Y-113517057D01*
X181124327Y-113253808D01*
X180780799Y-113111162D01*
X180408833Y-113110838D01*
X180065057Y-113252883D01*
X179801808Y-113515673D01*
X179706213Y-113745890D01*
X179646833Y-113745838D01*
X179303057Y-113887883D01*
X179039808Y-114150673D01*
X178897162Y-114494201D01*
X178896838Y-114866167D01*
X179038883Y-115209943D01*
X179072000Y-115243118D01*
X179072000Y-115763198D01*
X178977698Y-115857500D01*
X177177975Y-115857500D01*
X177119603Y-115817616D01*
X177214441Y-115756590D01*
X177303495Y-115626255D01*
X177398000Y-115531750D01*
X177398000Y-115416190D01*
X177389532Y-115395747D01*
X177410440Y-115292500D01*
X177410440Y-114742500D01*
X177390550Y-114636795D01*
X177398000Y-114618810D01*
X177398000Y-114503250D01*
X177301599Y-114406849D01*
X177261480Y-114344502D01*
X177398000Y-114344502D01*
X177398000Y-114256478D01*
X177613201Y-114345838D01*
X177985167Y-114346162D01*
X178328943Y-114204117D01*
X178592192Y-113941327D01*
X178734838Y-113597799D01*
X178735162Y-113225833D01*
X178593117Y-112882057D01*
X178574269Y-112863176D01*
X178709943Y-112807117D01*
X178973192Y-112544327D01*
X179006405Y-112464341D01*
X179038883Y-112542943D01*
X179301673Y-112806192D01*
X179645201Y-112948838D01*
X180017167Y-112949162D01*
X180360943Y-112807117D01*
X180624192Y-112544327D01*
X180766838Y-112200799D01*
X180767162Y-111828833D01*
X180761422Y-111814940D01*
X180888000Y-111814940D01*
X181017589Y-111790556D01*
X181138000Y-111814940D01*
X181138000Y-111814940D01*
G37*
X181138000Y-111814940D02*
X181310007Y-111814940D01*
X181309838Y-112008667D01*
X181451883Y-112352443D01*
X181714673Y-112615692D01*
X182058201Y-112758338D01*
X182430167Y-112758662D01*
X182773943Y-112616617D01*
X183015560Y-112375421D01*
X183015560Y-112892500D01*
X183039944Y-113022089D01*
X183015560Y-113142500D01*
X183015560Y-113238007D01*
X182821833Y-113237838D01*
X182478057Y-113379883D01*
X182214808Y-113642673D01*
X182072162Y-113986201D01*
X182071838Y-114358167D01*
X182213883Y-114701943D01*
X182476673Y-114965192D01*
X182820201Y-115107838D01*
X183028000Y-115108019D01*
X183028000Y-115144502D01*
X183166400Y-115144502D01*
X183122505Y-115208745D01*
X183028000Y-115303250D01*
X183028000Y-115418810D01*
X183036468Y-115439253D01*
X183015560Y-115542500D01*
X183015560Y-116092500D01*
X183039944Y-116222089D01*
X183015560Y-116342500D01*
X183015560Y-116412896D01*
X182948833Y-116412838D01*
X182605057Y-116554883D01*
X182571882Y-116588000D01*
X181354000Y-116588000D01*
X181354000Y-114608463D01*
X181386192Y-114576327D01*
X181528838Y-114232799D01*
X181529162Y-113860833D01*
X181387117Y-113517057D01*
X181124327Y-113253808D01*
X180780799Y-113111162D01*
X180408833Y-113110838D01*
X180065057Y-113252883D01*
X179801808Y-113515673D01*
X179706213Y-113745890D01*
X179646833Y-113745838D01*
X179303057Y-113887883D01*
X179039808Y-114150673D01*
X178897162Y-114494201D01*
X178896838Y-114866167D01*
X179038883Y-115209943D01*
X179072000Y-115243118D01*
X179072000Y-115763198D01*
X178977698Y-115857500D01*
X177177975Y-115857500D01*
X177119603Y-115817616D01*
X177214441Y-115756590D01*
X177303495Y-115626255D01*
X177398000Y-115531750D01*
X177398000Y-115416190D01*
X177389532Y-115395747D01*
X177410440Y-115292500D01*
X177410440Y-114742500D01*
X177390550Y-114636795D01*
X177398000Y-114618810D01*
X177398000Y-114503250D01*
X177301599Y-114406849D01*
X177261480Y-114344502D01*
X177398000Y-114344502D01*
X177398000Y-114256478D01*
X177613201Y-114345838D01*
X177985167Y-114346162D01*
X178328943Y-114204117D01*
X178592192Y-113941327D01*
X178734838Y-113597799D01*
X178735162Y-113225833D01*
X178593117Y-112882057D01*
X178574269Y-112863176D01*
X178709943Y-112807117D01*
X178973192Y-112544327D01*
X179006405Y-112464341D01*
X179038883Y-112542943D01*
X179301673Y-112806192D01*
X179645201Y-112948838D01*
X180017167Y-112949162D01*
X180360943Y-112807117D01*
X180624192Y-112544327D01*
X180766838Y-112200799D01*
X180767162Y-111828833D01*
X180761422Y-111814940D01*
X180888000Y-111814940D01*
X181017589Y-111790556D01*
X181138000Y-111814940D01*
G36*
X188785500Y-116014500D02*
X188805500Y-116014500D01*
X188805500Y-116268500D01*
X188785500Y-116268500D01*
X188785500Y-116288500D01*
X188531500Y-116288500D01*
X188531500Y-116268500D01*
X188511500Y-116268500D01*
X188511500Y-116014500D01*
X188531500Y-116014500D01*
X188531500Y-115994500D01*
X188785500Y-115994500D01*
X188785500Y-116014500D01*
X188785500Y-116014500D01*
G37*
X188785500Y-116014500D02*
X188805500Y-116014500D01*
X188805500Y-116268500D01*
X188785500Y-116268500D01*
X188785500Y-116288500D01*
X188531500Y-116288500D01*
X188531500Y-116268500D01*
X188511500Y-116268500D01*
X188511500Y-116014500D01*
X188531500Y-116014500D01*
X188531500Y-115994500D01*
X188785500Y-115994500D01*
X188785500Y-116014500D01*
G36*
X186075000Y-109664500D02*
X186095000Y-109664500D01*
X186095000Y-109918500D01*
X186075000Y-109918500D01*
X186075000Y-110892750D01*
X186233750Y-111051500D01*
X186824309Y-111051500D01*
X187057698Y-110954827D01*
X187198936Y-110813590D01*
X187233910Y-110867941D01*
X187446110Y-111012931D01*
X187688000Y-111061915D01*
X187688000Y-112472031D01*
X187400312Y-112759217D01*
X187379774Y-112808677D01*
X187315000Y-112795560D01*
X186765862Y-112795560D01*
X186050401Y-112080099D01*
X185910440Y-111986580D01*
X185910440Y-111542500D01*
X185866162Y-111307183D01*
X185727090Y-111091059D01*
X185665068Y-111048682D01*
X185821000Y-110892750D01*
X185821000Y-109918500D01*
X185801000Y-109918500D01*
X185801000Y-109664500D01*
X185821000Y-109664500D01*
X185821000Y-109644500D01*
X186075000Y-109644500D01*
X186075000Y-109664500D01*
X186075000Y-109664500D01*
G37*
X186075000Y-109664500D02*
X186095000Y-109664500D01*
X186095000Y-109918500D01*
X186075000Y-109918500D01*
X186075000Y-110892750D01*
X186233750Y-111051500D01*
X186824309Y-111051500D01*
X187057698Y-110954827D01*
X187198936Y-110813590D01*
X187233910Y-110867941D01*
X187446110Y-111012931D01*
X187688000Y-111061915D01*
X187688000Y-112472031D01*
X187400312Y-112759217D01*
X187379774Y-112808677D01*
X187315000Y-112795560D01*
X186765862Y-112795560D01*
X186050401Y-112080099D01*
X185910440Y-111986580D01*
X185910440Y-111542500D01*
X185866162Y-111307183D01*
X185727090Y-111091059D01*
X185665068Y-111048682D01*
X185821000Y-110892750D01*
X185821000Y-109918500D01*
X185801000Y-109918500D01*
X185801000Y-109664500D01*
X185821000Y-109664500D01*
X185821000Y-109644500D01*
X186075000Y-109644500D01*
X186075000Y-109664500D01*
G36*
X173744599Y-100829401D02*
X173991161Y-100994148D01*
X174282000Y-101052000D01*
X175097698Y-101052000D01*
X179485181Y-105439483D01*
X179461890Y-105423569D01*
X179210000Y-105372560D01*
X178222364Y-105372560D01*
X178007402Y-105157598D01*
X177760840Y-104992851D01*
X177470001Y-104934999D01*
X175535001Y-104934999D01*
X175244162Y-104992851D01*
X174997600Y-105157598D01*
X174782638Y-105372560D01*
X174010000Y-105372560D01*
X173774683Y-105416838D01*
X173558559Y-105555910D01*
X173413569Y-105768110D01*
X173362560Y-106020000D01*
X173362560Y-108544000D01*
X173406838Y-108779317D01*
X173545910Y-108995441D01*
X173758110Y-109140431D01*
X174010000Y-109191440D01*
X175210000Y-109191440D01*
X175390773Y-109157425D01*
X174484335Y-110063863D01*
X174176799Y-109936162D01*
X173804833Y-109935838D01*
X173632440Y-110007069D01*
X173632440Y-109387000D01*
X173588162Y-109151683D01*
X173449090Y-108935559D01*
X173236890Y-108790569D01*
X173045333Y-108751778D01*
X173052431Y-108741390D01*
X173103440Y-108489500D01*
X173103440Y-106989500D01*
X173059162Y-106754183D01*
X172920090Y-106538059D01*
X172851994Y-106491531D01*
X172994327Y-106349198D01*
X173091000Y-106115809D01*
X173091000Y-105525250D01*
X172932250Y-105366500D01*
X171958000Y-105366500D01*
X171958000Y-105386500D01*
X171704000Y-105386500D01*
X171704000Y-105366500D01*
X171684000Y-105366500D01*
X171684000Y-105112500D01*
X171704000Y-105112500D01*
X171704000Y-104013250D01*
X171958000Y-104013250D01*
X171958000Y-105112500D01*
X172932250Y-105112500D01*
X173091000Y-104953750D01*
X173091000Y-104363191D01*
X172994327Y-104129802D01*
X172815699Y-103951173D01*
X172582310Y-103854500D01*
X172116750Y-103854500D01*
X171958000Y-104013250D01*
X171704000Y-104013250D01*
X171545250Y-103854500D01*
X171079690Y-103854500D01*
X170846301Y-103951173D01*
X170710000Y-104087475D01*
X170710000Y-100938440D01*
X172910500Y-100938440D01*
X173145817Y-100894162D01*
X173361941Y-100755090D01*
X173487105Y-100571907D01*
X173744599Y-100829401D01*
X173744599Y-100829401D01*
G37*
X173744599Y-100829401D02*
X173991161Y-100994148D01*
X174282000Y-101052000D01*
X175097698Y-101052000D01*
X179485181Y-105439483D01*
X179461890Y-105423569D01*
X179210000Y-105372560D01*
X178222364Y-105372560D01*
X178007402Y-105157598D01*
X177760840Y-104992851D01*
X177470001Y-104934999D01*
X175535001Y-104934999D01*
X175244162Y-104992851D01*
X174997600Y-105157598D01*
X174782638Y-105372560D01*
X174010000Y-105372560D01*
X173774683Y-105416838D01*
X173558559Y-105555910D01*
X173413569Y-105768110D01*
X173362560Y-106020000D01*
X173362560Y-108544000D01*
X173406838Y-108779317D01*
X173545910Y-108995441D01*
X173758110Y-109140431D01*
X174010000Y-109191440D01*
X175210000Y-109191440D01*
X175390773Y-109157425D01*
X174484335Y-110063863D01*
X174176799Y-109936162D01*
X173804833Y-109935838D01*
X173632440Y-110007069D01*
X173632440Y-109387000D01*
X173588162Y-109151683D01*
X173449090Y-108935559D01*
X173236890Y-108790569D01*
X173045333Y-108751778D01*
X173052431Y-108741390D01*
X173103440Y-108489500D01*
X173103440Y-106989500D01*
X173059162Y-106754183D01*
X172920090Y-106538059D01*
X172851994Y-106491531D01*
X172994327Y-106349198D01*
X173091000Y-106115809D01*
X173091000Y-105525250D01*
X172932250Y-105366500D01*
X171958000Y-105366500D01*
X171958000Y-105386500D01*
X171704000Y-105386500D01*
X171704000Y-105366500D01*
X171684000Y-105366500D01*
X171684000Y-105112500D01*
X171704000Y-105112500D01*
X171704000Y-104013250D01*
X171958000Y-104013250D01*
X171958000Y-105112500D01*
X172932250Y-105112500D01*
X173091000Y-104953750D01*
X173091000Y-104363191D01*
X172994327Y-104129802D01*
X172815699Y-103951173D01*
X172582310Y-103854500D01*
X172116750Y-103854500D01*
X171958000Y-104013250D01*
X171704000Y-104013250D01*
X171545250Y-103854500D01*
X171079690Y-103854500D01*
X170846301Y-103951173D01*
X170710000Y-104087475D01*
X170710000Y-100938440D01*
X172910500Y-100938440D01*
X173145817Y-100894162D01*
X173361941Y-100755090D01*
X173487105Y-100571907D01*
X173744599Y-100829401D01*
G36*
X186616996Y-85756918D02*
X186352301Y-86394373D01*
X186351699Y-87084599D01*
X186615281Y-87722515D01*
X187102918Y-88211004D01*
X187740373Y-88475699D01*
X188430599Y-88476301D01*
X189068515Y-88212719D01*
X189290000Y-87991620D01*
X189290000Y-101474198D01*
X180894122Y-93078320D01*
X180894162Y-93032833D01*
X180752117Y-92689057D01*
X180489327Y-92425808D01*
X180145799Y-92283162D01*
X179773833Y-92282838D01*
X179430057Y-92424883D01*
X179166808Y-92687673D01*
X179024162Y-93031201D01*
X179023838Y-93403167D01*
X179165883Y-93746943D01*
X179428673Y-94010192D01*
X179772201Y-94152838D01*
X179819077Y-94152879D01*
X188470000Y-102803802D01*
X188470000Y-105372560D01*
X188010000Y-105372560D01*
X187774683Y-105416838D01*
X187610507Y-105522482D01*
X187569698Y-105481673D01*
X187336309Y-105385000D01*
X186895750Y-105385000D01*
X186737000Y-105543750D01*
X186737000Y-107155000D01*
X186757000Y-107155000D01*
X186757000Y-107409000D01*
X186737000Y-107409000D01*
X186737000Y-107429000D01*
X186483000Y-107429000D01*
X186483000Y-107409000D01*
X186463000Y-107409000D01*
X186463000Y-107155000D01*
X186483000Y-107155000D01*
X186483000Y-105543750D01*
X186324250Y-105385000D01*
X185883691Y-105385000D01*
X185650302Y-105481673D01*
X185608340Y-105523634D01*
X185461890Y-105423569D01*
X185210000Y-105372560D01*
X184437362Y-105372560D01*
X183810401Y-104745599D01*
X183563839Y-104580852D01*
X183273000Y-104523000D01*
X182496302Y-104523000D01*
X176015522Y-98042220D01*
X176015522Y-97663045D01*
X176015531Y-97663000D01*
X176015531Y-96569620D01*
X175964277Y-96311950D01*
X176207167Y-96312162D01*
X176550943Y-96170117D01*
X176814192Y-95907327D01*
X176956838Y-95563799D01*
X176957162Y-95191833D01*
X176815117Y-94848057D01*
X176782000Y-94814882D01*
X176782000Y-93024802D01*
X177558680Y-92248122D01*
X177604167Y-92248162D01*
X177947943Y-92106117D01*
X178211192Y-91843327D01*
X178353838Y-91499799D01*
X178354162Y-91127833D01*
X178212117Y-90784057D01*
X177949327Y-90520808D01*
X177605799Y-90378162D01*
X177233833Y-90377838D01*
X176890057Y-90519883D01*
X176626808Y-90782673D01*
X176484162Y-91126201D01*
X176484121Y-91173077D01*
X176020000Y-91637198D01*
X176020000Y-89462463D01*
X176052192Y-89430327D01*
X176194838Y-89086799D01*
X176195162Y-88714833D01*
X176134389Y-88567750D01*
X177375000Y-88567750D01*
X177375000Y-89670310D01*
X177471673Y-89903699D01*
X177650302Y-90082327D01*
X177883691Y-90179000D01*
X178324250Y-90179000D01*
X178483000Y-90020250D01*
X178483000Y-88409000D01*
X177533750Y-88409000D01*
X177375000Y-88567750D01*
X176134389Y-88567750D01*
X176053117Y-88371057D01*
X175790327Y-88107808D01*
X175446799Y-87965162D01*
X175074833Y-87964838D01*
X174731057Y-88106883D01*
X174467808Y-88369673D01*
X174325162Y-88713201D01*
X174324838Y-89085167D01*
X174466883Y-89428943D01*
X174500000Y-89462118D01*
X174500000Y-90295698D01*
X173557940Y-89353638D01*
X173557940Y-88431000D01*
X173513662Y-88195683D01*
X173374590Y-87979559D01*
X173162390Y-87834569D01*
X172910500Y-87783560D01*
X170710000Y-87783560D01*
X170710000Y-87562301D01*
X170904110Y-87694931D01*
X171156000Y-87745940D01*
X172506000Y-87745940D01*
X172741317Y-87701662D01*
X172957441Y-87562590D01*
X173102431Y-87350390D01*
X173136227Y-87183500D01*
X177375000Y-87183500D01*
X177375000Y-87996250D01*
X177533750Y-88155000D01*
X178483000Y-88155000D01*
X178483000Y-88135000D01*
X178737000Y-88135000D01*
X178737000Y-88155000D01*
X178757000Y-88155000D01*
X178757000Y-88409000D01*
X178737000Y-88409000D01*
X178737000Y-90020250D01*
X178895750Y-90179000D01*
X179336309Y-90179000D01*
X179569698Y-90082327D01*
X179611660Y-90040366D01*
X179758110Y-90140431D01*
X180010000Y-90191440D01*
X181210000Y-90191440D01*
X181445317Y-90147162D01*
X181609493Y-90041518D01*
X181650302Y-90082327D01*
X181883691Y-90179000D01*
X182324250Y-90179000D01*
X182483000Y-90020250D01*
X182483000Y-88409000D01*
X182737000Y-88409000D01*
X182737000Y-90020250D01*
X182895750Y-90179000D01*
X183336309Y-90179000D01*
X183569698Y-90082327D01*
X183748327Y-89903699D01*
X183845000Y-89670310D01*
X183845000Y-88567750D01*
X183686250Y-88409000D01*
X182737000Y-88409000D01*
X182483000Y-88409000D01*
X182463000Y-88409000D01*
X182463000Y-88155000D01*
X182483000Y-88155000D01*
X182483000Y-86543750D01*
X182737000Y-86543750D01*
X182737000Y-88155000D01*
X183686250Y-88155000D01*
X183845000Y-87996250D01*
X183845000Y-86893690D01*
X183748327Y-86660301D01*
X183569698Y-86481673D01*
X183336309Y-86385000D01*
X182895750Y-86385000D01*
X182737000Y-86543750D01*
X182483000Y-86543750D01*
X182324250Y-86385000D01*
X181883691Y-86385000D01*
X181650302Y-86481673D01*
X181608340Y-86523634D01*
X181461890Y-86423569D01*
X181245758Y-86379801D01*
X181147401Y-86232599D01*
X180800901Y-85886099D01*
X180554339Y-85721352D01*
X180497269Y-85710000D01*
X186663996Y-85710000D01*
X186616996Y-85756918D01*
X186616996Y-85756918D01*
G37*
X186616996Y-85756918D02*
X186352301Y-86394373D01*
X186351699Y-87084599D01*
X186615281Y-87722515D01*
X187102918Y-88211004D01*
X187740373Y-88475699D01*
X188430599Y-88476301D01*
X189068515Y-88212719D01*
X189290000Y-87991620D01*
X189290000Y-101474198D01*
X180894122Y-93078320D01*
X180894162Y-93032833D01*
X180752117Y-92689057D01*
X180489327Y-92425808D01*
X180145799Y-92283162D01*
X179773833Y-92282838D01*
X179430057Y-92424883D01*
X179166808Y-92687673D01*
X179024162Y-93031201D01*
X179023838Y-93403167D01*
X179165883Y-93746943D01*
X179428673Y-94010192D01*
X179772201Y-94152838D01*
X179819077Y-94152879D01*
X188470000Y-102803802D01*
X188470000Y-105372560D01*
X188010000Y-105372560D01*
X187774683Y-105416838D01*
X187610507Y-105522482D01*
X187569698Y-105481673D01*
X187336309Y-105385000D01*
X186895750Y-105385000D01*
X186737000Y-105543750D01*
X186737000Y-107155000D01*
X186757000Y-107155000D01*
X186757000Y-107409000D01*
X186737000Y-107409000D01*
X186737000Y-107429000D01*
X186483000Y-107429000D01*
X186483000Y-107409000D01*
X186463000Y-107409000D01*
X186463000Y-107155000D01*
X186483000Y-107155000D01*
X186483000Y-105543750D01*
X186324250Y-105385000D01*
X185883691Y-105385000D01*
X185650302Y-105481673D01*
X185608340Y-105523634D01*
X185461890Y-105423569D01*
X185210000Y-105372560D01*
X184437362Y-105372560D01*
X183810401Y-104745599D01*
X183563839Y-104580852D01*
X183273000Y-104523000D01*
X182496302Y-104523000D01*
X176015522Y-98042220D01*
X176015522Y-97663045D01*
X176015531Y-97663000D01*
X176015531Y-96569620D01*
X175964277Y-96311950D01*
X176207167Y-96312162D01*
X176550943Y-96170117D01*
X176814192Y-95907327D01*
X176956838Y-95563799D01*
X176957162Y-95191833D01*
X176815117Y-94848057D01*
X176782000Y-94814882D01*
X176782000Y-93024802D01*
X177558680Y-92248122D01*
X177604167Y-92248162D01*
X177947943Y-92106117D01*
X178211192Y-91843327D01*
X178353838Y-91499799D01*
X178354162Y-91127833D01*
X178212117Y-90784057D01*
X177949327Y-90520808D01*
X177605799Y-90378162D01*
X177233833Y-90377838D01*
X176890057Y-90519883D01*
X176626808Y-90782673D01*
X176484162Y-91126201D01*
X176484121Y-91173077D01*
X176020000Y-91637198D01*
X176020000Y-89462463D01*
X176052192Y-89430327D01*
X176194838Y-89086799D01*
X176195162Y-88714833D01*
X176134389Y-88567750D01*
X177375000Y-88567750D01*
X177375000Y-89670310D01*
X177471673Y-89903699D01*
X177650302Y-90082327D01*
X177883691Y-90179000D01*
X178324250Y-90179000D01*
X178483000Y-90020250D01*
X178483000Y-88409000D01*
X177533750Y-88409000D01*
X177375000Y-88567750D01*
X176134389Y-88567750D01*
X176053117Y-88371057D01*
X175790327Y-88107808D01*
X175446799Y-87965162D01*
X175074833Y-87964838D01*
X174731057Y-88106883D01*
X174467808Y-88369673D01*
X174325162Y-88713201D01*
X174324838Y-89085167D01*
X174466883Y-89428943D01*
X174500000Y-89462118D01*
X174500000Y-90295698D01*
X173557940Y-89353638D01*
X173557940Y-88431000D01*
X173513662Y-88195683D01*
X173374590Y-87979559D01*
X173162390Y-87834569D01*
X172910500Y-87783560D01*
X170710000Y-87783560D01*
X170710000Y-87562301D01*
X170904110Y-87694931D01*
X171156000Y-87745940D01*
X172506000Y-87745940D01*
X172741317Y-87701662D01*
X172957441Y-87562590D01*
X173102431Y-87350390D01*
X173136227Y-87183500D01*
X177375000Y-87183500D01*
X177375000Y-87996250D01*
X177533750Y-88155000D01*
X178483000Y-88155000D01*
X178483000Y-88135000D01*
X178737000Y-88135000D01*
X178737000Y-88155000D01*
X178757000Y-88155000D01*
X178757000Y-88409000D01*
X178737000Y-88409000D01*
X178737000Y-90020250D01*
X178895750Y-90179000D01*
X179336309Y-90179000D01*
X179569698Y-90082327D01*
X179611660Y-90040366D01*
X179758110Y-90140431D01*
X180010000Y-90191440D01*
X181210000Y-90191440D01*
X181445317Y-90147162D01*
X181609493Y-90041518D01*
X181650302Y-90082327D01*
X181883691Y-90179000D01*
X182324250Y-90179000D01*
X182483000Y-90020250D01*
X182483000Y-88409000D01*
X182737000Y-88409000D01*
X182737000Y-90020250D01*
X182895750Y-90179000D01*
X183336309Y-90179000D01*
X183569698Y-90082327D01*
X183748327Y-89903699D01*
X183845000Y-89670310D01*
X183845000Y-88567750D01*
X183686250Y-88409000D01*
X182737000Y-88409000D01*
X182483000Y-88409000D01*
X182463000Y-88409000D01*
X182463000Y-88155000D01*
X182483000Y-88155000D01*
X182483000Y-86543750D01*
X182737000Y-86543750D01*
X182737000Y-88155000D01*
X183686250Y-88155000D01*
X183845000Y-87996250D01*
X183845000Y-86893690D01*
X183748327Y-86660301D01*
X183569698Y-86481673D01*
X183336309Y-86385000D01*
X182895750Y-86385000D01*
X182737000Y-86543750D01*
X182483000Y-86543750D01*
X182324250Y-86385000D01*
X181883691Y-86385000D01*
X181650302Y-86481673D01*
X181608340Y-86523634D01*
X181461890Y-86423569D01*
X181245758Y-86379801D01*
X181147401Y-86232599D01*
X180800901Y-85886099D01*
X180554339Y-85721352D01*
X180497269Y-85710000D01*
X186663996Y-85710000D01*
X186616996Y-85756918D01*
G36*
X170808910Y-106490436D02*
X170754559Y-106525410D01*
X170710000Y-106590624D01*
X170710000Y-106391525D01*
X170808910Y-106490436D01*
X170808910Y-106490436D01*
G37*
X170808910Y-106490436D02*
X170754559Y-106525410D01*
X170710000Y-106590624D01*
X170710000Y-106391525D01*
X170808910Y-106490436D01*
M02*
