G04 #@! TF.FileFunction,Legend,Bot*
%FSLAX46Y46*%
G04 Gerber Fmt 4.6, Leading zero omitted, Abs format (unit mm)*
G04 Created by KiCad (PCBNEW 4.0.2-stable) date 29.05.2017 13:31:58*
%MOMM*%
G01*
G04 APERTURE LIST*
%ADD10C,0.100000*%
%ADD11C,0.150000*%
%ADD12C,0.120000*%
G04 APERTURE END LIST*
D10*
D11*
X172426190Y-101988881D02*
X172426190Y-100988881D01*
X171997619Y-101941262D02*
X171854762Y-101988881D01*
X171616666Y-101988881D01*
X171521428Y-101941262D01*
X171473809Y-101893643D01*
X171426190Y-101798405D01*
X171426190Y-101703167D01*
X171473809Y-101607929D01*
X171521428Y-101560310D01*
X171616666Y-101512690D01*
X171807143Y-101465071D01*
X171902381Y-101417452D01*
X171950000Y-101369833D01*
X171997619Y-101274595D01*
X171997619Y-101179357D01*
X171950000Y-101084119D01*
X171902381Y-101036500D01*
X171807143Y-100988881D01*
X171569047Y-100988881D01*
X171426190Y-101036500D01*
X170997619Y-101988881D02*
X170997619Y-100988881D01*
X170616666Y-100988881D01*
X170521428Y-101036500D01*
X170473809Y-101084119D01*
X170426190Y-101179357D01*
X170426190Y-101322214D01*
X170473809Y-101417452D01*
X170521428Y-101465071D01*
X170616666Y-101512690D01*
X170997619Y-101512690D01*
D10*
X174902714Y-99667190D02*
X174902714Y-99167190D01*
X174736048Y-99524333D01*
X174569381Y-99167190D01*
X174569381Y-99667190D01*
X174331285Y-99667190D02*
X174331285Y-99167190D01*
X174117000Y-99643381D02*
X174045571Y-99667190D01*
X173926524Y-99667190D01*
X173878905Y-99643381D01*
X173855095Y-99619571D01*
X173831286Y-99571952D01*
X173831286Y-99524333D01*
X173855095Y-99476714D01*
X173878905Y-99452905D01*
X173926524Y-99429095D01*
X174021762Y-99405286D01*
X174069381Y-99381476D01*
X174093190Y-99357667D01*
X174117000Y-99310048D01*
X174117000Y-99262429D01*
X174093190Y-99214810D01*
X174069381Y-99191000D01*
X174021762Y-99167190D01*
X173902714Y-99167190D01*
X173831286Y-99191000D01*
X173521762Y-99167190D02*
X173426524Y-99167190D01*
X173378905Y-99191000D01*
X173331286Y-99238619D01*
X173307477Y-99333857D01*
X173307477Y-99500524D01*
X173331286Y-99595762D01*
X173378905Y-99643381D01*
X173426524Y-99667190D01*
X173521762Y-99667190D01*
X173569381Y-99643381D01*
X173617000Y-99595762D01*
X173640810Y-99500524D01*
X173640810Y-99333857D01*
X173617000Y-99238619D01*
X173569381Y-99191000D01*
X173521762Y-99167190D01*
X174632857Y-97103381D02*
X174561428Y-97127190D01*
X174442381Y-97127190D01*
X174394762Y-97103381D01*
X174370952Y-97079571D01*
X174347143Y-97031952D01*
X174347143Y-96984333D01*
X174370952Y-96936714D01*
X174394762Y-96912905D01*
X174442381Y-96889095D01*
X174537619Y-96865286D01*
X174585238Y-96841476D01*
X174609047Y-96817667D01*
X174632857Y-96770048D01*
X174632857Y-96722429D01*
X174609047Y-96674810D01*
X174585238Y-96651000D01*
X174537619Y-96627190D01*
X174418571Y-96627190D01*
X174347143Y-96651000D01*
X173847143Y-97079571D02*
X173870953Y-97103381D01*
X173942381Y-97127190D01*
X173990000Y-97127190D01*
X174061429Y-97103381D01*
X174109048Y-97055762D01*
X174132857Y-97008143D01*
X174156667Y-96912905D01*
X174156667Y-96841476D01*
X174132857Y-96746238D01*
X174109048Y-96698619D01*
X174061429Y-96651000D01*
X173990000Y-96627190D01*
X173942381Y-96627190D01*
X173870953Y-96651000D01*
X173847143Y-96674810D01*
X173632857Y-97127190D02*
X173632857Y-96627190D01*
X173347143Y-97127190D02*
X173561429Y-96841476D01*
X173347143Y-96627190D02*
X173632857Y-96912905D01*
X175224190Y-94587190D02*
X175390857Y-94349095D01*
X175509904Y-94587190D02*
X175509904Y-94087190D01*
X175319428Y-94087190D01*
X175271809Y-94111000D01*
X175248000Y-94134810D01*
X175224190Y-94182429D01*
X175224190Y-94253857D01*
X175248000Y-94301476D01*
X175271809Y-94325286D01*
X175319428Y-94349095D01*
X175509904Y-94349095D01*
X175009904Y-94325286D02*
X174843238Y-94325286D01*
X174771809Y-94587190D02*
X175009904Y-94587190D01*
X175009904Y-94087190D01*
X174771809Y-94087190D01*
X174581333Y-94563381D02*
X174509904Y-94587190D01*
X174390857Y-94587190D01*
X174343238Y-94563381D01*
X174319428Y-94539571D01*
X174295619Y-94491952D01*
X174295619Y-94444333D01*
X174319428Y-94396714D01*
X174343238Y-94372905D01*
X174390857Y-94349095D01*
X174486095Y-94325286D01*
X174533714Y-94301476D01*
X174557523Y-94277667D01*
X174581333Y-94230048D01*
X174581333Y-94182429D01*
X174557523Y-94134810D01*
X174533714Y-94111000D01*
X174486095Y-94087190D01*
X174367047Y-94087190D01*
X174295619Y-94111000D01*
X174081333Y-94325286D02*
X173914667Y-94325286D01*
X173843238Y-94587190D02*
X174081333Y-94587190D01*
X174081333Y-94087190D01*
X173843238Y-94087190D01*
X173700381Y-94087190D02*
X173414667Y-94087190D01*
X173557524Y-94587190D02*
X173557524Y-94087190D01*
X174902714Y-89634190D02*
X174902714Y-89134190D01*
X174736048Y-89491333D01*
X174569381Y-89134190D01*
X174569381Y-89634190D01*
X174236047Y-89134190D02*
X174140809Y-89134190D01*
X174093190Y-89158000D01*
X174045571Y-89205619D01*
X174021762Y-89300857D01*
X174021762Y-89467524D01*
X174045571Y-89562762D01*
X174093190Y-89610381D01*
X174140809Y-89634190D01*
X174236047Y-89634190D01*
X174283666Y-89610381D01*
X174331285Y-89562762D01*
X174355095Y-89467524D01*
X174355095Y-89300857D01*
X174331285Y-89205619D01*
X174283666Y-89158000D01*
X174236047Y-89134190D01*
X173831285Y-89610381D02*
X173759856Y-89634190D01*
X173640809Y-89634190D01*
X173593190Y-89610381D01*
X173569380Y-89586571D01*
X173545571Y-89538952D01*
X173545571Y-89491333D01*
X173569380Y-89443714D01*
X173593190Y-89419905D01*
X173640809Y-89396095D01*
X173736047Y-89372286D01*
X173783666Y-89348476D01*
X173807475Y-89324667D01*
X173831285Y-89277048D01*
X173831285Y-89229429D01*
X173807475Y-89181810D01*
X173783666Y-89158000D01*
X173736047Y-89134190D01*
X173616999Y-89134190D01*
X173545571Y-89158000D01*
X173331285Y-89634190D02*
X173331285Y-89134190D01*
D11*
X176588000Y-118242500D02*
X176588000Y-118017500D01*
X183838000Y-118242500D02*
X183838000Y-117917500D01*
X183838000Y-110992500D02*
X183838000Y-111317500D01*
X176588000Y-110992500D02*
X176588000Y-111317500D01*
X176588000Y-118242500D02*
X176913000Y-118242500D01*
X176588000Y-110992500D02*
X176913000Y-110992500D01*
X183838000Y-110992500D02*
X183513000Y-110992500D01*
X183838000Y-118242500D02*
X183513000Y-118242500D01*
X176588000Y-118017500D02*
X175163000Y-118017500D01*
X189610000Y-107282000D02*
X173610000Y-107282000D01*
X173610000Y-107282000D02*
X173610000Y-88282000D01*
X173610000Y-88282000D02*
X189610000Y-88282000D01*
X189610000Y-88282000D02*
X189610000Y-107282000D01*
D12*
X185840000Y-115943000D02*
X185840000Y-114943000D01*
X187540000Y-114943000D02*
X187540000Y-115943000D01*
X172949500Y-117721000D02*
X172949500Y-116721000D01*
X174649500Y-116721000D02*
X174649500Y-117721000D01*
X186698000Y-108941500D02*
X187698000Y-108941500D01*
X187698000Y-110641500D02*
X186698000Y-110641500D01*
X181829000Y-120278000D02*
X180629000Y-120278000D01*
X180629000Y-122038000D02*
X181829000Y-122038000D01*
X170854000Y-117721000D02*
X170854000Y-116721000D01*
X172554000Y-116721000D02*
X172554000Y-117721000D01*
X172681000Y-105989500D02*
X172681000Y-106989500D01*
X170981000Y-106989500D02*
X170981000Y-105989500D01*
X173035000Y-112437000D02*
X173035000Y-111337000D01*
X171135000Y-112437000D02*
X171135000Y-111337000D01*
X172985000Y-114587000D02*
X171185000Y-114587000D01*
D11*
X181189190Y-115069881D02*
X181189190Y-114069881D01*
X180141571Y-114974643D02*
X180189190Y-115022262D01*
X180332047Y-115069881D01*
X180427285Y-115069881D01*
X180570143Y-115022262D01*
X180665381Y-114927024D01*
X180713000Y-114831786D01*
X180760619Y-114641310D01*
X180760619Y-114498452D01*
X180713000Y-114307976D01*
X180665381Y-114212738D01*
X180570143Y-114117500D01*
X180427285Y-114069881D01*
X180332047Y-114069881D01*
X180189190Y-114117500D01*
X180141571Y-114165119D01*
X179189190Y-115069881D02*
X179760619Y-115069881D01*
X179474905Y-115069881D02*
X179474905Y-114069881D01*
X179570143Y-114212738D01*
X179665381Y-114307976D01*
X179760619Y-114355595D01*
X182586190Y-100734381D02*
X182586190Y-99734381D01*
X181538571Y-100639143D02*
X181586190Y-100686762D01*
X181729047Y-100734381D01*
X181824285Y-100734381D01*
X181967143Y-100686762D01*
X182062381Y-100591524D01*
X182110000Y-100496286D01*
X182157619Y-100305810D01*
X182157619Y-100162952D01*
X182110000Y-99972476D01*
X182062381Y-99877238D01*
X181967143Y-99782000D01*
X181824285Y-99734381D01*
X181729047Y-99734381D01*
X181586190Y-99782000D01*
X181538571Y-99829619D01*
X181157619Y-99829619D02*
X181110000Y-99782000D01*
X181014762Y-99734381D01*
X180776666Y-99734381D01*
X180681428Y-99782000D01*
X180633809Y-99829619D01*
X180586190Y-99924857D01*
X180586190Y-100020095D01*
X180633809Y-100162952D01*
X181205238Y-100734381D01*
X180586190Y-100734381D01*
X186983643Y-118387834D02*
X187031262Y-118340215D01*
X187078881Y-118197358D01*
X187078881Y-118102120D01*
X187031262Y-117959262D01*
X186936024Y-117864024D01*
X186840786Y-117816405D01*
X186650310Y-117768786D01*
X186507452Y-117768786D01*
X186316976Y-117816405D01*
X186221738Y-117864024D01*
X186126500Y-117959262D01*
X186078881Y-118102120D01*
X186078881Y-118197358D01*
X186126500Y-118340215D01*
X186174119Y-118387834D01*
X187078881Y-119340215D02*
X187078881Y-118768786D01*
X187078881Y-119054500D02*
X186078881Y-119054500D01*
X186221738Y-118959262D01*
X186316976Y-118864024D01*
X186364595Y-118768786D01*
X174156643Y-120102334D02*
X174204262Y-120054715D01*
X174251881Y-119911858D01*
X174251881Y-119816620D01*
X174204262Y-119673762D01*
X174109024Y-119578524D01*
X174013786Y-119530905D01*
X173823310Y-119483286D01*
X173680452Y-119483286D01*
X173489976Y-119530905D01*
X173394738Y-119578524D01*
X173299500Y-119673762D01*
X173251881Y-119816620D01*
X173251881Y-119911858D01*
X173299500Y-120054715D01*
X173347119Y-120102334D01*
X173347119Y-120483286D02*
X173299500Y-120530905D01*
X173251881Y-120626143D01*
X173251881Y-120864239D01*
X173299500Y-120959477D01*
X173347119Y-121007096D01*
X173442357Y-121054715D01*
X173537595Y-121054715D01*
X173680452Y-121007096D01*
X174251881Y-120435667D01*
X174251881Y-121054715D01*
X188507666Y-111418643D02*
X188555285Y-111466262D01*
X188698142Y-111513881D01*
X188793380Y-111513881D01*
X188936238Y-111466262D01*
X189031476Y-111371024D01*
X189079095Y-111275786D01*
X189126714Y-111085310D01*
X189126714Y-110942452D01*
X189079095Y-110751976D01*
X189031476Y-110656738D01*
X188936238Y-110561500D01*
X188793380Y-110513881D01*
X188698142Y-110513881D01*
X188555285Y-110561500D01*
X188507666Y-110609119D01*
X188174333Y-110513881D02*
X187555285Y-110513881D01*
X187888619Y-110894833D01*
X187745761Y-110894833D01*
X187650523Y-110942452D01*
X187602904Y-110990071D01*
X187555285Y-111085310D01*
X187555285Y-111323405D01*
X187602904Y-111418643D01*
X187650523Y-111466262D01*
X187745761Y-111513881D01*
X188031476Y-111513881D01*
X188126714Y-111466262D01*
X188174333Y-111418643D01*
X177966666Y-121610381D02*
X178300000Y-121134190D01*
X178538095Y-121610381D02*
X178538095Y-120610381D01*
X178157142Y-120610381D01*
X178061904Y-120658000D01*
X178014285Y-120705619D01*
X177966666Y-120800857D01*
X177966666Y-120943714D01*
X178014285Y-121038952D01*
X178061904Y-121086571D01*
X178157142Y-121134190D01*
X178538095Y-121134190D01*
X177014285Y-121610381D02*
X177585714Y-121610381D01*
X177300000Y-121610381D02*
X177300000Y-120610381D01*
X177395238Y-120753238D01*
X177490476Y-120848476D01*
X177585714Y-120896095D01*
X172124643Y-120102334D02*
X172172262Y-120054715D01*
X172219881Y-119911858D01*
X172219881Y-119816620D01*
X172172262Y-119673762D01*
X172077024Y-119578524D01*
X171981786Y-119530905D01*
X171791310Y-119483286D01*
X171648452Y-119483286D01*
X171457976Y-119530905D01*
X171362738Y-119578524D01*
X171267500Y-119673762D01*
X171219881Y-119816620D01*
X171219881Y-119911858D01*
X171267500Y-120054715D01*
X171315119Y-120102334D01*
X171553214Y-120959477D02*
X172219881Y-120959477D01*
X171172262Y-120721381D02*
X171886548Y-120483286D01*
X171886548Y-121102334D01*
X171997666Y-103925643D02*
X172045285Y-103973262D01*
X172188142Y-104020881D01*
X172283380Y-104020881D01*
X172426238Y-103973262D01*
X172521476Y-103878024D01*
X172569095Y-103782786D01*
X172616714Y-103592310D01*
X172616714Y-103449452D01*
X172569095Y-103258976D01*
X172521476Y-103163738D01*
X172426238Y-103068500D01*
X172283380Y-103020881D01*
X172188142Y-103020881D01*
X172045285Y-103068500D01*
X171997666Y-103116119D01*
X171092904Y-103020881D02*
X171569095Y-103020881D01*
X171616714Y-103497071D01*
X171569095Y-103449452D01*
X171473857Y-103401833D01*
X171235761Y-103401833D01*
X171140523Y-103449452D01*
X171092904Y-103497071D01*
X171045285Y-103592310D01*
X171045285Y-103830405D01*
X171092904Y-103925643D01*
X171140523Y-103973262D01*
X171235761Y-104020881D01*
X171473857Y-104020881D01*
X171569095Y-103973262D01*
X171616714Y-103925643D01*
X174529691Y-111545690D02*
X174529691Y-112021881D01*
X174863024Y-111021881D02*
X174529691Y-111545690D01*
X174196357Y-111021881D01*
X173339214Y-112021881D02*
X173910643Y-112021881D01*
X173624929Y-112021881D02*
X173624929Y-111021881D01*
X173720167Y-111164738D01*
X173815405Y-111259976D01*
X173910643Y-111307595D01*
M02*
