G04 #@! TF.FileFunction,Copper,L1,Top,Signal*
%FSLAX46Y46*%
G04 Gerber Fmt 4.6, Leading zero omitted, Abs format (unit mm)*
G04 Created by KiCad (PCBNEW 4.0.2-stable) date 29.05.2017 13:31:58*
%MOMM*%
G01*
G04 APERTURE LIST*
%ADD10C,0.100000*%
%ADD11R,3.000000X1.700000*%
%ADD12C,1.700000*%
%ADD13O,1.700000X1.700000*%
%ADD14R,5.080000X2.540000*%
%ADD15R,5.080000X5.080000*%
%ADD16R,2.180000X1.600000*%
%ADD17R,1.500000X1.500000*%
%ADD18R,1.500000X1.300000*%
%ADD19R,1.350000X1.350000*%
%ADD20R,1.250000X1.500000*%
%ADD21C,0.600000*%
%ADD22C,0.250000*%
%ADD23C,0.254000*%
G04 APERTURE END LIST*
D10*
D11*
X171410500Y-89281000D03*
X171410500Y-94361000D03*
X171410500Y-99441000D03*
X171386500Y-91821000D03*
X171386500Y-96901000D03*
D12*
X188658500Y-113601500D03*
D13*
X188658500Y-116141500D03*
X188658500Y-118681500D03*
X188658500Y-121221500D03*
D12*
X188722000Y-123761500D03*
D13*
X186182000Y-123761500D03*
X183642000Y-123761500D03*
X181102000Y-123761500D03*
X178562000Y-123761500D03*
X176022000Y-123761500D03*
D14*
X179959000Y-93218000D03*
X179959000Y-116459000D03*
D15*
X179959000Y-104838500D03*
D16*
X184358500Y-120015000D03*
X175178500Y-120015000D03*
X175242000Y-87249000D03*
X184422000Y-87249000D03*
D17*
X185357500Y-91630500D03*
X188657500Y-91630500D03*
X185357500Y-89535000D03*
X188657500Y-89535000D03*
D18*
X185975000Y-93726000D03*
X188675000Y-93726000D03*
X181309000Y-90170000D03*
X178609000Y-90170000D03*
D19*
X171831000Y-86423500D03*
D20*
X176149000Y-92944000D03*
X176149000Y-90444000D03*
D21*
X177800000Y-113411000D03*
X179959000Y-93218000D03*
X179879000Y-121158000D03*
X183007000Y-114173000D03*
X186753500Y-111442500D03*
X176784000Y-104775000D03*
X185674000Y-104838500D03*
X171386500Y-102870000D03*
X184422000Y-87249000D03*
X175178500Y-120015000D03*
X179832000Y-114681000D03*
X176657000Y-109855000D03*
X176022000Y-95377000D03*
X177419000Y-91313000D03*
X179832000Y-112014000D03*
X175260000Y-88900000D03*
X175260000Y-95631000D03*
X173990000Y-110871000D03*
X177165000Y-120586500D03*
X182245000Y-111823500D03*
X184594500Y-109728000D03*
X180594000Y-114046000D03*
X174811031Y-99060198D03*
X183959500Y-121158000D03*
X183134000Y-117348000D03*
X178498500Y-121221500D03*
X177964224Y-120621992D03*
X178181000Y-112014000D03*
D22*
X173609000Y-90551000D02*
X173609000Y-89789000D01*
X173101000Y-89281000D02*
X171410500Y-89281000D01*
X173609000Y-89789000D02*
X173101000Y-89281000D01*
X174625000Y-91567000D02*
X174625000Y-92495500D01*
X173609000Y-90551000D02*
X174625000Y-91567000D01*
X179959000Y-116459000D02*
X181102000Y-116459000D01*
X181102000Y-116459000D02*
X183007000Y-114554000D01*
X183007000Y-114554000D02*
X183007000Y-114173000D01*
X177800000Y-113411000D02*
X177800000Y-114935000D01*
X177800000Y-114935000D02*
X179324000Y-116459000D01*
X179324000Y-116459000D02*
X179959000Y-116459000D01*
X176149000Y-92944000D02*
X175073500Y-92944000D01*
X175073500Y-92944000D02*
X174625000Y-92495500D01*
X172410500Y-89281000D02*
X171410500Y-89281000D01*
X179959000Y-93218000D02*
X176423000Y-93218000D01*
X176423000Y-93218000D02*
X176149000Y-92944000D01*
X179959000Y-121078000D02*
X179879000Y-121158000D01*
X179959000Y-116459000D02*
X179959000Y-121078000D01*
X179959000Y-116141500D02*
X179959000Y-116459000D01*
X179705000Y-116459000D02*
X179959000Y-116459000D01*
X180022500Y-93281500D02*
X179959000Y-93218000D01*
X186817000Y-111506000D02*
X186817000Y-116713000D01*
X186753500Y-111442500D02*
X186817000Y-111506000D01*
X179959000Y-104838500D02*
X176847500Y-104838500D01*
X176847500Y-104838500D02*
X176784000Y-104775000D01*
X179959000Y-104838500D02*
X185674000Y-104838500D01*
X171410500Y-99441000D02*
X171410500Y-102846000D01*
X171410500Y-102846000D02*
X171386500Y-102870000D01*
X188657500Y-89535000D02*
X187657500Y-89535000D01*
X187657500Y-89535000D02*
X185371500Y-87249000D01*
X185371500Y-87249000D02*
X184422000Y-87249000D01*
X188657500Y-91630500D02*
X188657500Y-89535000D01*
X184422000Y-87249000D02*
X184422000Y-86632000D01*
X188675000Y-93726000D02*
X188675000Y-93806000D01*
X188675000Y-93806000D02*
X189230000Y-94361000D01*
X189230000Y-94361000D02*
X189230000Y-106045000D01*
X189230000Y-106045000D02*
X188468000Y-106807000D01*
X179959000Y-114681000D02*
X181864000Y-114681000D01*
X188468000Y-106807000D02*
X182245000Y-113030000D01*
X179832000Y-114681000D02*
X179959000Y-114681000D01*
X181864000Y-114681000D02*
X182245000Y-114300000D01*
X182245000Y-114300000D02*
X182245000Y-113030000D01*
X176031998Y-108966000D02*
X176031998Y-108975998D01*
X176031998Y-108975998D02*
X176657000Y-109601000D01*
X176657000Y-109601000D02*
X176657000Y-109855000D01*
X178609000Y-90170000D02*
X178562000Y-90170000D01*
X178562000Y-90170000D02*
X177419000Y-91313000D01*
X176022000Y-96647000D02*
X176031998Y-96647000D01*
X176031998Y-96637002D02*
X176022000Y-96647000D01*
X176031998Y-95386998D02*
X176031998Y-96637002D01*
X176022000Y-95377000D02*
X176031998Y-95386998D01*
X176031998Y-106997500D02*
X176031998Y-108966000D01*
X176031998Y-102378025D02*
X176031998Y-96647000D01*
X176031998Y-105075002D02*
X176031998Y-106997500D01*
X176031998Y-105075002D02*
X176031998Y-105075002D01*
X176031998Y-104711500D02*
X176031998Y-102378025D01*
X176031998Y-104711500D02*
X176031998Y-105075002D01*
X178609000Y-90170000D02*
X178709000Y-90170000D01*
X176466500Y-110553500D02*
X179260500Y-110553500D01*
X179832000Y-111125000D02*
X179832000Y-112014000D01*
X179260500Y-110553500D02*
X179832000Y-111125000D01*
X175520278Y-109607278D02*
X176466500Y-110553500D01*
X175520278Y-102114225D02*
X175520278Y-96132722D01*
X175520278Y-102114225D02*
X175520278Y-107759500D01*
X175520278Y-107759500D02*
X175520278Y-109607278D01*
X175242000Y-88882000D02*
X175260000Y-88900000D01*
X175260000Y-95631000D02*
X175520278Y-95891278D01*
X175520278Y-95891278D02*
X175520278Y-96132722D01*
X175242000Y-87249000D02*
X175242000Y-88882000D01*
X173990000Y-110871000D02*
X174244000Y-110871000D01*
X175895000Y-112522000D02*
X175895000Y-118237000D01*
X174244000Y-110871000D02*
X175895000Y-112522000D01*
X175895000Y-118237000D02*
X177165000Y-119507000D01*
X177165000Y-119507000D02*
X177165000Y-120586500D01*
X185357500Y-91630500D02*
X185357500Y-93108500D01*
X185357500Y-93108500D02*
X185975000Y-93726000D01*
X181309000Y-90170000D02*
X184722500Y-90170000D01*
X184722500Y-90170000D02*
X185357500Y-89535000D01*
X184594500Y-109728000D02*
X182499000Y-111823500D01*
X182499000Y-111823500D02*
X182245000Y-111823500D01*
X175596200Y-110534800D02*
X175596200Y-110572200D01*
X180594000Y-113157000D02*
X180594000Y-114046000D01*
X180340000Y-112903000D02*
X180594000Y-113157000D01*
X179578000Y-112903000D02*
X180340000Y-112903000D01*
X179070000Y-112395000D02*
X179578000Y-112903000D01*
X179070000Y-111633000D02*
X179070000Y-112395000D01*
X178689000Y-111252000D02*
X179070000Y-111633000D01*
X176276000Y-111252000D02*
X178689000Y-111252000D01*
X175596200Y-110572200D02*
X176276000Y-111252000D01*
X174811025Y-109749625D02*
X174811025Y-109749612D01*
X175596200Y-110534800D02*
X174811025Y-109749625D01*
X174811031Y-99484462D02*
X174811031Y-99060198D01*
X174811025Y-109749612D02*
X174811031Y-109749618D01*
X174811031Y-109749618D02*
X174811031Y-99484462D01*
X183959500Y-121158000D02*
X183959500Y-120414000D01*
X183959500Y-120414000D02*
X184358500Y-120015000D01*
X184358500Y-120695500D02*
X184358500Y-120015000D01*
X184358500Y-120015000D02*
X184358500Y-118572500D01*
X184358500Y-118572500D02*
X183134000Y-117348000D01*
X184358500Y-120015000D02*
X184068500Y-120015000D01*
X173364998Y-110998000D02*
X173364998Y-111134998D01*
X173863000Y-118745000D02*
X173364998Y-119243002D01*
X174498000Y-118745000D02*
X173863000Y-118745000D01*
X175260000Y-117983000D02*
X174498000Y-118745000D01*
X175260000Y-113030000D02*
X175260000Y-117983000D01*
X173364998Y-111134998D02*
X175260000Y-113030000D01*
X173364998Y-110317000D02*
X173364998Y-110998000D01*
X173364998Y-119243002D02*
X173364998Y-120676500D01*
X178198501Y-121521499D02*
X178498500Y-121221500D01*
X172410500Y-94361000D02*
X173736000Y-95686500D01*
X173736000Y-109945998D02*
X173364998Y-110317000D01*
X174209997Y-121521499D02*
X178198501Y-121521499D01*
X173364998Y-120676500D02*
X174209997Y-121521499D01*
X173736000Y-95686500D02*
X173736000Y-109945998D01*
X171410500Y-94361000D02*
X172410500Y-94361000D01*
X174186011Y-93620511D02*
X174186011Y-93160011D01*
X174186011Y-93160011D02*
X172847000Y-91821000D01*
X174198501Y-109773499D02*
X174198501Y-110063501D01*
X176530000Y-112395000D02*
X176530000Y-118061413D01*
X174198501Y-110063501D02*
X176530000Y-112395000D01*
X177964224Y-120197728D02*
X177964224Y-120621992D01*
X176530000Y-118061413D02*
X177964224Y-119495637D01*
X174186011Y-109761009D02*
X174198501Y-109773499D01*
X174186011Y-93620511D02*
X174186011Y-109761009D01*
X171386500Y-91821000D02*
X172386500Y-91821000D01*
X177964224Y-119495637D02*
X177964224Y-120197728D01*
X177101500Y-113157000D02*
X177101500Y-112331500D01*
X177419000Y-112014000D02*
X178181000Y-112014000D01*
X177101500Y-112331500D02*
X177419000Y-112014000D01*
X177101500Y-113792000D02*
X177101500Y-113157000D01*
X177101500Y-114236500D02*
X177101500Y-113792000D01*
X179253998Y-119399583D02*
X177908416Y-118054001D01*
X177908416Y-118054001D02*
X177158999Y-118054001D01*
X177158999Y-118054001D02*
X177093999Y-117989001D01*
X179253998Y-121418502D02*
X179253998Y-119399583D01*
X177093999Y-114244001D02*
X177101500Y-114236500D01*
X177197001Y-122586499D02*
X178086001Y-122586499D01*
X177093999Y-117989001D02*
X177093999Y-114244001D01*
X176022000Y-123761500D02*
X177197001Y-122586499D01*
X178086001Y-122586499D02*
X179253998Y-121418502D01*
D23*
G36*
X171513500Y-96774000D02*
X171533500Y-96774000D01*
X171533500Y-97028000D01*
X171513500Y-97028000D01*
X171513500Y-98227250D01*
X171537500Y-98251250D01*
X171537500Y-99314000D01*
X171557500Y-99314000D01*
X171557500Y-99568000D01*
X171537500Y-99568000D01*
X171537500Y-100767250D01*
X171696250Y-100926000D01*
X172976000Y-100926000D01*
X172976000Y-109631196D01*
X172827597Y-109779599D01*
X172662850Y-110026161D01*
X172604998Y-110317000D01*
X172604998Y-111134998D01*
X172662850Y-111425837D01*
X172827597Y-111672399D01*
X174500000Y-113344802D01*
X174500000Y-117668198D01*
X174183198Y-117985000D01*
X173863000Y-117985000D01*
X173572160Y-118042852D01*
X173325599Y-118207599D01*
X172827597Y-118705601D01*
X172662850Y-118952163D01*
X172604998Y-119243002D01*
X172604998Y-120676500D01*
X172662850Y-120967339D01*
X172827597Y-121213901D01*
X173672596Y-122058900D01*
X173919158Y-122223647D01*
X174209997Y-122281499D01*
X175850608Y-122281499D01*
X175453715Y-122360446D01*
X174971946Y-122682353D01*
X174650039Y-123164122D01*
X174537000Y-123732407D01*
X174537000Y-123790593D01*
X174636338Y-124290000D01*
X173311883Y-124290000D01*
X173428004Y-124174082D01*
X173692699Y-123536627D01*
X173693301Y-122846401D01*
X173429719Y-122208485D01*
X172942082Y-121719996D01*
X172304627Y-121455301D01*
X171614401Y-121454699D01*
X170976485Y-121718281D01*
X170710000Y-121984301D01*
X170710000Y-100926000D01*
X171124750Y-100926000D01*
X171283500Y-100767250D01*
X171283500Y-99568000D01*
X171263500Y-99568000D01*
X171263500Y-99314000D01*
X171283500Y-99314000D01*
X171283500Y-98114750D01*
X171259500Y-98090750D01*
X171259500Y-97028000D01*
X171239500Y-97028000D01*
X171239500Y-96774000D01*
X171259500Y-96774000D01*
X171259500Y-96754000D01*
X171513500Y-96754000D01*
X171513500Y-96774000D01*
X171513500Y-96774000D01*
G37*
X171513500Y-96774000D02*
X171533500Y-96774000D01*
X171533500Y-97028000D01*
X171513500Y-97028000D01*
X171513500Y-98227250D01*
X171537500Y-98251250D01*
X171537500Y-99314000D01*
X171557500Y-99314000D01*
X171557500Y-99568000D01*
X171537500Y-99568000D01*
X171537500Y-100767250D01*
X171696250Y-100926000D01*
X172976000Y-100926000D01*
X172976000Y-109631196D01*
X172827597Y-109779599D01*
X172662850Y-110026161D01*
X172604998Y-110317000D01*
X172604998Y-111134998D01*
X172662850Y-111425837D01*
X172827597Y-111672399D01*
X174500000Y-113344802D01*
X174500000Y-117668198D01*
X174183198Y-117985000D01*
X173863000Y-117985000D01*
X173572160Y-118042852D01*
X173325599Y-118207599D01*
X172827597Y-118705601D01*
X172662850Y-118952163D01*
X172604998Y-119243002D01*
X172604998Y-120676500D01*
X172662850Y-120967339D01*
X172827597Y-121213901D01*
X173672596Y-122058900D01*
X173919158Y-122223647D01*
X174209997Y-122281499D01*
X175850608Y-122281499D01*
X175453715Y-122360446D01*
X174971946Y-122682353D01*
X174650039Y-123164122D01*
X174537000Y-123732407D01*
X174537000Y-123790593D01*
X174636338Y-124290000D01*
X173311883Y-124290000D01*
X173428004Y-124174082D01*
X173692699Y-123536627D01*
X173693301Y-122846401D01*
X173429719Y-122208485D01*
X172942082Y-121719996D01*
X172304627Y-121455301D01*
X171614401Y-121454699D01*
X170976485Y-121718281D01*
X170710000Y-121984301D01*
X170710000Y-100926000D01*
X171124750Y-100926000D01*
X171283500Y-100767250D01*
X171283500Y-99568000D01*
X171263500Y-99568000D01*
X171263500Y-99314000D01*
X171283500Y-99314000D01*
X171283500Y-98114750D01*
X171259500Y-98090750D01*
X171259500Y-97028000D01*
X171239500Y-97028000D01*
X171239500Y-96774000D01*
X171259500Y-96774000D01*
X171259500Y-96754000D01*
X171513500Y-96754000D01*
X171513500Y-96774000D01*
G36*
X189290000Y-112255787D02*
X188955181Y-112116758D01*
X188364411Y-112116243D01*
X187818414Y-112341844D01*
X187400312Y-112759217D01*
X187173758Y-113304819D01*
X187173243Y-113895589D01*
X187398844Y-114441586D01*
X187816217Y-114859688D01*
X187893380Y-114891729D01*
X187777142Y-114946317D01*
X187386855Y-115374576D01*
X187217024Y-115784610D01*
X187338345Y-116014500D01*
X188531500Y-116014500D01*
X188531500Y-115994500D01*
X188785500Y-115994500D01*
X188785500Y-116014500D01*
X188805500Y-116014500D01*
X188805500Y-116268500D01*
X188785500Y-116268500D01*
X188785500Y-116288500D01*
X188531500Y-116288500D01*
X188531500Y-116268500D01*
X187338345Y-116268500D01*
X187217024Y-116498390D01*
X187386855Y-116908424D01*
X187777142Y-117336683D01*
X187920053Y-117403798D01*
X187579353Y-117631446D01*
X187257446Y-118113215D01*
X187144407Y-118681500D01*
X187257446Y-119249785D01*
X187579353Y-119731554D01*
X187908526Y-119951500D01*
X187579353Y-120171446D01*
X187257446Y-120653215D01*
X187144407Y-121221500D01*
X187257446Y-121789785D01*
X187579353Y-122271554D01*
X187907923Y-122491097D01*
X187881914Y-122501844D01*
X187463812Y-122919217D01*
X187435645Y-122987050D01*
X187232054Y-122682353D01*
X186750285Y-122360446D01*
X186182000Y-122247407D01*
X185613715Y-122360446D01*
X185131946Y-122682353D01*
X184912000Y-123011526D01*
X184692054Y-122682353D01*
X184210285Y-122360446D01*
X183642000Y-122247407D01*
X183073715Y-122360446D01*
X182591946Y-122682353D01*
X182372000Y-123011526D01*
X182152054Y-122682353D01*
X181670285Y-122360446D01*
X181102000Y-122247407D01*
X180533715Y-122360446D01*
X180051946Y-122682353D01*
X179832000Y-123011526D01*
X179612054Y-122682353D01*
X179284088Y-122463214D01*
X179665536Y-122081766D01*
X179692201Y-122092838D01*
X180064167Y-122093162D01*
X180407943Y-121951117D01*
X180671192Y-121688327D01*
X180813838Y-121344799D01*
X180814162Y-120972833D01*
X180719000Y-120742523D01*
X180719000Y-118376440D01*
X182499000Y-118376440D01*
X182734317Y-118332162D01*
X182864400Y-118248456D01*
X182947201Y-118282838D01*
X182994077Y-118282879D01*
X183278757Y-118567560D01*
X183268500Y-118567560D01*
X183033183Y-118611838D01*
X182817059Y-118750910D01*
X182672069Y-118963110D01*
X182621060Y-119215000D01*
X182621060Y-120815000D01*
X182665338Y-121050317D01*
X182804410Y-121266441D01*
X183016610Y-121411431D01*
X183055825Y-121419372D01*
X183166383Y-121686943D01*
X183429173Y-121950192D01*
X183772701Y-122092838D01*
X184144667Y-122093162D01*
X184488443Y-121951117D01*
X184751692Y-121688327D01*
X184845489Y-121462440D01*
X185448500Y-121462440D01*
X185683817Y-121418162D01*
X185899941Y-121279090D01*
X186044931Y-121066890D01*
X186095940Y-120815000D01*
X186095940Y-119215000D01*
X186051662Y-118979683D01*
X185912590Y-118763559D01*
X185700390Y-118618569D01*
X185448500Y-118567560D01*
X185117517Y-118567560D01*
X185060648Y-118281661D01*
X185030807Y-118237000D01*
X184895902Y-118035099D01*
X184069122Y-117208320D01*
X184069162Y-117162833D01*
X183927117Y-116819057D01*
X183664327Y-116555808D01*
X183320799Y-116413162D01*
X183146440Y-116413010D01*
X183146440Y-115489362D01*
X183544401Y-115091401D01*
X183709148Y-114844839D01*
X183721961Y-114780423D01*
X183799192Y-114703327D01*
X183941838Y-114359799D01*
X183942162Y-113987833D01*
X183800117Y-113644057D01*
X183537327Y-113380808D01*
X183193799Y-113238162D01*
X183111712Y-113238090D01*
X189290000Y-107059802D01*
X189290000Y-112255787D01*
X189290000Y-112255787D01*
G37*
X189290000Y-112255787D02*
X188955181Y-112116758D01*
X188364411Y-112116243D01*
X187818414Y-112341844D01*
X187400312Y-112759217D01*
X187173758Y-113304819D01*
X187173243Y-113895589D01*
X187398844Y-114441586D01*
X187816217Y-114859688D01*
X187893380Y-114891729D01*
X187777142Y-114946317D01*
X187386855Y-115374576D01*
X187217024Y-115784610D01*
X187338345Y-116014500D01*
X188531500Y-116014500D01*
X188531500Y-115994500D01*
X188785500Y-115994500D01*
X188785500Y-116014500D01*
X188805500Y-116014500D01*
X188805500Y-116268500D01*
X188785500Y-116268500D01*
X188785500Y-116288500D01*
X188531500Y-116288500D01*
X188531500Y-116268500D01*
X187338345Y-116268500D01*
X187217024Y-116498390D01*
X187386855Y-116908424D01*
X187777142Y-117336683D01*
X187920053Y-117403798D01*
X187579353Y-117631446D01*
X187257446Y-118113215D01*
X187144407Y-118681500D01*
X187257446Y-119249785D01*
X187579353Y-119731554D01*
X187908526Y-119951500D01*
X187579353Y-120171446D01*
X187257446Y-120653215D01*
X187144407Y-121221500D01*
X187257446Y-121789785D01*
X187579353Y-122271554D01*
X187907923Y-122491097D01*
X187881914Y-122501844D01*
X187463812Y-122919217D01*
X187435645Y-122987050D01*
X187232054Y-122682353D01*
X186750285Y-122360446D01*
X186182000Y-122247407D01*
X185613715Y-122360446D01*
X185131946Y-122682353D01*
X184912000Y-123011526D01*
X184692054Y-122682353D01*
X184210285Y-122360446D01*
X183642000Y-122247407D01*
X183073715Y-122360446D01*
X182591946Y-122682353D01*
X182372000Y-123011526D01*
X182152054Y-122682353D01*
X181670285Y-122360446D01*
X181102000Y-122247407D01*
X180533715Y-122360446D01*
X180051946Y-122682353D01*
X179832000Y-123011526D01*
X179612054Y-122682353D01*
X179284088Y-122463214D01*
X179665536Y-122081766D01*
X179692201Y-122092838D01*
X180064167Y-122093162D01*
X180407943Y-121951117D01*
X180671192Y-121688327D01*
X180813838Y-121344799D01*
X180814162Y-120972833D01*
X180719000Y-120742523D01*
X180719000Y-118376440D01*
X182499000Y-118376440D01*
X182734317Y-118332162D01*
X182864400Y-118248456D01*
X182947201Y-118282838D01*
X182994077Y-118282879D01*
X183278757Y-118567560D01*
X183268500Y-118567560D01*
X183033183Y-118611838D01*
X182817059Y-118750910D01*
X182672069Y-118963110D01*
X182621060Y-119215000D01*
X182621060Y-120815000D01*
X182665338Y-121050317D01*
X182804410Y-121266441D01*
X183016610Y-121411431D01*
X183055825Y-121419372D01*
X183166383Y-121686943D01*
X183429173Y-121950192D01*
X183772701Y-122092838D01*
X184144667Y-122093162D01*
X184488443Y-121951117D01*
X184751692Y-121688327D01*
X184845489Y-121462440D01*
X185448500Y-121462440D01*
X185683817Y-121418162D01*
X185899941Y-121279090D01*
X186044931Y-121066890D01*
X186095940Y-120815000D01*
X186095940Y-119215000D01*
X186051662Y-118979683D01*
X185912590Y-118763559D01*
X185700390Y-118618569D01*
X185448500Y-118567560D01*
X185117517Y-118567560D01*
X185060648Y-118281661D01*
X185030807Y-118237000D01*
X184895902Y-118035099D01*
X184069122Y-117208320D01*
X184069162Y-117162833D01*
X183927117Y-116819057D01*
X183664327Y-116555808D01*
X183320799Y-116413162D01*
X183146440Y-116413010D01*
X183146440Y-115489362D01*
X183544401Y-115091401D01*
X183709148Y-114844839D01*
X183721961Y-114780423D01*
X183799192Y-114703327D01*
X183941838Y-114359799D01*
X183942162Y-113987833D01*
X183800117Y-113644057D01*
X183537327Y-113380808D01*
X183193799Y-113238162D01*
X183111712Y-113238090D01*
X189290000Y-107059802D01*
X189290000Y-112255787D01*
G36*
X175305500Y-119888000D02*
X175325500Y-119888000D01*
X175325500Y-120142000D01*
X175305500Y-120142000D01*
X175305500Y-120162000D01*
X175051500Y-120162000D01*
X175051500Y-120142000D01*
X175031500Y-120142000D01*
X175031500Y-119888000D01*
X175051500Y-119888000D01*
X175051500Y-119868000D01*
X175305500Y-119868000D01*
X175305500Y-119888000D01*
X175305500Y-119888000D01*
G37*
X175305500Y-119888000D02*
X175325500Y-119888000D01*
X175325500Y-120142000D01*
X175305500Y-120142000D01*
X175305500Y-120162000D01*
X175051500Y-120162000D01*
X175051500Y-120142000D01*
X175031500Y-120142000D01*
X175031500Y-119888000D01*
X175051500Y-119888000D01*
X175051500Y-119868000D01*
X175305500Y-119868000D01*
X175305500Y-119888000D01*
G36*
X183960060Y-92380500D02*
X184004338Y-92615817D01*
X184143410Y-92831941D01*
X184355610Y-92976931D01*
X184588088Y-93024009D01*
X184577560Y-93076000D01*
X184577560Y-94376000D01*
X184621838Y-94611317D01*
X184760910Y-94827441D01*
X184973110Y-94972431D01*
X185225000Y-95023440D01*
X186725000Y-95023440D01*
X186960317Y-94979162D01*
X187176441Y-94840090D01*
X187321431Y-94627890D01*
X187324081Y-94614803D01*
X187460910Y-94827441D01*
X187673110Y-94972431D01*
X187925000Y-95023440D01*
X188470000Y-95023440D01*
X188470000Y-105730198D01*
X185194548Y-109005650D01*
X185124827Y-108935808D01*
X184781299Y-108793162D01*
X184409333Y-108792838D01*
X184065557Y-108934883D01*
X183802308Y-109197673D01*
X183659662Y-109541201D01*
X183659621Y-109588077D01*
X182359099Y-110888599D01*
X182059833Y-110888338D01*
X181716057Y-111030383D01*
X181452808Y-111293173D01*
X181310162Y-111636701D01*
X181309838Y-112008667D01*
X181451883Y-112352443D01*
X181661166Y-112562091D01*
X181542852Y-112739161D01*
X181485000Y-113030000D01*
X181485000Y-113753953D01*
X181387117Y-113517057D01*
X181354000Y-113483882D01*
X181354000Y-113157000D01*
X181296148Y-112866161D01*
X181296148Y-112866160D01*
X181131401Y-112619599D01*
X180877401Y-112365599D01*
X180737283Y-112271975D01*
X180766838Y-112200799D01*
X180767162Y-111828833D01*
X180625117Y-111485057D01*
X180592000Y-111451882D01*
X180592000Y-111125000D01*
X180534148Y-110834161D01*
X180369401Y-110587599D01*
X179797901Y-110016099D01*
X179551339Y-109851352D01*
X179260500Y-109793500D01*
X177592054Y-109793500D01*
X177592162Y-109669833D01*
X177450117Y-109326057D01*
X177207123Y-109082638D01*
X177194401Y-109063599D01*
X176791998Y-108661196D01*
X176791998Y-107524118D01*
X176880673Y-107738198D01*
X177059301Y-107916827D01*
X177292690Y-108013500D01*
X179673250Y-108013500D01*
X179832000Y-107854750D01*
X179832000Y-104965500D01*
X180086000Y-104965500D01*
X180086000Y-107854750D01*
X180244750Y-108013500D01*
X182625310Y-108013500D01*
X182858699Y-107916827D01*
X183037327Y-107738198D01*
X183134000Y-107504809D01*
X183134000Y-105124250D01*
X182975250Y-104965500D01*
X180086000Y-104965500D01*
X179832000Y-104965500D01*
X179812000Y-104965500D01*
X179812000Y-104711500D01*
X179832000Y-104711500D01*
X179832000Y-101822250D01*
X180086000Y-101822250D01*
X180086000Y-104711500D01*
X182975250Y-104711500D01*
X183134000Y-104552750D01*
X183134000Y-102172191D01*
X183037327Y-101938802D01*
X182858699Y-101760173D01*
X182625310Y-101663500D01*
X180244750Y-101663500D01*
X180086000Y-101822250D01*
X179832000Y-101822250D01*
X179673250Y-101663500D01*
X177292690Y-101663500D01*
X177059301Y-101760173D01*
X176880673Y-101938802D01*
X176791998Y-102152882D01*
X176791998Y-96647000D01*
X176791004Y-96642001D01*
X176791998Y-96637002D01*
X176791998Y-95929482D01*
X176814192Y-95907327D01*
X176956838Y-95563799D01*
X176957162Y-95191833D01*
X176815117Y-94848057D01*
X176552327Y-94584808D01*
X176208799Y-94442162D01*
X175836833Y-94441838D01*
X175493057Y-94583883D01*
X175380640Y-94696104D01*
X175074833Y-94695838D01*
X174946011Y-94749066D01*
X174946011Y-93968437D01*
X175059910Y-94145441D01*
X175272110Y-94290431D01*
X175524000Y-94341440D01*
X176771560Y-94341440D01*
X176771560Y-94488000D01*
X176815838Y-94723317D01*
X176954910Y-94939441D01*
X177167110Y-95084431D01*
X177419000Y-95135440D01*
X182499000Y-95135440D01*
X182734317Y-95091162D01*
X182950441Y-94952090D01*
X183095431Y-94739890D01*
X183146440Y-94488000D01*
X183146440Y-91948000D01*
X183102162Y-91712683D01*
X182963090Y-91496559D01*
X182750890Y-91351569D01*
X182499000Y-91300560D01*
X182484846Y-91300560D01*
X182510441Y-91284090D01*
X182655431Y-91071890D01*
X182684164Y-90930000D01*
X183960060Y-90930000D01*
X183960060Y-92380500D01*
X183960060Y-92380500D01*
G37*
X183960060Y-92380500D02*
X184004338Y-92615817D01*
X184143410Y-92831941D01*
X184355610Y-92976931D01*
X184588088Y-93024009D01*
X184577560Y-93076000D01*
X184577560Y-94376000D01*
X184621838Y-94611317D01*
X184760910Y-94827441D01*
X184973110Y-94972431D01*
X185225000Y-95023440D01*
X186725000Y-95023440D01*
X186960317Y-94979162D01*
X187176441Y-94840090D01*
X187321431Y-94627890D01*
X187324081Y-94614803D01*
X187460910Y-94827441D01*
X187673110Y-94972431D01*
X187925000Y-95023440D01*
X188470000Y-95023440D01*
X188470000Y-105730198D01*
X185194548Y-109005650D01*
X185124827Y-108935808D01*
X184781299Y-108793162D01*
X184409333Y-108792838D01*
X184065557Y-108934883D01*
X183802308Y-109197673D01*
X183659662Y-109541201D01*
X183659621Y-109588077D01*
X182359099Y-110888599D01*
X182059833Y-110888338D01*
X181716057Y-111030383D01*
X181452808Y-111293173D01*
X181310162Y-111636701D01*
X181309838Y-112008667D01*
X181451883Y-112352443D01*
X181661166Y-112562091D01*
X181542852Y-112739161D01*
X181485000Y-113030000D01*
X181485000Y-113753953D01*
X181387117Y-113517057D01*
X181354000Y-113483882D01*
X181354000Y-113157000D01*
X181296148Y-112866161D01*
X181296148Y-112866160D01*
X181131401Y-112619599D01*
X180877401Y-112365599D01*
X180737283Y-112271975D01*
X180766838Y-112200799D01*
X180767162Y-111828833D01*
X180625117Y-111485057D01*
X180592000Y-111451882D01*
X180592000Y-111125000D01*
X180534148Y-110834161D01*
X180369401Y-110587599D01*
X179797901Y-110016099D01*
X179551339Y-109851352D01*
X179260500Y-109793500D01*
X177592054Y-109793500D01*
X177592162Y-109669833D01*
X177450117Y-109326057D01*
X177207123Y-109082638D01*
X177194401Y-109063599D01*
X176791998Y-108661196D01*
X176791998Y-107524118D01*
X176880673Y-107738198D01*
X177059301Y-107916827D01*
X177292690Y-108013500D01*
X179673250Y-108013500D01*
X179832000Y-107854750D01*
X179832000Y-104965500D01*
X180086000Y-104965500D01*
X180086000Y-107854750D01*
X180244750Y-108013500D01*
X182625310Y-108013500D01*
X182858699Y-107916827D01*
X183037327Y-107738198D01*
X183134000Y-107504809D01*
X183134000Y-105124250D01*
X182975250Y-104965500D01*
X180086000Y-104965500D01*
X179832000Y-104965500D01*
X179812000Y-104965500D01*
X179812000Y-104711500D01*
X179832000Y-104711500D01*
X179832000Y-101822250D01*
X180086000Y-101822250D01*
X180086000Y-104711500D01*
X182975250Y-104711500D01*
X183134000Y-104552750D01*
X183134000Y-102172191D01*
X183037327Y-101938802D01*
X182858699Y-101760173D01*
X182625310Y-101663500D01*
X180244750Y-101663500D01*
X180086000Y-101822250D01*
X179832000Y-101822250D01*
X179673250Y-101663500D01*
X177292690Y-101663500D01*
X177059301Y-101760173D01*
X176880673Y-101938802D01*
X176791998Y-102152882D01*
X176791998Y-96647000D01*
X176791004Y-96642001D01*
X176791998Y-96637002D01*
X176791998Y-95929482D01*
X176814192Y-95907327D01*
X176956838Y-95563799D01*
X176957162Y-95191833D01*
X176815117Y-94848057D01*
X176552327Y-94584808D01*
X176208799Y-94442162D01*
X175836833Y-94441838D01*
X175493057Y-94583883D01*
X175380640Y-94696104D01*
X175074833Y-94695838D01*
X174946011Y-94749066D01*
X174946011Y-93968437D01*
X175059910Y-94145441D01*
X175272110Y-94290431D01*
X175524000Y-94341440D01*
X176771560Y-94341440D01*
X176771560Y-94488000D01*
X176815838Y-94723317D01*
X176954910Y-94939441D01*
X177167110Y-95084431D01*
X177419000Y-95135440D01*
X182499000Y-95135440D01*
X182734317Y-95091162D01*
X182950441Y-94952090D01*
X183095431Y-94739890D01*
X183146440Y-94488000D01*
X183146440Y-91948000D01*
X183102162Y-91712683D01*
X182963090Y-91496559D01*
X182750890Y-91351569D01*
X182499000Y-91300560D01*
X182484846Y-91300560D01*
X182510441Y-91284090D01*
X182655431Y-91071890D01*
X182684164Y-90930000D01*
X183960060Y-90930000D01*
X183960060Y-92380500D01*
G36*
X186616996Y-85756918D02*
X186352301Y-86394373D01*
X186351699Y-87084599D01*
X186615281Y-87722515D01*
X187102918Y-88211004D01*
X187442474Y-88352000D01*
X187369173Y-88425301D01*
X187272500Y-88658690D01*
X187272500Y-89249250D01*
X187431250Y-89408000D01*
X188530500Y-89408000D01*
X188530500Y-89388000D01*
X188784500Y-89388000D01*
X188784500Y-89408000D01*
X188804500Y-89408000D01*
X188804500Y-89662000D01*
X188784500Y-89662000D01*
X188784500Y-91503500D01*
X188804500Y-91503500D01*
X188804500Y-91757500D01*
X188784500Y-91757500D01*
X188784500Y-91777500D01*
X188530500Y-91777500D01*
X188530500Y-91757500D01*
X187431250Y-91757500D01*
X187272500Y-91916250D01*
X187272500Y-92506810D01*
X187369173Y-92740199D01*
X187379112Y-92750138D01*
X187328569Y-92824110D01*
X187325919Y-92837197D01*
X187189090Y-92624559D01*
X186976890Y-92479569D01*
X186744412Y-92432491D01*
X186754940Y-92380500D01*
X186754940Y-90880500D01*
X186710662Y-90645183D01*
X186671510Y-90584339D01*
X186703931Y-90536890D01*
X186754940Y-90285000D01*
X186754940Y-89820750D01*
X187272500Y-89820750D01*
X187272500Y-90411310D01*
X187343513Y-90582750D01*
X187272500Y-90754190D01*
X187272500Y-91344750D01*
X187431250Y-91503500D01*
X188530500Y-91503500D01*
X188530500Y-89662000D01*
X187431250Y-89662000D01*
X187272500Y-89820750D01*
X186754940Y-89820750D01*
X186754940Y-88785000D01*
X186710662Y-88549683D01*
X186571590Y-88333559D01*
X186359390Y-88188569D01*
X186147000Y-88145559D01*
X186147000Y-87534750D01*
X185988250Y-87376000D01*
X184549000Y-87376000D01*
X184549000Y-87396000D01*
X184295000Y-87396000D01*
X184295000Y-87376000D01*
X182855750Y-87376000D01*
X182697000Y-87534750D01*
X182697000Y-88175310D01*
X182793673Y-88408699D01*
X182972302Y-88587327D01*
X183205691Y-88684000D01*
X183980513Y-88684000D01*
X183960060Y-88785000D01*
X183960060Y-89410000D01*
X182685742Y-89410000D01*
X182662162Y-89284683D01*
X182523090Y-89068559D01*
X182310890Y-88923569D01*
X182059000Y-88872560D01*
X180559000Y-88872560D01*
X180323683Y-88916838D01*
X180107559Y-89055910D01*
X179962569Y-89268110D01*
X179959919Y-89281197D01*
X179823090Y-89068559D01*
X179610890Y-88923569D01*
X179359000Y-88872560D01*
X177859000Y-88872560D01*
X177623683Y-88916838D01*
X177407559Y-89055910D01*
X177262569Y-89268110D01*
X177259802Y-89281776D01*
X177133699Y-89155673D01*
X176900310Y-89059000D01*
X176434750Y-89059000D01*
X176276002Y-89217748D01*
X176276002Y-89059000D01*
X176194862Y-89059000D01*
X176195162Y-88714833D01*
X176187562Y-88696440D01*
X176332000Y-88696440D01*
X176567317Y-88652162D01*
X176783441Y-88513090D01*
X176928431Y-88300890D01*
X176979440Y-88049000D01*
X176979440Y-86449000D01*
X176955674Y-86322690D01*
X182697000Y-86322690D01*
X182697000Y-86963250D01*
X182855750Y-87122000D01*
X184295000Y-87122000D01*
X184295000Y-85972750D01*
X184549000Y-85972750D01*
X184549000Y-87122000D01*
X185988250Y-87122000D01*
X186147000Y-86963250D01*
X186147000Y-86322690D01*
X186050327Y-86089301D01*
X185871698Y-85910673D01*
X185638309Y-85814000D01*
X184707750Y-85814000D01*
X184549000Y-85972750D01*
X184295000Y-85972750D01*
X184136250Y-85814000D01*
X183205691Y-85814000D01*
X182972302Y-85910673D01*
X182793673Y-86089301D01*
X182697000Y-86322690D01*
X176955674Y-86322690D01*
X176935162Y-86213683D01*
X176796090Y-85997559D01*
X176583890Y-85852569D01*
X176332000Y-85801560D01*
X174152000Y-85801560D01*
X173916683Y-85845838D01*
X173700559Y-85984910D01*
X173555569Y-86197110D01*
X173504560Y-86449000D01*
X173504560Y-88049000D01*
X173548838Y-88284317D01*
X173687910Y-88500441D01*
X173900110Y-88645431D01*
X174152000Y-88696440D01*
X174332122Y-88696440D01*
X174325162Y-88713201D01*
X174324838Y-89085167D01*
X174466883Y-89428943D01*
X174729673Y-89692192D01*
X174889000Y-89758351D01*
X174889000Y-90158250D01*
X175047750Y-90317000D01*
X176022000Y-90317000D01*
X176022000Y-90297000D01*
X176276000Y-90297000D01*
X176276000Y-90317000D01*
X176296000Y-90317000D01*
X176296000Y-90571000D01*
X176276000Y-90571000D01*
X176276000Y-90591000D01*
X176022000Y-90591000D01*
X176022000Y-90571000D01*
X175047750Y-90571000D01*
X174889000Y-90729750D01*
X174889000Y-90756198D01*
X174369000Y-90236198D01*
X174369000Y-89789000D01*
X174311148Y-89498161D01*
X174146401Y-89251599D01*
X173638401Y-88743599D01*
X173557940Y-88689837D01*
X173557940Y-88431000D01*
X173513662Y-88195683D01*
X173374590Y-87979559D01*
X173162390Y-87834569D01*
X172910500Y-87783560D01*
X170710000Y-87783560D01*
X170710000Y-87562301D01*
X170904110Y-87694931D01*
X171156000Y-87745940D01*
X172506000Y-87745940D01*
X172741317Y-87701662D01*
X172957441Y-87562590D01*
X173102431Y-87350390D01*
X173153440Y-87098500D01*
X173153440Y-85748500D01*
X173146196Y-85710000D01*
X186663996Y-85710000D01*
X186616996Y-85756918D01*
X186616996Y-85756918D01*
G37*
X186616996Y-85756918D02*
X186352301Y-86394373D01*
X186351699Y-87084599D01*
X186615281Y-87722515D01*
X187102918Y-88211004D01*
X187442474Y-88352000D01*
X187369173Y-88425301D01*
X187272500Y-88658690D01*
X187272500Y-89249250D01*
X187431250Y-89408000D01*
X188530500Y-89408000D01*
X188530500Y-89388000D01*
X188784500Y-89388000D01*
X188784500Y-89408000D01*
X188804500Y-89408000D01*
X188804500Y-89662000D01*
X188784500Y-89662000D01*
X188784500Y-91503500D01*
X188804500Y-91503500D01*
X188804500Y-91757500D01*
X188784500Y-91757500D01*
X188784500Y-91777500D01*
X188530500Y-91777500D01*
X188530500Y-91757500D01*
X187431250Y-91757500D01*
X187272500Y-91916250D01*
X187272500Y-92506810D01*
X187369173Y-92740199D01*
X187379112Y-92750138D01*
X187328569Y-92824110D01*
X187325919Y-92837197D01*
X187189090Y-92624559D01*
X186976890Y-92479569D01*
X186744412Y-92432491D01*
X186754940Y-92380500D01*
X186754940Y-90880500D01*
X186710662Y-90645183D01*
X186671510Y-90584339D01*
X186703931Y-90536890D01*
X186754940Y-90285000D01*
X186754940Y-89820750D01*
X187272500Y-89820750D01*
X187272500Y-90411310D01*
X187343513Y-90582750D01*
X187272500Y-90754190D01*
X187272500Y-91344750D01*
X187431250Y-91503500D01*
X188530500Y-91503500D01*
X188530500Y-89662000D01*
X187431250Y-89662000D01*
X187272500Y-89820750D01*
X186754940Y-89820750D01*
X186754940Y-88785000D01*
X186710662Y-88549683D01*
X186571590Y-88333559D01*
X186359390Y-88188569D01*
X186147000Y-88145559D01*
X186147000Y-87534750D01*
X185988250Y-87376000D01*
X184549000Y-87376000D01*
X184549000Y-87396000D01*
X184295000Y-87396000D01*
X184295000Y-87376000D01*
X182855750Y-87376000D01*
X182697000Y-87534750D01*
X182697000Y-88175310D01*
X182793673Y-88408699D01*
X182972302Y-88587327D01*
X183205691Y-88684000D01*
X183980513Y-88684000D01*
X183960060Y-88785000D01*
X183960060Y-89410000D01*
X182685742Y-89410000D01*
X182662162Y-89284683D01*
X182523090Y-89068559D01*
X182310890Y-88923569D01*
X182059000Y-88872560D01*
X180559000Y-88872560D01*
X180323683Y-88916838D01*
X180107559Y-89055910D01*
X179962569Y-89268110D01*
X179959919Y-89281197D01*
X179823090Y-89068559D01*
X179610890Y-88923569D01*
X179359000Y-88872560D01*
X177859000Y-88872560D01*
X177623683Y-88916838D01*
X177407559Y-89055910D01*
X177262569Y-89268110D01*
X177259802Y-89281776D01*
X177133699Y-89155673D01*
X176900310Y-89059000D01*
X176434750Y-89059000D01*
X176276002Y-89217748D01*
X176276002Y-89059000D01*
X176194862Y-89059000D01*
X176195162Y-88714833D01*
X176187562Y-88696440D01*
X176332000Y-88696440D01*
X176567317Y-88652162D01*
X176783441Y-88513090D01*
X176928431Y-88300890D01*
X176979440Y-88049000D01*
X176979440Y-86449000D01*
X176955674Y-86322690D01*
X182697000Y-86322690D01*
X182697000Y-86963250D01*
X182855750Y-87122000D01*
X184295000Y-87122000D01*
X184295000Y-85972750D01*
X184549000Y-85972750D01*
X184549000Y-87122000D01*
X185988250Y-87122000D01*
X186147000Y-86963250D01*
X186147000Y-86322690D01*
X186050327Y-86089301D01*
X185871698Y-85910673D01*
X185638309Y-85814000D01*
X184707750Y-85814000D01*
X184549000Y-85972750D01*
X184295000Y-85972750D01*
X184136250Y-85814000D01*
X183205691Y-85814000D01*
X182972302Y-85910673D01*
X182793673Y-86089301D01*
X182697000Y-86322690D01*
X176955674Y-86322690D01*
X176935162Y-86213683D01*
X176796090Y-85997559D01*
X176583890Y-85852569D01*
X176332000Y-85801560D01*
X174152000Y-85801560D01*
X173916683Y-85845838D01*
X173700559Y-85984910D01*
X173555569Y-86197110D01*
X173504560Y-86449000D01*
X173504560Y-88049000D01*
X173548838Y-88284317D01*
X173687910Y-88500441D01*
X173900110Y-88645431D01*
X174152000Y-88696440D01*
X174332122Y-88696440D01*
X174325162Y-88713201D01*
X174324838Y-89085167D01*
X174466883Y-89428943D01*
X174729673Y-89692192D01*
X174889000Y-89758351D01*
X174889000Y-90158250D01*
X175047750Y-90317000D01*
X176022000Y-90317000D01*
X176022000Y-90297000D01*
X176276000Y-90297000D01*
X176276000Y-90317000D01*
X176296000Y-90317000D01*
X176296000Y-90571000D01*
X176276000Y-90571000D01*
X176276000Y-90591000D01*
X176022000Y-90591000D01*
X176022000Y-90571000D01*
X175047750Y-90571000D01*
X174889000Y-90729750D01*
X174889000Y-90756198D01*
X174369000Y-90236198D01*
X174369000Y-89789000D01*
X174311148Y-89498161D01*
X174146401Y-89251599D01*
X173638401Y-88743599D01*
X173557940Y-88689837D01*
X173557940Y-88431000D01*
X173513662Y-88195683D01*
X173374590Y-87979559D01*
X173162390Y-87834569D01*
X172910500Y-87783560D01*
X170710000Y-87783560D01*
X170710000Y-87562301D01*
X170904110Y-87694931D01*
X171156000Y-87745940D01*
X172506000Y-87745940D01*
X172741317Y-87701662D01*
X172957441Y-87562590D01*
X173102431Y-87350390D01*
X173153440Y-87098500D01*
X173153440Y-85748500D01*
X173146196Y-85710000D01*
X186663996Y-85710000D01*
X186616996Y-85756918D01*
M02*
