G04 #@! TF.FileFunction,Soldermask,Bot*
%FSLAX46Y46*%
G04 Gerber Fmt 4.6, Leading zero omitted, Abs format (unit mm)*
G04 Created by KiCad (PCBNEW 4.0.2-stable) date 29.05.2017 13:31:58*
%MOMM*%
G01*
G04 APERTURE LIST*
%ADD10C,0.100000*%
%ADD11R,3.400000X2.100000*%
%ADD12R,2.000000X0.950000*%
%ADD13R,0.950000X2.000000*%
%ADD14C,2.100000*%
%ADD15O,2.100000X2.100000*%
%ADD16R,1.600000X2.924000*%
%ADD17R,1.650000X1.900000*%
%ADD18R,1.900000X1.650000*%
%ADD19R,1.900000X1.700000*%
%ADD20R,2.200000X2.150000*%
%ADD21C,2.600000*%
%ADD22R,1.750000X1.750000*%
G04 APERTURE END LIST*
D10*
D11*
X171410500Y-99441000D03*
X171410500Y-94361000D03*
X171410500Y-89281000D03*
X171386500Y-96901000D03*
X171386500Y-91821000D03*
D12*
X175963000Y-117417500D03*
X175963000Y-116617500D03*
X175963000Y-115817500D03*
X175963000Y-115017500D03*
X175963000Y-114217500D03*
X175963000Y-113417500D03*
X175963000Y-112617500D03*
X175963000Y-111817500D03*
D13*
X177413000Y-110367500D03*
X178213000Y-110367500D03*
X179013000Y-110367500D03*
X179813000Y-110367500D03*
X180613000Y-110367500D03*
X181413000Y-110367500D03*
X182213000Y-110367500D03*
X183013000Y-110367500D03*
D12*
X184463000Y-111817500D03*
X184463000Y-112617500D03*
X184463000Y-113417500D03*
X184463000Y-114217500D03*
X184463000Y-115017500D03*
X184463000Y-115817500D03*
X184463000Y-116617500D03*
X184463000Y-117417500D03*
D13*
X183013000Y-118867500D03*
X182213000Y-118867500D03*
X181413000Y-118867500D03*
X180613000Y-118867500D03*
X179813000Y-118867500D03*
X179013000Y-118867500D03*
X178213000Y-118867500D03*
X177413000Y-118867500D03*
D14*
X188658500Y-113601500D03*
D15*
X188658500Y-116141500D03*
X188658500Y-118681500D03*
X188658500Y-121221500D03*
D14*
X188722000Y-123761500D03*
D15*
X186182000Y-123761500D03*
X183642000Y-123761500D03*
X181102000Y-123761500D03*
X178562000Y-123761500D03*
X176022000Y-123761500D03*
D16*
X188610000Y-107282000D03*
X186610000Y-107282000D03*
X184610000Y-107282000D03*
X182610000Y-107282000D03*
X180610000Y-107282000D03*
X178610000Y-107282000D03*
X176610000Y-107282000D03*
X174610000Y-107282000D03*
X180610000Y-88282000D03*
X182610000Y-88282000D03*
X178610000Y-88282000D03*
D17*
X186690000Y-114193000D03*
X186690000Y-116693000D03*
X173799500Y-115971000D03*
X173799500Y-118471000D03*
D18*
X188448000Y-109791500D03*
X185948000Y-109791500D03*
D19*
X179879000Y-121158000D03*
X182579000Y-121158000D03*
D17*
X171704000Y-115971000D03*
X171704000Y-118471000D03*
X171831000Y-107739500D03*
X171831000Y-105239500D03*
D20*
X172085000Y-113512000D03*
X172085000Y-110262000D03*
D21*
X188087000Y-86741000D03*
X171958000Y-123190000D03*
D22*
X171831000Y-86423500D03*
M02*
