G04 #@! TF.FileFunction,Soldermask,Bot*
%FSLAX46Y46*%
G04 Gerber Fmt 4.6, Leading zero omitted, Abs format (unit mm)*
G04 Created by KiCad (PCBNEW 4.0.2-stable) date 08.08.2017 13:07:48*
%MOMM*%
G01*
G04 APERTURE LIST*
%ADD10C,0.100000*%
%ADD11C,2.100000*%
%ADD12O,2.100000X2.100000*%
%ADD13C,2.600000*%
%ADD14R,1.000000X1.300000*%
%ADD15R,1.650000X1.400000*%
%ADD16R,2.200000X2.900000*%
%ADD17R,1.700000X1.100000*%
G04 APERTURE END LIST*
D10*
D11*
X188595000Y-103886000D03*
D12*
X188595000Y-106426000D03*
D11*
X170942000Y-97104200D03*
D12*
X173482000Y-97104200D03*
X176022000Y-97104200D03*
X178562000Y-97104200D03*
X181102000Y-97104200D03*
X183642000Y-97104200D03*
X186182000Y-97104200D03*
X188722000Y-97104200D03*
D11*
X188658500Y-113601500D03*
D12*
X188658500Y-116141500D03*
X188658500Y-118681500D03*
X188658500Y-121221500D03*
D11*
X188722000Y-123761500D03*
D12*
X186182000Y-123761500D03*
X183642000Y-123761500D03*
X181102000Y-123761500D03*
X178562000Y-123761500D03*
X176022000Y-123761500D03*
D13*
X171958000Y-123190000D03*
X179832000Y-119888000D03*
D14*
X182143400Y-115211400D03*
X181193400Y-118011400D03*
X183093400Y-118011400D03*
D15*
X185470800Y-115713000D03*
X185470800Y-117713000D03*
X178689000Y-115751100D03*
X178689000Y-117751100D03*
D16*
X171805600Y-100412800D03*
X171805600Y-104412800D03*
D17*
X173101000Y-111673600D03*
X173101000Y-113573600D03*
X171272200Y-111673600D03*
X171272200Y-113573600D03*
D14*
X172034200Y-109985000D03*
X172984200Y-107185000D03*
X171084200Y-107185000D03*
D16*
X176225200Y-100412800D03*
X176225200Y-104412800D03*
X180492400Y-100463600D03*
X180492400Y-104463600D03*
X184734200Y-100412800D03*
X184734200Y-104412800D03*
D14*
X176250600Y-110010400D03*
X177200600Y-107210400D03*
X175300600Y-107210400D03*
X180492400Y-110010400D03*
X181442400Y-107210400D03*
X179542400Y-107210400D03*
X184734200Y-109985000D03*
X185684200Y-107185000D03*
X183784200Y-107185000D03*
D17*
X177368200Y-111699000D03*
X177368200Y-113599000D03*
X175514000Y-111699000D03*
X175514000Y-113599000D03*
X181559200Y-111699000D03*
X181559200Y-113599000D03*
X179730400Y-111699000D03*
X179730400Y-113599000D03*
X185801000Y-111724400D03*
X185801000Y-113624400D03*
X183972200Y-111724400D03*
X183972200Y-113624400D03*
M02*
