M48
;DRILL file {KiCad 4.0.2-stable} date 05.09.2017 20:58:17
;FORMAT={-:-/ absolute / metric / decimal}
FMAT,2
METRIC,TZ
T1C0.400
T2C1.000
T3C2.200
%
G90
G05
M71
T1
X171.806Y-104.413
X173.799Y-109.982
X176.225Y-104.413
X178.092Y-110.007
X180.492Y-104.464
X181.927Y-114.821
X182.334Y-109.995
X184.76Y-104.305
X185.534Y-120.04
X186.487Y-109.982
X187.173Y-111.214
T2
X170.942Y-97.104
X173.482Y-97.104
X176.022Y-97.104
X176.022Y-123.761
X178.562Y-97.104
X178.562Y-123.761
X181.102Y-97.104
X181.102Y-123.761
X183.642Y-97.104
X183.642Y-123.761
X186.182Y-97.104
X186.182Y-123.761
X188.595Y-103.886
X188.595Y-106.426
X188.659Y-113.602
X188.659Y-116.141
X188.659Y-118.681
X188.659Y-121.221
X188.722Y-97.104
X188.722Y-123.761
T3
X171.958Y-123.19
X179.832Y-119.888
T0
M30
