G04 #@! TF.FileFunction,Legend,Top*
%FSLAX46Y46*%
G04 Gerber Fmt 4.6, Leading zero omitted, Abs format (unit mm)*
G04 Created by KiCad (PCBNEW 4.0.2-stable) date 18.08.2017 11:21:27*
%MOMM*%
G01*
G04 APERTURE LIST*
%ADD10C,0.100000*%
%ADD11C,0.200000*%
%ADD12C,0.120000*%
%ADD13C,0.150000*%
%ADD14C,0.075000*%
G04 APERTURE END LIST*
D10*
D11*
X187642477Y-95746914D02*
X187642477Y-96413581D01*
X187404381Y-95365962D02*
X187166286Y-96080248D01*
X187785334Y-96080248D01*
X182038667Y-95413581D02*
X182657715Y-95413581D01*
X182324381Y-95794533D01*
X182467239Y-95794533D01*
X182562477Y-95842152D01*
X182610096Y-95889771D01*
X182657715Y-95985010D01*
X182657715Y-96223105D01*
X182610096Y-96318343D01*
X182562477Y-96365962D01*
X182467239Y-96413581D01*
X182181524Y-96413581D01*
X182086286Y-96365962D01*
X182038667Y-96318343D01*
X177031686Y-95483419D02*
X177079305Y-95435800D01*
X177174543Y-95388181D01*
X177412639Y-95388181D01*
X177507877Y-95435800D01*
X177555496Y-95483419D01*
X177603115Y-95578657D01*
X177603115Y-95673895D01*
X177555496Y-95816752D01*
X176984067Y-96388181D01*
X177603115Y-96388181D01*
X172523115Y-96388181D02*
X171951686Y-96388181D01*
X172237400Y-96388181D02*
X172237400Y-95388181D01*
X172142162Y-95531038D01*
X172046924Y-95626276D01*
X171951686Y-95673895D01*
X184886600Y-95377000D02*
X184886600Y-98501200D01*
X179857400Y-95377000D02*
X179857400Y-98602800D01*
X174726600Y-95377000D02*
X174726600Y-98552000D01*
D10*
X187955315Y-101881029D02*
X188155315Y-102481029D01*
X188355315Y-101881029D01*
X188555315Y-102481029D02*
X188555315Y-102081029D01*
X188555315Y-101881029D02*
X188526744Y-101909600D01*
X188555315Y-101938171D01*
X188583887Y-101909600D01*
X188555315Y-101881029D01*
X188555315Y-101938171D01*
X188841029Y-102081029D02*
X188841029Y-102481029D01*
X188841029Y-102138171D02*
X188869601Y-102109600D01*
X188926743Y-102081029D01*
X189012458Y-102081029D01*
X189069601Y-102109600D01*
X189098172Y-102166743D01*
X189098172Y-102481029D01*
X188188658Y-107751600D02*
X188131515Y-107723029D01*
X188045801Y-107723029D01*
X187960086Y-107751600D01*
X187902944Y-107808743D01*
X187874372Y-107865886D01*
X187845801Y-107980171D01*
X187845801Y-108065886D01*
X187874372Y-108180171D01*
X187902944Y-108237314D01*
X187960086Y-108294457D01*
X188045801Y-108323029D01*
X188102944Y-108323029D01*
X188188658Y-108294457D01*
X188217229Y-108265886D01*
X188217229Y-108065886D01*
X188102944Y-108065886D01*
X188474372Y-108323029D02*
X188474372Y-107723029D01*
X188817229Y-108323029D01*
X188817229Y-107723029D01*
X189102943Y-108323029D02*
X189102943Y-107723029D01*
X189245800Y-107723029D01*
X189331515Y-107751600D01*
X189388657Y-107808743D01*
X189417229Y-107865886D01*
X189445800Y-107980171D01*
X189445800Y-108065886D01*
X189417229Y-108180171D01*
X189388657Y-108237314D01*
X189331515Y-108294457D01*
X189245800Y-108323029D01*
X189102943Y-108323029D01*
D11*
X175012505Y-120365781D02*
X174679171Y-119889590D01*
X174441076Y-120365781D02*
X174441076Y-119365781D01*
X174822029Y-119365781D01*
X174917267Y-119413400D01*
X174964886Y-119461019D01*
X175012505Y-119556257D01*
X175012505Y-119699114D01*
X174964886Y-119794352D01*
X174917267Y-119841971D01*
X174822029Y-119889590D01*
X174441076Y-119889590D01*
X175822029Y-120318162D02*
X175726791Y-120365781D01*
X175536314Y-120365781D01*
X175441076Y-120318162D01*
X175393457Y-120222924D01*
X175393457Y-119841971D01*
X175441076Y-119746733D01*
X175536314Y-119699114D01*
X175726791Y-119699114D01*
X175822029Y-119746733D01*
X175869648Y-119841971D01*
X175869648Y-119937210D01*
X175393457Y-120032448D01*
X176250600Y-120318162D02*
X176345838Y-120365781D01*
X176536314Y-120365781D01*
X176631553Y-120318162D01*
X176679172Y-120222924D01*
X176679172Y-120175305D01*
X176631553Y-120080067D01*
X176536314Y-120032448D01*
X176393457Y-120032448D01*
X176298219Y-119984829D01*
X176250600Y-119889590D01*
X176250600Y-119841971D01*
X176298219Y-119746733D01*
X176393457Y-119699114D01*
X176536314Y-119699114D01*
X176631553Y-119746733D01*
X177488696Y-120318162D02*
X177393458Y-120365781D01*
X177202981Y-120365781D01*
X177107743Y-120318162D01*
X177060124Y-120222924D01*
X177060124Y-119841971D01*
X177107743Y-119746733D01*
X177202981Y-119699114D01*
X177393458Y-119699114D01*
X177488696Y-119746733D01*
X177536315Y-119841971D01*
X177536315Y-119937210D01*
X177060124Y-120032448D01*
X177822029Y-119699114D02*
X178202981Y-119699114D01*
X177964886Y-119365781D02*
X177964886Y-120222924D01*
X178012505Y-120318162D01*
X178107743Y-120365781D01*
X178202981Y-120365781D01*
D10*
X187795000Y-111787029D02*
X187995000Y-112387029D01*
X188195000Y-111787029D01*
X188737857Y-112329886D02*
X188709286Y-112358457D01*
X188623572Y-112387029D01*
X188566429Y-112387029D01*
X188480714Y-112358457D01*
X188423572Y-112301314D01*
X188395000Y-112244171D01*
X188366429Y-112129886D01*
X188366429Y-112044171D01*
X188395000Y-111929886D01*
X188423572Y-111872743D01*
X188480714Y-111815600D01*
X188566429Y-111787029D01*
X188623572Y-111787029D01*
X188709286Y-111815600D01*
X188737857Y-111844171D01*
X189337857Y-112329886D02*
X189309286Y-112358457D01*
X189223572Y-112387029D01*
X189166429Y-112387029D01*
X189080714Y-112358457D01*
X189023572Y-112301314D01*
X188995000Y-112244171D01*
X188966429Y-112129886D01*
X188966429Y-112044171D01*
X188995000Y-111929886D01*
X189023572Y-111872743D01*
X189080714Y-111815600D01*
X189166429Y-111787029D01*
X189223572Y-111787029D01*
X189309286Y-111815600D01*
X189337857Y-111844171D01*
X175501357Y-122099429D02*
X175844214Y-122099429D01*
X175672785Y-122699429D02*
X175672785Y-122099429D01*
X176301357Y-122299429D02*
X176301357Y-122699429D01*
X176158500Y-122070857D02*
X176015643Y-122499429D01*
X176387071Y-122499429D01*
X178041357Y-122162929D02*
X178384214Y-122162929D01*
X178212785Y-122762929D02*
X178212785Y-122162929D01*
X178527071Y-122162929D02*
X178898500Y-122162929D01*
X178698500Y-122391500D01*
X178784214Y-122391500D01*
X178841357Y-122420071D01*
X178869928Y-122448643D01*
X178898500Y-122505786D01*
X178898500Y-122648643D01*
X178869928Y-122705786D01*
X178841357Y-122734357D01*
X178784214Y-122762929D01*
X178612786Y-122762929D01*
X178555643Y-122734357D01*
X178527071Y-122705786D01*
X180581357Y-122099429D02*
X180924214Y-122099429D01*
X180752785Y-122699429D02*
X180752785Y-122099429D01*
X181095643Y-122156571D02*
X181124214Y-122128000D01*
X181181357Y-122099429D01*
X181324214Y-122099429D01*
X181381357Y-122128000D01*
X181409928Y-122156571D01*
X181438500Y-122213714D01*
X181438500Y-122270857D01*
X181409928Y-122356571D01*
X181067071Y-122699429D01*
X181438500Y-122699429D01*
X183121357Y-122099429D02*
X183464214Y-122099429D01*
X183292785Y-122699429D02*
X183292785Y-122099429D01*
X183978500Y-122699429D02*
X183635643Y-122699429D01*
X183807071Y-122699429D02*
X183807071Y-122099429D01*
X183749928Y-122185143D01*
X183692786Y-122242286D01*
X183635643Y-122270857D01*
X185955000Y-122699429D02*
X185755000Y-122413714D01*
X185612143Y-122699429D02*
X185612143Y-122099429D01*
X185840715Y-122099429D01*
X185897857Y-122128000D01*
X185926429Y-122156571D01*
X185955000Y-122213714D01*
X185955000Y-122299429D01*
X185926429Y-122356571D01*
X185897857Y-122385143D01*
X185840715Y-122413714D01*
X185612143Y-122413714D01*
X186469286Y-122299429D02*
X186469286Y-122699429D01*
X186326429Y-122070857D02*
X186183572Y-122499429D01*
X186555000Y-122499429D01*
X187890719Y-123008140D02*
X187547266Y-122947530D01*
X187648282Y-123250576D02*
X187224018Y-122826312D01*
X187385643Y-122664688D01*
X187446251Y-122644485D01*
X187486657Y-122644484D01*
X187547266Y-122664688D01*
X187607876Y-122725297D01*
X187628079Y-122785905D01*
X187628079Y-122826312D01*
X187607876Y-122886921D01*
X187446251Y-123048545D01*
X187607876Y-122442455D02*
X187870516Y-122179815D01*
X187890719Y-122482860D01*
X187951328Y-122422251D01*
X188011937Y-122402048D01*
X188052343Y-122402048D01*
X188112952Y-122422251D01*
X188213968Y-122523266D01*
X188234170Y-122583876D01*
X188234170Y-122624281D01*
X188213968Y-122684891D01*
X188092750Y-122806109D01*
X188032140Y-122826312D01*
X187991734Y-122826312D01*
X187532929Y-121258000D02*
X187247214Y-121458000D01*
X187532929Y-121600857D02*
X186932929Y-121600857D01*
X186932929Y-121372285D01*
X186961500Y-121315143D01*
X186990071Y-121286571D01*
X187047214Y-121258000D01*
X187132929Y-121258000D01*
X187190071Y-121286571D01*
X187218643Y-121315143D01*
X187247214Y-121372285D01*
X187247214Y-121600857D01*
X186990071Y-121029428D02*
X186961500Y-121000857D01*
X186932929Y-120943714D01*
X186932929Y-120800857D01*
X186961500Y-120743714D01*
X186990071Y-120715143D01*
X187047214Y-120686571D01*
X187104357Y-120686571D01*
X187190071Y-120715143D01*
X187532929Y-121058000D01*
X187532929Y-120686571D01*
X187532929Y-118781500D02*
X187247214Y-118981500D01*
X187532929Y-119124357D02*
X186932929Y-119124357D01*
X186932929Y-118895785D01*
X186961500Y-118838643D01*
X186990071Y-118810071D01*
X187047214Y-118781500D01*
X187132929Y-118781500D01*
X187190071Y-118810071D01*
X187218643Y-118838643D01*
X187247214Y-118895785D01*
X187247214Y-119124357D01*
X187532929Y-118210071D02*
X187532929Y-118552928D01*
X187532929Y-118381500D02*
X186932929Y-118381500D01*
X187018643Y-118438643D01*
X187075786Y-118495785D01*
X187104357Y-118552928D01*
X187025000Y-116662142D02*
X186996429Y-116719285D01*
X186996429Y-116804999D01*
X187025000Y-116890714D01*
X187082143Y-116947856D01*
X187139286Y-116976428D01*
X187253571Y-117004999D01*
X187339286Y-117004999D01*
X187453571Y-116976428D01*
X187510714Y-116947856D01*
X187567857Y-116890714D01*
X187596429Y-116804999D01*
X187596429Y-116747856D01*
X187567857Y-116662142D01*
X187539286Y-116633571D01*
X187339286Y-116633571D01*
X187339286Y-116747856D01*
X187596429Y-116376428D02*
X186996429Y-116376428D01*
X187596429Y-116033571D01*
X186996429Y-116033571D01*
X187596429Y-115747857D02*
X186996429Y-115747857D01*
X186996429Y-115605000D01*
X187025000Y-115519285D01*
X187082143Y-115462143D01*
X187139286Y-115433571D01*
X187253571Y-115405000D01*
X187339286Y-115405000D01*
X187453571Y-115433571D01*
X187510714Y-115462143D01*
X187567857Y-115519285D01*
X187596429Y-115605000D01*
X187596429Y-115747857D01*
D12*
X170300400Y-115099400D02*
X170300400Y-108979400D01*
X170300400Y-108979400D02*
X173920400Y-108979400D01*
X173920400Y-108979400D02*
X173920400Y-115099400D01*
X173920400Y-115099400D02*
X170300400Y-115099400D01*
X174491400Y-115074000D02*
X174491400Y-108954000D01*
X174491400Y-108954000D02*
X178111400Y-108954000D01*
X178111400Y-108954000D02*
X178111400Y-115074000D01*
X178111400Y-115074000D02*
X174491400Y-115074000D01*
X178707800Y-115074000D02*
X178707800Y-108954000D01*
X178707800Y-108954000D02*
X182327800Y-108954000D01*
X182327800Y-108954000D02*
X182327800Y-115074000D01*
X182327800Y-115074000D02*
X178707800Y-115074000D01*
X182949600Y-115074000D02*
X182949600Y-108954000D01*
X182949600Y-108954000D02*
X186569600Y-108954000D01*
X186569600Y-108954000D02*
X186569600Y-115074000D01*
X186569600Y-115074000D02*
X182949600Y-115074000D01*
X181197600Y-118466600D02*
X185747600Y-118466600D01*
X181197600Y-121766600D02*
X185747600Y-121766600D01*
X181197600Y-118466600D02*
X181197600Y-121766600D01*
X171158800Y-105928800D02*
X172858800Y-105928800D01*
X172858800Y-105878800D02*
X172858800Y-101828800D01*
X171158800Y-105878800D02*
X171158800Y-101828800D01*
X172608800Y-100676600D02*
X171408800Y-100676600D01*
X171408800Y-98916600D02*
X172608800Y-98916600D01*
X175426000Y-105928800D02*
X177126000Y-105928800D01*
X177126000Y-105878800D02*
X177126000Y-101828800D01*
X175426000Y-105878800D02*
X175426000Y-101828800D01*
X179642400Y-105928800D02*
X181342400Y-105928800D01*
X181342400Y-105878800D02*
X181342400Y-101828800D01*
X179642400Y-105878800D02*
X179642400Y-101828800D01*
X183909600Y-105928800D02*
X185609600Y-105928800D01*
X185609600Y-105878800D02*
X185609600Y-101828800D01*
X183909600Y-105878800D02*
X183909600Y-101828800D01*
X175676000Y-98916600D02*
X176876000Y-98916600D01*
X176876000Y-100676600D02*
X175676000Y-100676600D01*
X179867000Y-98942000D02*
X181067000Y-98942000D01*
X181067000Y-100702000D02*
X179867000Y-100702000D01*
X184108800Y-98916600D02*
X185308800Y-98916600D01*
X185308800Y-100676600D02*
X184108800Y-100676600D01*
D13*
X172489762Y-113423533D02*
X172537381Y-113280676D01*
X172537381Y-113042580D01*
X172489762Y-112947342D01*
X172442143Y-112899723D01*
X172346905Y-112852104D01*
X172251667Y-112852104D01*
X172156429Y-112899723D01*
X172108810Y-112947342D01*
X172061190Y-113042580D01*
X172013571Y-113233057D01*
X171965952Y-113328295D01*
X171918333Y-113375914D01*
X171823095Y-113423533D01*
X171727857Y-113423533D01*
X171632619Y-113375914D01*
X171585000Y-113328295D01*
X171537381Y-113233057D01*
X171537381Y-112994961D01*
X171585000Y-112852104D01*
X171537381Y-112518771D02*
X172537381Y-112280676D01*
X171823095Y-112090199D01*
X172537381Y-111899723D01*
X171537381Y-111661628D01*
X172537381Y-110756866D02*
X172537381Y-111328295D01*
X172537381Y-111042581D02*
X171537381Y-111042581D01*
X171680238Y-111137819D01*
X171775476Y-111233057D01*
X171823095Y-111328295D01*
X176706162Y-113499733D02*
X176753781Y-113356876D01*
X176753781Y-113118780D01*
X176706162Y-113023542D01*
X176658543Y-112975923D01*
X176563305Y-112928304D01*
X176468067Y-112928304D01*
X176372829Y-112975923D01*
X176325210Y-113023542D01*
X176277590Y-113118780D01*
X176229971Y-113309257D01*
X176182352Y-113404495D01*
X176134733Y-113452114D01*
X176039495Y-113499733D01*
X175944257Y-113499733D01*
X175849019Y-113452114D01*
X175801400Y-113404495D01*
X175753781Y-113309257D01*
X175753781Y-113071161D01*
X175801400Y-112928304D01*
X175753781Y-112594971D02*
X176753781Y-112356876D01*
X176039495Y-112166399D01*
X176753781Y-111975923D01*
X175753781Y-111737828D01*
X175849019Y-111404495D02*
X175801400Y-111356876D01*
X175753781Y-111261638D01*
X175753781Y-111023542D01*
X175801400Y-110928304D01*
X175849019Y-110880685D01*
X175944257Y-110833066D01*
X176039495Y-110833066D01*
X176182352Y-110880685D01*
X176753781Y-111452114D01*
X176753781Y-110833066D01*
X180973362Y-113448933D02*
X181020981Y-113306076D01*
X181020981Y-113067980D01*
X180973362Y-112972742D01*
X180925743Y-112925123D01*
X180830505Y-112877504D01*
X180735267Y-112877504D01*
X180640029Y-112925123D01*
X180592410Y-112972742D01*
X180544790Y-113067980D01*
X180497171Y-113258457D01*
X180449552Y-113353695D01*
X180401933Y-113401314D01*
X180306695Y-113448933D01*
X180211457Y-113448933D01*
X180116219Y-113401314D01*
X180068600Y-113353695D01*
X180020981Y-113258457D01*
X180020981Y-113020361D01*
X180068600Y-112877504D01*
X180020981Y-112544171D02*
X181020981Y-112306076D01*
X180306695Y-112115599D01*
X181020981Y-111925123D01*
X180020981Y-111687028D01*
X180020981Y-111401314D02*
X180020981Y-110782266D01*
X180401933Y-111115600D01*
X180401933Y-110972742D01*
X180449552Y-110877504D01*
X180497171Y-110829885D01*
X180592410Y-110782266D01*
X180830505Y-110782266D01*
X180925743Y-110829885D01*
X180973362Y-110877504D01*
X181020981Y-110972742D01*
X181020981Y-111258457D01*
X180973362Y-111353695D01*
X180925743Y-111401314D01*
X185088162Y-113474333D02*
X185135781Y-113331476D01*
X185135781Y-113093380D01*
X185088162Y-112998142D01*
X185040543Y-112950523D01*
X184945305Y-112902904D01*
X184850067Y-112902904D01*
X184754829Y-112950523D01*
X184707210Y-112998142D01*
X184659590Y-113093380D01*
X184611971Y-113283857D01*
X184564352Y-113379095D01*
X184516733Y-113426714D01*
X184421495Y-113474333D01*
X184326257Y-113474333D01*
X184231019Y-113426714D01*
X184183400Y-113379095D01*
X184135781Y-113283857D01*
X184135781Y-113045761D01*
X184183400Y-112902904D01*
X184135781Y-112569571D02*
X185135781Y-112331476D01*
X184421495Y-112140999D01*
X185135781Y-111950523D01*
X184135781Y-111712428D01*
X184469114Y-110902904D02*
X185135781Y-110902904D01*
X184088162Y-111141000D02*
X184802448Y-111379095D01*
X184802448Y-110760047D01*
D12*
X184283314Y-120249933D02*
X184321410Y-120288028D01*
X184359505Y-120402314D01*
X184359505Y-120478504D01*
X184321410Y-120592790D01*
X184245219Y-120668981D01*
X184169029Y-120707076D01*
X184016648Y-120745171D01*
X183902362Y-120745171D01*
X183749981Y-120707076D01*
X183673790Y-120668981D01*
X183597600Y-120592790D01*
X183559505Y-120478504D01*
X183559505Y-120402314D01*
X183597600Y-120288028D01*
X183635695Y-120249933D01*
X183559505Y-119983266D02*
X183559505Y-119488028D01*
X183864267Y-119754695D01*
X183864267Y-119640409D01*
X183902362Y-119564219D01*
X183940457Y-119526123D01*
X184016648Y-119488028D01*
X184207124Y-119488028D01*
X184283314Y-119526123D01*
X184321410Y-119564219D01*
X184359505Y-119640409D01*
X184359505Y-119868981D01*
X184321410Y-119945171D01*
X184283314Y-119983266D01*
D13*
X172537381Y-104166895D02*
X171537381Y-104166895D01*
X171537381Y-103928800D01*
X171585000Y-103785942D01*
X171680238Y-103690704D01*
X171775476Y-103643085D01*
X171965952Y-103595466D01*
X172108810Y-103595466D01*
X172299286Y-103643085D01*
X172394524Y-103690704D01*
X172489762Y-103785942D01*
X172537381Y-103928800D01*
X172537381Y-104166895D01*
X171632619Y-103214514D02*
X171585000Y-103166895D01*
X171537381Y-103071657D01*
X171537381Y-102833561D01*
X171585000Y-102738323D01*
X171632619Y-102690704D01*
X171727857Y-102643085D01*
X171823095Y-102643085D01*
X171965952Y-102690704D01*
X172537381Y-103262133D01*
X172537381Y-102643085D01*
D14*
X172234990Y-99879933D02*
X171996895Y-100046600D01*
X172234990Y-100165647D02*
X171734990Y-100165647D01*
X171734990Y-99975171D01*
X171758800Y-99927552D01*
X171782610Y-99903743D01*
X171830229Y-99879933D01*
X171901657Y-99879933D01*
X171949276Y-99903743D01*
X171973086Y-99927552D01*
X171996895Y-99975171D01*
X171996895Y-100165647D01*
X171734990Y-99713266D02*
X171734990Y-99403743D01*
X171925467Y-99570409D01*
X171925467Y-99498981D01*
X171949276Y-99451362D01*
X171973086Y-99427552D01*
X172020705Y-99403743D01*
X172139752Y-99403743D01*
X172187371Y-99427552D01*
X172211181Y-99451362D01*
X172234990Y-99498981D01*
X172234990Y-99641838D01*
X172211181Y-99689457D01*
X172187371Y-99713266D01*
D13*
X176753781Y-104166895D02*
X175753781Y-104166895D01*
X175753781Y-103928800D01*
X175801400Y-103785942D01*
X175896638Y-103690704D01*
X175991876Y-103643085D01*
X176182352Y-103595466D01*
X176325210Y-103595466D01*
X176515686Y-103643085D01*
X176610924Y-103690704D01*
X176706162Y-103785942D01*
X176753781Y-103928800D01*
X176753781Y-104166895D01*
X176087114Y-102738323D02*
X176753781Y-102738323D01*
X175706162Y-102976419D02*
X176420448Y-103214514D01*
X176420448Y-102595466D01*
X181020981Y-104192295D02*
X180020981Y-104192295D01*
X180020981Y-103954200D01*
X180068600Y-103811342D01*
X180163838Y-103716104D01*
X180259076Y-103668485D01*
X180449552Y-103620866D01*
X180592410Y-103620866D01*
X180782886Y-103668485D01*
X180878124Y-103716104D01*
X180973362Y-103811342D01*
X181020981Y-103954200D01*
X181020981Y-104192295D01*
X180020981Y-102763723D02*
X180020981Y-102954200D01*
X180068600Y-103049438D01*
X180116219Y-103097057D01*
X180259076Y-103192295D01*
X180449552Y-103239914D01*
X180830505Y-103239914D01*
X180925743Y-103192295D01*
X180973362Y-103144676D01*
X181020981Y-103049438D01*
X181020981Y-102858961D01*
X180973362Y-102763723D01*
X180925743Y-102716104D01*
X180830505Y-102668485D01*
X180592410Y-102668485D01*
X180497171Y-102716104D01*
X180449552Y-102763723D01*
X180401933Y-102858961D01*
X180401933Y-103049438D01*
X180449552Y-103144676D01*
X180497171Y-103192295D01*
X180592410Y-103239914D01*
X185262781Y-104192295D02*
X184262781Y-104192295D01*
X184262781Y-103954200D01*
X184310400Y-103811342D01*
X184405638Y-103716104D01*
X184500876Y-103668485D01*
X184691352Y-103620866D01*
X184834210Y-103620866D01*
X185024686Y-103668485D01*
X185119924Y-103716104D01*
X185215162Y-103811342D01*
X185262781Y-103954200D01*
X185262781Y-104192295D01*
X184691352Y-103049438D02*
X184643733Y-103144676D01*
X184596114Y-103192295D01*
X184500876Y-103239914D01*
X184453257Y-103239914D01*
X184358019Y-103192295D01*
X184310400Y-103144676D01*
X184262781Y-103049438D01*
X184262781Y-102858961D01*
X184310400Y-102763723D01*
X184358019Y-102716104D01*
X184453257Y-102668485D01*
X184500876Y-102668485D01*
X184596114Y-102716104D01*
X184643733Y-102763723D01*
X184691352Y-102858961D01*
X184691352Y-103049438D01*
X184738971Y-103144676D01*
X184786590Y-103192295D01*
X184881829Y-103239914D01*
X185072305Y-103239914D01*
X185167543Y-103192295D01*
X185215162Y-103144676D01*
X185262781Y-103049438D01*
X185262781Y-102858961D01*
X185215162Y-102763723D01*
X185167543Y-102716104D01*
X185072305Y-102668485D01*
X184881829Y-102668485D01*
X184786590Y-102716104D01*
X184738971Y-102763723D01*
X184691352Y-102858961D01*
D14*
X176502190Y-99879933D02*
X176264095Y-100046600D01*
X176502190Y-100165647D02*
X176002190Y-100165647D01*
X176002190Y-99975171D01*
X176026000Y-99927552D01*
X176049810Y-99903743D01*
X176097429Y-99879933D01*
X176168857Y-99879933D01*
X176216476Y-99903743D01*
X176240286Y-99927552D01*
X176264095Y-99975171D01*
X176264095Y-100165647D01*
X176002190Y-99451362D02*
X176002190Y-99546600D01*
X176026000Y-99594219D01*
X176049810Y-99618028D01*
X176121238Y-99665647D01*
X176216476Y-99689457D01*
X176406952Y-99689457D01*
X176454571Y-99665647D01*
X176478381Y-99641838D01*
X176502190Y-99594219D01*
X176502190Y-99498981D01*
X176478381Y-99451362D01*
X176454571Y-99427552D01*
X176406952Y-99403743D01*
X176287905Y-99403743D01*
X176240286Y-99427552D01*
X176216476Y-99451362D01*
X176192667Y-99498981D01*
X176192667Y-99594219D01*
X176216476Y-99641838D01*
X176240286Y-99665647D01*
X176287905Y-99689457D01*
X180693190Y-99905333D02*
X180455095Y-100072000D01*
X180693190Y-100191047D02*
X180193190Y-100191047D01*
X180193190Y-100000571D01*
X180217000Y-99952952D01*
X180240810Y-99929143D01*
X180288429Y-99905333D01*
X180359857Y-99905333D01*
X180407476Y-99929143D01*
X180431286Y-99952952D01*
X180455095Y-100000571D01*
X180455095Y-100191047D01*
X180693190Y-99667238D02*
X180693190Y-99572000D01*
X180669381Y-99524381D01*
X180645571Y-99500571D01*
X180574143Y-99452952D01*
X180478905Y-99429143D01*
X180288429Y-99429143D01*
X180240810Y-99452952D01*
X180217000Y-99476762D01*
X180193190Y-99524381D01*
X180193190Y-99619619D01*
X180217000Y-99667238D01*
X180240810Y-99691047D01*
X180288429Y-99714857D01*
X180407476Y-99714857D01*
X180455095Y-99691047D01*
X180478905Y-99667238D01*
X180502714Y-99619619D01*
X180502714Y-99524381D01*
X180478905Y-99476762D01*
X180455095Y-99452952D01*
X180407476Y-99429143D01*
X184934990Y-100118028D02*
X184696895Y-100284695D01*
X184934990Y-100403742D02*
X184434990Y-100403742D01*
X184434990Y-100213266D01*
X184458800Y-100165647D01*
X184482610Y-100141838D01*
X184530229Y-100118028D01*
X184601657Y-100118028D01*
X184649276Y-100141838D01*
X184673086Y-100165647D01*
X184696895Y-100213266D01*
X184696895Y-100403742D01*
X184934990Y-99641838D02*
X184934990Y-99927552D01*
X184934990Y-99784695D02*
X184434990Y-99784695D01*
X184506419Y-99832314D01*
X184554038Y-99879933D01*
X184577848Y-99927552D01*
X184482610Y-99451362D02*
X184458800Y-99427552D01*
X184434990Y-99379933D01*
X184434990Y-99260886D01*
X184458800Y-99213267D01*
X184482610Y-99189457D01*
X184530229Y-99165648D01*
X184577848Y-99165648D01*
X184649276Y-99189457D01*
X184934990Y-99475171D01*
X184934990Y-99165648D01*
M02*
