M48
;DRILL file {KiCad 4.0.2-stable} date 05.07.2017 21:10:16
;FORMAT={-:-/ absolute / metric / decimal}
FMAT,2
METRIC,TZ
T1C1.000
T2C2.200
%
G90
G05
M71
T1
X130.81Y-110.49
X130.81Y-113.03
X130.81Y-115.57
X130.81Y-118.11
X130.81Y-120.65
X130.81Y-123.19
X130.81Y-125.73
X130.81Y-128.27
X130.81Y-130.81
X130.81Y-133.35
X133.35Y-110.49
X133.35Y-113.03
X133.35Y-115.57
X133.35Y-118.11
X133.35Y-120.65
X133.35Y-123.19
X133.35Y-125.73
X133.35Y-128.27
X133.35Y-130.81
X133.35Y-133.35
X135.89Y-110.49
X135.89Y-113.03
X135.89Y-115.57
X135.89Y-118.11
X135.89Y-120.65
X135.89Y-123.19
X135.89Y-125.73
X135.89Y-128.27
X135.89Y-130.81
X135.89Y-133.35
X135.89Y-135.89
X135.89Y-138.43
X138.43Y-110.49
X138.43Y-113.03
X138.43Y-115.57
X138.43Y-118.11
X138.43Y-120.65
X138.43Y-123.19
X138.43Y-125.73
X138.43Y-128.27
X138.43Y-130.81
X138.43Y-138.43
X140.97Y-110.49
X140.97Y-113.03
X140.97Y-115.57
X140.97Y-118.11
X140.97Y-120.65
X140.97Y-123.19
X140.97Y-125.73
X140.97Y-128.27
X140.97Y-130.81
X140.97Y-138.43
X143.51Y-110.49
X143.51Y-113.03
X143.51Y-115.57
X143.51Y-118.11
X143.51Y-120.65
X143.51Y-123.19
X143.51Y-125.73
X143.51Y-128.27
X143.51Y-130.81
X143.51Y-133.35
X143.51Y-135.89
X143.51Y-138.43
X146.05Y-110.49
X146.05Y-113.03
X146.05Y-115.57
X146.05Y-118.11
X146.05Y-120.65
X146.05Y-123.19
X146.05Y-125.73
X146.05Y-128.27
X146.05Y-130.81
X146.05Y-133.35
X146.05Y-135.89
X146.05Y-138.43
X148.59Y-110.49
X148.59Y-113.03
X148.59Y-115.57
X148.59Y-118.11
X148.59Y-120.65
X148.59Y-123.19
X148.59Y-125.73
X148.59Y-128.27
X148.59Y-130.81
X148.59Y-133.35
X148.59Y-135.89
X148.59Y-138.43
T2
X132.Y-138.
X139.7Y-134.62
T0
M30
