G04 #@! TF.FileFunction,Legend,Top*
%FSLAX46Y46*%
G04 Gerber Fmt 4.6, Leading zero omitted, Abs format (unit mm)*
G04 Created by KiCad (PCBNEW 4.0.2-stable) date 05.07.2017 21:10:13*
%MOMM*%
G01*
G04 APERTURE LIST*
%ADD10C,0.100000*%
%ADD11C,0.200000*%
G04 APERTURE END LIST*
D10*
D11*
X138461905Y-136850381D02*
X138128571Y-136374190D01*
X137890476Y-136850381D02*
X137890476Y-135850381D01*
X138271429Y-135850381D01*
X138366667Y-135898000D01*
X138414286Y-135945619D01*
X138461905Y-136040857D01*
X138461905Y-136183714D01*
X138414286Y-136278952D01*
X138366667Y-136326571D01*
X138271429Y-136374190D01*
X137890476Y-136374190D01*
X139271429Y-136802762D02*
X139176191Y-136850381D01*
X138985714Y-136850381D01*
X138890476Y-136802762D01*
X138842857Y-136707524D01*
X138842857Y-136326571D01*
X138890476Y-136231333D01*
X138985714Y-136183714D01*
X139176191Y-136183714D01*
X139271429Y-136231333D01*
X139319048Y-136326571D01*
X139319048Y-136421810D01*
X138842857Y-136517048D01*
X139700000Y-136802762D02*
X139795238Y-136850381D01*
X139985714Y-136850381D01*
X140080953Y-136802762D01*
X140128572Y-136707524D01*
X140128572Y-136659905D01*
X140080953Y-136564667D01*
X139985714Y-136517048D01*
X139842857Y-136517048D01*
X139747619Y-136469429D01*
X139700000Y-136374190D01*
X139700000Y-136326571D01*
X139747619Y-136231333D01*
X139842857Y-136183714D01*
X139985714Y-136183714D01*
X140080953Y-136231333D01*
X140938096Y-136802762D02*
X140842858Y-136850381D01*
X140652381Y-136850381D01*
X140557143Y-136802762D01*
X140509524Y-136707524D01*
X140509524Y-136326571D01*
X140557143Y-136231333D01*
X140652381Y-136183714D01*
X140842858Y-136183714D01*
X140938096Y-136231333D01*
X140985715Y-136326571D01*
X140985715Y-136421810D01*
X140509524Y-136517048D01*
X141271429Y-136183714D02*
X141652381Y-136183714D01*
X141414286Y-135850381D02*
X141414286Y-136707524D01*
X141461905Y-136802762D01*
X141557143Y-136850381D01*
X141652381Y-136850381D01*
M02*
