G04 #@! TF.FileFunction,Copper,L1,Top,Signal*
%FSLAX46Y46*%
G04 Gerber Fmt 4.6, Leading zero omitted, Abs format (unit mm)*
G04 Created by KiCad (PCBNEW 4.0.2-stable) date 05.07.2017 21:10:13*
%MOMM*%
G01*
G04 APERTURE LIST*
%ADD10C,0.100000*%
%ADD11R,1.700000X1.700000*%
G04 APERTURE END LIST*
D10*
D11*
X148590000Y-110490000D03*
X146050000Y-110490000D03*
X148590000Y-113030000D03*
X146050000Y-113030000D03*
X130810000Y-110490000D03*
X133350000Y-110490000D03*
X135890000Y-110490000D03*
X138430000Y-110490000D03*
X140970000Y-110490000D03*
X143510000Y-110490000D03*
X130810000Y-113030000D03*
X133350000Y-113030000D03*
X135890000Y-113030000D03*
X138430000Y-113030000D03*
X140970000Y-113030000D03*
X143510000Y-113030000D03*
X130810000Y-115570000D03*
X133350000Y-115570000D03*
X135890000Y-115570000D03*
X138430000Y-115570000D03*
X140970000Y-115570000D03*
X143510000Y-115570000D03*
X146050000Y-115570000D03*
X148590000Y-115570000D03*
X130810000Y-118110000D03*
X133350000Y-118110000D03*
X135890000Y-118110000D03*
X138430000Y-118110000D03*
X140970000Y-118110000D03*
X143510000Y-118110000D03*
X146050000Y-118110000D03*
X148590000Y-118110000D03*
X130810000Y-120650000D03*
X133350000Y-120650000D03*
X135890000Y-120650000D03*
X138430000Y-120650000D03*
X140970000Y-120650000D03*
X143510000Y-120650000D03*
X146050000Y-120650000D03*
X148590000Y-120650000D03*
X130810000Y-123190000D03*
X133350000Y-123190000D03*
X135890000Y-123190000D03*
X138430000Y-123190000D03*
X140970000Y-123190000D03*
X143510000Y-123190000D03*
X146050000Y-123190000D03*
X148590000Y-123190000D03*
X130810000Y-125730000D03*
X133350000Y-125730000D03*
X135890000Y-125730000D03*
X138430000Y-125730000D03*
X140970000Y-125730000D03*
X143510000Y-125730000D03*
X146050000Y-125730000D03*
X148590000Y-125730000D03*
X130810000Y-128270000D03*
X133350000Y-128270000D03*
X135890000Y-128270000D03*
X138430000Y-128270000D03*
X140970000Y-128270000D03*
X143510000Y-128270000D03*
X146050000Y-128270000D03*
X148590000Y-128270000D03*
X130810000Y-130810000D03*
X133350000Y-130810000D03*
X135890000Y-130810000D03*
X138430000Y-130810000D03*
X140970000Y-130810000D03*
X143510000Y-130810000D03*
X146050000Y-130810000D03*
X148590000Y-130810000D03*
X130810000Y-133350000D03*
X133350000Y-133350000D03*
X135890000Y-133350000D03*
X143510000Y-133350000D03*
X146050000Y-133350000D03*
X148590000Y-133350000D03*
X135890000Y-135890000D03*
X143510000Y-135890000D03*
X146050000Y-135890000D03*
X148590000Y-135890000D03*
X135890000Y-138430000D03*
X138430000Y-138430000D03*
X140970000Y-138430000D03*
X143510000Y-138430000D03*
X146050000Y-138430000D03*
X148590000Y-138430000D03*
M02*
