M48
;DRILL file {KiCad 4.0.2-stable} date 06.07.2017 11:38:52
;FORMAT={-:-/ absolute / metric / decimal}
FMAT,2
METRIC,TZ
T1C0.900
T2C1.000
T3C2.200
%
G90
G05
M71
T1
X162.814Y-87.886
X162.814Y-132.586
X196.85Y-87.886
X196.85Y-132.586
T2
X170.879Y-111.061
X170.879Y-113.602
X170.879Y-116.141
X170.879Y-118.681
X170.942Y-87.312
X170.942Y-89.852
X170.942Y-92.392
X170.942Y-128.905
X170.942Y-131.445
X170.942Y-133.985
X173.482Y-87.312
X173.482Y-89.852
X173.482Y-92.392
X173.482Y-128.905
X173.482Y-131.445
X173.482Y-133.985
X176.022Y-87.312
X176.022Y-89.852
X176.022Y-92.392
X176.022Y-123.761
X176.022Y-128.905
X176.022Y-131.445
X176.022Y-133.985
X178.562Y-87.312
X178.562Y-89.852
X178.562Y-92.392
X178.562Y-123.761
X178.562Y-128.905
X178.562Y-131.445
X178.562Y-133.985
X181.102Y-87.312
X181.102Y-89.852
X181.102Y-92.392
X181.102Y-123.761
X181.102Y-128.905
X181.102Y-131.445
X181.102Y-133.985
X183.642Y-87.312
X183.642Y-89.852
X183.642Y-92.392
X183.642Y-123.761
X183.642Y-128.905
X183.642Y-131.445
X183.642Y-133.985
X186.182Y-89.852
X186.182Y-92.392
X186.182Y-123.761
X186.182Y-128.905
X186.182Y-131.445
X186.182Y-133.985
X188.659Y-113.602
X188.659Y-116.141
X188.659Y-118.681
X188.659Y-121.221
X188.722Y-89.852
X188.722Y-92.392
X188.722Y-123.761
X188.722Y-128.905
X188.722Y-131.445
X188.722Y-133.985
T3
X171.958Y-123.19
X188.087Y-86.741
T0
M30
