G04 #@! TF.FileFunction,Soldermask,Top*
%FSLAX46Y46*%
G04 Gerber Fmt 4.6, Leading zero omitted, Abs format (unit mm)*
G04 Created by KiCad (PCBNEW 4.0.2-stable) date 05.07.2017 20:40:53*
%MOMM*%
G01*
G04 APERTURE LIST*
%ADD10C,0.100000*%
%ADD11R,2.100000X2.100000*%
%ADD12C,2.100000*%
%ADD13O,2.100000X2.100000*%
%ADD14C,2.600000*%
%ADD15C,2.400000*%
G04 APERTURE END LIST*
D10*
D11*
X170942000Y-92392500D03*
X173482000Y-92392500D03*
X176022000Y-92392500D03*
X178562000Y-92392500D03*
X181102000Y-92392500D03*
X183642000Y-92392500D03*
X186182000Y-92392500D03*
X188722000Y-92392500D03*
X170942000Y-89852500D03*
X173482000Y-89852500D03*
X176022000Y-89852500D03*
X178562000Y-89852500D03*
X181102000Y-89852500D03*
X183642000Y-89852500D03*
X186182000Y-89852500D03*
X188722000Y-89852500D03*
X170942000Y-87312500D03*
X173482000Y-87312500D03*
X176022000Y-87312500D03*
X178562000Y-87312500D03*
X181102000Y-87312500D03*
X183642000Y-87312500D03*
X186182000Y-87312500D03*
X188722000Y-87312500D03*
X170942000Y-128905000D03*
X173482000Y-128905000D03*
X176022000Y-128905000D03*
X178562000Y-128905000D03*
X181102000Y-128905000D03*
X183642000Y-128905000D03*
X186182000Y-128905000D03*
X188722000Y-128905000D03*
X170942000Y-131445000D03*
X173482000Y-131445000D03*
X176022000Y-131445000D03*
X178562000Y-131445000D03*
X181102000Y-131445000D03*
X183642000Y-131445000D03*
X186182000Y-131445000D03*
X188722000Y-131445000D03*
X170942000Y-133985000D03*
X173482000Y-133985000D03*
X176022000Y-133985000D03*
X178562000Y-133985000D03*
X181102000Y-133985000D03*
X183642000Y-133985000D03*
X186182000Y-133985000D03*
X188722000Y-133985000D03*
D12*
X170878500Y-111061500D03*
D13*
X170878500Y-113601500D03*
X170878500Y-116141500D03*
X170878500Y-118681500D03*
D12*
X188658500Y-113601500D03*
D13*
X188658500Y-116141500D03*
X188658500Y-118681500D03*
X188658500Y-121221500D03*
D12*
X188722000Y-123761500D03*
D13*
X186182000Y-123761500D03*
X183642000Y-123761500D03*
X181102000Y-123761500D03*
X178562000Y-123761500D03*
X176022000Y-123761500D03*
D14*
X171958000Y-123190000D03*
D15*
X196913500Y-88267000D03*
X196913500Y-132967000D03*
X162750500Y-132967000D03*
X162750500Y-88267000D03*
M02*
