G04 #@! TF.FileFunction,Legend,Bot*
%FSLAX46Y46*%
G04 Gerber Fmt 4.6, Leading zero omitted, Abs format (unit mm)*
G04 Created by KiCad (PCBNEW 4.0.2-stable) date 07.07.2017 11:43:19*
%MOMM*%
G01*
G04 APERTURE LIST*
%ADD10C,0.100000*%
%ADD11C,0.150000*%
G04 APERTURE END LIST*
D10*
D11*
X183260571Y-79891572D02*
X183308190Y-80034429D01*
X183355810Y-80082048D01*
X183451048Y-80129667D01*
X183593905Y-80129667D01*
X183689143Y-80082048D01*
X183736762Y-80034429D01*
X183784381Y-79939191D01*
X183784381Y-79558238D01*
X182784381Y-79558238D01*
X182784381Y-79891572D01*
X182832000Y-79986810D01*
X182879619Y-80034429D01*
X182974857Y-80082048D01*
X183070095Y-80082048D01*
X183165333Y-80034429D01*
X183212952Y-79986810D01*
X183260571Y-79891572D01*
X183260571Y-79558238D01*
X183784381Y-80558238D02*
X182784381Y-80558238D01*
X183260571Y-80558238D02*
X183260571Y-81129667D01*
X183784381Y-81129667D02*
X182784381Y-81129667D01*
X183403429Y-81605857D02*
X183403429Y-82367762D01*
X183784381Y-83367762D02*
X183784381Y-82796333D01*
X183784381Y-83082047D02*
X182784381Y-83082047D01*
X182927238Y-82986809D01*
X183022476Y-82891571D01*
X183070095Y-82796333D01*
X183212952Y-83939190D02*
X183165333Y-83843952D01*
X183117714Y-83796333D01*
X183022476Y-83748714D01*
X182974857Y-83748714D01*
X182879619Y-83796333D01*
X182832000Y-83843952D01*
X182784381Y-83939190D01*
X182784381Y-84129667D01*
X182832000Y-84224905D01*
X182879619Y-84272524D01*
X182974857Y-84320143D01*
X183022476Y-84320143D01*
X183117714Y-84272524D01*
X183165333Y-84224905D01*
X183212952Y-84129667D01*
X183212952Y-83939190D01*
X183260571Y-83843952D01*
X183308190Y-83796333D01*
X183403429Y-83748714D01*
X183593905Y-83748714D01*
X183689143Y-83796333D01*
X183736762Y-83843952D01*
X183784381Y-83939190D01*
X183784381Y-84129667D01*
X183736762Y-84224905D01*
X183689143Y-84272524D01*
X183593905Y-84320143D01*
X183403429Y-84320143D01*
X183308190Y-84272524D01*
X183260571Y-84224905D01*
X183212952Y-84129667D01*
X182784381Y-85177286D02*
X182784381Y-84986809D01*
X182832000Y-84891571D01*
X182879619Y-84843952D01*
X183022476Y-84748714D01*
X183212952Y-84701095D01*
X183593905Y-84701095D01*
X183689143Y-84748714D01*
X183736762Y-84796333D01*
X183784381Y-84891571D01*
X183784381Y-85082048D01*
X183736762Y-85177286D01*
X183689143Y-85224905D01*
X183593905Y-85272524D01*
X183355810Y-85272524D01*
X183260571Y-85224905D01*
X183212952Y-85177286D01*
X183165333Y-85082048D01*
X183165333Y-84891571D01*
X183212952Y-84796333D01*
X183260571Y-84748714D01*
X183355810Y-84701095D01*
X182784381Y-86177286D02*
X182784381Y-85701095D01*
X183260571Y-85653476D01*
X183212952Y-85701095D01*
X183165333Y-85796333D01*
X183165333Y-86034429D01*
X183212952Y-86129667D01*
X183260571Y-86177286D01*
X183355810Y-86224905D01*
X183593905Y-86224905D01*
X183689143Y-86177286D01*
X183736762Y-86129667D01*
X183784381Y-86034429D01*
X183784381Y-85796333D01*
X183736762Y-85701095D01*
X183689143Y-85653476D01*
X182784381Y-86843952D02*
X182784381Y-86939191D01*
X182832000Y-87034429D01*
X182879619Y-87082048D01*
X182974857Y-87129667D01*
X183165333Y-87177286D01*
X183403429Y-87177286D01*
X183593905Y-87129667D01*
X183689143Y-87082048D01*
X183736762Y-87034429D01*
X183784381Y-86939191D01*
X183784381Y-86843952D01*
X183736762Y-86748714D01*
X183689143Y-86701095D01*
X183593905Y-86653476D01*
X183403429Y-86605857D01*
X183165333Y-86605857D01*
X182974857Y-86653476D01*
X182879619Y-86701095D01*
X182832000Y-86748714D01*
X182784381Y-86843952D01*
X183403429Y-87605857D02*
X183403429Y-88367762D01*
X183784381Y-88843952D02*
X182784381Y-88843952D01*
X182784381Y-89224905D01*
X182832000Y-89320143D01*
X182879619Y-89367762D01*
X182974857Y-89415381D01*
X183117714Y-89415381D01*
X183212952Y-89367762D01*
X183260571Y-89320143D01*
X183308190Y-89224905D01*
X183308190Y-88843952D01*
X183689143Y-90415381D02*
X183736762Y-90367762D01*
X183784381Y-90224905D01*
X183784381Y-90129667D01*
X183736762Y-89986809D01*
X183641524Y-89891571D01*
X183546286Y-89843952D01*
X183355810Y-89796333D01*
X183212952Y-89796333D01*
X183022476Y-89843952D01*
X182927238Y-89891571D01*
X182832000Y-89986809D01*
X182784381Y-90129667D01*
X182784381Y-90224905D01*
X182832000Y-90367762D01*
X182879619Y-90415381D01*
M02*
