G04 #@! TF.FileFunction,Legend,Top*
%FSLAX46Y46*%
G04 Gerber Fmt 4.6, Leading zero omitted, Abs format (unit mm)*
G04 Created by KiCad (PCBNEW 4.0.2-stable) date 18.08.2017 15:48:39*
%MOMM*%
G01*
G04 APERTURE LIST*
%ADD10C,0.100000*%
%ADD11C,0.120000*%
G04 APERTURE END LIST*
D10*
X175861429Y-86991571D02*
X175261429Y-86991571D01*
X175547143Y-86991571D02*
X175547143Y-86648714D01*
X175861429Y-86648714D02*
X175261429Y-86648714D01*
X175861429Y-86363000D02*
X175261429Y-86363000D01*
X175690000Y-86163000D01*
X175261429Y-85963000D01*
X175861429Y-85963000D01*
X175832857Y-85705857D02*
X175861429Y-85620143D01*
X175861429Y-85477286D01*
X175832857Y-85420143D01*
X175804286Y-85391572D01*
X175747143Y-85363000D01*
X175690000Y-85363000D01*
X175632857Y-85391572D01*
X175604286Y-85420143D01*
X175575714Y-85477286D01*
X175547143Y-85591572D01*
X175518571Y-85648714D01*
X175490000Y-85677286D01*
X175432857Y-85705857D01*
X175375714Y-85705857D01*
X175318571Y-85677286D01*
X175290000Y-85648714D01*
X175261429Y-85591572D01*
X175261429Y-85448714D01*
X175290000Y-85363000D01*
X175832857Y-84877285D02*
X175861429Y-84934428D01*
X175861429Y-85048714D01*
X175832857Y-85105857D01*
X175775714Y-85134428D01*
X175547143Y-85134428D01*
X175490000Y-85105857D01*
X175461429Y-85048714D01*
X175461429Y-84934428D01*
X175490000Y-84877285D01*
X175547143Y-84848714D01*
X175604286Y-84848714D01*
X175661429Y-85134428D01*
X175461429Y-84591571D02*
X175861429Y-84591571D01*
X175518571Y-84591571D02*
X175490000Y-84562999D01*
X175461429Y-84505857D01*
X175461429Y-84420142D01*
X175490000Y-84362999D01*
X175547143Y-84334428D01*
X175861429Y-84334428D01*
X175832857Y-84077285D02*
X175861429Y-84020142D01*
X175861429Y-83905857D01*
X175832857Y-83848714D01*
X175775714Y-83820142D01*
X175747143Y-83820142D01*
X175690000Y-83848714D01*
X175661429Y-83905857D01*
X175661429Y-83991571D01*
X175632857Y-84048714D01*
X175575714Y-84077285D01*
X175547143Y-84077285D01*
X175490000Y-84048714D01*
X175461429Y-83991571D01*
X175461429Y-83905857D01*
X175490000Y-83848714D01*
X175861429Y-83477286D02*
X175832857Y-83534428D01*
X175804286Y-83563000D01*
X175747143Y-83591571D01*
X175575714Y-83591571D01*
X175518571Y-83563000D01*
X175490000Y-83534428D01*
X175461429Y-83477286D01*
X175461429Y-83391571D01*
X175490000Y-83334428D01*
X175518571Y-83305857D01*
X175575714Y-83277286D01*
X175747143Y-83277286D01*
X175804286Y-83305857D01*
X175832857Y-83334428D01*
X175861429Y-83391571D01*
X175861429Y-83477286D01*
X175861429Y-83020143D02*
X175461429Y-83020143D01*
X175575714Y-83020143D02*
X175518571Y-82991571D01*
X175490000Y-82963000D01*
X175461429Y-82905857D01*
X175461429Y-82848714D01*
X176801429Y-89148715D02*
X176801429Y-89491572D01*
X176801429Y-89320144D02*
X176201429Y-89320144D01*
X176287143Y-89377287D01*
X176344286Y-89434429D01*
X176372857Y-89491572D01*
X176458571Y-88805858D02*
X176430000Y-88863000D01*
X176401429Y-88891572D01*
X176344286Y-88920143D01*
X176315714Y-88920143D01*
X176258571Y-88891572D01*
X176230000Y-88863000D01*
X176201429Y-88805858D01*
X176201429Y-88691572D01*
X176230000Y-88634429D01*
X176258571Y-88605858D01*
X176315714Y-88577286D01*
X176344286Y-88577286D01*
X176401429Y-88605858D01*
X176430000Y-88634429D01*
X176458571Y-88691572D01*
X176458571Y-88805858D01*
X176487143Y-88863000D01*
X176515714Y-88891572D01*
X176572857Y-88920143D01*
X176687143Y-88920143D01*
X176744286Y-88891572D01*
X176772857Y-88863000D01*
X176801429Y-88805858D01*
X176801429Y-88691572D01*
X176772857Y-88634429D01*
X176744286Y-88605858D01*
X176687143Y-88577286D01*
X176572857Y-88577286D01*
X176515714Y-88605858D01*
X176487143Y-88634429D01*
X176458571Y-88691572D01*
X176201429Y-88063000D02*
X176201429Y-88177286D01*
X176230000Y-88234429D01*
X176258571Y-88263000D01*
X176344286Y-88320143D01*
X176458571Y-88348714D01*
X176687143Y-88348714D01*
X176744286Y-88320143D01*
X176772857Y-88291571D01*
X176801429Y-88234429D01*
X176801429Y-88120143D01*
X176772857Y-88063000D01*
X176744286Y-88034429D01*
X176687143Y-88005857D01*
X176544286Y-88005857D01*
X176487143Y-88034429D01*
X176458571Y-88063000D01*
X176430000Y-88120143D01*
X176430000Y-88234429D01*
X176458571Y-88291571D01*
X176487143Y-88320143D01*
X176544286Y-88348714D01*
X176201429Y-87463000D02*
X176201429Y-87748714D01*
X176487143Y-87777285D01*
X176458571Y-87748714D01*
X176430000Y-87691571D01*
X176430000Y-87548714D01*
X176458571Y-87491571D01*
X176487143Y-87463000D01*
X176544286Y-87434428D01*
X176687143Y-87434428D01*
X176744286Y-87463000D01*
X176772857Y-87491571D01*
X176801429Y-87548714D01*
X176801429Y-87691571D01*
X176772857Y-87748714D01*
X176744286Y-87777285D01*
X176201429Y-87062999D02*
X176201429Y-87005856D01*
X176230000Y-86948713D01*
X176258571Y-86920142D01*
X176315714Y-86891571D01*
X176430000Y-86862999D01*
X176572857Y-86862999D01*
X176687143Y-86891571D01*
X176744286Y-86920142D01*
X176772857Y-86948713D01*
X176801429Y-87005856D01*
X176801429Y-87062999D01*
X176772857Y-87120142D01*
X176744286Y-87148713D01*
X176687143Y-87177285D01*
X176572857Y-87205856D01*
X176430000Y-87205856D01*
X176315714Y-87177285D01*
X176258571Y-87148713D01*
X176230000Y-87120142D01*
X176201429Y-87062999D01*
X176801429Y-86148713D02*
X176201429Y-86148713D01*
X176487143Y-86148713D02*
X176487143Y-85805856D01*
X176801429Y-85805856D02*
X176201429Y-85805856D01*
X176801429Y-85434428D02*
X176772857Y-85491570D01*
X176744286Y-85520142D01*
X176687143Y-85548713D01*
X176515714Y-85548713D01*
X176458571Y-85520142D01*
X176430000Y-85491570D01*
X176401429Y-85434428D01*
X176401429Y-85348713D01*
X176430000Y-85291570D01*
X176458571Y-85262999D01*
X176515714Y-85234428D01*
X176687143Y-85234428D01*
X176744286Y-85262999D01*
X176772857Y-85291570D01*
X176801429Y-85348713D01*
X176801429Y-85434428D01*
X176801429Y-84891571D02*
X176772857Y-84948713D01*
X176715714Y-84977285D01*
X176201429Y-84977285D01*
X176801429Y-84405856D02*
X176201429Y-84405856D01*
X176772857Y-84405856D02*
X176801429Y-84462999D01*
X176801429Y-84577285D01*
X176772857Y-84634427D01*
X176744286Y-84662999D01*
X176687143Y-84691570D01*
X176515714Y-84691570D01*
X176458571Y-84662999D01*
X176430000Y-84634427D01*
X176401429Y-84577285D01*
X176401429Y-84462999D01*
X176430000Y-84405856D01*
X176772857Y-83891570D02*
X176801429Y-83948713D01*
X176801429Y-84062999D01*
X176772857Y-84120142D01*
X176715714Y-84148713D01*
X176487143Y-84148713D01*
X176430000Y-84120142D01*
X176401429Y-84062999D01*
X176401429Y-83948713D01*
X176430000Y-83891570D01*
X176487143Y-83862999D01*
X176544286Y-83862999D01*
X176601429Y-84148713D01*
X176801429Y-83605856D02*
X176401429Y-83605856D01*
X176515714Y-83605856D02*
X176458571Y-83577284D01*
X176430000Y-83548713D01*
X176401429Y-83491570D01*
X176401429Y-83434427D01*
X176487143Y-82577284D02*
X176515714Y-82491570D01*
X176544286Y-82462998D01*
X176601429Y-82434427D01*
X176687143Y-82434427D01*
X176744286Y-82462998D01*
X176772857Y-82491570D01*
X176801429Y-82548712D01*
X176801429Y-82777284D01*
X176201429Y-82777284D01*
X176201429Y-82577284D01*
X176230000Y-82520141D01*
X176258571Y-82491570D01*
X176315714Y-82462998D01*
X176372857Y-82462998D01*
X176430000Y-82491570D01*
X176458571Y-82520141D01*
X176487143Y-82577284D01*
X176487143Y-82777284D01*
X176801429Y-82091570D02*
X176772857Y-82148712D01*
X176744286Y-82177284D01*
X176687143Y-82205855D01*
X176515714Y-82205855D01*
X176458571Y-82177284D01*
X176430000Y-82148712D01*
X176401429Y-82091570D01*
X176401429Y-82005855D01*
X176430000Y-81948712D01*
X176458571Y-81920141D01*
X176515714Y-81891570D01*
X176687143Y-81891570D01*
X176744286Y-81920141D01*
X176772857Y-81948712D01*
X176801429Y-82005855D01*
X176801429Y-82091570D01*
X176801429Y-81377284D02*
X176487143Y-81377284D01*
X176430000Y-81405855D01*
X176401429Y-81462998D01*
X176401429Y-81577284D01*
X176430000Y-81634427D01*
X176772857Y-81377284D02*
X176801429Y-81434427D01*
X176801429Y-81577284D01*
X176772857Y-81634427D01*
X176715714Y-81662998D01*
X176658571Y-81662998D01*
X176601429Y-81634427D01*
X176572857Y-81577284D01*
X176572857Y-81434427D01*
X176544286Y-81377284D01*
X176801429Y-81091570D02*
X176401429Y-81091570D01*
X176515714Y-81091570D02*
X176458571Y-81062998D01*
X176430000Y-81034427D01*
X176401429Y-80977284D01*
X176401429Y-80920141D01*
X176801429Y-80462998D02*
X176201429Y-80462998D01*
X176772857Y-80462998D02*
X176801429Y-80520141D01*
X176801429Y-80634427D01*
X176772857Y-80691569D01*
X176744286Y-80720141D01*
X176687143Y-80748712D01*
X176515714Y-80748712D01*
X176458571Y-80720141D01*
X176430000Y-80691569D01*
X176401429Y-80634427D01*
X176401429Y-80520141D01*
X176430000Y-80462998D01*
X177141429Y-85877286D02*
X177741429Y-85677286D01*
X177141429Y-85477286D01*
X177741429Y-84963000D02*
X177741429Y-85305857D01*
X177741429Y-85134429D02*
X177141429Y-85134429D01*
X177227143Y-85191572D01*
X177284286Y-85248714D01*
X177312857Y-85305857D01*
X177684286Y-84705857D02*
X177712857Y-84677285D01*
X177741429Y-84705857D01*
X177712857Y-84734428D01*
X177684286Y-84705857D01*
X177741429Y-84705857D01*
X177141429Y-84305857D02*
X177141429Y-84248714D01*
X177170000Y-84191571D01*
X177198571Y-84163000D01*
X177255714Y-84134429D01*
X177370000Y-84105857D01*
X177512857Y-84105857D01*
X177627143Y-84134429D01*
X177684286Y-84163000D01*
X177712857Y-84191571D01*
X177741429Y-84248714D01*
X177741429Y-84305857D01*
X177712857Y-84363000D01*
X177684286Y-84391571D01*
X177627143Y-84420143D01*
X177512857Y-84448714D01*
X177370000Y-84448714D01*
X177255714Y-84420143D01*
X177198571Y-84391571D01*
X177170000Y-84363000D01*
X177141429Y-84305857D01*
X186170929Y-107992785D02*
X186770929Y-107792785D01*
X186170929Y-107592785D01*
X186770929Y-107392785D02*
X186370929Y-107392785D01*
X186170929Y-107392785D02*
X186199500Y-107421356D01*
X186228071Y-107392785D01*
X186199500Y-107364213D01*
X186170929Y-107392785D01*
X186228071Y-107392785D01*
X186370929Y-107107071D02*
X186770929Y-107107071D01*
X186428071Y-107107071D02*
X186399500Y-107078499D01*
X186370929Y-107021357D01*
X186370929Y-106935642D01*
X186399500Y-106878499D01*
X186456643Y-106849928D01*
X186770929Y-106849928D01*
X186263000Y-110375642D02*
X186234429Y-110432785D01*
X186234429Y-110518499D01*
X186263000Y-110604214D01*
X186320143Y-110661356D01*
X186377286Y-110689928D01*
X186491571Y-110718499D01*
X186577286Y-110718499D01*
X186691571Y-110689928D01*
X186748714Y-110661356D01*
X186805857Y-110604214D01*
X186834429Y-110518499D01*
X186834429Y-110461356D01*
X186805857Y-110375642D01*
X186777286Y-110347071D01*
X186577286Y-110347071D01*
X186577286Y-110461356D01*
X186834429Y-110089928D02*
X186234429Y-110089928D01*
X186834429Y-109747071D01*
X186234429Y-109747071D01*
X186834429Y-109461357D02*
X186234429Y-109461357D01*
X186234429Y-109318500D01*
X186263000Y-109232785D01*
X186320143Y-109175643D01*
X186377286Y-109147071D01*
X186491571Y-109118500D01*
X186577286Y-109118500D01*
X186691571Y-109147071D01*
X186748714Y-109175643D01*
X186805857Y-109232785D01*
X186834429Y-109318500D01*
X186834429Y-109461357D01*
D11*
X187328500Y-108712000D02*
X187328500Y-111312000D01*
X187328500Y-111312000D02*
X189988500Y-111312000D01*
X189988500Y-111312000D02*
X189988500Y-108712000D01*
X189988500Y-108712000D02*
X187328500Y-108712000D01*
X187328500Y-107442000D02*
X187328500Y-106112000D01*
X187328500Y-106112000D02*
X188658500Y-106112000D01*
M02*
