G04 #@! TF.FileFunction,Soldermask,Top*
%FSLAX46Y46*%
G04 Gerber Fmt 4.6, Leading zero omitted, Abs format (unit mm)*
G04 Created by KiCad (PCBNEW 4.0.2-stable) date 05.09.2017 20:59:44*
%MOMM*%
G01*
G04 APERTURE LIST*
%ADD10C,0.100000*%
%ADD11C,2.100000*%
%ADD12O,2.100000X2.100000*%
%ADD13C,2.600000*%
%ADD14R,1.900000X1.650000*%
%ADD15R,1.650000X1.900000*%
%ADD16R,1.370000X1.670000*%
%ADD17R,1.900000X1.700000*%
%ADD18C,1.000000*%
%ADD19R,2.200000X1.200000*%
%ADD20R,1.900000X1.100000*%
%ADD21R,0.900000X1.000000*%
%ADD22R,1.000000X0.900000*%
%ADD23R,1.750000X1.750000*%
%ADD24O,1.750000X1.750000*%
%ADD25R,0.450000X0.600000*%
G04 APERTURE END LIST*
D10*
D11*
X170878500Y-111061500D03*
D12*
X170878500Y-113601500D03*
X170878500Y-116141500D03*
X170878500Y-118681500D03*
D11*
X188658500Y-113601500D03*
D12*
X188658500Y-116141500D03*
X188658500Y-118681500D03*
X188658500Y-121221500D03*
D11*
X188722000Y-123761500D03*
D12*
X186182000Y-123761500D03*
X183642000Y-123761500D03*
X181102000Y-123761500D03*
X178562000Y-123761500D03*
X176022000Y-123761500D03*
D13*
X171958000Y-123190000D03*
D14*
X174605000Y-98234500D03*
X172105000Y-98234500D03*
D15*
X175387000Y-107398500D03*
X175387000Y-109898500D03*
D16*
X181991000Y-113665000D03*
X183261000Y-113665000D03*
X184531000Y-113665000D03*
X174688500Y-100901500D03*
X173418500Y-100901500D03*
X172148500Y-100901500D03*
D17*
X174037000Y-117792500D03*
X176737000Y-117792500D03*
X174037000Y-119888000D03*
X176737000Y-119888000D03*
D18*
X186000000Y-99000000D03*
D19*
X183360000Y-101000000D03*
X183360000Y-99730000D03*
X183360000Y-98460000D03*
X183360000Y-102270000D03*
X183360000Y-103540000D03*
X188640000Y-101000000D03*
X188640000Y-99730000D03*
X188640000Y-98460000D03*
X188640000Y-102270000D03*
X188640000Y-103540000D03*
D20*
X177379500Y-100200500D03*
X177379500Y-99250500D03*
X177379500Y-98300500D03*
X180379500Y-98300500D03*
X180379500Y-99250500D03*
X180379500Y-100200500D03*
D13*
X179832000Y-119888000D03*
D21*
X177493000Y-104418000D03*
X177493000Y-105918000D03*
X177493000Y-107418000D03*
X180393000Y-107418000D03*
X180393000Y-105918000D03*
X180393000Y-104418000D03*
D22*
X178943000Y-104368000D03*
D23*
X179197000Y-116141500D03*
D24*
X181197000Y-116141500D03*
X183197000Y-116141500D03*
X185197000Y-116141500D03*
D14*
X183408000Y-106743500D03*
X185908000Y-106743500D03*
D25*
X177968000Y-109245500D03*
X178618000Y-109245500D03*
X179268000Y-109245500D03*
X179918000Y-109245500D03*
X177968000Y-110845500D03*
X178618000Y-110845500D03*
X179268000Y-110845500D03*
X179918000Y-110845500D03*
D17*
X185693040Y-119664480D03*
X182993040Y-119664480D03*
M02*
