G04 #@! TF.FileFunction,Copper,L1,Top,Signal*
%FSLAX46Y46*%
G04 Gerber Fmt 4.6, Leading zero omitted, Abs format (unit mm)*
G04 Created by KiCad (PCBNEW 4.0.2-stable) date 05.07.2017 20:46:59*
%MOMM*%
G01*
G04 APERTURE LIST*
%ADD10C,0.100000*%
%ADD11C,1.700000*%
%ADD12O,1.700000X1.700000*%
%ADD13R,1.500000X1.250000*%
%ADD14R,1.250000X1.500000*%
%ADD15R,0.970000X1.270000*%
%ADD16R,1.500000X1.300000*%
%ADD17C,0.600000*%
%ADD18R,1.800000X0.800000*%
%ADD19R,1.500000X0.700000*%
%ADD20R,0.500000X0.600000*%
%ADD21R,0.600000X0.500000*%
%ADD22R,1.350000X1.350000*%
%ADD23O,1.350000X1.350000*%
%ADD24R,0.350000X0.500000*%
%ADD25C,0.250000*%
%ADD26C,0.254000*%
G04 APERTURE END LIST*
D10*
D11*
X170878500Y-111061500D03*
D12*
X170878500Y-113601500D03*
X170878500Y-116141500D03*
X170878500Y-118681500D03*
D11*
X188658500Y-113601500D03*
D12*
X188658500Y-116141500D03*
X188658500Y-118681500D03*
X188658500Y-121221500D03*
D11*
X188722000Y-123761500D03*
D12*
X186182000Y-123761500D03*
X183642000Y-123761500D03*
X181102000Y-123761500D03*
X178562000Y-123761500D03*
X176022000Y-123761500D03*
D13*
X174605000Y-98234500D03*
X172105000Y-98234500D03*
D14*
X175387000Y-107398500D03*
X175387000Y-109898500D03*
D15*
X181991000Y-113665000D03*
X183261000Y-113665000D03*
X184531000Y-113665000D03*
X174688500Y-100901500D03*
X173418500Y-100901500D03*
X172148500Y-100901500D03*
D16*
X174037000Y-117792500D03*
X176737000Y-117792500D03*
X174037000Y-119888000D03*
X176737000Y-119888000D03*
D17*
X186000000Y-99000000D03*
D18*
X183360000Y-101000000D03*
X183360000Y-99730000D03*
X183360000Y-98460000D03*
X183360000Y-102270000D03*
X183360000Y-103540000D03*
X188640000Y-101000000D03*
X188640000Y-99730000D03*
X188640000Y-98460000D03*
X188640000Y-102270000D03*
X188640000Y-103540000D03*
D19*
X177379500Y-100200500D03*
X177379500Y-99250500D03*
X177379500Y-98300500D03*
X180379500Y-98300500D03*
X180379500Y-99250500D03*
X180379500Y-100200500D03*
D20*
X177493000Y-104418000D03*
X177493000Y-105918000D03*
X177493000Y-107418000D03*
X180393000Y-107418000D03*
X180393000Y-105918000D03*
X180393000Y-104418000D03*
D21*
X178943000Y-104368000D03*
D22*
X179197000Y-116141500D03*
D23*
X181197000Y-116141500D03*
X183197000Y-116141500D03*
X185197000Y-116141500D03*
D13*
X183408000Y-106743500D03*
X185908000Y-106743500D03*
D24*
X177968000Y-109245500D03*
X178618000Y-109245500D03*
X179268000Y-109245500D03*
X179918000Y-109245500D03*
X177968000Y-110845500D03*
X178618000Y-110845500D03*
X179268000Y-110845500D03*
X179918000Y-110845500D03*
D17*
X178181000Y-121920000D03*
X175260000Y-105791000D03*
X181800500Y-103505000D03*
X172148500Y-102298500D03*
X180530500Y-113665000D03*
D25*
X170878500Y-111061500D02*
X177173998Y-111061500D01*
X177173998Y-111061500D02*
X177292000Y-111179502D01*
X177745498Y-111633000D02*
X178420000Y-111633000D01*
X178420000Y-111633000D02*
X178618000Y-111435000D01*
X177292000Y-109996500D02*
X177292000Y-111179502D01*
X177292000Y-111179502D02*
X177745498Y-111633000D01*
X177968000Y-109245500D02*
X177968000Y-109320500D01*
X177968000Y-109320500D02*
X177292000Y-109996500D01*
X178816000Y-111633000D02*
X178618000Y-111435000D01*
X178618000Y-111435000D02*
X178618000Y-110845500D01*
X179630500Y-111633000D02*
X178816000Y-111633000D01*
X179918000Y-110845500D02*
X179918000Y-111345500D01*
X179918000Y-111345500D02*
X179630500Y-111633000D01*
X174688500Y-100901500D02*
X177228500Y-100901500D01*
X177379500Y-100750500D02*
X177379500Y-100200500D01*
X177228500Y-100901500D02*
X177379500Y-100750500D01*
X180379500Y-98300500D02*
X179258000Y-98300500D01*
X179133500Y-103158500D02*
X180393000Y-104418000D01*
X179133500Y-98425000D02*
X179133500Y-103158500D01*
X179258000Y-98300500D02*
X179133500Y-98425000D01*
X180393000Y-104368000D02*
X180393000Y-104418000D01*
X181610000Y-100400000D02*
X181610000Y-98731000D01*
X181610000Y-98731000D02*
X181179500Y-98300500D01*
X181179500Y-98300500D02*
X180379500Y-98300500D01*
X183360000Y-101000000D02*
X182210000Y-101000000D01*
X182210000Y-101000000D02*
X181610000Y-100400000D01*
X180418001Y-111236089D02*
X180418001Y-111935999D01*
X176593500Y-115760500D02*
X175893590Y-115760500D01*
X180418001Y-111935999D02*
X176593500Y-115760500D01*
X175708601Y-115945489D02*
X174984011Y-115945489D01*
X175893590Y-115760500D02*
X175708601Y-115945489D01*
X174037000Y-116892500D02*
X174037000Y-117792500D01*
X174984011Y-115945489D02*
X174037000Y-116892500D01*
X180418001Y-110335499D02*
X180418001Y-111236089D01*
X180353001Y-110270499D02*
X180418001Y-110335499D01*
X179792999Y-110270499D02*
X180353001Y-110270499D01*
X179268000Y-109245500D02*
X179268000Y-109745500D01*
X179268000Y-109745500D02*
X179792999Y-110270499D01*
X179268000Y-109245500D02*
X179268000Y-105543000D01*
X179268000Y-105543000D02*
X179843000Y-104968000D01*
X179843000Y-104968000D02*
X179893000Y-104968000D01*
X179893000Y-104968000D02*
X180393000Y-104468000D01*
X180393000Y-104468000D02*
X180393000Y-104418000D01*
X172720000Y-118109500D02*
X172720000Y-120556002D01*
X172720000Y-120556002D02*
X174083998Y-121920000D01*
X174083998Y-121920000D02*
X178181000Y-121920000D01*
X174037000Y-117792500D02*
X173037000Y-117792500D01*
X173037000Y-117792500D02*
X172720000Y-118109500D01*
X180379500Y-100200500D02*
X180379500Y-101282500D01*
X183360000Y-102270000D02*
X182210000Y-102270000D01*
X180379500Y-101282500D02*
X180379500Y-102909500D01*
X182210000Y-102270000D02*
X181222500Y-101282500D01*
X181222500Y-101282500D02*
X180379500Y-101282500D01*
X180911500Y-111498413D02*
X180911500Y-112331500D01*
X176847500Y-116395500D02*
X176014413Y-116395500D01*
X180911500Y-112331500D02*
X176847500Y-116395500D01*
X175387000Y-117022913D02*
X175387000Y-118638000D01*
X176014413Y-116395500D02*
X175387000Y-117022913D01*
X175387000Y-118638000D02*
X174137000Y-119888000D01*
X174137000Y-119888000D02*
X174037000Y-119888000D01*
X180911500Y-109814000D02*
X180911500Y-111498413D01*
X179918000Y-109245500D02*
X180343000Y-109245500D01*
X180343000Y-109245500D02*
X180911500Y-109814000D01*
X179918000Y-109245500D02*
X179918000Y-108745500D01*
X179918000Y-108745500D02*
X179817999Y-108645499D01*
X179817999Y-108645499D02*
X179817999Y-106543001D01*
X179817999Y-106543001D02*
X180393000Y-105968000D01*
X180393000Y-105968000D02*
X180393000Y-105918000D01*
X181102000Y-105918000D02*
X181102000Y-105092500D01*
X180393000Y-105918000D02*
X180893000Y-105918000D01*
X180893000Y-105918000D02*
X181102000Y-105918000D01*
X181102000Y-103632000D02*
X181102000Y-105092500D01*
X181102000Y-105092500D02*
X181102000Y-105209000D01*
X180252001Y-122911501D02*
X181102000Y-123761500D01*
X178635498Y-121294998D02*
X180252001Y-122911501D01*
X175543998Y-121294998D02*
X178635498Y-121294998D01*
X174137000Y-119888000D02*
X175543998Y-121294998D01*
X180379500Y-102909500D02*
X181102000Y-103632000D01*
X184531000Y-113665000D02*
X188595000Y-113665000D01*
X188595000Y-113665000D02*
X188658500Y-113601500D01*
X175387000Y-107398500D02*
X177473500Y-107398500D01*
X177473500Y-107398500D02*
X177493000Y-107418000D01*
X175260000Y-105791000D02*
X175260000Y-107271500D01*
X175260000Y-107271500D02*
X175387000Y-107398500D01*
X177473500Y-107398500D02*
X177493000Y-107418000D01*
X177968000Y-110845500D02*
X177968000Y-110255502D01*
X177968000Y-110255502D02*
X178618000Y-109605502D01*
X178618000Y-109605502D02*
X178618000Y-109245500D01*
X178618000Y-109245500D02*
X178618000Y-109745500D01*
X178618000Y-109745500D02*
X179268000Y-110395500D01*
X179268000Y-110395500D02*
X179268000Y-110845500D01*
X177493000Y-107418000D02*
X177993000Y-107418000D01*
X177993000Y-107418000D02*
X178618000Y-108043000D01*
X178618000Y-108043000D02*
X178618000Y-108745500D01*
X178618000Y-108745500D02*
X178618000Y-109245500D01*
X183408000Y-106743500D02*
X183408000Y-113518000D01*
X183408000Y-113518000D02*
X183261000Y-113665000D01*
X183360000Y-103540000D02*
X183360000Y-106695500D01*
X183360000Y-106695500D02*
X183408000Y-106743500D01*
X183662000Y-113264000D02*
X183261000Y-113665000D01*
X183360000Y-106441500D02*
X183662000Y-106743500D01*
X181800500Y-103505000D02*
X183325000Y-103505000D01*
X183325000Y-103505000D02*
X183360000Y-103540000D01*
X183261000Y-103639000D02*
X183360000Y-103540000D01*
X179605500Y-114808000D02*
X183003000Y-114808000D01*
X183003000Y-114808000D02*
X183261000Y-114550000D01*
X183261000Y-114550000D02*
X183261000Y-113665000D01*
X179197000Y-116141500D02*
X179197000Y-115216500D01*
X179197000Y-115216500D02*
X179605500Y-114808000D01*
X176737000Y-117792500D02*
X176837000Y-117792500D01*
X176837000Y-117792500D02*
X178488000Y-116141500D01*
X178488000Y-116141500D02*
X179197000Y-116141500D01*
X176737000Y-119888000D02*
X176737000Y-117792500D01*
X182860000Y-103540000D02*
X183360000Y-103540000D01*
X172148500Y-102298500D02*
X172148500Y-100901500D01*
X183860000Y-103540000D02*
X183360000Y-103540000D01*
X183360000Y-113566000D02*
X183261000Y-113665000D01*
X172148500Y-100901500D02*
X172148500Y-100566000D01*
X172148500Y-100566000D02*
X174480000Y-98234500D01*
X174480000Y-98234500D02*
X174605000Y-98234500D01*
X174605000Y-98234500D02*
X177313500Y-98234500D01*
X177313500Y-98234500D02*
X177379500Y-98300500D01*
X177493000Y-107418000D02*
X177493000Y-105918000D01*
X177493000Y-107468000D02*
X177493000Y-107418000D01*
X181991000Y-113665000D02*
X180530500Y-113665000D01*
X173418500Y-100901500D02*
X173418500Y-100016500D01*
X173418500Y-100016500D02*
X174184500Y-99250500D01*
X174184500Y-99250500D02*
X176579500Y-99250500D01*
X176579500Y-99250500D02*
X177379500Y-99250500D01*
D26*
G36*
X187398844Y-114441586D02*
X187816217Y-114859688D01*
X188361819Y-115086242D01*
X188952589Y-115086757D01*
X189290000Y-114947342D01*
X189290000Y-117332339D01*
X189255878Y-117309539D01*
X188687593Y-117196500D01*
X188629407Y-117196500D01*
X188061122Y-117309539D01*
X187579353Y-117631446D01*
X187257446Y-118113215D01*
X187144407Y-118681500D01*
X187257446Y-119249785D01*
X187579353Y-119731554D01*
X187908526Y-119951500D01*
X187579353Y-120171446D01*
X187257446Y-120653215D01*
X187144407Y-121221500D01*
X187257446Y-121789785D01*
X187579353Y-122271554D01*
X187907923Y-122491097D01*
X187881914Y-122501844D01*
X187463812Y-122919217D01*
X187435645Y-122987050D01*
X187232054Y-122682353D01*
X186750285Y-122360446D01*
X186182000Y-122247407D01*
X185613715Y-122360446D01*
X185131946Y-122682353D01*
X184912000Y-123011526D01*
X184692054Y-122682353D01*
X184210285Y-122360446D01*
X183642000Y-122247407D01*
X183073715Y-122360446D01*
X182591946Y-122682353D01*
X182372000Y-123011526D01*
X182152054Y-122682353D01*
X181670285Y-122360446D01*
X181102000Y-122247407D01*
X180735592Y-122320290D01*
X180038483Y-121623181D01*
X180175599Y-121623301D01*
X180813515Y-121359719D01*
X181302004Y-120872082D01*
X181566699Y-120234627D01*
X181567301Y-119544401D01*
X181303719Y-118906485D01*
X180816082Y-118417996D01*
X180178627Y-118153301D01*
X179488401Y-118152699D01*
X178850485Y-118416281D01*
X178361996Y-118903918D01*
X178134440Y-119451933D01*
X178134440Y-119238000D01*
X178090162Y-119002683D01*
X177984732Y-118838841D01*
X178083431Y-118694390D01*
X178134440Y-118442500D01*
X178134440Y-117569862D01*
X178287791Y-117416511D01*
X178522000Y-117463940D01*
X179872000Y-117463940D01*
X180107317Y-117419662D01*
X180323441Y-117280590D01*
X180394683Y-117176323D01*
X180695685Y-117377446D01*
X181197000Y-117477164D01*
X181698315Y-117377446D01*
X182123310Y-117093474D01*
X182197000Y-116983189D01*
X182270690Y-117093474D01*
X182695685Y-117377446D01*
X183197000Y-117477164D01*
X183698315Y-117377446D01*
X184123310Y-117093474D01*
X184407282Y-116668479D01*
X184507000Y-116167164D01*
X184507000Y-116115836D01*
X184407282Y-115614521D01*
X184123310Y-115189526D01*
X183851511Y-115007916D01*
X183910283Y-114919957D01*
X184046000Y-114947440D01*
X185016000Y-114947440D01*
X185251317Y-114903162D01*
X185467441Y-114764090D01*
X185612431Y-114551890D01*
X185638127Y-114425000D01*
X187391991Y-114425000D01*
X187398844Y-114441586D01*
X187398844Y-114441586D01*
G37*
X187398844Y-114441586D02*
X187816217Y-114859688D01*
X188361819Y-115086242D01*
X188952589Y-115086757D01*
X189290000Y-114947342D01*
X189290000Y-117332339D01*
X189255878Y-117309539D01*
X188687593Y-117196500D01*
X188629407Y-117196500D01*
X188061122Y-117309539D01*
X187579353Y-117631446D01*
X187257446Y-118113215D01*
X187144407Y-118681500D01*
X187257446Y-119249785D01*
X187579353Y-119731554D01*
X187908526Y-119951500D01*
X187579353Y-120171446D01*
X187257446Y-120653215D01*
X187144407Y-121221500D01*
X187257446Y-121789785D01*
X187579353Y-122271554D01*
X187907923Y-122491097D01*
X187881914Y-122501844D01*
X187463812Y-122919217D01*
X187435645Y-122987050D01*
X187232054Y-122682353D01*
X186750285Y-122360446D01*
X186182000Y-122247407D01*
X185613715Y-122360446D01*
X185131946Y-122682353D01*
X184912000Y-123011526D01*
X184692054Y-122682353D01*
X184210285Y-122360446D01*
X183642000Y-122247407D01*
X183073715Y-122360446D01*
X182591946Y-122682353D01*
X182372000Y-123011526D01*
X182152054Y-122682353D01*
X181670285Y-122360446D01*
X181102000Y-122247407D01*
X180735592Y-122320290D01*
X180038483Y-121623181D01*
X180175599Y-121623301D01*
X180813515Y-121359719D01*
X181302004Y-120872082D01*
X181566699Y-120234627D01*
X181567301Y-119544401D01*
X181303719Y-118906485D01*
X180816082Y-118417996D01*
X180178627Y-118153301D01*
X179488401Y-118152699D01*
X178850485Y-118416281D01*
X178361996Y-118903918D01*
X178134440Y-119451933D01*
X178134440Y-119238000D01*
X178090162Y-119002683D01*
X177984732Y-118838841D01*
X178083431Y-118694390D01*
X178134440Y-118442500D01*
X178134440Y-117569862D01*
X178287791Y-117416511D01*
X178522000Y-117463940D01*
X179872000Y-117463940D01*
X180107317Y-117419662D01*
X180323441Y-117280590D01*
X180394683Y-117176323D01*
X180695685Y-117377446D01*
X181197000Y-117477164D01*
X181698315Y-117377446D01*
X182123310Y-117093474D01*
X182197000Y-116983189D01*
X182270690Y-117093474D01*
X182695685Y-117377446D01*
X183197000Y-117477164D01*
X183698315Y-117377446D01*
X184123310Y-117093474D01*
X184407282Y-116668479D01*
X184507000Y-116167164D01*
X184507000Y-116115836D01*
X184407282Y-115614521D01*
X184123310Y-115189526D01*
X183851511Y-115007916D01*
X183910283Y-114919957D01*
X184046000Y-114947440D01*
X185016000Y-114947440D01*
X185251317Y-114903162D01*
X185467441Y-114764090D01*
X185612431Y-114551890D01*
X185638127Y-114425000D01*
X187391991Y-114425000D01*
X187398844Y-114441586D01*
G36*
X189290000Y-97412560D02*
X187740000Y-97412560D01*
X187504683Y-97456838D01*
X187288559Y-97595910D01*
X187143569Y-97808110D01*
X187092560Y-98060000D01*
X187092560Y-98860000D01*
X187136838Y-99095317D01*
X187139307Y-99099155D01*
X187092560Y-99330000D01*
X187092560Y-100130000D01*
X187136838Y-100365317D01*
X187139307Y-100369155D01*
X187092560Y-100600000D01*
X187092560Y-101400000D01*
X187136838Y-101635317D01*
X187139307Y-101639155D01*
X187092560Y-101870000D01*
X187092560Y-102670000D01*
X187136838Y-102905317D01*
X187139307Y-102909155D01*
X187092560Y-103140000D01*
X187092560Y-103940000D01*
X187136838Y-104175317D01*
X187275910Y-104391441D01*
X187488110Y-104536431D01*
X187740000Y-104587440D01*
X189290000Y-104587440D01*
X189290000Y-112255787D01*
X188955181Y-112116758D01*
X188364411Y-112116243D01*
X187818414Y-112341844D01*
X187400312Y-112759217D01*
X187339778Y-112905000D01*
X185639920Y-112905000D01*
X185619162Y-112794683D01*
X185480090Y-112578559D01*
X185267890Y-112433569D01*
X185016000Y-112382560D01*
X184168000Y-112382560D01*
X184168000Y-108014058D01*
X184393317Y-107971662D01*
X184609441Y-107832590D01*
X184754431Y-107620390D01*
X184805440Y-107368500D01*
X184805440Y-106118500D01*
X184761162Y-105883183D01*
X184622090Y-105667059D01*
X184409890Y-105522069D01*
X184158000Y-105471060D01*
X184120000Y-105471060D01*
X184120000Y-104587440D01*
X184260000Y-104587440D01*
X184495317Y-104543162D01*
X184711441Y-104404090D01*
X184856431Y-104191890D01*
X184907440Y-103940000D01*
X184907440Y-103140000D01*
X184863162Y-102904683D01*
X184860693Y-102900845D01*
X184907440Y-102670000D01*
X184907440Y-101870000D01*
X184863162Y-101634683D01*
X184860693Y-101630845D01*
X184907440Y-101400000D01*
X184907440Y-100600000D01*
X184863162Y-100364683D01*
X184724090Y-100148559D01*
X184511890Y-100003569D01*
X184260000Y-99952560D01*
X182460000Y-99952560D01*
X182370000Y-99969495D01*
X182370000Y-99489215D01*
X182460000Y-99507440D01*
X184260000Y-99507440D01*
X184495317Y-99463162D01*
X184711441Y-99324090D01*
X184806362Y-99185167D01*
X185064838Y-99185167D01*
X185206883Y-99528943D01*
X185469673Y-99792192D01*
X185813201Y-99934838D01*
X186185167Y-99935162D01*
X186528943Y-99793117D01*
X186792192Y-99530327D01*
X186934838Y-99186799D01*
X186935162Y-98814833D01*
X186793117Y-98471057D01*
X186530327Y-98207808D01*
X186186799Y-98065162D01*
X185814833Y-98064838D01*
X185471057Y-98206883D01*
X185207808Y-98469673D01*
X185065162Y-98813201D01*
X185064838Y-99185167D01*
X184806362Y-99185167D01*
X184856431Y-99111890D01*
X184907440Y-98860000D01*
X184907440Y-98060000D01*
X184863162Y-97824683D01*
X184724090Y-97608559D01*
X184511890Y-97463569D01*
X184260000Y-97412560D01*
X182460000Y-97412560D01*
X182224683Y-97456838D01*
X182008559Y-97595910D01*
X181863569Y-97808110D01*
X181846450Y-97892648D01*
X181747421Y-97793619D01*
X181732662Y-97715183D01*
X181593590Y-97499059D01*
X181381390Y-97354069D01*
X181129500Y-97303060D01*
X179629500Y-97303060D01*
X179394183Y-97347338D01*
X179178059Y-97486410D01*
X179122714Y-97567410D01*
X178967161Y-97598352D01*
X178739324Y-97750588D01*
X178732662Y-97715183D01*
X178593590Y-97499059D01*
X178381390Y-97354069D01*
X178129500Y-97303060D01*
X176629500Y-97303060D01*
X176394183Y-97347338D01*
X176196568Y-97474500D01*
X175977038Y-97474500D01*
X175958162Y-97374183D01*
X175819090Y-97158059D01*
X175606890Y-97013069D01*
X175355000Y-96962060D01*
X173855000Y-96962060D01*
X173619683Y-97006338D01*
X173403559Y-97145410D01*
X173258569Y-97357610D01*
X173207560Y-97609500D01*
X173207560Y-98432138D01*
X172020638Y-99619060D01*
X171663500Y-99619060D01*
X171428183Y-99663338D01*
X171212059Y-99802410D01*
X171067069Y-100014610D01*
X171016060Y-100266500D01*
X171016060Y-101536500D01*
X171060338Y-101771817D01*
X171199410Y-101987941D01*
X171250544Y-102022879D01*
X171213662Y-102111701D01*
X171213338Y-102483667D01*
X171355383Y-102827443D01*
X171618173Y-103090692D01*
X171961701Y-103233338D01*
X172333667Y-103233662D01*
X172677443Y-103091617D01*
X172940692Y-102828827D01*
X173083338Y-102485299D01*
X173083600Y-102183940D01*
X173903500Y-102183940D01*
X174138817Y-102139662D01*
X174354941Y-102000590D01*
X174499931Y-101788390D01*
X174550940Y-101536500D01*
X174550940Y-100266500D01*
X174506662Y-100031183D01*
X174495682Y-100014120D01*
X174499302Y-100010500D01*
X176138743Y-100010500D01*
X176165410Y-100051941D01*
X176377610Y-100196931D01*
X176629500Y-100247940D01*
X178129500Y-100247940D01*
X178364817Y-100203662D01*
X178373500Y-100198075D01*
X178373500Y-103158500D01*
X178431352Y-103449339D01*
X178596099Y-103695901D01*
X179320704Y-104420506D01*
X179305599Y-104430599D01*
X178730599Y-105005599D01*
X178565852Y-105252161D01*
X178508000Y-105543000D01*
X178508000Y-106865631D01*
X178283839Y-106715852D01*
X178253000Y-106709718D01*
X178253000Y-106596386D01*
X178339431Y-106469890D01*
X178390440Y-106218000D01*
X178390440Y-105618000D01*
X178346162Y-105382683D01*
X178207090Y-105166559D01*
X178205701Y-105165610D01*
X178339431Y-104969890D01*
X178390440Y-104718000D01*
X178390440Y-104118000D01*
X178346162Y-103882683D01*
X178207090Y-103666559D01*
X177994890Y-103521569D01*
X177743000Y-103470560D01*
X177243000Y-103470560D01*
X177007683Y-103514838D01*
X176791559Y-103653910D01*
X176646569Y-103866110D01*
X176595560Y-104118000D01*
X176595560Y-104718000D01*
X176639838Y-104953317D01*
X176778910Y-105169441D01*
X176780299Y-105170390D01*
X176646569Y-105366110D01*
X176595560Y-105618000D01*
X176595560Y-106218000D01*
X176639838Y-106453317D01*
X176733000Y-106598095D01*
X176733000Y-106638500D01*
X176657558Y-106638500D01*
X176615162Y-106413183D01*
X176476090Y-106197059D01*
X176263890Y-106052069D01*
X176171746Y-106033409D01*
X176194838Y-105977799D01*
X176195162Y-105605833D01*
X176053117Y-105262057D01*
X175790327Y-104998808D01*
X175446799Y-104856162D01*
X175074833Y-104855838D01*
X174731057Y-104997883D01*
X174467808Y-105260673D01*
X174325162Y-105604201D01*
X174324838Y-105976167D01*
X174389811Y-106133413D01*
X174310559Y-106184410D01*
X174165569Y-106396610D01*
X174114560Y-106648500D01*
X174114560Y-108148500D01*
X174158838Y-108383817D01*
X174297910Y-108599941D01*
X174510110Y-108744931D01*
X174762000Y-108795940D01*
X176012000Y-108795940D01*
X176247317Y-108751662D01*
X176463441Y-108612590D01*
X176608431Y-108400390D01*
X176657415Y-108158500D01*
X176771870Y-108158500D01*
X176778910Y-108169441D01*
X176991110Y-108314431D01*
X177243000Y-108365440D01*
X177743000Y-108365440D01*
X177846216Y-108346018D01*
X177858000Y-108357802D01*
X177858000Y-108726880D01*
X177846569Y-108743610D01*
X177795560Y-108995500D01*
X177795560Y-109353140D01*
X177430599Y-109718101D01*
X177265852Y-109964663D01*
X177208000Y-110255502D01*
X177208000Y-110326880D01*
X177196569Y-110343610D01*
X177145560Y-110595500D01*
X177145560Y-111095500D01*
X177189838Y-111330817D01*
X177328910Y-111546941D01*
X177541110Y-111691931D01*
X177793000Y-111742940D01*
X178143000Y-111742940D01*
X178378317Y-111698662D01*
X178594441Y-111559590D01*
X178616384Y-111527475D01*
X178628910Y-111546941D01*
X178841110Y-111691931D01*
X179093000Y-111742940D01*
X179443000Y-111742940D01*
X179557873Y-111721325D01*
X176278698Y-115000500D01*
X175893590Y-115000500D01*
X175602751Y-115058352D01*
X175412477Y-115185489D01*
X174984011Y-115185489D01*
X174693172Y-115243341D01*
X174446610Y-115408088D01*
X173499599Y-116355099D01*
X173406080Y-116495060D01*
X173287000Y-116495060D01*
X173051683Y-116539338D01*
X172835559Y-116678410D01*
X172690569Y-116890610D01*
X172639560Y-117142500D01*
X172639560Y-117161580D01*
X172499599Y-117255099D01*
X172182599Y-117572099D01*
X172050296Y-117770105D01*
X171957647Y-117631446D01*
X171628474Y-117411500D01*
X171957647Y-117191554D01*
X172279554Y-116709785D01*
X172392593Y-116141500D01*
X172279554Y-115573215D01*
X171957647Y-115091446D01*
X171628474Y-114871500D01*
X171957647Y-114651554D01*
X172279554Y-114169785D01*
X172392593Y-113601500D01*
X172279554Y-113033215D01*
X171957647Y-112551446D01*
X171475878Y-112229539D01*
X170907593Y-112116500D01*
X170849407Y-112116500D01*
X170710000Y-112144230D01*
X170710000Y-95710000D01*
X189290000Y-95710000D01*
X189290000Y-97412560D01*
X189290000Y-97412560D01*
G37*
X189290000Y-97412560D02*
X187740000Y-97412560D01*
X187504683Y-97456838D01*
X187288559Y-97595910D01*
X187143569Y-97808110D01*
X187092560Y-98060000D01*
X187092560Y-98860000D01*
X187136838Y-99095317D01*
X187139307Y-99099155D01*
X187092560Y-99330000D01*
X187092560Y-100130000D01*
X187136838Y-100365317D01*
X187139307Y-100369155D01*
X187092560Y-100600000D01*
X187092560Y-101400000D01*
X187136838Y-101635317D01*
X187139307Y-101639155D01*
X187092560Y-101870000D01*
X187092560Y-102670000D01*
X187136838Y-102905317D01*
X187139307Y-102909155D01*
X187092560Y-103140000D01*
X187092560Y-103940000D01*
X187136838Y-104175317D01*
X187275910Y-104391441D01*
X187488110Y-104536431D01*
X187740000Y-104587440D01*
X189290000Y-104587440D01*
X189290000Y-112255787D01*
X188955181Y-112116758D01*
X188364411Y-112116243D01*
X187818414Y-112341844D01*
X187400312Y-112759217D01*
X187339778Y-112905000D01*
X185639920Y-112905000D01*
X185619162Y-112794683D01*
X185480090Y-112578559D01*
X185267890Y-112433569D01*
X185016000Y-112382560D01*
X184168000Y-112382560D01*
X184168000Y-108014058D01*
X184393317Y-107971662D01*
X184609441Y-107832590D01*
X184754431Y-107620390D01*
X184805440Y-107368500D01*
X184805440Y-106118500D01*
X184761162Y-105883183D01*
X184622090Y-105667059D01*
X184409890Y-105522069D01*
X184158000Y-105471060D01*
X184120000Y-105471060D01*
X184120000Y-104587440D01*
X184260000Y-104587440D01*
X184495317Y-104543162D01*
X184711441Y-104404090D01*
X184856431Y-104191890D01*
X184907440Y-103940000D01*
X184907440Y-103140000D01*
X184863162Y-102904683D01*
X184860693Y-102900845D01*
X184907440Y-102670000D01*
X184907440Y-101870000D01*
X184863162Y-101634683D01*
X184860693Y-101630845D01*
X184907440Y-101400000D01*
X184907440Y-100600000D01*
X184863162Y-100364683D01*
X184724090Y-100148559D01*
X184511890Y-100003569D01*
X184260000Y-99952560D01*
X182460000Y-99952560D01*
X182370000Y-99969495D01*
X182370000Y-99489215D01*
X182460000Y-99507440D01*
X184260000Y-99507440D01*
X184495317Y-99463162D01*
X184711441Y-99324090D01*
X184806362Y-99185167D01*
X185064838Y-99185167D01*
X185206883Y-99528943D01*
X185469673Y-99792192D01*
X185813201Y-99934838D01*
X186185167Y-99935162D01*
X186528943Y-99793117D01*
X186792192Y-99530327D01*
X186934838Y-99186799D01*
X186935162Y-98814833D01*
X186793117Y-98471057D01*
X186530327Y-98207808D01*
X186186799Y-98065162D01*
X185814833Y-98064838D01*
X185471057Y-98206883D01*
X185207808Y-98469673D01*
X185065162Y-98813201D01*
X185064838Y-99185167D01*
X184806362Y-99185167D01*
X184856431Y-99111890D01*
X184907440Y-98860000D01*
X184907440Y-98060000D01*
X184863162Y-97824683D01*
X184724090Y-97608559D01*
X184511890Y-97463569D01*
X184260000Y-97412560D01*
X182460000Y-97412560D01*
X182224683Y-97456838D01*
X182008559Y-97595910D01*
X181863569Y-97808110D01*
X181846450Y-97892648D01*
X181747421Y-97793619D01*
X181732662Y-97715183D01*
X181593590Y-97499059D01*
X181381390Y-97354069D01*
X181129500Y-97303060D01*
X179629500Y-97303060D01*
X179394183Y-97347338D01*
X179178059Y-97486410D01*
X179122714Y-97567410D01*
X178967161Y-97598352D01*
X178739324Y-97750588D01*
X178732662Y-97715183D01*
X178593590Y-97499059D01*
X178381390Y-97354069D01*
X178129500Y-97303060D01*
X176629500Y-97303060D01*
X176394183Y-97347338D01*
X176196568Y-97474500D01*
X175977038Y-97474500D01*
X175958162Y-97374183D01*
X175819090Y-97158059D01*
X175606890Y-97013069D01*
X175355000Y-96962060D01*
X173855000Y-96962060D01*
X173619683Y-97006338D01*
X173403559Y-97145410D01*
X173258569Y-97357610D01*
X173207560Y-97609500D01*
X173207560Y-98432138D01*
X172020638Y-99619060D01*
X171663500Y-99619060D01*
X171428183Y-99663338D01*
X171212059Y-99802410D01*
X171067069Y-100014610D01*
X171016060Y-100266500D01*
X171016060Y-101536500D01*
X171060338Y-101771817D01*
X171199410Y-101987941D01*
X171250544Y-102022879D01*
X171213662Y-102111701D01*
X171213338Y-102483667D01*
X171355383Y-102827443D01*
X171618173Y-103090692D01*
X171961701Y-103233338D01*
X172333667Y-103233662D01*
X172677443Y-103091617D01*
X172940692Y-102828827D01*
X173083338Y-102485299D01*
X173083600Y-102183940D01*
X173903500Y-102183940D01*
X174138817Y-102139662D01*
X174354941Y-102000590D01*
X174499931Y-101788390D01*
X174550940Y-101536500D01*
X174550940Y-100266500D01*
X174506662Y-100031183D01*
X174495682Y-100014120D01*
X174499302Y-100010500D01*
X176138743Y-100010500D01*
X176165410Y-100051941D01*
X176377610Y-100196931D01*
X176629500Y-100247940D01*
X178129500Y-100247940D01*
X178364817Y-100203662D01*
X178373500Y-100198075D01*
X178373500Y-103158500D01*
X178431352Y-103449339D01*
X178596099Y-103695901D01*
X179320704Y-104420506D01*
X179305599Y-104430599D01*
X178730599Y-105005599D01*
X178565852Y-105252161D01*
X178508000Y-105543000D01*
X178508000Y-106865631D01*
X178283839Y-106715852D01*
X178253000Y-106709718D01*
X178253000Y-106596386D01*
X178339431Y-106469890D01*
X178390440Y-106218000D01*
X178390440Y-105618000D01*
X178346162Y-105382683D01*
X178207090Y-105166559D01*
X178205701Y-105165610D01*
X178339431Y-104969890D01*
X178390440Y-104718000D01*
X178390440Y-104118000D01*
X178346162Y-103882683D01*
X178207090Y-103666559D01*
X177994890Y-103521569D01*
X177743000Y-103470560D01*
X177243000Y-103470560D01*
X177007683Y-103514838D01*
X176791559Y-103653910D01*
X176646569Y-103866110D01*
X176595560Y-104118000D01*
X176595560Y-104718000D01*
X176639838Y-104953317D01*
X176778910Y-105169441D01*
X176780299Y-105170390D01*
X176646569Y-105366110D01*
X176595560Y-105618000D01*
X176595560Y-106218000D01*
X176639838Y-106453317D01*
X176733000Y-106598095D01*
X176733000Y-106638500D01*
X176657558Y-106638500D01*
X176615162Y-106413183D01*
X176476090Y-106197059D01*
X176263890Y-106052069D01*
X176171746Y-106033409D01*
X176194838Y-105977799D01*
X176195162Y-105605833D01*
X176053117Y-105262057D01*
X175790327Y-104998808D01*
X175446799Y-104856162D01*
X175074833Y-104855838D01*
X174731057Y-104997883D01*
X174467808Y-105260673D01*
X174325162Y-105604201D01*
X174324838Y-105976167D01*
X174389811Y-106133413D01*
X174310559Y-106184410D01*
X174165569Y-106396610D01*
X174114560Y-106648500D01*
X174114560Y-108148500D01*
X174158838Y-108383817D01*
X174297910Y-108599941D01*
X174510110Y-108744931D01*
X174762000Y-108795940D01*
X176012000Y-108795940D01*
X176247317Y-108751662D01*
X176463441Y-108612590D01*
X176608431Y-108400390D01*
X176657415Y-108158500D01*
X176771870Y-108158500D01*
X176778910Y-108169441D01*
X176991110Y-108314431D01*
X177243000Y-108365440D01*
X177743000Y-108365440D01*
X177846216Y-108346018D01*
X177858000Y-108357802D01*
X177858000Y-108726880D01*
X177846569Y-108743610D01*
X177795560Y-108995500D01*
X177795560Y-109353140D01*
X177430599Y-109718101D01*
X177265852Y-109964663D01*
X177208000Y-110255502D01*
X177208000Y-110326880D01*
X177196569Y-110343610D01*
X177145560Y-110595500D01*
X177145560Y-111095500D01*
X177189838Y-111330817D01*
X177328910Y-111546941D01*
X177541110Y-111691931D01*
X177793000Y-111742940D01*
X178143000Y-111742940D01*
X178378317Y-111698662D01*
X178594441Y-111559590D01*
X178616384Y-111527475D01*
X178628910Y-111546941D01*
X178841110Y-111691931D01*
X179093000Y-111742940D01*
X179443000Y-111742940D01*
X179557873Y-111721325D01*
X176278698Y-115000500D01*
X175893590Y-115000500D01*
X175602751Y-115058352D01*
X175412477Y-115185489D01*
X174984011Y-115185489D01*
X174693172Y-115243341D01*
X174446610Y-115408088D01*
X173499599Y-116355099D01*
X173406080Y-116495060D01*
X173287000Y-116495060D01*
X173051683Y-116539338D01*
X172835559Y-116678410D01*
X172690569Y-116890610D01*
X172639560Y-117142500D01*
X172639560Y-117161580D01*
X172499599Y-117255099D01*
X172182599Y-117572099D01*
X172050296Y-117770105D01*
X171957647Y-117631446D01*
X171628474Y-117411500D01*
X171957647Y-117191554D01*
X172279554Y-116709785D01*
X172392593Y-116141500D01*
X172279554Y-115573215D01*
X171957647Y-115091446D01*
X171628474Y-114871500D01*
X171957647Y-114651554D01*
X172279554Y-114169785D01*
X172392593Y-113601500D01*
X172279554Y-113033215D01*
X171957647Y-112551446D01*
X171475878Y-112229539D01*
X170907593Y-112116500D01*
X170849407Y-112116500D01*
X170710000Y-112144230D01*
X170710000Y-95710000D01*
X189290000Y-95710000D01*
X189290000Y-97412560D01*
M02*
