G04 #@! TF.FileFunction,Legend,Top*
%FSLAX46Y46*%
G04 Gerber Fmt 4.6, Leading zero omitted, Abs format (unit mm)*
G04 Created by KiCad (PCBNEW 4.0.2-stable) date 05.07.2017 20:46:59*
%MOMM*%
G01*
G04 APERTURE LIST*
%ADD10C,0.100000*%
%ADD11C,0.200000*%
%ADD12C,0.120000*%
%ADD13C,0.149860*%
%ADD14C,0.150000*%
G04 APERTURE END LIST*
D10*
D11*
X181959405Y-120403881D02*
X181626071Y-119927690D01*
X181387976Y-120403881D02*
X181387976Y-119403881D01*
X181768929Y-119403881D01*
X181864167Y-119451500D01*
X181911786Y-119499119D01*
X181959405Y-119594357D01*
X181959405Y-119737214D01*
X181911786Y-119832452D01*
X181864167Y-119880071D01*
X181768929Y-119927690D01*
X181387976Y-119927690D01*
X182768929Y-120356262D02*
X182673691Y-120403881D01*
X182483214Y-120403881D01*
X182387976Y-120356262D01*
X182340357Y-120261024D01*
X182340357Y-119880071D01*
X182387976Y-119784833D01*
X182483214Y-119737214D01*
X182673691Y-119737214D01*
X182768929Y-119784833D01*
X182816548Y-119880071D01*
X182816548Y-119975310D01*
X182340357Y-120070548D01*
X183197500Y-120356262D02*
X183292738Y-120403881D01*
X183483214Y-120403881D01*
X183578453Y-120356262D01*
X183626072Y-120261024D01*
X183626072Y-120213405D01*
X183578453Y-120118167D01*
X183483214Y-120070548D01*
X183340357Y-120070548D01*
X183245119Y-120022929D01*
X183197500Y-119927690D01*
X183197500Y-119880071D01*
X183245119Y-119784833D01*
X183340357Y-119737214D01*
X183483214Y-119737214D01*
X183578453Y-119784833D01*
X184435596Y-120356262D02*
X184340358Y-120403881D01*
X184149881Y-120403881D01*
X184054643Y-120356262D01*
X184007024Y-120261024D01*
X184007024Y-119880071D01*
X184054643Y-119784833D01*
X184149881Y-119737214D01*
X184340358Y-119737214D01*
X184435596Y-119784833D01*
X184483215Y-119880071D01*
X184483215Y-119975310D01*
X184007024Y-120070548D01*
X184768929Y-119737214D02*
X185149881Y-119737214D01*
X184911786Y-119403881D02*
X184911786Y-120261024D01*
X184959405Y-120356262D01*
X185054643Y-120403881D01*
X185149881Y-120403881D01*
X176450929Y-102989071D02*
X176593786Y-103036690D01*
X176641405Y-103084310D01*
X176689024Y-103179548D01*
X176689024Y-103322405D01*
X176641405Y-103417643D01*
X176593786Y-103465262D01*
X176498548Y-103512881D01*
X176117595Y-103512881D01*
X176117595Y-102512881D01*
X176450929Y-102512881D01*
X176546167Y-102560500D01*
X176593786Y-102608119D01*
X176641405Y-102703357D01*
X176641405Y-102798595D01*
X176593786Y-102893833D01*
X176546167Y-102941452D01*
X176450929Y-102989071D01*
X176117595Y-102989071D01*
X177117595Y-103512881D02*
X177117595Y-102512881D01*
X177450929Y-103227167D01*
X177784262Y-102512881D01*
X177784262Y-103512881D01*
X178260452Y-103512881D02*
X178260452Y-102512881D01*
X178641405Y-102512881D01*
X178736643Y-102560500D01*
X178784262Y-102608119D01*
X178831881Y-102703357D01*
X178831881Y-102846214D01*
X178784262Y-102941452D01*
X178736643Y-102989071D01*
X178641405Y-103036690D01*
X178260452Y-103036690D01*
X179784262Y-103512881D02*
X179212833Y-103512881D01*
X179498547Y-103512881D02*
X179498547Y-102512881D01*
X179403309Y-102655738D01*
X179308071Y-102750976D01*
X179212833Y-102798595D01*
X180355690Y-102941452D02*
X180260452Y-102893833D01*
X180212833Y-102846214D01*
X180165214Y-102750976D01*
X180165214Y-102703357D01*
X180212833Y-102608119D01*
X180260452Y-102560500D01*
X180355690Y-102512881D01*
X180546167Y-102512881D01*
X180641405Y-102560500D01*
X180689024Y-102608119D01*
X180736643Y-102703357D01*
X180736643Y-102750976D01*
X180689024Y-102846214D01*
X180641405Y-102893833D01*
X180546167Y-102941452D01*
X180355690Y-102941452D01*
X180260452Y-102989071D01*
X180212833Y-103036690D01*
X180165214Y-103131929D01*
X180165214Y-103322405D01*
X180212833Y-103417643D01*
X180260452Y-103465262D01*
X180355690Y-103512881D01*
X180546167Y-103512881D01*
X180641405Y-103465262D01*
X180689024Y-103417643D01*
X180736643Y-103322405D01*
X180736643Y-103131929D01*
X180689024Y-103036690D01*
X180641405Y-102989071D01*
X180546167Y-102941452D01*
X181355690Y-102512881D02*
X181450929Y-102512881D01*
X181546167Y-102560500D01*
X181593786Y-102608119D01*
X181641405Y-102703357D01*
X181689024Y-102893833D01*
X181689024Y-103131929D01*
X181641405Y-103322405D01*
X181593786Y-103417643D01*
X181546167Y-103465262D01*
X181450929Y-103512881D01*
X181355690Y-103512881D01*
X181260452Y-103465262D01*
X181212833Y-103417643D01*
X181165214Y-103322405D01*
X181117595Y-103131929D01*
X181117595Y-102893833D01*
X181165214Y-102703357D01*
X181212833Y-102608119D01*
X181260452Y-102560500D01*
X181355690Y-102512881D01*
D10*
X172004071Y-118175143D02*
X172604071Y-118175143D01*
X172604071Y-118318000D01*
X172575500Y-118403715D01*
X172518357Y-118460857D01*
X172461214Y-118489429D01*
X172346929Y-118518000D01*
X172261214Y-118518000D01*
X172146929Y-118489429D01*
X172089786Y-118460857D01*
X172032643Y-118403715D01*
X172004071Y-118318000D01*
X172004071Y-118175143D01*
X172604071Y-118718000D02*
X172604071Y-119118000D01*
X172004071Y-118860857D01*
X172318357Y-115898643D02*
X172289786Y-115984357D01*
X172261214Y-116012929D01*
X172204071Y-116041500D01*
X172118357Y-116041500D01*
X172061214Y-116012929D01*
X172032643Y-115984357D01*
X172004071Y-115927215D01*
X172004071Y-115698643D01*
X172604071Y-115698643D01*
X172604071Y-115898643D01*
X172575500Y-115955786D01*
X172546929Y-115984357D01*
X172489786Y-116012929D01*
X172432643Y-116012929D01*
X172375500Y-115984357D01*
X172346929Y-115955786D01*
X172318357Y-115898643D01*
X172318357Y-115698643D01*
X172004071Y-116612929D02*
X172004071Y-116270072D01*
X172004071Y-116441500D02*
X172604071Y-116441500D01*
X172518357Y-116384357D01*
X172461214Y-116327215D01*
X172432643Y-116270072D01*
X172604071Y-112801500D02*
X172004071Y-113001500D01*
X172604071Y-113201500D01*
X172061214Y-113744357D02*
X172032643Y-113715786D01*
X172004071Y-113630072D01*
X172004071Y-113572929D01*
X172032643Y-113487214D01*
X172089786Y-113430072D01*
X172146929Y-113401500D01*
X172261214Y-113372929D01*
X172346929Y-113372929D01*
X172461214Y-113401500D01*
X172518357Y-113430072D01*
X172575500Y-113487214D01*
X172604071Y-113572929D01*
X172604071Y-113630072D01*
X172575500Y-113715786D01*
X172546929Y-113744357D01*
X172061214Y-114344357D02*
X172032643Y-114315786D01*
X172004071Y-114230072D01*
X172004071Y-114172929D01*
X172032643Y-114087214D01*
X172089786Y-114030072D01*
X172146929Y-114001500D01*
X172261214Y-113972929D01*
X172346929Y-113972929D01*
X172461214Y-114001500D01*
X172518357Y-114030072D01*
X172575500Y-114087214D01*
X172604071Y-114172929D01*
X172604071Y-114230072D01*
X172575500Y-114315786D01*
X172546929Y-114344357D01*
X172575500Y-110667858D02*
X172604071Y-110610715D01*
X172604071Y-110525001D01*
X172575500Y-110439286D01*
X172518357Y-110382144D01*
X172461214Y-110353572D01*
X172346929Y-110325001D01*
X172261214Y-110325001D01*
X172146929Y-110353572D01*
X172089786Y-110382144D01*
X172032643Y-110439286D01*
X172004071Y-110525001D01*
X172004071Y-110582144D01*
X172032643Y-110667858D01*
X172061214Y-110696429D01*
X172261214Y-110696429D01*
X172261214Y-110582144D01*
X172004071Y-110953572D02*
X172604071Y-110953572D01*
X172004071Y-111296429D01*
X172604071Y-111296429D01*
X172004071Y-111582143D02*
X172604071Y-111582143D01*
X172604071Y-111725000D01*
X172575500Y-111810715D01*
X172518357Y-111867857D01*
X172461214Y-111896429D01*
X172346929Y-111925000D01*
X172261214Y-111925000D01*
X172146929Y-111896429D01*
X172089786Y-111867857D01*
X172032643Y-111810715D01*
X172004071Y-111725000D01*
X172004071Y-111582143D01*
X170908429Y-108454571D02*
X170308429Y-108454571D01*
X170594143Y-108454571D02*
X170594143Y-108111714D01*
X170908429Y-108111714D02*
X170308429Y-108111714D01*
X170908429Y-107826000D02*
X170308429Y-107826000D01*
X170737000Y-107626000D01*
X170308429Y-107426000D01*
X170908429Y-107426000D01*
X170879857Y-107168857D02*
X170908429Y-107083143D01*
X170908429Y-106940286D01*
X170879857Y-106883143D01*
X170851286Y-106854572D01*
X170794143Y-106826000D01*
X170737000Y-106826000D01*
X170679857Y-106854572D01*
X170651286Y-106883143D01*
X170622714Y-106940286D01*
X170594143Y-107054572D01*
X170565571Y-107111714D01*
X170537000Y-107140286D01*
X170479857Y-107168857D01*
X170422714Y-107168857D01*
X170365571Y-107140286D01*
X170337000Y-107111714D01*
X170308429Y-107054572D01*
X170308429Y-106911714D01*
X170337000Y-106826000D01*
X170879857Y-106340285D02*
X170908429Y-106397428D01*
X170908429Y-106511714D01*
X170879857Y-106568857D01*
X170822714Y-106597428D01*
X170594143Y-106597428D01*
X170537000Y-106568857D01*
X170508429Y-106511714D01*
X170508429Y-106397428D01*
X170537000Y-106340285D01*
X170594143Y-106311714D01*
X170651286Y-106311714D01*
X170708429Y-106597428D01*
X170508429Y-106054571D02*
X170908429Y-106054571D01*
X170565571Y-106054571D02*
X170537000Y-106025999D01*
X170508429Y-105968857D01*
X170508429Y-105883142D01*
X170537000Y-105825999D01*
X170594143Y-105797428D01*
X170908429Y-105797428D01*
X170879857Y-105540285D02*
X170908429Y-105483142D01*
X170908429Y-105368857D01*
X170879857Y-105311714D01*
X170822714Y-105283142D01*
X170794143Y-105283142D01*
X170737000Y-105311714D01*
X170708429Y-105368857D01*
X170708429Y-105454571D01*
X170679857Y-105511714D01*
X170622714Y-105540285D01*
X170594143Y-105540285D01*
X170537000Y-105511714D01*
X170508429Y-105454571D01*
X170508429Y-105368857D01*
X170537000Y-105311714D01*
X170908429Y-104940286D02*
X170879857Y-104997428D01*
X170851286Y-105026000D01*
X170794143Y-105054571D01*
X170622714Y-105054571D01*
X170565571Y-105026000D01*
X170537000Y-104997428D01*
X170508429Y-104940286D01*
X170508429Y-104854571D01*
X170537000Y-104797428D01*
X170565571Y-104768857D01*
X170622714Y-104740286D01*
X170794143Y-104740286D01*
X170851286Y-104768857D01*
X170879857Y-104797428D01*
X170908429Y-104854571D01*
X170908429Y-104940286D01*
X170908429Y-104483143D02*
X170508429Y-104483143D01*
X170622714Y-104483143D02*
X170565571Y-104454571D01*
X170537000Y-104426000D01*
X170508429Y-104368857D01*
X170508429Y-104311714D01*
X171848429Y-108483143D02*
X171248429Y-108483143D01*
X171105571Y-108226000D02*
X171077000Y-108168857D01*
X171077000Y-108083143D01*
X171105571Y-108026000D01*
X171162714Y-107997429D01*
X171219857Y-107997429D01*
X171277000Y-108026000D01*
X171477000Y-108226000D01*
X171477000Y-107997429D01*
X171791286Y-107397429D02*
X171819857Y-107426000D01*
X171848429Y-107511714D01*
X171848429Y-107568857D01*
X171819857Y-107654572D01*
X171762714Y-107711714D01*
X171705571Y-107740286D01*
X171591286Y-107768857D01*
X171505571Y-107768857D01*
X171391286Y-107740286D01*
X171334143Y-107711714D01*
X171277000Y-107654572D01*
X171248429Y-107568857D01*
X171248429Y-107511714D01*
X171277000Y-107426000D01*
X171305571Y-107397429D01*
X171534143Y-106483143D02*
X171562714Y-106397429D01*
X171591286Y-106368857D01*
X171648429Y-106340286D01*
X171734143Y-106340286D01*
X171791286Y-106368857D01*
X171819857Y-106397429D01*
X171848429Y-106454571D01*
X171848429Y-106683143D01*
X171248429Y-106683143D01*
X171248429Y-106483143D01*
X171277000Y-106426000D01*
X171305571Y-106397429D01*
X171362714Y-106368857D01*
X171419857Y-106368857D01*
X171477000Y-106397429D01*
X171505571Y-106426000D01*
X171534143Y-106483143D01*
X171534143Y-106683143D01*
X171848429Y-105997429D02*
X171819857Y-106054571D01*
X171791286Y-106083143D01*
X171734143Y-106111714D01*
X171562714Y-106111714D01*
X171505571Y-106083143D01*
X171477000Y-106054571D01*
X171448429Y-105997429D01*
X171448429Y-105911714D01*
X171477000Y-105854571D01*
X171505571Y-105826000D01*
X171562714Y-105797429D01*
X171734143Y-105797429D01*
X171791286Y-105826000D01*
X171819857Y-105854571D01*
X171848429Y-105911714D01*
X171848429Y-105997429D01*
X171848429Y-105283143D02*
X171534143Y-105283143D01*
X171477000Y-105311714D01*
X171448429Y-105368857D01*
X171448429Y-105483143D01*
X171477000Y-105540286D01*
X171819857Y-105283143D02*
X171848429Y-105340286D01*
X171848429Y-105483143D01*
X171819857Y-105540286D01*
X171762714Y-105568857D01*
X171705571Y-105568857D01*
X171648429Y-105540286D01*
X171619857Y-105483143D01*
X171619857Y-105340286D01*
X171591286Y-105283143D01*
X171848429Y-104997429D02*
X171448429Y-104997429D01*
X171562714Y-104997429D02*
X171505571Y-104968857D01*
X171477000Y-104940286D01*
X171448429Y-104883143D01*
X171448429Y-104826000D01*
X171848429Y-104368857D02*
X171248429Y-104368857D01*
X171819857Y-104368857D02*
X171848429Y-104426000D01*
X171848429Y-104540286D01*
X171819857Y-104597428D01*
X171791286Y-104626000D01*
X171734143Y-104654571D01*
X171562714Y-104654571D01*
X171505571Y-104626000D01*
X171477000Y-104597428D01*
X171448429Y-104540286D01*
X171448429Y-104426000D01*
X171477000Y-104368857D01*
X172188429Y-107340286D02*
X172788429Y-107140286D01*
X172188429Y-106940286D01*
X172788429Y-106426000D02*
X172788429Y-106768857D01*
X172788429Y-106597429D02*
X172188429Y-106597429D01*
X172274143Y-106654572D01*
X172331286Y-106711714D01*
X172359857Y-106768857D01*
X172731286Y-106168857D02*
X172759857Y-106140285D01*
X172788429Y-106168857D01*
X172759857Y-106197428D01*
X172731286Y-106168857D01*
X172788429Y-106168857D01*
X172188429Y-105768857D02*
X172188429Y-105711714D01*
X172217000Y-105654571D01*
X172245571Y-105626000D01*
X172302714Y-105597429D01*
X172417000Y-105568857D01*
X172559857Y-105568857D01*
X172674143Y-105597429D01*
X172731286Y-105626000D01*
X172759857Y-105654571D01*
X172788429Y-105711714D01*
X172788429Y-105768857D01*
X172759857Y-105826000D01*
X172731286Y-105854571D01*
X172674143Y-105883143D01*
X172559857Y-105911714D01*
X172417000Y-105911714D01*
X172302714Y-105883143D01*
X172245571Y-105854571D01*
X172217000Y-105826000D01*
X172188429Y-105768857D01*
X186996429Y-114279285D02*
X187596429Y-114079285D01*
X186996429Y-113879285D01*
X187596429Y-113679285D02*
X187196429Y-113679285D01*
X186996429Y-113679285D02*
X187025000Y-113707856D01*
X187053571Y-113679285D01*
X187025000Y-113650713D01*
X186996429Y-113679285D01*
X187053571Y-113679285D01*
X187196429Y-113393571D02*
X187596429Y-113393571D01*
X187253571Y-113393571D02*
X187225000Y-113364999D01*
X187196429Y-113307857D01*
X187196429Y-113222142D01*
X187225000Y-113164999D01*
X187282143Y-113136428D01*
X187596429Y-113136428D01*
X175515643Y-122699429D02*
X175515643Y-122099429D01*
X175658500Y-122099429D01*
X175744215Y-122128000D01*
X175801357Y-122185143D01*
X175829929Y-122242286D01*
X175858500Y-122356571D01*
X175858500Y-122442286D01*
X175829929Y-122556571D01*
X175801357Y-122613714D01*
X175744215Y-122670857D01*
X175658500Y-122699429D01*
X175515643Y-122699429D01*
X176372786Y-122099429D02*
X176258500Y-122099429D01*
X176201357Y-122128000D01*
X176172786Y-122156571D01*
X176115643Y-122242286D01*
X176087072Y-122356571D01*
X176087072Y-122585143D01*
X176115643Y-122642286D01*
X176144215Y-122670857D01*
X176201357Y-122699429D01*
X176315643Y-122699429D01*
X176372786Y-122670857D01*
X176401357Y-122642286D01*
X176429929Y-122585143D01*
X176429929Y-122442286D01*
X176401357Y-122385143D01*
X176372786Y-122356571D01*
X176315643Y-122328000D01*
X176201357Y-122328000D01*
X176144215Y-122356571D01*
X176115643Y-122385143D01*
X176087072Y-122442286D01*
X178055643Y-122762929D02*
X178055643Y-122162929D01*
X178198500Y-122162929D01*
X178284215Y-122191500D01*
X178341357Y-122248643D01*
X178369929Y-122305786D01*
X178398500Y-122420071D01*
X178398500Y-122505786D01*
X178369929Y-122620071D01*
X178341357Y-122677214D01*
X178284215Y-122734357D01*
X178198500Y-122762929D01*
X178055643Y-122762929D01*
X178598500Y-122162929D02*
X178969929Y-122162929D01*
X178769929Y-122391500D01*
X178855643Y-122391500D01*
X178912786Y-122420071D01*
X178941357Y-122448643D01*
X178969929Y-122505786D01*
X178969929Y-122648643D01*
X178941357Y-122705786D01*
X178912786Y-122734357D01*
X178855643Y-122762929D01*
X178684215Y-122762929D01*
X178627072Y-122734357D01*
X178598500Y-122705786D01*
X180609929Y-122528000D02*
X180895643Y-122528000D01*
X180552786Y-122699429D02*
X180752786Y-122099429D01*
X180952786Y-122699429D01*
X181438500Y-122099429D02*
X181152786Y-122099429D01*
X181124215Y-122385143D01*
X181152786Y-122356571D01*
X181209929Y-122328000D01*
X181352786Y-122328000D01*
X181409929Y-122356571D01*
X181438500Y-122385143D01*
X181467072Y-122442286D01*
X181467072Y-122585143D01*
X181438500Y-122642286D01*
X181409929Y-122670857D01*
X181352786Y-122699429D01*
X181209929Y-122699429D01*
X181152786Y-122670857D01*
X181124215Y-122642286D01*
X183149929Y-122528000D02*
X183435643Y-122528000D01*
X183092786Y-122699429D02*
X183292786Y-122099429D01*
X183492786Y-122699429D01*
X183949929Y-122299429D02*
X183949929Y-122699429D01*
X183807072Y-122070857D02*
X183664215Y-122499429D01*
X184035643Y-122499429D01*
X185626429Y-122528000D02*
X185912143Y-122528000D01*
X185569286Y-122699429D02*
X185769286Y-122099429D01*
X185969286Y-122699429D01*
X186112143Y-122099429D02*
X186483572Y-122099429D01*
X186283572Y-122328000D01*
X186369286Y-122328000D01*
X186426429Y-122356571D01*
X186455000Y-122385143D01*
X186483572Y-122442286D01*
X186483572Y-122585143D01*
X186455000Y-122642286D01*
X186426429Y-122670857D01*
X186369286Y-122699429D01*
X186197858Y-122699429D01*
X186140715Y-122670857D01*
X186112143Y-122642286D01*
X187537165Y-123119256D02*
X187739196Y-122917226D01*
X187617978Y-123280881D02*
X187335135Y-122715196D01*
X187900820Y-122998038D01*
X187638180Y-122492961D02*
X187638180Y-122452556D01*
X187658384Y-122391947D01*
X187759399Y-122290931D01*
X187820008Y-122270728D01*
X187860413Y-122270728D01*
X187921023Y-122290931D01*
X187961429Y-122331337D01*
X188001835Y-122412149D01*
X188001835Y-122897023D01*
X188264475Y-122634383D01*
X187361500Y-121586571D02*
X187361500Y-121300857D01*
X187532929Y-121643714D02*
X186932929Y-121443714D01*
X187532929Y-121243714D01*
X187532929Y-120729428D02*
X187532929Y-121072285D01*
X187532929Y-120900857D02*
X186932929Y-120900857D01*
X187018643Y-120958000D01*
X187075786Y-121015142D01*
X187104357Y-121072285D01*
X187361500Y-119110071D02*
X187361500Y-118824357D01*
X187532929Y-119167214D02*
X186932929Y-118967214D01*
X187532929Y-118767214D01*
X186932929Y-118452928D02*
X186932929Y-118395785D01*
X186961500Y-118338642D01*
X186990071Y-118310071D01*
X187047214Y-118281500D01*
X187161500Y-118252928D01*
X187304357Y-118252928D01*
X187418643Y-118281500D01*
X187475786Y-118310071D01*
X187504357Y-118338642D01*
X187532929Y-118395785D01*
X187532929Y-118452928D01*
X187504357Y-118510071D01*
X187475786Y-118538642D01*
X187418643Y-118567214D01*
X187304357Y-118595785D01*
X187161500Y-118595785D01*
X187047214Y-118567214D01*
X186990071Y-118538642D01*
X186961500Y-118510071D01*
X186932929Y-118452928D01*
X187025000Y-116662142D02*
X186996429Y-116719285D01*
X186996429Y-116804999D01*
X187025000Y-116890714D01*
X187082143Y-116947856D01*
X187139286Y-116976428D01*
X187253571Y-117004999D01*
X187339286Y-117004999D01*
X187453571Y-116976428D01*
X187510714Y-116947856D01*
X187567857Y-116890714D01*
X187596429Y-116804999D01*
X187596429Y-116747856D01*
X187567857Y-116662142D01*
X187539286Y-116633571D01*
X187339286Y-116633571D01*
X187339286Y-116747856D01*
X187596429Y-116376428D02*
X186996429Y-116376428D01*
X187596429Y-116033571D01*
X186996429Y-116033571D01*
X187596429Y-115747857D02*
X186996429Y-115747857D01*
X186996429Y-115605000D01*
X187025000Y-115519285D01*
X187082143Y-115462143D01*
X187139286Y-115433571D01*
X187253571Y-115405000D01*
X187339286Y-115405000D01*
X187453571Y-115433571D01*
X187510714Y-115462143D01*
X187567857Y-115519285D01*
X187596429Y-115605000D01*
X187596429Y-115747857D01*
D12*
X172855000Y-99084500D02*
X173855000Y-99084500D01*
X173855000Y-97384500D02*
X172855000Y-97384500D01*
X176237000Y-109148500D02*
X176237000Y-108148500D01*
X174537000Y-108148500D02*
X174537000Y-109148500D01*
X181351000Y-114555000D02*
X185171000Y-114555000D01*
X185171000Y-114555000D02*
X185171000Y-112775000D01*
X185171000Y-112775000D02*
X181351000Y-112775000D01*
X181351000Y-114555000D02*
X181351000Y-112775000D01*
X175328500Y-100011500D02*
X171508500Y-100011500D01*
X171508500Y-100011500D02*
X171508500Y-101791500D01*
X171508500Y-101791500D02*
X175328500Y-101791500D01*
X175328500Y-100011500D02*
X175328500Y-101791500D01*
X175987000Y-118672500D02*
X174787000Y-118672500D01*
X174787000Y-116912500D02*
X175987000Y-116912500D01*
X175987000Y-120768000D02*
X174787000Y-120768000D01*
X174787000Y-119008000D02*
X175987000Y-119008000D01*
D11*
X186825000Y-102230000D02*
X187156000Y-103050000D01*
X184844000Y-103050000D02*
X185175000Y-102230000D01*
X185175000Y-102230000D02*
X186825000Y-102230000D01*
X187650000Y-103050000D02*
X187320000Y-103050000D01*
X187320000Y-103050000D02*
X187156000Y-103050000D01*
X184350000Y-103050000D02*
X184844000Y-103050000D01*
X185000000Y-99500000D02*
X187000000Y-99500000D01*
X187000000Y-99500000D02*
X187000000Y-100100000D01*
X187000000Y-100100000D02*
X185000000Y-100100000D01*
X185000000Y-100100000D02*
X185000000Y-99500000D01*
X184350000Y-103050000D02*
G75*
G03X186000000Y-104700000I1650000J0D01*
G01*
X186000000Y-104700000D02*
G75*
G03X187650000Y-103050000I0J1650000D01*
G01*
X187650000Y-101000000D02*
X187650000Y-103050000D01*
X184350000Y-101000000D02*
X184350000Y-103050000D01*
X187650000Y-101000000D02*
X187650000Y-98850000D01*
X187650000Y-98850000D02*
X186000000Y-98850000D01*
X186000000Y-98850000D02*
X184350000Y-98850000D01*
X184350000Y-98850000D02*
X184350000Y-101000000D01*
X188470000Y-105370000D02*
X188470000Y-101000000D01*
X188470000Y-101000000D02*
X188470000Y-105370000D01*
X188470000Y-105370000D02*
X183530000Y-105370000D01*
X183530000Y-105370000D02*
X183530000Y-101000000D01*
X188470000Y-97900000D02*
X188470000Y-101000000D01*
X183530000Y-97900000D02*
X183530000Y-101000000D01*
X183530000Y-97900000D02*
X188470000Y-97900000D01*
X180179500Y-100550500D02*
X180179500Y-97950500D01*
X177579500Y-100550500D02*
X177579500Y-97950500D01*
X176979500Y-100550500D02*
X176979500Y-97950500D01*
X176979500Y-97950500D02*
X180779500Y-97950500D01*
X180779500Y-97950500D02*
X180779500Y-100550500D01*
X180779500Y-100550500D02*
X176979500Y-100550500D01*
D13*
X179868000Y-104968000D02*
G75*
G03X179868000Y-104968000I-250000J0D01*
G01*
X179493000Y-104068000D02*
X179893000Y-104068000D01*
X180893000Y-104068000D02*
X180743000Y-104068000D01*
X176993000Y-104068000D02*
X177143000Y-104068000D01*
X180893000Y-104068000D02*
X180893000Y-107768000D01*
X177993000Y-107768000D02*
X179893000Y-107768000D01*
X176993000Y-104068000D02*
X176993000Y-107768000D01*
D14*
X177993000Y-104068000D02*
X178393000Y-104068000D01*
D12*
X180197000Y-117201500D02*
X186257000Y-117201500D01*
X186257000Y-117201500D02*
X186257000Y-115081500D01*
X186257000Y-115081500D02*
X180197000Y-115081500D01*
X180197000Y-115081500D02*
X180197000Y-117201500D01*
X179197000Y-117201500D02*
X178137000Y-117201500D01*
X178137000Y-117201500D02*
X178137000Y-116141500D01*
X185158000Y-105893500D02*
X184158000Y-105893500D01*
X184158000Y-107593500D02*
X185158000Y-107593500D01*
D14*
X178043000Y-108745500D02*
G75*
G03X178043000Y-108745500I-75000J0D01*
G01*
X180243000Y-109045500D02*
X180243000Y-111045500D01*
X177643000Y-111045500D02*
X177643000Y-108995500D01*
X173315334Y-96940643D02*
X173267715Y-96988262D01*
X173124858Y-97035881D01*
X173029620Y-97035881D01*
X172886762Y-96988262D01*
X172791524Y-96893024D01*
X172743905Y-96797786D01*
X172696286Y-96607310D01*
X172696286Y-96464452D01*
X172743905Y-96273976D01*
X172791524Y-96178738D01*
X172886762Y-96083500D01*
X173029620Y-96035881D01*
X173124858Y-96035881D01*
X173267715Y-96083500D01*
X173315334Y-96131119D01*
X174267715Y-97035881D02*
X173696286Y-97035881D01*
X173982000Y-97035881D02*
X173982000Y-96035881D01*
X173886762Y-96178738D01*
X173791524Y-96273976D01*
X173696286Y-96321595D01*
X175347334Y-106021143D02*
X175299715Y-106068762D01*
X175156858Y-106116381D01*
X175061620Y-106116381D01*
X174918762Y-106068762D01*
X174823524Y-105973524D01*
X174775905Y-105878286D01*
X174728286Y-105687810D01*
X174728286Y-105544952D01*
X174775905Y-105354476D01*
X174823524Y-105259238D01*
X174918762Y-105164000D01*
X175061620Y-105116381D01*
X175156858Y-105116381D01*
X175299715Y-105164000D01*
X175347334Y-105211619D01*
X175728286Y-105211619D02*
X175775905Y-105164000D01*
X175871143Y-105116381D01*
X176109239Y-105116381D01*
X176204477Y-105164000D01*
X176252096Y-105211619D01*
X176299715Y-105306857D01*
X176299715Y-105402095D01*
X176252096Y-105544952D01*
X175680667Y-106116381D01*
X176299715Y-106116381D01*
X183951667Y-111402881D02*
X183951667Y-112117167D01*
X183904047Y-112260024D01*
X183808809Y-112355262D01*
X183665952Y-112402881D01*
X183570714Y-112402881D01*
X184427857Y-112402881D02*
X184427857Y-111402881D01*
X184808810Y-111402881D01*
X184904048Y-111450500D01*
X184951667Y-111498119D01*
X184999286Y-111593357D01*
X184999286Y-111736214D01*
X184951667Y-111831452D01*
X184904048Y-111879071D01*
X184808810Y-111926690D01*
X184427857Y-111926690D01*
X185951667Y-112402881D02*
X185380238Y-112402881D01*
X185665952Y-112402881D02*
X185665952Y-111402881D01*
X185570714Y-111545738D01*
X185475476Y-111640976D01*
X185380238Y-111688595D01*
X172458167Y-102131881D02*
X172458167Y-102846167D01*
X172410547Y-102989024D01*
X172315309Y-103084262D01*
X172172452Y-103131881D01*
X172077214Y-103131881D01*
X172934357Y-103131881D02*
X172934357Y-102131881D01*
X173315310Y-102131881D01*
X173410548Y-102179500D01*
X173458167Y-102227119D01*
X173505786Y-102322357D01*
X173505786Y-102465214D01*
X173458167Y-102560452D01*
X173410548Y-102608071D01*
X173315310Y-102655690D01*
X172934357Y-102655690D01*
X173886738Y-102227119D02*
X173934357Y-102179500D01*
X174029595Y-102131881D01*
X174267691Y-102131881D01*
X174362929Y-102179500D01*
X174410548Y-102227119D01*
X174458167Y-102322357D01*
X174458167Y-102417595D01*
X174410548Y-102560452D01*
X173839119Y-103131881D01*
X174458167Y-103131881D01*
X173569334Y-116593881D02*
X173236000Y-116117690D01*
X172997905Y-116593881D02*
X172997905Y-115593881D01*
X173378858Y-115593881D01*
X173474096Y-115641500D01*
X173521715Y-115689119D01*
X173569334Y-115784357D01*
X173569334Y-115927214D01*
X173521715Y-116022452D01*
X173474096Y-116070071D01*
X173378858Y-116117690D01*
X172997905Y-116117690D01*
X174521715Y-116593881D02*
X173950286Y-116593881D01*
X174236000Y-116593881D02*
X174236000Y-115593881D01*
X174140762Y-115736738D01*
X174045524Y-115831976D01*
X173950286Y-115879595D01*
X173442334Y-122118381D02*
X173109000Y-121642190D01*
X172870905Y-122118381D02*
X172870905Y-121118381D01*
X173251858Y-121118381D01*
X173347096Y-121166000D01*
X173394715Y-121213619D01*
X173442334Y-121308857D01*
X173442334Y-121451714D01*
X173394715Y-121546952D01*
X173347096Y-121594571D01*
X173251858Y-121642190D01*
X172870905Y-121642190D01*
X173823286Y-121213619D02*
X173870905Y-121166000D01*
X173966143Y-121118381D01*
X174204239Y-121118381D01*
X174299477Y-121166000D01*
X174347096Y-121213619D01*
X174394715Y-121308857D01*
X174394715Y-121404095D01*
X174347096Y-121546952D01*
X173775667Y-122118381D01*
X174394715Y-122118381D01*
D11*
X184102643Y-97242262D02*
X184245500Y-97289881D01*
X184483596Y-97289881D01*
X184578834Y-97242262D01*
X184626453Y-97194643D01*
X184674072Y-97099405D01*
X184674072Y-97004167D01*
X184626453Y-96908929D01*
X184578834Y-96861310D01*
X184483596Y-96813690D01*
X184293119Y-96766071D01*
X184197881Y-96718452D01*
X184150262Y-96670833D01*
X184102643Y-96575595D01*
X184102643Y-96480357D01*
X184150262Y-96385119D01*
X184197881Y-96337500D01*
X184293119Y-96289881D01*
X184531215Y-96289881D01*
X184674072Y-96337500D01*
X185102643Y-97289881D02*
X185102643Y-96289881D01*
X185102643Y-96766071D02*
X185674072Y-96766071D01*
X185674072Y-97289881D02*
X185674072Y-96289881D01*
X186007405Y-96289881D02*
X186578834Y-96289881D01*
X186293119Y-97289881D02*
X186293119Y-96289881D01*
X187435977Y-97289881D02*
X186864548Y-97289881D01*
X187150262Y-97289881D02*
X187150262Y-96289881D01*
X187055024Y-96432738D01*
X186959786Y-96527976D01*
X186864548Y-96575595D01*
X188055024Y-96289881D02*
X188150263Y-96289881D01*
X188245501Y-96337500D01*
X188293120Y-96385119D01*
X188340739Y-96480357D01*
X188388358Y-96670833D01*
X188388358Y-96908929D01*
X188340739Y-97099405D01*
X188293120Y-97194643D01*
X188245501Y-97242262D01*
X188150263Y-97289881D01*
X188055024Y-97289881D01*
X187959786Y-97242262D01*
X187912167Y-97194643D01*
X187864548Y-97099405D01*
X187816929Y-96908929D01*
X187816929Y-96670833D01*
X187864548Y-96480357D01*
X187912167Y-96385119D01*
X187959786Y-96337500D01*
X188055024Y-96289881D01*
X176125571Y-96353381D02*
X176697000Y-96353381D01*
X176411285Y-97353381D02*
X176411285Y-96353381D01*
X176982714Y-97305762D02*
X177125571Y-97353381D01*
X177363667Y-97353381D01*
X177458905Y-97305762D01*
X177506524Y-97258143D01*
X177554143Y-97162905D01*
X177554143Y-97067667D01*
X177506524Y-96972429D01*
X177458905Y-96924810D01*
X177363667Y-96877190D01*
X177173190Y-96829571D01*
X177077952Y-96781952D01*
X177030333Y-96734333D01*
X176982714Y-96639095D01*
X176982714Y-96543857D01*
X177030333Y-96448619D01*
X177077952Y-96401000D01*
X177173190Y-96353381D01*
X177411286Y-96353381D01*
X177554143Y-96401000D01*
X178458905Y-97353381D02*
X177982714Y-97353381D01*
X177982714Y-96353381D01*
X178744619Y-96448619D02*
X178792238Y-96401000D01*
X178887476Y-96353381D01*
X179125572Y-96353381D01*
X179220810Y-96401000D01*
X179268429Y-96448619D01*
X179316048Y-96543857D01*
X179316048Y-96639095D01*
X179268429Y-96781952D01*
X178697000Y-97353381D01*
X179316048Y-97353381D01*
X180220810Y-96353381D02*
X179744619Y-96353381D01*
X179697000Y-96829571D01*
X179744619Y-96781952D01*
X179839857Y-96734333D01*
X180077953Y-96734333D01*
X180173191Y-96781952D01*
X180220810Y-96829571D01*
X180268429Y-96924810D01*
X180268429Y-97162905D01*
X180220810Y-97258143D01*
X180173191Y-97305762D01*
X180077953Y-97353381D01*
X179839857Y-97353381D01*
X179744619Y-97305762D01*
X179697000Y-97258143D01*
X181125572Y-96353381D02*
X180935095Y-96353381D01*
X180839857Y-96401000D01*
X180792238Y-96448619D01*
X180697000Y-96591476D01*
X180649381Y-96781952D01*
X180649381Y-97162905D01*
X180697000Y-97258143D01*
X180744619Y-97305762D01*
X180839857Y-97353381D01*
X181030334Y-97353381D01*
X181125572Y-97305762D01*
X181173191Y-97258143D01*
X181220810Y-97162905D01*
X181220810Y-96924810D01*
X181173191Y-96829571D01*
X181125572Y-96781952D01*
X181030334Y-96734333D01*
X180839857Y-96734333D01*
X180744619Y-96781952D01*
X180697000Y-96829571D01*
X180649381Y-96924810D01*
X182173191Y-97353381D02*
X181601762Y-97353381D01*
X181887476Y-97353381D02*
X181887476Y-96353381D01*
X181792238Y-96496238D01*
X181697000Y-96591476D01*
X181601762Y-96639095D01*
X181776952Y-118498881D02*
X181776952Y-117498881D01*
X182015047Y-117498881D01*
X182157905Y-117546500D01*
X182253143Y-117641738D01*
X182300762Y-117736976D01*
X182348381Y-117927452D01*
X182348381Y-118070310D01*
X182300762Y-118260786D01*
X182253143Y-118356024D01*
X182157905Y-118451262D01*
X182015047Y-118498881D01*
X181776952Y-118498881D01*
X182776952Y-118498881D02*
X182776952Y-117498881D01*
X182776952Y-117975071D02*
X183348381Y-117975071D01*
X183348381Y-118498881D02*
X183348381Y-117498881D01*
X183681714Y-117498881D02*
X184253143Y-117498881D01*
X183967428Y-118498881D02*
X183967428Y-117498881D01*
X185110286Y-118498881D02*
X184538857Y-118498881D01*
X184824571Y-118498881D02*
X184824571Y-117498881D01*
X184729333Y-117641738D01*
X184634095Y-117736976D01*
X184538857Y-117784595D01*
X186062667Y-118498881D02*
X185491238Y-118498881D01*
X185776952Y-118498881D02*
X185776952Y-117498881D01*
X185681714Y-117641738D01*
X185586476Y-117736976D01*
X185491238Y-117784595D01*
D14*
X184491334Y-105350643D02*
X184443715Y-105398262D01*
X184300858Y-105445881D01*
X184205620Y-105445881D01*
X184062762Y-105398262D01*
X183967524Y-105303024D01*
X183919905Y-105207786D01*
X183872286Y-105017310D01*
X183872286Y-104874452D01*
X183919905Y-104683976D01*
X183967524Y-104588738D01*
X184062762Y-104493500D01*
X184205620Y-104445881D01*
X184300858Y-104445881D01*
X184443715Y-104493500D01*
X184491334Y-104541119D01*
X184824667Y-104445881D02*
X185443715Y-104445881D01*
X185110381Y-104826833D01*
X185253239Y-104826833D01*
X185348477Y-104874452D01*
X185396096Y-104922071D01*
X185443715Y-105017310D01*
X185443715Y-105255405D01*
X185396096Y-105350643D01*
X185348477Y-105398262D01*
X185253239Y-105445881D01*
X184967524Y-105445881D01*
X184872286Y-105398262D01*
X184824667Y-105350643D01*
D10*
X177728715Y-111851286D02*
X177800144Y-111875095D01*
X177823953Y-111898905D01*
X177847763Y-111946524D01*
X177847763Y-112017952D01*
X177823953Y-112065571D01*
X177800144Y-112089381D01*
X177752525Y-112113190D01*
X177562049Y-112113190D01*
X177562049Y-111613190D01*
X177728715Y-111613190D01*
X177776334Y-111637000D01*
X177800144Y-111660810D01*
X177823953Y-111708429D01*
X177823953Y-111756048D01*
X177800144Y-111803667D01*
X177776334Y-111827476D01*
X177728715Y-111851286D01*
X177562049Y-111851286D01*
X178062049Y-112113190D02*
X178062049Y-111613190D01*
X178228715Y-111970333D01*
X178395382Y-111613190D01*
X178395382Y-112113190D01*
X178633478Y-112113190D02*
X178633478Y-111613190D01*
X178823954Y-111613190D01*
X178871573Y-111637000D01*
X178895382Y-111660810D01*
X178919192Y-111708429D01*
X178919192Y-111779857D01*
X178895382Y-111827476D01*
X178871573Y-111851286D01*
X178823954Y-111875095D01*
X178633478Y-111875095D01*
X179109668Y-111660810D02*
X179133478Y-111637000D01*
X179181097Y-111613190D01*
X179300144Y-111613190D01*
X179347763Y-111637000D01*
X179371573Y-111660810D01*
X179395382Y-111708429D01*
X179395382Y-111756048D01*
X179371573Y-111827476D01*
X179085859Y-112113190D01*
X179395382Y-112113190D01*
X179681096Y-111827476D02*
X179633477Y-111803667D01*
X179609668Y-111779857D01*
X179585858Y-111732238D01*
X179585858Y-111708429D01*
X179609668Y-111660810D01*
X179633477Y-111637000D01*
X179681096Y-111613190D01*
X179776334Y-111613190D01*
X179823953Y-111637000D01*
X179847763Y-111660810D01*
X179871572Y-111708429D01*
X179871572Y-111732238D01*
X179847763Y-111779857D01*
X179823953Y-111803667D01*
X179776334Y-111827476D01*
X179681096Y-111827476D01*
X179633477Y-111851286D01*
X179609668Y-111875095D01*
X179585858Y-111922714D01*
X179585858Y-112017952D01*
X179609668Y-112065571D01*
X179633477Y-112089381D01*
X179681096Y-112113190D01*
X179776334Y-112113190D01*
X179823953Y-112089381D01*
X179847763Y-112065571D01*
X179871572Y-112017952D01*
X179871572Y-111922714D01*
X179847763Y-111875095D01*
X179823953Y-111851286D01*
X179776334Y-111827476D01*
X180181096Y-111613190D02*
X180228715Y-111613190D01*
X180276334Y-111637000D01*
X180300143Y-111660810D01*
X180323953Y-111708429D01*
X180347762Y-111803667D01*
X180347762Y-111922714D01*
X180323953Y-112017952D01*
X180300143Y-112065571D01*
X180276334Y-112089381D01*
X180228715Y-112113190D01*
X180181096Y-112113190D01*
X180133477Y-112089381D01*
X180109667Y-112065571D01*
X180085858Y-112017952D01*
X180062048Y-111922714D01*
X180062048Y-111803667D01*
X180085858Y-111708429D01*
X180109667Y-111660810D01*
X180133477Y-111637000D01*
X180181096Y-111613190D01*
M02*
