G04 #@! TF.FileFunction,Copper,L2,Bot,Signal*
%FSLAX46Y46*%
G04 Gerber Fmt 4.6, Leading zero omitted, Abs format (unit mm)*
G04 Created by KiCad (PCBNEW 4.0.2-stable) date 05.09.2017 20:59:44*
%MOMM*%
G01*
G04 APERTURE LIST*
%ADD10C,0.100000*%
%ADD11C,1.700000*%
%ADD12O,1.700000X1.700000*%
%ADD13R,1.350000X1.350000*%
%ADD14O,1.350000X1.350000*%
%ADD15R,1.270000X0.970000*%
%ADD16C,0.600000*%
%ADD17C,0.250000*%
%ADD18C,0.254000*%
G04 APERTURE END LIST*
D10*
D11*
X170878500Y-111061500D03*
D12*
X170878500Y-113601500D03*
X170878500Y-116141500D03*
X170878500Y-118681500D03*
D11*
X188658500Y-113601500D03*
D12*
X188658500Y-116141500D03*
X188658500Y-118681500D03*
X188658500Y-121221500D03*
D11*
X188722000Y-123761500D03*
D12*
X186182000Y-123761500D03*
X183642000Y-123761500D03*
X181102000Y-123761500D03*
X178562000Y-123761500D03*
X176022000Y-123761500D03*
D13*
X179197000Y-116141500D03*
D14*
X181197000Y-116141500D03*
X183197000Y-116141500D03*
X185197000Y-116141500D03*
D15*
X186664600Y-109088000D03*
X186664600Y-110368000D03*
D16*
X178181000Y-121920000D03*
X175260000Y-105791000D03*
X181800500Y-103505000D03*
X172148500Y-102298500D03*
X180530500Y-113665000D03*
X181533800Y-101638100D03*
D17*
X186664600Y-110368000D02*
X186664600Y-116687600D01*
X186664600Y-116687600D02*
X188658500Y-118681500D01*
X178181000Y-121920000D02*
X181800500Y-121920000D01*
X181800500Y-121920000D02*
X183642000Y-123761500D01*
X181197000Y-116141500D02*
X176022000Y-121316500D01*
X176022000Y-121316500D02*
X176022000Y-123761500D01*
X175260000Y-103141501D02*
X175260000Y-105791000D01*
X175260000Y-103141501D02*
X181437001Y-103141501D01*
X172991501Y-103141501D02*
X175260000Y-103141501D01*
X181437001Y-103141501D02*
X181800500Y-103505000D01*
X172991501Y-103141501D02*
X172148500Y-102298500D01*
X180530500Y-113665000D02*
X170942000Y-113665000D01*
X170942000Y-113665000D02*
X170878500Y-113601500D01*
X181533800Y-101638100D02*
X181533800Y-102062364D01*
X181533800Y-102062364D02*
X186664600Y-107193164D01*
X186664600Y-107193164D02*
X186664600Y-108353000D01*
X186664600Y-108353000D02*
X186664600Y-109088000D01*
D18*
G36*
X189290000Y-112255787D02*
X188955181Y-112116758D01*
X188364411Y-112116243D01*
X187818414Y-112341844D01*
X187424600Y-112734971D01*
X187424600Y-111476920D01*
X187534917Y-111456162D01*
X187751041Y-111317090D01*
X187896031Y-111104890D01*
X187947040Y-110853000D01*
X187947040Y-109883000D01*
X187916804Y-109722310D01*
X187947040Y-109573000D01*
X187947040Y-108603000D01*
X187902762Y-108367683D01*
X187763690Y-108151559D01*
X187551490Y-108006569D01*
X187424600Y-107980873D01*
X187424600Y-107193164D01*
X187366748Y-106902325D01*
X187202001Y-106655763D01*
X182440031Y-101893793D01*
X182468638Y-101824899D01*
X182468962Y-101452933D01*
X182326917Y-101109157D01*
X182064127Y-100845908D01*
X181720599Y-100703262D01*
X181348633Y-100702938D01*
X181004857Y-100844983D01*
X180741608Y-101107773D01*
X180598962Y-101451301D01*
X180598638Y-101823267D01*
X180740683Y-102167043D01*
X180808045Y-102234522D01*
X180831652Y-102353203D01*
X180850560Y-102381501D01*
X173306303Y-102381501D01*
X173083622Y-102158820D01*
X173083662Y-102113333D01*
X172941617Y-101769557D01*
X172678827Y-101506308D01*
X172335299Y-101363662D01*
X171963333Y-101363338D01*
X171619557Y-101505383D01*
X171356308Y-101768173D01*
X171213662Y-102111701D01*
X171213338Y-102483667D01*
X171355383Y-102827443D01*
X171618173Y-103090692D01*
X171961701Y-103233338D01*
X172008577Y-103233379D01*
X172454100Y-103678902D01*
X172700661Y-103843649D01*
X172748915Y-103853247D01*
X172991501Y-103901501D01*
X174500000Y-103901501D01*
X174500000Y-105228537D01*
X174467808Y-105260673D01*
X174325162Y-105604201D01*
X174324838Y-105976167D01*
X174466883Y-106319943D01*
X174729673Y-106583192D01*
X175073201Y-106725838D01*
X175445167Y-106726162D01*
X175788943Y-106584117D01*
X176052192Y-106321327D01*
X176194838Y-105977799D01*
X176195162Y-105605833D01*
X176053117Y-105262057D01*
X176020000Y-105228882D01*
X176020000Y-103901501D01*
X180952659Y-103901501D01*
X181007383Y-104033943D01*
X181270173Y-104297192D01*
X181613701Y-104439838D01*
X181985667Y-104440162D01*
X182329443Y-104298117D01*
X182512256Y-104115622D01*
X185904600Y-107507966D01*
X185904600Y-107979080D01*
X185794283Y-107999838D01*
X185578159Y-108138910D01*
X185433169Y-108351110D01*
X185382160Y-108603000D01*
X185382160Y-109573000D01*
X185412396Y-109733690D01*
X185382160Y-109883000D01*
X185382160Y-110853000D01*
X185426438Y-111088317D01*
X185565510Y-111304441D01*
X185777710Y-111449431D01*
X185904600Y-111475127D01*
X185904600Y-116687600D01*
X185962452Y-116978439D01*
X186127199Y-117225001D01*
X187217290Y-118315092D01*
X187144407Y-118681500D01*
X187257446Y-119249785D01*
X187579353Y-119731554D01*
X187908526Y-119951500D01*
X187579353Y-120171446D01*
X187257446Y-120653215D01*
X187144407Y-121221500D01*
X187257446Y-121789785D01*
X187579353Y-122271554D01*
X187907923Y-122491097D01*
X187881914Y-122501844D01*
X187463812Y-122919217D01*
X187435645Y-122987050D01*
X187232054Y-122682353D01*
X186750285Y-122360446D01*
X186182000Y-122247407D01*
X185613715Y-122360446D01*
X185131946Y-122682353D01*
X184912000Y-123011526D01*
X184692054Y-122682353D01*
X184210285Y-122360446D01*
X183642000Y-122247407D01*
X183275592Y-122320290D01*
X182337901Y-121382599D01*
X182091339Y-121217852D01*
X181800500Y-121160000D01*
X181013583Y-121160000D01*
X181302004Y-120872082D01*
X181566699Y-120234627D01*
X181567301Y-119544401D01*
X181303719Y-118906485D01*
X180816082Y-118417996D01*
X180236125Y-118177177D01*
X180979418Y-117433884D01*
X181197000Y-117477164D01*
X181698315Y-117377446D01*
X182123310Y-117093474D01*
X182197000Y-116983189D01*
X182270690Y-117093474D01*
X182695685Y-117377446D01*
X183197000Y-117477164D01*
X183698315Y-117377446D01*
X184123310Y-117093474D01*
X184407282Y-116668479D01*
X184507000Y-116167164D01*
X184507000Y-116115836D01*
X184407282Y-115614521D01*
X184123310Y-115189526D01*
X183698315Y-114905554D01*
X183197000Y-114805836D01*
X182695685Y-114905554D01*
X182270690Y-115189526D01*
X182197000Y-115299811D01*
X182123310Y-115189526D01*
X181698315Y-114905554D01*
X181197000Y-114805836D01*
X180695685Y-114905554D01*
X180394936Y-115106508D01*
X180336090Y-115015059D01*
X180123890Y-114870069D01*
X179872000Y-114819060D01*
X178522000Y-114819060D01*
X178286683Y-114863338D01*
X178070559Y-115002410D01*
X177925569Y-115214610D01*
X177874560Y-115466500D01*
X177874560Y-116816500D01*
X177918838Y-117051817D01*
X178057910Y-117267941D01*
X178270110Y-117412931D01*
X178522000Y-117463940D01*
X178799758Y-117463940D01*
X175484599Y-120779099D01*
X175319852Y-121025661D01*
X175262000Y-121316500D01*
X175262000Y-122488546D01*
X174971946Y-122682353D01*
X174650039Y-123164122D01*
X174537000Y-123732407D01*
X174537000Y-123790593D01*
X174636338Y-124290000D01*
X173311883Y-124290000D01*
X173428004Y-124174082D01*
X173692699Y-123536627D01*
X173693301Y-122846401D01*
X173429719Y-122208485D01*
X172942082Y-121719996D01*
X172304627Y-121455301D01*
X171614401Y-121454699D01*
X170976485Y-121718281D01*
X170710000Y-121984301D01*
X170710000Y-120138770D01*
X170849407Y-120166500D01*
X170907593Y-120166500D01*
X171475878Y-120053461D01*
X171957647Y-119731554D01*
X172279554Y-119249785D01*
X172392593Y-118681500D01*
X172279554Y-118113215D01*
X171957647Y-117631446D01*
X171628474Y-117411500D01*
X171957647Y-117191554D01*
X172279554Y-116709785D01*
X172392593Y-116141500D01*
X172279554Y-115573215D01*
X171957647Y-115091446D01*
X171628474Y-114871500D01*
X171957647Y-114651554D01*
X172109025Y-114425000D01*
X179968037Y-114425000D01*
X180000173Y-114457192D01*
X180343701Y-114599838D01*
X180715667Y-114600162D01*
X181059443Y-114458117D01*
X181322692Y-114195327D01*
X181465338Y-113851799D01*
X181465662Y-113479833D01*
X181323617Y-113136057D01*
X181060827Y-112872808D01*
X180717299Y-112730162D01*
X180345333Y-112729838D01*
X180001557Y-112871883D01*
X179968382Y-112905000D01*
X172193884Y-112905000D01*
X171957647Y-112551446D01*
X171475878Y-112229539D01*
X170907593Y-112116500D01*
X170849407Y-112116500D01*
X170710000Y-112144230D01*
X170710000Y-95710000D01*
X189290000Y-95710000D01*
X189290000Y-112255787D01*
X189290000Y-112255787D01*
G37*
X189290000Y-112255787D02*
X188955181Y-112116758D01*
X188364411Y-112116243D01*
X187818414Y-112341844D01*
X187424600Y-112734971D01*
X187424600Y-111476920D01*
X187534917Y-111456162D01*
X187751041Y-111317090D01*
X187896031Y-111104890D01*
X187947040Y-110853000D01*
X187947040Y-109883000D01*
X187916804Y-109722310D01*
X187947040Y-109573000D01*
X187947040Y-108603000D01*
X187902762Y-108367683D01*
X187763690Y-108151559D01*
X187551490Y-108006569D01*
X187424600Y-107980873D01*
X187424600Y-107193164D01*
X187366748Y-106902325D01*
X187202001Y-106655763D01*
X182440031Y-101893793D01*
X182468638Y-101824899D01*
X182468962Y-101452933D01*
X182326917Y-101109157D01*
X182064127Y-100845908D01*
X181720599Y-100703262D01*
X181348633Y-100702938D01*
X181004857Y-100844983D01*
X180741608Y-101107773D01*
X180598962Y-101451301D01*
X180598638Y-101823267D01*
X180740683Y-102167043D01*
X180808045Y-102234522D01*
X180831652Y-102353203D01*
X180850560Y-102381501D01*
X173306303Y-102381501D01*
X173083622Y-102158820D01*
X173083662Y-102113333D01*
X172941617Y-101769557D01*
X172678827Y-101506308D01*
X172335299Y-101363662D01*
X171963333Y-101363338D01*
X171619557Y-101505383D01*
X171356308Y-101768173D01*
X171213662Y-102111701D01*
X171213338Y-102483667D01*
X171355383Y-102827443D01*
X171618173Y-103090692D01*
X171961701Y-103233338D01*
X172008577Y-103233379D01*
X172454100Y-103678902D01*
X172700661Y-103843649D01*
X172748915Y-103853247D01*
X172991501Y-103901501D01*
X174500000Y-103901501D01*
X174500000Y-105228537D01*
X174467808Y-105260673D01*
X174325162Y-105604201D01*
X174324838Y-105976167D01*
X174466883Y-106319943D01*
X174729673Y-106583192D01*
X175073201Y-106725838D01*
X175445167Y-106726162D01*
X175788943Y-106584117D01*
X176052192Y-106321327D01*
X176194838Y-105977799D01*
X176195162Y-105605833D01*
X176053117Y-105262057D01*
X176020000Y-105228882D01*
X176020000Y-103901501D01*
X180952659Y-103901501D01*
X181007383Y-104033943D01*
X181270173Y-104297192D01*
X181613701Y-104439838D01*
X181985667Y-104440162D01*
X182329443Y-104298117D01*
X182512256Y-104115622D01*
X185904600Y-107507966D01*
X185904600Y-107979080D01*
X185794283Y-107999838D01*
X185578159Y-108138910D01*
X185433169Y-108351110D01*
X185382160Y-108603000D01*
X185382160Y-109573000D01*
X185412396Y-109733690D01*
X185382160Y-109883000D01*
X185382160Y-110853000D01*
X185426438Y-111088317D01*
X185565510Y-111304441D01*
X185777710Y-111449431D01*
X185904600Y-111475127D01*
X185904600Y-116687600D01*
X185962452Y-116978439D01*
X186127199Y-117225001D01*
X187217290Y-118315092D01*
X187144407Y-118681500D01*
X187257446Y-119249785D01*
X187579353Y-119731554D01*
X187908526Y-119951500D01*
X187579353Y-120171446D01*
X187257446Y-120653215D01*
X187144407Y-121221500D01*
X187257446Y-121789785D01*
X187579353Y-122271554D01*
X187907923Y-122491097D01*
X187881914Y-122501844D01*
X187463812Y-122919217D01*
X187435645Y-122987050D01*
X187232054Y-122682353D01*
X186750285Y-122360446D01*
X186182000Y-122247407D01*
X185613715Y-122360446D01*
X185131946Y-122682353D01*
X184912000Y-123011526D01*
X184692054Y-122682353D01*
X184210285Y-122360446D01*
X183642000Y-122247407D01*
X183275592Y-122320290D01*
X182337901Y-121382599D01*
X182091339Y-121217852D01*
X181800500Y-121160000D01*
X181013583Y-121160000D01*
X181302004Y-120872082D01*
X181566699Y-120234627D01*
X181567301Y-119544401D01*
X181303719Y-118906485D01*
X180816082Y-118417996D01*
X180236125Y-118177177D01*
X180979418Y-117433884D01*
X181197000Y-117477164D01*
X181698315Y-117377446D01*
X182123310Y-117093474D01*
X182197000Y-116983189D01*
X182270690Y-117093474D01*
X182695685Y-117377446D01*
X183197000Y-117477164D01*
X183698315Y-117377446D01*
X184123310Y-117093474D01*
X184407282Y-116668479D01*
X184507000Y-116167164D01*
X184507000Y-116115836D01*
X184407282Y-115614521D01*
X184123310Y-115189526D01*
X183698315Y-114905554D01*
X183197000Y-114805836D01*
X182695685Y-114905554D01*
X182270690Y-115189526D01*
X182197000Y-115299811D01*
X182123310Y-115189526D01*
X181698315Y-114905554D01*
X181197000Y-114805836D01*
X180695685Y-114905554D01*
X180394936Y-115106508D01*
X180336090Y-115015059D01*
X180123890Y-114870069D01*
X179872000Y-114819060D01*
X178522000Y-114819060D01*
X178286683Y-114863338D01*
X178070559Y-115002410D01*
X177925569Y-115214610D01*
X177874560Y-115466500D01*
X177874560Y-116816500D01*
X177918838Y-117051817D01*
X178057910Y-117267941D01*
X178270110Y-117412931D01*
X178522000Y-117463940D01*
X178799758Y-117463940D01*
X175484599Y-120779099D01*
X175319852Y-121025661D01*
X175262000Y-121316500D01*
X175262000Y-122488546D01*
X174971946Y-122682353D01*
X174650039Y-123164122D01*
X174537000Y-123732407D01*
X174537000Y-123790593D01*
X174636338Y-124290000D01*
X173311883Y-124290000D01*
X173428004Y-124174082D01*
X173692699Y-123536627D01*
X173693301Y-122846401D01*
X173429719Y-122208485D01*
X172942082Y-121719996D01*
X172304627Y-121455301D01*
X171614401Y-121454699D01*
X170976485Y-121718281D01*
X170710000Y-121984301D01*
X170710000Y-120138770D01*
X170849407Y-120166500D01*
X170907593Y-120166500D01*
X171475878Y-120053461D01*
X171957647Y-119731554D01*
X172279554Y-119249785D01*
X172392593Y-118681500D01*
X172279554Y-118113215D01*
X171957647Y-117631446D01*
X171628474Y-117411500D01*
X171957647Y-117191554D01*
X172279554Y-116709785D01*
X172392593Y-116141500D01*
X172279554Y-115573215D01*
X171957647Y-115091446D01*
X171628474Y-114871500D01*
X171957647Y-114651554D01*
X172109025Y-114425000D01*
X179968037Y-114425000D01*
X180000173Y-114457192D01*
X180343701Y-114599838D01*
X180715667Y-114600162D01*
X181059443Y-114458117D01*
X181322692Y-114195327D01*
X181465338Y-113851799D01*
X181465662Y-113479833D01*
X181323617Y-113136057D01*
X181060827Y-112872808D01*
X180717299Y-112730162D01*
X180345333Y-112729838D01*
X180001557Y-112871883D01*
X179968382Y-112905000D01*
X172193884Y-112905000D01*
X171957647Y-112551446D01*
X171475878Y-112229539D01*
X170907593Y-112116500D01*
X170849407Y-112116500D01*
X170710000Y-112144230D01*
X170710000Y-95710000D01*
X189290000Y-95710000D01*
X189290000Y-112255787D01*
G36*
X187816217Y-114859688D02*
X188361819Y-115086242D01*
X188952589Y-115086757D01*
X189290000Y-114947342D01*
X189290000Y-117332339D01*
X189255878Y-117309539D01*
X188687593Y-117196500D01*
X188629407Y-117196500D01*
X188311531Y-117259729D01*
X187424600Y-116372798D01*
X187424600Y-114467387D01*
X187816217Y-114859688D01*
X187816217Y-114859688D01*
G37*
X187816217Y-114859688D02*
X188361819Y-115086242D01*
X188952589Y-115086757D01*
X189290000Y-114947342D01*
X189290000Y-117332339D01*
X189255878Y-117309539D01*
X188687593Y-117196500D01*
X188629407Y-117196500D01*
X188311531Y-117259729D01*
X187424600Y-116372798D01*
X187424600Y-114467387D01*
X187816217Y-114859688D01*
M02*
