M48
;DRILL file {KiCad 4.0.2-stable} date 05.09.2017 20:59:47
;FORMAT={-:-/ absolute / metric / decimal}
FMAT,2
METRIC,TZ
T1C0.400
T2C0.800
T3C1.000
T4C2.200
%
G90
G05
M71
T1
X172.148Y-102.298
X175.26Y-105.791
X178.181Y-121.92
X180.53Y-113.665
X181.534Y-101.638
X181.8Y-103.505
T2
X179.197Y-116.141
X181.197Y-116.141
X183.197Y-116.141
X185.197Y-116.141
T3
X170.879Y-111.061
X170.879Y-113.602
X170.879Y-116.141
X170.879Y-118.681
X176.022Y-123.761
X178.562Y-123.761
X181.102Y-123.761
X183.642Y-123.761
X186.182Y-123.761
X188.659Y-113.602
X188.659Y-116.141
X188.659Y-118.681
X188.659Y-121.221
X188.722Y-123.761
T4
X171.958Y-123.19
X179.832Y-119.888
T0
M30
