G04 #@! TF.FileFunction,Copper,L2,Bot,Signal*
%FSLAX46Y46*%
G04 Gerber Fmt 4.6, Leading zero omitted, Abs format (unit mm)*
G04 Created by KiCad (PCBNEW 4.0.2-stable) date 01.06.2017 12:53:20*
%MOMM*%
G01*
G04 APERTURE LIST*
%ADD10C,0.100000*%
%ADD11R,1.200000X2.524000*%
%ADD12C,1.700000*%
%ADD13O,1.700000X1.700000*%
%ADD14R,3.000000X1.700000*%
%ADD15R,1.500000X1.250000*%
%ADD16R,1.350000X1.350000*%
%ADD17R,1.500000X0.400000*%
%ADD18R,2.794000X1.778000*%
%ADD19R,0.970000X1.270000*%
%ADD20C,0.600000*%
%ADD21C,0.250000*%
%ADD22C,0.254000*%
G04 APERTURE END LIST*
D10*
D11*
X188610000Y-107282000D03*
X186610000Y-107282000D03*
X184610000Y-107282000D03*
X182610000Y-107282000D03*
X180610000Y-107282000D03*
X178610000Y-107282000D03*
X176610000Y-107282000D03*
X174610000Y-107282000D03*
X180610000Y-88282000D03*
X182610000Y-88282000D03*
X178610000Y-88282000D03*
D12*
X170878500Y-111061500D03*
D13*
X170878500Y-113601500D03*
X170878500Y-116141500D03*
X170878500Y-118681500D03*
D14*
X171410500Y-99441000D03*
X171410500Y-94361000D03*
X171410500Y-89281000D03*
X171386500Y-96901000D03*
X171386500Y-91821000D03*
D12*
X188658500Y-113601500D03*
D13*
X188658500Y-116141500D03*
X188658500Y-118681500D03*
X188658500Y-121221500D03*
D12*
X188722000Y-123761500D03*
D13*
X186182000Y-123761500D03*
X183642000Y-123761500D03*
X181102000Y-123761500D03*
X178562000Y-123761500D03*
X176022000Y-123761500D03*
D15*
X188448000Y-109880400D03*
X185948000Y-109880400D03*
D16*
X171831000Y-86423500D03*
D15*
X178645500Y-119888000D03*
X181145500Y-119888000D03*
X181145500Y-114617500D03*
X178645500Y-114617500D03*
D17*
X181098500Y-116571000D03*
X181098500Y-117221000D03*
X181098500Y-117871000D03*
X178438500Y-117871000D03*
X178438500Y-117221000D03*
X178438500Y-116571000D03*
D18*
X184086500Y-115506500D03*
X184086500Y-119062500D03*
D19*
X184726500Y-112585500D03*
X183446500Y-112585500D03*
D20*
X185503500Y-99060000D03*
X170713400Y-87807800D03*
X179311211Y-118643793D03*
X184681349Y-111336643D03*
X182651400Y-117602000D03*
X172948600Y-108026200D03*
X175031400Y-111556800D03*
X184463620Y-103700969D03*
X182610000Y-88282000D03*
X187202444Y-93650444D03*
X186740800Y-102133400D03*
X177952400Y-95224600D03*
X177266600Y-90170000D03*
X177495200Y-95910400D03*
X175242000Y-87249000D03*
X178173279Y-103360831D03*
X185262592Y-105047466D03*
X175477635Y-101692255D03*
X177964335Y-104182336D03*
X174911941Y-102257948D03*
X177225415Y-104509118D03*
X173609000Y-102235000D03*
X177935643Y-104981834D03*
X174794569Y-95783400D03*
X180843167Y-104079582D03*
X173542780Y-95782303D03*
X181761665Y-104093553D03*
X174752000Y-94970600D03*
X174736032Y-94102935D03*
X182606384Y-104137402D03*
X186613800Y-121742200D03*
X177933614Y-111684448D03*
X187477400Y-121767600D03*
X178521116Y-110944877D03*
X184912000Y-121772168D03*
X178737651Y-111715027D03*
X184378600Y-105029000D03*
X178079916Y-121047472D03*
X180888280Y-111444384D03*
X177395488Y-120134999D03*
X180304297Y-112259829D03*
X180568582Y-101093042D03*
X181111980Y-114637258D03*
X178206400Y-116052600D03*
X183733480Y-117602000D03*
X178511200Y-118643400D03*
X179807225Y-101635380D03*
X177012600Y-101093042D03*
D21*
X189230000Y-88976200D02*
X189230000Y-92506800D01*
X189230000Y-92506800D02*
X189230000Y-94284800D01*
X185503500Y-99060000D02*
X185503500Y-96233300D01*
X185503500Y-96233300D02*
X189230000Y-92506800D01*
X189230000Y-95061738D02*
X189230000Y-94640400D01*
X189230000Y-94640400D02*
X189230000Y-94284800D01*
X189230000Y-94665800D02*
X189230000Y-94640400D01*
X185503500Y-99060000D02*
X185503500Y-98392300D01*
X189230000Y-94284800D02*
X189230000Y-97586800D01*
X184681349Y-111336643D02*
X187866757Y-111336643D01*
X187866757Y-111336643D02*
X188448000Y-110755400D01*
X188448000Y-110755400D02*
X188448000Y-109880400D01*
X170713400Y-87807800D02*
X170713400Y-85648800D01*
X188518800Y-88265000D02*
X189230000Y-88976200D01*
X170713400Y-85648800D02*
X170938701Y-85423499D01*
X170938701Y-85423499D02*
X186007499Y-85423499D01*
X186007499Y-85423499D02*
X186258200Y-85674200D01*
X186258200Y-85674200D02*
X186258200Y-87147400D01*
X186258200Y-87147400D02*
X187375800Y-88265000D01*
X187375800Y-88265000D02*
X188518800Y-88265000D01*
X189230000Y-97586800D02*
X189230000Y-98729800D01*
X189230000Y-98526600D02*
X189230000Y-98729800D01*
X189230000Y-98729800D02*
X189230000Y-104749600D01*
X179059600Y-117871000D02*
X179311211Y-118122611D01*
X179311211Y-118122611D02*
X179311211Y-118643793D01*
X178438500Y-117871000D02*
X179059600Y-117871000D01*
X179611210Y-118943792D02*
X179311211Y-118643793D01*
X179645500Y-118978082D02*
X179611210Y-118943792D01*
X179645500Y-119013000D02*
X179645500Y-118978082D01*
X178645500Y-119888000D02*
X178770500Y-119888000D01*
X178770500Y-119888000D02*
X179645500Y-119013000D01*
X189230000Y-104749600D02*
X188610000Y-105369600D01*
X188610000Y-105369600D02*
X188610000Y-107282000D01*
X185105613Y-111336643D02*
X184681349Y-111336643D01*
X188610000Y-107282000D02*
X188610000Y-110358604D01*
X178645500Y-119888000D02*
X178950591Y-119582909D01*
X178438500Y-117871000D02*
X178438500Y-117957761D01*
X183810357Y-111336643D02*
X184257085Y-111336643D01*
X183446500Y-111700500D02*
X183810357Y-111336643D01*
X183446500Y-112585500D02*
X183446500Y-111700500D01*
X184257085Y-111336643D02*
X184681349Y-111336643D01*
X183413400Y-112618600D02*
X183446500Y-112585500D01*
X181098500Y-117221000D02*
X182270400Y-117221000D01*
X182270400Y-117221000D02*
X182651400Y-117602000D01*
X173507400Y-108585000D02*
X172948600Y-108026200D01*
X173507400Y-109220000D02*
X173507400Y-108585000D01*
X173507400Y-109220000D02*
X175031400Y-110744000D01*
X175031400Y-110744000D02*
X175031400Y-111556800D01*
X185948000Y-109880400D02*
X186073000Y-109880400D01*
X178770500Y-114617500D02*
X178645500Y-114617500D01*
X179832000Y-115679000D02*
X178770500Y-114617500D01*
X179832000Y-117699500D02*
X179832000Y-115679000D01*
X181145500Y-119013000D02*
X179832000Y-117699500D01*
X181145500Y-119888000D02*
X181145500Y-119013000D01*
X184887884Y-103700969D02*
X184463620Y-103700969D01*
X186610000Y-107282000D02*
X186610000Y-105423085D01*
X186610000Y-105423085D02*
X184887884Y-103700969D01*
X181098500Y-117871000D02*
X181098500Y-119841000D01*
X181098500Y-119841000D02*
X181145500Y-119888000D01*
X178645500Y-114617500D02*
X178520500Y-114617500D01*
X186902445Y-93950443D02*
X187202444Y-93650444D01*
X184878498Y-95974390D02*
X186902445Y-93950443D01*
X184878498Y-100271098D02*
X184878498Y-95974390D01*
X186740800Y-102133400D02*
X184878498Y-100271098D01*
X177266600Y-90170000D02*
X177266600Y-94538800D01*
X177266600Y-94538800D02*
X177952400Y-95224600D01*
X176479200Y-94894400D02*
X177495200Y-95910400D01*
X175336200Y-87249000D02*
X176479200Y-88392000D01*
X176479200Y-88392000D02*
X176479200Y-94894400D01*
X175242000Y-87249000D02*
X175336200Y-87249000D01*
X175460000Y-105770000D02*
X175460000Y-105390621D01*
X174610000Y-106620000D02*
X175460000Y-105770000D01*
X175460000Y-105390621D02*
X177489790Y-103360831D01*
X177749015Y-103360831D02*
X178173279Y-103360831D01*
X174610000Y-107282000D02*
X174610000Y-106620000D01*
X177489790Y-103360831D02*
X177749015Y-103360831D01*
X185262592Y-105047466D02*
X185562591Y-105347465D01*
X185562591Y-105347465D02*
X185562591Y-108776411D01*
X185562591Y-108776411D02*
X185470001Y-108869001D01*
X185470001Y-108869001D02*
X176685001Y-108869001D01*
X176685001Y-108869001D02*
X176610000Y-108794000D01*
X176610000Y-108794000D02*
X176610000Y-107282000D01*
X180610000Y-88282000D02*
X180610000Y-86770000D01*
X180610000Y-86770000D02*
X180263500Y-86423500D01*
X180263500Y-86423500D02*
X172756000Y-86423500D01*
X172756000Y-86423500D02*
X171831000Y-86423500D01*
X184610000Y-106620000D02*
X183234988Y-105244988D01*
X183234988Y-105244988D02*
X180481198Y-105244988D01*
X184610000Y-107282000D02*
X184610000Y-106620000D01*
X179418546Y-104182336D02*
X178388599Y-104182336D01*
X178388599Y-104182336D02*
X177964335Y-104182336D01*
X180481198Y-105244988D02*
X179418546Y-104182336D01*
X172060500Y-89281000D02*
X173160500Y-90381000D01*
X173160500Y-90659997D02*
X173556329Y-91055826D01*
X173556329Y-94699931D02*
X174167800Y-95311402D01*
X175177636Y-101392256D02*
X175477635Y-101692255D01*
X174167800Y-100382420D02*
X175177636Y-101392256D01*
X173556329Y-91055826D02*
X173556329Y-94699931D01*
X173160500Y-90381000D02*
X173160500Y-90659997D01*
X171410500Y-89281000D02*
X172060500Y-89281000D01*
X174167800Y-95311402D02*
X174167800Y-100382420D01*
X177225415Y-104933382D02*
X177225415Y-104509118D01*
X177225415Y-105213030D02*
X177225415Y-104933382D01*
X177707384Y-105694999D02*
X177225415Y-105213030D01*
X179470002Y-105694999D02*
X177707384Y-105694999D01*
X180610000Y-106834997D02*
X179470002Y-105694999D01*
X180610000Y-107282000D02*
X180610000Y-106834997D01*
X174487677Y-102257948D02*
X174911941Y-102257948D01*
X173885623Y-102860002D02*
X174487677Y-102257948D01*
X173308998Y-102860002D02*
X173885623Y-102860002D01*
X171410500Y-100961504D02*
X173308998Y-102860002D01*
X171410500Y-99441000D02*
X171410500Y-100961504D01*
X182610000Y-107282000D02*
X182610000Y-106620000D01*
X179393247Y-104981834D02*
X177935643Y-104981834D01*
X182610000Y-106620000D02*
X181684999Y-105694999D01*
X181684999Y-105694999D02*
X180106412Y-105694999D01*
X180106412Y-105694999D02*
X179393247Y-104981834D01*
X173611785Y-101622615D02*
X173611785Y-102232215D01*
X173611785Y-102232215D02*
X173609000Y-102235000D01*
X173611785Y-98476285D02*
X173611785Y-101622615D01*
X172036500Y-96901000D02*
X173611785Y-98476285D01*
X171386500Y-96901000D02*
X172036500Y-96901000D01*
X174794569Y-95783400D02*
X174794569Y-99695000D01*
X174794569Y-99695000D02*
X174817178Y-99695000D01*
X174817178Y-99695000D02*
X175590200Y-100468022D01*
X175590200Y-100468022D02*
X180876886Y-100468022D01*
X180876886Y-100468022D02*
X181193602Y-100784738D01*
X181193602Y-100784738D02*
X181193602Y-103729147D01*
X181193602Y-103729147D02*
X180843167Y-104079582D01*
X173481803Y-95782303D02*
X173542780Y-95782303D01*
X172060500Y-94361000D02*
X173481803Y-95782303D01*
X171410500Y-94361000D02*
X172060500Y-94361000D01*
X181761665Y-100405465D02*
X181761665Y-103669289D01*
X175962600Y-100018011D02*
X181374211Y-100018011D01*
X175419589Y-99475000D02*
X175962600Y-100018011D01*
X175419589Y-95283999D02*
X175419589Y-99475000D01*
X181374211Y-100018011D02*
X181761665Y-100405465D01*
X175106190Y-94970600D02*
X175419589Y-95283999D01*
X181761665Y-103669289D02*
X181761665Y-104093553D01*
X174752000Y-94970600D02*
X175106190Y-94970600D01*
X182606384Y-100591195D02*
X181583189Y-99568000D01*
X175869600Y-98933000D02*
X175869600Y-95097600D01*
X182606384Y-104137402D02*
X182606384Y-100591195D01*
X175174934Y-94402934D02*
X175036031Y-94402934D01*
X175036031Y-94402934D02*
X174736032Y-94102935D01*
X181583189Y-99568000D02*
X176504600Y-99568000D01*
X175869600Y-95097600D02*
X175174934Y-94402934D01*
X176504600Y-99568000D02*
X175869600Y-98933000D01*
X186189536Y-121742200D02*
X186613800Y-121742200D01*
X185825888Y-121742200D02*
X186189536Y-121742200D01*
X185048486Y-122519602D02*
X185825888Y-121742200D01*
X184392401Y-122136488D02*
X184775514Y-122519602D01*
X184775514Y-122519602D02*
X185048486Y-122519602D01*
X177411119Y-122136488D02*
X184392401Y-122136488D01*
X176086580Y-121660023D02*
X176934656Y-121660024D01*
X174843055Y-120416498D02*
X176086580Y-121660023D01*
X176934656Y-121660024D02*
X177411119Y-122136488D01*
X174843055Y-114363362D02*
X174843055Y-120416498D01*
X177521969Y-111684448D02*
X174843055Y-114363362D01*
X177933614Y-111684448D02*
X177521969Y-111684448D01*
X186693305Y-122586499D02*
X186693305Y-122551695D01*
X186693305Y-122551695D02*
X187477400Y-121767600D01*
X185617999Y-122586499D02*
X186693305Y-122586499D01*
X177625129Y-110944877D02*
X174393044Y-114176962D01*
X176748255Y-122110034D02*
X177224719Y-122586499D01*
X177224719Y-122586499D02*
X184206001Y-122586499D01*
X175900180Y-122110034D02*
X176748255Y-122110034D01*
X184206001Y-122586499D02*
X184589115Y-122969613D01*
X184589115Y-122969613D02*
X185234885Y-122969613D01*
X185234885Y-122969613D02*
X185617999Y-122586499D01*
X174393044Y-120602898D02*
X175900180Y-122110034D01*
X174393044Y-114176962D02*
X174393044Y-120602898D01*
X178521116Y-110944877D02*
X177625129Y-110944877D01*
X184612001Y-121472169D02*
X184912000Y-121772168D01*
X177583515Y-121672473D02*
X178380564Y-121672473D01*
X177121054Y-121210012D02*
X177583515Y-121672473D01*
X176272980Y-121210012D02*
X177121054Y-121210012D01*
X175293066Y-120230098D02*
X176272980Y-121210012D01*
X175293066Y-114549762D02*
X175293066Y-120230098D01*
X178737651Y-111715027D02*
X178737651Y-111776590D01*
X178380564Y-121672473D02*
X178580868Y-121472169D01*
X177532961Y-112309867D02*
X175293066Y-114549762D01*
X178737651Y-111776590D02*
X178204374Y-112309867D01*
X178580868Y-121472169D02*
X184612001Y-121472169D01*
X178204374Y-112309867D02*
X177532961Y-112309867D01*
X183714242Y-104788906D02*
X180661527Y-104788906D01*
X175793788Y-104420424D02*
X175120002Y-104420424D01*
X173943033Y-110477799D02*
X173943033Y-120789298D01*
X176561855Y-122560045D02*
X177763310Y-123761500D01*
X177763310Y-123761500D02*
X178562000Y-123761500D01*
X173943033Y-120789298D02*
X175713780Y-122560045D01*
X183954336Y-105029000D02*
X183714242Y-104788906D01*
X175120002Y-104420424D02*
X172323598Y-107216828D01*
X172323598Y-107216828D02*
X172323598Y-108858364D01*
X184378600Y-105029000D02*
X183954336Y-105029000D01*
X177478400Y-102735811D02*
X175793788Y-104420424D01*
X180661527Y-104788906D02*
X178608432Y-102735811D01*
X175713780Y-122560045D02*
X176561855Y-122560045D01*
X172323598Y-108858364D02*
X173943033Y-110477799D01*
X178608432Y-102735811D02*
X177478400Y-102735811D01*
X177368181Y-120760001D02*
X177655652Y-121047472D01*
X177655652Y-121047472D02*
X178079916Y-121047472D01*
X175743077Y-114736161D02*
X175743077Y-120043698D01*
X177719360Y-112759878D02*
X175743077Y-114736161D01*
X179892205Y-111444384D02*
X178576711Y-112759878D01*
X178576711Y-112759878D02*
X177719360Y-112759878D01*
X180888280Y-111444384D02*
X179892205Y-111444384D01*
X175743077Y-120043698D02*
X176459380Y-120760001D01*
X176459380Y-120760001D02*
X177368181Y-120760001D01*
X177395488Y-120134999D02*
X176193088Y-118932599D01*
X179713170Y-112259829D02*
X180304297Y-112259829D01*
X176193088Y-118932599D02*
X176193088Y-114922561D01*
X176193088Y-114922561D02*
X177905760Y-113209889D01*
X177905760Y-113209889D02*
X178763112Y-113209887D01*
X178763112Y-113209887D02*
X179713170Y-112259829D01*
X180568582Y-101955618D02*
X180263800Y-102260400D01*
X180568582Y-101093042D02*
X180568582Y-101955618D01*
X175172001Y-122911501D02*
X176022000Y-123761500D01*
X171873587Y-109044763D02*
X173493022Y-110664198D01*
X174933602Y-103970413D02*
X171873587Y-107030428D01*
X175607388Y-103970413D02*
X174933602Y-103970413D01*
X173493022Y-110664198D02*
X173493022Y-121232522D01*
X173493022Y-121232522D02*
X175172001Y-122911501D01*
X180263800Y-102260400D02*
X177317400Y-102260400D01*
X171873587Y-107030428D02*
X171873587Y-109044763D01*
X177317400Y-102260400D02*
X175607388Y-103970413D01*
X178438500Y-116571000D02*
X178438500Y-116284700D01*
X178438500Y-116284700D02*
X178206400Y-116052600D01*
X181098500Y-114650738D02*
X181111980Y-114637258D01*
X181098500Y-116571000D02*
X181098500Y-114650738D01*
X184086500Y-117923500D02*
X183765000Y-117602000D01*
X183765000Y-117602000D02*
X183733480Y-117602000D01*
X184086500Y-119062500D02*
X184086500Y-117923500D01*
X177363499Y-118344536D02*
X177662363Y-118643400D01*
X177662363Y-118643400D02*
X178511200Y-118643400D01*
X177363499Y-117296001D02*
X177363499Y-118344536D01*
X178438500Y-117221000D02*
X177438500Y-117221000D01*
X177438500Y-117221000D02*
X177363499Y-117296001D01*
X171423576Y-109231164D02*
X171423576Y-106844028D01*
X170878500Y-118681500D02*
X173043011Y-116516989D01*
X179382961Y-101635380D02*
X179807225Y-101635380D01*
X177223346Y-101718044D02*
X179300297Y-101718044D01*
X175420988Y-103520402D02*
X177223346Y-101718044D01*
X171423576Y-106844028D02*
X174747202Y-103520402D01*
X173043011Y-110850599D02*
X171423576Y-109231164D01*
X179300297Y-101718044D02*
X179382961Y-101635380D01*
X173043011Y-116516989D02*
X173043011Y-110850599D01*
X174747202Y-103520402D02*
X175420988Y-103520402D01*
X170973565Y-109417563D02*
X170973565Y-106435255D01*
X172593000Y-114427000D02*
X172593000Y-111036998D01*
X170878500Y-116141500D02*
X172593000Y-114427000D01*
X172593000Y-111036998D02*
X170973565Y-109417563D01*
X170973565Y-106435255D02*
X174513420Y-102895400D01*
X175210242Y-102895400D02*
X176712601Y-101393041D01*
X176712601Y-101393041D02*
X177012600Y-101093042D01*
X174513420Y-102895400D02*
X175210242Y-102895400D01*
X174213421Y-103195399D02*
X174513420Y-102895400D01*
D22*
G36*
X189290000Y-117332339D02*
X189255878Y-117309539D01*
X188687593Y-117196500D01*
X188629407Y-117196500D01*
X188061122Y-117309539D01*
X187579353Y-117631446D01*
X187257446Y-118113215D01*
X187144407Y-118681500D01*
X187257446Y-119249785D01*
X187579353Y-119731554D01*
X187908526Y-119951500D01*
X187579353Y-120171446D01*
X187257446Y-120653215D01*
X187215489Y-120864148D01*
X187076078Y-120921751D01*
X186800599Y-120807362D01*
X186428633Y-120807038D01*
X186084857Y-120949083D01*
X186051682Y-120982200D01*
X185825888Y-120982200D01*
X185583302Y-121030454D01*
X185535048Y-121040052D01*
X185515402Y-121053179D01*
X185442327Y-120979976D01*
X185098799Y-120837330D01*
X185003451Y-120837247D01*
X184902840Y-120770021D01*
X184612001Y-120712169D01*
X180002607Y-120712169D01*
X180042940Y-120513000D01*
X180042940Y-119690362D01*
X180182901Y-119550401D01*
X180347648Y-119303839D01*
X180405500Y-119013000D01*
X180405500Y-118978082D01*
X180396453Y-118932599D01*
X180347648Y-118687242D01*
X180246306Y-118535573D01*
X180246373Y-118458626D01*
X180104328Y-118114850D01*
X180061042Y-118071488D01*
X180043003Y-117980803D01*
X180096610Y-118017431D01*
X180348500Y-118068440D01*
X181832457Y-118068440D01*
X181858283Y-118130943D01*
X182042060Y-118315041D01*
X182042060Y-119951500D01*
X182086338Y-120186817D01*
X182225410Y-120402941D01*
X182437610Y-120547931D01*
X182689500Y-120598940D01*
X185483500Y-120598940D01*
X185718817Y-120554662D01*
X185934941Y-120415590D01*
X186079931Y-120203390D01*
X186130940Y-119951500D01*
X186130940Y-118173500D01*
X186086662Y-117938183D01*
X185947590Y-117722059D01*
X185735390Y-117577069D01*
X185483500Y-117526060D01*
X184717420Y-117526060D01*
X184668610Y-117453012D01*
X184668642Y-117416833D01*
X184666438Y-117411500D01*
X185483500Y-117411500D01*
X185714295Y-117368073D01*
X185926267Y-117231673D01*
X186068471Y-117023551D01*
X186118500Y-116776500D01*
X186118500Y-116456931D01*
X186130940Y-116395500D01*
X186130940Y-115252500D01*
X189290000Y-115252500D01*
X189290000Y-117332339D01*
X189290000Y-117332339D01*
G37*
X189290000Y-117332339D02*
X189255878Y-117309539D01*
X188687593Y-117196500D01*
X188629407Y-117196500D01*
X188061122Y-117309539D01*
X187579353Y-117631446D01*
X187257446Y-118113215D01*
X187144407Y-118681500D01*
X187257446Y-119249785D01*
X187579353Y-119731554D01*
X187908526Y-119951500D01*
X187579353Y-120171446D01*
X187257446Y-120653215D01*
X187215489Y-120864148D01*
X187076078Y-120921751D01*
X186800599Y-120807362D01*
X186428633Y-120807038D01*
X186084857Y-120949083D01*
X186051682Y-120982200D01*
X185825888Y-120982200D01*
X185583302Y-121030454D01*
X185535048Y-121040052D01*
X185515402Y-121053179D01*
X185442327Y-120979976D01*
X185098799Y-120837330D01*
X185003451Y-120837247D01*
X184902840Y-120770021D01*
X184612001Y-120712169D01*
X180002607Y-120712169D01*
X180042940Y-120513000D01*
X180042940Y-119690362D01*
X180182901Y-119550401D01*
X180347648Y-119303839D01*
X180405500Y-119013000D01*
X180405500Y-118978082D01*
X180396453Y-118932599D01*
X180347648Y-118687242D01*
X180246306Y-118535573D01*
X180246373Y-118458626D01*
X180104328Y-118114850D01*
X180061042Y-118071488D01*
X180043003Y-117980803D01*
X180096610Y-118017431D01*
X180348500Y-118068440D01*
X181832457Y-118068440D01*
X181858283Y-118130943D01*
X182042060Y-118315041D01*
X182042060Y-119951500D01*
X182086338Y-120186817D01*
X182225410Y-120402941D01*
X182437610Y-120547931D01*
X182689500Y-120598940D01*
X185483500Y-120598940D01*
X185718817Y-120554662D01*
X185934941Y-120415590D01*
X186079931Y-120203390D01*
X186130940Y-119951500D01*
X186130940Y-118173500D01*
X186086662Y-117938183D01*
X185947590Y-117722059D01*
X185735390Y-117577069D01*
X185483500Y-117526060D01*
X184717420Y-117526060D01*
X184668610Y-117453012D01*
X184668642Y-117416833D01*
X184666438Y-117411500D01*
X185483500Y-117411500D01*
X185714295Y-117368073D01*
X185926267Y-117231673D01*
X186068471Y-117023551D01*
X186118500Y-116776500D01*
X186118500Y-116456931D01*
X186130940Y-116395500D01*
X186130940Y-115252500D01*
X189290000Y-115252500D01*
X189290000Y-117332339D01*
G36*
X185498200Y-87147400D02*
X185556052Y-87438239D01*
X185720799Y-87684801D01*
X186838399Y-88802401D01*
X187084961Y-88967148D01*
X187375800Y-89025000D01*
X188203998Y-89025000D01*
X188470000Y-89291002D01*
X188470000Y-92191998D01*
X187768228Y-92893770D01*
X187732771Y-92858252D01*
X187389243Y-92715606D01*
X187017277Y-92715282D01*
X186673501Y-92857327D01*
X186410252Y-93120117D01*
X186267606Y-93463645D01*
X186267565Y-93510521D01*
X184341097Y-95436989D01*
X184176350Y-95683551D01*
X184118498Y-95974390D01*
X184118498Y-100271098D01*
X184176350Y-100561937D01*
X184341097Y-100808499D01*
X185805678Y-102273080D01*
X185805638Y-102318567D01*
X185947683Y-102662343D01*
X186210473Y-102925592D01*
X186554001Y-103068238D01*
X186925967Y-103068562D01*
X187269743Y-102926517D01*
X187532992Y-102663727D01*
X187675638Y-102320199D01*
X187675962Y-101948233D01*
X187533917Y-101604457D01*
X187271127Y-101341208D01*
X186927599Y-101198562D01*
X186880723Y-101198521D01*
X185677354Y-99995152D01*
X185688667Y-99995162D01*
X186032443Y-99853117D01*
X186295692Y-99590327D01*
X186438338Y-99246799D01*
X186438662Y-98874833D01*
X186296617Y-98531057D01*
X186263500Y-98497882D01*
X186263500Y-96548102D01*
X188470000Y-94341602D01*
X188470000Y-104434798D01*
X188072599Y-104832199D01*
X187907852Y-105078761D01*
X187850000Y-105369600D01*
X187850000Y-105402666D01*
X187774683Y-105416838D01*
X187558559Y-105555910D01*
X187413569Y-105768110D01*
X187362560Y-106020000D01*
X187362560Y-108544000D01*
X187391540Y-108698017D01*
X187246559Y-108791310D01*
X187101569Y-109003510D01*
X187050560Y-109255400D01*
X187050560Y-110505400D01*
X187063965Y-110576643D01*
X185243812Y-110576643D01*
X185211676Y-110544451D01*
X184868148Y-110401805D01*
X184496182Y-110401481D01*
X184152406Y-110543526D01*
X184119231Y-110576643D01*
X183810357Y-110576643D01*
X183519518Y-110634495D01*
X183272956Y-110799241D01*
X182909099Y-111163099D01*
X182794596Y-111334465D01*
X182726183Y-111347338D01*
X182510059Y-111486410D01*
X182365069Y-111698610D01*
X182314060Y-111950500D01*
X182314060Y-113220500D01*
X182337957Y-113347500D01*
X181907549Y-113347500D01*
X181895500Y-113345060D01*
X180395500Y-113345060D01*
X180382533Y-113347500D01*
X180340000Y-113347500D01*
X180109205Y-113390927D01*
X179897233Y-113527327D01*
X179755029Y-113735449D01*
X179705000Y-113982500D01*
X179705000Y-116001006D01*
X179652590Y-115919559D01*
X179440390Y-115774569D01*
X179188500Y-115723560D01*
X179082115Y-115723560D01*
X178999517Y-115523657D01*
X178736727Y-115260408D01*
X178393199Y-115117762D01*
X178021233Y-115117438D01*
X177677457Y-115259483D01*
X177414208Y-115522273D01*
X177271562Y-115865801D01*
X177271546Y-115884719D01*
X177237059Y-115906910D01*
X177092069Y-116119110D01*
X177041060Y-116371000D01*
X177041060Y-116590080D01*
X176953088Y-116648861D01*
X176953088Y-115237363D01*
X178220563Y-113969888D01*
X178763114Y-113969887D01*
X178878818Y-113946871D01*
X179053951Y-113912035D01*
X179053952Y-113912034D01*
X179053953Y-113912034D01*
X179285704Y-113757183D01*
X179300513Y-113747288D01*
X179930700Y-113117101D01*
X180117498Y-113194667D01*
X180489464Y-113194991D01*
X180833240Y-113052946D01*
X181096489Y-112790156D01*
X181239135Y-112446628D01*
X181239253Y-112311036D01*
X181417223Y-112237501D01*
X181680472Y-111974711D01*
X181823118Y-111631183D01*
X181823442Y-111259217D01*
X181681397Y-110915441D01*
X181418607Y-110652192D01*
X181075079Y-110509546D01*
X180703113Y-110509222D01*
X180359337Y-110651267D01*
X180326162Y-110684384D01*
X179892205Y-110684384D01*
X179649619Y-110732638D01*
X179601365Y-110742236D01*
X179456209Y-110839226D01*
X179456278Y-110759710D01*
X179314233Y-110415934D01*
X179051443Y-110152685D01*
X178707915Y-110010039D01*
X178335949Y-110009715D01*
X177992173Y-110151760D01*
X177958998Y-110184877D01*
X177625129Y-110184877D01*
X177382543Y-110233131D01*
X177334289Y-110242729D01*
X177087728Y-110407476D01*
X174703033Y-112792171D01*
X174703033Y-110477799D01*
X174645181Y-110186960D01*
X174480434Y-109940398D01*
X173083598Y-108543562D01*
X173083598Y-107531630D01*
X173362560Y-107252668D01*
X173362560Y-108544000D01*
X173406838Y-108779317D01*
X173545910Y-108995441D01*
X173758110Y-109140431D01*
X174010000Y-109191440D01*
X175210000Y-109191440D01*
X175445317Y-109147162D01*
X175611477Y-109040241D01*
X175758110Y-109140431D01*
X175974242Y-109184199D01*
X176072599Y-109331401D01*
X176147600Y-109406402D01*
X176394161Y-109571149D01*
X176442415Y-109580747D01*
X176685001Y-109629001D01*
X185470001Y-109629001D01*
X185760840Y-109571149D01*
X186007402Y-109406402D01*
X186099992Y-109313812D01*
X186264739Y-109067250D01*
X186322591Y-108776411D01*
X186322591Y-105347465D01*
X186264739Y-105056626D01*
X186197672Y-104956253D01*
X186197754Y-104862299D01*
X186055709Y-104518523D01*
X185792919Y-104255274D01*
X185449391Y-104112628D01*
X185077425Y-104112304D01*
X184842678Y-104209299D01*
X184565399Y-104094162D01*
X184193433Y-104093838D01*
X184083598Y-104139221D01*
X184005081Y-104086758D01*
X183714242Y-104028906D01*
X183541479Y-104028906D01*
X183541546Y-103952235D01*
X183399501Y-103608459D01*
X183366384Y-103575284D01*
X183366384Y-100591195D01*
X183353479Y-100526317D01*
X183308532Y-100300355D01*
X183143785Y-100053794D01*
X182120590Y-99030599D01*
X181874028Y-98865852D01*
X181583189Y-98808000D01*
X176819402Y-98808000D01*
X176629600Y-98618198D01*
X176629600Y-96263920D01*
X176702083Y-96439343D01*
X176964873Y-96702592D01*
X177308401Y-96845238D01*
X177680367Y-96845562D01*
X178024143Y-96703517D01*
X178287392Y-96440727D01*
X178430038Y-96097199D01*
X178430089Y-96038895D01*
X178481343Y-96017717D01*
X178744592Y-95754927D01*
X178887238Y-95411399D01*
X178887562Y-95039433D01*
X178745517Y-94695657D01*
X178482727Y-94432408D01*
X178139199Y-94289762D01*
X178092323Y-94289721D01*
X178026600Y-94223998D01*
X178026600Y-90732463D01*
X178058792Y-90700327D01*
X178201438Y-90356799D01*
X178201762Y-89984833D01*
X178059717Y-89641057D01*
X177796927Y-89377808D01*
X177453399Y-89235162D01*
X177239200Y-89234975D01*
X177239200Y-88392000D01*
X177181348Y-88101161D01*
X177016601Y-87854599D01*
X176345502Y-87183500D01*
X179362560Y-87183500D01*
X179362560Y-89544000D01*
X179406838Y-89779317D01*
X179545910Y-89995441D01*
X179758110Y-90140431D01*
X180010000Y-90191440D01*
X181210000Y-90191440D01*
X181445317Y-90147162D01*
X181661441Y-90008090D01*
X181806431Y-89795890D01*
X181857440Y-89544000D01*
X181857440Y-87020000D01*
X181813162Y-86784683D01*
X181674090Y-86568559D01*
X181461890Y-86423569D01*
X181245758Y-86379801D01*
X181147401Y-86232599D01*
X181098301Y-86183499D01*
X185498200Y-86183499D01*
X185498200Y-87147400D01*
X185498200Y-87147400D01*
G37*
X185498200Y-87147400D02*
X185556052Y-87438239D01*
X185720799Y-87684801D01*
X186838399Y-88802401D01*
X187084961Y-88967148D01*
X187375800Y-89025000D01*
X188203998Y-89025000D01*
X188470000Y-89291002D01*
X188470000Y-92191998D01*
X187768228Y-92893770D01*
X187732771Y-92858252D01*
X187389243Y-92715606D01*
X187017277Y-92715282D01*
X186673501Y-92857327D01*
X186410252Y-93120117D01*
X186267606Y-93463645D01*
X186267565Y-93510521D01*
X184341097Y-95436989D01*
X184176350Y-95683551D01*
X184118498Y-95974390D01*
X184118498Y-100271098D01*
X184176350Y-100561937D01*
X184341097Y-100808499D01*
X185805678Y-102273080D01*
X185805638Y-102318567D01*
X185947683Y-102662343D01*
X186210473Y-102925592D01*
X186554001Y-103068238D01*
X186925967Y-103068562D01*
X187269743Y-102926517D01*
X187532992Y-102663727D01*
X187675638Y-102320199D01*
X187675962Y-101948233D01*
X187533917Y-101604457D01*
X187271127Y-101341208D01*
X186927599Y-101198562D01*
X186880723Y-101198521D01*
X185677354Y-99995152D01*
X185688667Y-99995162D01*
X186032443Y-99853117D01*
X186295692Y-99590327D01*
X186438338Y-99246799D01*
X186438662Y-98874833D01*
X186296617Y-98531057D01*
X186263500Y-98497882D01*
X186263500Y-96548102D01*
X188470000Y-94341602D01*
X188470000Y-104434798D01*
X188072599Y-104832199D01*
X187907852Y-105078761D01*
X187850000Y-105369600D01*
X187850000Y-105402666D01*
X187774683Y-105416838D01*
X187558559Y-105555910D01*
X187413569Y-105768110D01*
X187362560Y-106020000D01*
X187362560Y-108544000D01*
X187391540Y-108698017D01*
X187246559Y-108791310D01*
X187101569Y-109003510D01*
X187050560Y-109255400D01*
X187050560Y-110505400D01*
X187063965Y-110576643D01*
X185243812Y-110576643D01*
X185211676Y-110544451D01*
X184868148Y-110401805D01*
X184496182Y-110401481D01*
X184152406Y-110543526D01*
X184119231Y-110576643D01*
X183810357Y-110576643D01*
X183519518Y-110634495D01*
X183272956Y-110799241D01*
X182909099Y-111163099D01*
X182794596Y-111334465D01*
X182726183Y-111347338D01*
X182510059Y-111486410D01*
X182365069Y-111698610D01*
X182314060Y-111950500D01*
X182314060Y-113220500D01*
X182337957Y-113347500D01*
X181907549Y-113347500D01*
X181895500Y-113345060D01*
X180395500Y-113345060D01*
X180382533Y-113347500D01*
X180340000Y-113347500D01*
X180109205Y-113390927D01*
X179897233Y-113527327D01*
X179755029Y-113735449D01*
X179705000Y-113982500D01*
X179705000Y-116001006D01*
X179652590Y-115919559D01*
X179440390Y-115774569D01*
X179188500Y-115723560D01*
X179082115Y-115723560D01*
X178999517Y-115523657D01*
X178736727Y-115260408D01*
X178393199Y-115117762D01*
X178021233Y-115117438D01*
X177677457Y-115259483D01*
X177414208Y-115522273D01*
X177271562Y-115865801D01*
X177271546Y-115884719D01*
X177237059Y-115906910D01*
X177092069Y-116119110D01*
X177041060Y-116371000D01*
X177041060Y-116590080D01*
X176953088Y-116648861D01*
X176953088Y-115237363D01*
X178220563Y-113969888D01*
X178763114Y-113969887D01*
X178878818Y-113946871D01*
X179053951Y-113912035D01*
X179053952Y-113912034D01*
X179053953Y-113912034D01*
X179285704Y-113757183D01*
X179300513Y-113747288D01*
X179930700Y-113117101D01*
X180117498Y-113194667D01*
X180489464Y-113194991D01*
X180833240Y-113052946D01*
X181096489Y-112790156D01*
X181239135Y-112446628D01*
X181239253Y-112311036D01*
X181417223Y-112237501D01*
X181680472Y-111974711D01*
X181823118Y-111631183D01*
X181823442Y-111259217D01*
X181681397Y-110915441D01*
X181418607Y-110652192D01*
X181075079Y-110509546D01*
X180703113Y-110509222D01*
X180359337Y-110651267D01*
X180326162Y-110684384D01*
X179892205Y-110684384D01*
X179649619Y-110732638D01*
X179601365Y-110742236D01*
X179456209Y-110839226D01*
X179456278Y-110759710D01*
X179314233Y-110415934D01*
X179051443Y-110152685D01*
X178707915Y-110010039D01*
X178335949Y-110009715D01*
X177992173Y-110151760D01*
X177958998Y-110184877D01*
X177625129Y-110184877D01*
X177382543Y-110233131D01*
X177334289Y-110242729D01*
X177087728Y-110407476D01*
X174703033Y-112792171D01*
X174703033Y-110477799D01*
X174645181Y-110186960D01*
X174480434Y-109940398D01*
X173083598Y-108543562D01*
X173083598Y-107531630D01*
X173362560Y-107252668D01*
X173362560Y-108544000D01*
X173406838Y-108779317D01*
X173545910Y-108995441D01*
X173758110Y-109140431D01*
X174010000Y-109191440D01*
X175210000Y-109191440D01*
X175445317Y-109147162D01*
X175611477Y-109040241D01*
X175758110Y-109140431D01*
X175974242Y-109184199D01*
X176072599Y-109331401D01*
X176147600Y-109406402D01*
X176394161Y-109571149D01*
X176442415Y-109580747D01*
X176685001Y-109629001D01*
X185470001Y-109629001D01*
X185760840Y-109571149D01*
X186007402Y-109406402D01*
X186099992Y-109313812D01*
X186264739Y-109067250D01*
X186322591Y-108776411D01*
X186322591Y-105347465D01*
X186264739Y-105056626D01*
X186197672Y-104956253D01*
X186197754Y-104862299D01*
X186055709Y-104518523D01*
X185792919Y-104255274D01*
X185449391Y-104112628D01*
X185077425Y-104112304D01*
X184842678Y-104209299D01*
X184565399Y-104094162D01*
X184193433Y-104093838D01*
X184083598Y-104139221D01*
X184005081Y-104086758D01*
X183714242Y-104028906D01*
X183541479Y-104028906D01*
X183541546Y-103952235D01*
X183399501Y-103608459D01*
X183366384Y-103575284D01*
X183366384Y-100591195D01*
X183353479Y-100526317D01*
X183308532Y-100300355D01*
X183143785Y-100053794D01*
X182120590Y-99030599D01*
X181874028Y-98865852D01*
X181583189Y-98808000D01*
X176819402Y-98808000D01*
X176629600Y-98618198D01*
X176629600Y-96263920D01*
X176702083Y-96439343D01*
X176964873Y-96702592D01*
X177308401Y-96845238D01*
X177680367Y-96845562D01*
X178024143Y-96703517D01*
X178287392Y-96440727D01*
X178430038Y-96097199D01*
X178430089Y-96038895D01*
X178481343Y-96017717D01*
X178744592Y-95754927D01*
X178887238Y-95411399D01*
X178887562Y-95039433D01*
X178745517Y-94695657D01*
X178482727Y-94432408D01*
X178139199Y-94289762D01*
X178092323Y-94289721D01*
X178026600Y-94223998D01*
X178026600Y-90732463D01*
X178058792Y-90700327D01*
X178201438Y-90356799D01*
X178201762Y-89984833D01*
X178059717Y-89641057D01*
X177796927Y-89377808D01*
X177453399Y-89235162D01*
X177239200Y-89234975D01*
X177239200Y-88392000D01*
X177181348Y-88101161D01*
X177016601Y-87854599D01*
X176345502Y-87183500D01*
X179362560Y-87183500D01*
X179362560Y-89544000D01*
X179406838Y-89779317D01*
X179545910Y-89995441D01*
X179758110Y-90140431D01*
X180010000Y-90191440D01*
X181210000Y-90191440D01*
X181445317Y-90147162D01*
X181661441Y-90008090D01*
X181806431Y-89795890D01*
X181857440Y-89544000D01*
X181857440Y-87020000D01*
X181813162Y-86784683D01*
X181674090Y-86568559D01*
X181461890Y-86423569D01*
X181245758Y-86379801D01*
X181147401Y-86232599D01*
X181098301Y-86183499D01*
X185498200Y-86183499D01*
X185498200Y-87147400D01*
G36*
X171833000Y-111351800D02*
X171833000Y-112468160D01*
X171475878Y-112229539D01*
X170907593Y-112116500D01*
X170849407Y-112116500D01*
X170710000Y-112144230D01*
X170710000Y-110228800D01*
X171833000Y-111351800D01*
X171833000Y-111351800D01*
G37*
X171833000Y-111351800D02*
X171833000Y-112468160D01*
X171475878Y-112229539D01*
X170907593Y-112116500D01*
X170849407Y-112116500D01*
X170710000Y-112144230D01*
X170710000Y-110228800D01*
X171833000Y-111351800D01*
G36*
X185293000Y-112649000D02*
X185303006Y-112698410D01*
X185331447Y-112740035D01*
X185373841Y-112767315D01*
X185420000Y-112776000D01*
X189290000Y-112776000D01*
X189290000Y-114490500D01*
X185483500Y-114490500D01*
X185434090Y-114500506D01*
X185392465Y-114528947D01*
X185365185Y-114571341D01*
X185356500Y-114617500D01*
X185356500Y-116649500D01*
X182756768Y-116649500D01*
X182561239Y-116518852D01*
X182270400Y-116461000D01*
X182153709Y-116461000D01*
X182100390Y-116424569D01*
X181848500Y-116373560D01*
X180592000Y-116373560D01*
X180592000Y-115679000D01*
X180534148Y-115388161D01*
X180467000Y-115287667D01*
X180467000Y-114109500D01*
X184213500Y-114109500D01*
X184262910Y-114099494D01*
X184304535Y-114071053D01*
X184331815Y-114028659D01*
X184340500Y-113982500D01*
X184340500Y-113711900D01*
X184382941Y-113684590D01*
X184527931Y-113472390D01*
X184578940Y-113220500D01*
X184578940Y-112271555D01*
X184866516Y-112271805D01*
X185210292Y-112129760D01*
X185243467Y-112096643D01*
X185293000Y-112096643D01*
X185293000Y-112649000D01*
X185293000Y-112649000D01*
G37*
X185293000Y-112649000D02*
X185303006Y-112698410D01*
X185331447Y-112740035D01*
X185373841Y-112767315D01*
X185420000Y-112776000D01*
X189290000Y-112776000D01*
X189290000Y-114490500D01*
X185483500Y-114490500D01*
X185434090Y-114500506D01*
X185392465Y-114528947D01*
X185365185Y-114571341D01*
X185356500Y-114617500D01*
X185356500Y-116649500D01*
X182756768Y-116649500D01*
X182561239Y-116518852D01*
X182270400Y-116461000D01*
X182153709Y-116461000D01*
X182100390Y-116424569D01*
X181848500Y-116373560D01*
X180592000Y-116373560D01*
X180592000Y-115679000D01*
X180534148Y-115388161D01*
X180467000Y-115287667D01*
X180467000Y-114109500D01*
X184213500Y-114109500D01*
X184262910Y-114099494D01*
X184304535Y-114071053D01*
X184331815Y-114028659D01*
X184340500Y-113982500D01*
X184340500Y-113711900D01*
X184382941Y-113684590D01*
X184527931Y-113472390D01*
X184578940Y-113220500D01*
X184578940Y-112271555D01*
X184866516Y-112271805D01*
X185210292Y-112129760D01*
X185243467Y-112096643D01*
X185293000Y-112096643D01*
X185293000Y-112649000D01*
M02*
