G04 #@! TF.FileFunction,Soldermask,Top*
%FSLAX46Y46*%
G04 Gerber Fmt 4.6, Leading zero omitted, Abs format (unit mm)*
G04 Created by KiCad (PCBNEW 4.0.2-stable) date 01.06.2017 12:53:20*
%MOMM*%
G01*
G04 APERTURE LIST*
%ADD10C,0.100000*%
%ADD11C,2.100000*%
%ADD12O,2.100000X2.100000*%
%ADD13R,3.400000X2.100000*%
%ADD14R,2.580000X2.000000*%
%ADD15R,1.900000X1.650000*%
%ADD16R,1.900000X1.900000*%
%ADD17R,1.700000X1.900000*%
%ADD18R,1.900000X1.700000*%
%ADD19R,2.150000X2.200000*%
%ADD20C,2.600000*%
%ADD21R,1.750000X1.750000*%
G04 APERTURE END LIST*
D10*
D11*
X170878500Y-111061500D03*
D12*
X170878500Y-113601500D03*
X170878500Y-116141500D03*
X170878500Y-118681500D03*
D13*
X171410500Y-89281000D03*
X171410500Y-94361000D03*
X171410500Y-99441000D03*
X171386500Y-91821000D03*
X171386500Y-96901000D03*
D10*
G36*
X186648834Y-102643212D02*
X187320586Y-103314964D01*
X185906372Y-104729178D01*
X185234620Y-104057426D01*
X186648834Y-102643212D01*
X186648834Y-102643212D01*
G37*
G36*
X186083148Y-102077527D02*
X186754900Y-102749279D01*
X185340686Y-104163493D01*
X184668934Y-103491741D01*
X186083148Y-102077527D01*
X186083148Y-102077527D01*
G37*
G36*
X185517463Y-101511841D02*
X186189215Y-102183593D01*
X184775001Y-103597807D01*
X184103249Y-102926055D01*
X185517463Y-101511841D01*
X185517463Y-101511841D01*
G37*
G36*
X184951778Y-100946156D02*
X185623530Y-101617908D01*
X184209316Y-103032122D01*
X183537564Y-102360370D01*
X184951778Y-100946156D01*
X184951778Y-100946156D01*
G37*
G36*
X184386092Y-100380470D02*
X185057844Y-101052222D01*
X183643630Y-102466436D01*
X182971878Y-101794684D01*
X184386092Y-100380470D01*
X184386092Y-100380470D01*
G37*
G36*
X183820407Y-99814785D02*
X184492159Y-100486537D01*
X183077945Y-101900751D01*
X182406193Y-101228999D01*
X183820407Y-99814785D01*
X183820407Y-99814785D01*
G37*
G36*
X183254721Y-99249100D02*
X183926473Y-99920852D01*
X182512259Y-101335066D01*
X181840507Y-100663314D01*
X183254721Y-99249100D01*
X183254721Y-99249100D01*
G37*
G36*
X182689036Y-98683414D02*
X183360788Y-99355166D01*
X181946574Y-100769380D01*
X181274822Y-100097628D01*
X182689036Y-98683414D01*
X182689036Y-98683414D01*
G37*
G36*
X179224212Y-99355166D02*
X179895964Y-98683414D01*
X181310178Y-100097628D01*
X180638426Y-100769380D01*
X179224212Y-99355166D01*
X179224212Y-99355166D01*
G37*
G36*
X178658527Y-99920852D02*
X179330279Y-99249100D01*
X180744493Y-100663314D01*
X180072741Y-101335066D01*
X178658527Y-99920852D01*
X178658527Y-99920852D01*
G37*
G36*
X178092841Y-100486537D02*
X178764593Y-99814785D01*
X180178807Y-101228999D01*
X179507055Y-101900751D01*
X178092841Y-100486537D01*
X178092841Y-100486537D01*
G37*
G36*
X177527156Y-101052222D02*
X178198908Y-100380470D01*
X179613122Y-101794684D01*
X178941370Y-102466436D01*
X177527156Y-101052222D01*
X177527156Y-101052222D01*
G37*
G36*
X176961470Y-101617908D02*
X177633222Y-100946156D01*
X179047436Y-102360370D01*
X178375684Y-103032122D01*
X176961470Y-101617908D01*
X176961470Y-101617908D01*
G37*
G36*
X176395785Y-102183593D02*
X177067537Y-101511841D01*
X178481751Y-102926055D01*
X177809999Y-103597807D01*
X176395785Y-102183593D01*
X176395785Y-102183593D01*
G37*
G36*
X175830100Y-102749279D02*
X176501852Y-102077527D01*
X177916066Y-103491741D01*
X177244314Y-104163493D01*
X175830100Y-102749279D01*
X175830100Y-102749279D01*
G37*
G36*
X175264414Y-103314964D02*
X175936166Y-102643212D01*
X177350380Y-104057426D01*
X176678628Y-104729178D01*
X175264414Y-103314964D01*
X175264414Y-103314964D01*
G37*
G36*
X176678628Y-104693822D02*
X177350380Y-105365574D01*
X175936166Y-106779788D01*
X175264414Y-106108036D01*
X176678628Y-104693822D01*
X176678628Y-104693822D01*
G37*
G36*
X177244314Y-105259507D02*
X177916066Y-105931259D01*
X176501852Y-107345473D01*
X175830100Y-106673721D01*
X177244314Y-105259507D01*
X177244314Y-105259507D01*
G37*
G36*
X177809999Y-105825193D02*
X178481751Y-106496945D01*
X177067537Y-107911159D01*
X176395785Y-107239407D01*
X177809999Y-105825193D01*
X177809999Y-105825193D01*
G37*
G36*
X178375684Y-106390878D02*
X179047436Y-107062630D01*
X177633222Y-108476844D01*
X176961470Y-107805092D01*
X178375684Y-106390878D01*
X178375684Y-106390878D01*
G37*
G36*
X178941370Y-106956564D02*
X179613122Y-107628316D01*
X178198908Y-109042530D01*
X177527156Y-108370778D01*
X178941370Y-106956564D01*
X178941370Y-106956564D01*
G37*
G36*
X179507055Y-107522249D02*
X180178807Y-108194001D01*
X178764593Y-109608215D01*
X178092841Y-108936463D01*
X179507055Y-107522249D01*
X179507055Y-107522249D01*
G37*
G36*
X180072741Y-108087934D02*
X180744493Y-108759686D01*
X179330279Y-110173900D01*
X178658527Y-109502148D01*
X180072741Y-108087934D01*
X180072741Y-108087934D01*
G37*
G36*
X180638426Y-108653620D02*
X181310178Y-109325372D01*
X179895964Y-110739586D01*
X179224212Y-110067834D01*
X180638426Y-108653620D01*
X180638426Y-108653620D01*
G37*
G36*
X181274822Y-109325372D02*
X181946574Y-108653620D01*
X183360788Y-110067834D01*
X182689036Y-110739586D01*
X181274822Y-109325372D01*
X181274822Y-109325372D01*
G37*
G36*
X181840507Y-108759686D02*
X182512259Y-108087934D01*
X183926473Y-109502148D01*
X183254721Y-110173900D01*
X181840507Y-108759686D01*
X181840507Y-108759686D01*
G37*
G36*
X182406193Y-108194001D02*
X183077945Y-107522249D01*
X184492159Y-108936463D01*
X183820407Y-109608215D01*
X182406193Y-108194001D01*
X182406193Y-108194001D01*
G37*
G36*
X182971878Y-107628316D02*
X183643630Y-106956564D01*
X185057844Y-108370778D01*
X184386092Y-109042530D01*
X182971878Y-107628316D01*
X182971878Y-107628316D01*
G37*
G36*
X183537564Y-107062630D02*
X184209316Y-106390878D01*
X185623530Y-107805092D01*
X184951778Y-108476844D01*
X183537564Y-107062630D01*
X183537564Y-107062630D01*
G37*
G36*
X184103249Y-106496945D02*
X184775001Y-105825193D01*
X186189215Y-107239407D01*
X185517463Y-107911159D01*
X184103249Y-106496945D01*
X184103249Y-106496945D01*
G37*
G36*
X184668934Y-105931259D02*
X185340686Y-105259507D01*
X186754900Y-106673721D01*
X186083148Y-107345473D01*
X184668934Y-105931259D01*
X184668934Y-105931259D01*
G37*
G36*
X185234620Y-105365574D02*
X185906372Y-104693822D01*
X187320586Y-106108036D01*
X186648834Y-106779788D01*
X185234620Y-105365574D01*
X185234620Y-105365574D01*
G37*
D11*
X188658500Y-113601500D03*
D12*
X188658500Y-116141500D03*
X188658500Y-118681500D03*
X188658500Y-121221500D03*
D11*
X188722000Y-123761500D03*
D12*
X186182000Y-123761500D03*
X183642000Y-123761500D03*
X181102000Y-123761500D03*
X178562000Y-123761500D03*
X176022000Y-123761500D03*
D14*
X184358500Y-120015000D03*
X175178500Y-120015000D03*
X175242000Y-87249000D03*
X184422000Y-87249000D03*
D15*
X185503500Y-99060000D03*
X188003500Y-99060000D03*
D16*
X185357500Y-91630500D03*
X188657500Y-91630500D03*
X185357500Y-89535000D03*
X188657500Y-89535000D03*
D17*
X182753000Y-113483400D03*
X182753000Y-116183400D03*
D18*
X184527200Y-93675200D03*
X187227200Y-93675200D03*
X181309000Y-90170000D03*
X178609000Y-90170000D03*
D15*
X185516200Y-96850200D03*
X188016200Y-96850200D03*
X179394800Y-94361000D03*
X181894800Y-94361000D03*
D19*
X182879400Y-96723200D03*
X179629400Y-96723200D03*
D20*
X188087000Y-86741000D03*
X171958000Y-123190000D03*
D21*
X171831000Y-86423500D03*
D17*
X179578000Y-113521500D03*
X179578000Y-116221500D03*
D15*
X173946500Y-109791500D03*
X176446500Y-109791500D03*
D17*
X176606200Y-116230400D03*
X176606200Y-113530400D03*
M02*
