G04 #@! TF.FileFunction,Legend,Bot*
%FSLAX46Y46*%
G04 Gerber Fmt 4.6, Leading zero omitted, Abs format (unit mm)*
G04 Created by KiCad (PCBNEW 4.0.2-stable) date 01.06.2017 12:53:20*
%MOMM*%
G01*
G04 APERTURE LIST*
%ADD10C,0.100000*%
%ADD11C,0.150000*%
%ADD12C,0.120000*%
G04 APERTURE END LIST*
D10*
D11*
X172426190Y-101988881D02*
X172426190Y-100988881D01*
X171997619Y-101941262D02*
X171854762Y-101988881D01*
X171616666Y-101988881D01*
X171521428Y-101941262D01*
X171473809Y-101893643D01*
X171426190Y-101798405D01*
X171426190Y-101703167D01*
X171473809Y-101607929D01*
X171521428Y-101560310D01*
X171616666Y-101512690D01*
X171807143Y-101465071D01*
X171902381Y-101417452D01*
X171950000Y-101369833D01*
X171997619Y-101274595D01*
X171997619Y-101179357D01*
X171950000Y-101084119D01*
X171902381Y-101036500D01*
X171807143Y-100988881D01*
X171569047Y-100988881D01*
X171426190Y-101036500D01*
X170997619Y-101988881D02*
X170997619Y-100988881D01*
X170616666Y-100988881D01*
X170521428Y-101036500D01*
X170473809Y-101084119D01*
X170426190Y-101179357D01*
X170426190Y-101322214D01*
X170473809Y-101417452D01*
X170521428Y-101465071D01*
X170616666Y-101512690D01*
X170997619Y-101512690D01*
D10*
X175059857Y-99712429D02*
X175059857Y-99112429D01*
X174859857Y-99541000D01*
X174659857Y-99112429D01*
X174659857Y-99712429D01*
X174374143Y-99712429D02*
X174374143Y-99112429D01*
X174117000Y-99683857D02*
X174031286Y-99712429D01*
X173888429Y-99712429D01*
X173831286Y-99683857D01*
X173802715Y-99655286D01*
X173774143Y-99598143D01*
X173774143Y-99541000D01*
X173802715Y-99483857D01*
X173831286Y-99455286D01*
X173888429Y-99426714D01*
X174002715Y-99398143D01*
X174059857Y-99369571D01*
X174088429Y-99341000D01*
X174117000Y-99283857D01*
X174117000Y-99226714D01*
X174088429Y-99169571D01*
X174059857Y-99141000D01*
X174002715Y-99112429D01*
X173859857Y-99112429D01*
X173774143Y-99141000D01*
X173402714Y-99112429D02*
X173288428Y-99112429D01*
X173231286Y-99141000D01*
X173174143Y-99198143D01*
X173145571Y-99312429D01*
X173145571Y-99512429D01*
X173174143Y-99626714D01*
X173231286Y-99683857D01*
X173288428Y-99712429D01*
X173402714Y-99712429D01*
X173459857Y-99683857D01*
X173517000Y-99626714D01*
X173545571Y-99512429D01*
X173545571Y-99312429D01*
X173517000Y-99198143D01*
X173459857Y-99141000D01*
X173402714Y-99112429D01*
X174761428Y-97143857D02*
X174675714Y-97172429D01*
X174532857Y-97172429D01*
X174475714Y-97143857D01*
X174447143Y-97115286D01*
X174418571Y-97058143D01*
X174418571Y-97001000D01*
X174447143Y-96943857D01*
X174475714Y-96915286D01*
X174532857Y-96886714D01*
X174647143Y-96858143D01*
X174704285Y-96829571D01*
X174732857Y-96801000D01*
X174761428Y-96743857D01*
X174761428Y-96686714D01*
X174732857Y-96629571D01*
X174704285Y-96601000D01*
X174647143Y-96572429D01*
X174504285Y-96572429D01*
X174418571Y-96601000D01*
X173818571Y-97115286D02*
X173847142Y-97143857D01*
X173932856Y-97172429D01*
X173989999Y-97172429D01*
X174075714Y-97143857D01*
X174132856Y-97086714D01*
X174161428Y-97029571D01*
X174189999Y-96915286D01*
X174189999Y-96829571D01*
X174161428Y-96715286D01*
X174132856Y-96658143D01*
X174075714Y-96601000D01*
X173989999Y-96572429D01*
X173932856Y-96572429D01*
X173847142Y-96601000D01*
X173818571Y-96629571D01*
X173561428Y-97172429D02*
X173561428Y-96572429D01*
X173218571Y-97172429D02*
X173475714Y-96829571D01*
X173218571Y-96572429D02*
X173561428Y-96915286D01*
X175369429Y-94632429D02*
X175569429Y-94346714D01*
X175712286Y-94632429D02*
X175712286Y-94032429D01*
X175483714Y-94032429D01*
X175426572Y-94061000D01*
X175398000Y-94089571D01*
X175369429Y-94146714D01*
X175369429Y-94232429D01*
X175398000Y-94289571D01*
X175426572Y-94318143D01*
X175483714Y-94346714D01*
X175712286Y-94346714D01*
X175112286Y-94318143D02*
X174912286Y-94318143D01*
X174826572Y-94632429D02*
X175112286Y-94632429D01*
X175112286Y-94032429D01*
X174826572Y-94032429D01*
X174598000Y-94603857D02*
X174512286Y-94632429D01*
X174369429Y-94632429D01*
X174312286Y-94603857D01*
X174283715Y-94575286D01*
X174255143Y-94518143D01*
X174255143Y-94461000D01*
X174283715Y-94403857D01*
X174312286Y-94375286D01*
X174369429Y-94346714D01*
X174483715Y-94318143D01*
X174540857Y-94289571D01*
X174569429Y-94261000D01*
X174598000Y-94203857D01*
X174598000Y-94146714D01*
X174569429Y-94089571D01*
X174540857Y-94061000D01*
X174483715Y-94032429D01*
X174340857Y-94032429D01*
X174255143Y-94061000D01*
X173998000Y-94318143D02*
X173798000Y-94318143D01*
X173712286Y-94632429D02*
X173998000Y-94632429D01*
X173998000Y-94032429D01*
X173712286Y-94032429D01*
X173540857Y-94032429D02*
X173198000Y-94032429D01*
X173369429Y-94632429D02*
X173369429Y-94032429D01*
X175059857Y-89679429D02*
X175059857Y-89079429D01*
X174859857Y-89508000D01*
X174659857Y-89079429D01*
X174659857Y-89679429D01*
X174259857Y-89079429D02*
X174145571Y-89079429D01*
X174088429Y-89108000D01*
X174031286Y-89165143D01*
X174002714Y-89279429D01*
X174002714Y-89479429D01*
X174031286Y-89593714D01*
X174088429Y-89650857D01*
X174145571Y-89679429D01*
X174259857Y-89679429D01*
X174317000Y-89650857D01*
X174374143Y-89593714D01*
X174402714Y-89479429D01*
X174402714Y-89279429D01*
X174374143Y-89165143D01*
X174317000Y-89108000D01*
X174259857Y-89079429D01*
X173774143Y-89650857D02*
X173688429Y-89679429D01*
X173545572Y-89679429D01*
X173488429Y-89650857D01*
X173459858Y-89622286D01*
X173431286Y-89565143D01*
X173431286Y-89508000D01*
X173459858Y-89450857D01*
X173488429Y-89422286D01*
X173545572Y-89393714D01*
X173659858Y-89365143D01*
X173717000Y-89336571D01*
X173745572Y-89308000D01*
X173774143Y-89250857D01*
X173774143Y-89193714D01*
X173745572Y-89136571D01*
X173717000Y-89108000D01*
X173659858Y-89079429D01*
X173517000Y-89079429D01*
X173431286Y-89108000D01*
X173174143Y-89679429D02*
X173174143Y-89079429D01*
D11*
X189610000Y-107282000D02*
X173610000Y-107282000D01*
X173610000Y-107282000D02*
X173610000Y-88282000D01*
X173610000Y-88282000D02*
X189610000Y-88282000D01*
X189610000Y-88282000D02*
X189610000Y-107282000D01*
D12*
X186698000Y-109030400D02*
X187698000Y-109030400D01*
X187698000Y-110730400D02*
X186698000Y-110730400D01*
X180395500Y-120738000D02*
X179395500Y-120738000D01*
X179395500Y-119038000D02*
X180395500Y-119038000D01*
X179395500Y-113767500D02*
X180395500Y-113767500D01*
X180395500Y-115467500D02*
X179395500Y-115467500D01*
X179068500Y-116061000D02*
X180968500Y-116061000D01*
X180468500Y-118381000D02*
X179068500Y-118381000D01*
D11*
X182562500Y-114490500D02*
X185610500Y-114490500D01*
X185610500Y-118173500D02*
X185610500Y-120078500D01*
X185610500Y-120078500D02*
X182562500Y-120078500D01*
X182562500Y-120078500D02*
X182562500Y-118173500D01*
X182562500Y-116522500D02*
X182562500Y-114490500D01*
X182562500Y-114690500D02*
X185610500Y-114690500D01*
X185610500Y-114490500D02*
X185610500Y-116522500D01*
D12*
X185356500Y-113475500D02*
X182816500Y-113475500D01*
X182816500Y-111695500D02*
X185356500Y-111695500D01*
X182816500Y-111695500D02*
X182816500Y-113475500D01*
X185356500Y-113475500D02*
X185356500Y-111695500D01*
D11*
X182586190Y-100734381D02*
X182586190Y-99734381D01*
X181538571Y-100639143D02*
X181586190Y-100686762D01*
X181729047Y-100734381D01*
X181824285Y-100734381D01*
X181967143Y-100686762D01*
X182062381Y-100591524D01*
X182110000Y-100496286D01*
X182157619Y-100305810D01*
X182157619Y-100162952D01*
X182110000Y-99972476D01*
X182062381Y-99877238D01*
X181967143Y-99782000D01*
X181824285Y-99734381D01*
X181729047Y-99734381D01*
X181586190Y-99782000D01*
X181538571Y-99829619D01*
X181157619Y-99829619D02*
X181110000Y-99782000D01*
X181014762Y-99734381D01*
X180776666Y-99734381D01*
X180681428Y-99782000D01*
X180633809Y-99829619D01*
X180586190Y-99924857D01*
X180586190Y-100020095D01*
X180633809Y-100162952D01*
X181205238Y-100734381D01*
X180586190Y-100734381D01*
X188507666Y-111507543D02*
X188555285Y-111555162D01*
X188698142Y-111602781D01*
X188793380Y-111602781D01*
X188936238Y-111555162D01*
X189031476Y-111459924D01*
X189079095Y-111364686D01*
X189126714Y-111174210D01*
X189126714Y-111031352D01*
X189079095Y-110840876D01*
X189031476Y-110745638D01*
X188936238Y-110650400D01*
X188793380Y-110602781D01*
X188698142Y-110602781D01*
X188555285Y-110650400D01*
X188507666Y-110698019D01*
X188174333Y-110602781D02*
X187555285Y-110602781D01*
X187888619Y-110983733D01*
X187745761Y-110983733D01*
X187650523Y-111031352D01*
X187602904Y-111078971D01*
X187555285Y-111174210D01*
X187555285Y-111412305D01*
X187602904Y-111507543D01*
X187650523Y-111555162D01*
X187745761Y-111602781D01*
X188031476Y-111602781D01*
X188126714Y-111555162D01*
X188174333Y-111507543D01*
X176823666Y-120308643D02*
X176871285Y-120356262D01*
X177014142Y-120403881D01*
X177109380Y-120403881D01*
X177252238Y-120356262D01*
X177347476Y-120261024D01*
X177395095Y-120165786D01*
X177442714Y-119975310D01*
X177442714Y-119832452D01*
X177395095Y-119641976D01*
X177347476Y-119546738D01*
X177252238Y-119451500D01*
X177109380Y-119403881D01*
X177014142Y-119403881D01*
X176871285Y-119451500D01*
X176823666Y-119499119D01*
X175966523Y-119403881D02*
X176157000Y-119403881D01*
X176252238Y-119451500D01*
X176299857Y-119499119D01*
X176395095Y-119641976D01*
X176442714Y-119832452D01*
X176442714Y-120213405D01*
X176395095Y-120308643D01*
X176347476Y-120356262D01*
X176252238Y-120403881D01*
X176061761Y-120403881D01*
X175966523Y-120356262D01*
X175918904Y-120308643D01*
X175871285Y-120213405D01*
X175871285Y-119975310D01*
X175918904Y-119880071D01*
X175966523Y-119832452D01*
X176061761Y-119784833D01*
X176252238Y-119784833D01*
X176347476Y-119832452D01*
X176395095Y-119880071D01*
X176442714Y-119975310D01*
X176747466Y-115038143D02*
X176795085Y-115085762D01*
X176937942Y-115133381D01*
X177033180Y-115133381D01*
X177176038Y-115085762D01*
X177271276Y-114990524D01*
X177318895Y-114895286D01*
X177366514Y-114704810D01*
X177366514Y-114561952D01*
X177318895Y-114371476D01*
X177271276Y-114276238D01*
X177176038Y-114181000D01*
X177033180Y-114133381D01*
X176937942Y-114133381D01*
X176795085Y-114181000D01*
X176747466Y-114228619D01*
X176414133Y-114133381D02*
X175747466Y-114133381D01*
X176176038Y-115133381D01*
X177061690Y-117800381D02*
X177061690Y-116800381D01*
X176014071Y-117705143D02*
X176061690Y-117752762D01*
X176204547Y-117800381D01*
X176299785Y-117800381D01*
X176442643Y-117752762D01*
X176537881Y-117657524D01*
X176585500Y-117562286D01*
X176633119Y-117371810D01*
X176633119Y-117228952D01*
X176585500Y-117038476D01*
X176537881Y-116943238D01*
X176442643Y-116848000D01*
X176299785Y-116800381D01*
X176204547Y-116800381D01*
X176061690Y-116848000D01*
X176014071Y-116895619D01*
X175680738Y-116800381D02*
X175061690Y-116800381D01*
X175395024Y-117181333D01*
X175252166Y-117181333D01*
X175156928Y-117228952D01*
X175109309Y-117276571D01*
X175061690Y-117371810D01*
X175061690Y-117609905D01*
X175109309Y-117705143D01*
X175156928Y-117752762D01*
X175252166Y-117800381D01*
X175537881Y-117800381D01*
X175633119Y-117752762D01*
X175680738Y-117705143D01*
X184253166Y-121419881D02*
X184729357Y-121419881D01*
X184729357Y-120419881D01*
X183396023Y-121419881D02*
X183967452Y-121419881D01*
X183681738Y-121419881D02*
X183681738Y-120419881D01*
X183776976Y-120562738D01*
X183872214Y-120657976D01*
X183967452Y-120705595D01*
X182252833Y-111910881D02*
X182252833Y-112625167D01*
X182300453Y-112768024D01*
X182395691Y-112863262D01*
X182538548Y-112910881D01*
X182633786Y-112910881D01*
X181776643Y-112910881D02*
X181776643Y-111910881D01*
X181395690Y-111910881D01*
X181300452Y-111958500D01*
X181252833Y-112006119D01*
X181205214Y-112101357D01*
X181205214Y-112244214D01*
X181252833Y-112339452D01*
X181300452Y-112387071D01*
X181395690Y-112434690D01*
X181776643Y-112434690D01*
X180252833Y-112910881D02*
X180824262Y-112910881D01*
X180538548Y-112910881D02*
X180538548Y-111910881D01*
X180633786Y-112053738D01*
X180729024Y-112148976D01*
X180824262Y-112196595D01*
M02*
