G04 #@! TF.FileFunction,Soldermask,Bot*
%FSLAX46Y46*%
G04 Gerber Fmt 4.6, Leading zero omitted, Abs format (unit mm)*
G04 Created by KiCad (PCBNEW 4.0.2-stable) date 01.06.2017 12:53:20*
%MOMM*%
G01*
G04 APERTURE LIST*
%ADD10C,0.100000*%
%ADD11R,1.600000X2.924000*%
%ADD12C,2.100000*%
%ADD13O,2.100000X2.100000*%
%ADD14R,3.400000X2.100000*%
%ADD15R,1.900000X1.650000*%
%ADD16C,2.600000*%
%ADD17R,1.750000X1.750000*%
%ADD18R,1.900000X0.800000*%
%ADD19R,3.194000X2.178000*%
%ADD20R,1.370000X1.670000*%
G04 APERTURE END LIST*
D10*
D11*
X188610000Y-107282000D03*
X186610000Y-107282000D03*
X184610000Y-107282000D03*
X182610000Y-107282000D03*
X180610000Y-107282000D03*
X178610000Y-107282000D03*
X176610000Y-107282000D03*
X174610000Y-107282000D03*
X180610000Y-88282000D03*
X182610000Y-88282000D03*
X178610000Y-88282000D03*
D12*
X170878500Y-111061500D03*
D13*
X170878500Y-113601500D03*
X170878500Y-116141500D03*
X170878500Y-118681500D03*
D14*
X171410500Y-99441000D03*
X171410500Y-94361000D03*
X171410500Y-89281000D03*
X171386500Y-96901000D03*
X171386500Y-91821000D03*
D12*
X188658500Y-113601500D03*
D13*
X188658500Y-116141500D03*
X188658500Y-118681500D03*
X188658500Y-121221500D03*
D12*
X188722000Y-123761500D03*
D13*
X186182000Y-123761500D03*
X183642000Y-123761500D03*
X181102000Y-123761500D03*
X178562000Y-123761500D03*
X176022000Y-123761500D03*
D15*
X188448000Y-109880400D03*
X185948000Y-109880400D03*
D16*
X188087000Y-86741000D03*
X171958000Y-123190000D03*
D17*
X171831000Y-86423500D03*
D15*
X178645500Y-119888000D03*
X181145500Y-119888000D03*
X181145500Y-114617500D03*
X178645500Y-114617500D03*
D18*
X181098500Y-116571000D03*
X181098500Y-117221000D03*
X181098500Y-117871000D03*
X178438500Y-117871000D03*
X178438500Y-117221000D03*
X178438500Y-116571000D03*
D19*
X184086500Y-115506500D03*
X184086500Y-119062500D03*
D20*
X184726500Y-112585500D03*
X183446500Y-112585500D03*
M02*
