G04 #@! TF.FileFunction,Copper,L1,Top,Signal*
%FSLAX46Y46*%
G04 Gerber Fmt 4.6, Leading zero omitted, Abs format (unit mm)*
G04 Created by KiCad (PCBNEW 4.0.2-stable) date 01.06.2017 12:53:20*
%MOMM*%
G01*
G04 APERTURE LIST*
%ADD10C,0.100000*%
%ADD11C,1.700000*%
%ADD12O,1.700000X1.700000*%
%ADD13R,3.000000X1.700000*%
%ADD14R,2.180000X1.600000*%
%ADD15R,1.500000X1.250000*%
%ADD16R,1.500000X1.500000*%
%ADD17R,1.300000X1.500000*%
%ADD18R,1.500000X1.300000*%
%ADD19R,1.750000X1.800000*%
%ADD20R,1.350000X1.350000*%
%ADD21C,0.600000*%
%ADD22C,0.250000*%
%ADD23C,0.254000*%
G04 APERTURE END LIST*
D10*
D11*
X170878500Y-111061500D03*
D12*
X170878500Y-113601500D03*
X170878500Y-116141500D03*
X170878500Y-118681500D03*
D13*
X171410500Y-89281000D03*
X171410500Y-94361000D03*
X171410500Y-99441000D03*
X171386500Y-91821000D03*
X171386500Y-96901000D03*
D10*
G36*
X186648834Y-102926055D02*
X187037743Y-103314964D01*
X185906372Y-104446335D01*
X185517463Y-104057426D01*
X186648834Y-102926055D01*
X186648834Y-102926055D01*
G37*
G36*
X186083148Y-102360370D02*
X186472057Y-102749279D01*
X185340686Y-103880650D01*
X184951777Y-103491741D01*
X186083148Y-102360370D01*
X186083148Y-102360370D01*
G37*
G36*
X185517463Y-101794684D02*
X185906372Y-102183593D01*
X184775001Y-103314964D01*
X184386092Y-102926055D01*
X185517463Y-101794684D01*
X185517463Y-101794684D01*
G37*
G36*
X184951778Y-101228999D02*
X185340687Y-101617908D01*
X184209316Y-102749279D01*
X183820407Y-102360370D01*
X184951778Y-101228999D01*
X184951778Y-101228999D01*
G37*
G36*
X184386092Y-100663313D02*
X184775001Y-101052222D01*
X183643630Y-102183593D01*
X183254721Y-101794684D01*
X184386092Y-100663313D01*
X184386092Y-100663313D01*
G37*
G36*
X183820407Y-100097628D02*
X184209316Y-100486537D01*
X183077945Y-101617908D01*
X182689036Y-101228999D01*
X183820407Y-100097628D01*
X183820407Y-100097628D01*
G37*
G36*
X183254721Y-99531943D02*
X183643630Y-99920852D01*
X182512259Y-101052223D01*
X182123350Y-100663314D01*
X183254721Y-99531943D01*
X183254721Y-99531943D01*
G37*
G36*
X182689036Y-98966257D02*
X183077945Y-99355166D01*
X181946574Y-100486537D01*
X181557665Y-100097628D01*
X182689036Y-98966257D01*
X182689036Y-98966257D01*
G37*
G36*
X179507055Y-99355166D02*
X179895964Y-98966257D01*
X181027335Y-100097628D01*
X180638426Y-100486537D01*
X179507055Y-99355166D01*
X179507055Y-99355166D01*
G37*
G36*
X178941370Y-99920852D02*
X179330279Y-99531943D01*
X180461650Y-100663314D01*
X180072741Y-101052223D01*
X178941370Y-99920852D01*
X178941370Y-99920852D01*
G37*
G36*
X178375684Y-100486537D02*
X178764593Y-100097628D01*
X179895964Y-101228999D01*
X179507055Y-101617908D01*
X178375684Y-100486537D01*
X178375684Y-100486537D01*
G37*
G36*
X177809999Y-101052222D02*
X178198908Y-100663313D01*
X179330279Y-101794684D01*
X178941370Y-102183593D01*
X177809999Y-101052222D01*
X177809999Y-101052222D01*
G37*
G36*
X177244313Y-101617908D02*
X177633222Y-101228999D01*
X178764593Y-102360370D01*
X178375684Y-102749279D01*
X177244313Y-101617908D01*
X177244313Y-101617908D01*
G37*
G36*
X176678628Y-102183593D02*
X177067537Y-101794684D01*
X178198908Y-102926055D01*
X177809999Y-103314964D01*
X176678628Y-102183593D01*
X176678628Y-102183593D01*
G37*
G36*
X176112943Y-102749279D02*
X176501852Y-102360370D01*
X177633223Y-103491741D01*
X177244314Y-103880650D01*
X176112943Y-102749279D01*
X176112943Y-102749279D01*
G37*
G36*
X175547257Y-103314964D02*
X175936166Y-102926055D01*
X177067537Y-104057426D01*
X176678628Y-104446335D01*
X175547257Y-103314964D01*
X175547257Y-103314964D01*
G37*
G36*
X176678628Y-104976665D02*
X177067537Y-105365574D01*
X175936166Y-106496945D01*
X175547257Y-106108036D01*
X176678628Y-104976665D01*
X176678628Y-104976665D01*
G37*
G36*
X177244314Y-105542350D02*
X177633223Y-105931259D01*
X176501852Y-107062630D01*
X176112943Y-106673721D01*
X177244314Y-105542350D01*
X177244314Y-105542350D01*
G37*
G36*
X177809999Y-106108036D02*
X178198908Y-106496945D01*
X177067537Y-107628316D01*
X176678628Y-107239407D01*
X177809999Y-106108036D01*
X177809999Y-106108036D01*
G37*
G36*
X178375684Y-106673721D02*
X178764593Y-107062630D01*
X177633222Y-108194001D01*
X177244313Y-107805092D01*
X178375684Y-106673721D01*
X178375684Y-106673721D01*
G37*
G36*
X178941370Y-107239407D02*
X179330279Y-107628316D01*
X178198908Y-108759687D01*
X177809999Y-108370778D01*
X178941370Y-107239407D01*
X178941370Y-107239407D01*
G37*
G36*
X179507055Y-107805092D02*
X179895964Y-108194001D01*
X178764593Y-109325372D01*
X178375684Y-108936463D01*
X179507055Y-107805092D01*
X179507055Y-107805092D01*
G37*
G36*
X180072741Y-108370777D02*
X180461650Y-108759686D01*
X179330279Y-109891057D01*
X178941370Y-109502148D01*
X180072741Y-108370777D01*
X180072741Y-108370777D01*
G37*
G36*
X180638426Y-108936463D02*
X181027335Y-109325372D01*
X179895964Y-110456743D01*
X179507055Y-110067834D01*
X180638426Y-108936463D01*
X180638426Y-108936463D01*
G37*
G36*
X181557665Y-109325372D02*
X181946574Y-108936463D01*
X183077945Y-110067834D01*
X182689036Y-110456743D01*
X181557665Y-109325372D01*
X181557665Y-109325372D01*
G37*
G36*
X182123350Y-108759686D02*
X182512259Y-108370777D01*
X183643630Y-109502148D01*
X183254721Y-109891057D01*
X182123350Y-108759686D01*
X182123350Y-108759686D01*
G37*
G36*
X182689036Y-108194001D02*
X183077945Y-107805092D01*
X184209316Y-108936463D01*
X183820407Y-109325372D01*
X182689036Y-108194001D01*
X182689036Y-108194001D01*
G37*
G36*
X183254721Y-107628316D02*
X183643630Y-107239407D01*
X184775001Y-108370778D01*
X184386092Y-108759687D01*
X183254721Y-107628316D01*
X183254721Y-107628316D01*
G37*
G36*
X183820407Y-107062630D02*
X184209316Y-106673721D01*
X185340687Y-107805092D01*
X184951778Y-108194001D01*
X183820407Y-107062630D01*
X183820407Y-107062630D01*
G37*
G36*
X184386092Y-106496945D02*
X184775001Y-106108036D01*
X185906372Y-107239407D01*
X185517463Y-107628316D01*
X184386092Y-106496945D01*
X184386092Y-106496945D01*
G37*
G36*
X184951777Y-105931259D02*
X185340686Y-105542350D01*
X186472057Y-106673721D01*
X186083148Y-107062630D01*
X184951777Y-105931259D01*
X184951777Y-105931259D01*
G37*
G36*
X185517463Y-105365574D02*
X185906372Y-104976665D01*
X187037743Y-106108036D01*
X186648834Y-106496945D01*
X185517463Y-105365574D01*
X185517463Y-105365574D01*
G37*
D11*
X188658500Y-113601500D03*
D12*
X188658500Y-116141500D03*
X188658500Y-118681500D03*
X188658500Y-121221500D03*
D11*
X188722000Y-123761500D03*
D12*
X186182000Y-123761500D03*
X183642000Y-123761500D03*
X181102000Y-123761500D03*
X178562000Y-123761500D03*
X176022000Y-123761500D03*
D14*
X184358500Y-120015000D03*
X175178500Y-120015000D03*
X175242000Y-87249000D03*
X184422000Y-87249000D03*
D15*
X185503500Y-99060000D03*
X188003500Y-99060000D03*
D16*
X185357500Y-91630500D03*
X188657500Y-91630500D03*
X185357500Y-89535000D03*
X188657500Y-89535000D03*
D17*
X182753000Y-113483400D03*
X182753000Y-116183400D03*
D18*
X184527200Y-93675200D03*
X187227200Y-93675200D03*
X181309000Y-90170000D03*
X178609000Y-90170000D03*
D15*
X185516200Y-96850200D03*
X188016200Y-96850200D03*
X179394800Y-94361000D03*
X181894800Y-94361000D03*
D19*
X182879400Y-96723200D03*
X179629400Y-96723200D03*
D20*
X171831000Y-86423500D03*
D17*
X179578000Y-113521500D03*
X179578000Y-116221500D03*
D15*
X173946500Y-109791500D03*
X176446500Y-109791500D03*
D17*
X176606200Y-116230400D03*
X176606200Y-113530400D03*
D21*
X185503500Y-99060000D03*
X170713400Y-87807800D03*
X179311211Y-118643793D03*
X184681349Y-111336643D03*
X182651400Y-117602000D03*
X172948600Y-108026200D03*
X175031400Y-111556800D03*
X184463620Y-103700969D03*
X182610000Y-88282000D03*
X187202444Y-93650444D03*
X186740800Y-102133400D03*
X177952400Y-95224600D03*
X177266600Y-90170000D03*
X177495200Y-95910400D03*
X175242000Y-87249000D03*
X178173279Y-103360831D03*
X185262592Y-105047466D03*
X175477635Y-101692255D03*
X177964335Y-104182336D03*
X174911941Y-102257948D03*
X177225415Y-104509118D03*
X173609000Y-102235000D03*
X177935643Y-104981834D03*
X174794569Y-95783400D03*
X180843167Y-104079582D03*
X173542780Y-95782303D03*
X181761665Y-104093553D03*
X174752000Y-94970600D03*
X174736032Y-94102935D03*
X182606384Y-104137402D03*
X186613800Y-121742200D03*
X177933614Y-111684448D03*
X187477400Y-121767600D03*
X178521116Y-110944877D03*
X184912000Y-121772168D03*
X178737651Y-111715027D03*
X184378600Y-105029000D03*
X178079916Y-121047472D03*
X180888280Y-111444384D03*
X177395488Y-120134999D03*
X180304297Y-112259829D03*
X180568582Y-101093042D03*
X181111980Y-114637258D03*
X178206400Y-116052600D03*
X183733480Y-117602000D03*
X178511200Y-118643400D03*
X179807225Y-101635380D03*
X177012600Y-101093042D03*
D22*
X173634400Y-89754900D02*
X173634400Y-89839800D01*
X185503500Y-99060000D02*
X185628500Y-99060000D01*
X170878500Y-113601500D02*
X172080581Y-113601500D01*
X172080581Y-113601500D02*
X173946500Y-111735581D01*
X173946500Y-111735581D02*
X173946500Y-109791500D01*
X182753000Y-113483400D02*
X182753000Y-113264992D01*
X182753000Y-113264992D02*
X184681349Y-111336643D01*
X181737000Y-117602000D02*
X180416200Y-117602000D01*
X182651400Y-117602000D02*
X181737000Y-117602000D01*
X182753000Y-113483400D02*
X181853000Y-113483400D01*
X181853000Y-113483400D02*
X181737000Y-113599400D01*
X181737000Y-113599400D02*
X181737000Y-117602000D01*
X170713400Y-87807800D02*
X170713400Y-88583900D01*
X170713400Y-88583900D02*
X171410500Y-89281000D01*
X179611210Y-118343794D02*
X179311211Y-118643793D01*
X180353004Y-117602000D02*
X179611210Y-118343794D01*
X180416200Y-117602000D02*
X180353004Y-117602000D01*
X178798280Y-103772554D02*
X181076671Y-101494163D01*
X178798280Y-105003109D02*
X178798280Y-103772554D01*
X178130200Y-105671189D02*
X178798280Y-105003109D01*
X181076671Y-101494163D02*
X182812781Y-101494163D01*
X178790600Y-106273600D02*
X178790600Y-106647714D01*
X178790600Y-106647714D02*
X178004453Y-107433861D01*
X178188189Y-105671189D02*
X178790600Y-106273600D01*
X178130200Y-105671189D02*
X178188189Y-105671189D01*
X176873083Y-106302490D02*
X177509478Y-105666095D01*
X178125106Y-105666095D02*
X178130200Y-105671189D01*
X177509478Y-105666095D02*
X178125106Y-105666095D01*
X171410500Y-89281000D02*
X172060500Y-89281000D01*
X176873083Y-106302490D02*
X177392547Y-105783026D01*
X182929711Y-101611093D02*
X182812781Y-101494163D01*
X182929711Y-101929309D02*
X182929711Y-101611093D01*
X183509005Y-102508603D02*
X182929711Y-101929309D01*
X184580547Y-101989139D02*
X184061083Y-102508603D01*
X184061083Y-102508603D02*
X183509005Y-102508603D01*
X173946500Y-109791500D02*
X174071500Y-109791500D01*
X174071500Y-109791500D02*
X174946500Y-108916500D01*
X174946500Y-108916500D02*
X174946500Y-108229073D01*
X174946500Y-108229073D02*
X176236688Y-106938885D01*
X176236688Y-106938885D02*
X176873083Y-106302490D01*
X182812781Y-101494163D02*
X183449176Y-100857768D01*
X183449176Y-100857768D02*
X185246944Y-99060000D01*
X185246944Y-99060000D02*
X185503500Y-99060000D01*
X171551600Y-108026200D02*
X170878500Y-108699300D01*
X170878500Y-108699300D02*
X170878500Y-111061500D01*
X172948600Y-108026200D02*
X171551600Y-108026200D01*
X175031400Y-111556800D02*
X175031400Y-111206600D01*
X175031400Y-111206600D02*
X176446500Y-109791500D01*
X187273890Y-111210447D02*
X187273890Y-110786183D01*
X189534800Y-108525273D02*
X187573889Y-110486184D01*
X187273890Y-114756890D02*
X187273890Y-111210447D01*
X188657500Y-91630500D02*
X189534800Y-92507800D01*
X189534800Y-92507800D02*
X189534800Y-108525273D01*
X187573889Y-110486184D02*
X187273890Y-110786183D01*
X188658500Y-116141500D02*
X187273890Y-114756890D01*
X180721000Y-103200200D02*
X180467000Y-103200200D01*
X179730400Y-106832400D02*
X179603400Y-106959400D01*
X179730400Y-103936800D02*
X179730400Y-106832400D01*
X180467000Y-103200200D02*
X179730400Y-103936800D01*
X175156334Y-120015000D02*
X175178500Y-120015000D01*
X184150000Y-103200200D02*
X184150000Y-103191219D01*
X180721000Y-103200200D02*
X184150000Y-103200200D01*
X184463620Y-103276705D02*
X184463620Y-103700969D01*
X184463620Y-103237436D02*
X184463620Y-103276705D01*
X185146232Y-102554824D02*
X184463620Y-103237436D01*
X171348400Y-99503100D02*
X171410500Y-99441000D01*
X184422000Y-87249000D02*
X183082000Y-87249000D01*
X183082000Y-87249000D02*
X182610000Y-87721000D01*
X182610000Y-87721000D02*
X182610000Y-88282000D01*
X172643800Y-96901000D02*
X171386500Y-96901000D01*
X175178500Y-120015000D02*
X174888500Y-120015000D01*
X179603400Y-106959400D02*
X179603400Y-106966286D01*
X179603400Y-106966286D02*
X178570139Y-107999547D01*
X184509837Y-103191219D02*
X184150000Y-103191219D01*
X185146232Y-102554824D02*
X184509837Y-103191219D01*
X176446500Y-109791500D02*
X176571500Y-109791500D01*
X176571500Y-109791500D02*
X178363453Y-107999547D01*
X178363453Y-107999547D02*
X178570139Y-107999547D01*
X188657500Y-91630500D02*
X187657500Y-91630500D01*
X184014861Y-101423453D02*
X184651256Y-100787058D01*
X184651256Y-100787058D02*
X186151442Y-100787058D01*
X186151442Y-100787058D02*
X187878500Y-99060000D01*
X187878500Y-99060000D02*
X188003500Y-99060000D01*
X185146232Y-102554824D02*
X188003500Y-99697556D01*
X188003500Y-99697556D02*
X188003500Y-99060000D01*
X186740800Y-102133400D02*
X186699027Y-102133400D01*
X186699027Y-102133400D02*
X185711917Y-103120510D01*
X180267195Y-99726397D02*
X178533998Y-97993200D01*
X177952400Y-95224600D02*
X178252399Y-95524599D01*
X178252399Y-95524599D02*
X178252399Y-97711601D01*
X178252399Y-97711601D02*
X178533998Y-97993200D01*
X178609000Y-90170000D02*
X177266600Y-90170000D01*
X177495200Y-95910400D02*
X177495200Y-97663000D01*
X177495200Y-97663000D02*
X178765200Y-98933000D01*
X178765200Y-99314000D02*
X177933744Y-100145456D01*
X177933744Y-100145456D02*
X177933744Y-100787058D01*
X177933744Y-100787058D02*
X178570139Y-101423453D01*
X178765200Y-98933000D02*
X178765200Y-99314000D01*
X177438768Y-102554824D02*
X178173279Y-103289335D01*
X178173279Y-103289335D02*
X178173279Y-103360831D01*
X186277603Y-105736805D02*
X185588264Y-105047466D01*
X185588264Y-105047466D02*
X185262592Y-105047466D01*
X184527200Y-93675200D02*
X184527200Y-92460800D01*
X184527200Y-92460800D02*
X185357500Y-91630500D01*
X185357500Y-89535000D02*
X181944000Y-89535000D01*
X181944000Y-89535000D02*
X181309000Y-90170000D01*
X175477635Y-101725062D02*
X175477635Y-101692255D01*
X176873083Y-103120510D02*
X175477635Y-101725062D01*
X176873083Y-103120510D02*
X177934909Y-104182336D01*
X177934909Y-104182336D02*
X177964335Y-104182336D01*
X174911941Y-102290739D02*
X174911941Y-102257948D01*
X176307397Y-103686195D02*
X174911941Y-102290739D01*
X176307397Y-103686195D02*
X177130320Y-104509118D01*
X177130320Y-104509118D02*
X177225415Y-104509118D01*
X174264599Y-102534999D02*
X176307397Y-104577797D01*
X176307397Y-104577797D02*
X176307397Y-105736805D01*
X173609000Y-102235000D02*
X173908999Y-102534999D01*
X173908999Y-102534999D02*
X174264599Y-102534999D01*
X177783358Y-105134119D02*
X177935643Y-104981834D01*
X176307397Y-105736805D02*
X176307397Y-105247896D01*
X176421174Y-105134119D02*
X177783358Y-105134119D01*
X176307397Y-105247896D02*
X176421174Y-105134119D01*
X182753000Y-116183400D02*
X183653000Y-116183400D01*
X183653000Y-116183400D02*
X184358500Y-116888900D01*
X184358500Y-116888900D02*
X184358500Y-118965000D01*
X184358500Y-118965000D02*
X184358500Y-120015000D01*
X185633001Y-111379000D02*
X185633001Y-108486315D01*
X183896000Y-115940400D02*
X183896000Y-112791152D01*
X183896000Y-112791152D02*
X184725508Y-111961644D01*
X184725508Y-111961644D02*
X184981350Y-111961644D01*
X184981350Y-111961644D02*
X185563994Y-111379000D01*
X185563994Y-111379000D02*
X185633001Y-111379000D01*
X183653000Y-116183400D02*
X183896000Y-115940400D01*
X173542780Y-95782303D02*
X174793472Y-95782303D01*
X174793472Y-95782303D02*
X174794569Y-95783400D01*
X181163781Y-104379581D02*
X183581666Y-106797466D01*
X183581666Y-106797466D02*
X183944152Y-106797466D01*
X183944152Y-106797466D02*
X184580547Y-107433861D01*
X180843167Y-104079582D02*
X181143166Y-104379581D01*
X181143166Y-104379581D02*
X181163781Y-104379581D01*
X185633001Y-108486315D02*
X185216942Y-108070256D01*
X185216942Y-108070256D02*
X184580547Y-107433861D01*
X184658000Y-119715500D02*
X184358500Y-120015000D01*
X183652391Y-106231781D02*
X181761665Y-104341055D01*
X185146232Y-106868176D02*
X184509837Y-106231781D01*
X184509837Y-106231781D02*
X183652391Y-106231781D01*
X181761665Y-104341055D02*
X181761665Y-104093553D01*
X173718136Y-94361000D02*
X174327736Y-94970600D01*
X171410500Y-94361000D02*
X173718136Y-94361000D01*
X174327736Y-94970600D02*
X174752000Y-94970600D01*
X174318435Y-94102935D02*
X174736032Y-94102935D01*
X172036500Y-91821000D02*
X174318435Y-94102935D01*
X171386500Y-91821000D02*
X172036500Y-91821000D01*
X182906383Y-104437401D02*
X182606384Y-104137402D01*
X185711917Y-106302490D02*
X185063428Y-105654001D01*
X185063428Y-105654001D02*
X183711021Y-105654001D01*
X183711021Y-105654001D02*
X182906383Y-104849363D01*
X182906383Y-104849363D02*
X182906383Y-104437401D01*
X186613800Y-121742200D02*
X186613800Y-121317936D01*
X186613800Y-121317936D02*
X187357936Y-120573800D01*
X187357936Y-120573800D02*
X187357936Y-119982064D01*
X187357936Y-119982064D02*
X188658500Y-118681500D01*
X188658500Y-118910100D02*
X188658500Y-118681500D01*
X177633615Y-110907848D02*
X177633615Y-111384449D01*
X178221588Y-110319875D02*
X177633615Y-110907848D01*
X179701510Y-109130917D02*
X178512552Y-110319875D01*
X178512552Y-110319875D02*
X178221588Y-110319875D01*
X177633615Y-111384449D02*
X177933614Y-111684448D01*
X187477400Y-121767600D02*
X188112400Y-121767600D01*
X188112400Y-121767600D02*
X188658500Y-121221500D01*
X178945380Y-110944877D02*
X178521116Y-110944877D01*
X179018921Y-110944877D02*
X178945380Y-110944877D01*
X180267195Y-109696603D02*
X179018921Y-110944877D01*
X187872001Y-122911501D02*
X188722000Y-123761500D01*
X185532433Y-122392601D02*
X187353101Y-122392601D01*
X187353101Y-122392601D02*
X187872001Y-122911501D01*
X184912000Y-121772168D02*
X185532433Y-122392601D01*
X179397313Y-111415028D02*
X179037650Y-111415028D01*
X181115738Y-109696603D02*
X179397313Y-111415028D01*
X179037650Y-111415028D02*
X178737651Y-111715027D01*
X182317805Y-109696603D02*
X181115738Y-109696603D01*
X181590597Y-109696603D02*
X182317805Y-109696603D01*
X182317805Y-109696603D02*
X182317805Y-109705995D01*
X184962591Y-104422465D02*
X185541333Y-104422465D01*
X185541333Y-104422465D02*
X186277603Y-103686195D01*
X184378600Y-105029000D02*
X184637591Y-104770009D01*
X184637591Y-104770009D02*
X184637591Y-104747465D01*
X184637591Y-104747465D02*
X184962591Y-104422465D01*
X178535227Y-119728410D02*
X178535227Y-120619289D01*
X180964398Y-121564400D02*
X181536486Y-122136488D01*
X178535227Y-120619289D02*
X179480338Y-121564400D01*
X179480338Y-121564400D02*
X180964398Y-121564400D01*
X185332001Y-122911501D02*
X186182000Y-123761500D01*
X181852401Y-122136488D02*
X182159313Y-122443401D01*
X181536486Y-122136488D02*
X181852401Y-122136488D01*
X182159313Y-122443401D02*
X184863901Y-122443401D01*
X177581201Y-118774384D02*
X178535227Y-119728410D01*
X177581201Y-117703600D02*
X177581201Y-118774384D01*
X184863901Y-122443401D02*
X185332001Y-122911501D01*
X177644151Y-114668351D02*
X177644151Y-115280389D01*
X176606200Y-113630400D02*
X177644151Y-114668351D01*
X176606200Y-113530400D02*
X176606200Y-113630400D01*
X177581201Y-115343339D02*
X177581201Y-117703600D01*
X177644151Y-115280389D02*
X177581201Y-115343339D01*
X177581201Y-117703600D02*
X177581201Y-118491000D01*
X183402955Y-110202459D02*
X183402955Y-109650382D01*
X180145013Y-111303740D02*
X180667000Y-110781753D01*
X179646937Y-112033278D02*
X180145013Y-111535202D01*
X179578000Y-112521500D02*
X179646937Y-112452563D01*
X179578000Y-113521500D02*
X179578000Y-112521500D01*
X183402955Y-109650382D02*
X182883490Y-109130917D01*
X180667000Y-110781753D02*
X182823661Y-110781753D01*
X179646937Y-112452563D02*
X179646937Y-112033278D01*
X180145013Y-111535202D02*
X180145013Y-111303740D01*
X182823661Y-110781753D02*
X183402955Y-110202459D01*
X179578000Y-113521500D02*
X176615100Y-113521500D01*
X176615100Y-113521500D02*
X176606200Y-113530400D01*
X179578000Y-113421500D02*
X179578000Y-113521500D01*
X179578000Y-113521500D02*
X179578000Y-113621500D01*
X182792001Y-122911501D02*
X181991003Y-122911501D01*
X180785187Y-122021600D02*
X179054044Y-122021600D01*
X181666001Y-122586499D02*
X181350086Y-122586499D01*
X179054044Y-122021600D02*
X178379915Y-121347471D01*
X181350086Y-122586499D02*
X180785187Y-122021600D01*
X183642000Y-123761500D02*
X182792001Y-122911501D01*
X178379915Y-121347471D02*
X178079916Y-121047472D01*
X181991003Y-122911501D02*
X181666001Y-122586499D01*
X180888280Y-111444384D02*
X181037400Y-111295264D01*
X181037400Y-111295264D02*
X181185736Y-111295264D01*
X181185736Y-111295264D02*
X183007000Y-111295264D01*
X182999464Y-111302800D02*
X183007000Y-111295264D01*
X183007000Y-111295264D02*
X183007000Y-111277400D01*
X183007000Y-111277400D02*
X183007000Y-111295264D01*
X183852966Y-110449298D02*
X183007000Y-111295264D01*
X183449176Y-108565232D02*
X184085571Y-109201627D01*
X184085571Y-109201627D02*
X184085571Y-109519842D01*
X184085571Y-109519842D02*
X183852966Y-109752447D01*
X183852966Y-109752447D02*
X183852966Y-110449298D01*
X177395488Y-121288048D02*
X177395488Y-120559263D01*
X178693939Y-122586499D02*
X177395488Y-121288048D01*
X179926999Y-122586499D02*
X178693939Y-122586499D01*
X181102000Y-123761500D02*
X179926999Y-122586499D01*
X177395488Y-120559263D02*
X177395488Y-120134999D01*
X180728561Y-112259829D02*
X180304297Y-112259829D01*
X180738601Y-112249789D02*
X180728561Y-112259829D01*
X182688885Y-112249789D02*
X180738601Y-112249789D01*
X184651256Y-110287418D02*
X182688885Y-112249789D01*
X184651256Y-108635942D02*
X184651256Y-110287418D01*
X184014861Y-107999547D02*
X184651256Y-108635942D01*
X182879400Y-96723200D02*
X182879400Y-97873200D01*
X182879400Y-97873200D02*
X183519885Y-98513685D01*
X183519885Y-98513685D02*
X183519885Y-99655688D01*
X183519885Y-99655688D02*
X182883490Y-100292083D01*
X185516200Y-96850200D02*
X183006400Y-96850200D01*
X183006400Y-96850200D02*
X182879400Y-96723200D01*
X185249500Y-96393000D02*
X185503500Y-96139000D01*
X179394800Y-94361000D02*
X179394800Y-96488600D01*
X179394800Y-96488600D02*
X179629400Y-96723200D01*
X179629400Y-96723200D02*
X179629400Y-97037992D01*
X179629400Y-97037992D02*
X182052641Y-99461233D01*
X182052641Y-99461233D02*
X182317805Y-99726397D01*
X179701510Y-100292083D02*
X180502469Y-101093042D01*
X180502469Y-101093042D02*
X180568582Y-101093042D01*
X179701510Y-100292083D02*
X179065115Y-99655688D01*
X181062242Y-114637258D02*
X181111980Y-114637258D01*
X179578000Y-116121500D02*
X181062242Y-114637258D01*
X179578000Y-116221500D02*
X179578000Y-116121500D01*
X179578000Y-116221500D02*
X178470923Y-116221500D01*
X178470923Y-116221500D02*
X178206400Y-116052600D01*
X183433481Y-117901999D02*
X183733480Y-117602000D01*
X182057080Y-119278400D02*
X183433481Y-117901999D01*
X178993800Y-119278400D02*
X182057080Y-119278400D01*
X178817410Y-119278400D02*
X178993800Y-119278400D01*
X178511200Y-118972190D02*
X178817410Y-119278400D01*
X178511200Y-118643400D02*
X178511200Y-118972190D01*
X178993800Y-119278400D02*
X178721627Y-119278400D01*
X171399200Y-121640600D02*
X170878500Y-121119900D01*
X170878500Y-121119900D02*
X170878500Y-118681500D01*
X176123600Y-121640600D02*
X171399200Y-121640600D01*
X176770487Y-120993713D02*
X176123600Y-121640600D01*
X177131191Y-119474294D02*
X176770487Y-119834998D01*
X176770487Y-119834998D02*
X176770487Y-120993713D01*
X177131191Y-117755391D02*
X177131191Y-119474294D01*
X176606200Y-116230400D02*
X176606200Y-117230400D01*
X176606200Y-117230400D02*
X177131191Y-117755391D01*
X179807225Y-101529169D02*
X179807225Y-101635380D01*
X179135824Y-100857768D02*
X179807225Y-101529169D01*
X177108356Y-101093042D02*
X177012600Y-101093042D01*
X178004453Y-101989139D02*
X177108356Y-101093042D01*
D23*
G36*
X176609728Y-108086125D02*
X176718602Y-108160516D01*
X176786504Y-108262901D01*
X177175413Y-108651810D01*
X177373116Y-108786895D01*
X177624278Y-108841379D01*
X177752214Y-108817306D01*
X177728306Y-108927519D01*
X177775830Y-109180090D01*
X177917875Y-109394272D01*
X178106392Y-109582789D01*
X177930748Y-109617727D01*
X177684187Y-109782474D01*
X177096214Y-110370447D01*
X176931467Y-110617009D01*
X176873615Y-110907848D01*
X176873615Y-111384449D01*
X176931467Y-111675288D01*
X176998534Y-111775661D01*
X176998452Y-111869615D01*
X177107264Y-112132960D01*
X175956200Y-112132960D01*
X175720883Y-112177238D01*
X175504759Y-112316310D01*
X175359769Y-112528510D01*
X175308760Y-112780400D01*
X175308760Y-114280400D01*
X175353038Y-114515717D01*
X175492110Y-114731841D01*
X175704310Y-114876831D01*
X175717397Y-114879481D01*
X175504759Y-115016310D01*
X175359769Y-115228510D01*
X175308760Y-115480400D01*
X175308760Y-116980400D01*
X175353038Y-117215717D01*
X175492110Y-117431841D01*
X175704310Y-117576831D01*
X175956200Y-117627840D01*
X175975280Y-117627840D01*
X176068799Y-117767801D01*
X176371191Y-118070193D01*
X176371191Y-119159492D01*
X176233086Y-119297597D01*
X176068339Y-119544159D01*
X176010487Y-119834998D01*
X176010487Y-120678911D01*
X175808798Y-120880600D01*
X171714002Y-120880600D01*
X171638500Y-120805098D01*
X171638500Y-119944801D01*
X171957647Y-119731554D01*
X172279554Y-119249785D01*
X172392593Y-118681500D01*
X172279554Y-118113215D01*
X171957647Y-117631446D01*
X171628474Y-117411500D01*
X171957647Y-117191554D01*
X172279554Y-116709785D01*
X172392593Y-116141500D01*
X172279554Y-115573215D01*
X171957647Y-115091446D01*
X171628474Y-114871500D01*
X171957647Y-114651554D01*
X172162318Y-114345241D01*
X172371420Y-114303648D01*
X172617982Y-114138901D01*
X174483901Y-112272982D01*
X174648648Y-112026420D01*
X174706500Y-111735581D01*
X174706500Y-111062058D01*
X174931817Y-111019662D01*
X175147941Y-110880590D01*
X175292931Y-110668390D01*
X175343940Y-110416500D01*
X175343940Y-109593862D01*
X175483901Y-109453901D01*
X175648648Y-109207339D01*
X175706500Y-108916500D01*
X175706500Y-108543875D01*
X176386989Y-107863386D01*
X176609728Y-108086125D01*
X176609728Y-108086125D01*
G37*
X176609728Y-108086125D02*
X176718602Y-108160516D01*
X176786504Y-108262901D01*
X177175413Y-108651810D01*
X177373116Y-108786895D01*
X177624278Y-108841379D01*
X177752214Y-108817306D01*
X177728306Y-108927519D01*
X177775830Y-109180090D01*
X177917875Y-109394272D01*
X178106392Y-109582789D01*
X177930748Y-109617727D01*
X177684187Y-109782474D01*
X177096214Y-110370447D01*
X176931467Y-110617009D01*
X176873615Y-110907848D01*
X176873615Y-111384449D01*
X176931467Y-111675288D01*
X176998534Y-111775661D01*
X176998452Y-111869615D01*
X177107264Y-112132960D01*
X175956200Y-112132960D01*
X175720883Y-112177238D01*
X175504759Y-112316310D01*
X175359769Y-112528510D01*
X175308760Y-112780400D01*
X175308760Y-114280400D01*
X175353038Y-114515717D01*
X175492110Y-114731841D01*
X175704310Y-114876831D01*
X175717397Y-114879481D01*
X175504759Y-115016310D01*
X175359769Y-115228510D01*
X175308760Y-115480400D01*
X175308760Y-116980400D01*
X175353038Y-117215717D01*
X175492110Y-117431841D01*
X175704310Y-117576831D01*
X175956200Y-117627840D01*
X175975280Y-117627840D01*
X176068799Y-117767801D01*
X176371191Y-118070193D01*
X176371191Y-119159492D01*
X176233086Y-119297597D01*
X176068339Y-119544159D01*
X176010487Y-119834998D01*
X176010487Y-120678911D01*
X175808798Y-120880600D01*
X171714002Y-120880600D01*
X171638500Y-120805098D01*
X171638500Y-119944801D01*
X171957647Y-119731554D01*
X172279554Y-119249785D01*
X172392593Y-118681500D01*
X172279554Y-118113215D01*
X171957647Y-117631446D01*
X171628474Y-117411500D01*
X171957647Y-117191554D01*
X172279554Y-116709785D01*
X172392593Y-116141500D01*
X172279554Y-115573215D01*
X171957647Y-115091446D01*
X171628474Y-114871500D01*
X171957647Y-114651554D01*
X172162318Y-114345241D01*
X172371420Y-114303648D01*
X172617982Y-114138901D01*
X174483901Y-112272982D01*
X174648648Y-112026420D01*
X174706500Y-111735581D01*
X174706500Y-111062058D01*
X174931817Y-111019662D01*
X175147941Y-110880590D01*
X175292931Y-110668390D01*
X175343940Y-110416500D01*
X175343940Y-109593862D01*
X175483901Y-109453901D01*
X175648648Y-109207339D01*
X175706500Y-108916500D01*
X175706500Y-108543875D01*
X176386989Y-107863386D01*
X176609728Y-108086125D01*
G36*
X186616996Y-85756918D02*
X186352301Y-86394373D01*
X186351699Y-87084599D01*
X186615281Y-87722515D01*
X187102918Y-88211004D01*
X187740373Y-88475699D01*
X188430599Y-88476301D01*
X189068515Y-88212719D01*
X189290000Y-87991620D01*
X189290000Y-112255787D01*
X188955181Y-112116758D01*
X188364411Y-112116243D01*
X187818414Y-112341844D01*
X187400312Y-112759217D01*
X187173758Y-113304819D01*
X187173243Y-113895589D01*
X187398844Y-114441586D01*
X187816217Y-114859688D01*
X188361819Y-115086242D01*
X188952589Y-115086757D01*
X189290000Y-114947342D01*
X189290000Y-117332339D01*
X189255878Y-117309539D01*
X188687593Y-117196500D01*
X188629407Y-117196500D01*
X188061122Y-117309539D01*
X187579353Y-117631446D01*
X187257446Y-118113215D01*
X187144407Y-118681500D01*
X187217290Y-119047908D01*
X186820535Y-119444663D01*
X186655788Y-119691225D01*
X186597936Y-119982064D01*
X186597936Y-120258998D01*
X186095940Y-120760994D01*
X186095940Y-119215000D01*
X186051662Y-118979683D01*
X185912590Y-118763559D01*
X185700390Y-118618569D01*
X185448500Y-118567560D01*
X185118500Y-118567560D01*
X185118500Y-116888900D01*
X185060648Y-116598061D01*
X184895901Y-116351499D01*
X184627596Y-116083194D01*
X184656000Y-115940400D01*
X184656000Y-113105954D01*
X185054950Y-112707004D01*
X185272189Y-112663792D01*
X185518751Y-112499045D01*
X185962439Y-112055357D01*
X186170402Y-111916401D01*
X186335149Y-111669839D01*
X186393001Y-111379000D01*
X186393001Y-108486315D01*
X186353769Y-108289085D01*
X186335149Y-108195475D01*
X186170402Y-107948914D01*
X186141443Y-107919955D01*
X186364181Y-107697216D01*
X186438573Y-107588340D01*
X186540957Y-107520439D01*
X186929866Y-107131530D01*
X187004256Y-107022657D01*
X187106643Y-106954754D01*
X187495552Y-106565845D01*
X187630637Y-106368142D01*
X187685121Y-106116980D01*
X187637597Y-105864409D01*
X187495552Y-105650227D01*
X186556825Y-104711500D01*
X187495552Y-103772773D01*
X187630637Y-103575070D01*
X187685121Y-103323908D01*
X187637597Y-103071337D01*
X187495552Y-102857155D01*
X187417457Y-102779060D01*
X187532992Y-102663727D01*
X187675638Y-102320199D01*
X187675962Y-101948233D01*
X187533917Y-101604457D01*
X187271127Y-101341208D01*
X186927599Y-101198562D01*
X186555633Y-101198238D01*
X186211857Y-101340283D01*
X185978059Y-101573673D01*
X185940541Y-101374281D01*
X185798496Y-101160099D01*
X185409587Y-100771190D01*
X185211884Y-100636105D01*
X184960722Y-100581621D01*
X184832786Y-100605694D01*
X184848502Y-100533244D01*
X185049306Y-100332440D01*
X186253500Y-100332440D01*
X186488817Y-100288162D01*
X186704941Y-100149090D01*
X186849931Y-99936890D01*
X186900940Y-99685000D01*
X186900940Y-98435000D01*
X186856662Y-98199683D01*
X186717590Y-97983559D01*
X186684248Y-97960778D01*
X186717641Y-97939290D01*
X186862631Y-97727090D01*
X186913640Y-97475200D01*
X186913640Y-96225200D01*
X186869362Y-95989883D01*
X186730290Y-95773759D01*
X186518090Y-95628769D01*
X186266200Y-95577760D01*
X186005223Y-95577760D01*
X185794339Y-95436852D01*
X185503500Y-95379000D01*
X185212660Y-95436852D01*
X185001777Y-95577760D01*
X184766200Y-95577760D01*
X184530883Y-95622038D01*
X184382014Y-95717833D01*
X184357562Y-95587883D01*
X184218490Y-95371759D01*
X184006290Y-95226769D01*
X183754400Y-95175760D01*
X182004400Y-95175760D01*
X181769083Y-95220038D01*
X181552959Y-95359110D01*
X181407969Y-95571310D01*
X181356960Y-95823200D01*
X181356960Y-97623200D01*
X181372616Y-97706406D01*
X181151840Y-97485630D01*
X181151840Y-95823200D01*
X181107562Y-95587883D01*
X180968490Y-95371759D01*
X180756290Y-95226769D01*
X180743988Y-95224278D01*
X180792240Y-94986000D01*
X180792240Y-93736000D01*
X180747962Y-93500683D01*
X180608890Y-93284559D01*
X180396690Y-93139569D01*
X180144800Y-93088560D01*
X178644800Y-93088560D01*
X178409483Y-93132838D01*
X178193359Y-93271910D01*
X178048369Y-93484110D01*
X177997360Y-93736000D01*
X177997360Y-94289638D01*
X177767233Y-94289438D01*
X177423457Y-94431483D01*
X177160208Y-94694273D01*
X177017562Y-95037801D01*
X177017511Y-95096105D01*
X176966257Y-95117283D01*
X176703008Y-95380073D01*
X176560362Y-95723601D01*
X176560038Y-96095567D01*
X176702083Y-96439343D01*
X176735200Y-96472518D01*
X176735200Y-97663000D01*
X176793052Y-97953839D01*
X176957799Y-98200401D01*
X177880898Y-99123500D01*
X177396343Y-99608055D01*
X177231596Y-99854617D01*
X177173744Y-100145456D01*
X177173744Y-100158182D01*
X176827433Y-100157880D01*
X176483657Y-100299925D01*
X176220408Y-100562715D01*
X176077762Y-100906243D01*
X176077707Y-100969929D01*
X176007962Y-100900063D01*
X175664434Y-100757417D01*
X175292468Y-100757093D01*
X174948692Y-100899138D01*
X174685443Y-101161928D01*
X174596255Y-101376715D01*
X174382998Y-101464831D01*
X174271961Y-101575674D01*
X174139327Y-101442808D01*
X173795799Y-101300162D01*
X173423833Y-101299838D01*
X173080057Y-101441883D01*
X172816808Y-101704673D01*
X172674162Y-102048201D01*
X172673838Y-102420167D01*
X172815883Y-102763943D01*
X173078673Y-103027192D01*
X173422201Y-103169838D01*
X173517549Y-103169921D01*
X173618160Y-103237147D01*
X173908999Y-103294999D01*
X173949797Y-103294999D01*
X175547397Y-104892599D01*
X175547397Y-105192278D01*
X175089448Y-105650227D01*
X174954363Y-105847930D01*
X174899879Y-106099092D01*
X174947403Y-106351663D01*
X175089448Y-106565845D01*
X175312187Y-106788584D01*
X174409099Y-107691672D01*
X174244352Y-107938234D01*
X174186500Y-108229073D01*
X174186500Y-108519060D01*
X173196500Y-108519060D01*
X172961183Y-108563338D01*
X172745059Y-108702410D01*
X172600069Y-108914610D01*
X172549060Y-109166500D01*
X172549060Y-110416500D01*
X172593338Y-110651817D01*
X172732410Y-110867941D01*
X172944610Y-111012931D01*
X173186500Y-111061915D01*
X173186500Y-111420779D01*
X171996975Y-112610304D01*
X171957647Y-112551446D01*
X171475878Y-112229539D01*
X170907593Y-112116500D01*
X170849407Y-112116500D01*
X170710000Y-112144230D01*
X170710000Y-95858440D01*
X172607713Y-95858440D01*
X172607618Y-95967470D01*
X172749663Y-96311246D01*
X173012453Y-96574495D01*
X173355981Y-96717141D01*
X173727947Y-96717465D01*
X174071723Y-96575420D01*
X174104898Y-96542303D01*
X174231011Y-96542303D01*
X174264242Y-96575592D01*
X174607770Y-96718238D01*
X174979736Y-96718562D01*
X175323512Y-96576517D01*
X175586761Y-96313727D01*
X175729407Y-95970199D01*
X175729731Y-95598233D01*
X175617038Y-95325495D01*
X175686838Y-95157399D01*
X175687162Y-94785433D01*
X175576374Y-94517305D01*
X175670870Y-94289734D01*
X175671194Y-93917768D01*
X175529149Y-93573992D01*
X175266359Y-93310743D01*
X174922831Y-93168097D01*
X174550865Y-93167773D01*
X174485205Y-93194903D01*
X173533940Y-92243638D01*
X173533940Y-90971000D01*
X173489662Y-90735683D01*
X173381126Y-90567013D01*
X173391708Y-90551525D01*
X173634400Y-90599800D01*
X173925239Y-90541948D01*
X174171801Y-90377201D01*
X174186523Y-90355167D01*
X176331438Y-90355167D01*
X176473483Y-90698943D01*
X176736273Y-90962192D01*
X177079801Y-91104838D01*
X177287820Y-91105019D01*
X177394910Y-91271441D01*
X177607110Y-91416431D01*
X177859000Y-91467440D01*
X179359000Y-91467440D01*
X179594317Y-91423162D01*
X179810441Y-91284090D01*
X179955431Y-91071890D01*
X179958081Y-91058803D01*
X180094910Y-91271441D01*
X180307110Y-91416431D01*
X180559000Y-91467440D01*
X182059000Y-91467440D01*
X182294317Y-91423162D01*
X182510441Y-91284090D01*
X182655431Y-91071890D01*
X182706440Y-90820000D01*
X182706440Y-90295000D01*
X183961942Y-90295000D01*
X184004338Y-90520317D01*
X184043490Y-90581161D01*
X184011069Y-90628610D01*
X183960060Y-90880500D01*
X183960060Y-91967907D01*
X183825052Y-92169961D01*
X183783718Y-92377760D01*
X183777200Y-92377760D01*
X183541883Y-92422038D01*
X183325759Y-92561110D01*
X183180769Y-92773310D01*
X183129760Y-93025200D01*
X183129760Y-94325200D01*
X183174038Y-94560517D01*
X183313110Y-94776641D01*
X183525310Y-94921631D01*
X183777200Y-94972640D01*
X185277200Y-94972640D01*
X185512517Y-94928362D01*
X185728641Y-94789290D01*
X185873631Y-94577090D01*
X185876281Y-94564003D01*
X186013110Y-94776641D01*
X186225310Y-94921631D01*
X186477200Y-94972640D01*
X187977200Y-94972640D01*
X188212517Y-94928362D01*
X188428641Y-94789290D01*
X188573631Y-94577090D01*
X188624640Y-94325200D01*
X188624640Y-93025200D01*
X188580362Y-92789883D01*
X188441290Y-92573759D01*
X188229090Y-92428769D01*
X187977200Y-92377760D01*
X186754940Y-92377760D01*
X186754940Y-90880500D01*
X186710662Y-90645183D01*
X186671510Y-90584339D01*
X186703931Y-90536890D01*
X186754940Y-90285000D01*
X186754940Y-88785000D01*
X186710662Y-88549683D01*
X186571590Y-88333559D01*
X186359390Y-88188569D01*
X186107500Y-88137560D01*
X184607500Y-88137560D01*
X184372183Y-88181838D01*
X184156059Y-88320910D01*
X184011069Y-88533110D01*
X183962085Y-88775000D01*
X181944000Y-88775000D01*
X181653161Y-88832852D01*
X181593734Y-88872560D01*
X180559000Y-88872560D01*
X180323683Y-88916838D01*
X180107559Y-89055910D01*
X179962569Y-89268110D01*
X179959919Y-89281197D01*
X179823090Y-89068559D01*
X179610890Y-88923569D01*
X179359000Y-88872560D01*
X177859000Y-88872560D01*
X177623683Y-88916838D01*
X177407559Y-89055910D01*
X177285182Y-89235015D01*
X177081433Y-89234838D01*
X176737657Y-89376883D01*
X176474408Y-89639673D01*
X176331762Y-89983201D01*
X176331438Y-90355167D01*
X174186523Y-90355167D01*
X174336548Y-90130639D01*
X174394400Y-89839800D01*
X174394400Y-89754900D01*
X174336548Y-89464061D01*
X174171801Y-89217499D01*
X173925239Y-89052752D01*
X173634400Y-88994900D01*
X173557940Y-89010109D01*
X173557940Y-88431000D01*
X173513662Y-88195683D01*
X173374590Y-87979559D01*
X173162390Y-87834569D01*
X172910500Y-87783560D01*
X171648422Y-87783560D01*
X171648455Y-87745940D01*
X172506000Y-87745940D01*
X172741317Y-87701662D01*
X172957441Y-87562590D01*
X173102431Y-87350390D01*
X173153440Y-87098500D01*
X173153440Y-86449000D01*
X173504560Y-86449000D01*
X173504560Y-88049000D01*
X173548838Y-88284317D01*
X173687910Y-88500441D01*
X173900110Y-88645431D01*
X174152000Y-88696440D01*
X176332000Y-88696440D01*
X176567317Y-88652162D01*
X176783441Y-88513090D01*
X176928431Y-88300890D01*
X176979440Y-88049000D01*
X176979440Y-86449000D01*
X176935162Y-86213683D01*
X176796090Y-85997559D01*
X176583890Y-85852569D01*
X176332000Y-85801560D01*
X174152000Y-85801560D01*
X173916683Y-85845838D01*
X173700559Y-85984910D01*
X173555569Y-86197110D01*
X173504560Y-86449000D01*
X173153440Y-86449000D01*
X173153440Y-85748500D01*
X173146196Y-85710000D01*
X186663996Y-85710000D01*
X186616996Y-85756918D01*
X186616996Y-85756918D01*
G37*
X186616996Y-85756918D02*
X186352301Y-86394373D01*
X186351699Y-87084599D01*
X186615281Y-87722515D01*
X187102918Y-88211004D01*
X187740373Y-88475699D01*
X188430599Y-88476301D01*
X189068515Y-88212719D01*
X189290000Y-87991620D01*
X189290000Y-112255787D01*
X188955181Y-112116758D01*
X188364411Y-112116243D01*
X187818414Y-112341844D01*
X187400312Y-112759217D01*
X187173758Y-113304819D01*
X187173243Y-113895589D01*
X187398844Y-114441586D01*
X187816217Y-114859688D01*
X188361819Y-115086242D01*
X188952589Y-115086757D01*
X189290000Y-114947342D01*
X189290000Y-117332339D01*
X189255878Y-117309539D01*
X188687593Y-117196500D01*
X188629407Y-117196500D01*
X188061122Y-117309539D01*
X187579353Y-117631446D01*
X187257446Y-118113215D01*
X187144407Y-118681500D01*
X187217290Y-119047908D01*
X186820535Y-119444663D01*
X186655788Y-119691225D01*
X186597936Y-119982064D01*
X186597936Y-120258998D01*
X186095940Y-120760994D01*
X186095940Y-119215000D01*
X186051662Y-118979683D01*
X185912590Y-118763559D01*
X185700390Y-118618569D01*
X185448500Y-118567560D01*
X185118500Y-118567560D01*
X185118500Y-116888900D01*
X185060648Y-116598061D01*
X184895901Y-116351499D01*
X184627596Y-116083194D01*
X184656000Y-115940400D01*
X184656000Y-113105954D01*
X185054950Y-112707004D01*
X185272189Y-112663792D01*
X185518751Y-112499045D01*
X185962439Y-112055357D01*
X186170402Y-111916401D01*
X186335149Y-111669839D01*
X186393001Y-111379000D01*
X186393001Y-108486315D01*
X186353769Y-108289085D01*
X186335149Y-108195475D01*
X186170402Y-107948914D01*
X186141443Y-107919955D01*
X186364181Y-107697216D01*
X186438573Y-107588340D01*
X186540957Y-107520439D01*
X186929866Y-107131530D01*
X187004256Y-107022657D01*
X187106643Y-106954754D01*
X187495552Y-106565845D01*
X187630637Y-106368142D01*
X187685121Y-106116980D01*
X187637597Y-105864409D01*
X187495552Y-105650227D01*
X186556825Y-104711500D01*
X187495552Y-103772773D01*
X187630637Y-103575070D01*
X187685121Y-103323908D01*
X187637597Y-103071337D01*
X187495552Y-102857155D01*
X187417457Y-102779060D01*
X187532992Y-102663727D01*
X187675638Y-102320199D01*
X187675962Y-101948233D01*
X187533917Y-101604457D01*
X187271127Y-101341208D01*
X186927599Y-101198562D01*
X186555633Y-101198238D01*
X186211857Y-101340283D01*
X185978059Y-101573673D01*
X185940541Y-101374281D01*
X185798496Y-101160099D01*
X185409587Y-100771190D01*
X185211884Y-100636105D01*
X184960722Y-100581621D01*
X184832786Y-100605694D01*
X184848502Y-100533244D01*
X185049306Y-100332440D01*
X186253500Y-100332440D01*
X186488817Y-100288162D01*
X186704941Y-100149090D01*
X186849931Y-99936890D01*
X186900940Y-99685000D01*
X186900940Y-98435000D01*
X186856662Y-98199683D01*
X186717590Y-97983559D01*
X186684248Y-97960778D01*
X186717641Y-97939290D01*
X186862631Y-97727090D01*
X186913640Y-97475200D01*
X186913640Y-96225200D01*
X186869362Y-95989883D01*
X186730290Y-95773759D01*
X186518090Y-95628769D01*
X186266200Y-95577760D01*
X186005223Y-95577760D01*
X185794339Y-95436852D01*
X185503500Y-95379000D01*
X185212660Y-95436852D01*
X185001777Y-95577760D01*
X184766200Y-95577760D01*
X184530883Y-95622038D01*
X184382014Y-95717833D01*
X184357562Y-95587883D01*
X184218490Y-95371759D01*
X184006290Y-95226769D01*
X183754400Y-95175760D01*
X182004400Y-95175760D01*
X181769083Y-95220038D01*
X181552959Y-95359110D01*
X181407969Y-95571310D01*
X181356960Y-95823200D01*
X181356960Y-97623200D01*
X181372616Y-97706406D01*
X181151840Y-97485630D01*
X181151840Y-95823200D01*
X181107562Y-95587883D01*
X180968490Y-95371759D01*
X180756290Y-95226769D01*
X180743988Y-95224278D01*
X180792240Y-94986000D01*
X180792240Y-93736000D01*
X180747962Y-93500683D01*
X180608890Y-93284559D01*
X180396690Y-93139569D01*
X180144800Y-93088560D01*
X178644800Y-93088560D01*
X178409483Y-93132838D01*
X178193359Y-93271910D01*
X178048369Y-93484110D01*
X177997360Y-93736000D01*
X177997360Y-94289638D01*
X177767233Y-94289438D01*
X177423457Y-94431483D01*
X177160208Y-94694273D01*
X177017562Y-95037801D01*
X177017511Y-95096105D01*
X176966257Y-95117283D01*
X176703008Y-95380073D01*
X176560362Y-95723601D01*
X176560038Y-96095567D01*
X176702083Y-96439343D01*
X176735200Y-96472518D01*
X176735200Y-97663000D01*
X176793052Y-97953839D01*
X176957799Y-98200401D01*
X177880898Y-99123500D01*
X177396343Y-99608055D01*
X177231596Y-99854617D01*
X177173744Y-100145456D01*
X177173744Y-100158182D01*
X176827433Y-100157880D01*
X176483657Y-100299925D01*
X176220408Y-100562715D01*
X176077762Y-100906243D01*
X176077707Y-100969929D01*
X176007962Y-100900063D01*
X175664434Y-100757417D01*
X175292468Y-100757093D01*
X174948692Y-100899138D01*
X174685443Y-101161928D01*
X174596255Y-101376715D01*
X174382998Y-101464831D01*
X174271961Y-101575674D01*
X174139327Y-101442808D01*
X173795799Y-101300162D01*
X173423833Y-101299838D01*
X173080057Y-101441883D01*
X172816808Y-101704673D01*
X172674162Y-102048201D01*
X172673838Y-102420167D01*
X172815883Y-102763943D01*
X173078673Y-103027192D01*
X173422201Y-103169838D01*
X173517549Y-103169921D01*
X173618160Y-103237147D01*
X173908999Y-103294999D01*
X173949797Y-103294999D01*
X175547397Y-104892599D01*
X175547397Y-105192278D01*
X175089448Y-105650227D01*
X174954363Y-105847930D01*
X174899879Y-106099092D01*
X174947403Y-106351663D01*
X175089448Y-106565845D01*
X175312187Y-106788584D01*
X174409099Y-107691672D01*
X174244352Y-107938234D01*
X174186500Y-108229073D01*
X174186500Y-108519060D01*
X173196500Y-108519060D01*
X172961183Y-108563338D01*
X172745059Y-108702410D01*
X172600069Y-108914610D01*
X172549060Y-109166500D01*
X172549060Y-110416500D01*
X172593338Y-110651817D01*
X172732410Y-110867941D01*
X172944610Y-111012931D01*
X173186500Y-111061915D01*
X173186500Y-111420779D01*
X171996975Y-112610304D01*
X171957647Y-112551446D01*
X171475878Y-112229539D01*
X170907593Y-112116500D01*
X170849407Y-112116500D01*
X170710000Y-112144230D01*
X170710000Y-95858440D01*
X172607713Y-95858440D01*
X172607618Y-95967470D01*
X172749663Y-96311246D01*
X173012453Y-96574495D01*
X173355981Y-96717141D01*
X173727947Y-96717465D01*
X174071723Y-96575420D01*
X174104898Y-96542303D01*
X174231011Y-96542303D01*
X174264242Y-96575592D01*
X174607770Y-96718238D01*
X174979736Y-96718562D01*
X175323512Y-96576517D01*
X175586761Y-96313727D01*
X175729407Y-95970199D01*
X175729731Y-95598233D01*
X175617038Y-95325495D01*
X175686838Y-95157399D01*
X175687162Y-94785433D01*
X175576374Y-94517305D01*
X175670870Y-94289734D01*
X175671194Y-93917768D01*
X175529149Y-93573992D01*
X175266359Y-93310743D01*
X174922831Y-93168097D01*
X174550865Y-93167773D01*
X174485205Y-93194903D01*
X173533940Y-92243638D01*
X173533940Y-90971000D01*
X173489662Y-90735683D01*
X173381126Y-90567013D01*
X173391708Y-90551525D01*
X173634400Y-90599800D01*
X173925239Y-90541948D01*
X174171801Y-90377201D01*
X174186523Y-90355167D01*
X176331438Y-90355167D01*
X176473483Y-90698943D01*
X176736273Y-90962192D01*
X177079801Y-91104838D01*
X177287820Y-91105019D01*
X177394910Y-91271441D01*
X177607110Y-91416431D01*
X177859000Y-91467440D01*
X179359000Y-91467440D01*
X179594317Y-91423162D01*
X179810441Y-91284090D01*
X179955431Y-91071890D01*
X179958081Y-91058803D01*
X180094910Y-91271441D01*
X180307110Y-91416431D01*
X180559000Y-91467440D01*
X182059000Y-91467440D01*
X182294317Y-91423162D01*
X182510441Y-91284090D01*
X182655431Y-91071890D01*
X182706440Y-90820000D01*
X182706440Y-90295000D01*
X183961942Y-90295000D01*
X184004338Y-90520317D01*
X184043490Y-90581161D01*
X184011069Y-90628610D01*
X183960060Y-90880500D01*
X183960060Y-91967907D01*
X183825052Y-92169961D01*
X183783718Y-92377760D01*
X183777200Y-92377760D01*
X183541883Y-92422038D01*
X183325759Y-92561110D01*
X183180769Y-92773310D01*
X183129760Y-93025200D01*
X183129760Y-94325200D01*
X183174038Y-94560517D01*
X183313110Y-94776641D01*
X183525310Y-94921631D01*
X183777200Y-94972640D01*
X185277200Y-94972640D01*
X185512517Y-94928362D01*
X185728641Y-94789290D01*
X185873631Y-94577090D01*
X185876281Y-94564003D01*
X186013110Y-94776641D01*
X186225310Y-94921631D01*
X186477200Y-94972640D01*
X187977200Y-94972640D01*
X188212517Y-94928362D01*
X188428641Y-94789290D01*
X188573631Y-94577090D01*
X188624640Y-94325200D01*
X188624640Y-93025200D01*
X188580362Y-92789883D01*
X188441290Y-92573759D01*
X188229090Y-92428769D01*
X187977200Y-92377760D01*
X186754940Y-92377760D01*
X186754940Y-90880500D01*
X186710662Y-90645183D01*
X186671510Y-90584339D01*
X186703931Y-90536890D01*
X186754940Y-90285000D01*
X186754940Y-88785000D01*
X186710662Y-88549683D01*
X186571590Y-88333559D01*
X186359390Y-88188569D01*
X186107500Y-88137560D01*
X184607500Y-88137560D01*
X184372183Y-88181838D01*
X184156059Y-88320910D01*
X184011069Y-88533110D01*
X183962085Y-88775000D01*
X181944000Y-88775000D01*
X181653161Y-88832852D01*
X181593734Y-88872560D01*
X180559000Y-88872560D01*
X180323683Y-88916838D01*
X180107559Y-89055910D01*
X179962569Y-89268110D01*
X179959919Y-89281197D01*
X179823090Y-89068559D01*
X179610890Y-88923569D01*
X179359000Y-88872560D01*
X177859000Y-88872560D01*
X177623683Y-88916838D01*
X177407559Y-89055910D01*
X177285182Y-89235015D01*
X177081433Y-89234838D01*
X176737657Y-89376883D01*
X176474408Y-89639673D01*
X176331762Y-89983201D01*
X176331438Y-90355167D01*
X174186523Y-90355167D01*
X174336548Y-90130639D01*
X174394400Y-89839800D01*
X174394400Y-89754900D01*
X174336548Y-89464061D01*
X174171801Y-89217499D01*
X173925239Y-89052752D01*
X173634400Y-88994900D01*
X173557940Y-89010109D01*
X173557940Y-88431000D01*
X173513662Y-88195683D01*
X173374590Y-87979559D01*
X173162390Y-87834569D01*
X172910500Y-87783560D01*
X171648422Y-87783560D01*
X171648455Y-87745940D01*
X172506000Y-87745940D01*
X172741317Y-87701662D01*
X172957441Y-87562590D01*
X173102431Y-87350390D01*
X173153440Y-87098500D01*
X173153440Y-86449000D01*
X173504560Y-86449000D01*
X173504560Y-88049000D01*
X173548838Y-88284317D01*
X173687910Y-88500441D01*
X173900110Y-88645431D01*
X174152000Y-88696440D01*
X176332000Y-88696440D01*
X176567317Y-88652162D01*
X176783441Y-88513090D01*
X176928431Y-88300890D01*
X176979440Y-88049000D01*
X176979440Y-86449000D01*
X176935162Y-86213683D01*
X176796090Y-85997559D01*
X176583890Y-85852569D01*
X176332000Y-85801560D01*
X174152000Y-85801560D01*
X173916683Y-85845838D01*
X173700559Y-85984910D01*
X173555569Y-86197110D01*
X173504560Y-86449000D01*
X173153440Y-86449000D01*
X173153440Y-85748500D01*
X173146196Y-85710000D01*
X186663996Y-85710000D01*
X186616996Y-85756918D01*
G36*
X179908329Y-103892783D02*
X179908005Y-104264749D01*
X180050050Y-104608525D01*
X180312840Y-104871774D01*
X180656368Y-105014420D01*
X180723877Y-105014479D01*
X182838409Y-107129011D01*
X182796912Y-107170507D01*
X182722521Y-107279381D01*
X182620136Y-107347283D01*
X182231227Y-107736192D01*
X182156837Y-107845065D01*
X182054450Y-107912968D01*
X181665541Y-108301877D01*
X181591149Y-108410753D01*
X181488765Y-108478654D01*
X181292500Y-108674919D01*
X181096235Y-108478654D01*
X180987362Y-108404264D01*
X180919459Y-108301877D01*
X180530550Y-107912968D01*
X180421674Y-107838576D01*
X180353773Y-107736192D01*
X179964864Y-107347283D01*
X179767161Y-107212198D01*
X179515999Y-107157714D01*
X179388063Y-107181787D01*
X179411971Y-107071574D01*
X179410190Y-107062110D01*
X179492748Y-106938553D01*
X179550600Y-106647714D01*
X179550600Y-106273600D01*
X179492748Y-105982761D01*
X179328001Y-105736199D01*
X179233997Y-105642195D01*
X179335681Y-105540510D01*
X179500428Y-105293948D01*
X179558280Y-105003109D01*
X179558280Y-104087356D01*
X180018732Y-103626904D01*
X179908329Y-103892783D01*
X179908329Y-103892783D01*
G37*
X179908329Y-103892783D02*
X179908005Y-104264749D01*
X180050050Y-104608525D01*
X180312840Y-104871774D01*
X180656368Y-105014420D01*
X180723877Y-105014479D01*
X182838409Y-107129011D01*
X182796912Y-107170507D01*
X182722521Y-107279381D01*
X182620136Y-107347283D01*
X182231227Y-107736192D01*
X182156837Y-107845065D01*
X182054450Y-107912968D01*
X181665541Y-108301877D01*
X181591149Y-108410753D01*
X181488765Y-108478654D01*
X181292500Y-108674919D01*
X181096235Y-108478654D01*
X180987362Y-108404264D01*
X180919459Y-108301877D01*
X180530550Y-107912968D01*
X180421674Y-107838576D01*
X180353773Y-107736192D01*
X179964864Y-107347283D01*
X179767161Y-107212198D01*
X179515999Y-107157714D01*
X179388063Y-107181787D01*
X179411971Y-107071574D01*
X179410190Y-107062110D01*
X179492748Y-106938553D01*
X179550600Y-106647714D01*
X179550600Y-106273600D01*
X179492748Y-105982761D01*
X179328001Y-105736199D01*
X179233997Y-105642195D01*
X179335681Y-105540510D01*
X179500428Y-105293948D01*
X179558280Y-105003109D01*
X179558280Y-104087356D01*
X180018732Y-103626904D01*
X179908329Y-103892783D01*
G36*
X182392310Y-102466710D02*
X182971604Y-103046004D01*
X183218165Y-103210751D01*
X183266419Y-103220349D01*
X183509005Y-103268603D01*
X183841537Y-103268603D01*
X183949210Y-103342173D01*
X184200372Y-103396657D01*
X184328307Y-103372585D01*
X184304399Y-103482797D01*
X184351923Y-103735368D01*
X184443214Y-103873021D01*
X184425190Y-103885064D01*
X184216396Y-104093858D01*
X184193433Y-104093838D01*
X183849657Y-104235883D01*
X183663302Y-104421913D01*
X183608531Y-104146562D01*
X183541464Y-104046189D01*
X183541546Y-103952235D01*
X183399501Y-103608459D01*
X183136711Y-103345210D01*
X182793183Y-103202564D01*
X182421217Y-103202240D01*
X182236795Y-103278441D01*
X181948464Y-103158715D01*
X181576498Y-103158391D01*
X181319030Y-103264774D01*
X181029966Y-103144744D01*
X180658000Y-103144420D01*
X180390820Y-103254816D01*
X181391473Y-102254163D01*
X182250291Y-102254163D01*
X182392310Y-102466710D01*
X182392310Y-102466710D01*
G37*
X182392310Y-102466710D02*
X182971604Y-103046004D01*
X183218165Y-103210751D01*
X183266419Y-103220349D01*
X183509005Y-103268603D01*
X183841537Y-103268603D01*
X183949210Y-103342173D01*
X184200372Y-103396657D01*
X184328307Y-103372585D01*
X184304399Y-103482797D01*
X184351923Y-103735368D01*
X184443214Y-103873021D01*
X184425190Y-103885064D01*
X184216396Y-104093858D01*
X184193433Y-104093838D01*
X183849657Y-104235883D01*
X183663302Y-104421913D01*
X183608531Y-104146562D01*
X183541464Y-104046189D01*
X183541546Y-103952235D01*
X183399501Y-103608459D01*
X183136711Y-103345210D01*
X182793183Y-103202564D01*
X182421217Y-103202240D01*
X182236795Y-103278441D01*
X181948464Y-103158715D01*
X181576498Y-103158391D01*
X181319030Y-103264774D01*
X181029966Y-103144744D01*
X180658000Y-103144420D01*
X180390820Y-103254816D01*
X181391473Y-102254163D01*
X182250291Y-102254163D01*
X182392310Y-102466710D01*
M02*
