M48
;DRILL file {KiCad 4.0.2-stable} date 01.06.2017 12:53:22
;FORMAT={-:-/ absolute / metric / decimal}
FMAT,2
METRIC,TZ
T1C0.400
T2C0.800
T3C1.000
T4C2.200
%
G90
G05
M71
T1
X170.713Y-87.808
X172.949Y-108.026
X173.543Y-95.782
X173.609Y-102.235
X174.736Y-94.103
X174.752Y-94.971
X174.795Y-95.783
X174.912Y-102.258
X175.031Y-111.557
X175.242Y-87.249
X175.478Y-101.692
X177.013Y-101.093
X177.225Y-104.509
X177.267Y-90.17
X177.395Y-120.135
X177.495Y-95.91
X177.934Y-111.684
X177.936Y-104.982
X177.952Y-95.225
X177.964Y-104.182
X178.08Y-121.047
X178.173Y-103.361
X178.206Y-116.053
X178.511Y-118.643
X178.521Y-110.945
X178.738Y-111.715
X179.311Y-118.644
X179.807Y-101.635
X180.304Y-112.26
X180.569Y-101.093
X180.843Y-104.08
X180.888Y-111.444
X181.112Y-114.637
X181.762Y-104.094
X182.606Y-104.137
X182.61Y-88.282
X182.651Y-117.602
X183.733Y-117.602
X184.379Y-105.029
X184.464Y-103.701
X184.681Y-111.337
X184.912Y-121.772
X185.263Y-105.047
X185.504Y-99.06
X186.614Y-121.742
X186.741Y-102.133
X187.202Y-93.65
X187.477Y-121.768
T2
X171.831Y-86.423
T3
X170.879Y-111.061
X170.879Y-113.602
X170.879Y-116.141
X170.879Y-118.681
X176.022Y-123.761
X178.562Y-123.761
X181.102Y-123.761
X183.642Y-123.761
X186.182Y-123.761
X188.659Y-113.602
X188.659Y-116.141
X188.659Y-118.681
X188.659Y-121.221
X188.722Y-123.761
T4
X171.958Y-123.19
X188.087Y-86.741
T0
M30
