%
M48
METRIC,000.000
T01C0.40
T02C0.80
T03C1.00
T04C2.20
%
T01
X000712Y037191
X002949Y016974
X003543Y029218
X003609Y022765
X004735Y030897
X004752Y030028
X004794Y029217
X004912Y022742
X005031Y013442
X005241Y037751
X005478Y023308
X007013Y023906
X007224Y020491
X007266Y034830
X007395Y004864
X007495Y029090
X007933Y013316
X007936Y020018
X007951Y029775
X007963Y020817
X008080Y003953
X008173Y021638
X008205Y008947
X008510Y006356
X008520Y014055
X008738Y013284
X009311Y006355
X009806Y023364
X010304Y012739
X010568Y023906
X010842Y020920
X010888Y013555
X011111Y010363
X011762Y020906
X012605Y020863
X012610Y036718
X012651Y007397
X013733Y007397
X014378Y019971
X014463Y021299
X014681Y013662
X014912Y003227
X015263Y019953
X015503Y025939
X016614Y003257
X016741Y022867
X017202Y031349
X017477Y003231
X000712Y079192
X002949Y058974
X003543Y071218
X003609Y064765
X004735Y072897
X004752Y072029
X004794Y071217
X004912Y064742
X005031Y055443
X005241Y079751
X005478Y065308
X007013Y065907
X007224Y062491
X007266Y076830
X007395Y046864
X007495Y071090
X007933Y055316
X007936Y062018
X007951Y071775
X007963Y062818
X008080Y045953
X008173Y063638
X008205Y050947
X008510Y048357
X008520Y056055
X008738Y055285
X009311Y048355
X009806Y065364
X010304Y054739
X010568Y065907
X010842Y062920
X010888Y055556
X011111Y052363
X011762Y062906
X012605Y062863
X012610Y078718
X012651Y049397
X013733Y049397
X014378Y061971
X014463Y063299
X014681Y055663
X014912Y045227
X015263Y061953
X015503Y067940
X016614Y045257
X016741Y064867
X017202Y073350
X017477Y045232
X022712Y037191
X024949Y016974
X025543Y029218
X025609Y022765
X026735Y030897
X026752Y030028
X026794Y029217
X026912Y022742
X027031Y013442
X027241Y037751
X027478Y023308
X029013Y023906
X029224Y020491
X029266Y034830
X029395Y004864
X029495Y029090
X029933Y013316
X029936Y020018
X029952Y029775
X029964Y020817
X030080Y003953
X030173Y021638
X030205Y008947
X030510Y006356
X030520Y014055
X030738Y013284
X031311Y006355
X031806Y023364
X032304Y012739
X032567Y023906
X032842Y020920
X032888Y013555
X033111Y010363
X033762Y020906
X034605Y020863
X034610Y036718
X034651Y007397
X035733Y007397
X036378Y019971
X036464Y021299
X036681Y013662
X036912Y003227
X037263Y019953
X037503Y025939
X038614Y003257
X038741Y022867
X039202Y031349
X039477Y003231
X044712Y037191
X046949Y016974
X047543Y029218
X047609Y022765
X048735Y030897
X048752Y030028
X048794Y029217
X048912Y022742
X049031Y013442
X049241Y037751
X049478Y023308
X051013Y023906
X051224Y020491
X051266Y034830
X051395Y004864
X051495Y029090
X051934Y013316
X051936Y020018
X051952Y029775
X051964Y020817
X052080Y003953
X052173Y021638
X052205Y008947
X052510Y006356
X052520Y014055
X052738Y013284
X053311Y006355
X053806Y023364
X054304Y012739
X054568Y023906
X054842Y020920
X054888Y013555
X055111Y010363
X055762Y020906
X056605Y020863
X056610Y036718
X056651Y007397
X057733Y007397
X058378Y019971
X058464Y021299
X058681Y013662
X058912Y003227
X059263Y019953
X059503Y025939
X060614Y003257
X060741Y022867
X061202Y031349
X061477Y003231
X066713Y037191
X068949Y016974
X069543Y029218
X069609Y022765
X070735Y030897
X070752Y030028
X070794Y029217
X070912Y022742
X071031Y013442
X071241Y037751
X071478Y023308
X073013Y023906
X073225Y020491
X073267Y034830
X073395Y004864
X073495Y029090
X073934Y013316
X073936Y020018
X073952Y029775
X073964Y020817
X074080Y003953
X074173Y021638
X074205Y008947
X074511Y006356
X074520Y014055
X074738Y013284
X075311Y006355
X075806Y023364
X076304Y012739
X076568Y023906
X076842Y020920
X076888Y013555
X077112Y010363
X077762Y020906
X078606Y020863
X078610Y036718
X078651Y007397
X079733Y007397
X080378Y019971
X080464Y021299
X080681Y013662
X080912Y003227
X081263Y019953
X081503Y025939
X082614Y003257
X082741Y022867
X083202Y031349
X083477Y003231
X022712Y079192
X024949Y058974
X025543Y071218
X025609Y064765
X026735Y072897
X026752Y072029
X026794Y071217
X026912Y064742
X027031Y055443
X027241Y079751
X027478Y065308
X029013Y065907
X029224Y062491
X029266Y076830
X029395Y046864
X029495Y071090
X029933Y055316
X029936Y062018
X029952Y071775
X029964Y062818
X030080Y045953
X030173Y063638
X030205Y050947
X030510Y048357
X030520Y056055
X030738Y055285
X031311Y048355
X031806Y065364
X032304Y054739
X032567Y065907
X032842Y062920
X032888Y055556
X033111Y052363
X033762Y062906
X034605Y062863
X034610Y078718
X034651Y049397
X035733Y049397
X036378Y061971
X036464Y063299
X036681Y055663
X036912Y045227
X037263Y061953
X037503Y067940
X038614Y045257
X038741Y064867
X039202Y073350
X039477Y045232
X044712Y079192
X046949Y058974
X047543Y071218
X047609Y064765
X048735Y072897
X048752Y072029
X048794Y071217
X048912Y064742
X049031Y055443
X049241Y079751
X049478Y065308
X051013Y065907
X051224Y062491
X051266Y076830
X051395Y046864
X051495Y071090
X051934Y055316
X051936Y062018
X051952Y071775
X051964Y062818
X052080Y045953
X052173Y063638
X052205Y050947
X052510Y048357
X052520Y056055
X052738Y055285
X053311Y048355
X053806Y065364
X054304Y054739
X054568Y065907
X054842Y062920
X054888Y055556
X055111Y052363
X055762Y062906
X056605Y062863
X056610Y078718
X056651Y049397
X057733Y049397
X058378Y061971
X058464Y063299
X058681Y055663
X058912Y045227
X059263Y061953
X059503Y067940
X060614Y045257
X060741Y064867
X061202Y073350
X061477Y045232
X066713Y079192
X068949Y058974
X069543Y071218
X069609Y064765
X070735Y072897
X070752Y072029
X070794Y071217
X070912Y064742
X071031Y055443
X071241Y079751
X071478Y065308
X073013Y065907
X073225Y062491
X073267Y076830
X073395Y046864
X073495Y071090
X073934Y055316
X073936Y062018
X073952Y071775
X073964Y062818
X074080Y045953
X074173Y063638
X074205Y050947
X074511Y048357
X074520Y056055
X074738Y055285
X075311Y048355
X075806Y065364
X076304Y054739
X076568Y065907
X076842Y062920
X076888Y055556
X077112Y052363
X077762Y062906
X078606Y062863
X078610Y078718
X078651Y049397
X079733Y049397
X080378Y061971
X080464Y063299
X080681Y055663
X080912Y045227
X081263Y061953
X081503Y067940
X082614Y045257
X082741Y064867
X083202Y073350
X083477Y045232
T02
X001830Y038577
X001830Y080577
X023830Y038577
X045830Y038577
X067830Y038577
X023830Y080577
X045830Y080577
X067830Y080577
T03
X000878Y013938
X000878Y011397
X000878Y008858
X000878Y006319
X006021Y001239
X008562Y001239
X011102Y001239
X013641Y001239
X016181Y001239
X018658Y011397
X018658Y008858
X018658Y006319
X018658Y003778
X018722Y001239
X000878Y055938
X000878Y053397
X000878Y050858
X000878Y048319
X006021Y043239
X008562Y043239
X011102Y043239
X013641Y043239
X016181Y043239
X018658Y053397
X018658Y050858
X018658Y048319
X018658Y045779
X018722Y043239
X022878Y013938
X022878Y011397
X022878Y008858
X022878Y006319
X028021Y001239
X030562Y001239
X033102Y001239
X035641Y001239
X038181Y001239
X040658Y011397
X040658Y008858
X040658Y006319
X040658Y003778
X040722Y001239
X044878Y013938
X044878Y011397
X044878Y008858
X044878Y006319
X050021Y001239
X052562Y001239
X055102Y001239
X057641Y001239
X060181Y001239
X062658Y011397
X062658Y008858
X062658Y006319
X062658Y003778
X062722Y001239
X066878Y013938
X066878Y011397
X066878Y008858
X066878Y006319
X072021Y001239
X074562Y001239
X077102Y001239
X079642Y001239
X082181Y001239
X084658Y011397
X084658Y008858
X084658Y006319
X084658Y003778
X084722Y001239
X022878Y055938
X022878Y053397
X022878Y050858
X022878Y048319
X028021Y043239
X030562Y043239
X033102Y043239
X035641Y043239
X038181Y043239
X040658Y053397
X040658Y050858
X040658Y048319
X040658Y045779
X040722Y043239
X044878Y055938
X044878Y053397
X044878Y050858
X044878Y048319
X050021Y043239
X052562Y043239
X055102Y043239
X057641Y043239
X060181Y043239
X062658Y053397
X062658Y050858
X062658Y048319
X062658Y045779
X062722Y043239
X066878Y055938
X066878Y053397
X066878Y050858
X066878Y048319
X072021Y043239
X074562Y043239
X077102Y043239
X079642Y043239
X082181Y043239
X084658Y053397
X084658Y050858
X084658Y048319
X084658Y045779
X084722Y043239
T04
X001957Y001810
X018086Y038259
X001957Y043810
X018086Y080259
X023958Y001810
X040086Y038259
X045958Y001810
X062086Y038259
X067958Y001810
X084086Y038259
X023958Y043810
X040086Y080259
X045958Y043810
X062086Y080259
X067958Y043810
X084086Y080259
M30