%MOIN*%
%OFA0B0*%
%FSLAX44Y44*%
%IPPOS*%
%LPD*%
%ADD10C,0*%
D10*
X00025984Y00015748D02*
X00025984Y00015748D01*
X00025984Y00012914D01*
X00025984Y00012896D01*
X00025979Y00012835D01*
X00025964Y00012775D01*
X00025941Y00012717D01*
X00025909Y00012665D01*
X00025868Y00012618D01*
X00025821Y00012578D01*
X00025769Y00012545D01*
X00025712Y00012522D01*
X00025652Y00012507D01*
X00025590Y00012503D01*
X00025528Y00012507D01*
X00025468Y00012522D01*
X00025411Y00012545D01*
X00025359Y00012578D01*
X00025312Y00012618D01*
X00025272Y00012665D01*
X00025239Y00012717D01*
X00025216Y00012775D01*
X00025201Y00012835D01*
X00025196Y00012896D01*
X00025196Y00015748D01*
X00022400Y00015748D01*
X00022389Y00015748D01*
X00022328Y00015752D01*
X00022268Y00015767D01*
X00022211Y00015790D01*
X00022158Y00015823D01*
X00022111Y00015863D01*
X00022071Y00015910D01*
X00022039Y00015962D01*
X00022015Y00016020D01*
X00022001Y00016080D01*
X00021996Y00016141D01*
X00022001Y00016203D01*
X00022015Y00016263D01*
X00022039Y00016320D01*
X00022071Y00016373D01*
X00022111Y00016420D01*
X00022158Y00016460D01*
X00022211Y00016492D01*
X00022268Y00016516D01*
X00022328Y00016530D01*
X00022389Y00016535D01*
X00025196Y00016535D01*
X00025196Y00019356D01*
X00025201Y00019417D01*
X00025216Y00019478D01*
X00025239Y00019535D01*
X00025272Y00019587D01*
X00025312Y00019634D01*
X00025359Y00019674D01*
X00025411Y00019707D01*
X00025468Y00019730D01*
X00025528Y00019745D01*
X00025590Y00019750D01*
X00025652Y00019745D01*
X00025712Y00019730D01*
X00025769Y00019707D01*
X00025821Y00019674D01*
X00025868Y00019634D01*
X00025909Y00019587D01*
X00025941Y00019535D01*
X00025964Y00019478D01*
X00025979Y00019417D01*
X00025984Y00019356D01*
X00025984Y00019338D01*
X00025984Y00016535D01*
X00028871Y00016535D01*
X00028893Y00016535D01*
X00028954Y00016530D01*
X00029014Y00016516D01*
X00029072Y00016492D01*
X00029124Y00016460D01*
X00029171Y00016420D01*
X00029211Y00016373D01*
X00029244Y00016320D01*
X00029267Y00016263D01*
X00029282Y00016203D01*
X00029286Y00016141D01*
X00029282Y00016080D01*
X00029267Y00016020D01*
X00029244Y00015962D01*
X00029211Y00015910D01*
X00029171Y00015863D01*
X00029124Y00015823D01*
X00029072Y00015790D01*
X00029014Y00015767D01*
X00028954Y00015752D01*
X00028893Y00015748D01*
X00025984Y00015748D01*
X00017322Y00015748D02*
X00017322Y00015748D01*
X00017322Y00012824D01*
X00017317Y00012763D01*
X00017303Y00012703D01*
X00017279Y00012646D01*
X00017247Y00012593D01*
X00017207Y00012546D01*
X00017160Y00012506D01*
X00017107Y00012474D01*
X00017050Y00012450D01*
X00016990Y00012436D01*
X00016929Y00012431D01*
X00016867Y00012436D01*
X00016807Y00012450D01*
X00016750Y00012474D01*
X00016697Y00012506D01*
X00016650Y00012546D01*
X00016610Y00012593D01*
X00016578Y00012646D01*
X00016554Y00012703D01*
X00016540Y00012763D01*
X00016535Y00012824D01*
X00016535Y00013011D01*
X00016535Y00015748D01*
X00013670Y00015748D01*
X00013608Y00015752D01*
X00013548Y00015767D01*
X00013491Y00015790D01*
X00013438Y00015823D01*
X00013391Y00015863D01*
X00013351Y00015910D01*
X00013319Y00015962D01*
X00013295Y00016020D01*
X00013281Y00016080D01*
X00013276Y00016141D01*
X00013281Y00016203D01*
X00013295Y00016263D01*
X00013319Y00016320D01*
X00013351Y00016373D01*
X00013391Y00016420D01*
X00013438Y00016460D01*
X00013491Y00016492D01*
X00013548Y00016516D01*
X00013608Y00016530D01*
X00013670Y00016535D01*
X00013691Y00016535D01*
X00016535Y00016535D01*
X00016535Y00019353D01*
X00016540Y00019415D01*
X00016554Y00019475D01*
X00016578Y00019532D01*
X00016610Y00019585D01*
X00016650Y00019632D01*
X00016697Y00019672D01*
X00016750Y00019704D01*
X00016807Y00019728D01*
X00016867Y00019742D01*
X00016929Y00019747D01*
X00016990Y00019742D01*
X00017050Y00019728D01*
X00017107Y00019704D01*
X00017160Y00019672D01*
X00017207Y00019632D01*
X00017247Y00019585D01*
X00017279Y00019532D01*
X00017303Y00019475D01*
X00017317Y00019415D01*
X00017322Y00019353D01*
X00017322Y00019340D01*
X00017322Y00016535D01*
X00020173Y00016535D01*
X00020235Y00016530D01*
X00020295Y00016516D01*
X00020352Y00016492D01*
X00020405Y00016460D01*
X00020452Y00016420D01*
X00020492Y00016373D01*
X00020524Y00016320D01*
X00020548Y00016263D01*
X00020562Y00016203D01*
X00020567Y00016141D01*
X00020562Y00016080D01*
X00020548Y00016020D01*
X00020524Y00015962D01*
X00020492Y00015910D01*
X00020452Y00015863D01*
X00020405Y00015823D01*
X00020352Y00015790D01*
X00020295Y00015767D01*
X00020235Y00015752D01*
X00020173Y00015748D01*
X00020162Y00015748D01*
X00017322Y00015748D01*
X00007874Y00021661D02*
X00007874Y00021661D01*
X00007874Y00027216D01*
X00007878Y00027277D01*
X00007893Y00027337D01*
X00007916Y00027394D01*
X00007949Y00027447D01*
X00007989Y00027494D01*
X00008036Y00027534D01*
X00008088Y00027566D01*
X00008146Y00027590D01*
X00008206Y00027604D01*
X00008267Y00027609D01*
X00008329Y00027604D01*
X00008389Y00027590D01*
X00008446Y00027566D01*
X00008499Y00027534D01*
X00008546Y00027494D01*
X00008586Y00027447D01*
X00008618Y00027394D01*
X00008642Y00027337D01*
X00008656Y00027277D01*
X00008661Y00027216D01*
X00008661Y00027175D01*
X00008661Y00021669D01*
X00008661Y00021661D01*
X00008656Y00021599D01*
X00008642Y00021539D01*
X00008618Y00021482D01*
X00008586Y00021429D01*
X00008546Y00021382D01*
X00008499Y00021342D01*
X00008446Y00021310D01*
X00008389Y00021286D01*
X00008329Y00021272D01*
X00008267Y00021267D01*
X00008206Y00021272D01*
X00008146Y00021286D01*
X00008088Y00021310D01*
X00008036Y00021342D01*
X00007989Y00021382D01*
X00007949Y00021429D01*
X00007916Y00021482D01*
X00007893Y00021539D01*
X00007878Y00021599D01*
X00007874Y00021661D01*
X00007874Y00012871D02*
X00007874Y00012871D01*
X00007874Y00015748D01*
X00004983Y00015748D01*
X00004921Y00015752D01*
X00004861Y00015767D01*
X00004804Y00015790D01*
X00004752Y00015823D01*
X00004705Y00015863D01*
X00004664Y00015910D01*
X00004632Y00015962D01*
X00004609Y00016020D01*
X00004594Y00016080D01*
X00004589Y00016141D01*
X00004594Y00016203D01*
X00004609Y00016263D01*
X00004632Y00016320D01*
X00004664Y00016373D01*
X00004705Y00016420D01*
X00004752Y00016460D01*
X00004804Y00016492D01*
X00004861Y00016516D01*
X00004921Y00016530D01*
X00004983Y00016535D01*
X00005037Y00016535D01*
X00007874Y00016535D01*
X00007874Y00019442D01*
X00007878Y00019504D01*
X00007893Y00019564D01*
X00007916Y00019621D01*
X00007949Y00019673D01*
X00007989Y00019720D01*
X00008036Y00019761D01*
X00008088Y00019793D01*
X00008146Y00019816D01*
X00008206Y00019831D01*
X00008267Y00019836D01*
X00008329Y00019831D01*
X00008389Y00019816D01*
X00008446Y00019793D01*
X00008499Y00019761D01*
X00008546Y00019720D01*
X00008586Y00019673D01*
X00008618Y00019621D01*
X00008642Y00019564D01*
X00008656Y00019504D01*
X00008661Y00019442D01*
X00008661Y00019434D01*
X00008661Y00016535D01*
X00011444Y00016535D01*
X00011465Y00016535D01*
X00011527Y00016530D01*
X00011587Y00016516D01*
X00011644Y00016492D01*
X00011697Y00016460D01*
X00011744Y00016420D01*
X00011784Y00016373D01*
X00011816Y00016320D01*
X00011840Y00016263D01*
X00011854Y00016203D01*
X00011859Y00016141D01*
X00011854Y00016080D01*
X00011840Y00016020D01*
X00011816Y00015962D01*
X00011784Y00015910D01*
X00011744Y00015863D01*
X00011697Y00015823D01*
X00011644Y00015790D01*
X00011587Y00015767D01*
X00011527Y00015752D01*
X00011465Y00015748D01*
X00008661Y00015748D01*
X00008661Y00012847D01*
X00008656Y00012786D01*
X00008642Y00012726D01*
X00008618Y00012669D01*
X00008586Y00012616D01*
X00008546Y00012569D01*
X00008499Y00012529D01*
X00008446Y00012497D01*
X00008389Y00012473D01*
X00008329Y00012458D01*
X00008267Y00012454D01*
X00008206Y00012458D01*
X00008146Y00012473D01*
X00008088Y00012497D01*
X00008036Y00012529D01*
X00007989Y00012569D01*
X00007949Y00012616D01*
X00007916Y00012669D01*
X00007893Y00012726D01*
X00007878Y00012786D01*
X00007874Y00012847D01*
X00007874Y00012871D01*
X00000000Y00015748D02*
X00000000Y00015748D01*
X00000000Y00000000D01*
X00007874Y00000000D01*
X00007874Y00002853D01*
X00007878Y00002915D01*
X00007893Y00002975D01*
X00007916Y00003032D01*
X00007949Y00003085D01*
X00007989Y00003132D01*
X00008036Y00003172D01*
X00008088Y00003204D01*
X00008146Y00003228D01*
X00008206Y00003242D01*
X00008267Y00003247D01*
X00008329Y00003242D01*
X00008389Y00003228D01*
X00008446Y00003204D01*
X00008499Y00003172D01*
X00008546Y00003132D01*
X00008586Y00003085D01*
X00008618Y00003032D01*
X00008642Y00002975D01*
X00008656Y00002915D01*
X00008661Y00002853D01*
X00008661Y00002813D01*
X00008661Y00000000D01*
X00016535Y00000000D01*
X00016535Y00002856D01*
X00016540Y00002918D01*
X00016554Y00002978D01*
X00016578Y00003035D01*
X00016610Y00003088D01*
X00016650Y00003135D01*
X00016697Y00003175D01*
X00016750Y00003207D01*
X00016807Y00003231D01*
X00016867Y00003245D01*
X00016929Y00003250D01*
X00016990Y00003245D01*
X00017050Y00003231D01*
X00017107Y00003207D01*
X00017160Y00003175D01*
X00017207Y00003135D01*
X00017247Y00003088D01*
X00017279Y00003035D01*
X00017303Y00002978D01*
X00017317Y00002918D01*
X00017322Y00002856D01*
X00017322Y00002811D01*
X00017322Y00000000D01*
X00025196Y00000000D01*
X00025196Y00002886D01*
X00025201Y00002948D01*
X00025216Y00003008D01*
X00025239Y00003065D01*
X00025272Y00003118D01*
X00025312Y00003165D01*
X00025359Y00003205D01*
X00025411Y00003237D01*
X00025468Y00003261D01*
X00025528Y00003275D01*
X00025590Y00003280D01*
X00025652Y00003275D01*
X00025712Y00003261D01*
X00025769Y00003237D01*
X00025821Y00003205D01*
X00025868Y00003165D01*
X00025909Y00003118D01*
X00025941Y00003065D01*
X00025964Y00003008D01*
X00025979Y00002948D01*
X00025984Y00002886D01*
X00025984Y00002868D01*
X00025984Y00000000D01*
X00033858Y00000000D01*
X00033858Y00015748D01*
X00031097Y00015748D01*
X00031036Y00015752D01*
X00030976Y00015767D01*
X00030919Y00015790D01*
X00030866Y00015823D01*
X00030819Y00015863D01*
X00030779Y00015910D01*
X00030747Y00015962D01*
X00030723Y00016020D01*
X00030709Y00016080D01*
X00030704Y00016141D01*
X00030709Y00016203D01*
X00030723Y00016263D01*
X00030747Y00016320D01*
X00030779Y00016373D01*
X00030819Y00016420D01*
X00030866Y00016460D01*
X00030919Y00016492D01*
X00030976Y00016516D01*
X00031036Y00016530D01*
X00031097Y00016535D01*
X00031119Y00016535D01*
X00033858Y00016535D01*
X00033858Y00032283D01*
X00025984Y00032283D01*
X00025984Y00029475D01*
X00025984Y00029457D01*
X00025979Y00029395D01*
X00025964Y00029335D01*
X00025941Y00029278D01*
X00025909Y00029226D01*
X00025868Y00029179D01*
X00025821Y00029138D01*
X00025769Y00029106D01*
X00025712Y00029083D01*
X00025652Y00029068D01*
X00025590Y00029063D01*
X00025528Y00029068D01*
X00025468Y00029083D01*
X00025411Y00029106D01*
X00025359Y00029138D01*
X00025312Y00029179D01*
X00025272Y00029226D01*
X00025239Y00029278D01*
X00025216Y00029335D01*
X00025201Y00029395D01*
X00025196Y00029457D01*
X00025196Y00032283D01*
X00017322Y00032283D01*
X00017322Y00029518D01*
X00017322Y00029505D01*
X00017317Y00029444D01*
X00017303Y00029383D01*
X00017279Y00029326D01*
X00017247Y00029274D01*
X00017207Y00029227D01*
X00017160Y00029187D01*
X00017107Y00029154D01*
X00017050Y00029131D01*
X00016990Y00029116D01*
X00016929Y00029111D01*
X00016867Y00029116D01*
X00016807Y00029131D01*
X00016750Y00029154D01*
X00016697Y00029187D01*
X00016650Y00029227D01*
X00016610Y00029274D01*
X00016578Y00029326D01*
X00016554Y00029383D01*
X00016540Y00029444D01*
X00016535Y00029505D01*
X00016535Y00032283D01*
X00008661Y00032283D01*
X00008661Y00029439D01*
X00008661Y00029399D01*
X00008656Y00029337D01*
X00008642Y00029277D01*
X00008618Y00029220D01*
X00008586Y00029167D01*
X00008546Y00029120D01*
X00008499Y00029080D01*
X00008446Y00029048D01*
X00008389Y00029024D01*
X00008329Y00029010D01*
X00008267Y00029005D01*
X00008206Y00029010D01*
X00008146Y00029024D01*
X00008088Y00029048D01*
X00008036Y00029080D01*
X00007989Y00029120D01*
X00007949Y00029167D01*
X00007916Y00029220D01*
X00007893Y00029277D01*
X00007878Y00029337D01*
X00007874Y00029399D01*
X00007874Y00032283D01*
X00000000Y00032283D01*
X00000000Y00016535D01*
X00002762Y00016535D01*
X00002816Y00016535D01*
X00002877Y00016530D01*
X00002937Y00016516D01*
X00002994Y00016492D01*
X00003047Y00016460D01*
X00003094Y00016420D01*
X00003134Y00016373D01*
X00003166Y00016320D01*
X00003190Y00016263D01*
X00003205Y00016203D01*
X00003209Y00016141D01*
X00003205Y00016080D01*
X00003190Y00016020D01*
X00003166Y00015962D01*
X00003134Y00015910D01*
X00003094Y00015863D01*
X00003047Y00015823D01*
X00002994Y00015790D01*
X00002937Y00015767D01*
X00002877Y00015752D01*
X00002816Y00015748D01*
X00000000Y00015748D01*
X00017322Y00021580D02*
X00017322Y00021580D01*
X00017322Y00021567D01*
X00017317Y00021505D01*
X00017303Y00021445D01*
X00017279Y00021388D01*
X00017247Y00021336D01*
X00017207Y00021289D01*
X00017160Y00021248D01*
X00017107Y00021216D01*
X00017050Y00021192D01*
X00016990Y00021178D01*
X00016929Y00021173D01*
X00016867Y00021178D01*
X00016807Y00021192D01*
X00016750Y00021216D01*
X00016697Y00021248D01*
X00016650Y00021289D01*
X00016610Y00021336D01*
X00016578Y00021388D01*
X00016554Y00021445D01*
X00016540Y00021505D01*
X00016535Y00021567D01*
X00016535Y00027292D01*
X00016540Y00027353D01*
X00016554Y00027413D01*
X00016578Y00027470D01*
X00016610Y00027523D01*
X00016650Y00027570D01*
X00016697Y00027610D01*
X00016750Y00027642D01*
X00016807Y00027666D01*
X00016867Y00027680D01*
X00016929Y00027685D01*
X00016990Y00027680D01*
X00017050Y00027666D01*
X00017107Y00027642D01*
X00017160Y00027610D01*
X00017207Y00027570D01*
X00017247Y00027523D01*
X00017279Y00027470D01*
X00017303Y00027413D01*
X00017317Y00027353D01*
X00017322Y00027292D01*
X00017322Y00027278D01*
X00017322Y00021580D01*
X00025984Y00021582D02*
X00025984Y00021582D01*
X00025984Y00021564D01*
X00025979Y00021503D01*
X00025964Y00021443D01*
X00025941Y00021386D01*
X00025909Y00021333D01*
X00025868Y00021286D01*
X00025821Y00021246D01*
X00025769Y00021214D01*
X00025712Y00021190D01*
X00025652Y00021176D01*
X00025590Y00021171D01*
X00025528Y00021176D01*
X00025468Y00021190D01*
X00025411Y00021214D01*
X00025359Y00021246D01*
X00025312Y00021286D01*
X00025272Y00021333D01*
X00025239Y00021386D01*
X00025216Y00021443D01*
X00025201Y00021503D01*
X00025196Y00021564D01*
X00025196Y00027248D01*
X00025201Y00027310D01*
X00025216Y00027370D01*
X00025239Y00027427D01*
X00025272Y00027480D01*
X00025312Y00027527D01*
X00025359Y00027567D01*
X00025411Y00027599D01*
X00025468Y00027623D01*
X00025528Y00027637D01*
X00025590Y00027642D01*
X00025652Y00027637D01*
X00025712Y00027623D01*
X00025769Y00027599D01*
X00025821Y00027567D01*
X00025868Y00027527D01*
X00025909Y00027480D01*
X00025941Y00027427D01*
X00025964Y00027370D01*
X00025979Y00027310D01*
X00025984Y00027248D01*
X00025984Y00027231D01*
X00025984Y00021582D01*
X00025984Y00005113D02*
X00025984Y00005113D01*
X00025984Y00005095D01*
X00025979Y00005033D01*
X00025964Y00004973D01*
X00025941Y00004916D01*
X00025909Y00004863D01*
X00025868Y00004816D01*
X00025821Y00004776D01*
X00025769Y00004744D01*
X00025712Y00004720D01*
X00025652Y00004706D01*
X00025590Y00004701D01*
X00025528Y00004706D01*
X00025468Y00004720D01*
X00025411Y00004744D01*
X00025359Y00004776D01*
X00025312Y00004816D01*
X00025272Y00004863D01*
X00025239Y00004916D01*
X00025216Y00004973D01*
X00025201Y00005033D01*
X00025196Y00005095D01*
X00025196Y00010688D01*
X00025201Y00010749D01*
X00025216Y00010809D01*
X00025239Y00010866D01*
X00025272Y00010919D01*
X00025312Y00010966D01*
X00025359Y00011006D01*
X00025411Y00011038D01*
X00025468Y00011062D01*
X00025528Y00011077D01*
X00025590Y00011081D01*
X00025652Y00011077D01*
X00025712Y00011062D01*
X00025769Y00011038D01*
X00025821Y00011006D01*
X00025868Y00010966D01*
X00025909Y00010919D01*
X00025941Y00010866D01*
X00025964Y00010809D01*
X00025979Y00010749D01*
X00025984Y00010688D01*
X00025984Y00010670D01*
X00025984Y00005113D01*
X00017322Y00005079D02*
X00017322Y00005079D01*
X00017322Y00005034D01*
X00017317Y00004972D01*
X00017303Y00004912D01*
X00017279Y00004855D01*
X00017247Y00004802D01*
X00017207Y00004755D01*
X00017160Y00004715D01*
X00017107Y00004683D01*
X00017050Y00004659D01*
X00016990Y00004645D01*
X00016929Y00004640D01*
X00016867Y00004645D01*
X00016807Y00004659D01*
X00016750Y00004683D01*
X00016697Y00004715D01*
X00016650Y00004755D01*
X00016610Y00004802D01*
X00016578Y00004855D01*
X00016554Y00004912D01*
X00016540Y00004972D01*
X00016535Y00005034D01*
X00016535Y00010665D01*
X00016535Y00010851D01*
X00016540Y00010912D01*
X00016554Y00010972D01*
X00016578Y00011029D01*
X00016610Y00011082D01*
X00016650Y00011129D01*
X00016697Y00011169D01*
X00016750Y00011201D01*
X00016807Y00011225D01*
X00016867Y00011239D01*
X00016929Y00011244D01*
X00016990Y00011239D01*
X00017050Y00011225D01*
X00017107Y00011201D01*
X00017160Y00011169D01*
X00017207Y00011129D01*
X00017247Y00011082D01*
X00017279Y00011029D01*
X00017303Y00010972D01*
X00017317Y00010912D01*
X00017322Y00010851D01*
X00017322Y00005079D01*
X00008661Y00005077D02*
X00008661Y00005077D01*
X00008661Y00005037D01*
X00008656Y00004975D01*
X00008642Y00004915D01*
X00008618Y00004858D01*
X00008586Y00004805D01*
X00008546Y00004758D01*
X00008499Y00004718D01*
X00008446Y00004686D01*
X00008389Y00004662D01*
X00008329Y00004648D01*
X00008267Y00004643D01*
X00008206Y00004648D01*
X00008146Y00004662D01*
X00008088Y00004686D01*
X00008036Y00004718D01*
X00007989Y00004758D01*
X00007949Y00004805D01*
X00007916Y00004858D01*
X00007893Y00004915D01*
X00007878Y00004975D01*
X00007874Y00005037D01*
X00007874Y00010621D01*
X00007874Y00010645D01*
X00007878Y00010707D01*
X00007893Y00010767D01*
X00007916Y00010824D01*
X00007949Y00010877D01*
X00007989Y00010924D01*
X00008036Y00010964D01*
X00008088Y00010996D01*
X00008146Y00011020D01*
X00008206Y00011034D01*
X00008267Y00011039D01*
X00008329Y00011034D01*
X00008389Y00011020D01*
X00008446Y00010996D01*
X00008499Y00010964D01*
X00008546Y00010924D01*
X00008586Y00010877D01*
X00008618Y00010824D01*
X00008642Y00010767D01*
X00008656Y00010707D01*
X00008661Y00010645D01*
X00008661Y00005077D01*
M02*