%MOIN*%
%OFA0B0*%
%FSLAX46Y46*%
%IPPOS*%
%LPD*%
%ADD10C,0.0039370078740157488*%
%ADD11C,0.082677165354330714*%
%ADD12O,0.082677165354330714X0.082677165354330714*%
%ADD13R,0.13385826771653545X0.082677165354330714*%
%ADD14R,0.10157480314960631X0.07874015748031496*%
%ADD15R,0.074803149606299218X0.064960629921259838*%
%ADD16R,0.074803149606299218X0.074803149606299218*%
%ADD17R,0.066929133858267723X0.074803149606299218*%
%ADD18R,0.074803149606299218X0.066929133858267723*%
%ADD19R,0.084645669291338585X0.086614173228346469*%
%ADD20C,0.10236220472440946*%
%ADD21R,0.068897637795275593X0.068897637795275593*%
%ADD32C,0.0039370078740157488*%
%ADD33C,0.082677165354330714*%
%ADD34O,0.082677165354330714X0.082677165354330714*%
%ADD35R,0.13385826771653545X0.082677165354330714*%
%ADD36R,0.10157480314960631X0.07874015748031496*%
%ADD37R,0.074803149606299218X0.064960629921259838*%
%ADD38R,0.074803149606299218X0.074803149606299218*%
%ADD39R,0.066929133858267723X0.074803149606299218*%
%ADD40R,0.074803149606299218X0.066929133858267723*%
%ADD41R,0.084645669291338585X0.086614173228346469*%
%ADD42C,0.10236220472440946*%
%ADD43R,0.068897637795275593X0.068897637795275593*%
%ADD54C,0.0039370078740157488*%
%ADD55C,0.082677165354330714*%
%ADD56O,0.082677165354330714X0.082677165354330714*%
%ADD57R,0.13385826771653545X0.082677165354330714*%
%ADD58R,0.10157480314960631X0.07874015748031496*%
%ADD59R,0.074803149606299218X0.064960629921259838*%
%ADD60R,0.074803149606299218X0.074803149606299218*%
%ADD61R,0.066929133858267723X0.074803149606299218*%
%ADD62R,0.074803149606299218X0.066929133858267723*%
%ADD63R,0.084645669291338585X0.086614173228346469*%
%ADD64C,0.10236220472440946*%
%ADD65R,0.068897637795275593X0.068897637795275593*%
%ADD76C,0.0039370078740157488*%
%ADD77C,0.082677165354330714*%
%ADD78O,0.082677165354330714X0.082677165354330714*%
%ADD79R,0.13385826771653545X0.082677165354330714*%
%ADD80R,0.10157480314960631X0.07874015748031496*%
%ADD81R,0.074803149606299218X0.064960629921259838*%
%ADD82R,0.074803149606299218X0.074803149606299218*%
%ADD83R,0.066929133858267723X0.074803149606299218*%
%ADD84R,0.074803149606299218X0.066929133858267723*%
%ADD85R,0.084645669291338585X0.086614173228346469*%
%ADD86C,0.10236220472440946*%
%ADD87R,0.068897637795275593X0.068897637795275593*%
%ADD98C,0.0039370078740157488*%
%ADD99C,0.082677165354330714*%
%ADD100O,0.082677165354330714X0.082677165354330714*%
%ADD101R,0.13385826771653545X0.082677165354330714*%
%ADD102R,0.10157480314960631X0.07874015748031496*%
%ADD103R,0.074803149606299218X0.064960629921259838*%
%ADD104R,0.074803149606299218X0.074803149606299218*%
%ADD105R,0.066929133858267723X0.074803149606299218*%
%ADD106R,0.074803149606299218X0.066929133858267723*%
%ADD107R,0.084645669291338585X0.086614173228346469*%
%ADD108C,0.10236220472440946*%
%ADD109R,0.068897637795275593X0.068897637795275593*%
%ADD120C,0.0039370078740157488*%
%ADD121C,0.082677165354330714*%
%ADD122O,0.082677165354330714X0.082677165354330714*%
%ADD123R,0.13385826771653545X0.082677165354330714*%
%ADD124R,0.10157480314960631X0.07874015748031496*%
%ADD125R,0.074803149606299218X0.064960629921259838*%
%ADD126R,0.074803149606299218X0.074803149606299218*%
%ADD127R,0.066929133858267723X0.074803149606299218*%
%ADD128R,0.074803149606299218X0.066929133858267723*%
%ADD129R,0.084645669291338585X0.086614173228346469*%
%ADD130C,0.10236220472440946*%
%ADD131R,0.068897637795275593X0.068897637795275593*%
%ADD142C,0.0039370078740157488*%
%ADD143C,0.082677165354330714*%
%ADD144O,0.082677165354330714X0.082677165354330714*%
%ADD145R,0.13385826771653545X0.082677165354330714*%
%ADD146R,0.10157480314960631X0.07874015748031496*%
%ADD147R,0.074803149606299218X0.064960629921259838*%
%ADD148R,0.074803149606299218X0.074803149606299218*%
%ADD149R,0.066929133858267723X0.074803149606299218*%
%ADD150R,0.074803149606299218X0.066929133858267723*%
%ADD151R,0.084645669291338585X0.086614173228346469*%
%ADD152C,0.10236220472440946*%
%ADD153R,0.068897637795275593X0.068897637795275593*%
%ADD164C,0.0039370078740157488*%
%ADD165C,0.082677165354330714*%
%ADD166O,0.082677165354330714X0.082677165354330714*%
%ADD167R,0.13385826771653545X0.082677165354330714*%
%ADD168R,0.10157480314960631X0.07874015748031496*%
%ADD169R,0.074803149606299218X0.064960629921259838*%
%ADD170R,0.074803149606299218X0.074803149606299218*%
%ADD171R,0.066929133858267723X0.074803149606299218*%
%ADD172R,0.074803149606299218X0.066929133858267723*%
%ADD173R,0.084645669291338585X0.086614173228346469*%
%ADD174C,0.10236220472440946*%
%ADD175R,0.068897637795275593X0.068897637795275593*%
%LPD*%
G01*
D10*
D11*
X-0006692913Y0004921259D02*
X0000034586Y0000548759D03*
D12*
X0000034586Y0000448759D03*
X0000034586Y0000348759D03*
X0000034586Y0000248759D03*
D13*
X0000055531Y0001406258D03*
X0000055531Y0001206259D03*
X0000055531Y0001006259D03*
X0000054586Y0001306259D03*
X0000054586Y0001106259D03*
D10*
G36*
X0000655465Y0000880188D02*
X0000681912Y0000853740D01*
X0000626235Y0000798062D01*
X0000599788Y0000824510D01*
X0000655465Y0000880188D01*
X0000655465Y0000880188D01*
G37*
G36*
X0000633194Y0000902459D02*
X0000659641Y0000876011D01*
X0000603964Y0000820333D01*
X0000577517Y0000846781D01*
X0000633194Y0000902459D01*
X0000633194Y0000902459D01*
G37*
G36*
X0000610923Y0000924730D02*
X0000637370Y0000898283D01*
X0000581692Y0000842604D01*
X0000555246Y0000869052D01*
X0000610923Y0000924730D01*
X0000610923Y0000924730D01*
G37*
G36*
X0000588652Y0000947001D02*
X0000615099Y0000920554D01*
X0000559421Y0000864877D01*
X0000532974Y0000891323D01*
X0000588652Y0000947001D01*
X0000588652Y0000947001D01*
G37*
G36*
X0000566381Y0000969272D02*
X0000592828Y0000942825D01*
X0000537150Y0000887148D01*
X0000510703Y0000913595D01*
X0000566381Y0000969272D01*
X0000566381Y0000969272D01*
G37*
G36*
X0000544110Y0000991542D02*
X0000570557Y0000965096D01*
X0000514879Y0000909418D01*
X0000488432Y0000935866D01*
X0000544110Y0000991542D01*
X0000544110Y0000991542D01*
G37*
G36*
X0000521839Y0001013814D02*
X0000548286Y0000987367D01*
X0000492608Y0000931689D01*
X0000466161Y0000958137D01*
X0000521839Y0001013814D01*
X0000521839Y0001013814D01*
G37*
G36*
X0000499568Y0001036086D02*
X0000526015Y0001009639D01*
X0000470337Y0000953961D01*
X0000443890Y0000980408D01*
X0000499568Y0001036086D01*
X0000499568Y0001036086D01*
G37*
G36*
X0000363157Y0001009639D02*
X0000389604Y0001036086D01*
X0000445282Y0000980408D01*
X0000418835Y0000953961D01*
X0000363157Y0001009639D01*
X0000363157Y0001009639D01*
G37*
G36*
X0000340886Y0000987367D02*
X0000367333Y0001013814D01*
X0000423011Y0000958137D01*
X0000396564Y0000931689D01*
X0000340886Y0000987367D01*
X0000340886Y0000987367D01*
G37*
G36*
X0000318615Y0000965096D02*
X0000345062Y0000991542D01*
X0000400740Y0000935866D01*
X0000374293Y0000909418D01*
X0000318615Y0000965096D01*
X0000318615Y0000965096D01*
G37*
G36*
X0000296344Y0000942825D02*
X0000322791Y0000969272D01*
X0000378469Y0000913595D01*
X0000352022Y0000887148D01*
X0000296344Y0000942825D01*
X0000296344Y0000942825D01*
G37*
G36*
X0000274073Y0000920554D02*
X0000300520Y0000947001D01*
X0000356198Y0000891323D01*
X0000329751Y0000864877D01*
X0000274073Y0000920554D01*
X0000274073Y0000920554D01*
G37*
G36*
X0000251802Y0000898283D02*
X0000278249Y0000924730D01*
X0000333927Y0000869052D01*
X0000307480Y0000842604D01*
X0000251802Y0000898283D01*
X0000251802Y0000898283D01*
G37*
G36*
X0000229531Y0000876011D02*
X0000255977Y0000902459D01*
X0000311656Y0000846781D01*
X0000285209Y0000820333D01*
X0000229531Y0000876011D01*
X0000229531Y0000876011D01*
G37*
G36*
X0000207260Y0000853740D02*
X0000233706Y0000880188D01*
X0000289385Y0000824510D01*
X0000262938Y0000798062D01*
X0000207260Y0000853740D01*
X0000207260Y0000853740D01*
G37*
G36*
X0000262938Y0000799455D02*
X0000289385Y0000773008D01*
X0000233706Y0000717331D01*
X0000207260Y0000743778D01*
X0000262938Y0000799455D01*
X0000262938Y0000799455D01*
G37*
G36*
X0000285209Y0000777184D02*
X0000311656Y0000750737D01*
X0000255977Y0000695060D01*
X0000229531Y0000721507D01*
X0000285209Y0000777184D01*
X0000285209Y0000777184D01*
G37*
G36*
X0000307480Y0000754913D02*
X0000333927Y0000728466D01*
X0000278249Y0000672789D01*
X0000251802Y0000699235D01*
X0000307480Y0000754913D01*
X0000307480Y0000754913D01*
G37*
G36*
X0000329751Y0000732642D02*
X0000356198Y0000706195D01*
X0000300520Y0000650517D01*
X0000274073Y0000676964D01*
X0000329751Y0000732642D01*
X0000329751Y0000732642D01*
G37*
G36*
X0000352022Y0000710371D02*
X0000378469Y0000683924D01*
X0000322791Y0000628246D01*
X0000296344Y0000654693D01*
X0000352022Y0000710371D01*
X0000352022Y0000710371D01*
G37*
G36*
X0000374293Y0000688100D02*
X0000400740Y0000661653D01*
X0000345062Y0000605975D01*
X0000318615Y0000632422D01*
X0000374293Y0000688100D01*
X0000374293Y0000688100D01*
G37*
G36*
X0000396564Y0000665829D02*
X0000423011Y0000639382D01*
X0000367333Y0000583704D01*
X0000340886Y0000610151D01*
X0000396564Y0000665829D01*
X0000396564Y0000665829D01*
G37*
G36*
X0000418835Y0000643558D02*
X0000445282Y0000617111D01*
X0000389604Y0000561433D01*
X0000363157Y0000587880D01*
X0000418835Y0000643558D01*
X0000418835Y0000643558D01*
G37*
G36*
X0000443890Y0000617111D02*
X0000470337Y0000643558D01*
X0000526015Y0000587880D01*
X0000499568Y0000561433D01*
X0000443890Y0000617111D01*
X0000443890Y0000617111D01*
G37*
G36*
X0000466161Y0000639382D02*
X0000492608Y0000665829D01*
X0000548286Y0000610151D01*
X0000521839Y0000583704D01*
X0000466161Y0000639382D01*
X0000466161Y0000639382D01*
G37*
G36*
X0000488432Y0000661653D02*
X0000514879Y0000688100D01*
X0000570557Y0000632422D01*
X0000544110Y0000605975D01*
X0000488432Y0000661653D01*
X0000488432Y0000661653D01*
G37*
G36*
X0000510703Y0000683924D02*
X0000537150Y0000710371D01*
X0000592828Y0000654693D01*
X0000566381Y0000628246D01*
X0000510703Y0000683924D01*
X0000510703Y0000683924D01*
G37*
G36*
X0000532974Y0000706195D02*
X0000559421Y0000732642D01*
X0000615099Y0000676964D01*
X0000588652Y0000650517D01*
X0000532974Y0000706195D01*
X0000532974Y0000706195D01*
G37*
G36*
X0000555246Y0000728466D02*
X0000581692Y0000754913D01*
X0000637370Y0000699235D01*
X0000610923Y0000672789D01*
X0000555246Y0000728466D01*
X0000555246Y0000728466D01*
G37*
G36*
X0000577517Y0000750737D02*
X0000603964Y0000777184D01*
X0000659641Y0000721507D01*
X0000633194Y0000695060D01*
X0000577517Y0000750737D01*
X0000577517Y0000750737D01*
G37*
G36*
X0000599788Y0000773008D02*
X0000626235Y0000799455D01*
X0000681912Y0000743778D01*
X0000655465Y0000717331D01*
X0000599788Y0000773008D01*
X0000599788Y0000773008D01*
G37*
D11*
X0000734586Y0000448759D03*
D12*
X0000734586Y0000348759D03*
X0000734586Y0000248759D03*
X0000734586Y0000148759D03*
D11*
X0000737086Y0000048759D03*
D12*
X0000637086Y0000048759D03*
X0000537086Y0000048759D03*
X0000437086Y0000048759D03*
X0000337086Y0000048759D03*
X0000237086Y0000048759D03*
D14*
X0000565295Y0000196259D03*
X0000203877Y0000196259D03*
X0000206377Y0001486259D03*
X0000567795Y0001486259D03*
D15*
X0000610374Y0001021258D03*
X0000708798Y0001021258D03*
D16*
X0000604625Y0001313759D03*
X0000734547Y0001313759D03*
X0000604625Y0001396259D03*
X0000734547Y0001396259D03*
D17*
X0000502086Y0000453409D03*
X0000502086Y0000347110D03*
D18*
X0000571936Y0001233259D03*
X0000678236Y0001233259D03*
X0000445236Y0001371259D03*
X0000338937Y0001371259D03*
D15*
X0000610873Y0001108259D03*
X0000709299Y0001108259D03*
X0000369874Y0001206259D03*
X0000468298Y0001206259D03*
D19*
X0000507062Y0001113259D03*
X0000379110Y0001113259D03*
D20*
X0000712086Y0001506259D03*
X0000077086Y0000071259D03*
D21*
X0000072086Y0001518759D03*
D17*
X0000377086Y0000451909D03*
X0000377086Y0000345610D03*
D15*
X0000155373Y0000598759D03*
X0000253799Y0000598759D03*
D17*
X0000260085Y0000345259D03*
X0000260085Y0000451559D03*
G01*
D32*
D33*
X-0006692913Y0006574803D02*
X0000034586Y0002202303D03*
D34*
X0000034586Y0002102303D03*
X0000034586Y0002002303D03*
X0000034586Y0001902303D03*
D35*
X0000055531Y0003059803D03*
X0000055531Y0002859803D03*
X0000055531Y0002659803D03*
X0000054586Y0002959803D03*
X0000054586Y0002759803D03*
D32*
G36*
X0000655465Y0002533731D02*
X0000681912Y0002507284D01*
X0000626235Y0002451607D01*
X0000599788Y0002478054D01*
X0000655465Y0002533731D01*
X0000655465Y0002533731D01*
G37*
G36*
X0000633194Y0002556002D02*
X0000659641Y0002529555D01*
X0000603964Y0002473878D01*
X0000577517Y0002500325D01*
X0000633194Y0002556002D01*
X0000633194Y0002556002D01*
G37*
G36*
X0000610923Y0002578273D02*
X0000637370Y0002551827D01*
X0000581692Y0002496149D01*
X0000555246Y0002522596D01*
X0000610923Y0002578273D01*
X0000610923Y0002578273D01*
G37*
G36*
X0000588652Y0002600544D02*
X0000615099Y0002574098D01*
X0000559421Y0002518420D01*
X0000532974Y0002544867D01*
X0000588652Y0002600544D01*
X0000588652Y0002600544D01*
G37*
G36*
X0000566381Y0002622816D02*
X0000592828Y0002596368D01*
X0000537150Y0002540691D01*
X0000510703Y0002567138D01*
X0000566381Y0002622816D01*
X0000566381Y0002622816D01*
G37*
G36*
X0000544110Y0002645087D02*
X0000570557Y0002618640D01*
X0000514879Y0002562962D01*
X0000488432Y0002589409D01*
X0000544110Y0002645087D01*
X0000544110Y0002645087D01*
G37*
G36*
X0000521839Y0002667357D02*
X0000548286Y0002640911D01*
X0000492608Y0002585233D01*
X0000466161Y0002611680D01*
X0000521839Y0002667357D01*
X0000521839Y0002667357D01*
G37*
G36*
X0000499568Y0002689628D02*
X0000526015Y0002663182D01*
X0000470337Y0002607504D01*
X0000443890Y0002633951D01*
X0000499568Y0002689628D01*
X0000499568Y0002689628D01*
G37*
G36*
X0000363157Y0002663182D02*
X0000389604Y0002689628D01*
X0000445282Y0002633951D01*
X0000418835Y0002607504D01*
X0000363157Y0002663182D01*
X0000363157Y0002663182D01*
G37*
G36*
X0000340886Y0002640911D02*
X0000367333Y0002667357D01*
X0000423011Y0002611680D01*
X0000396564Y0002585233D01*
X0000340886Y0002640911D01*
X0000340886Y0002640911D01*
G37*
G36*
X0000318615Y0002618640D02*
X0000345062Y0002645087D01*
X0000400740Y0002589409D01*
X0000374293Y0002562962D01*
X0000318615Y0002618640D01*
X0000318615Y0002618640D01*
G37*
G36*
X0000296344Y0002596368D02*
X0000322791Y0002622816D01*
X0000378469Y0002567138D01*
X0000352022Y0002540691D01*
X0000296344Y0002596368D01*
X0000296344Y0002596368D01*
G37*
G36*
X0000274073Y0002574098D02*
X0000300520Y0002600544D01*
X0000356198Y0002544867D01*
X0000329751Y0002518420D01*
X0000274073Y0002574098D01*
X0000274073Y0002574098D01*
G37*
G36*
X0000251802Y0002551827D02*
X0000278249Y0002578273D01*
X0000333927Y0002522596D01*
X0000307480Y0002496149D01*
X0000251802Y0002551827D01*
X0000251802Y0002551827D01*
G37*
G36*
X0000229531Y0002529555D02*
X0000255977Y0002556002D01*
X0000311656Y0002500325D01*
X0000285209Y0002473878D01*
X0000229531Y0002529555D01*
X0000229531Y0002529555D01*
G37*
G36*
X0000207260Y0002507284D02*
X0000233706Y0002533731D01*
X0000289385Y0002478054D01*
X0000262938Y0002451607D01*
X0000207260Y0002507284D01*
X0000207260Y0002507284D01*
G37*
G36*
X0000262938Y0002452999D02*
X0000289385Y0002426552D01*
X0000233706Y0002370874D01*
X0000207260Y0002397321D01*
X0000262938Y0002452999D01*
X0000262938Y0002452999D01*
G37*
G36*
X0000285209Y0002430728D02*
X0000311656Y0002404281D01*
X0000255977Y0002348603D01*
X0000229531Y0002375050D01*
X0000285209Y0002430728D01*
X0000285209Y0002430728D01*
G37*
G36*
X0000307480Y0002408456D02*
X0000333927Y0002382010D01*
X0000278249Y0002326332D01*
X0000251802Y0002352779D01*
X0000307480Y0002408456D01*
X0000307480Y0002408456D01*
G37*
G36*
X0000329751Y0002386185D02*
X0000356198Y0002359738D01*
X0000300520Y0002304061D01*
X0000274073Y0002330508D01*
X0000329751Y0002386185D01*
X0000329751Y0002386185D01*
G37*
G36*
X0000352022Y0002363914D02*
X0000378469Y0002337467D01*
X0000322791Y0002281790D01*
X0000296344Y0002308237D01*
X0000352022Y0002363914D01*
X0000352022Y0002363914D01*
G37*
G36*
X0000374293Y0002341643D02*
X0000400740Y0002315196D01*
X0000345062Y0002259519D01*
X0000318615Y0002285966D01*
X0000374293Y0002341643D01*
X0000374293Y0002341643D01*
G37*
G36*
X0000396564Y0002319372D02*
X0000423011Y0002292925D01*
X0000367333Y0002237248D01*
X0000340886Y0002263694D01*
X0000396564Y0002319372D01*
X0000396564Y0002319372D01*
G37*
G36*
X0000418835Y0002297101D02*
X0000445282Y0002270654D01*
X0000389604Y0002214976D01*
X0000363157Y0002241423D01*
X0000418835Y0002297101D01*
X0000418835Y0002297101D01*
G37*
G36*
X0000443890Y0002270654D02*
X0000470337Y0002297101D01*
X0000526015Y0002241423D01*
X0000499568Y0002214976D01*
X0000443890Y0002270654D01*
X0000443890Y0002270654D01*
G37*
G36*
X0000466161Y0002292925D02*
X0000492608Y0002319372D01*
X0000548286Y0002263694D01*
X0000521839Y0002237248D01*
X0000466161Y0002292925D01*
X0000466161Y0002292925D01*
G37*
G36*
X0000488432Y0002315196D02*
X0000514879Y0002341643D01*
X0000570557Y0002285966D01*
X0000544110Y0002259519D01*
X0000488432Y0002315196D01*
X0000488432Y0002315196D01*
G37*
G36*
X0000510703Y0002337467D02*
X0000537150Y0002363914D01*
X0000592828Y0002308237D01*
X0000566381Y0002281790D01*
X0000510703Y0002337467D01*
X0000510703Y0002337467D01*
G37*
G36*
X0000532974Y0002359738D02*
X0000559421Y0002386185D01*
X0000615099Y0002330508D01*
X0000588652Y0002304061D01*
X0000532974Y0002359738D01*
X0000532974Y0002359738D01*
G37*
G36*
X0000555246Y0002382010D02*
X0000581692Y0002408456D01*
X0000637370Y0002352779D01*
X0000610923Y0002326332D01*
X0000555246Y0002382010D01*
X0000555246Y0002382010D01*
G37*
G36*
X0000577517Y0002404281D02*
X0000603964Y0002430728D01*
X0000659641Y0002375050D01*
X0000633194Y0002348603D01*
X0000577517Y0002404281D01*
X0000577517Y0002404281D01*
G37*
G36*
X0000599788Y0002426552D02*
X0000626235Y0002452999D01*
X0000681912Y0002397321D01*
X0000655465Y0002370874D01*
X0000599788Y0002426552D01*
X0000599788Y0002426552D01*
G37*
D33*
X0000734586Y0002102303D03*
D34*
X0000734586Y0002002303D03*
X0000734586Y0001902303D03*
X0000734586Y0001802303D03*
D33*
X0000737086Y0001702303D03*
D34*
X0000637086Y0001702303D03*
X0000537086Y0001702303D03*
X0000437086Y0001702303D03*
X0000337086Y0001702303D03*
X0000237086Y0001702303D03*
D36*
X0000565295Y0001849803D03*
X0000203877Y0001849803D03*
X0000206377Y0003139803D03*
X0000567795Y0003139803D03*
D37*
X0000610374Y0002674803D03*
X0000708798Y0002674803D03*
D38*
X0000604625Y0002967303D03*
X0000734547Y0002967303D03*
X0000604625Y0003049803D03*
X0000734547Y0003049803D03*
D39*
X0000502086Y0002106952D03*
X0000502086Y0002000652D03*
D40*
X0000571936Y0002886803D03*
X0000678236Y0002886803D03*
X0000445236Y0003024803D03*
X0000338937Y0003024803D03*
D37*
X0000610873Y0002761803D03*
X0000709299Y0002761803D03*
X0000369874Y0002859803D03*
X0000468298Y0002859803D03*
D41*
X0000507062Y0002766803D03*
X0000379110Y0002766803D03*
D42*
X0000712086Y0003159803D03*
X0000077086Y0001724803D03*
D43*
X0000072086Y0003172303D03*
D39*
X0000377086Y0002105452D03*
X0000377086Y0001999153D03*
D37*
X0000155373Y0002252303D03*
X0000253799Y0002252303D03*
D39*
X0000260085Y0001998803D03*
X0000260085Y0002105102D03*
G01*
D54*
D55*
X-0005826771Y0004921259D02*
X0000900728Y0000548759D03*
D56*
X0000900728Y0000448759D03*
X0000900728Y0000348759D03*
X0000900728Y0000248759D03*
D57*
X0000921673Y0001406258D03*
X0000921673Y0001206259D03*
X0000921673Y0001006259D03*
X0000920728Y0001306259D03*
X0000920728Y0001106259D03*
D54*
G36*
X0001521607Y0000880188D02*
X0001548054Y0000853740D01*
X0001492376Y0000798062D01*
X0001465929Y0000824510D01*
X0001521607Y0000880188D01*
X0001521607Y0000880188D01*
G37*
G36*
X0001499336Y0000902459D02*
X0001525783Y0000876011D01*
X0001470105Y0000820333D01*
X0001443658Y0000846781D01*
X0001499336Y0000902459D01*
X0001499336Y0000902459D01*
G37*
G36*
X0001477065Y0000924730D02*
X0001503512Y0000898283D01*
X0001447834Y0000842604D01*
X0001421385Y0000869052D01*
X0001477065Y0000924730D01*
X0001477065Y0000924730D01*
G37*
G36*
X0001454794Y0000947001D02*
X0001481241Y0000920554D01*
X0001425563Y0000864877D01*
X0001399116Y0000891323D01*
X0001454794Y0000947001D01*
X0001454794Y0000947001D01*
G37*
G36*
X0001432523Y0000969272D02*
X0001458970Y0000942825D01*
X0001403292Y0000887148D01*
X0001376845Y0000913595D01*
X0001432523Y0000969272D01*
X0001432523Y0000969272D01*
G37*
G36*
X0001410252Y0000991542D02*
X0001436699Y0000965096D01*
X0001381021Y0000909418D01*
X0001354574Y0000935866D01*
X0001410252Y0000991542D01*
X0001410252Y0000991542D01*
G37*
G36*
X0001387981Y0001013814D02*
X0001414428Y0000987367D01*
X0001358750Y0000931689D01*
X0001332303Y0000958137D01*
X0001387981Y0001013814D01*
X0001387981Y0001013814D01*
G37*
G36*
X0001365710Y0001036086D02*
X0001392156Y0001009639D01*
X0001336479Y0000953961D01*
X0001310032Y0000980408D01*
X0001365710Y0001036086D01*
X0001365710Y0001036086D01*
G37*
G36*
X0001229299Y0001009639D02*
X0001255746Y0001036086D01*
X0001311424Y0000980408D01*
X0001284977Y0000953961D01*
X0001229299Y0001009639D01*
X0001229299Y0001009639D01*
G37*
G36*
X0001207028Y0000987367D02*
X0001233475Y0001013814D01*
X0001289153Y0000958137D01*
X0001262706Y0000931689D01*
X0001207028Y0000987367D01*
X0001207028Y0000987367D01*
G37*
G36*
X0001184757Y0000965096D02*
X0001211204Y0000991542D01*
X0001266882Y0000935866D01*
X0001240435Y0000909418D01*
X0001184757Y0000965096D01*
X0001184757Y0000965096D01*
G37*
G36*
X0001162486Y0000942825D02*
X0001188933Y0000969272D01*
X0001244611Y0000913595D01*
X0001218164Y0000887148D01*
X0001162486Y0000942825D01*
X0001162486Y0000942825D01*
G37*
G36*
X0001140215Y0000920554D02*
X0001166662Y0000947001D01*
X0001222340Y0000891323D01*
X0001195893Y0000864877D01*
X0001140215Y0000920554D01*
X0001140215Y0000920554D01*
G37*
G36*
X0001117944Y0000898283D02*
X0001144391Y0000924730D01*
X0001200068Y0000869052D01*
X0001173622Y0000842604D01*
X0001117944Y0000898283D01*
X0001117944Y0000898283D01*
G37*
G36*
X0001095673Y0000876011D02*
X0001122120Y0000902459D01*
X0001177797Y0000846781D01*
X0001151350Y0000820333D01*
X0001095673Y0000876011D01*
X0001095673Y0000876011D01*
G37*
G36*
X0001073402Y0000853740D02*
X0001099849Y0000880188D01*
X0001155526Y0000824510D01*
X0001129079Y0000798062D01*
X0001073402Y0000853740D01*
X0001073402Y0000853740D01*
G37*
G36*
X0001129079Y0000799455D02*
X0001155526Y0000773008D01*
X0001099849Y0000717331D01*
X0001073402Y0000743778D01*
X0001129079Y0000799455D01*
X0001129079Y0000799455D01*
G37*
G36*
X0001151350Y0000777184D02*
X0001177797Y0000750737D01*
X0001122120Y0000695060D01*
X0001095673Y0000721507D01*
X0001151350Y0000777184D01*
X0001151350Y0000777184D01*
G37*
G36*
X0001173622Y0000754913D02*
X0001200068Y0000728466D01*
X0001144391Y0000672789D01*
X0001117944Y0000699235D01*
X0001173622Y0000754913D01*
X0001173622Y0000754913D01*
G37*
G36*
X0001195893Y0000732642D02*
X0001222340Y0000706195D01*
X0001166662Y0000650517D01*
X0001140215Y0000676964D01*
X0001195893Y0000732642D01*
X0001195893Y0000732642D01*
G37*
G36*
X0001218164Y0000710371D02*
X0001244611Y0000683924D01*
X0001188933Y0000628246D01*
X0001162486Y0000654693D01*
X0001218164Y0000710371D01*
X0001218164Y0000710371D01*
G37*
G36*
X0001240435Y0000688100D02*
X0001266882Y0000661653D01*
X0001211204Y0000605975D01*
X0001184757Y0000632422D01*
X0001240435Y0000688100D01*
X0001240435Y0000688100D01*
G37*
G36*
X0001262706Y0000665829D02*
X0001289153Y0000639382D01*
X0001233475Y0000583704D01*
X0001207028Y0000610151D01*
X0001262706Y0000665829D01*
X0001262706Y0000665829D01*
G37*
G36*
X0001284977Y0000643558D02*
X0001311424Y0000617111D01*
X0001255746Y0000561433D01*
X0001229299Y0000587880D01*
X0001284977Y0000643558D01*
X0001284977Y0000643558D01*
G37*
G36*
X0001310032Y0000617111D02*
X0001336479Y0000643558D01*
X0001392156Y0000587880D01*
X0001365710Y0000561433D01*
X0001310032Y0000617111D01*
X0001310032Y0000617111D01*
G37*
G36*
X0001332303Y0000639382D02*
X0001358750Y0000665829D01*
X0001414428Y0000610151D01*
X0001387981Y0000583704D01*
X0001332303Y0000639382D01*
X0001332303Y0000639382D01*
G37*
G36*
X0001354574Y0000661653D02*
X0001381021Y0000688100D01*
X0001436699Y0000632422D01*
X0001410252Y0000605975D01*
X0001354574Y0000661653D01*
X0001354574Y0000661653D01*
G37*
G36*
X0001376845Y0000683924D02*
X0001403292Y0000710371D01*
X0001458970Y0000654693D01*
X0001432523Y0000628246D01*
X0001376845Y0000683924D01*
X0001376845Y0000683924D01*
G37*
G36*
X0001399116Y0000706195D02*
X0001425563Y0000732642D01*
X0001481241Y0000676964D01*
X0001454794Y0000650517D01*
X0001399116Y0000706195D01*
X0001399116Y0000706195D01*
G37*
G36*
X0001421385Y0000728466D02*
X0001447834Y0000754913D01*
X0001503512Y0000699235D01*
X0001477065Y0000672789D01*
X0001421385Y0000728466D01*
X0001421385Y0000728466D01*
G37*
G36*
X0001443658Y0000750737D02*
X0001470105Y0000777184D01*
X0001525783Y0000721507D01*
X0001499336Y0000695060D01*
X0001443658Y0000750737D01*
X0001443658Y0000750737D01*
G37*
G36*
X0001465929Y0000773008D02*
X0001492376Y0000799455D01*
X0001548054Y0000743778D01*
X0001521607Y0000717331D01*
X0001465929Y0000773008D01*
X0001465929Y0000773008D01*
G37*
D55*
X0001600728Y0000448759D03*
D56*
X0001600728Y0000348759D03*
X0001600728Y0000248759D03*
X0001600728Y0000148759D03*
D55*
X0001603228Y0000048759D03*
D56*
X0001503228Y0000048759D03*
X0001403227Y0000048759D03*
X0001303228Y0000048759D03*
X0001203228Y0000048759D03*
X0001103228Y0000048759D03*
D58*
X0001431436Y0000196259D03*
X0001070019Y0000196259D03*
X0001072519Y0001486259D03*
X0001433937Y0001486259D03*
D59*
X0001476515Y0001021258D03*
X0001574940Y0001021258D03*
D60*
X0001470767Y0001313759D03*
X0001600688Y0001313759D03*
X0001470767Y0001396259D03*
X0001600688Y0001396259D03*
D61*
X0001368228Y0000453409D03*
X0001368228Y0000347110D03*
D62*
X0001438077Y0001233259D03*
X0001544377Y0001233259D03*
X0001311377Y0001371259D03*
X0001205078Y0001371259D03*
D59*
X0001477015Y0001108259D03*
X0001575440Y0001108259D03*
X0001236015Y0001206259D03*
X0001334440Y0001206259D03*
D63*
X0001373204Y0001113259D03*
X0001245251Y0001113259D03*
D64*
X0001578228Y0001506259D03*
X0000943228Y0000071259D03*
D65*
X0000938228Y0001518759D03*
D61*
X0001243228Y0000451909D03*
X0001243228Y0000345610D03*
D59*
X0001021515Y0000598759D03*
X0001119940Y0000598759D03*
D61*
X0001126228Y0000345259D03*
X0001126228Y0000451559D03*
G01*
D76*
D77*
X-0004960629Y0004921259D02*
X0001766870Y0000548759D03*
D78*
X0001766870Y0000448759D03*
X0001766870Y0000348759D03*
X0001766870Y0000248759D03*
D79*
X0001787814Y0001406258D03*
X0001787814Y0001206259D03*
X0001787814Y0001006259D03*
X0001786870Y0001306259D03*
X0001786870Y0001106259D03*
D76*
G36*
X0002387749Y0000880188D02*
X0002414196Y0000853740D01*
X0002358518Y0000798062D01*
X0002332071Y0000824510D01*
X0002387749Y0000880188D01*
X0002387749Y0000880188D01*
G37*
G36*
X0002365478Y0000902459D02*
X0002391925Y0000876011D01*
X0002336247Y0000820333D01*
X0002309800Y0000846781D01*
X0002365478Y0000902459D01*
X0002365478Y0000902459D01*
G37*
G36*
X0002343207Y0000924730D02*
X0002369654Y0000898283D01*
X0002313976Y0000842604D01*
X0002287529Y0000869052D01*
X0002343207Y0000924730D01*
X0002343207Y0000924730D01*
G37*
G36*
X0002320936Y0000947001D02*
X0002347383Y0000920554D01*
X0002291705Y0000864877D01*
X0002265258Y0000891323D01*
X0002320936Y0000947001D01*
X0002320936Y0000947001D01*
G37*
G36*
X0002298665Y0000969272D02*
X0002325111Y0000942825D01*
X0002269434Y0000887148D01*
X0002242987Y0000913595D01*
X0002298665Y0000969272D01*
X0002298665Y0000969272D01*
G37*
G36*
X0002276393Y0000991542D02*
X0002302840Y0000965096D01*
X0002247163Y0000909418D01*
X0002220716Y0000935866D01*
X0002276393Y0000991542D01*
X0002276393Y0000991542D01*
G37*
G36*
X0002254122Y0001013814D02*
X0002280569Y0000987367D01*
X0002224892Y0000931689D01*
X0002198445Y0000958137D01*
X0002254122Y0001013814D01*
X0002254122Y0001013814D01*
G37*
G36*
X0002231851Y0001036086D02*
X0002258298Y0001009639D01*
X0002202621Y0000953961D01*
X0002176174Y0000980408D01*
X0002231851Y0001036086D01*
X0002231851Y0001036086D01*
G37*
G36*
X0002095441Y0001009639D02*
X0002121888Y0001036086D01*
X0002177566Y0000980408D01*
X0002151119Y0000953961D01*
X0002095441Y0001009639D01*
X0002095441Y0001009639D01*
G37*
G36*
X0002073170Y0000987367D02*
X0002099617Y0001013814D01*
X0002155295Y0000958137D01*
X0002128848Y0000931689D01*
X0002073170Y0000987367D01*
X0002073170Y0000987367D01*
G37*
G36*
X0002050898Y0000965096D02*
X0002077346Y0000991542D01*
X0002133023Y0000935866D01*
X0002106576Y0000909418D01*
X0002050898Y0000965096D01*
X0002050898Y0000965096D01*
G37*
G36*
X0002028627Y0000942825D02*
X0002055075Y0000969272D01*
X0002110752Y0000913595D01*
X0002084305Y0000887148D01*
X0002028627Y0000942825D01*
X0002028627Y0000942825D01*
G37*
G36*
X0002006357Y0000920554D02*
X0002032803Y0000947001D01*
X0002088480Y0000891323D01*
X0002062034Y0000864877D01*
X0002006357Y0000920554D01*
X0002006357Y0000920554D01*
G37*
G36*
X0001984085Y0000898283D02*
X0002010532Y0000924730D01*
X0002066209Y0000869052D01*
X0002039763Y0000842604D01*
X0001984085Y0000898283D01*
X0001984085Y0000898283D01*
G37*
G36*
X0001961814Y0000876011D02*
X0001988261Y0000902459D01*
X0002043939Y0000846781D01*
X0002017491Y0000820333D01*
X0001961814Y0000876011D01*
X0001961814Y0000876011D01*
G37*
G36*
X0001939543Y0000853740D02*
X0001965990Y0000880188D01*
X0002021668Y0000824510D01*
X0001995221Y0000798062D01*
X0001939543Y0000853740D01*
X0001939543Y0000853740D01*
G37*
G36*
X0001995221Y0000799455D02*
X0002021668Y0000773008D01*
X0001965990Y0000717331D01*
X0001939543Y0000743778D01*
X0001995221Y0000799455D01*
X0001995221Y0000799455D01*
G37*
G36*
X0002017491Y0000777184D02*
X0002043939Y0000750737D01*
X0001988261Y0000695060D01*
X0001961814Y0000721507D01*
X0002017491Y0000777184D01*
X0002017491Y0000777184D01*
G37*
G36*
X0002039763Y0000754913D02*
X0002066209Y0000728466D01*
X0002010532Y0000672789D01*
X0001984085Y0000699235D01*
X0002039763Y0000754913D01*
X0002039763Y0000754913D01*
G37*
G36*
X0002062034Y0000732642D02*
X0002088480Y0000706195D01*
X0002032803Y0000650517D01*
X0002006357Y0000676964D01*
X0002062034Y0000732642D01*
X0002062034Y0000732642D01*
G37*
G36*
X0002084305Y0000710371D02*
X0002110752Y0000683924D01*
X0002055075Y0000628246D01*
X0002028627Y0000654693D01*
X0002084305Y0000710371D01*
X0002084305Y0000710371D01*
G37*
G36*
X0002106576Y0000688100D02*
X0002133023Y0000661653D01*
X0002077346Y0000605975D01*
X0002050898Y0000632422D01*
X0002106576Y0000688100D01*
X0002106576Y0000688100D01*
G37*
G36*
X0002128848Y0000665829D02*
X0002155295Y0000639382D01*
X0002099617Y0000583704D01*
X0002073170Y0000610151D01*
X0002128848Y0000665829D01*
X0002128848Y0000665829D01*
G37*
G36*
X0002151119Y0000643558D02*
X0002177566Y0000617111D01*
X0002121888Y0000561433D01*
X0002095441Y0000587880D01*
X0002151119Y0000643558D01*
X0002151119Y0000643558D01*
G37*
G36*
X0002176174Y0000617111D02*
X0002202621Y0000643558D01*
X0002258298Y0000587880D01*
X0002231851Y0000561433D01*
X0002176174Y0000617111D01*
X0002176174Y0000617111D01*
G37*
G36*
X0002198445Y0000639382D02*
X0002224892Y0000665829D01*
X0002280569Y0000610151D01*
X0002254122Y0000583704D01*
X0002198445Y0000639382D01*
X0002198445Y0000639382D01*
G37*
G36*
X0002220716Y0000661653D02*
X0002247163Y0000688100D01*
X0002302840Y0000632422D01*
X0002276393Y0000605975D01*
X0002220716Y0000661653D01*
X0002220716Y0000661653D01*
G37*
G36*
X0002242987Y0000683924D02*
X0002269434Y0000710371D01*
X0002325111Y0000654693D01*
X0002298665Y0000628246D01*
X0002242987Y0000683924D01*
X0002242987Y0000683924D01*
G37*
G36*
X0002265258Y0000706195D02*
X0002291705Y0000732642D01*
X0002347383Y0000676964D01*
X0002320936Y0000650517D01*
X0002265258Y0000706195D01*
X0002265258Y0000706195D01*
G37*
G36*
X0002287529Y0000728466D02*
X0002313976Y0000754913D01*
X0002369654Y0000699235D01*
X0002343207Y0000672789D01*
X0002287529Y0000728466D01*
X0002287529Y0000728466D01*
G37*
G36*
X0002309800Y0000750737D02*
X0002336247Y0000777184D01*
X0002391925Y0000721507D01*
X0002365478Y0000695060D01*
X0002309800Y0000750737D01*
X0002309800Y0000750737D01*
G37*
G36*
X0002332071Y0000773008D02*
X0002358518Y0000799455D01*
X0002414196Y0000743778D01*
X0002387749Y0000717331D01*
X0002332071Y0000773008D01*
X0002332071Y0000773008D01*
G37*
D77*
X0002466870Y0000448759D03*
D78*
X0002466870Y0000348759D03*
X0002466870Y0000248759D03*
X0002466870Y0000148759D03*
D77*
X0002469370Y0000048759D03*
D78*
X0002369370Y0000048759D03*
X0002269370Y0000048759D03*
X0002169370Y0000048759D03*
X0002069370Y0000048759D03*
X0001969370Y0000048759D03*
D80*
X0002297578Y0000196259D03*
X0001936161Y0000196259D03*
X0001938661Y0001486259D03*
X0002300078Y0001486259D03*
D81*
X0002342657Y0001021258D03*
X0002441082Y0001021258D03*
D82*
X0002336909Y0001313759D03*
X0002466830Y0001313759D03*
X0002336909Y0001396259D03*
X0002466830Y0001396259D03*
D83*
X0002234370Y0000453409D03*
X0002234370Y0000347110D03*
D84*
X0002304220Y0001233259D03*
X0002410519Y0001233259D03*
X0002177519Y0001371259D03*
X0002071219Y0001371259D03*
D81*
X0002343157Y0001108259D03*
X0002441582Y0001108259D03*
X0002102157Y0001206259D03*
X0002200582Y0001206259D03*
D85*
X0002239346Y0001113259D03*
X0002111393Y0001113259D03*
D86*
X0002444370Y0001506259D03*
X0001809370Y0000071259D03*
D87*
X0001804370Y0001518759D03*
D83*
X0002109370Y0000451909D03*
X0002109370Y0000345610D03*
D81*
X0001887657Y0000598759D03*
X0001986081Y0000598759D03*
D83*
X0001992370Y0000345259D03*
X0001992370Y0000451559D03*
G04 next file*
%LPD*%
G01*
D98*
D99*
X-0004094488Y0004921259D02*
X0002633011Y0000548759D03*
D100*
X0002633011Y0000448759D03*
X0002633011Y0000348759D03*
X0002633011Y0000248759D03*
D101*
X0002653956Y0001406258D03*
X0002653956Y0001206259D03*
X0002653956Y0001006259D03*
X0002653010Y0001306259D03*
X0002653010Y0001106259D03*
D98*
G36*
X0003253891Y0000880188D02*
X0003280337Y0000853740D01*
X0003224660Y0000798062D01*
X0003198213Y0000824510D01*
X0003253891Y0000880188D01*
X0003253891Y0000880188D01*
G37*
G36*
X0003231620Y0000902459D02*
X0003258065Y0000876011D01*
X0003202389Y0000820333D01*
X0003175942Y0000846781D01*
X0003231620Y0000902459D01*
X0003231620Y0000902459D01*
G37*
G36*
X0003209348Y0000924730D02*
X0003235794Y0000898283D01*
X0003180118Y0000842604D01*
X0003153671Y0000869052D01*
X0003209348Y0000924730D01*
X0003209348Y0000924730D01*
G37*
G36*
X0003187077Y0000947001D02*
X0003213524Y0000920554D01*
X0003157847Y0000864877D01*
X0003131400Y0000891323D01*
X0003187077Y0000947001D01*
X0003187077Y0000947001D01*
G37*
G36*
X0003164805Y0000969272D02*
X0003191253Y0000942825D01*
X0003135575Y0000887148D01*
X0003109129Y0000913595D01*
X0003164805Y0000969272D01*
X0003164805Y0000969272D01*
G37*
G36*
X0003142534Y0000991542D02*
X0003168982Y0000965096D01*
X0003113304Y0000909418D01*
X0003086857Y0000935866D01*
X0003142534Y0000991542D01*
X0003142534Y0000991542D01*
G37*
G36*
X0003120264Y0001013814D02*
X0003146710Y0000987367D01*
X0003091033Y0000931689D01*
X0003064586Y0000958137D01*
X0003120264Y0001013814D01*
X0003120264Y0001013814D01*
G37*
G36*
X0003097993Y0001036086D02*
X0003124440Y0001009639D01*
X0003068762Y0000953961D01*
X0003042315Y0000980408D01*
X0003097993Y0001036086D01*
X0003097993Y0001036086D01*
G37*
G36*
X0002961583Y0001009639D02*
X0002988030Y0001036086D01*
X0003043707Y0000980408D01*
X0003017260Y0000953961D01*
X0002961583Y0001009639D01*
X0002961583Y0001009639D01*
G37*
G36*
X0002939312Y0000987367D02*
X0002965758Y0001013814D01*
X0003021436Y0000958137D01*
X0002994989Y0000931689D01*
X0002939312Y0000987367D01*
X0002939312Y0000987367D01*
G37*
G36*
X0002917040Y0000965096D02*
X0002943487Y0000991542D01*
X0002999165Y0000935866D01*
X0002972718Y0000909418D01*
X0002917040Y0000965096D01*
X0002917040Y0000965096D01*
G37*
G36*
X0002894769Y0000942825D02*
X0002921216Y0000969272D01*
X0002976894Y0000913595D01*
X0002950447Y0000887148D01*
X0002894769Y0000942825D01*
X0002894769Y0000942825D01*
G37*
G36*
X0002872498Y0000920554D02*
X0002898945Y0000947001D01*
X0002954623Y0000891323D01*
X0002928176Y0000864877D01*
X0002872498Y0000920554D01*
X0002872498Y0000920554D01*
G37*
G36*
X0002850227Y0000898283D02*
X0002876674Y0000924730D01*
X0002932352Y0000869052D01*
X0002905905Y0000842604D01*
X0002850227Y0000898283D01*
X0002850227Y0000898283D01*
G37*
G36*
X0002827956Y0000876011D02*
X0002854403Y0000902459D01*
X0002910081Y0000846781D01*
X0002883634Y0000820333D01*
X0002827956Y0000876011D01*
X0002827956Y0000876011D01*
G37*
G36*
X0002805685Y0000853740D02*
X0002832132Y0000880188D01*
X0002887810Y0000824510D01*
X0002861363Y0000798062D01*
X0002805685Y0000853740D01*
X0002805685Y0000853740D01*
G37*
G36*
X0002861363Y0000799455D02*
X0002887810Y0000773008D01*
X0002832132Y0000717331D01*
X0002805685Y0000743778D01*
X0002861363Y0000799455D01*
X0002861363Y0000799455D01*
G37*
G36*
X0002883634Y0000777184D02*
X0002910081Y0000750737D01*
X0002854403Y0000695060D01*
X0002827956Y0000721507D01*
X0002883634Y0000777184D01*
X0002883634Y0000777184D01*
G37*
G36*
X0002905905Y0000754913D02*
X0002932352Y0000728466D01*
X0002876674Y0000672789D01*
X0002850227Y0000699235D01*
X0002905905Y0000754913D01*
X0002905905Y0000754913D01*
G37*
G36*
X0002928176Y0000732642D02*
X0002954623Y0000706195D01*
X0002898945Y0000650517D01*
X0002872498Y0000676964D01*
X0002928176Y0000732642D01*
X0002928176Y0000732642D01*
G37*
G36*
X0002950447Y0000710371D02*
X0002976894Y0000683924D01*
X0002921216Y0000628246D01*
X0002894769Y0000654693D01*
X0002950447Y0000710371D01*
X0002950447Y0000710371D01*
G37*
G36*
X0002972718Y0000688100D02*
X0002999165Y0000661653D01*
X0002943487Y0000605975D01*
X0002917040Y0000632422D01*
X0002972718Y0000688100D01*
X0002972718Y0000688100D01*
G37*
G36*
X0002994989Y0000665829D02*
X0003021436Y0000639382D01*
X0002965758Y0000583704D01*
X0002939312Y0000610151D01*
X0002994989Y0000665829D01*
X0002994989Y0000665829D01*
G37*
G36*
X0003017260Y0000643558D02*
X0003043707Y0000617111D01*
X0002988030Y0000561433D01*
X0002961583Y0000587880D01*
X0003017260Y0000643558D01*
X0003017260Y0000643558D01*
G37*
G36*
X0003042315Y0000617111D02*
X0003068762Y0000643558D01*
X0003124440Y0000587880D01*
X0003097993Y0000561433D01*
X0003042315Y0000617111D01*
X0003042315Y0000617111D01*
G37*
G36*
X0003064586Y0000639382D02*
X0003091033Y0000665829D01*
X0003146710Y0000610151D01*
X0003120264Y0000583704D01*
X0003064586Y0000639382D01*
X0003064586Y0000639382D01*
G37*
G36*
X0003086857Y0000661653D02*
X0003113304Y0000688100D01*
X0003168982Y0000632422D01*
X0003142534Y0000605975D01*
X0003086857Y0000661653D01*
X0003086857Y0000661653D01*
G37*
G36*
X0003109129Y0000683924D02*
X0003135575Y0000710371D01*
X0003191253Y0000654693D01*
X0003164805Y0000628246D01*
X0003109129Y0000683924D01*
X0003109129Y0000683924D01*
G37*
G36*
X0003131400Y0000706195D02*
X0003157847Y0000732642D01*
X0003213524Y0000676964D01*
X0003187077Y0000650517D01*
X0003131400Y0000706195D01*
X0003131400Y0000706195D01*
G37*
G36*
X0003153671Y0000728466D02*
X0003180118Y0000754913D01*
X0003235794Y0000699235D01*
X0003209348Y0000672789D01*
X0003153671Y0000728466D01*
X0003153671Y0000728466D01*
G37*
G36*
X0003175942Y0000750737D02*
X0003202389Y0000777184D01*
X0003258065Y0000721507D01*
X0003231620Y0000695060D01*
X0003175942Y0000750737D01*
X0003175942Y0000750737D01*
G37*
G36*
X0003198213Y0000773008D02*
X0003224660Y0000799455D01*
X0003280337Y0000743778D01*
X0003253891Y0000717331D01*
X0003198213Y0000773008D01*
X0003198213Y0000773008D01*
G37*
D99*
X0003333011Y0000448759D03*
D100*
X0003333011Y0000348759D03*
X0003333011Y0000248759D03*
X0003333011Y0000148759D03*
D99*
X0003335511Y0000048759D03*
D100*
X0003235511Y0000048759D03*
X0003135511Y0000048759D03*
X0003035510Y0000048759D03*
X0002935511Y0000048759D03*
X0002835511Y0000048759D03*
D102*
X0003163720Y0000196259D03*
X0002802303Y0000196259D03*
X0002804803Y0001486259D03*
X0003166220Y0001486259D03*
D103*
X0003208799Y0001021258D03*
X0003307224Y0001021258D03*
D104*
X0003203051Y0001313759D03*
X0003332972Y0001313759D03*
X0003203051Y0001396259D03*
X0003332972Y0001396259D03*
D105*
X0003100511Y0000453409D03*
X0003100511Y0000347110D03*
D106*
X0003170362Y0001233259D03*
X0003276661Y0001233259D03*
X0003043661Y0001371259D03*
X0002937362Y0001371259D03*
D103*
X0003209298Y0001108259D03*
X0003307724Y0001108259D03*
X0002968299Y0001206259D03*
X0003066724Y0001206259D03*
D107*
X0003105488Y0001113259D03*
X0002977535Y0001113259D03*
D108*
X0003310511Y0001506259D03*
X0002675511Y0000071259D03*
D109*
X0002670511Y0001518759D03*
D105*
X0002975510Y0000451909D03*
X0002975510Y0000345610D03*
D103*
X0002753799Y0000598759D03*
X0002852223Y0000598759D03*
D105*
X0002858511Y0000345259D03*
X0002858511Y0000451559D03*
G01*
D120*
D121*
X-0005826771Y0006574803D02*
X0000900728Y0002202303D03*
D122*
X0000900728Y0002102303D03*
X0000900728Y0002002303D03*
X0000900728Y0001902303D03*
D123*
X0000921673Y0003059803D03*
X0000921673Y0002859803D03*
X0000921673Y0002659803D03*
X0000920728Y0002959803D03*
X0000920728Y0002759803D03*
D120*
G36*
X0001521607Y0002533731D02*
X0001548054Y0002507284D01*
X0001492376Y0002451607D01*
X0001465929Y0002478054D01*
X0001521607Y0002533731D01*
X0001521607Y0002533731D01*
G37*
G36*
X0001499336Y0002556002D02*
X0001525783Y0002529555D01*
X0001470105Y0002473878D01*
X0001443658Y0002500325D01*
X0001499336Y0002556002D01*
X0001499336Y0002556002D01*
G37*
G36*
X0001477065Y0002578273D02*
X0001503512Y0002551827D01*
X0001447834Y0002496149D01*
X0001421385Y0002522596D01*
X0001477065Y0002578273D01*
X0001477065Y0002578273D01*
G37*
G36*
X0001454794Y0002600544D02*
X0001481241Y0002574098D01*
X0001425563Y0002518420D01*
X0001399116Y0002544867D01*
X0001454794Y0002600544D01*
X0001454794Y0002600544D01*
G37*
G36*
X0001432523Y0002622816D02*
X0001458970Y0002596368D01*
X0001403292Y0002540691D01*
X0001376845Y0002567138D01*
X0001432523Y0002622816D01*
X0001432523Y0002622816D01*
G37*
G36*
X0001410252Y0002645087D02*
X0001436699Y0002618640D01*
X0001381021Y0002562962D01*
X0001354574Y0002589409D01*
X0001410252Y0002645087D01*
X0001410252Y0002645087D01*
G37*
G36*
X0001387981Y0002667357D02*
X0001414428Y0002640911D01*
X0001358750Y0002585233D01*
X0001332303Y0002611680D01*
X0001387981Y0002667357D01*
X0001387981Y0002667357D01*
G37*
G36*
X0001365710Y0002689628D02*
X0001392156Y0002663182D01*
X0001336479Y0002607504D01*
X0001310032Y0002633951D01*
X0001365710Y0002689628D01*
X0001365710Y0002689628D01*
G37*
G36*
X0001229299Y0002663182D02*
X0001255746Y0002689628D01*
X0001311424Y0002633951D01*
X0001284977Y0002607504D01*
X0001229299Y0002663182D01*
X0001229299Y0002663182D01*
G37*
G36*
X0001207028Y0002640911D02*
X0001233475Y0002667357D01*
X0001289153Y0002611680D01*
X0001262706Y0002585233D01*
X0001207028Y0002640911D01*
X0001207028Y0002640911D01*
G37*
G36*
X0001184757Y0002618640D02*
X0001211204Y0002645087D01*
X0001266882Y0002589409D01*
X0001240435Y0002562962D01*
X0001184757Y0002618640D01*
X0001184757Y0002618640D01*
G37*
G36*
X0001162486Y0002596368D02*
X0001188933Y0002622816D01*
X0001244611Y0002567138D01*
X0001218164Y0002540691D01*
X0001162486Y0002596368D01*
X0001162486Y0002596368D01*
G37*
G36*
X0001140215Y0002574098D02*
X0001166662Y0002600544D01*
X0001222340Y0002544867D01*
X0001195893Y0002518420D01*
X0001140215Y0002574098D01*
X0001140215Y0002574098D01*
G37*
G36*
X0001117944Y0002551827D02*
X0001144391Y0002578273D01*
X0001200068Y0002522596D01*
X0001173622Y0002496149D01*
X0001117944Y0002551827D01*
X0001117944Y0002551827D01*
G37*
G36*
X0001095673Y0002529555D02*
X0001122120Y0002556002D01*
X0001177797Y0002500325D01*
X0001151350Y0002473878D01*
X0001095673Y0002529555D01*
X0001095673Y0002529555D01*
G37*
G36*
X0001073402Y0002507284D02*
X0001099849Y0002533731D01*
X0001155526Y0002478054D01*
X0001129079Y0002451607D01*
X0001073402Y0002507284D01*
X0001073402Y0002507284D01*
G37*
G36*
X0001129079Y0002452999D02*
X0001155526Y0002426552D01*
X0001099849Y0002370874D01*
X0001073402Y0002397321D01*
X0001129079Y0002452999D01*
X0001129079Y0002452999D01*
G37*
G36*
X0001151350Y0002430728D02*
X0001177797Y0002404281D01*
X0001122120Y0002348603D01*
X0001095673Y0002375050D01*
X0001151350Y0002430728D01*
X0001151350Y0002430728D01*
G37*
G36*
X0001173622Y0002408456D02*
X0001200068Y0002382010D01*
X0001144391Y0002326332D01*
X0001117944Y0002352779D01*
X0001173622Y0002408456D01*
X0001173622Y0002408456D01*
G37*
G36*
X0001195893Y0002386185D02*
X0001222340Y0002359738D01*
X0001166662Y0002304061D01*
X0001140215Y0002330508D01*
X0001195893Y0002386185D01*
X0001195893Y0002386185D01*
G37*
G36*
X0001218164Y0002363914D02*
X0001244611Y0002337467D01*
X0001188933Y0002281790D01*
X0001162486Y0002308237D01*
X0001218164Y0002363914D01*
X0001218164Y0002363914D01*
G37*
G36*
X0001240435Y0002341643D02*
X0001266882Y0002315196D01*
X0001211204Y0002259519D01*
X0001184757Y0002285966D01*
X0001240435Y0002341643D01*
X0001240435Y0002341643D01*
G37*
G36*
X0001262706Y0002319372D02*
X0001289153Y0002292925D01*
X0001233475Y0002237248D01*
X0001207028Y0002263694D01*
X0001262706Y0002319372D01*
X0001262706Y0002319372D01*
G37*
G36*
X0001284977Y0002297101D02*
X0001311424Y0002270654D01*
X0001255746Y0002214976D01*
X0001229299Y0002241423D01*
X0001284977Y0002297101D01*
X0001284977Y0002297101D01*
G37*
G36*
X0001310032Y0002270654D02*
X0001336479Y0002297101D01*
X0001392156Y0002241423D01*
X0001365710Y0002214976D01*
X0001310032Y0002270654D01*
X0001310032Y0002270654D01*
G37*
G36*
X0001332303Y0002292925D02*
X0001358750Y0002319372D01*
X0001414428Y0002263694D01*
X0001387981Y0002237248D01*
X0001332303Y0002292925D01*
X0001332303Y0002292925D01*
G37*
G36*
X0001354574Y0002315196D02*
X0001381021Y0002341643D01*
X0001436699Y0002285966D01*
X0001410252Y0002259519D01*
X0001354574Y0002315196D01*
X0001354574Y0002315196D01*
G37*
G36*
X0001376845Y0002337467D02*
X0001403292Y0002363914D01*
X0001458970Y0002308237D01*
X0001432523Y0002281790D01*
X0001376845Y0002337467D01*
X0001376845Y0002337467D01*
G37*
G36*
X0001399116Y0002359738D02*
X0001425563Y0002386185D01*
X0001481241Y0002330508D01*
X0001454794Y0002304061D01*
X0001399116Y0002359738D01*
X0001399116Y0002359738D01*
G37*
G36*
X0001421385Y0002382010D02*
X0001447834Y0002408456D01*
X0001503512Y0002352779D01*
X0001477065Y0002326332D01*
X0001421385Y0002382010D01*
X0001421385Y0002382010D01*
G37*
G36*
X0001443658Y0002404281D02*
X0001470105Y0002430728D01*
X0001525783Y0002375050D01*
X0001499336Y0002348603D01*
X0001443658Y0002404281D01*
X0001443658Y0002404281D01*
G37*
G36*
X0001465929Y0002426552D02*
X0001492376Y0002452999D01*
X0001548054Y0002397321D01*
X0001521607Y0002370874D01*
X0001465929Y0002426552D01*
X0001465929Y0002426552D01*
G37*
D121*
X0001600728Y0002102303D03*
D122*
X0001600728Y0002002303D03*
X0001600728Y0001902303D03*
X0001600728Y0001802303D03*
D121*
X0001603228Y0001702303D03*
D122*
X0001503228Y0001702303D03*
X0001403227Y0001702303D03*
X0001303228Y0001702303D03*
X0001203228Y0001702303D03*
X0001103228Y0001702303D03*
D124*
X0001431436Y0001849803D03*
X0001070019Y0001849803D03*
X0001072519Y0003139803D03*
X0001433937Y0003139803D03*
D125*
X0001476515Y0002674803D03*
X0001574940Y0002674803D03*
D126*
X0001470767Y0002967303D03*
X0001600688Y0002967303D03*
X0001470767Y0003049803D03*
X0001600688Y0003049803D03*
D127*
X0001368228Y0002106952D03*
X0001368228Y0002000652D03*
D128*
X0001438077Y0002886803D03*
X0001544377Y0002886803D03*
X0001311377Y0003024803D03*
X0001205078Y0003024803D03*
D125*
X0001477015Y0002761803D03*
X0001575440Y0002761803D03*
X0001236015Y0002859803D03*
X0001334440Y0002859803D03*
D129*
X0001373204Y0002766803D03*
X0001245251Y0002766803D03*
D130*
X0001578228Y0003159803D03*
X0000943228Y0001724803D03*
D131*
X0000938228Y0003172303D03*
D127*
X0001243228Y0002105452D03*
X0001243228Y0001999153D03*
D125*
X0001021515Y0002252303D03*
X0001119940Y0002252303D03*
D127*
X0001126228Y0001998803D03*
X0001126228Y0002105102D03*
G04 next file*
G01*
D142*
D143*
X-0004960629Y0006574803D02*
X0001766870Y0002202303D03*
D144*
X0001766870Y0002102303D03*
X0001766870Y0002002303D03*
X0001766870Y0001902303D03*
D145*
X0001787814Y0003059803D03*
X0001787814Y0002859803D03*
X0001787814Y0002659803D03*
X0001786870Y0002959803D03*
X0001786870Y0002759803D03*
D142*
G36*
X0002387749Y0002533731D02*
X0002414196Y0002507284D01*
X0002358518Y0002451607D01*
X0002332071Y0002478054D01*
X0002387749Y0002533731D01*
X0002387749Y0002533731D01*
G37*
G36*
X0002365478Y0002556002D02*
X0002391925Y0002529555D01*
X0002336247Y0002473878D01*
X0002309800Y0002500325D01*
X0002365478Y0002556002D01*
X0002365478Y0002556002D01*
G37*
G36*
X0002343207Y0002578273D02*
X0002369654Y0002551827D01*
X0002313976Y0002496149D01*
X0002287529Y0002522596D01*
X0002343207Y0002578273D01*
X0002343207Y0002578273D01*
G37*
G36*
X0002320936Y0002600544D02*
X0002347383Y0002574098D01*
X0002291705Y0002518420D01*
X0002265258Y0002544867D01*
X0002320936Y0002600544D01*
X0002320936Y0002600544D01*
G37*
G36*
X0002298665Y0002622816D02*
X0002325111Y0002596368D01*
X0002269434Y0002540691D01*
X0002242987Y0002567138D01*
X0002298665Y0002622816D01*
X0002298665Y0002622816D01*
G37*
G36*
X0002276393Y0002645087D02*
X0002302840Y0002618640D01*
X0002247163Y0002562962D01*
X0002220716Y0002589409D01*
X0002276393Y0002645087D01*
X0002276393Y0002645087D01*
G37*
G36*
X0002254122Y0002667357D02*
X0002280569Y0002640911D01*
X0002224892Y0002585233D01*
X0002198445Y0002611680D01*
X0002254122Y0002667357D01*
X0002254122Y0002667357D01*
G37*
G36*
X0002231851Y0002689628D02*
X0002258298Y0002663182D01*
X0002202621Y0002607504D01*
X0002176174Y0002633951D01*
X0002231851Y0002689628D01*
X0002231851Y0002689628D01*
G37*
G36*
X0002095441Y0002663182D02*
X0002121888Y0002689628D01*
X0002177566Y0002633951D01*
X0002151119Y0002607504D01*
X0002095441Y0002663182D01*
X0002095441Y0002663182D01*
G37*
G36*
X0002073170Y0002640911D02*
X0002099617Y0002667357D01*
X0002155295Y0002611680D01*
X0002128848Y0002585233D01*
X0002073170Y0002640911D01*
X0002073170Y0002640911D01*
G37*
G36*
X0002050898Y0002618640D02*
X0002077346Y0002645087D01*
X0002133023Y0002589409D01*
X0002106576Y0002562962D01*
X0002050898Y0002618640D01*
X0002050898Y0002618640D01*
G37*
G36*
X0002028627Y0002596368D02*
X0002055075Y0002622816D01*
X0002110752Y0002567138D01*
X0002084305Y0002540691D01*
X0002028627Y0002596368D01*
X0002028627Y0002596368D01*
G37*
G36*
X0002006357Y0002574098D02*
X0002032803Y0002600544D01*
X0002088480Y0002544867D01*
X0002062034Y0002518420D01*
X0002006357Y0002574098D01*
X0002006357Y0002574098D01*
G37*
G36*
X0001984085Y0002551827D02*
X0002010532Y0002578273D01*
X0002066209Y0002522596D01*
X0002039763Y0002496149D01*
X0001984085Y0002551827D01*
X0001984085Y0002551827D01*
G37*
G36*
X0001961814Y0002529555D02*
X0001988261Y0002556002D01*
X0002043939Y0002500325D01*
X0002017491Y0002473878D01*
X0001961814Y0002529555D01*
X0001961814Y0002529555D01*
G37*
G36*
X0001939543Y0002507284D02*
X0001965990Y0002533731D01*
X0002021668Y0002478054D01*
X0001995221Y0002451607D01*
X0001939543Y0002507284D01*
X0001939543Y0002507284D01*
G37*
G36*
X0001995221Y0002452999D02*
X0002021668Y0002426552D01*
X0001965990Y0002370874D01*
X0001939543Y0002397321D01*
X0001995221Y0002452999D01*
X0001995221Y0002452999D01*
G37*
G36*
X0002017491Y0002430728D02*
X0002043939Y0002404281D01*
X0001988261Y0002348603D01*
X0001961814Y0002375050D01*
X0002017491Y0002430728D01*
X0002017491Y0002430728D01*
G37*
G36*
X0002039763Y0002408456D02*
X0002066209Y0002382010D01*
X0002010532Y0002326332D01*
X0001984085Y0002352779D01*
X0002039763Y0002408456D01*
X0002039763Y0002408456D01*
G37*
G36*
X0002062034Y0002386185D02*
X0002088480Y0002359738D01*
X0002032803Y0002304061D01*
X0002006357Y0002330508D01*
X0002062034Y0002386185D01*
X0002062034Y0002386185D01*
G37*
G36*
X0002084305Y0002363914D02*
X0002110752Y0002337467D01*
X0002055075Y0002281790D01*
X0002028627Y0002308237D01*
X0002084305Y0002363914D01*
X0002084305Y0002363914D01*
G37*
G36*
X0002106576Y0002341643D02*
X0002133023Y0002315196D01*
X0002077346Y0002259519D01*
X0002050898Y0002285966D01*
X0002106576Y0002341643D01*
X0002106576Y0002341643D01*
G37*
G36*
X0002128848Y0002319372D02*
X0002155295Y0002292925D01*
X0002099617Y0002237248D01*
X0002073170Y0002263694D01*
X0002128848Y0002319372D01*
X0002128848Y0002319372D01*
G37*
G36*
X0002151119Y0002297101D02*
X0002177566Y0002270654D01*
X0002121888Y0002214976D01*
X0002095441Y0002241423D01*
X0002151119Y0002297101D01*
X0002151119Y0002297101D01*
G37*
G36*
X0002176174Y0002270654D02*
X0002202621Y0002297101D01*
X0002258298Y0002241423D01*
X0002231851Y0002214976D01*
X0002176174Y0002270654D01*
X0002176174Y0002270654D01*
G37*
G36*
X0002198445Y0002292925D02*
X0002224892Y0002319372D01*
X0002280569Y0002263694D01*
X0002254122Y0002237248D01*
X0002198445Y0002292925D01*
X0002198445Y0002292925D01*
G37*
G36*
X0002220716Y0002315196D02*
X0002247163Y0002341643D01*
X0002302840Y0002285966D01*
X0002276393Y0002259519D01*
X0002220716Y0002315196D01*
X0002220716Y0002315196D01*
G37*
G36*
X0002242987Y0002337467D02*
X0002269434Y0002363914D01*
X0002325111Y0002308237D01*
X0002298665Y0002281790D01*
X0002242987Y0002337467D01*
X0002242987Y0002337467D01*
G37*
G36*
X0002265258Y0002359738D02*
X0002291705Y0002386185D01*
X0002347383Y0002330508D01*
X0002320936Y0002304061D01*
X0002265258Y0002359738D01*
X0002265258Y0002359738D01*
G37*
G36*
X0002287529Y0002382010D02*
X0002313976Y0002408456D01*
X0002369654Y0002352779D01*
X0002343207Y0002326332D01*
X0002287529Y0002382010D01*
X0002287529Y0002382010D01*
G37*
G36*
X0002309800Y0002404281D02*
X0002336247Y0002430728D01*
X0002391925Y0002375050D01*
X0002365478Y0002348603D01*
X0002309800Y0002404281D01*
X0002309800Y0002404281D01*
G37*
G36*
X0002332071Y0002426552D02*
X0002358518Y0002452999D01*
X0002414196Y0002397321D01*
X0002387749Y0002370874D01*
X0002332071Y0002426552D01*
X0002332071Y0002426552D01*
G37*
D143*
X0002466870Y0002102303D03*
D144*
X0002466870Y0002002303D03*
X0002466870Y0001902303D03*
X0002466870Y0001802303D03*
D143*
X0002469370Y0001702303D03*
D144*
X0002369370Y0001702303D03*
X0002269370Y0001702303D03*
X0002169370Y0001702303D03*
X0002069370Y0001702303D03*
X0001969370Y0001702303D03*
D146*
X0002297578Y0001849803D03*
X0001936161Y0001849803D03*
X0001938661Y0003139803D03*
X0002300078Y0003139803D03*
D147*
X0002342657Y0002674803D03*
X0002441082Y0002674803D03*
D148*
X0002336909Y0002967303D03*
X0002466830Y0002967303D03*
X0002336909Y0003049803D03*
X0002466830Y0003049803D03*
D149*
X0002234370Y0002106952D03*
X0002234370Y0002000652D03*
D150*
X0002304220Y0002886803D03*
X0002410519Y0002886803D03*
X0002177519Y0003024803D03*
X0002071219Y0003024803D03*
D147*
X0002343157Y0002761803D03*
X0002441582Y0002761803D03*
X0002102157Y0002859803D03*
X0002200582Y0002859803D03*
D151*
X0002239346Y0002766803D03*
X0002111393Y0002766803D03*
D152*
X0002444370Y0003159803D03*
X0001809370Y0001724803D03*
D153*
X0001804370Y0003172303D03*
D149*
X0002109370Y0002105452D03*
X0002109370Y0001999153D03*
D147*
X0001887657Y0002252303D03*
X0001986081Y0002252303D03*
D149*
X0001992370Y0001998803D03*
X0001992370Y0002105102D03*
G04 next file*
G04 #@! TF.FileFunction,Soldermask,Top*
G04 Gerber Fmt 4.6, Leading zero omitted, Abs format (unit mm)*
G04 Created by KiCad (PCBNEW 4.0.2-stable) date 01.06.2017 12:53:20*
G01*
G04 APERTURE LIST*
G04 APERTURE END LIST*
D164*
D165*
X-0004094488Y0006574803D02*
X0002633011Y0002202303D03*
D166*
X0002633011Y0002102303D03*
X0002633011Y0002002303D03*
X0002633011Y0001902303D03*
D167*
X0002653956Y0003059803D03*
X0002653956Y0002859803D03*
X0002653956Y0002659803D03*
X0002653010Y0002959803D03*
X0002653010Y0002759803D03*
D164*
G36*
X0003253891Y0002533731D02*
X0003280337Y0002507284D01*
X0003224660Y0002451607D01*
X0003198213Y0002478054D01*
X0003253891Y0002533731D01*
X0003253891Y0002533731D01*
G37*
G36*
X0003231620Y0002556002D02*
X0003258065Y0002529555D01*
X0003202389Y0002473878D01*
X0003175942Y0002500325D01*
X0003231620Y0002556002D01*
X0003231620Y0002556002D01*
G37*
G36*
X0003209348Y0002578273D02*
X0003235794Y0002551827D01*
X0003180118Y0002496149D01*
X0003153671Y0002522596D01*
X0003209348Y0002578273D01*
X0003209348Y0002578273D01*
G37*
G36*
X0003187077Y0002600544D02*
X0003213524Y0002574098D01*
X0003157847Y0002518420D01*
X0003131400Y0002544867D01*
X0003187077Y0002600544D01*
X0003187077Y0002600544D01*
G37*
G36*
X0003164805Y0002622816D02*
X0003191253Y0002596368D01*
X0003135575Y0002540691D01*
X0003109129Y0002567138D01*
X0003164805Y0002622816D01*
X0003164805Y0002622816D01*
G37*
G36*
X0003142534Y0002645087D02*
X0003168982Y0002618640D01*
X0003113304Y0002562962D01*
X0003086857Y0002589409D01*
X0003142534Y0002645087D01*
X0003142534Y0002645087D01*
G37*
G36*
X0003120264Y0002667357D02*
X0003146710Y0002640911D01*
X0003091033Y0002585233D01*
X0003064586Y0002611680D01*
X0003120264Y0002667357D01*
X0003120264Y0002667357D01*
G37*
G36*
X0003097993Y0002689628D02*
X0003124440Y0002663182D01*
X0003068762Y0002607504D01*
X0003042315Y0002633951D01*
X0003097993Y0002689628D01*
X0003097993Y0002689628D01*
G37*
G36*
X0002961583Y0002663182D02*
X0002988030Y0002689628D01*
X0003043707Y0002633951D01*
X0003017260Y0002607504D01*
X0002961583Y0002663182D01*
X0002961583Y0002663182D01*
G37*
G36*
X0002939312Y0002640911D02*
X0002965758Y0002667357D01*
X0003021436Y0002611680D01*
X0002994989Y0002585233D01*
X0002939312Y0002640911D01*
X0002939312Y0002640911D01*
G37*
G36*
X0002917040Y0002618640D02*
X0002943487Y0002645087D01*
X0002999165Y0002589409D01*
X0002972718Y0002562962D01*
X0002917040Y0002618640D01*
X0002917040Y0002618640D01*
G37*
G36*
X0002894769Y0002596368D02*
X0002921216Y0002622816D01*
X0002976894Y0002567138D01*
X0002950447Y0002540691D01*
X0002894769Y0002596368D01*
X0002894769Y0002596368D01*
G37*
G36*
X0002872498Y0002574098D02*
X0002898945Y0002600544D01*
X0002954623Y0002544867D01*
X0002928176Y0002518420D01*
X0002872498Y0002574098D01*
X0002872498Y0002574098D01*
G37*
G36*
X0002850227Y0002551827D02*
X0002876674Y0002578273D01*
X0002932352Y0002522596D01*
X0002905905Y0002496149D01*
X0002850227Y0002551827D01*
X0002850227Y0002551827D01*
G37*
G36*
X0002827956Y0002529555D02*
X0002854403Y0002556002D01*
X0002910081Y0002500325D01*
X0002883634Y0002473878D01*
X0002827956Y0002529555D01*
X0002827956Y0002529555D01*
G37*
G36*
X0002805685Y0002507284D02*
X0002832132Y0002533731D01*
X0002887810Y0002478054D01*
X0002861363Y0002451607D01*
X0002805685Y0002507284D01*
X0002805685Y0002507284D01*
G37*
G36*
X0002861363Y0002452999D02*
X0002887810Y0002426552D01*
X0002832132Y0002370874D01*
X0002805685Y0002397321D01*
X0002861363Y0002452999D01*
X0002861363Y0002452999D01*
G37*
G36*
X0002883634Y0002430728D02*
X0002910081Y0002404281D01*
X0002854403Y0002348603D01*
X0002827956Y0002375050D01*
X0002883634Y0002430728D01*
X0002883634Y0002430728D01*
G37*
G36*
X0002905905Y0002408456D02*
X0002932352Y0002382010D01*
X0002876674Y0002326332D01*
X0002850227Y0002352779D01*
X0002905905Y0002408456D01*
X0002905905Y0002408456D01*
G37*
G36*
X0002928176Y0002386185D02*
X0002954623Y0002359738D01*
X0002898945Y0002304061D01*
X0002872498Y0002330508D01*
X0002928176Y0002386185D01*
X0002928176Y0002386185D01*
G37*
G36*
X0002950447Y0002363914D02*
X0002976894Y0002337467D01*
X0002921216Y0002281790D01*
X0002894769Y0002308237D01*
X0002950447Y0002363914D01*
X0002950447Y0002363914D01*
G37*
G36*
X0002972718Y0002341643D02*
X0002999165Y0002315196D01*
X0002943487Y0002259519D01*
X0002917040Y0002285966D01*
X0002972718Y0002341643D01*
X0002972718Y0002341643D01*
G37*
G36*
X0002994989Y0002319372D02*
X0003021436Y0002292925D01*
X0002965758Y0002237248D01*
X0002939312Y0002263694D01*
X0002994989Y0002319372D01*
X0002994989Y0002319372D01*
G37*
G36*
X0003017260Y0002297101D02*
X0003043707Y0002270654D01*
X0002988030Y0002214976D01*
X0002961583Y0002241423D01*
X0003017260Y0002297101D01*
X0003017260Y0002297101D01*
G37*
G36*
X0003042315Y0002270654D02*
X0003068762Y0002297101D01*
X0003124440Y0002241423D01*
X0003097993Y0002214976D01*
X0003042315Y0002270654D01*
X0003042315Y0002270654D01*
G37*
G36*
X0003064586Y0002292925D02*
X0003091033Y0002319372D01*
X0003146710Y0002263694D01*
X0003120264Y0002237248D01*
X0003064586Y0002292925D01*
X0003064586Y0002292925D01*
G37*
G36*
X0003086857Y0002315196D02*
X0003113304Y0002341643D01*
X0003168982Y0002285966D01*
X0003142534Y0002259519D01*
X0003086857Y0002315196D01*
X0003086857Y0002315196D01*
G37*
G36*
X0003109129Y0002337467D02*
X0003135575Y0002363914D01*
X0003191253Y0002308237D01*
X0003164805Y0002281790D01*
X0003109129Y0002337467D01*
X0003109129Y0002337467D01*
G37*
G36*
X0003131400Y0002359738D02*
X0003157847Y0002386185D01*
X0003213524Y0002330508D01*
X0003187077Y0002304061D01*
X0003131400Y0002359738D01*
X0003131400Y0002359738D01*
G37*
G36*
X0003153671Y0002382010D02*
X0003180118Y0002408456D01*
X0003235794Y0002352779D01*
X0003209348Y0002326332D01*
X0003153671Y0002382010D01*
X0003153671Y0002382010D01*
G37*
G36*
X0003175942Y0002404281D02*
X0003202389Y0002430728D01*
X0003258065Y0002375050D01*
X0003231620Y0002348603D01*
X0003175942Y0002404281D01*
X0003175942Y0002404281D01*
G37*
G36*
X0003198213Y0002426552D02*
X0003224660Y0002452999D01*
X0003280337Y0002397321D01*
X0003253891Y0002370874D01*
X0003198213Y0002426552D01*
X0003198213Y0002426552D01*
G37*
D165*
X0003333011Y0002102303D03*
D166*
X0003333011Y0002002303D03*
X0003333011Y0001902303D03*
X0003333011Y0001802303D03*
D165*
X0003335511Y0001702303D03*
D166*
X0003235511Y0001702303D03*
X0003135511Y0001702303D03*
X0003035510Y0001702303D03*
X0002935511Y0001702303D03*
X0002835511Y0001702303D03*
D168*
X0003163720Y0001849803D03*
X0002802303Y0001849803D03*
X0002804803Y0003139803D03*
X0003166220Y0003139803D03*
D169*
X0003208799Y0002674803D03*
X0003307224Y0002674803D03*
D170*
X0003203051Y0002967303D03*
X0003332972Y0002967303D03*
X0003203051Y0003049803D03*
X0003332972Y0003049803D03*
D171*
X0003100511Y0002106952D03*
X0003100511Y0002000652D03*
D172*
X0003170362Y0002886803D03*
X0003276661Y0002886803D03*
X0003043661Y0003024803D03*
X0002937362Y0003024803D03*
D169*
X0003209298Y0002761803D03*
X0003307724Y0002761803D03*
X0002968299Y0002859803D03*
X0003066724Y0002859803D03*
D173*
X0003105488Y0002766803D03*
X0002977535Y0002766803D03*
D174*
X0003310511Y0003159803D03*
X0002675511Y0001724803D03*
D175*
X0002670511Y0003172303D03*
D171*
X0002975510Y0002105452D03*
X0002975510Y0001999153D03*
D169*
X0002753799Y0002252303D03*
X0002852223Y0002252303D03*
D171*
X0002858511Y0001998803D03*
X0002858511Y0002105102D03*
M02*