%MOIN*%
%OFA0B0*%
%FSLAX46Y46*%
%IPPOS*%
%LPD*%
%ADD10C,0.0039370078740157488*%
%ADD11C,0.005905511811023622*%
%ADD12C,0.0047244094488188976*%
%ADD23C,0.0039370078740157488*%
%ADD24C,0.005905511811023622*%
%ADD25C,0.0047244094488188976*%
%ADD36C,0.0039370078740157488*%
%ADD37C,0.005905511811023622*%
%ADD38C,0.0047244094488188976*%
%ADD49C,0.0039370078740157488*%
%ADD50C,0.005905511811023622*%
%ADD51C,0.0047244094488188976*%
%ADD62C,0.0039370078740157488*%
%ADD63C,0.005905511811023622*%
%ADD64C,0.0047244094488188976*%
%ADD75C,0.0039370078740157488*%
%ADD76C,0.005905511811023622*%
%ADD77C,0.0047244094488188976*%
%ADD88C,0.0039370078740157488*%
%ADD89C,0.005905511811023622*%
%ADD90C,0.0047244094488188976*%
%ADD101C,0.0039370078740157488*%
%ADD102C,0.005905511811023622*%
%ADD103C,0.0047244094488188976*%
%LPD*%
G01*
D10*
D11*
X0000095519Y0000905949D02*
X0000095519Y0000945318D01*
X0000078646Y0000907824D02*
X0000073022Y0000905949D01*
X0000063646Y0000905949D01*
X0000059898Y0000907824D01*
X0000058023Y0000909699D01*
X0000056149Y0000913448D01*
X0000056149Y0000917198D01*
X0000058023Y0000920947D01*
X0000059898Y0000922822D01*
X0000063646Y0000924697D01*
X0000071147Y0000926571D01*
X0000074896Y0000928446D01*
X0000076771Y0000930321D01*
X0000078646Y0000934071D01*
X0000078646Y0000937820D01*
X0000076771Y0000941570D01*
X0000074896Y0000943444D01*
X0000071147Y0000945318D01*
X0000061773Y0000945318D01*
X0000056149Y0000943444D01*
X0000039276Y0000905949D02*
X0000039276Y0000945318D01*
X0000024278Y0000945318D01*
X0000020528Y0000943444D01*
X0000018653Y0000941570D01*
X0000016779Y0000937820D01*
X0000016779Y0000932195D01*
X0000018653Y0000928446D01*
X0000020528Y0000926571D01*
X0000024278Y0000924697D01*
X0000039276Y0000924697D01*
D10*
X0000199206Y0000995573D02*
X0000199206Y0001019195D01*
X0000191332Y0001002321D01*
X0000183457Y0001019195D01*
X0000183457Y0000995573D01*
X0000172210Y0000995573D02*
X0000172210Y0001019195D01*
X0000162086Y0000996698D02*
X0000158712Y0000995573D01*
X0000153087Y0000995573D01*
X0000150838Y0000996698D01*
X0000149713Y0000997823D01*
X0000148588Y0001000073D01*
X0000148588Y0001002321D01*
X0000149713Y0001004572D01*
X0000150838Y0001005697D01*
X0000153087Y0001006822D01*
X0000157587Y0001007946D01*
X0000159836Y0001009072D01*
X0000160961Y0001010196D01*
X0000162086Y0001012446D01*
X0000162086Y0001014696D01*
X0000160961Y0001016945D01*
X0000159836Y0001018070D01*
X0000157587Y0001019195D01*
X0000151962Y0001019195D01*
X0000148588Y0001018070D01*
X0000133965Y0001019195D02*
X0000129465Y0001019195D01*
X0000127215Y0001018070D01*
X0000124966Y0001015821D01*
X0000123841Y0001011320D01*
X0000123841Y0001003447D01*
X0000124966Y0000998948D01*
X0000127215Y0000996698D01*
X0000129465Y0000995573D01*
X0000133965Y0000995573D01*
X0000136214Y0000996698D01*
X0000138464Y0000998948D01*
X0000139589Y0001003447D01*
X0000139589Y0001011320D01*
X0000138464Y0001015821D01*
X0000136214Y0001018070D01*
X0000133965Y0001019195D01*
X0000187457Y0001096698D02*
X0000184083Y0001095573D01*
X0000178458Y0001095573D01*
X0000176209Y0001096698D01*
X0000175084Y0001097823D01*
X0000173959Y0001100073D01*
X0000173959Y0001102322D01*
X0000175084Y0001104572D01*
X0000176209Y0001105697D01*
X0000178458Y0001106822D01*
X0000182958Y0001107947D01*
X0000185208Y0001109072D01*
X0000186332Y0001110196D01*
X0000187457Y0001112446D01*
X0000187457Y0001114696D01*
X0000186332Y0001116946D01*
X0000185208Y0001118070D01*
X0000182958Y0001119195D01*
X0000177334Y0001119195D01*
X0000173959Y0001118070D01*
X0000150337Y0001097823D02*
X0000151462Y0001096698D01*
X0000154836Y0001095573D01*
X0000157086Y0001095573D01*
X0000160460Y0001096698D01*
X0000162710Y0001098948D01*
X0000163835Y0001101197D01*
X0000164960Y0001105697D01*
X0000164960Y0001109072D01*
X0000163835Y0001113571D01*
X0000162710Y0001115821D01*
X0000160460Y0001118070D01*
X0000157086Y0001119195D01*
X0000154836Y0001119195D01*
X0000151462Y0001118070D01*
X0000150337Y0001116946D01*
X0000140213Y0001095573D02*
X0000140213Y0001119195D01*
X0000126715Y0001095573D02*
X0000136839Y0001109072D01*
X0000126715Y0001119195D02*
X0000140213Y0001105697D01*
X0000211394Y0001195573D02*
X0000219268Y0001206822D01*
X0000224893Y0001195573D02*
X0000224893Y0001219195D01*
X0000215894Y0001219195D01*
X0000213644Y0001218070D01*
X0000212519Y0001216945D01*
X0000211394Y0001214696D01*
X0000211394Y0001211321D01*
X0000212519Y0001209072D01*
X0000213644Y0001207947D01*
X0000215894Y0001206822D01*
X0000224893Y0001206822D01*
X0000201271Y0001207947D02*
X0000193397Y0001207947D01*
X0000190022Y0001195573D02*
X0000201271Y0001195573D01*
X0000201271Y0001219195D01*
X0000190022Y0001219195D01*
X0000181022Y0001196698D02*
X0000177649Y0001195573D01*
X0000172024Y0001195573D01*
X0000169775Y0001196698D01*
X0000168649Y0001197823D01*
X0000167525Y0001200073D01*
X0000167525Y0001202322D01*
X0000168649Y0001204572D01*
X0000169775Y0001205697D01*
X0000172024Y0001206822D01*
X0000176524Y0001207947D01*
X0000178772Y0001209072D01*
X0000179898Y0001210196D01*
X0000181022Y0001212446D01*
X0000181022Y0001214696D01*
X0000179898Y0001216945D01*
X0000178772Y0001218070D01*
X0000176524Y0001219195D01*
X0000170899Y0001219195D01*
X0000167525Y0001218070D01*
X0000157401Y0001207947D02*
X0000149527Y0001207947D01*
X0000146152Y0001195573D02*
X0000157401Y0001195573D01*
X0000157401Y0001219195D01*
X0000146152Y0001219195D01*
X0000139403Y0001219195D02*
X0000125903Y0001219195D01*
X0000132654Y0001195573D02*
X0000132654Y0001219195D01*
X0000199206Y0001390572D02*
X0000199206Y0001414195D01*
X0000191332Y0001397322D01*
X0000183457Y0001414195D01*
X0000183457Y0001390572D01*
X0000167710Y0001414195D02*
X0000163211Y0001414195D01*
X0000160961Y0001413070D01*
X0000158712Y0001410821D01*
X0000157587Y0001406320D01*
X0000157587Y0001398446D01*
X0000158712Y0001393948D01*
X0000160961Y0001391698D01*
X0000163211Y0001390572D01*
X0000167710Y0001390572D01*
X0000169960Y0001391698D01*
X0000172210Y0001393948D01*
X0000173335Y0001398446D01*
X0000173335Y0001406320D01*
X0000172210Y0001410821D01*
X0000169960Y0001413070D01*
X0000167710Y0001414195D01*
X0000148588Y0001391698D02*
X0000145213Y0001390572D01*
X0000139589Y0001390572D01*
X0000137339Y0001391698D01*
X0000136214Y0001392823D01*
X0000135090Y0001395073D01*
X0000135090Y0001397322D01*
X0000136214Y0001399572D01*
X0000137339Y0001400697D01*
X0000139589Y0001401822D01*
X0000144088Y0001402947D01*
X0000146338Y0001404071D01*
X0000147463Y0001405196D01*
X0000148588Y0001407446D01*
X0000148588Y0001409695D01*
X0000147463Y0001411946D01*
X0000146338Y0001413070D01*
X0000144088Y0001414195D01*
X0000138464Y0001414195D01*
X0000135090Y0001413070D01*
X0000124966Y0001390572D02*
X0000124966Y0001414195D01*
D11*
X0000772047Y0000697559D02*
X0000142125Y0000697559D01*
X0000142125Y0000697559D02*
X0000142125Y0001445590D01*
X0000142125Y0001445590D02*
X0000772047Y0001445590D01*
X0000772047Y0001445590D02*
X0000772047Y0000697559D01*
D12*
X0000657401Y0000628724D02*
X0000696770Y0000628724D01*
X0000696770Y0000561795D02*
X0000657401Y0000561795D01*
X0000409271Y0000167795D02*
X0000369901Y0000167795D01*
X0000369901Y0000234723D02*
X0000409271Y0000234723D01*
X0000369901Y0000442224D02*
X0000409271Y0000442224D01*
X0000409271Y0000375295D02*
X0000369901Y0000375295D01*
X0000357027Y0000351929D02*
X0000431830Y0000351929D01*
X0000412145Y0000260590D02*
X0000357027Y0000260590D01*
D11*
X0000494586Y0000413759D02*
X0000614586Y0000413759D01*
X0000614586Y0000268759D02*
X0000614586Y0000193759D01*
X0000614586Y0000193759D02*
X0000494586Y0000193759D01*
X0000494586Y0000193759D02*
X0000494586Y0000268759D01*
X0000494586Y0000333759D02*
X0000494586Y0000413759D01*
X0000494586Y0000405885D02*
X0000614586Y0000405885D01*
X0000614586Y0000413759D02*
X0000614586Y0000333759D01*
D12*
X0000604586Y0000453720D02*
X0000504586Y0000453720D01*
X0000504586Y0000523799D02*
X0000604586Y0000523799D01*
X0000504586Y0000523799D02*
X0000504586Y0000453720D01*
X0000604586Y0000453720D02*
X0000604586Y0000523799D01*
D11*
X0000495519Y0000955339D02*
X0000495519Y0000994709D01*
X0000454274Y0000959088D02*
X0000456149Y0000957214D01*
X0000461773Y0000955339D01*
X0000465523Y0000955339D01*
X0000471147Y0000957214D01*
X0000474896Y0000960963D01*
X0000476771Y0000964713D01*
X0000478646Y0000972212D01*
X0000478646Y0000977836D01*
X0000476771Y0000985335D01*
X0000474896Y0000989085D01*
X0000471147Y0000992834D01*
X0000465523Y0000994709D01*
X0000461773Y0000994709D01*
X0000456149Y0000992834D01*
X0000454274Y0000990959D01*
X0000439276Y0000990959D02*
X0000437401Y0000992834D01*
X0000433652Y0000994709D01*
X0000424278Y0000994709D01*
X0000420528Y0000992834D01*
X0000418653Y0000990959D01*
X0000416779Y0000987210D01*
X0000416779Y0000983460D01*
X0000418653Y0000977836D01*
X0000441151Y0000955339D01*
X0000416779Y0000955339D01*
X0000728648Y0000531199D02*
X0000730522Y0000529324D01*
X0000736146Y0000527449D01*
X0000739896Y0000527449D01*
X0000745521Y0000529324D01*
X0000749269Y0000533073D01*
X0000751145Y0000536823D01*
X0000753020Y0000544322D01*
X0000753020Y0000549946D01*
X0000751145Y0000557445D01*
X0000749269Y0000561195D01*
X0000745521Y0000564944D01*
X0000739896Y0000566819D01*
X0000736146Y0000566819D01*
X0000730522Y0000564944D01*
X0000728648Y0000563070D01*
X0000715524Y0000566819D02*
X0000691152Y0000566819D01*
X0000704276Y0000551821D01*
X0000698651Y0000551821D01*
X0000694902Y0000549946D01*
X0000693027Y0000548072D01*
X0000691152Y0000544322D01*
X0000691152Y0000534948D01*
X0000693027Y0000531199D01*
X0000694902Y0000529324D01*
X0000698651Y0000527449D01*
X0000709900Y0000527449D01*
X0000713650Y0000529324D01*
X0000715524Y0000531199D01*
X0000268648Y0000184699D02*
X0000270523Y0000182824D01*
X0000276147Y0000180949D01*
X0000279896Y0000180949D01*
X0000285521Y0000182824D01*
X0000289270Y0000186573D01*
X0000291145Y0000190323D01*
X0000293020Y0000197822D01*
X0000293020Y0000203446D01*
X0000291145Y0000210944D01*
X0000289270Y0000214694D01*
X0000285521Y0000218444D01*
X0000279896Y0000220319D01*
X0000276147Y0000220319D01*
X0000270523Y0000218444D01*
X0000268648Y0000216570D01*
X0000234902Y0000220319D02*
X0000242401Y0000220319D01*
X0000246151Y0000218444D01*
X0000248025Y0000216570D01*
X0000251775Y0000210944D01*
X0000253650Y0000203446D01*
X0000253650Y0000188448D01*
X0000251775Y0000184699D01*
X0000249900Y0000182824D01*
X0000246151Y0000180949D01*
X0000238651Y0000180949D01*
X0000234902Y0000182824D01*
X0000233027Y0000184699D01*
X0000231152Y0000188448D01*
X0000231152Y0000197822D01*
X0000233027Y0000201571D01*
X0000234902Y0000203446D01*
X0000238651Y0000205321D01*
X0000246151Y0000205321D01*
X0000249900Y0000203446D01*
X0000251775Y0000201571D01*
X0000253650Y0000197822D01*
X0000265648Y0000392199D02*
X0000267523Y0000390323D01*
X0000273147Y0000388449D01*
X0000276896Y0000388449D01*
X0000282521Y0000390323D01*
X0000286270Y0000394073D01*
X0000288145Y0000397823D01*
X0000290020Y0000405322D01*
X0000290020Y0000410946D01*
X0000288145Y0000418445D01*
X0000286270Y0000422195D01*
X0000282521Y0000425944D01*
X0000276896Y0000427819D01*
X0000273147Y0000427819D01*
X0000267523Y0000425944D01*
X0000265648Y0000424070D01*
X0000252524Y0000427819D02*
X0000226278Y0000427819D01*
X0000243151Y0000388449D01*
X0000278019Y0000283449D02*
X0000278019Y0000322819D01*
X0000236774Y0000287199D02*
X0000238649Y0000285324D01*
X0000244273Y0000283449D01*
X0000248023Y0000283449D01*
X0000253647Y0000285324D01*
X0000257396Y0000289073D01*
X0000259270Y0000292823D01*
X0000261146Y0000300322D01*
X0000261146Y0000305946D01*
X0000259270Y0000313445D01*
X0000257396Y0000317195D01*
X0000253647Y0000320944D01*
X0000248023Y0000322819D01*
X0000244273Y0000322819D01*
X0000238649Y0000320944D01*
X0000236774Y0000319070D01*
X0000223651Y0000322819D02*
X0000199279Y0000322819D01*
X0000212402Y0000307821D01*
X0000206778Y0000307821D01*
X0000203028Y0000305946D01*
X0000201153Y0000304071D01*
X0000199279Y0000300322D01*
X0000199279Y0000290948D01*
X0000201153Y0000287199D01*
X0000203028Y0000285324D01*
X0000206778Y0000283449D01*
X0000218026Y0000283449D01*
X0000221776Y0000285324D01*
X0000223651Y0000287199D01*
X0000561148Y0000140949D02*
X0000579895Y0000140949D01*
X0000579895Y0000180319D01*
X0000527402Y0000140949D02*
X0000549899Y0000140949D01*
X0000538651Y0000140949D02*
X0000538651Y0000180319D01*
X0000542400Y0000174695D01*
X0000546150Y0000170945D01*
X0000549899Y0000169070D01*
X0000482394Y0000515319D02*
X0000482394Y0000487198D01*
X0000484269Y0000481573D01*
X0000488019Y0000477824D01*
X0000493643Y0000475948D01*
X0000497393Y0000475948D01*
X0000463647Y0000475948D02*
X0000463647Y0000515319D01*
X0000448648Y0000515319D01*
X0000444899Y0000513444D01*
X0000443024Y0000511569D01*
X0000441150Y0000507820D01*
X0000441150Y0000502196D01*
X0000443024Y0000498446D01*
X0000444899Y0000496571D01*
X0000448648Y0000494697D01*
X0000463647Y0000494697D01*
X0000403654Y0000475948D02*
X0000426152Y0000475948D01*
X0000414903Y0000475948D02*
X0000414903Y0000515319D01*
X0000418651Y0000509695D01*
X0000422402Y0000505945D01*
X0000426152Y0000504071D01*
G01*
D23*
D24*
X0000095519Y0002559492D02*
X0000095519Y0002598862D01*
X0000078646Y0002561367D02*
X0000073022Y0002559492D01*
X0000063646Y0002559492D01*
X0000059898Y0002561367D01*
X0000058023Y0002563242D01*
X0000056149Y0002566991D01*
X0000056149Y0002570741D01*
X0000058023Y0002574490D01*
X0000059898Y0002576364D01*
X0000063646Y0002578240D01*
X0000071147Y0002580115D01*
X0000074896Y0002581990D01*
X0000076771Y0002583864D01*
X0000078646Y0002587614D01*
X0000078646Y0002591363D01*
X0000076771Y0002595113D01*
X0000074896Y0002596988D01*
X0000071147Y0002598862D01*
X0000061773Y0002598862D01*
X0000056149Y0002596988D01*
X0000039276Y0002559492D02*
X0000039276Y0002598862D01*
X0000024278Y0002598862D01*
X0000020528Y0002596988D01*
X0000018653Y0002595113D01*
X0000016779Y0002591363D01*
X0000016779Y0002585739D01*
X0000018653Y0002581990D01*
X0000020528Y0002580115D01*
X0000024278Y0002578240D01*
X0000039276Y0002578240D01*
D23*
X0000199206Y0002649116D02*
X0000199206Y0002672738D01*
X0000191332Y0002655866D01*
X0000183457Y0002672738D01*
X0000183457Y0002649116D01*
X0000172210Y0002649116D02*
X0000172210Y0002672738D01*
X0000162086Y0002650240D02*
X0000158712Y0002649116D01*
X0000153087Y0002649116D01*
X0000150838Y0002650240D01*
X0000149713Y0002651366D01*
X0000148588Y0002653616D01*
X0000148588Y0002655866D01*
X0000149713Y0002658115D01*
X0000150838Y0002659240D01*
X0000153087Y0002660365D01*
X0000157587Y0002661490D01*
X0000159836Y0002662615D01*
X0000160961Y0002663740D01*
X0000162086Y0002665989D01*
X0000162086Y0002668239D01*
X0000160961Y0002670489D01*
X0000159836Y0002671614D01*
X0000157587Y0002672738D01*
X0000151962Y0002672738D01*
X0000148588Y0002671614D01*
X0000133965Y0002672738D02*
X0000129465Y0002672738D01*
X0000127215Y0002671614D01*
X0000124966Y0002669364D01*
X0000123841Y0002664865D01*
X0000123841Y0002656990D01*
X0000124966Y0002652491D01*
X0000127215Y0002650240D01*
X0000129465Y0002649116D01*
X0000133965Y0002649116D01*
X0000136214Y0002650240D01*
X0000138464Y0002652491D01*
X0000139589Y0002656990D01*
X0000139589Y0002664865D01*
X0000138464Y0002669364D01*
X0000136214Y0002671614D01*
X0000133965Y0002672738D01*
X0000187457Y0002750241D02*
X0000184083Y0002749116D01*
X0000178458Y0002749116D01*
X0000176209Y0002750241D01*
X0000175084Y0002751366D01*
X0000173959Y0002753616D01*
X0000173959Y0002755866D01*
X0000175084Y0002758115D01*
X0000176209Y0002759239D01*
X0000178458Y0002760365D01*
X0000182958Y0002761490D01*
X0000185208Y0002762615D01*
X0000186332Y0002763740D01*
X0000187457Y0002765989D01*
X0000187457Y0002768239D01*
X0000186332Y0002770488D01*
X0000185208Y0002771614D01*
X0000182958Y0002772739D01*
X0000177334Y0002772739D01*
X0000173959Y0002771614D01*
X0000150337Y0002751366D02*
X0000151462Y0002750241D01*
X0000154836Y0002749116D01*
X0000157086Y0002749116D01*
X0000160460Y0002750241D01*
X0000162710Y0002752491D01*
X0000163835Y0002754740D01*
X0000164960Y0002759239D01*
X0000164960Y0002762615D01*
X0000163835Y0002767114D01*
X0000162710Y0002769364D01*
X0000160460Y0002771614D01*
X0000157086Y0002772739D01*
X0000154836Y0002772739D01*
X0000151462Y0002771614D01*
X0000150337Y0002770488D01*
X0000140213Y0002749116D02*
X0000140213Y0002772739D01*
X0000126715Y0002749116D02*
X0000136839Y0002762615D01*
X0000126715Y0002772739D02*
X0000140213Y0002759239D01*
X0000211394Y0002849116D02*
X0000219268Y0002860365D01*
X0000224893Y0002849116D02*
X0000224893Y0002872739D01*
X0000215894Y0002872739D01*
X0000213644Y0002871614D01*
X0000212519Y0002870489D01*
X0000211394Y0002868239D01*
X0000211394Y0002864864D01*
X0000212519Y0002862615D01*
X0000213644Y0002861490D01*
X0000215894Y0002860365D01*
X0000224893Y0002860365D01*
X0000201271Y0002861490D02*
X0000193397Y0002861490D01*
X0000190022Y0002849116D02*
X0000201271Y0002849116D01*
X0000201271Y0002872739D01*
X0000190022Y0002872739D01*
X0000181022Y0002850241D02*
X0000177649Y0002849116D01*
X0000172024Y0002849116D01*
X0000169775Y0002850241D01*
X0000168649Y0002851366D01*
X0000167525Y0002853616D01*
X0000167525Y0002855866D01*
X0000168649Y0002858115D01*
X0000169775Y0002859240D01*
X0000172024Y0002860365D01*
X0000176524Y0002861490D01*
X0000178772Y0002862615D01*
X0000179898Y0002863740D01*
X0000181022Y0002865989D01*
X0000181022Y0002868239D01*
X0000179898Y0002870489D01*
X0000178772Y0002871614D01*
X0000176524Y0002872739D01*
X0000170899Y0002872739D01*
X0000167525Y0002871614D01*
X0000157401Y0002861490D02*
X0000149527Y0002861490D01*
X0000146152Y0002849116D02*
X0000157401Y0002849116D01*
X0000157401Y0002872739D01*
X0000146152Y0002872739D01*
X0000139403Y0002872739D02*
X0000125903Y0002872739D01*
X0000132654Y0002849116D02*
X0000132654Y0002872739D01*
X0000199206Y0003044116D02*
X0000199206Y0003067739D01*
X0000191332Y0003050865D01*
X0000183457Y0003067739D01*
X0000183457Y0003044116D01*
X0000167710Y0003067739D02*
X0000163211Y0003067739D01*
X0000160961Y0003066614D01*
X0000158712Y0003064364D01*
X0000157587Y0003059865D01*
X0000157587Y0003051990D01*
X0000158712Y0003047491D01*
X0000160961Y0003045241D01*
X0000163211Y0003044116D01*
X0000167710Y0003044116D01*
X0000169960Y0003045241D01*
X0000172210Y0003047491D01*
X0000173335Y0003051990D01*
X0000173335Y0003059865D01*
X0000172210Y0003064364D01*
X0000169960Y0003066614D01*
X0000167710Y0003067739D01*
X0000148588Y0003045241D02*
X0000145213Y0003044116D01*
X0000139589Y0003044116D01*
X0000137339Y0003045241D01*
X0000136214Y0003046366D01*
X0000135090Y0003048616D01*
X0000135090Y0003050865D01*
X0000136214Y0003053115D01*
X0000137339Y0003054240D01*
X0000139589Y0003055364D01*
X0000144088Y0003056490D01*
X0000146338Y0003057615D01*
X0000147463Y0003058740D01*
X0000148588Y0003060989D01*
X0000148588Y0003063239D01*
X0000147463Y0003065489D01*
X0000146338Y0003066614D01*
X0000144088Y0003067739D01*
X0000138464Y0003067739D01*
X0000135090Y0003066614D01*
X0000124966Y0003044116D02*
X0000124966Y0003067739D01*
D24*
X0000772047Y0002351102D02*
X0000142125Y0002351102D01*
X0000142125Y0002351102D02*
X0000142125Y0003099133D01*
X0000142125Y0003099133D02*
X0000772047Y0003099133D01*
X0000772047Y0003099133D02*
X0000772047Y0002351102D01*
D25*
X0000657401Y0002282267D02*
X0000696770Y0002282267D01*
X0000696770Y0002215338D02*
X0000657401Y0002215338D01*
X0000409271Y0001821338D02*
X0000369901Y0001821338D01*
X0000369901Y0001888267D02*
X0000409271Y0001888267D01*
X0000369901Y0002095767D02*
X0000409271Y0002095767D01*
X0000409271Y0002028838D02*
X0000369901Y0002028838D01*
X0000357027Y0002005472D02*
X0000431830Y0002005472D01*
X0000412145Y0001914133D02*
X0000357027Y0001914133D01*
D24*
X0000494586Y0002067303D02*
X0000614586Y0002067303D01*
X0000614586Y0001922303D02*
X0000614586Y0001847303D01*
X0000614586Y0001847303D02*
X0000494586Y0001847303D01*
X0000494586Y0001847303D02*
X0000494586Y0001922303D01*
X0000494586Y0001987303D02*
X0000494586Y0002067303D01*
X0000494586Y0002059429D02*
X0000614586Y0002059429D01*
X0000614586Y0002067303D02*
X0000614586Y0001987303D01*
D25*
X0000604586Y0002107263D02*
X0000504586Y0002107263D01*
X0000504586Y0002177342D02*
X0000604586Y0002177342D01*
X0000504586Y0002177342D02*
X0000504586Y0002107263D01*
X0000604586Y0002107263D02*
X0000604586Y0002177342D01*
D24*
X0000495519Y0002608882D02*
X0000495519Y0002648252D01*
X0000454274Y0002612632D02*
X0000456149Y0002610757D01*
X0000461773Y0002608882D01*
X0000465523Y0002608882D01*
X0000471147Y0002610757D01*
X0000474896Y0002614506D01*
X0000476771Y0002618256D01*
X0000478646Y0002625755D01*
X0000478646Y0002631378D01*
X0000476771Y0002638878D01*
X0000474896Y0002642628D01*
X0000471147Y0002646377D01*
X0000465523Y0002648252D01*
X0000461773Y0002648252D01*
X0000456149Y0002646377D01*
X0000454274Y0002644503D01*
X0000439276Y0002644503D02*
X0000437401Y0002646377D01*
X0000433652Y0002648252D01*
X0000424278Y0002648252D01*
X0000420528Y0002646377D01*
X0000418653Y0002644503D01*
X0000416779Y0002640753D01*
X0000416779Y0002637004D01*
X0000418653Y0002631378D01*
X0000441151Y0002608882D01*
X0000416779Y0002608882D01*
X0000728648Y0002184742D02*
X0000730522Y0002182867D01*
X0000736146Y0002180992D01*
X0000739896Y0002180992D01*
X0000745521Y0002182867D01*
X0000749269Y0002186617D01*
X0000751145Y0002190366D01*
X0000753020Y0002197865D01*
X0000753020Y0002203490D01*
X0000751145Y0002210989D01*
X0000749269Y0002214738D01*
X0000745521Y0002218488D01*
X0000739896Y0002220362D01*
X0000736146Y0002220362D01*
X0000730522Y0002218488D01*
X0000728648Y0002216613D01*
X0000715524Y0002220362D02*
X0000691152Y0002220362D01*
X0000704276Y0002205364D01*
X0000698651Y0002205364D01*
X0000694902Y0002203490D01*
X0000693027Y0002201615D01*
X0000691152Y0002197865D01*
X0000691152Y0002188491D01*
X0000693027Y0002184742D01*
X0000694902Y0002182867D01*
X0000698651Y0002180992D01*
X0000709900Y0002180992D01*
X0000713650Y0002182867D01*
X0000715524Y0002184742D01*
X0000268648Y0001838242D02*
X0000270523Y0001836367D01*
X0000276147Y0001834492D01*
X0000279896Y0001834492D01*
X0000285521Y0001836367D01*
X0000289270Y0001840115D01*
X0000291145Y0001843866D01*
X0000293020Y0001851365D01*
X0000293020Y0001856990D01*
X0000291145Y0001864489D01*
X0000289270Y0001868238D01*
X0000285521Y0001871988D01*
X0000279896Y0001873862D01*
X0000276147Y0001873862D01*
X0000270523Y0001871988D01*
X0000268648Y0001870113D01*
X0000234902Y0001873862D02*
X0000242401Y0001873862D01*
X0000246151Y0001871988D01*
X0000248025Y0001870113D01*
X0000251775Y0001864489D01*
X0000253650Y0001856990D01*
X0000253650Y0001841990D01*
X0000251775Y0001838242D01*
X0000249900Y0001836367D01*
X0000246151Y0001834492D01*
X0000238651Y0001834492D01*
X0000234902Y0001836367D01*
X0000233027Y0001838242D01*
X0000231152Y0001841990D01*
X0000231152Y0001851365D01*
X0000233027Y0001855115D01*
X0000234902Y0001856990D01*
X0000238651Y0001858864D01*
X0000246151Y0001858864D01*
X0000249900Y0001856990D01*
X0000251775Y0001855115D01*
X0000253650Y0001851365D01*
X0000265648Y0002045742D02*
X0000267523Y0002043867D01*
X0000273147Y0002041992D01*
X0000276896Y0002041992D01*
X0000282521Y0002043867D01*
X0000286270Y0002047616D01*
X0000288145Y0002051365D01*
X0000290020Y0002058865D01*
X0000290020Y0002064490D01*
X0000288145Y0002071988D01*
X0000286270Y0002075737D01*
X0000282521Y0002079488D01*
X0000276896Y0002081362D01*
X0000273147Y0002081362D01*
X0000267523Y0002079488D01*
X0000265648Y0002077613D01*
X0000252524Y0002081362D02*
X0000226278Y0002081362D01*
X0000243151Y0002041992D01*
X0000278019Y0001936992D02*
X0000278019Y0001976361D01*
X0000236774Y0001940742D02*
X0000238649Y0001938866D01*
X0000244273Y0001936992D01*
X0000248023Y0001936992D01*
X0000253647Y0001938866D01*
X0000257396Y0001942617D01*
X0000259270Y0001946366D01*
X0000261146Y0001953865D01*
X0000261146Y0001959490D01*
X0000259270Y0001966989D01*
X0000257396Y0001970738D01*
X0000253647Y0001974486D01*
X0000248023Y0001976361D01*
X0000244273Y0001976361D01*
X0000238649Y0001974486D01*
X0000236774Y0001972613D01*
X0000223651Y0001976361D02*
X0000199279Y0001976361D01*
X0000212402Y0001961364D01*
X0000206778Y0001961364D01*
X0000203028Y0001959490D01*
X0000201153Y0001957615D01*
X0000199279Y0001953865D01*
X0000199279Y0001944491D01*
X0000201153Y0001940742D01*
X0000203028Y0001938866D01*
X0000206778Y0001936992D01*
X0000218026Y0001936992D01*
X0000221776Y0001938866D01*
X0000223651Y0001940742D01*
X0000561148Y0001794492D02*
X0000579895Y0001794492D01*
X0000579895Y0001833862D01*
X0000527402Y0001794492D02*
X0000549899Y0001794492D01*
X0000538651Y0001794492D02*
X0000538651Y0001833862D01*
X0000542400Y0001828238D01*
X0000546150Y0001824489D01*
X0000549899Y0001822614D01*
X0000482394Y0002168862D02*
X0000482394Y0002140741D01*
X0000484269Y0002135117D01*
X0000488019Y0002131367D01*
X0000493643Y0002129492D01*
X0000497393Y0002129492D01*
X0000463647Y0002129492D02*
X0000463647Y0002168862D01*
X0000448648Y0002168862D01*
X0000444899Y0002166988D01*
X0000443024Y0002165113D01*
X0000441150Y0002161363D01*
X0000441150Y0002155739D01*
X0000443024Y0002151990D01*
X0000444899Y0002150115D01*
X0000448648Y0002148240D01*
X0000463647Y0002148240D01*
X0000403654Y0002129492D02*
X0000426152Y0002129492D01*
X0000414903Y0002129492D02*
X0000414903Y0002168862D01*
X0000418651Y0002163238D01*
X0000422402Y0002159489D01*
X0000426152Y0002157614D01*
G01*
D36*
D37*
X0000961660Y0000905949D02*
X0000961660Y0000945318D01*
X0000944788Y0000907824D02*
X0000939163Y0000905949D01*
X0000929790Y0000905949D01*
X0000926040Y0000907824D01*
X0000924165Y0000909699D01*
X0000922290Y0000913448D01*
X0000922290Y0000917198D01*
X0000924165Y0000920947D01*
X0000926040Y0000922822D01*
X0000929790Y0000924697D01*
X0000937289Y0000926571D01*
X0000941038Y0000928446D01*
X0000942913Y0000930321D01*
X0000944788Y0000934071D01*
X0000944788Y0000937820D01*
X0000942913Y0000941570D01*
X0000941038Y0000943444D01*
X0000937289Y0000945318D01*
X0000927915Y0000945318D01*
X0000922290Y0000943444D01*
X0000905418Y0000905949D02*
X0000905418Y0000945318D01*
X0000890419Y0000945318D01*
X0000886670Y0000943444D01*
X0000884794Y0000941570D01*
X0000882920Y0000937820D01*
X0000882920Y0000932195D01*
X0000884794Y0000928446D01*
X0000886670Y0000926571D01*
X0000890419Y0000924697D01*
X0000905418Y0000924697D01*
D36*
X0001065348Y0000995573D02*
X0001065348Y0001019195D01*
X0001057474Y0001002321D01*
X0001049600Y0001019195D01*
X0001049600Y0000995573D01*
X0001038351Y0000995573D02*
X0001038351Y0001019195D01*
X0001028227Y0000996698D02*
X0001024853Y0000995573D01*
X0001019228Y0000995573D01*
X0001016979Y0000996698D01*
X0001015854Y0000997823D01*
X0001014729Y0001000073D01*
X0001014729Y0001002321D01*
X0001015854Y0001004572D01*
X0001016979Y0001005697D01*
X0001019228Y0001006822D01*
X0001023728Y0001007946D01*
X0001025978Y0001009072D01*
X0001027103Y0001010196D01*
X0001028227Y0001012446D01*
X0001028227Y0001014696D01*
X0001027103Y0001016945D01*
X0001025978Y0001018070D01*
X0001023728Y0001019195D01*
X0001018103Y0001019195D01*
X0001014729Y0001018070D01*
X0001000105Y0001019195D02*
X0000995607Y0001019195D01*
X0000993357Y0001018070D01*
X0000991107Y0001015821D01*
X0000989983Y0001011320D01*
X0000989983Y0001003447D01*
X0000991107Y0000998948D01*
X0000993357Y0000996698D01*
X0000995607Y0000995573D01*
X0001000105Y0000995573D01*
X0001002356Y0000996698D01*
X0001004606Y0000998948D01*
X0001005730Y0001003447D01*
X0001005730Y0001011320D01*
X0001004606Y0001015821D01*
X0001002356Y0001018070D01*
X0001000105Y0001019195D01*
X0001053599Y0001096698D02*
X0001050224Y0001095573D01*
X0001044600Y0001095573D01*
X0001042350Y0001096698D01*
X0001041226Y0001097823D01*
X0001040101Y0001100073D01*
X0001040101Y0001102322D01*
X0001041226Y0001104572D01*
X0001042350Y0001105697D01*
X0001044600Y0001106822D01*
X0001049100Y0001107947D01*
X0001051349Y0001109072D01*
X0001052474Y0001110196D01*
X0001053599Y0001112446D01*
X0001053599Y0001114696D01*
X0001052474Y0001116946D01*
X0001051349Y0001118070D01*
X0001049100Y0001119195D01*
X0001043474Y0001119195D01*
X0001040101Y0001118070D01*
X0001016478Y0001097823D02*
X0001017603Y0001096698D01*
X0001020977Y0001095573D01*
X0001023228Y0001095573D01*
X0001026602Y0001096698D01*
X0001028852Y0001098948D01*
X0001029976Y0001101197D01*
X0001031102Y0001105697D01*
X0001031102Y0001109072D01*
X0001029976Y0001113571D01*
X0001028852Y0001115821D01*
X0001026602Y0001118070D01*
X0001023228Y0001119195D01*
X0001020977Y0001119195D01*
X0001017603Y0001118070D01*
X0001016478Y0001116946D01*
X0001006355Y0001095573D02*
X0001006355Y0001119195D01*
X0000992857Y0001095573D02*
X0001002980Y0001109072D01*
X0000992857Y0001119195D02*
X0001006355Y0001105697D01*
X0001077536Y0001195573D02*
X0001085410Y0001206822D01*
X0001091034Y0001195573D02*
X0001091034Y0001219195D01*
X0001082035Y0001219195D01*
X0001079786Y0001218070D01*
X0001078661Y0001216945D01*
X0001077536Y0001214696D01*
X0001077536Y0001211321D01*
X0001078661Y0001209072D01*
X0001079786Y0001207947D01*
X0001082035Y0001206822D01*
X0001091034Y0001206822D01*
X0001067412Y0001207947D02*
X0001059538Y0001207947D01*
X0001056164Y0001195573D02*
X0001067412Y0001195573D01*
X0001067412Y0001219195D01*
X0001056164Y0001219195D01*
X0001047164Y0001196698D02*
X0001043790Y0001195573D01*
X0001038165Y0001195573D01*
X0001035916Y0001196698D01*
X0001034791Y0001197823D01*
X0001033666Y0001200073D01*
X0001033666Y0001202322D01*
X0001034791Y0001204572D01*
X0001035916Y0001205697D01*
X0001038165Y0001206822D01*
X0001042665Y0001207947D01*
X0001044915Y0001209072D01*
X0001046040Y0001210196D01*
X0001047164Y0001212446D01*
X0001047164Y0001214696D01*
X0001046040Y0001216945D01*
X0001044915Y0001218070D01*
X0001042665Y0001219195D01*
X0001037041Y0001219195D01*
X0001033666Y0001218070D01*
X0001023543Y0001207947D02*
X0001015668Y0001207947D01*
X0001012294Y0001195573D02*
X0001023543Y0001195573D01*
X0001023543Y0001219195D01*
X0001012294Y0001219195D01*
X0001005544Y0001219195D02*
X0000992047Y0001219195D01*
X0000998796Y0001195573D02*
X0000998796Y0001219195D01*
X0001065348Y0001390572D02*
X0001065348Y0001414195D01*
X0001057474Y0001397322D01*
X0001049600Y0001414195D01*
X0001049600Y0001390572D01*
X0001033852Y0001414195D02*
X0001029353Y0001414195D01*
X0001027103Y0001413070D01*
X0001024853Y0001410821D01*
X0001023728Y0001406320D01*
X0001023728Y0001398446D01*
X0001024853Y0001393948D01*
X0001027103Y0001391698D01*
X0001029353Y0001390572D01*
X0001033852Y0001390572D01*
X0001036102Y0001391698D01*
X0001038351Y0001393948D01*
X0001039476Y0001398446D01*
X0001039476Y0001406320D01*
X0001038351Y0001410821D01*
X0001036102Y0001413070D01*
X0001033852Y0001414195D01*
X0001014729Y0001391698D02*
X0001011355Y0001390572D01*
X0001005730Y0001390572D01*
X0001003481Y0001391698D01*
X0001002356Y0001392823D01*
X0001001231Y0001395073D01*
X0001001231Y0001397322D01*
X0001002356Y0001399572D01*
X0001003481Y0001400697D01*
X0001005730Y0001401822D01*
X0001010230Y0001402947D01*
X0001012480Y0001404071D01*
X0001013605Y0001405196D01*
X0001014729Y0001407446D01*
X0001014729Y0001409695D01*
X0001013605Y0001411946D01*
X0001012480Y0001413070D01*
X0001010230Y0001414195D01*
X0001004606Y0001414195D01*
X0001001231Y0001413070D01*
X0000991107Y0001390572D02*
X0000991107Y0001414195D01*
D37*
X0001638187Y0000697559D02*
X0001008267Y0000697559D01*
X0001008267Y0000697559D02*
X0001008267Y0001445590D01*
X0001008267Y0001445590D02*
X0001638187Y0001445590D01*
X0001638187Y0001445590D02*
X0001638187Y0000697559D01*
D38*
X0001523543Y0000628724D02*
X0001562913Y0000628724D01*
X0001562913Y0000561795D02*
X0001523543Y0000561795D01*
X0001275413Y0000167795D02*
X0001236043Y0000167795D01*
X0001236043Y0000234723D02*
X0001275413Y0000234723D01*
X0001236043Y0000442224D02*
X0001275413Y0000442224D01*
X0001275413Y0000375295D02*
X0001236043Y0000375295D01*
X0001223169Y0000351929D02*
X0001297972Y0000351929D01*
X0001278287Y0000260590D02*
X0001223169Y0000260590D01*
D37*
X0001360728Y0000413759D02*
X0001480728Y0000413759D01*
X0001480728Y0000268759D02*
X0001480728Y0000193759D01*
X0001480728Y0000193759D02*
X0001360728Y0000193759D01*
X0001360728Y0000193759D02*
X0001360728Y0000268759D01*
X0001360728Y0000333759D02*
X0001360728Y0000413759D01*
X0001360728Y0000405885D02*
X0001480728Y0000405885D01*
X0001480728Y0000413759D02*
X0001480728Y0000333759D01*
D38*
X0001470728Y0000453720D02*
X0001370728Y0000453720D01*
X0001370728Y0000523799D02*
X0001470728Y0000523799D01*
X0001370728Y0000523799D02*
X0001370728Y0000453720D01*
X0001470728Y0000453720D02*
X0001470728Y0000523799D01*
D37*
X0001361660Y0000955339D02*
X0001361660Y0000994709D01*
X0001320416Y0000959088D02*
X0001322290Y0000957214D01*
X0001327915Y0000955339D01*
X0001331664Y0000955339D01*
X0001337288Y0000957214D01*
X0001341038Y0000960963D01*
X0001342913Y0000964713D01*
X0001344788Y0000972212D01*
X0001344788Y0000977836D01*
X0001342913Y0000985335D01*
X0001341038Y0000989085D01*
X0001337288Y0000992834D01*
X0001331664Y0000994709D01*
X0001327915Y0000994709D01*
X0001322290Y0000992834D01*
X0001320416Y0000990959D01*
X0001305418Y0000990959D02*
X0001303543Y0000992834D01*
X0001299793Y0000994709D01*
X0001290419Y0000994709D01*
X0001286670Y0000992834D01*
X0001284795Y0000990959D01*
X0001282920Y0000987210D01*
X0001282920Y0000983460D01*
X0001284795Y0000977836D01*
X0001307292Y0000955339D01*
X0001282920Y0000955339D01*
X0001594790Y0000531199D02*
X0001596664Y0000529324D01*
X0001602289Y0000527449D01*
X0001606037Y0000527449D01*
X0001611662Y0000529324D01*
X0001615412Y0000533073D01*
X0001617287Y0000536823D01*
X0001619160Y0000544322D01*
X0001619160Y0000549946D01*
X0001617287Y0000557445D01*
X0001615412Y0000561195D01*
X0001611662Y0000564944D01*
X0001606037Y0000566819D01*
X0001602289Y0000566819D01*
X0001596664Y0000564944D01*
X0001594790Y0000563070D01*
X0001581665Y0000566819D02*
X0001557293Y0000566819D01*
X0001570418Y0000551821D01*
X0001564793Y0000551821D01*
X0001561044Y0000549946D01*
X0001559169Y0000548072D01*
X0001557293Y0000544322D01*
X0001557293Y0000534948D01*
X0001559169Y0000531199D01*
X0001561044Y0000529324D01*
X0001564793Y0000527449D01*
X0001576042Y0000527449D01*
X0001579791Y0000529324D01*
X0001581665Y0000531199D01*
X0001134790Y0000184699D02*
X0001136664Y0000182824D01*
X0001142289Y0000180949D01*
X0001146038Y0000180949D01*
X0001151662Y0000182824D01*
X0001155412Y0000186573D01*
X0001157287Y0000190323D01*
X0001159161Y0000197822D01*
X0001159161Y0000203446D01*
X0001157287Y0000210944D01*
X0001155412Y0000214694D01*
X0001151662Y0000218444D01*
X0001146038Y0000220319D01*
X0001142289Y0000220319D01*
X0001136664Y0000218444D01*
X0001134790Y0000216570D01*
X0001101044Y0000220319D02*
X0001108543Y0000220319D01*
X0001112292Y0000218444D01*
X0001114167Y0000216570D01*
X0001117917Y0000210944D01*
X0001119791Y0000203446D01*
X0001119791Y0000188448D01*
X0001117917Y0000184699D01*
X0001116042Y0000182824D01*
X0001112292Y0000180949D01*
X0001104793Y0000180949D01*
X0001101044Y0000182824D01*
X0001099169Y0000184699D01*
X0001097294Y0000188448D01*
X0001097294Y0000197822D01*
X0001099169Y0000201571D01*
X0001101044Y0000203446D01*
X0001104793Y0000205321D01*
X0001112292Y0000205321D01*
X0001116042Y0000203446D01*
X0001117917Y0000201571D01*
X0001119791Y0000197822D01*
X0001131790Y0000392199D02*
X0001133664Y0000390323D01*
X0001139289Y0000388449D01*
X0001143038Y0000388449D01*
X0001148662Y0000390323D01*
X0001152412Y0000394073D01*
X0001154287Y0000397823D01*
X0001156161Y0000405322D01*
X0001156161Y0000410946D01*
X0001154287Y0000418445D01*
X0001152412Y0000422195D01*
X0001148662Y0000425944D01*
X0001143038Y0000427819D01*
X0001139289Y0000427819D01*
X0001133664Y0000425944D01*
X0001131790Y0000424070D01*
X0001118666Y0000427819D02*
X0001092419Y0000427819D01*
X0001109292Y0000388449D01*
X0001144161Y0000283449D02*
X0001144161Y0000322819D01*
X0001102916Y0000287199D02*
X0001104790Y0000285324D01*
X0001110415Y0000283449D01*
X0001114164Y0000283449D01*
X0001119789Y0000285324D01*
X0001123538Y0000289073D01*
X0001125413Y0000292823D01*
X0001127288Y0000300322D01*
X0001127288Y0000305946D01*
X0001125413Y0000313445D01*
X0001123538Y0000317195D01*
X0001119789Y0000320944D01*
X0001114164Y0000322819D01*
X0001110415Y0000322819D01*
X0001104790Y0000320944D01*
X0001102916Y0000319070D01*
X0001089792Y0000322819D02*
X0001065420Y0000322819D01*
X0001078544Y0000307821D01*
X0001072919Y0000307821D01*
X0001069170Y0000305946D01*
X0001067295Y0000304071D01*
X0001065420Y0000300322D01*
X0001065420Y0000290948D01*
X0001067295Y0000287199D01*
X0001069170Y0000285324D01*
X0001072919Y0000283449D01*
X0001084168Y0000283449D01*
X0001087918Y0000285324D01*
X0001089792Y0000287199D01*
X0001427289Y0000140949D02*
X0001446037Y0000140949D01*
X0001446037Y0000180319D01*
X0001393544Y0000140949D02*
X0001416041Y0000140949D01*
X0001404792Y0000140949D02*
X0001404792Y0000180319D01*
X0001408542Y0000174695D01*
X0001412291Y0000170945D01*
X0001416041Y0000169070D01*
X0001348536Y0000515319D02*
X0001348536Y0000487198D01*
X0001350411Y0000481573D01*
X0001354161Y0000477824D01*
X0001359785Y0000475948D01*
X0001363534Y0000475948D01*
X0001329789Y0000475948D02*
X0001329789Y0000515319D01*
X0001314790Y0000515319D01*
X0001311041Y0000513444D01*
X0001309166Y0000511569D01*
X0001307291Y0000507820D01*
X0001307291Y0000502196D01*
X0001309166Y0000498446D01*
X0001311041Y0000496571D01*
X0001314790Y0000494697D01*
X0001329789Y0000494697D01*
X0001269796Y0000475948D02*
X0001292293Y0000475948D01*
X0001281045Y0000475948D02*
X0001281045Y0000515319D01*
X0001284794Y0000509695D01*
X0001288544Y0000505945D01*
X0001292293Y0000504071D01*
G01*
D49*
D50*
X0001827802Y0000905949D02*
X0001827802Y0000945318D01*
X0001810928Y0000907824D02*
X0001805305Y0000905949D01*
X0001795931Y0000905949D01*
X0001792182Y0000907824D01*
X0001790307Y0000909699D01*
X0001788432Y0000913448D01*
X0001788432Y0000917198D01*
X0001790307Y0000920947D01*
X0001792182Y0000922822D01*
X0001795931Y0000924697D01*
X0001803430Y0000926571D01*
X0001807180Y0000928446D01*
X0001809054Y0000930321D01*
X0001810928Y0000934071D01*
X0001810928Y0000937820D01*
X0001809054Y0000941570D01*
X0001807180Y0000943444D01*
X0001803430Y0000945318D01*
X0001794056Y0000945318D01*
X0001788432Y0000943444D01*
X0001771559Y0000905949D02*
X0001771559Y0000945318D01*
X0001756561Y0000945318D01*
X0001752812Y0000943444D01*
X0001750937Y0000941570D01*
X0001749062Y0000937820D01*
X0001749062Y0000932195D01*
X0001750937Y0000928446D01*
X0001752812Y0000926571D01*
X0001756561Y0000924697D01*
X0001771559Y0000924697D01*
D49*
X0001931490Y0000995573D02*
X0001931490Y0001019195D01*
X0001923616Y0001002321D01*
X0001915742Y0001019195D01*
X0001915742Y0000995573D01*
X0001904493Y0000995573D02*
X0001904493Y0001019195D01*
X0001894370Y0000996698D02*
X0001890995Y0000995573D01*
X0001885371Y0000995573D01*
X0001883121Y0000996698D01*
X0001881996Y0000997823D01*
X0001880869Y0001000073D01*
X0001880869Y0001002321D01*
X0001881996Y0001004572D01*
X0001883121Y0001005697D01*
X0001885371Y0001006822D01*
X0001889870Y0001007946D01*
X0001892120Y0001009072D01*
X0001893245Y0001010196D01*
X0001894370Y0001012446D01*
X0001894370Y0001014696D01*
X0001893245Y0001016945D01*
X0001892120Y0001018070D01*
X0001889870Y0001019195D01*
X0001884246Y0001019195D01*
X0001880869Y0001018070D01*
X0001866248Y0001019195D02*
X0001861749Y0001019195D01*
X0001859499Y0001018070D01*
X0001857249Y0001015821D01*
X0001856124Y0001011320D01*
X0001856124Y0001003447D01*
X0001857249Y0000998948D01*
X0001859499Y0000996698D01*
X0001861749Y0000995573D01*
X0001866248Y0000995573D01*
X0001868497Y0000996698D01*
X0001870747Y0000998948D01*
X0001871872Y0001003447D01*
X0001871872Y0001011320D01*
X0001870747Y0001015821D01*
X0001868497Y0001018070D01*
X0001866248Y0001019195D01*
X0001919741Y0001096698D02*
X0001916366Y0001095573D01*
X0001910742Y0001095573D01*
X0001908492Y0001096698D01*
X0001907367Y0001097823D01*
X0001906242Y0001100073D01*
X0001906242Y0001102322D01*
X0001907367Y0001104572D01*
X0001908492Y0001105697D01*
X0001910742Y0001106822D01*
X0001915241Y0001107947D01*
X0001917491Y0001109072D01*
X0001918616Y0001110196D01*
X0001919741Y0001112446D01*
X0001919741Y0001114696D01*
X0001918616Y0001116946D01*
X0001917491Y0001118070D01*
X0001915241Y0001119195D01*
X0001909617Y0001119195D01*
X0001906242Y0001118070D01*
X0001882620Y0001097823D02*
X0001883745Y0001096698D01*
X0001887120Y0001095573D01*
X0001889370Y0001095573D01*
X0001892744Y0001096698D01*
X0001894994Y0001098948D01*
X0001896119Y0001101197D01*
X0001897244Y0001105697D01*
X0001897244Y0001109072D01*
X0001896119Y0001113571D01*
X0001894994Y0001115821D01*
X0001892744Y0001118070D01*
X0001889370Y0001119195D01*
X0001887120Y0001119195D01*
X0001883745Y0001118070D01*
X0001882620Y0001116946D01*
X0001872497Y0001095573D02*
X0001872497Y0001119195D01*
X0001858998Y0001095573D02*
X0001869122Y0001109072D01*
X0001858998Y0001119195D02*
X0001872497Y0001105697D01*
X0001943678Y0001195573D02*
X0001951552Y0001206822D01*
X0001957176Y0001195573D02*
X0001957176Y0001219195D01*
X0001948177Y0001219195D01*
X0001945927Y0001218070D01*
X0001944803Y0001216945D01*
X0001943678Y0001214696D01*
X0001943678Y0001211321D01*
X0001944803Y0001209072D01*
X0001945927Y0001207947D01*
X0001948177Y0001206822D01*
X0001957176Y0001206822D01*
X0001933554Y0001207947D02*
X0001925680Y0001207947D01*
X0001922305Y0001195573D02*
X0001933554Y0001195573D01*
X0001933554Y0001219195D01*
X0001922305Y0001219195D01*
X0001913307Y0001196698D02*
X0001909932Y0001195573D01*
X0001904308Y0001195573D01*
X0001902058Y0001196698D01*
X0001900933Y0001197823D01*
X0001899806Y0001200073D01*
X0001899806Y0001202322D01*
X0001900933Y0001204572D01*
X0001902058Y0001205697D01*
X0001904308Y0001206822D01*
X0001908807Y0001207947D01*
X0001911055Y0001209072D01*
X0001912182Y0001210196D01*
X0001913307Y0001212446D01*
X0001913307Y0001214696D01*
X0001912182Y0001216945D01*
X0001911055Y0001218070D01*
X0001908807Y0001219195D01*
X0001903183Y0001219195D01*
X0001899806Y0001218070D01*
X0001889685Y0001207947D02*
X0001881811Y0001207947D01*
X0001878436Y0001195573D02*
X0001889685Y0001195573D01*
X0001889685Y0001219195D01*
X0001878436Y0001219195D01*
X0001871686Y0001219195D02*
X0001858188Y0001219195D01*
X0001864938Y0001195573D02*
X0001864938Y0001219195D01*
X0001931490Y0001390572D02*
X0001931490Y0001414195D01*
X0001923616Y0001397322D01*
X0001915742Y0001414195D01*
X0001915742Y0001390572D01*
X0001899992Y0001414195D02*
X0001895494Y0001414195D01*
X0001893245Y0001413070D01*
X0001890995Y0001410821D01*
X0001889870Y0001406320D01*
X0001889870Y0001398446D01*
X0001890995Y0001393948D01*
X0001893245Y0001391698D01*
X0001895494Y0001390572D01*
X0001899992Y0001390572D01*
X0001902244Y0001391698D01*
X0001904493Y0001393948D01*
X0001905618Y0001398446D01*
X0001905618Y0001406320D01*
X0001904493Y0001410821D01*
X0001902244Y0001413070D01*
X0001899992Y0001414195D01*
X0001880869Y0001391698D02*
X0001877497Y0001390572D01*
X0001871872Y0001390572D01*
X0001869623Y0001391698D01*
X0001868497Y0001392823D01*
X0001867373Y0001395073D01*
X0001867373Y0001397322D01*
X0001868497Y0001399572D01*
X0001869623Y0001400697D01*
X0001871872Y0001401822D01*
X0001876372Y0001402947D01*
X0001878622Y0001404071D01*
X0001879746Y0001405196D01*
X0001880869Y0001407446D01*
X0001880869Y0001409695D01*
X0001879746Y0001411946D01*
X0001878622Y0001413070D01*
X0001876372Y0001414195D01*
X0001870747Y0001414195D01*
X0001867373Y0001413070D01*
X0001857249Y0001390572D02*
X0001857249Y0001414195D01*
D50*
X0002504330Y0000697559D02*
X0001874407Y0000697559D01*
X0001874407Y0000697559D02*
X0001874407Y0001445590D01*
X0001874407Y0001445590D02*
X0002504330Y0001445590D01*
X0002504330Y0001445590D02*
X0002504330Y0000697559D01*
D51*
X0002389685Y0000628724D02*
X0002429055Y0000628724D01*
X0002429055Y0000561795D02*
X0002389685Y0000561795D01*
X0002141555Y0000167795D02*
X0002102185Y0000167795D01*
X0002102185Y0000234723D02*
X0002141555Y0000234723D01*
X0002102185Y0000442224D02*
X0002141555Y0000442224D01*
X0002141555Y0000375295D02*
X0002102185Y0000375295D01*
X0002089311Y0000351929D02*
X0002164114Y0000351929D01*
X0002144429Y0000260590D02*
X0002089311Y0000260590D01*
D50*
X0002226870Y0000413759D02*
X0002346870Y0000413759D01*
X0002346870Y0000268759D02*
X0002346870Y0000193759D01*
X0002346870Y0000193759D02*
X0002226870Y0000193759D01*
X0002226870Y0000193759D02*
X0002226870Y0000268759D01*
X0002226870Y0000333759D02*
X0002226870Y0000413759D01*
X0002226870Y0000405885D02*
X0002346870Y0000405885D01*
X0002346870Y0000413759D02*
X0002346870Y0000333759D01*
D51*
X0002336870Y0000453720D02*
X0002236870Y0000453720D01*
X0002236870Y0000523799D02*
X0002336870Y0000523799D01*
X0002236870Y0000523799D02*
X0002236870Y0000453720D01*
X0002336870Y0000453720D02*
X0002336870Y0000523799D01*
D50*
X0002227802Y0000955339D02*
X0002227802Y0000994709D01*
X0002186557Y0000959088D02*
X0002188432Y0000957214D01*
X0002194056Y0000955339D01*
X0002197806Y0000955339D01*
X0002203430Y0000957214D01*
X0002207180Y0000960963D01*
X0002209055Y0000964713D01*
X0002210929Y0000972212D01*
X0002210929Y0000977836D01*
X0002209055Y0000985335D01*
X0002207180Y0000989085D01*
X0002203430Y0000992834D01*
X0002197806Y0000994709D01*
X0002194056Y0000994709D01*
X0002188432Y0000992834D01*
X0002186557Y0000990959D01*
X0002171559Y0000990959D02*
X0002169685Y0000992834D01*
X0002165935Y0000994709D01*
X0002156561Y0000994709D01*
X0002152812Y0000992834D01*
X0002150937Y0000990959D01*
X0002149062Y0000987210D01*
X0002149062Y0000983460D01*
X0002150937Y0000977836D01*
X0002173434Y0000955339D01*
X0002149062Y0000955339D01*
X0002460931Y0000531199D02*
X0002462806Y0000529324D01*
X0002468430Y0000527449D01*
X0002472180Y0000527449D01*
X0002477804Y0000529324D01*
X0002481554Y0000533073D01*
X0002483428Y0000536823D01*
X0002485303Y0000544322D01*
X0002485303Y0000549946D01*
X0002483428Y0000557445D01*
X0002481554Y0000561195D01*
X0002477804Y0000564944D01*
X0002472180Y0000566819D01*
X0002468430Y0000566819D01*
X0002462806Y0000564944D01*
X0002460931Y0000563070D01*
X0002447808Y0000566819D02*
X0002423436Y0000566819D01*
X0002436559Y0000551821D01*
X0002430935Y0000551821D01*
X0002427185Y0000549946D01*
X0002425311Y0000548072D01*
X0002423436Y0000544322D01*
X0002423436Y0000534948D01*
X0002425311Y0000531199D01*
X0002427185Y0000529324D01*
X0002430935Y0000527449D01*
X0002442184Y0000527449D01*
X0002445933Y0000529324D01*
X0002447808Y0000531199D01*
X0002000931Y0000184699D02*
X0002002806Y0000182824D01*
X0002008430Y0000180949D01*
X0002012179Y0000180949D01*
X0002017804Y0000182824D01*
X0002021554Y0000186573D01*
X0002023428Y0000190323D01*
X0002025303Y0000197822D01*
X0002025303Y0000203446D01*
X0002023428Y0000210944D01*
X0002021554Y0000214694D01*
X0002017804Y0000218444D01*
X0002012179Y0000220319D01*
X0002008430Y0000220319D01*
X0002002806Y0000218444D01*
X0002000931Y0000216570D01*
X0001967185Y0000220319D02*
X0001974685Y0000220319D01*
X0001978434Y0000218444D01*
X0001980309Y0000216570D01*
X0001984058Y0000210944D01*
X0001985933Y0000203446D01*
X0001985933Y0000188448D01*
X0001984058Y0000184699D01*
X0001982184Y0000182824D01*
X0001978434Y0000180949D01*
X0001970935Y0000180949D01*
X0001967185Y0000182824D01*
X0001965311Y0000184699D01*
X0001963436Y0000188448D01*
X0001963436Y0000197822D01*
X0001965311Y0000201571D01*
X0001967185Y0000203446D01*
X0001970935Y0000205321D01*
X0001978434Y0000205321D01*
X0001982184Y0000203446D01*
X0001984058Y0000201571D01*
X0001985933Y0000197822D01*
X0001997930Y0000392199D02*
X0001999806Y0000390323D01*
X0002005430Y0000388449D01*
X0002009180Y0000388449D01*
X0002014803Y0000390323D01*
X0002018554Y0000394073D01*
X0002020428Y0000397823D01*
X0002022303Y0000405322D01*
X0002022303Y0000410946D01*
X0002020428Y0000418445D01*
X0002018554Y0000422195D01*
X0002014803Y0000425944D01*
X0002009180Y0000427819D01*
X0002005430Y0000427819D01*
X0001999806Y0000425944D01*
X0001997930Y0000424070D01*
X0001984807Y0000427819D02*
X0001958560Y0000427819D01*
X0001975434Y0000388449D01*
X0002010301Y0000283449D02*
X0002010301Y0000322819D01*
X0001969057Y0000287199D02*
X0001970932Y0000285324D01*
X0001976556Y0000283449D01*
X0001980306Y0000283449D01*
X0001985929Y0000285324D01*
X0001989680Y0000289073D01*
X0001991555Y0000292823D01*
X0001993429Y0000300322D01*
X0001993429Y0000305946D01*
X0001991555Y0000313445D01*
X0001989680Y0000317195D01*
X0001985929Y0000320944D01*
X0001980306Y0000322819D01*
X0001976556Y0000322819D01*
X0001970932Y0000320944D01*
X0001969057Y0000319070D01*
X0001955934Y0000322819D02*
X0001931562Y0000322819D01*
X0001944685Y0000307821D01*
X0001939061Y0000307821D01*
X0001935312Y0000305946D01*
X0001933437Y0000304071D01*
X0001931562Y0000300322D01*
X0001931562Y0000290948D01*
X0001933437Y0000287199D01*
X0001935312Y0000285324D01*
X0001939061Y0000283449D01*
X0001950310Y0000283449D01*
X0001954059Y0000285324D01*
X0001955934Y0000287199D01*
X0002293431Y0000140949D02*
X0002312179Y0000140949D01*
X0002312179Y0000180319D01*
X0002259685Y0000140949D02*
X0002282183Y0000140949D01*
X0002270934Y0000140949D02*
X0002270934Y0000180319D01*
X0002274684Y0000174695D01*
X0002278433Y0000170945D01*
X0002282183Y0000169070D01*
X0002214678Y0000515319D02*
X0002214678Y0000487198D01*
X0002216553Y0000481573D01*
X0002220302Y0000477824D01*
X0002225927Y0000475948D01*
X0002229676Y0000475948D01*
X0002195930Y0000475948D02*
X0002195930Y0000515319D01*
X0002180932Y0000515319D01*
X0002177183Y0000513444D01*
X0002175308Y0000511569D01*
X0002173433Y0000507820D01*
X0002173433Y0000502196D01*
X0002175308Y0000498446D01*
X0002177183Y0000496571D01*
X0002180932Y0000494697D01*
X0002195930Y0000494697D01*
X0002135938Y0000475948D02*
X0002158435Y0000475948D01*
X0002147186Y0000475948D02*
X0002147186Y0000515319D01*
X0002150936Y0000509695D01*
X0002154685Y0000505945D01*
X0002158435Y0000504071D01*
G04 next file*
%LPD*%
G01*
D62*
D63*
X0002693944Y0000905949D02*
X0002693944Y0000945318D01*
X0002677071Y0000907824D02*
X0002671447Y0000905949D01*
X0002662073Y0000905949D01*
X0002658323Y0000907824D01*
X0002656449Y0000909699D01*
X0002654574Y0000913448D01*
X0002654574Y0000917198D01*
X0002656449Y0000920947D01*
X0002658323Y0000922822D01*
X0002662073Y0000924697D01*
X0002669572Y0000926571D01*
X0002673322Y0000928446D01*
X0002675196Y0000930321D01*
X0002677071Y0000934071D01*
X0002677071Y0000937820D01*
X0002675196Y0000941570D01*
X0002673322Y0000943444D01*
X0002669572Y0000945318D01*
X0002660198Y0000945318D01*
X0002654574Y0000943444D01*
X0002637701Y0000905949D02*
X0002637701Y0000945318D01*
X0002622703Y0000945318D01*
X0002618952Y0000943444D01*
X0002617079Y0000941570D01*
X0002615204Y0000937820D01*
X0002615204Y0000932195D01*
X0002617079Y0000928446D01*
X0002618952Y0000926571D01*
X0002622703Y0000924697D01*
X0002637701Y0000924697D01*
D62*
X0002797632Y0000995573D02*
X0002797632Y0001019195D01*
X0002789757Y0001002321D01*
X0002781884Y0001019195D01*
X0002781884Y0000995573D01*
X0002770635Y0000995573D02*
X0002770635Y0001019195D01*
X0002760511Y0000996698D02*
X0002757137Y0000995573D01*
X0002751511Y0000995573D01*
X0002749263Y0000996698D01*
X0002748138Y0000997823D01*
X0002747012Y0001000073D01*
X0002747012Y0001002321D01*
X0002748138Y0001004572D01*
X0002749263Y0001005697D01*
X0002751511Y0001006822D01*
X0002756012Y0001007946D01*
X0002758262Y0001009072D01*
X0002759386Y0001010196D01*
X0002760511Y0001012446D01*
X0002760511Y0001014696D01*
X0002759386Y0001016945D01*
X0002758262Y0001018070D01*
X0002756012Y0001019195D01*
X0002750388Y0001019195D01*
X0002747012Y0001018070D01*
X0002732390Y0001019195D02*
X0002727890Y0001019195D01*
X0002725641Y0001018070D01*
X0002723391Y0001015821D01*
X0002722266Y0001011320D01*
X0002722266Y0001003447D01*
X0002723391Y0000998948D01*
X0002725641Y0000996698D01*
X0002727890Y0000995573D01*
X0002732390Y0000995573D01*
X0002734640Y0000996698D01*
X0002736889Y0000998948D01*
X0002738014Y0001003447D01*
X0002738014Y0001011320D01*
X0002736889Y0001015821D01*
X0002734640Y0001018070D01*
X0002732390Y0001019195D01*
X0002785882Y0001096698D02*
X0002782508Y0001095573D01*
X0002776884Y0001095573D01*
X0002774634Y0001096698D01*
X0002773509Y0001097823D01*
X0002772384Y0001100073D01*
X0002772384Y0001102322D01*
X0002773509Y0001104572D01*
X0002774634Y0001105697D01*
X0002776884Y0001106822D01*
X0002781383Y0001107947D01*
X0002783632Y0001109072D01*
X0002784758Y0001110196D01*
X0002785882Y0001112446D01*
X0002785882Y0001114696D01*
X0002784758Y0001116946D01*
X0002783632Y0001118070D01*
X0002781383Y0001119195D01*
X0002775759Y0001119195D01*
X0002772384Y0001118070D01*
X0002748762Y0001097823D02*
X0002749887Y0001096698D01*
X0002753261Y0001095573D01*
X0002755511Y0001095573D01*
X0002758886Y0001096698D01*
X0002761136Y0001098948D01*
X0002762260Y0001101197D01*
X0002763385Y0001105697D01*
X0002763385Y0001109072D01*
X0002762260Y0001113571D01*
X0002761136Y0001115821D01*
X0002758886Y0001118070D01*
X0002755511Y0001119195D01*
X0002753261Y0001119195D01*
X0002749887Y0001118070D01*
X0002748762Y0001116946D01*
X0002738638Y0001095573D02*
X0002738638Y0001119195D01*
X0002725139Y0001095573D02*
X0002735264Y0001109072D01*
X0002725139Y0001119195D02*
X0002738638Y0001105697D01*
X0002809820Y0001195573D02*
X0002817694Y0001206822D01*
X0002823318Y0001195573D02*
X0002823318Y0001219195D01*
X0002814319Y0001219195D01*
X0002812068Y0001218070D01*
X0002810944Y0001216945D01*
X0002809820Y0001214696D01*
X0002809820Y0001211321D01*
X0002810944Y0001209072D01*
X0002812068Y0001207947D01*
X0002814319Y0001206822D01*
X0002823318Y0001206822D01*
X0002799696Y0001207947D02*
X0002791822Y0001207947D01*
X0002788447Y0001195573D02*
X0002799696Y0001195573D01*
X0002799696Y0001219195D01*
X0002788447Y0001219195D01*
X0002779448Y0001196698D02*
X0002776074Y0001195573D01*
X0002770449Y0001195573D01*
X0002768200Y0001196698D01*
X0002767075Y0001197823D01*
X0002765950Y0001200073D01*
X0002765950Y0001202322D01*
X0002767075Y0001204572D01*
X0002768200Y0001205697D01*
X0002770449Y0001206822D01*
X0002774949Y0001207947D01*
X0002777198Y0001209072D01*
X0002778323Y0001210196D01*
X0002779448Y0001212446D01*
X0002779448Y0001214696D01*
X0002778323Y0001216945D01*
X0002777198Y0001218070D01*
X0002774949Y0001219195D01*
X0002769325Y0001219195D01*
X0002765950Y0001218070D01*
X0002755826Y0001207947D02*
X0002747952Y0001207947D01*
X0002744578Y0001195573D02*
X0002755826Y0001195573D01*
X0002755826Y0001219195D01*
X0002744578Y0001219195D01*
X0002737828Y0001219195D02*
X0002724330Y0001219195D01*
X0002731079Y0001195573D02*
X0002731079Y0001219195D01*
X0002797632Y0001390572D02*
X0002797632Y0001414195D01*
X0002789757Y0001397322D01*
X0002781884Y0001414195D01*
X0002781884Y0001390572D01*
X0002766136Y0001414195D02*
X0002761635Y0001414195D01*
X0002759386Y0001413070D01*
X0002757137Y0001410821D01*
X0002756012Y0001406320D01*
X0002756012Y0001398446D01*
X0002757137Y0001393948D01*
X0002759386Y0001391698D01*
X0002761635Y0001390572D01*
X0002766136Y0001390572D01*
X0002768385Y0001391698D01*
X0002770635Y0001393948D01*
X0002771760Y0001398446D01*
X0002771760Y0001406320D01*
X0002770635Y0001410821D01*
X0002768385Y0001413070D01*
X0002766136Y0001414195D01*
X0002747012Y0001391698D02*
X0002743638Y0001390572D01*
X0002738014Y0001390572D01*
X0002735764Y0001391698D01*
X0002734640Y0001392823D01*
X0002733515Y0001395073D01*
X0002733515Y0001397322D01*
X0002734640Y0001399572D01*
X0002735764Y0001400697D01*
X0002738014Y0001401822D01*
X0002742514Y0001402947D01*
X0002744763Y0001404071D01*
X0002745888Y0001405196D01*
X0002747012Y0001407446D01*
X0002747012Y0001409695D01*
X0002745888Y0001411946D01*
X0002744763Y0001413070D01*
X0002742514Y0001414195D01*
X0002736889Y0001414195D01*
X0002733515Y0001413070D01*
X0002723391Y0001390572D02*
X0002723391Y0001414195D01*
D63*
X0003370472Y0000697559D02*
X0002740550Y0000697559D01*
X0002740550Y0000697559D02*
X0002740550Y0001445590D01*
X0002740550Y0001445590D02*
X0003370472Y0001445590D01*
X0003370472Y0001445590D02*
X0003370472Y0000697559D01*
D64*
X0003255826Y0000628724D02*
X0003295196Y0000628724D01*
X0003295196Y0000561795D02*
X0003255826Y0000561795D01*
X0003007696Y0000167795D02*
X0002968326Y0000167795D01*
X0002968326Y0000234723D02*
X0003007696Y0000234723D01*
X0002968326Y0000442224D02*
X0003007696Y0000442224D01*
X0003007696Y0000375295D02*
X0002968326Y0000375295D01*
X0002955452Y0000351929D02*
X0003030255Y0000351929D01*
X0003010570Y0000260590D02*
X0002955452Y0000260590D01*
D63*
X0003093011Y0000413759D02*
X0003213011Y0000413759D01*
X0003213011Y0000268759D02*
X0003213011Y0000193759D01*
X0003213011Y0000193759D02*
X0003093011Y0000193759D01*
X0003093011Y0000193759D02*
X0003093011Y0000268759D01*
X0003093011Y0000333759D02*
X0003093011Y0000413759D01*
X0003093011Y0000405885D02*
X0003213011Y0000405885D01*
X0003213011Y0000413759D02*
X0003213011Y0000333759D01*
D64*
X0003203011Y0000453720D02*
X0003103011Y0000453720D01*
X0003103011Y0000523799D02*
X0003203011Y0000523799D01*
X0003103011Y0000523799D02*
X0003103011Y0000453720D01*
X0003203011Y0000453720D02*
X0003203011Y0000523799D01*
D63*
X0003093944Y0000955339D02*
X0003093944Y0000994709D01*
X0003052699Y0000959088D02*
X0003054574Y0000957214D01*
X0003060198Y0000955339D01*
X0003063948Y0000955339D01*
X0003069572Y0000957214D01*
X0003073322Y0000960963D01*
X0003075196Y0000964713D01*
X0003077071Y0000972212D01*
X0003077071Y0000977836D01*
X0003075196Y0000985335D01*
X0003073322Y0000989085D01*
X0003069572Y0000992834D01*
X0003063948Y0000994709D01*
X0003060198Y0000994709D01*
X0003054574Y0000992834D01*
X0003052699Y0000990959D01*
X0003037700Y0000990959D02*
X0003035826Y0000992834D01*
X0003032077Y0000994709D01*
X0003022703Y0000994709D01*
X0003018953Y0000992834D01*
X0003017078Y0000990959D01*
X0003015204Y0000987210D01*
X0003015204Y0000983460D01*
X0003017078Y0000977836D01*
X0003039576Y0000955339D01*
X0003015204Y0000955339D01*
X0003327073Y0000531199D02*
X0003328948Y0000529324D01*
X0003334572Y0000527449D01*
X0003338322Y0000527449D01*
X0003343946Y0000529324D01*
X0003347694Y0000533073D01*
X0003349570Y0000536823D01*
X0003351445Y0000544322D01*
X0003351445Y0000549946D01*
X0003349570Y0000557445D01*
X0003347694Y0000561195D01*
X0003343946Y0000564944D01*
X0003338322Y0000566819D01*
X0003334572Y0000566819D01*
X0003328948Y0000564944D01*
X0003327073Y0000563070D01*
X0003313950Y0000566819D02*
X0003289578Y0000566819D01*
X0003302701Y0000551821D01*
X0003297076Y0000551821D01*
X0003293327Y0000549946D01*
X0003291452Y0000548072D01*
X0003289578Y0000544322D01*
X0003289578Y0000534948D01*
X0003291452Y0000531199D01*
X0003293327Y0000529324D01*
X0003297076Y0000527449D01*
X0003308325Y0000527449D01*
X0003312075Y0000529324D01*
X0003313950Y0000531199D01*
X0002867073Y0000184699D02*
X0002868948Y0000182824D01*
X0002874572Y0000180949D01*
X0002878322Y0000180949D01*
X0002883946Y0000182824D01*
X0002887694Y0000186573D01*
X0002889570Y0000190323D01*
X0002891445Y0000197822D01*
X0002891445Y0000203446D01*
X0002889570Y0000210944D01*
X0002887694Y0000214694D01*
X0002883946Y0000218444D01*
X0002878322Y0000220319D01*
X0002874572Y0000220319D01*
X0002868948Y0000218444D01*
X0002867073Y0000216570D01*
X0002833326Y0000220319D02*
X0002840826Y0000220319D01*
X0002844576Y0000218444D01*
X0002846451Y0000216570D01*
X0002850200Y0000210944D01*
X0002852075Y0000203446D01*
X0002852075Y0000188448D01*
X0002850200Y0000184699D01*
X0002848325Y0000182824D01*
X0002844576Y0000180949D01*
X0002837076Y0000180949D01*
X0002833326Y0000182824D01*
X0002831452Y0000184699D01*
X0002829578Y0000188448D01*
X0002829578Y0000197822D01*
X0002831452Y0000201571D01*
X0002833326Y0000203446D01*
X0002837076Y0000205321D01*
X0002844576Y0000205321D01*
X0002848325Y0000203446D01*
X0002850200Y0000201571D01*
X0002852075Y0000197822D01*
X0002864073Y0000392199D02*
X0002865948Y0000390323D01*
X0002871572Y0000388449D01*
X0002875322Y0000388449D01*
X0002880946Y0000390323D01*
X0002884695Y0000394073D01*
X0002886570Y0000397823D01*
X0002888445Y0000405322D01*
X0002888445Y0000410946D01*
X0002886570Y0000418445D01*
X0002884695Y0000422195D01*
X0002880946Y0000425944D01*
X0002875322Y0000427819D01*
X0002871572Y0000427819D01*
X0002865948Y0000425944D01*
X0002864073Y0000424070D01*
X0002850950Y0000427819D02*
X0002824703Y0000427819D01*
X0002841576Y0000388449D01*
X0002876444Y0000283449D02*
X0002876444Y0000322819D01*
X0002835199Y0000287199D02*
X0002837074Y0000285324D01*
X0002842698Y0000283449D01*
X0002846448Y0000283449D01*
X0002852071Y0000285324D01*
X0002855822Y0000289073D01*
X0002857696Y0000292823D01*
X0002859571Y0000300322D01*
X0002859571Y0000305946D01*
X0002857696Y0000313445D01*
X0002855822Y0000317195D01*
X0002852071Y0000320944D01*
X0002846448Y0000322819D01*
X0002842698Y0000322819D01*
X0002837074Y0000320944D01*
X0002835199Y0000319070D01*
X0002822076Y0000322819D02*
X0002797704Y0000322819D01*
X0002810827Y0000307821D01*
X0002805203Y0000307821D01*
X0002801453Y0000305946D01*
X0002799579Y0000304071D01*
X0002797704Y0000300322D01*
X0002797704Y0000290948D01*
X0002799579Y0000287199D01*
X0002801453Y0000285324D01*
X0002805203Y0000283449D01*
X0002816452Y0000283449D01*
X0002820201Y0000285324D01*
X0002822076Y0000287199D01*
X0003159573Y0000140949D02*
X0003178321Y0000140949D01*
X0003178321Y0000180319D01*
X0003125827Y0000140949D02*
X0003148324Y0000140949D01*
X0003137076Y0000140949D02*
X0003137076Y0000180319D01*
X0003140825Y0000174695D01*
X0003144575Y0000170945D01*
X0003148324Y0000169070D01*
X0003080820Y0000515319D02*
X0003080820Y0000487198D01*
X0003082695Y0000481573D01*
X0003086444Y0000477824D01*
X0003092068Y0000475948D01*
X0003095818Y0000475948D01*
X0003062072Y0000475948D02*
X0003062072Y0000515319D01*
X0003047074Y0000515319D01*
X0003043324Y0000513444D01*
X0003041450Y0000511569D01*
X0003039574Y0000507820D01*
X0003039574Y0000502196D01*
X0003041450Y0000498446D01*
X0003043324Y0000496571D01*
X0003047074Y0000494697D01*
X0003062072Y0000494697D01*
X0003002080Y0000475948D02*
X0003024577Y0000475948D01*
X0003013328Y0000475948D02*
X0003013328Y0000515319D01*
X0003017078Y0000509695D01*
X0003020827Y0000505945D01*
X0003024577Y0000504071D01*
G01*
D75*
D76*
X0000961660Y0002559492D02*
X0000961660Y0002598862D01*
X0000944788Y0002561367D02*
X0000939163Y0002559492D01*
X0000929790Y0002559492D01*
X0000926040Y0002561367D01*
X0000924165Y0002563242D01*
X0000922290Y0002566991D01*
X0000922290Y0002570741D01*
X0000924165Y0002574490D01*
X0000926040Y0002576364D01*
X0000929790Y0002578240D01*
X0000937289Y0002580115D01*
X0000941038Y0002581990D01*
X0000942913Y0002583864D01*
X0000944788Y0002587614D01*
X0000944788Y0002591363D01*
X0000942913Y0002595113D01*
X0000941038Y0002596988D01*
X0000937289Y0002598862D01*
X0000927915Y0002598862D01*
X0000922290Y0002596988D01*
X0000905418Y0002559492D02*
X0000905418Y0002598862D01*
X0000890419Y0002598862D01*
X0000886670Y0002596988D01*
X0000884794Y0002595113D01*
X0000882920Y0002591363D01*
X0000882920Y0002585739D01*
X0000884794Y0002581990D01*
X0000886670Y0002580115D01*
X0000890419Y0002578240D01*
X0000905418Y0002578240D01*
D75*
X0001065348Y0002649116D02*
X0001065348Y0002672738D01*
X0001057474Y0002655866D01*
X0001049600Y0002672738D01*
X0001049600Y0002649116D01*
X0001038351Y0002649116D02*
X0001038351Y0002672738D01*
X0001028227Y0002650240D02*
X0001024853Y0002649116D01*
X0001019228Y0002649116D01*
X0001016979Y0002650240D01*
X0001015854Y0002651366D01*
X0001014729Y0002653616D01*
X0001014729Y0002655866D01*
X0001015854Y0002658115D01*
X0001016979Y0002659240D01*
X0001019228Y0002660365D01*
X0001023728Y0002661490D01*
X0001025978Y0002662615D01*
X0001027103Y0002663740D01*
X0001028227Y0002665989D01*
X0001028227Y0002668239D01*
X0001027103Y0002670489D01*
X0001025978Y0002671614D01*
X0001023728Y0002672738D01*
X0001018103Y0002672738D01*
X0001014729Y0002671614D01*
X0001000105Y0002672738D02*
X0000995607Y0002672738D01*
X0000993357Y0002671614D01*
X0000991107Y0002669364D01*
X0000989983Y0002664865D01*
X0000989983Y0002656990D01*
X0000991107Y0002652491D01*
X0000993357Y0002650240D01*
X0000995607Y0002649116D01*
X0001000105Y0002649116D01*
X0001002356Y0002650240D01*
X0001004606Y0002652491D01*
X0001005730Y0002656990D01*
X0001005730Y0002664865D01*
X0001004606Y0002669364D01*
X0001002356Y0002671614D01*
X0001000105Y0002672738D01*
X0001053599Y0002750241D02*
X0001050224Y0002749116D01*
X0001044600Y0002749116D01*
X0001042350Y0002750241D01*
X0001041226Y0002751366D01*
X0001040101Y0002753616D01*
X0001040101Y0002755866D01*
X0001041226Y0002758115D01*
X0001042350Y0002759239D01*
X0001044600Y0002760365D01*
X0001049100Y0002761490D01*
X0001051349Y0002762615D01*
X0001052474Y0002763740D01*
X0001053599Y0002765989D01*
X0001053599Y0002768239D01*
X0001052474Y0002770488D01*
X0001051349Y0002771614D01*
X0001049100Y0002772739D01*
X0001043474Y0002772739D01*
X0001040101Y0002771614D01*
X0001016478Y0002751366D02*
X0001017603Y0002750241D01*
X0001020977Y0002749116D01*
X0001023228Y0002749116D01*
X0001026602Y0002750241D01*
X0001028852Y0002752491D01*
X0001029976Y0002754740D01*
X0001031102Y0002759239D01*
X0001031102Y0002762615D01*
X0001029976Y0002767114D01*
X0001028852Y0002769364D01*
X0001026602Y0002771614D01*
X0001023228Y0002772739D01*
X0001020977Y0002772739D01*
X0001017603Y0002771614D01*
X0001016478Y0002770488D01*
X0001006355Y0002749116D02*
X0001006355Y0002772739D01*
X0000992857Y0002749116D02*
X0001002980Y0002762615D01*
X0000992857Y0002772739D02*
X0001006355Y0002759239D01*
X0001077536Y0002849116D02*
X0001085410Y0002860365D01*
X0001091034Y0002849116D02*
X0001091034Y0002872739D01*
X0001082035Y0002872739D01*
X0001079786Y0002871614D01*
X0001078661Y0002870489D01*
X0001077536Y0002868239D01*
X0001077536Y0002864864D01*
X0001078661Y0002862615D01*
X0001079786Y0002861490D01*
X0001082035Y0002860365D01*
X0001091034Y0002860365D01*
X0001067412Y0002861490D02*
X0001059538Y0002861490D01*
X0001056164Y0002849116D02*
X0001067412Y0002849116D01*
X0001067412Y0002872739D01*
X0001056164Y0002872739D01*
X0001047164Y0002850241D02*
X0001043790Y0002849116D01*
X0001038165Y0002849116D01*
X0001035916Y0002850241D01*
X0001034791Y0002851366D01*
X0001033666Y0002853616D01*
X0001033666Y0002855866D01*
X0001034791Y0002858115D01*
X0001035916Y0002859240D01*
X0001038165Y0002860365D01*
X0001042665Y0002861490D01*
X0001044915Y0002862615D01*
X0001046040Y0002863740D01*
X0001047164Y0002865989D01*
X0001047164Y0002868239D01*
X0001046040Y0002870489D01*
X0001044915Y0002871614D01*
X0001042665Y0002872739D01*
X0001037041Y0002872739D01*
X0001033666Y0002871614D01*
X0001023543Y0002861490D02*
X0001015668Y0002861490D01*
X0001012294Y0002849116D02*
X0001023543Y0002849116D01*
X0001023543Y0002872739D01*
X0001012294Y0002872739D01*
X0001005544Y0002872739D02*
X0000992047Y0002872739D01*
X0000998796Y0002849116D02*
X0000998796Y0002872739D01*
X0001065348Y0003044116D02*
X0001065348Y0003067739D01*
X0001057474Y0003050865D01*
X0001049600Y0003067739D01*
X0001049600Y0003044116D01*
X0001033852Y0003067739D02*
X0001029353Y0003067739D01*
X0001027103Y0003066614D01*
X0001024853Y0003064364D01*
X0001023728Y0003059865D01*
X0001023728Y0003051990D01*
X0001024853Y0003047491D01*
X0001027103Y0003045241D01*
X0001029353Y0003044116D01*
X0001033852Y0003044116D01*
X0001036102Y0003045241D01*
X0001038351Y0003047491D01*
X0001039476Y0003051990D01*
X0001039476Y0003059865D01*
X0001038351Y0003064364D01*
X0001036102Y0003066614D01*
X0001033852Y0003067739D01*
X0001014729Y0003045241D02*
X0001011355Y0003044116D01*
X0001005730Y0003044116D01*
X0001003481Y0003045241D01*
X0001002356Y0003046366D01*
X0001001231Y0003048616D01*
X0001001231Y0003050865D01*
X0001002356Y0003053115D01*
X0001003481Y0003054240D01*
X0001005730Y0003055364D01*
X0001010230Y0003056490D01*
X0001012480Y0003057615D01*
X0001013605Y0003058740D01*
X0001014729Y0003060989D01*
X0001014729Y0003063239D01*
X0001013605Y0003065489D01*
X0001012480Y0003066614D01*
X0001010230Y0003067739D01*
X0001004606Y0003067739D01*
X0001001231Y0003066614D01*
X0000991107Y0003044116D02*
X0000991107Y0003067739D01*
D76*
X0001638187Y0002351102D02*
X0001008267Y0002351102D01*
X0001008267Y0002351102D02*
X0001008267Y0003099133D01*
X0001008267Y0003099133D02*
X0001638187Y0003099133D01*
X0001638187Y0003099133D02*
X0001638187Y0002351102D01*
D77*
X0001523543Y0002282267D02*
X0001562913Y0002282267D01*
X0001562913Y0002215338D02*
X0001523543Y0002215338D01*
X0001275413Y0001821338D02*
X0001236043Y0001821338D01*
X0001236043Y0001888267D02*
X0001275413Y0001888267D01*
X0001236043Y0002095767D02*
X0001275413Y0002095767D01*
X0001275413Y0002028838D02*
X0001236043Y0002028838D01*
X0001223169Y0002005472D02*
X0001297972Y0002005472D01*
X0001278287Y0001914133D02*
X0001223169Y0001914133D01*
D76*
X0001360728Y0002067303D02*
X0001480728Y0002067303D01*
X0001480728Y0001922303D02*
X0001480728Y0001847303D01*
X0001480728Y0001847303D02*
X0001360728Y0001847303D01*
X0001360728Y0001847303D02*
X0001360728Y0001922303D01*
X0001360728Y0001987303D02*
X0001360728Y0002067303D01*
X0001360728Y0002059429D02*
X0001480728Y0002059429D01*
X0001480728Y0002067303D02*
X0001480728Y0001987303D01*
D77*
X0001470728Y0002107263D02*
X0001370728Y0002107263D01*
X0001370728Y0002177342D02*
X0001470728Y0002177342D01*
X0001370728Y0002177342D02*
X0001370728Y0002107263D01*
X0001470728Y0002107263D02*
X0001470728Y0002177342D01*
D76*
X0001361660Y0002608882D02*
X0001361660Y0002648252D01*
X0001320416Y0002612632D02*
X0001322290Y0002610757D01*
X0001327915Y0002608882D01*
X0001331664Y0002608882D01*
X0001337288Y0002610757D01*
X0001341038Y0002614506D01*
X0001342913Y0002618256D01*
X0001344788Y0002625755D01*
X0001344788Y0002631378D01*
X0001342913Y0002638878D01*
X0001341038Y0002642628D01*
X0001337288Y0002646377D01*
X0001331664Y0002648252D01*
X0001327915Y0002648252D01*
X0001322290Y0002646377D01*
X0001320416Y0002644503D01*
X0001305418Y0002644503D02*
X0001303543Y0002646377D01*
X0001299793Y0002648252D01*
X0001290419Y0002648252D01*
X0001286670Y0002646377D01*
X0001284795Y0002644503D01*
X0001282920Y0002640753D01*
X0001282920Y0002637004D01*
X0001284795Y0002631378D01*
X0001307292Y0002608882D01*
X0001282920Y0002608882D01*
X0001594790Y0002184742D02*
X0001596664Y0002182867D01*
X0001602289Y0002180992D01*
X0001606037Y0002180992D01*
X0001611662Y0002182867D01*
X0001615412Y0002186617D01*
X0001617287Y0002190366D01*
X0001619160Y0002197865D01*
X0001619160Y0002203490D01*
X0001617287Y0002210989D01*
X0001615412Y0002214738D01*
X0001611662Y0002218488D01*
X0001606037Y0002220362D01*
X0001602289Y0002220362D01*
X0001596664Y0002218488D01*
X0001594790Y0002216613D01*
X0001581665Y0002220362D02*
X0001557293Y0002220362D01*
X0001570418Y0002205364D01*
X0001564793Y0002205364D01*
X0001561044Y0002203490D01*
X0001559169Y0002201615D01*
X0001557293Y0002197865D01*
X0001557293Y0002188491D01*
X0001559169Y0002184742D01*
X0001561044Y0002182867D01*
X0001564793Y0002180992D01*
X0001576042Y0002180992D01*
X0001579791Y0002182867D01*
X0001581665Y0002184742D01*
X0001134790Y0001838242D02*
X0001136664Y0001836367D01*
X0001142289Y0001834492D01*
X0001146038Y0001834492D01*
X0001151662Y0001836367D01*
X0001155412Y0001840115D01*
X0001157287Y0001843866D01*
X0001159161Y0001851365D01*
X0001159161Y0001856990D01*
X0001157287Y0001864489D01*
X0001155412Y0001868238D01*
X0001151662Y0001871988D01*
X0001146038Y0001873862D01*
X0001142289Y0001873862D01*
X0001136664Y0001871988D01*
X0001134790Y0001870113D01*
X0001101044Y0001873862D02*
X0001108543Y0001873862D01*
X0001112292Y0001871988D01*
X0001114167Y0001870113D01*
X0001117917Y0001864489D01*
X0001119791Y0001856990D01*
X0001119791Y0001841990D01*
X0001117917Y0001838242D01*
X0001116042Y0001836367D01*
X0001112292Y0001834492D01*
X0001104793Y0001834492D01*
X0001101044Y0001836367D01*
X0001099169Y0001838242D01*
X0001097294Y0001841990D01*
X0001097294Y0001851365D01*
X0001099169Y0001855115D01*
X0001101044Y0001856990D01*
X0001104793Y0001858864D01*
X0001112292Y0001858864D01*
X0001116042Y0001856990D01*
X0001117917Y0001855115D01*
X0001119791Y0001851365D01*
X0001131790Y0002045742D02*
X0001133664Y0002043867D01*
X0001139289Y0002041992D01*
X0001143038Y0002041992D01*
X0001148662Y0002043867D01*
X0001152412Y0002047616D01*
X0001154287Y0002051365D01*
X0001156161Y0002058865D01*
X0001156161Y0002064490D01*
X0001154287Y0002071988D01*
X0001152412Y0002075737D01*
X0001148662Y0002079488D01*
X0001143038Y0002081362D01*
X0001139289Y0002081362D01*
X0001133664Y0002079488D01*
X0001131790Y0002077613D01*
X0001118666Y0002081362D02*
X0001092419Y0002081362D01*
X0001109292Y0002041992D01*
X0001144161Y0001936992D02*
X0001144161Y0001976361D01*
X0001102916Y0001940742D02*
X0001104790Y0001938866D01*
X0001110415Y0001936992D01*
X0001114164Y0001936992D01*
X0001119789Y0001938866D01*
X0001123538Y0001942617D01*
X0001125413Y0001946366D01*
X0001127288Y0001953865D01*
X0001127288Y0001959490D01*
X0001125413Y0001966989D01*
X0001123538Y0001970738D01*
X0001119789Y0001974486D01*
X0001114164Y0001976361D01*
X0001110415Y0001976361D01*
X0001104790Y0001974486D01*
X0001102916Y0001972613D01*
X0001089792Y0001976361D02*
X0001065420Y0001976361D01*
X0001078544Y0001961364D01*
X0001072919Y0001961364D01*
X0001069170Y0001959490D01*
X0001067295Y0001957615D01*
X0001065420Y0001953865D01*
X0001065420Y0001944491D01*
X0001067295Y0001940742D01*
X0001069170Y0001938866D01*
X0001072919Y0001936992D01*
X0001084168Y0001936992D01*
X0001087918Y0001938866D01*
X0001089792Y0001940742D01*
X0001427289Y0001794492D02*
X0001446037Y0001794492D01*
X0001446037Y0001833862D01*
X0001393544Y0001794492D02*
X0001416041Y0001794492D01*
X0001404792Y0001794492D02*
X0001404792Y0001833862D01*
X0001408542Y0001828238D01*
X0001412291Y0001824489D01*
X0001416041Y0001822614D01*
X0001348536Y0002168862D02*
X0001348536Y0002140741D01*
X0001350411Y0002135117D01*
X0001354161Y0002131367D01*
X0001359785Y0002129492D01*
X0001363534Y0002129492D01*
X0001329789Y0002129492D02*
X0001329789Y0002168862D01*
X0001314790Y0002168862D01*
X0001311041Y0002166988D01*
X0001309166Y0002165113D01*
X0001307291Y0002161363D01*
X0001307291Y0002155739D01*
X0001309166Y0002151990D01*
X0001311041Y0002150115D01*
X0001314790Y0002148240D01*
X0001329789Y0002148240D01*
X0001269796Y0002129492D02*
X0001292293Y0002129492D01*
X0001281045Y0002129492D02*
X0001281045Y0002168862D01*
X0001284794Y0002163238D01*
X0001288544Y0002159489D01*
X0001292293Y0002157614D01*
G04 next file*
G01*
D88*
D89*
X0001827802Y0002559492D02*
X0001827802Y0002598862D01*
X0001810928Y0002561367D02*
X0001805305Y0002559492D01*
X0001795931Y0002559492D01*
X0001792182Y0002561367D01*
X0001790307Y0002563242D01*
X0001788432Y0002566991D01*
X0001788432Y0002570741D01*
X0001790307Y0002574490D01*
X0001792182Y0002576364D01*
X0001795931Y0002578240D01*
X0001803430Y0002580115D01*
X0001807180Y0002581990D01*
X0001809054Y0002583864D01*
X0001810928Y0002587614D01*
X0001810928Y0002591363D01*
X0001809054Y0002595113D01*
X0001807180Y0002596988D01*
X0001803430Y0002598862D01*
X0001794056Y0002598862D01*
X0001788432Y0002596988D01*
X0001771559Y0002559492D02*
X0001771559Y0002598862D01*
X0001756561Y0002598862D01*
X0001752812Y0002596988D01*
X0001750937Y0002595113D01*
X0001749062Y0002591363D01*
X0001749062Y0002585739D01*
X0001750937Y0002581990D01*
X0001752812Y0002580115D01*
X0001756561Y0002578240D01*
X0001771559Y0002578240D01*
D88*
X0001931490Y0002649116D02*
X0001931490Y0002672738D01*
X0001923616Y0002655866D01*
X0001915742Y0002672738D01*
X0001915742Y0002649116D01*
X0001904493Y0002649116D02*
X0001904493Y0002672738D01*
X0001894370Y0002650240D02*
X0001890995Y0002649116D01*
X0001885371Y0002649116D01*
X0001883121Y0002650240D01*
X0001881996Y0002651366D01*
X0001880869Y0002653616D01*
X0001880869Y0002655866D01*
X0001881996Y0002658115D01*
X0001883121Y0002659240D01*
X0001885371Y0002660365D01*
X0001889870Y0002661490D01*
X0001892120Y0002662615D01*
X0001893245Y0002663740D01*
X0001894370Y0002665989D01*
X0001894370Y0002668239D01*
X0001893245Y0002670489D01*
X0001892120Y0002671614D01*
X0001889870Y0002672738D01*
X0001884246Y0002672738D01*
X0001880869Y0002671614D01*
X0001866248Y0002672738D02*
X0001861749Y0002672738D01*
X0001859499Y0002671614D01*
X0001857249Y0002669364D01*
X0001856124Y0002664865D01*
X0001856124Y0002656990D01*
X0001857249Y0002652491D01*
X0001859499Y0002650240D01*
X0001861749Y0002649116D01*
X0001866248Y0002649116D01*
X0001868497Y0002650240D01*
X0001870747Y0002652491D01*
X0001871872Y0002656990D01*
X0001871872Y0002664865D01*
X0001870747Y0002669364D01*
X0001868497Y0002671614D01*
X0001866248Y0002672738D01*
X0001919741Y0002750241D02*
X0001916366Y0002749116D01*
X0001910742Y0002749116D01*
X0001908492Y0002750241D01*
X0001907367Y0002751366D01*
X0001906242Y0002753616D01*
X0001906242Y0002755866D01*
X0001907367Y0002758115D01*
X0001908492Y0002759239D01*
X0001910742Y0002760365D01*
X0001915241Y0002761490D01*
X0001917491Y0002762615D01*
X0001918616Y0002763740D01*
X0001919741Y0002765989D01*
X0001919741Y0002768239D01*
X0001918616Y0002770488D01*
X0001917491Y0002771614D01*
X0001915241Y0002772739D01*
X0001909617Y0002772739D01*
X0001906242Y0002771614D01*
X0001882620Y0002751366D02*
X0001883745Y0002750241D01*
X0001887120Y0002749116D01*
X0001889370Y0002749116D01*
X0001892744Y0002750241D01*
X0001894994Y0002752491D01*
X0001896119Y0002754740D01*
X0001897244Y0002759239D01*
X0001897244Y0002762615D01*
X0001896119Y0002767114D01*
X0001894994Y0002769364D01*
X0001892744Y0002771614D01*
X0001889370Y0002772739D01*
X0001887120Y0002772739D01*
X0001883745Y0002771614D01*
X0001882620Y0002770488D01*
X0001872497Y0002749116D02*
X0001872497Y0002772739D01*
X0001858998Y0002749116D02*
X0001869122Y0002762615D01*
X0001858998Y0002772739D02*
X0001872497Y0002759239D01*
X0001943678Y0002849116D02*
X0001951552Y0002860365D01*
X0001957176Y0002849116D02*
X0001957176Y0002872739D01*
X0001948177Y0002872739D01*
X0001945927Y0002871614D01*
X0001944803Y0002870489D01*
X0001943678Y0002868239D01*
X0001943678Y0002864864D01*
X0001944803Y0002862615D01*
X0001945927Y0002861490D01*
X0001948177Y0002860365D01*
X0001957176Y0002860365D01*
X0001933554Y0002861490D02*
X0001925680Y0002861490D01*
X0001922305Y0002849116D02*
X0001933554Y0002849116D01*
X0001933554Y0002872739D01*
X0001922305Y0002872739D01*
X0001913307Y0002850241D02*
X0001909932Y0002849116D01*
X0001904308Y0002849116D01*
X0001902058Y0002850241D01*
X0001900933Y0002851366D01*
X0001899806Y0002853616D01*
X0001899806Y0002855866D01*
X0001900933Y0002858115D01*
X0001902058Y0002859240D01*
X0001904308Y0002860365D01*
X0001908807Y0002861490D01*
X0001911055Y0002862615D01*
X0001912182Y0002863740D01*
X0001913307Y0002865989D01*
X0001913307Y0002868239D01*
X0001912182Y0002870489D01*
X0001911055Y0002871614D01*
X0001908807Y0002872739D01*
X0001903183Y0002872739D01*
X0001899806Y0002871614D01*
X0001889685Y0002861490D02*
X0001881811Y0002861490D01*
X0001878436Y0002849116D02*
X0001889685Y0002849116D01*
X0001889685Y0002872739D01*
X0001878436Y0002872739D01*
X0001871686Y0002872739D02*
X0001858188Y0002872739D01*
X0001864938Y0002849116D02*
X0001864938Y0002872739D01*
X0001931490Y0003044116D02*
X0001931490Y0003067739D01*
X0001923616Y0003050865D01*
X0001915742Y0003067739D01*
X0001915742Y0003044116D01*
X0001899992Y0003067739D02*
X0001895494Y0003067739D01*
X0001893245Y0003066614D01*
X0001890995Y0003064364D01*
X0001889870Y0003059865D01*
X0001889870Y0003051990D01*
X0001890995Y0003047491D01*
X0001893245Y0003045241D01*
X0001895494Y0003044116D01*
X0001899992Y0003044116D01*
X0001902244Y0003045241D01*
X0001904493Y0003047491D01*
X0001905618Y0003051990D01*
X0001905618Y0003059865D01*
X0001904493Y0003064364D01*
X0001902244Y0003066614D01*
X0001899992Y0003067739D01*
X0001880869Y0003045241D02*
X0001877497Y0003044116D01*
X0001871872Y0003044116D01*
X0001869623Y0003045241D01*
X0001868497Y0003046366D01*
X0001867373Y0003048616D01*
X0001867373Y0003050865D01*
X0001868497Y0003053115D01*
X0001869623Y0003054240D01*
X0001871872Y0003055364D01*
X0001876372Y0003056490D01*
X0001878622Y0003057615D01*
X0001879746Y0003058740D01*
X0001880869Y0003060989D01*
X0001880869Y0003063239D01*
X0001879746Y0003065489D01*
X0001878622Y0003066614D01*
X0001876372Y0003067739D01*
X0001870747Y0003067739D01*
X0001867373Y0003066614D01*
X0001857249Y0003044116D02*
X0001857249Y0003067739D01*
D89*
X0002504330Y0002351102D02*
X0001874407Y0002351102D01*
X0001874407Y0002351102D02*
X0001874407Y0003099133D01*
X0001874407Y0003099133D02*
X0002504330Y0003099133D01*
X0002504330Y0003099133D02*
X0002504330Y0002351102D01*
D90*
X0002389685Y0002282267D02*
X0002429055Y0002282267D01*
X0002429055Y0002215338D02*
X0002389685Y0002215338D01*
X0002141555Y0001821338D02*
X0002102185Y0001821338D01*
X0002102185Y0001888267D02*
X0002141555Y0001888267D01*
X0002102185Y0002095767D02*
X0002141555Y0002095767D01*
X0002141555Y0002028838D02*
X0002102185Y0002028838D01*
X0002089311Y0002005472D02*
X0002164114Y0002005472D01*
X0002144429Y0001914133D02*
X0002089311Y0001914133D01*
D89*
X0002226870Y0002067303D02*
X0002346870Y0002067303D01*
X0002346870Y0001922303D02*
X0002346870Y0001847303D01*
X0002346870Y0001847303D02*
X0002226870Y0001847303D01*
X0002226870Y0001847303D02*
X0002226870Y0001922303D01*
X0002226870Y0001987303D02*
X0002226870Y0002067303D01*
X0002226870Y0002059429D02*
X0002346870Y0002059429D01*
X0002346870Y0002067303D02*
X0002346870Y0001987303D01*
D90*
X0002336870Y0002107263D02*
X0002236870Y0002107263D01*
X0002236870Y0002177342D02*
X0002336870Y0002177342D01*
X0002236870Y0002177342D02*
X0002236870Y0002107263D01*
X0002336870Y0002107263D02*
X0002336870Y0002177342D01*
D89*
X0002227802Y0002608882D02*
X0002227802Y0002648252D01*
X0002186557Y0002612632D02*
X0002188432Y0002610757D01*
X0002194056Y0002608882D01*
X0002197806Y0002608882D01*
X0002203430Y0002610757D01*
X0002207180Y0002614506D01*
X0002209055Y0002618256D01*
X0002210929Y0002625755D01*
X0002210929Y0002631378D01*
X0002209055Y0002638878D01*
X0002207180Y0002642628D01*
X0002203430Y0002646377D01*
X0002197806Y0002648252D01*
X0002194056Y0002648252D01*
X0002188432Y0002646377D01*
X0002186557Y0002644503D01*
X0002171559Y0002644503D02*
X0002169685Y0002646377D01*
X0002165935Y0002648252D01*
X0002156561Y0002648252D01*
X0002152812Y0002646377D01*
X0002150937Y0002644503D01*
X0002149062Y0002640753D01*
X0002149062Y0002637004D01*
X0002150937Y0002631378D01*
X0002173434Y0002608882D01*
X0002149062Y0002608882D01*
X0002460931Y0002184742D02*
X0002462806Y0002182867D01*
X0002468430Y0002180992D01*
X0002472180Y0002180992D01*
X0002477804Y0002182867D01*
X0002481554Y0002186617D01*
X0002483428Y0002190366D01*
X0002485303Y0002197865D01*
X0002485303Y0002203490D01*
X0002483428Y0002210989D01*
X0002481554Y0002214738D01*
X0002477804Y0002218488D01*
X0002472180Y0002220362D01*
X0002468430Y0002220362D01*
X0002462806Y0002218488D01*
X0002460931Y0002216613D01*
X0002447808Y0002220362D02*
X0002423436Y0002220362D01*
X0002436559Y0002205364D01*
X0002430935Y0002205364D01*
X0002427185Y0002203490D01*
X0002425311Y0002201615D01*
X0002423436Y0002197865D01*
X0002423436Y0002188491D01*
X0002425311Y0002184742D01*
X0002427185Y0002182867D01*
X0002430935Y0002180992D01*
X0002442184Y0002180992D01*
X0002445933Y0002182867D01*
X0002447808Y0002184742D01*
X0002000931Y0001838242D02*
X0002002806Y0001836367D01*
X0002008430Y0001834492D01*
X0002012179Y0001834492D01*
X0002017804Y0001836367D01*
X0002021554Y0001840115D01*
X0002023428Y0001843866D01*
X0002025303Y0001851365D01*
X0002025303Y0001856990D01*
X0002023428Y0001864489D01*
X0002021554Y0001868238D01*
X0002017804Y0001871988D01*
X0002012179Y0001873862D01*
X0002008430Y0001873862D01*
X0002002806Y0001871988D01*
X0002000931Y0001870113D01*
X0001967185Y0001873862D02*
X0001974685Y0001873862D01*
X0001978434Y0001871988D01*
X0001980309Y0001870113D01*
X0001984058Y0001864489D01*
X0001985933Y0001856990D01*
X0001985933Y0001841990D01*
X0001984058Y0001838242D01*
X0001982184Y0001836367D01*
X0001978434Y0001834492D01*
X0001970935Y0001834492D01*
X0001967185Y0001836367D01*
X0001965311Y0001838242D01*
X0001963436Y0001841990D01*
X0001963436Y0001851365D01*
X0001965311Y0001855115D01*
X0001967185Y0001856990D01*
X0001970935Y0001858864D01*
X0001978434Y0001858864D01*
X0001982184Y0001856990D01*
X0001984058Y0001855115D01*
X0001985933Y0001851365D01*
X0001997930Y0002045742D02*
X0001999806Y0002043867D01*
X0002005430Y0002041992D01*
X0002009180Y0002041992D01*
X0002014803Y0002043867D01*
X0002018554Y0002047616D01*
X0002020428Y0002051365D01*
X0002022303Y0002058865D01*
X0002022303Y0002064490D01*
X0002020428Y0002071988D01*
X0002018554Y0002075737D01*
X0002014803Y0002079488D01*
X0002009180Y0002081362D01*
X0002005430Y0002081362D01*
X0001999806Y0002079488D01*
X0001997930Y0002077613D01*
X0001984807Y0002081362D02*
X0001958560Y0002081362D01*
X0001975434Y0002041992D01*
X0002010301Y0001936992D02*
X0002010301Y0001976361D01*
X0001969057Y0001940742D02*
X0001970932Y0001938866D01*
X0001976556Y0001936992D01*
X0001980306Y0001936992D01*
X0001985929Y0001938866D01*
X0001989680Y0001942617D01*
X0001991555Y0001946366D01*
X0001993429Y0001953865D01*
X0001993429Y0001959490D01*
X0001991555Y0001966989D01*
X0001989680Y0001970738D01*
X0001985929Y0001974486D01*
X0001980306Y0001976361D01*
X0001976556Y0001976361D01*
X0001970932Y0001974486D01*
X0001969057Y0001972613D01*
X0001955934Y0001976361D02*
X0001931562Y0001976361D01*
X0001944685Y0001961364D01*
X0001939061Y0001961364D01*
X0001935312Y0001959490D01*
X0001933437Y0001957615D01*
X0001931562Y0001953865D01*
X0001931562Y0001944491D01*
X0001933437Y0001940742D01*
X0001935312Y0001938866D01*
X0001939061Y0001936992D01*
X0001950310Y0001936992D01*
X0001954059Y0001938866D01*
X0001955934Y0001940742D01*
X0002293431Y0001794492D02*
X0002312179Y0001794492D01*
X0002312179Y0001833862D01*
X0002259685Y0001794492D02*
X0002282183Y0001794492D01*
X0002270934Y0001794492D02*
X0002270934Y0001833862D01*
X0002274684Y0001828238D01*
X0002278433Y0001824489D01*
X0002282183Y0001822614D01*
X0002214678Y0002168862D02*
X0002214678Y0002140741D01*
X0002216553Y0002135117D01*
X0002220302Y0002131367D01*
X0002225927Y0002129492D01*
X0002229676Y0002129492D01*
X0002195930Y0002129492D02*
X0002195930Y0002168862D01*
X0002180932Y0002168862D01*
X0002177183Y0002166988D01*
X0002175308Y0002165113D01*
X0002173433Y0002161363D01*
X0002173433Y0002155739D01*
X0002175308Y0002151990D01*
X0002177183Y0002150115D01*
X0002180932Y0002148240D01*
X0002195930Y0002148240D01*
X0002135938Y0002129492D02*
X0002158435Y0002129492D01*
X0002147186Y0002129492D02*
X0002147186Y0002168862D01*
X0002150936Y0002163238D01*
X0002154685Y0002159489D01*
X0002158435Y0002157614D01*
G04 next file*
G04 #@! TF.FileFunction,Legend,Bot*
G04 Gerber Fmt 4.6, Leading zero omitted, Abs format (unit mm)*
G04 Created by KiCad (PCBNEW 4.0.2-stable) date 01.06.2017 12:53:20*
G01*
G04 APERTURE LIST*
G04 APERTURE END LIST*
D101*
D102*
X0002693944Y0002559492D02*
X0002693944Y0002598862D01*
X0002677071Y0002561367D02*
X0002671447Y0002559492D01*
X0002662073Y0002559492D01*
X0002658323Y0002561367D01*
X0002656449Y0002563242D01*
X0002654574Y0002566991D01*
X0002654574Y0002570741D01*
X0002656449Y0002574490D01*
X0002658323Y0002576364D01*
X0002662073Y0002578240D01*
X0002669572Y0002580115D01*
X0002673322Y0002581990D01*
X0002675196Y0002583864D01*
X0002677071Y0002587614D01*
X0002677071Y0002591363D01*
X0002675196Y0002595113D01*
X0002673322Y0002596988D01*
X0002669572Y0002598862D01*
X0002660198Y0002598862D01*
X0002654574Y0002596988D01*
X0002637701Y0002559492D02*
X0002637701Y0002598862D01*
X0002622703Y0002598862D01*
X0002618952Y0002596988D01*
X0002617079Y0002595113D01*
X0002615204Y0002591363D01*
X0002615204Y0002585739D01*
X0002617079Y0002581990D01*
X0002618952Y0002580115D01*
X0002622703Y0002578240D01*
X0002637701Y0002578240D01*
D101*
X0002797632Y0002649116D02*
X0002797632Y0002672738D01*
X0002789757Y0002655866D01*
X0002781884Y0002672738D01*
X0002781884Y0002649116D01*
X0002770635Y0002649116D02*
X0002770635Y0002672738D01*
X0002760511Y0002650240D02*
X0002757137Y0002649116D01*
X0002751511Y0002649116D01*
X0002749263Y0002650240D01*
X0002748138Y0002651366D01*
X0002747012Y0002653616D01*
X0002747012Y0002655866D01*
X0002748138Y0002658115D01*
X0002749263Y0002659240D01*
X0002751511Y0002660365D01*
X0002756012Y0002661490D01*
X0002758262Y0002662615D01*
X0002759386Y0002663740D01*
X0002760511Y0002665989D01*
X0002760511Y0002668239D01*
X0002759386Y0002670489D01*
X0002758262Y0002671614D01*
X0002756012Y0002672738D01*
X0002750388Y0002672738D01*
X0002747012Y0002671614D01*
X0002732390Y0002672738D02*
X0002727890Y0002672738D01*
X0002725641Y0002671614D01*
X0002723391Y0002669364D01*
X0002722266Y0002664865D01*
X0002722266Y0002656990D01*
X0002723391Y0002652491D01*
X0002725641Y0002650240D01*
X0002727890Y0002649116D01*
X0002732390Y0002649116D01*
X0002734640Y0002650240D01*
X0002736889Y0002652491D01*
X0002738014Y0002656990D01*
X0002738014Y0002664865D01*
X0002736889Y0002669364D01*
X0002734640Y0002671614D01*
X0002732390Y0002672738D01*
X0002785882Y0002750241D02*
X0002782508Y0002749116D01*
X0002776884Y0002749116D01*
X0002774634Y0002750241D01*
X0002773509Y0002751366D01*
X0002772384Y0002753616D01*
X0002772384Y0002755866D01*
X0002773509Y0002758115D01*
X0002774634Y0002759239D01*
X0002776884Y0002760365D01*
X0002781383Y0002761490D01*
X0002783632Y0002762615D01*
X0002784758Y0002763740D01*
X0002785882Y0002765989D01*
X0002785882Y0002768239D01*
X0002784758Y0002770488D01*
X0002783632Y0002771614D01*
X0002781383Y0002772739D01*
X0002775759Y0002772739D01*
X0002772384Y0002771614D01*
X0002748762Y0002751366D02*
X0002749887Y0002750241D01*
X0002753261Y0002749116D01*
X0002755511Y0002749116D01*
X0002758886Y0002750241D01*
X0002761136Y0002752491D01*
X0002762260Y0002754740D01*
X0002763385Y0002759239D01*
X0002763385Y0002762615D01*
X0002762260Y0002767114D01*
X0002761136Y0002769364D01*
X0002758886Y0002771614D01*
X0002755511Y0002772739D01*
X0002753261Y0002772739D01*
X0002749887Y0002771614D01*
X0002748762Y0002770488D01*
X0002738638Y0002749116D02*
X0002738638Y0002772739D01*
X0002725139Y0002749116D02*
X0002735264Y0002762615D01*
X0002725139Y0002772739D02*
X0002738638Y0002759239D01*
X0002809820Y0002849116D02*
X0002817694Y0002860365D01*
X0002823318Y0002849116D02*
X0002823318Y0002872739D01*
X0002814319Y0002872739D01*
X0002812068Y0002871614D01*
X0002810944Y0002870489D01*
X0002809820Y0002868239D01*
X0002809820Y0002864864D01*
X0002810944Y0002862615D01*
X0002812068Y0002861490D01*
X0002814319Y0002860365D01*
X0002823318Y0002860365D01*
X0002799696Y0002861490D02*
X0002791822Y0002861490D01*
X0002788447Y0002849116D02*
X0002799696Y0002849116D01*
X0002799696Y0002872739D01*
X0002788447Y0002872739D01*
X0002779448Y0002850241D02*
X0002776074Y0002849116D01*
X0002770449Y0002849116D01*
X0002768200Y0002850241D01*
X0002767075Y0002851366D01*
X0002765950Y0002853616D01*
X0002765950Y0002855866D01*
X0002767075Y0002858115D01*
X0002768200Y0002859240D01*
X0002770449Y0002860365D01*
X0002774949Y0002861490D01*
X0002777198Y0002862615D01*
X0002778323Y0002863740D01*
X0002779448Y0002865989D01*
X0002779448Y0002868239D01*
X0002778323Y0002870489D01*
X0002777198Y0002871614D01*
X0002774949Y0002872739D01*
X0002769325Y0002872739D01*
X0002765950Y0002871614D01*
X0002755826Y0002861490D02*
X0002747952Y0002861490D01*
X0002744578Y0002849116D02*
X0002755826Y0002849116D01*
X0002755826Y0002872739D01*
X0002744578Y0002872739D01*
X0002737828Y0002872739D02*
X0002724330Y0002872739D01*
X0002731079Y0002849116D02*
X0002731079Y0002872739D01*
X0002797632Y0003044116D02*
X0002797632Y0003067739D01*
X0002789757Y0003050865D01*
X0002781884Y0003067739D01*
X0002781884Y0003044116D01*
X0002766136Y0003067739D02*
X0002761635Y0003067739D01*
X0002759386Y0003066614D01*
X0002757137Y0003064364D01*
X0002756012Y0003059865D01*
X0002756012Y0003051990D01*
X0002757137Y0003047491D01*
X0002759386Y0003045241D01*
X0002761635Y0003044116D01*
X0002766136Y0003044116D01*
X0002768385Y0003045241D01*
X0002770635Y0003047491D01*
X0002771760Y0003051990D01*
X0002771760Y0003059865D01*
X0002770635Y0003064364D01*
X0002768385Y0003066614D01*
X0002766136Y0003067739D01*
X0002747012Y0003045241D02*
X0002743638Y0003044116D01*
X0002738014Y0003044116D01*
X0002735764Y0003045241D01*
X0002734640Y0003046366D01*
X0002733515Y0003048616D01*
X0002733515Y0003050865D01*
X0002734640Y0003053115D01*
X0002735764Y0003054240D01*
X0002738014Y0003055364D01*
X0002742514Y0003056490D01*
X0002744763Y0003057615D01*
X0002745888Y0003058740D01*
X0002747012Y0003060989D01*
X0002747012Y0003063239D01*
X0002745888Y0003065489D01*
X0002744763Y0003066614D01*
X0002742514Y0003067739D01*
X0002736889Y0003067739D01*
X0002733515Y0003066614D01*
X0002723391Y0003044116D02*
X0002723391Y0003067739D01*
D102*
X0003370472Y0002351102D02*
X0002740550Y0002351102D01*
X0002740550Y0002351102D02*
X0002740550Y0003099133D01*
X0002740550Y0003099133D02*
X0003370472Y0003099133D01*
X0003370472Y0003099133D02*
X0003370472Y0002351102D01*
D103*
X0003255826Y0002282267D02*
X0003295196Y0002282267D01*
X0003295196Y0002215338D02*
X0003255826Y0002215338D01*
X0003007696Y0001821338D02*
X0002968326Y0001821338D01*
X0002968326Y0001888267D02*
X0003007696Y0001888267D01*
X0002968326Y0002095767D02*
X0003007696Y0002095767D01*
X0003007696Y0002028838D02*
X0002968326Y0002028838D01*
X0002955452Y0002005472D02*
X0003030255Y0002005472D01*
X0003010570Y0001914133D02*
X0002955452Y0001914133D01*
D102*
X0003093011Y0002067303D02*
X0003213011Y0002067303D01*
X0003213011Y0001922303D02*
X0003213011Y0001847303D01*
X0003213011Y0001847303D02*
X0003093011Y0001847303D01*
X0003093011Y0001847303D02*
X0003093011Y0001922303D01*
X0003093011Y0001987303D02*
X0003093011Y0002067303D01*
X0003093011Y0002059429D02*
X0003213011Y0002059429D01*
X0003213011Y0002067303D02*
X0003213011Y0001987303D01*
D103*
X0003203011Y0002107263D02*
X0003103011Y0002107263D01*
X0003103011Y0002177342D02*
X0003203011Y0002177342D01*
X0003103011Y0002177342D02*
X0003103011Y0002107263D01*
X0003203011Y0002107263D02*
X0003203011Y0002177342D01*
D102*
X0003093944Y0002608882D02*
X0003093944Y0002648252D01*
X0003052699Y0002612632D02*
X0003054574Y0002610757D01*
X0003060198Y0002608882D01*
X0003063948Y0002608882D01*
X0003069572Y0002610757D01*
X0003073322Y0002614506D01*
X0003075196Y0002618256D01*
X0003077071Y0002625755D01*
X0003077071Y0002631378D01*
X0003075196Y0002638878D01*
X0003073322Y0002642628D01*
X0003069572Y0002646377D01*
X0003063948Y0002648252D01*
X0003060198Y0002648252D01*
X0003054574Y0002646377D01*
X0003052699Y0002644503D01*
X0003037700Y0002644503D02*
X0003035826Y0002646377D01*
X0003032077Y0002648252D01*
X0003022703Y0002648252D01*
X0003018953Y0002646377D01*
X0003017078Y0002644503D01*
X0003015204Y0002640753D01*
X0003015204Y0002637004D01*
X0003017078Y0002631378D01*
X0003039576Y0002608882D01*
X0003015204Y0002608882D01*
X0003327073Y0002184742D02*
X0003328948Y0002182867D01*
X0003334572Y0002180992D01*
X0003338322Y0002180992D01*
X0003343946Y0002182867D01*
X0003347694Y0002186617D01*
X0003349570Y0002190366D01*
X0003351445Y0002197865D01*
X0003351445Y0002203490D01*
X0003349570Y0002210989D01*
X0003347694Y0002214738D01*
X0003343946Y0002218488D01*
X0003338322Y0002220362D01*
X0003334572Y0002220362D01*
X0003328948Y0002218488D01*
X0003327073Y0002216613D01*
X0003313950Y0002220362D02*
X0003289578Y0002220362D01*
X0003302701Y0002205364D01*
X0003297076Y0002205364D01*
X0003293327Y0002203490D01*
X0003291452Y0002201615D01*
X0003289578Y0002197865D01*
X0003289578Y0002188491D01*
X0003291452Y0002184742D01*
X0003293327Y0002182867D01*
X0003297076Y0002180992D01*
X0003308325Y0002180992D01*
X0003312075Y0002182867D01*
X0003313950Y0002184742D01*
X0002867073Y0001838242D02*
X0002868948Y0001836367D01*
X0002874572Y0001834492D01*
X0002878322Y0001834492D01*
X0002883946Y0001836367D01*
X0002887694Y0001840115D01*
X0002889570Y0001843866D01*
X0002891445Y0001851365D01*
X0002891445Y0001856990D01*
X0002889570Y0001864489D01*
X0002887694Y0001868238D01*
X0002883946Y0001871988D01*
X0002878322Y0001873862D01*
X0002874572Y0001873862D01*
X0002868948Y0001871988D01*
X0002867073Y0001870113D01*
X0002833326Y0001873862D02*
X0002840826Y0001873862D01*
X0002844576Y0001871988D01*
X0002846451Y0001870113D01*
X0002850200Y0001864489D01*
X0002852075Y0001856990D01*
X0002852075Y0001841990D01*
X0002850200Y0001838242D01*
X0002848325Y0001836367D01*
X0002844576Y0001834492D01*
X0002837076Y0001834492D01*
X0002833326Y0001836367D01*
X0002831452Y0001838242D01*
X0002829578Y0001841990D01*
X0002829578Y0001851365D01*
X0002831452Y0001855115D01*
X0002833326Y0001856990D01*
X0002837076Y0001858864D01*
X0002844576Y0001858864D01*
X0002848325Y0001856990D01*
X0002850200Y0001855115D01*
X0002852075Y0001851365D01*
X0002864073Y0002045742D02*
X0002865948Y0002043867D01*
X0002871572Y0002041992D01*
X0002875322Y0002041992D01*
X0002880946Y0002043867D01*
X0002884695Y0002047616D01*
X0002886570Y0002051365D01*
X0002888445Y0002058865D01*
X0002888445Y0002064490D01*
X0002886570Y0002071988D01*
X0002884695Y0002075737D01*
X0002880946Y0002079488D01*
X0002875322Y0002081362D01*
X0002871572Y0002081362D01*
X0002865948Y0002079488D01*
X0002864073Y0002077613D01*
X0002850950Y0002081362D02*
X0002824703Y0002081362D01*
X0002841576Y0002041992D01*
X0002876444Y0001936992D02*
X0002876444Y0001976361D01*
X0002835199Y0001940742D02*
X0002837074Y0001938866D01*
X0002842698Y0001936992D01*
X0002846448Y0001936992D01*
X0002852071Y0001938866D01*
X0002855822Y0001942617D01*
X0002857696Y0001946366D01*
X0002859571Y0001953865D01*
X0002859571Y0001959490D01*
X0002857696Y0001966989D01*
X0002855822Y0001970738D01*
X0002852071Y0001974486D01*
X0002846448Y0001976361D01*
X0002842698Y0001976361D01*
X0002837074Y0001974486D01*
X0002835199Y0001972613D01*
X0002822076Y0001976361D02*
X0002797704Y0001976361D01*
X0002810827Y0001961364D01*
X0002805203Y0001961364D01*
X0002801453Y0001959490D01*
X0002799579Y0001957615D01*
X0002797704Y0001953865D01*
X0002797704Y0001944491D01*
X0002799579Y0001940742D01*
X0002801453Y0001938866D01*
X0002805203Y0001936992D01*
X0002816452Y0001936992D01*
X0002820201Y0001938866D01*
X0002822076Y0001940742D01*
X0003159573Y0001794492D02*
X0003178321Y0001794492D01*
X0003178321Y0001833862D01*
X0003125827Y0001794492D02*
X0003148324Y0001794492D01*
X0003137076Y0001794492D02*
X0003137076Y0001833862D01*
X0003140825Y0001828238D01*
X0003144575Y0001824489D01*
X0003148324Y0001822614D01*
X0003080820Y0002168862D02*
X0003080820Y0002140741D01*
X0003082695Y0002135117D01*
X0003086444Y0002131367D01*
X0003092068Y0002129492D01*
X0003095818Y0002129492D01*
X0003062072Y0002129492D02*
X0003062072Y0002168862D01*
X0003047074Y0002168862D01*
X0003043324Y0002166988D01*
X0003041450Y0002165113D01*
X0003039574Y0002161363D01*
X0003039574Y0002155739D01*
X0003041450Y0002151990D01*
X0003043324Y0002150115D01*
X0003047074Y0002148240D01*
X0003062072Y0002148240D01*
X0003002080Y0002129492D02*
X0003024577Y0002129492D01*
X0003013328Y0002129492D02*
X0003013328Y0002168862D01*
X0003017078Y0002163238D01*
X0003020827Y0002159489D01*
X0003024577Y0002157614D01*
M02*