%MOIN*%
%OFA0B0*%
%FSLAX46Y46*%
%IPPOS*%
%LPD*%
%ADD10C,0.0039370078740157488*%
%ADD11R,0.13385826771653545X0.082677165354330714*%
%ADD12C,0.082677165354330714*%
%ADD13O,0.082677165354330714X0.082677165354330714*%
%ADD14R,0.21574803149606303X0.115748031496063*%
%ADD15R,0.21574803149606303X0.21574803149606303*%
%ADD16R,0.10157480314960631X0.07874015748031496*%
%ADD17R,0.074803149606299218X0.074803149606299218*%
%ADD18R,0.074803149606299218X0.066929133858267723*%
%ADD19C,0.10236220472440946*%
%ADD20R,0.068897637795275593X0.068897637795275593*%
%ADD21R,0.064960629921259838X0.074803149606299218*%
%ADD32C,0.0039370078740157488*%
%ADD33R,0.13385826771653545X0.082677165354330714*%
%ADD34C,0.082677165354330714*%
%ADD35O,0.082677165354330714X0.082677165354330714*%
%ADD36R,0.21574803149606303X0.115748031496063*%
%ADD37R,0.21574803149606303X0.21574803149606303*%
%ADD38R,0.10157480314960631X0.07874015748031496*%
%ADD39R,0.074803149606299218X0.074803149606299218*%
%ADD40R,0.074803149606299218X0.066929133858267723*%
%ADD41C,0.10236220472440946*%
%ADD42R,0.068897637795275593X0.068897637795275593*%
%ADD43R,0.064960629921259838X0.074803149606299218*%
%ADD54C,0.0039370078740157488*%
%ADD55R,0.13385826771653545X0.082677165354330714*%
%ADD56C,0.082677165354330714*%
%ADD57O,0.082677165354330714X0.082677165354330714*%
%ADD58R,0.21574803149606303X0.115748031496063*%
%ADD59R,0.21574803149606303X0.21574803149606303*%
%ADD60R,0.10157480314960631X0.07874015748031496*%
%ADD61R,0.074803149606299218X0.074803149606299218*%
%ADD62R,0.074803149606299218X0.066929133858267723*%
%ADD63C,0.10236220472440946*%
%ADD64R,0.068897637795275593X0.068897637795275593*%
%ADD65R,0.064960629921259838X0.074803149606299218*%
%ADD76C,0.0039370078740157488*%
%ADD77R,0.13385826771653545X0.082677165354330714*%
%ADD78C,0.082677165354330714*%
%ADD79O,0.082677165354330714X0.082677165354330714*%
%ADD80R,0.21574803149606303X0.115748031496063*%
%ADD81R,0.21574803149606303X0.21574803149606303*%
%ADD82R,0.10157480314960631X0.07874015748031496*%
%ADD83R,0.074803149606299218X0.074803149606299218*%
%ADD84R,0.074803149606299218X0.066929133858267723*%
%ADD85C,0.10236220472440946*%
%ADD86R,0.068897637795275593X0.068897637795275593*%
%ADD87R,0.064960629921259838X0.074803149606299218*%
%ADD98C,0.0039370078740157488*%
%ADD99R,0.13385826771653545X0.082677165354330714*%
%ADD100C,0.082677165354330714*%
%ADD101O,0.082677165354330714X0.082677165354330714*%
%ADD102R,0.21574803149606303X0.115748031496063*%
%ADD103R,0.21574803149606303X0.21574803149606303*%
%ADD104R,0.10157480314960631X0.07874015748031496*%
%ADD105R,0.074803149606299218X0.074803149606299218*%
%ADD106R,0.074803149606299218X0.066929133858267723*%
%ADD107C,0.10236220472440946*%
%ADD108R,0.068897637795275593X0.068897637795275593*%
%ADD109R,0.064960629921259838X0.074803149606299218*%
%ADD120C,0.0039370078740157488*%
%ADD121R,0.13385826771653545X0.082677165354330714*%
%ADD122C,0.082677165354330714*%
%ADD123O,0.082677165354330714X0.082677165354330714*%
%ADD124R,0.21574803149606303X0.115748031496063*%
%ADD125R,0.21574803149606303X0.21574803149606303*%
%ADD126R,0.10157480314960631X0.07874015748031496*%
%ADD127R,0.074803149606299218X0.074803149606299218*%
%ADD128R,0.074803149606299218X0.066929133858267723*%
%ADD129C,0.10236220472440946*%
%ADD130R,0.068897637795275593X0.068897637795275593*%
%ADD131R,0.064960629921259838X0.074803149606299218*%
%ADD142C,0.0039370078740157488*%
%ADD143R,0.13385826771653545X0.082677165354330714*%
%ADD144C,0.082677165354330714*%
%ADD145O,0.082677165354330714X0.082677165354330714*%
%ADD146R,0.21574803149606303X0.115748031496063*%
%ADD147R,0.21574803149606303X0.21574803149606303*%
%ADD148R,0.10157480314960631X0.07874015748031496*%
%ADD149R,0.074803149606299218X0.074803149606299218*%
%ADD150R,0.074803149606299218X0.066929133858267723*%
%ADD151C,0.10236220472440946*%
%ADD152R,0.068897637795275593X0.068897637795275593*%
%ADD153R,0.064960629921259838X0.074803149606299218*%
%ADD164C,0.0039370078740157488*%
%ADD165R,0.13385826771653545X0.082677165354330714*%
%ADD166C,0.082677165354330714*%
%ADD167O,0.082677165354330714X0.082677165354330714*%
%ADD168R,0.21574803149606303X0.115748031496063*%
%ADD169R,0.21574803149606303X0.21574803149606303*%
%ADD170R,0.10157480314960631X0.07874015748031496*%
%ADD171R,0.074803149606299218X0.074803149606299218*%
%ADD172R,0.074803149606299218X0.066929133858267723*%
%ADD173C,0.10236220472440946*%
%ADD174R,0.068897637795275593X0.068897637795275593*%
%ADD175R,0.064960629921259838X0.074803149606299218*%
%LPD*%
G01*
D10*
D11*
X-0006692913Y0004921259D02*
X0000055531Y0001406258D03*
X0000055531Y0001206259D03*
X0000055531Y0001006259D03*
X0000054586Y0001306259D03*
X0000054586Y0001106259D03*
D12*
X0000734586Y0000448759D03*
D13*
X0000734586Y0000348759D03*
X0000734586Y0000248759D03*
X0000734586Y0000148759D03*
D12*
X0000737086Y0000048759D03*
D13*
X0000637086Y0000048759D03*
X0000537086Y0000048759D03*
X0000437086Y0000048759D03*
X0000337086Y0000048759D03*
X0000237086Y0000048759D03*
D14*
X0000392086Y0001251259D03*
X0000392086Y0000336259D03*
D15*
X0000392086Y0000793759D03*
D16*
X0000565295Y0000196259D03*
X0000203877Y0000196259D03*
X0000206377Y0001486259D03*
X0000567795Y0001486259D03*
D17*
X0000604625Y0001313759D03*
X0000734547Y0001313759D03*
X0000604625Y0001396259D03*
X0000734547Y0001396259D03*
D18*
X0000628936Y0001231259D03*
X0000735236Y0001231259D03*
X0000445236Y0001371259D03*
X0000338937Y0001371259D03*
D19*
X0000712086Y0001506259D03*
X0000077086Y0000071259D03*
D20*
X0000072086Y0001518759D03*
D21*
X0000242086Y0001262047D03*
X0000242086Y0001360472D03*
G01*
D32*
D33*
X-0006692913Y0006574803D02*
X0000055531Y0003059803D03*
X0000055531Y0002859803D03*
X0000055531Y0002659803D03*
X0000054586Y0002959803D03*
X0000054586Y0002759803D03*
D34*
X0000734586Y0002102303D03*
D35*
X0000734586Y0002002303D03*
X0000734586Y0001902303D03*
X0000734586Y0001802303D03*
D34*
X0000737086Y0001702303D03*
D35*
X0000637086Y0001702303D03*
X0000537086Y0001702303D03*
X0000437086Y0001702303D03*
X0000337086Y0001702303D03*
X0000237086Y0001702303D03*
D36*
X0000392086Y0002904803D03*
X0000392086Y0001989803D03*
D37*
X0000392086Y0002447303D03*
D38*
X0000565295Y0001849803D03*
X0000203877Y0001849803D03*
X0000206377Y0003139803D03*
X0000567795Y0003139803D03*
D39*
X0000604625Y0002967303D03*
X0000734547Y0002967303D03*
X0000604625Y0003049803D03*
X0000734547Y0003049803D03*
D40*
X0000628936Y0002884803D03*
X0000735236Y0002884803D03*
X0000445236Y0003024803D03*
X0000338937Y0003024803D03*
D41*
X0000712086Y0003159803D03*
X0000077086Y0001724803D03*
D42*
X0000072086Y0003172303D03*
D43*
X0000242086Y0002915590D03*
X0000242086Y0003014015D03*
G01*
D54*
D55*
X-0005826771Y0004921259D02*
X0000921673Y0001406258D03*
X0000921673Y0001206259D03*
X0000921673Y0001006259D03*
X0000920728Y0001306259D03*
X0000920728Y0001106259D03*
D56*
X0001600728Y0000448759D03*
D57*
X0001600728Y0000348759D03*
X0001600728Y0000248759D03*
X0001600728Y0000148759D03*
D56*
X0001603228Y0000048759D03*
D57*
X0001503228Y0000048759D03*
X0001403227Y0000048759D03*
X0001303228Y0000048759D03*
X0001203228Y0000048759D03*
X0001103228Y0000048759D03*
D58*
X0001258228Y0001251259D03*
X0001258228Y0000336259D03*
D59*
X0001258228Y0000793759D03*
D60*
X0001431436Y0000196259D03*
X0001070019Y0000196259D03*
X0001072519Y0001486259D03*
X0001433937Y0001486259D03*
D61*
X0001470767Y0001313759D03*
X0001600688Y0001313759D03*
X0001470767Y0001396259D03*
X0001600688Y0001396259D03*
D62*
X0001495078Y0001231259D03*
X0001601377Y0001231259D03*
X0001311377Y0001371259D03*
X0001205078Y0001371259D03*
D63*
X0001578228Y0001506259D03*
X0000943228Y0000071259D03*
D64*
X0000938228Y0001518759D03*
D65*
X0001108228Y0001262047D03*
X0001108228Y0001360472D03*
G01*
D76*
D77*
X-0004960629Y0004921259D02*
X0001787814Y0001406258D03*
X0001787814Y0001206259D03*
X0001787814Y0001006259D03*
X0001786870Y0001306259D03*
X0001786870Y0001106259D03*
D78*
X0002466870Y0000448759D03*
D79*
X0002466870Y0000348759D03*
X0002466870Y0000248759D03*
X0002466870Y0000148759D03*
D78*
X0002469370Y0000048759D03*
D79*
X0002369370Y0000048759D03*
X0002269370Y0000048759D03*
X0002169370Y0000048759D03*
X0002069370Y0000048759D03*
X0001969370Y0000048759D03*
D80*
X0002124370Y0001251259D03*
X0002124370Y0000336259D03*
D81*
X0002124370Y0000793759D03*
D82*
X0002297578Y0000196259D03*
X0001936161Y0000196259D03*
X0001938661Y0001486259D03*
X0002300078Y0001486259D03*
D83*
X0002336909Y0001313759D03*
X0002466830Y0001313759D03*
X0002336909Y0001396259D03*
X0002466830Y0001396259D03*
D84*
X0002361220Y0001231259D03*
X0002467519Y0001231259D03*
X0002177519Y0001371259D03*
X0002071219Y0001371259D03*
D85*
X0002444370Y0001506259D03*
X0001809370Y0000071259D03*
D86*
X0001804370Y0001518759D03*
D87*
X0001974370Y0001262047D03*
X0001974370Y0001360472D03*
G04 next file*
%LPD*%
G01*
D98*
D99*
X-0004094488Y0004921259D02*
X0002653956Y0001406258D03*
X0002653956Y0001206259D03*
X0002653956Y0001006259D03*
X0002653010Y0001306259D03*
X0002653010Y0001106259D03*
D100*
X0003333011Y0000448759D03*
D101*
X0003333011Y0000348759D03*
X0003333011Y0000248759D03*
X0003333011Y0000148759D03*
D100*
X0003335511Y0000048759D03*
D101*
X0003235511Y0000048759D03*
X0003135511Y0000048759D03*
X0003035510Y0000048759D03*
X0002935511Y0000048759D03*
X0002835511Y0000048759D03*
D102*
X0002990511Y0001251259D03*
X0002990511Y0000336259D03*
D103*
X0002990511Y0000793759D03*
D104*
X0003163720Y0000196259D03*
X0002802303Y0000196259D03*
X0002804803Y0001486259D03*
X0003166220Y0001486259D03*
D105*
X0003203051Y0001313759D03*
X0003332972Y0001313759D03*
X0003203051Y0001396259D03*
X0003332972Y0001396259D03*
D106*
X0003227362Y0001231259D03*
X0003333661Y0001231259D03*
X0003043661Y0001371259D03*
X0002937362Y0001371259D03*
D107*
X0003310511Y0001506259D03*
X0002675511Y0000071259D03*
D108*
X0002670511Y0001518759D03*
D109*
X0002840511Y0001262047D03*
X0002840511Y0001360472D03*
G01*
D120*
D121*
X-0005826771Y0006574803D02*
X0000921673Y0003059803D03*
X0000921673Y0002859803D03*
X0000921673Y0002659803D03*
X0000920728Y0002959803D03*
X0000920728Y0002759803D03*
D122*
X0001600728Y0002102303D03*
D123*
X0001600728Y0002002303D03*
X0001600728Y0001902303D03*
X0001600728Y0001802303D03*
D122*
X0001603228Y0001702303D03*
D123*
X0001503228Y0001702303D03*
X0001403227Y0001702303D03*
X0001303228Y0001702303D03*
X0001203228Y0001702303D03*
X0001103228Y0001702303D03*
D124*
X0001258228Y0002904803D03*
X0001258228Y0001989803D03*
D125*
X0001258228Y0002447303D03*
D126*
X0001431436Y0001849803D03*
X0001070019Y0001849803D03*
X0001072519Y0003139803D03*
X0001433937Y0003139803D03*
D127*
X0001470767Y0002967303D03*
X0001600688Y0002967303D03*
X0001470767Y0003049803D03*
X0001600688Y0003049803D03*
D128*
X0001495078Y0002884803D03*
X0001601377Y0002884803D03*
X0001311377Y0003024803D03*
X0001205078Y0003024803D03*
D129*
X0001578228Y0003159803D03*
X0000943228Y0001724803D03*
D130*
X0000938228Y0003172303D03*
D131*
X0001108228Y0002915590D03*
X0001108228Y0003014015D03*
G04 next file*
G01*
D142*
D143*
X-0004960629Y0006574803D02*
X0001787814Y0003059803D03*
X0001787814Y0002859803D03*
X0001787814Y0002659803D03*
X0001786870Y0002959803D03*
X0001786870Y0002759803D03*
D144*
X0002466870Y0002102303D03*
D145*
X0002466870Y0002002303D03*
X0002466870Y0001902303D03*
X0002466870Y0001802303D03*
D144*
X0002469370Y0001702303D03*
D145*
X0002369370Y0001702303D03*
X0002269370Y0001702303D03*
X0002169370Y0001702303D03*
X0002069370Y0001702303D03*
X0001969370Y0001702303D03*
D146*
X0002124370Y0002904803D03*
X0002124370Y0001989803D03*
D147*
X0002124370Y0002447303D03*
D148*
X0002297578Y0001849803D03*
X0001936161Y0001849803D03*
X0001938661Y0003139803D03*
X0002300078Y0003139803D03*
D149*
X0002336909Y0002967303D03*
X0002466830Y0002967303D03*
X0002336909Y0003049803D03*
X0002466830Y0003049803D03*
D150*
X0002361220Y0002884803D03*
X0002467519Y0002884803D03*
X0002177519Y0003024803D03*
X0002071219Y0003024803D03*
D151*
X0002444370Y0003159803D03*
X0001809370Y0001724803D03*
D152*
X0001804370Y0003172303D03*
D153*
X0001974370Y0002915590D03*
X0001974370Y0003014015D03*
G04 next file*
G04 #@! TF.FileFunction,Soldermask,Top*
G04 Gerber Fmt 4.6, Leading zero omitted, Abs format (unit mm)*
G04 Created by KiCad (PCBNEW 4.0.2-stable) date 13.05.2017 08:24:33*
G01*
G04 APERTURE LIST*
G04 APERTURE END LIST*
D164*
D165*
X-0004094488Y0006574803D02*
X0002653956Y0003059803D03*
X0002653956Y0002859803D03*
X0002653956Y0002659803D03*
X0002653010Y0002959803D03*
X0002653010Y0002759803D03*
D166*
X0003333011Y0002102303D03*
D167*
X0003333011Y0002002303D03*
X0003333011Y0001902303D03*
X0003333011Y0001802303D03*
D166*
X0003335511Y0001702303D03*
D167*
X0003235511Y0001702303D03*
X0003135511Y0001702303D03*
X0003035510Y0001702303D03*
X0002935511Y0001702303D03*
X0002835511Y0001702303D03*
D168*
X0002990511Y0002904803D03*
X0002990511Y0001989803D03*
D169*
X0002990511Y0002447303D03*
D170*
X0003163720Y0001849803D03*
X0002802303Y0001849803D03*
X0002804803Y0003139803D03*
X0003166220Y0003139803D03*
D171*
X0003203051Y0002967303D03*
X0003332972Y0002967303D03*
X0003203051Y0003049803D03*
X0003332972Y0003049803D03*
D172*
X0003227362Y0002884803D03*
X0003333661Y0002884803D03*
X0003043661Y0003024803D03*
X0002937362Y0003024803D03*
D173*
X0003310511Y0003159803D03*
X0002675511Y0001724803D03*
D174*
X0002670511Y0003172303D03*
D175*
X0002840511Y0002915590D03*
X0002840511Y0003014015D03*
M02*