%MOIN*%
%OFA0B0*%
%FSLAX46Y46*%
%IPPOS*%
%LPD*%
%ADD10C,0.0039370078740157488*%
%ADD11R,0.13385826771653545X0.082677165354330714*%
%ADD12R,0.07874015748031496X0.037401574803149609*%
%ADD13R,0.037401574803149609X0.07874015748031496*%
%ADD14C,0.082677165354330714*%
%ADD15O,0.082677165354330714X0.082677165354330714*%
%ADD16R,0.062992125984251982X0.11511811023622047*%
%ADD17R,0.064960629921259838X0.074803149606299218*%
%ADD18R,0.074803149606299218X0.064960629921259838*%
%ADD19R,0.074803149606299218X0.066929133858267723*%
%ADD20R,0.086614173228346469X0.084645669291338585*%
%ADD21C,0.10236220472440946*%
%ADD22R,0.068897637795275593X0.068897637795275593*%
%ADD33C,0.0039370078740157488*%
%ADD34R,0.13385826771653545X0.082677165354330714*%
%ADD35R,0.07874015748031496X0.037401574803149609*%
%ADD36R,0.037401574803149609X0.07874015748031496*%
%ADD37C,0.082677165354330714*%
%ADD38O,0.082677165354330714X0.082677165354330714*%
%ADD39R,0.062992125984251982X0.11511811023622047*%
%ADD40R,0.064960629921259838X0.074803149606299218*%
%ADD41R,0.074803149606299218X0.064960629921259838*%
%ADD42R,0.074803149606299218X0.066929133858267723*%
%ADD43R,0.086614173228346469X0.084645669291338585*%
%ADD44C,0.10236220472440946*%
%ADD45R,0.068897637795275593X0.068897637795275593*%
%ADD56C,0.0039370078740157488*%
%ADD57R,0.13385826771653545X0.082677165354330714*%
%ADD58R,0.07874015748031496X0.037401574803149609*%
%ADD59R,0.037401574803149609X0.07874015748031496*%
%ADD60C,0.082677165354330714*%
%ADD61O,0.082677165354330714X0.082677165354330714*%
%ADD62R,0.062992125984251982X0.11511811023622047*%
%ADD63R,0.064960629921259838X0.074803149606299218*%
%ADD64R,0.074803149606299218X0.064960629921259838*%
%ADD65R,0.074803149606299218X0.066929133858267723*%
%ADD66R,0.086614173228346469X0.084645669291338585*%
%ADD67C,0.10236220472440946*%
%ADD68R,0.068897637795275593X0.068897637795275593*%
%ADD79C,0.0039370078740157488*%
%ADD80R,0.13385826771653545X0.082677165354330714*%
%ADD81R,0.07874015748031496X0.037401574803149609*%
%ADD82R,0.037401574803149609X0.07874015748031496*%
%ADD83C,0.082677165354330714*%
%ADD84O,0.082677165354330714X0.082677165354330714*%
%ADD85R,0.062992125984251982X0.11511811023622047*%
%ADD86R,0.064960629921259838X0.074803149606299218*%
%ADD87R,0.074803149606299218X0.064960629921259838*%
%ADD88R,0.074803149606299218X0.066929133858267723*%
%ADD89R,0.086614173228346469X0.084645669291338585*%
%ADD90C,0.10236220472440946*%
%ADD91R,0.068897637795275593X0.068897637795275593*%
%ADD102C,0.0039370078740157488*%
%ADD103R,0.13385826771653545X0.082677165354330714*%
%ADD104R,0.07874015748031496X0.037401574803149609*%
%ADD105R,0.037401574803149609X0.07874015748031496*%
%ADD106C,0.082677165354330714*%
%ADD107O,0.082677165354330714X0.082677165354330714*%
%ADD108R,0.062992125984251982X0.11511811023622047*%
%ADD109R,0.064960629921259838X0.074803149606299218*%
%ADD110R,0.074803149606299218X0.064960629921259838*%
%ADD111R,0.074803149606299218X0.066929133858267723*%
%ADD112R,0.086614173228346469X0.084645669291338585*%
%ADD113C,0.10236220472440946*%
%ADD114R,0.068897637795275593X0.068897637795275593*%
%ADD125C,0.0039370078740157488*%
%ADD126R,0.13385826771653545X0.082677165354330714*%
%ADD127R,0.07874015748031496X0.037401574803149609*%
%ADD128R,0.037401574803149609X0.07874015748031496*%
%ADD129C,0.082677165354330714*%
%ADD130O,0.082677165354330714X0.082677165354330714*%
%ADD131R,0.062992125984251982X0.11511811023622047*%
%ADD132R,0.064960629921259838X0.074803149606299218*%
%ADD133R,0.074803149606299218X0.064960629921259838*%
%ADD134R,0.074803149606299218X0.066929133858267723*%
%ADD135R,0.086614173228346469X0.084645669291338585*%
%ADD136C,0.10236220472440946*%
%ADD137R,0.068897637795275593X0.068897637795275593*%
%ADD148C,0.0039370078740157488*%
%ADD149R,0.13385826771653545X0.082677165354330714*%
%ADD150R,0.07874015748031496X0.037401574803149609*%
%ADD151R,0.037401574803149609X0.07874015748031496*%
%ADD152C,0.082677165354330714*%
%ADD153O,0.082677165354330714X0.082677165354330714*%
%ADD154R,0.062992125984251982X0.11511811023622047*%
%ADD155R,0.064960629921259838X0.074803149606299218*%
%ADD156R,0.074803149606299218X0.064960629921259838*%
%ADD157R,0.074803149606299218X0.066929133858267723*%
%ADD158R,0.086614173228346469X0.084645669291338585*%
%ADD159C,0.10236220472440946*%
%ADD160R,0.068897637795275593X0.068897637795275593*%
%ADD171C,0.0039370078740157488*%
%ADD172R,0.13385826771653545X0.082677165354330714*%
%ADD173R,0.07874015748031496X0.037401574803149609*%
%ADD174R,0.037401574803149609X0.07874015748031496*%
%ADD175C,0.082677165354330714*%
%ADD176O,0.082677165354330714X0.082677165354330714*%
%ADD177R,0.062992125984251982X0.11511811023622047*%
%ADD178R,0.064960629921259838X0.074803149606299218*%
%ADD179R,0.074803149606299218X0.064960629921259838*%
%ADD180R,0.074803149606299218X0.066929133858267723*%
%ADD181R,0.086614173228346469X0.084645669291338585*%
%ADD182C,0.10236220472440946*%
%ADD183R,0.068897637795275593X0.068897637795275593*%
%LPD*%
G01*
D10*
D11*
X-0006692913Y0004921259D02*
X0000055531Y0001006259D03*
X0000055531Y0001206259D03*
X0000055531Y0001406258D03*
X0000054586Y0001106259D03*
X0000054586Y0001306259D03*
D12*
X0000234763Y0000298523D03*
X0000234763Y0000330019D03*
X0000234763Y0000361515D03*
X0000234763Y0000393011D03*
X0000234763Y0000424507D03*
X0000234763Y0000456003D03*
X0000234763Y0000487499D03*
X0000234763Y0000518996D03*
D13*
X0000291850Y0000576082D03*
X0000323346Y0000576082D03*
X0000354841Y0000576082D03*
X0000386338Y0000576082D03*
X0000417834Y0000576082D03*
X0000449330Y0000576082D03*
X0000480826Y0000576082D03*
X0000512322Y0000576082D03*
D12*
X0000569409Y0000518996D03*
X0000569409Y0000487499D03*
X0000569409Y0000456003D03*
X0000569409Y0000424507D03*
X0000569409Y0000393011D03*
X0000569409Y0000361515D03*
X0000569409Y0000330019D03*
X0000569409Y0000298523D03*
D13*
X0000512322Y0000241435D03*
X0000480826Y0000241435D03*
X0000449330Y0000241435D03*
X0000417834Y0000241435D03*
X0000386338Y0000241435D03*
X0000354841Y0000241435D03*
X0000323346Y0000241435D03*
X0000291850Y0000241435D03*
D14*
X0000734586Y0000448759D03*
D15*
X0000734586Y0000348759D03*
X0000734586Y0000248759D03*
X0000734586Y0000148759D03*
D14*
X0000737086Y0000048759D03*
D15*
X0000637086Y0000048759D03*
X0000537086Y0000048759D03*
X0000437086Y0000048759D03*
X0000337086Y0000048759D03*
X0000237086Y0000048759D03*
D16*
X0000732677Y0000697559D03*
X0000653936Y0000697559D03*
X0000575196Y0000697559D03*
X0000496456Y0000697559D03*
X0000417716Y0000697559D03*
X0000338976Y0000697559D03*
X0000260236Y0000697559D03*
X0000181496Y0000697559D03*
X0000417716Y0001445590D03*
X0000496456Y0001445590D03*
X0000338976Y0001445590D03*
D17*
X0000657086Y0000425472D03*
X0000657086Y0000327047D03*
X0000149586Y0000355472D03*
X0000149586Y0000257047D03*
D18*
X0000726299Y0000598759D03*
X0000627874Y0000598759D03*
D19*
X0000388935Y0000151259D03*
X0000495236Y0000151259D03*
D17*
X0000067086Y0000355472D03*
X0000067086Y0000257047D03*
X0000072086Y0000679547D03*
X0000072086Y0000777972D03*
D20*
X0000082086Y0000452283D03*
X0000082086Y0000580236D03*
D21*
X0000712086Y0001506259D03*
X0000077086Y0000071259D03*
D22*
X0000072086Y0001518759D03*
G01*
D33*
D34*
X-0006692913Y0006574803D02*
X0000055531Y0002659803D03*
X0000055531Y0002859803D03*
X0000055531Y0003059803D03*
X0000054586Y0002759803D03*
X0000054586Y0002959803D03*
D35*
X0000234763Y0001952066D03*
X0000234763Y0001983562D03*
X0000234763Y0002015059D03*
X0000234763Y0002046555D03*
X0000234763Y0002078050D03*
X0000234763Y0002109547D03*
X0000234763Y0002141043D03*
X0000234763Y0002172539D03*
D36*
X0000291850Y0002229625D03*
X0000323346Y0002229625D03*
X0000354841Y0002229625D03*
X0000386338Y0002229625D03*
X0000417834Y0002229625D03*
X0000449330Y0002229625D03*
X0000480826Y0002229625D03*
X0000512322Y0002229625D03*
D35*
X0000569409Y0002172539D03*
X0000569409Y0002141043D03*
X0000569409Y0002109547D03*
X0000569409Y0002078050D03*
X0000569409Y0002046555D03*
X0000569409Y0002015059D03*
X0000569409Y0001983562D03*
X0000569409Y0001952066D03*
D36*
X0000512322Y0001894980D03*
X0000480826Y0001894980D03*
X0000449330Y0001894980D03*
X0000417834Y0001894980D03*
X0000386338Y0001894980D03*
X0000354841Y0001894980D03*
X0000323346Y0001894980D03*
X0000291850Y0001894980D03*
D37*
X0000734586Y0002102303D03*
D38*
X0000734586Y0002002303D03*
X0000734586Y0001902303D03*
X0000734586Y0001802303D03*
D37*
X0000737086Y0001702303D03*
D38*
X0000637086Y0001702303D03*
X0000537086Y0001702303D03*
X0000437086Y0001702303D03*
X0000337086Y0001702303D03*
X0000237086Y0001702303D03*
D39*
X0000732677Y0002351102D03*
X0000653936Y0002351102D03*
X0000575196Y0002351102D03*
X0000496456Y0002351102D03*
X0000417716Y0002351102D03*
X0000338976Y0002351102D03*
X0000260236Y0002351102D03*
X0000181496Y0002351102D03*
X0000417716Y0003099133D03*
X0000496456Y0003099133D03*
X0000338976Y0003099133D03*
D40*
X0000657086Y0002079015D03*
X0000657086Y0001980590D03*
X0000149586Y0002009015D03*
X0000149586Y0001910590D03*
D41*
X0000726299Y0002252303D03*
X0000627874Y0002252303D03*
D42*
X0000388935Y0001804803D03*
X0000495236Y0001804803D03*
D40*
X0000067086Y0002009015D03*
X0000067086Y0001910590D03*
X0000072086Y0002333090D03*
X0000072086Y0002431515D03*
D43*
X0000082086Y0002105826D03*
X0000082086Y0002233779D03*
D44*
X0000712086Y0003159803D03*
X0000077086Y0001724803D03*
D45*
X0000072086Y0003172303D03*
G01*
D56*
D57*
X-0005826771Y0004921259D02*
X0000921673Y0001006259D03*
X0000921673Y0001206259D03*
X0000921673Y0001406258D03*
X0000920728Y0001106259D03*
X0000920728Y0001306259D03*
D58*
X0001100905Y0000298523D03*
X0001100905Y0000330019D03*
X0001100905Y0000361515D03*
X0001100905Y0000393011D03*
X0001100905Y0000424507D03*
X0001100905Y0000456003D03*
X0001100905Y0000487499D03*
X0001100905Y0000518996D03*
D59*
X0001157992Y0000576082D03*
X0001189488Y0000576082D03*
X0001220984Y0000576082D03*
X0001252480Y0000576082D03*
X0001283976Y0000576082D03*
X0001315472Y0000576082D03*
X0001346967Y0000576082D03*
X0001378464Y0000576082D03*
D58*
X0001435551Y0000518996D03*
X0001435551Y0000487499D03*
X0001435551Y0000456003D03*
X0001435551Y0000424507D03*
X0001435551Y0000393011D03*
X0001435551Y0000361515D03*
X0001435551Y0000330019D03*
X0001435551Y0000298523D03*
D59*
X0001378464Y0000241435D03*
X0001346967Y0000241435D03*
X0001315472Y0000241435D03*
X0001283976Y0000241435D03*
X0001252480Y0000241435D03*
X0001220984Y0000241435D03*
X0001189488Y0000241435D03*
X0001157992Y0000241435D03*
D60*
X0001600728Y0000448759D03*
D61*
X0001600728Y0000348759D03*
X0001600728Y0000248759D03*
X0001600728Y0000148759D03*
D60*
X0001603228Y0000048759D03*
D61*
X0001503228Y0000048759D03*
X0001403227Y0000048759D03*
X0001303228Y0000048759D03*
X0001203228Y0000048759D03*
X0001103228Y0000048759D03*
D62*
X0001598818Y0000697559D03*
X0001520078Y0000697559D03*
X0001441338Y0000697559D03*
X0001362597Y0000697559D03*
X0001283858Y0000697559D03*
X0001205118Y0000697559D03*
X0001126377Y0000697559D03*
X0001047636Y0000697559D03*
X0001283858Y0001445590D03*
X0001362597Y0001445590D03*
X0001205118Y0001445590D03*
D63*
X0001523228Y0000425472D03*
X0001523228Y0000327047D03*
X0001015728Y0000355472D03*
X0001015728Y0000257047D03*
D64*
X0001592440Y0000598759D03*
X0001494015Y0000598759D03*
D65*
X0001255078Y0000151259D03*
X0001361377Y0000151259D03*
D63*
X0000933228Y0000355472D03*
X0000933228Y0000257047D03*
X0000938228Y0000679547D03*
X0000938228Y0000777972D03*
D66*
X0000948228Y0000452283D03*
X0000948228Y0000580236D03*
D67*
X0001578228Y0001506259D03*
X0000943228Y0000071259D03*
D68*
X0000938228Y0001518759D03*
G01*
D79*
D80*
X-0004960629Y0004921259D02*
X0001787814Y0001006259D03*
X0001787814Y0001206259D03*
X0001787814Y0001406258D03*
X0001786870Y0001106259D03*
X0001786870Y0001306259D03*
D81*
X0001967047Y0000298523D03*
X0001967047Y0000330019D03*
X0001967047Y0000361515D03*
X0001967047Y0000393011D03*
X0001967047Y0000424507D03*
X0001967047Y0000456003D03*
X0001967047Y0000487499D03*
X0001967047Y0000518996D03*
D82*
X0002024133Y0000576082D03*
X0002055629Y0000576082D03*
X0002087125Y0000576082D03*
X0002118622Y0000576082D03*
X0002150118Y0000576082D03*
X0002181614Y0000576082D03*
X0002213110Y0000576082D03*
X0002244606Y0000576082D03*
D81*
X0002301692Y0000518996D03*
X0002301692Y0000487499D03*
X0002301692Y0000456003D03*
X0002301692Y0000424507D03*
X0002301692Y0000393011D03*
X0002301692Y0000361515D03*
X0002301692Y0000330019D03*
X0002301692Y0000298523D03*
D82*
X0002244606Y0000241435D03*
X0002213110Y0000241435D03*
X0002181614Y0000241435D03*
X0002150118Y0000241435D03*
X0002118622Y0000241435D03*
X0002087125Y0000241435D03*
X0002055629Y0000241435D03*
X0002024133Y0000241435D03*
D83*
X0002466870Y0000448759D03*
D84*
X0002466870Y0000348759D03*
X0002466870Y0000248759D03*
X0002466870Y0000148759D03*
D83*
X0002469370Y0000048759D03*
D84*
X0002369370Y0000048759D03*
X0002269370Y0000048759D03*
X0002169370Y0000048759D03*
X0002069370Y0000048759D03*
X0001969370Y0000048759D03*
D85*
X0002464960Y0000697559D03*
X0002386220Y0000697559D03*
X0002307480Y0000697559D03*
X0002228740Y0000697559D03*
X0002150000Y0000697559D03*
X0002071259Y0000697559D03*
X0001992519Y0000697559D03*
X0001913779Y0000697559D03*
X0002150000Y0001445590D03*
X0002228740Y0001445590D03*
X0002071259Y0001445590D03*
D86*
X0002389370Y0000425472D03*
X0002389370Y0000327047D03*
X0001881868Y0000355472D03*
X0001881868Y0000257047D03*
D87*
X0002458582Y0000598759D03*
X0002360157Y0000598759D03*
D88*
X0002121220Y0000151259D03*
X0002227519Y0000151259D03*
D86*
X0001799370Y0000355472D03*
X0001799370Y0000257047D03*
X0001804370Y0000679547D03*
X0001804370Y0000777972D03*
D89*
X0001814370Y0000452283D03*
X0001814370Y0000580236D03*
D90*
X0002444370Y0001506259D03*
X0001809370Y0000071259D03*
D91*
X0001804370Y0001518759D03*
G04 next file*
%LPD*%
G01*
D102*
D103*
X-0004094488Y0004921259D02*
X0002653956Y0001006259D03*
X0002653956Y0001206259D03*
X0002653956Y0001406258D03*
X0002653010Y0001106259D03*
X0002653010Y0001306259D03*
D104*
X0002833188Y0000298523D03*
X0002833188Y0000330019D03*
X0002833188Y0000361515D03*
X0002833188Y0000393011D03*
X0002833188Y0000424507D03*
X0002833188Y0000456003D03*
X0002833188Y0000487499D03*
X0002833188Y0000518996D03*
D105*
X0002890275Y0000576082D03*
X0002921771Y0000576082D03*
X0002953267Y0000576082D03*
X0002984763Y0000576082D03*
X0003016259Y0000576082D03*
X0003047755Y0000576082D03*
X0003079251Y0000576082D03*
X0003110748Y0000576082D03*
D104*
X0003167834Y0000518996D03*
X0003167834Y0000487499D03*
X0003167834Y0000456003D03*
X0003167834Y0000424507D03*
X0003167834Y0000393011D03*
X0003167834Y0000361515D03*
X0003167834Y0000330019D03*
X0003167834Y0000298523D03*
D105*
X0003110748Y0000241435D03*
X0003079251Y0000241435D03*
X0003047755Y0000241435D03*
X0003016259Y0000241435D03*
X0002984763Y0000241435D03*
X0002953267Y0000241435D03*
X0002921771Y0000241435D03*
X0002890275Y0000241435D03*
D106*
X0003333011Y0000448759D03*
D107*
X0003333011Y0000348759D03*
X0003333011Y0000248759D03*
X0003333011Y0000148759D03*
D106*
X0003335511Y0000048759D03*
D107*
X0003235511Y0000048759D03*
X0003135511Y0000048759D03*
X0003035510Y0000048759D03*
X0002935511Y0000048759D03*
X0002835511Y0000048759D03*
D108*
X0003331102Y0000697559D03*
X0003252362Y0000697559D03*
X0003173622Y0000697559D03*
X0003094881Y0000697559D03*
X0003016141Y0000697559D03*
X0002937401Y0000697559D03*
X0002858661Y0000697559D03*
X0002779921Y0000697559D03*
X0003016141Y0001445590D03*
X0003094881Y0001445590D03*
X0002937401Y0001445590D03*
D109*
X0003255510Y0000425472D03*
X0003255510Y0000327047D03*
X0002748011Y0000355472D03*
X0002748011Y0000257047D03*
D110*
X0003324724Y0000598759D03*
X0003226299Y0000598759D03*
D111*
X0002987362Y0000151259D03*
X0003093661Y0000151259D03*
D109*
X0002665511Y0000355472D03*
X0002665511Y0000257047D03*
X0002670511Y0000679547D03*
X0002670511Y0000777972D03*
D112*
X0002680511Y0000452283D03*
X0002680511Y0000580236D03*
D113*
X0003310511Y0001506259D03*
X0002675511Y0000071259D03*
D114*
X0002670511Y0001518759D03*
G01*
D125*
D126*
X-0005826771Y0006574803D02*
X0000921673Y0002659803D03*
X0000921673Y0002859803D03*
X0000921673Y0003059803D03*
X0000920728Y0002759803D03*
X0000920728Y0002959803D03*
D127*
X0001100905Y0001952066D03*
X0001100905Y0001983562D03*
X0001100905Y0002015059D03*
X0001100905Y0002046555D03*
X0001100905Y0002078050D03*
X0001100905Y0002109547D03*
X0001100905Y0002141043D03*
X0001100905Y0002172539D03*
D128*
X0001157992Y0002229625D03*
X0001189488Y0002229625D03*
X0001220984Y0002229625D03*
X0001252480Y0002229625D03*
X0001283976Y0002229625D03*
X0001315472Y0002229625D03*
X0001346967Y0002229625D03*
X0001378464Y0002229625D03*
D127*
X0001435551Y0002172539D03*
X0001435551Y0002141043D03*
X0001435551Y0002109547D03*
X0001435551Y0002078050D03*
X0001435551Y0002046555D03*
X0001435551Y0002015059D03*
X0001435551Y0001983562D03*
X0001435551Y0001952066D03*
D128*
X0001378464Y0001894980D03*
X0001346967Y0001894980D03*
X0001315472Y0001894980D03*
X0001283976Y0001894980D03*
X0001252480Y0001894980D03*
X0001220984Y0001894980D03*
X0001189488Y0001894980D03*
X0001157992Y0001894980D03*
D129*
X0001600728Y0002102303D03*
D130*
X0001600728Y0002002303D03*
X0001600728Y0001902303D03*
X0001600728Y0001802303D03*
D129*
X0001603228Y0001702303D03*
D130*
X0001503228Y0001702303D03*
X0001403227Y0001702303D03*
X0001303228Y0001702303D03*
X0001203228Y0001702303D03*
X0001103228Y0001702303D03*
D131*
X0001598818Y0002351102D03*
X0001520078Y0002351102D03*
X0001441338Y0002351102D03*
X0001362597Y0002351102D03*
X0001283858Y0002351102D03*
X0001205118Y0002351102D03*
X0001126377Y0002351102D03*
X0001047636Y0002351102D03*
X0001283858Y0003099133D03*
X0001362597Y0003099133D03*
X0001205118Y0003099133D03*
D132*
X0001523228Y0002079015D03*
X0001523228Y0001980590D03*
X0001015728Y0002009015D03*
X0001015728Y0001910590D03*
D133*
X0001592440Y0002252303D03*
X0001494015Y0002252303D03*
D134*
X0001255078Y0001804803D03*
X0001361377Y0001804803D03*
D132*
X0000933228Y0002009015D03*
X0000933228Y0001910590D03*
X0000938228Y0002333090D03*
X0000938228Y0002431515D03*
D135*
X0000948228Y0002105826D03*
X0000948228Y0002233779D03*
D136*
X0001578228Y0003159803D03*
X0000943228Y0001724803D03*
D137*
X0000938228Y0003172303D03*
G04 next file*
G01*
D148*
D149*
X-0004960629Y0006574803D02*
X0001787814Y0002659803D03*
X0001787814Y0002859803D03*
X0001787814Y0003059803D03*
X0001786870Y0002759803D03*
X0001786870Y0002959803D03*
D150*
X0001967047Y0001952066D03*
X0001967047Y0001983562D03*
X0001967047Y0002015059D03*
X0001967047Y0002046555D03*
X0001967047Y0002078050D03*
X0001967047Y0002109547D03*
X0001967047Y0002141043D03*
X0001967047Y0002172539D03*
D151*
X0002024133Y0002229625D03*
X0002055629Y0002229625D03*
X0002087125Y0002229625D03*
X0002118622Y0002229625D03*
X0002150118Y0002229625D03*
X0002181614Y0002229625D03*
X0002213110Y0002229625D03*
X0002244606Y0002229625D03*
D150*
X0002301692Y0002172539D03*
X0002301692Y0002141043D03*
X0002301692Y0002109547D03*
X0002301692Y0002078050D03*
X0002301692Y0002046555D03*
X0002301692Y0002015059D03*
X0002301692Y0001983562D03*
X0002301692Y0001952066D03*
D151*
X0002244606Y0001894980D03*
X0002213110Y0001894980D03*
X0002181614Y0001894980D03*
X0002150118Y0001894980D03*
X0002118622Y0001894980D03*
X0002087125Y0001894980D03*
X0002055629Y0001894980D03*
X0002024133Y0001894980D03*
D152*
X0002466870Y0002102303D03*
D153*
X0002466870Y0002002303D03*
X0002466870Y0001902303D03*
X0002466870Y0001802303D03*
D152*
X0002469370Y0001702303D03*
D153*
X0002369370Y0001702303D03*
X0002269370Y0001702303D03*
X0002169370Y0001702303D03*
X0002069370Y0001702303D03*
X0001969370Y0001702303D03*
D154*
X0002464960Y0002351102D03*
X0002386220Y0002351102D03*
X0002307480Y0002351102D03*
X0002228740Y0002351102D03*
X0002150000Y0002351102D03*
X0002071259Y0002351102D03*
X0001992519Y0002351102D03*
X0001913779Y0002351102D03*
X0002150000Y0003099133D03*
X0002228740Y0003099133D03*
X0002071259Y0003099133D03*
D155*
X0002389370Y0002079015D03*
X0002389370Y0001980590D03*
X0001881868Y0002009015D03*
X0001881868Y0001910590D03*
D156*
X0002458582Y0002252303D03*
X0002360157Y0002252303D03*
D157*
X0002121220Y0001804803D03*
X0002227519Y0001804803D03*
D155*
X0001799370Y0002009015D03*
X0001799370Y0001910590D03*
X0001804370Y0002333090D03*
X0001804370Y0002431515D03*
D158*
X0001814370Y0002105826D03*
X0001814370Y0002233779D03*
D159*
X0002444370Y0003159803D03*
X0001809370Y0001724803D03*
D160*
X0001804370Y0003172303D03*
G04 next file*
G04 #@! TF.FileFunction,Soldermask,Bot*
G04 Gerber Fmt 4.6, Leading zero omitted, Abs format (unit mm)*
G04 Created by KiCad (PCBNEW 4.0.2-stable) date 29.05.2017 13:31:58*
G01*
G04 APERTURE LIST*
G04 APERTURE END LIST*
D171*
D172*
X-0004094488Y0006574803D02*
X0002653956Y0002659803D03*
X0002653956Y0002859803D03*
X0002653956Y0003059803D03*
X0002653010Y0002759803D03*
X0002653010Y0002959803D03*
D173*
X0002833188Y0001952066D03*
X0002833188Y0001983562D03*
X0002833188Y0002015059D03*
X0002833188Y0002046555D03*
X0002833188Y0002078050D03*
X0002833188Y0002109547D03*
X0002833188Y0002141043D03*
X0002833188Y0002172539D03*
D174*
X0002890275Y0002229625D03*
X0002921771Y0002229625D03*
X0002953267Y0002229625D03*
X0002984763Y0002229625D03*
X0003016259Y0002229625D03*
X0003047755Y0002229625D03*
X0003079251Y0002229625D03*
X0003110748Y0002229625D03*
D173*
X0003167834Y0002172539D03*
X0003167834Y0002141043D03*
X0003167834Y0002109547D03*
X0003167834Y0002078050D03*
X0003167834Y0002046555D03*
X0003167834Y0002015059D03*
X0003167834Y0001983562D03*
X0003167834Y0001952066D03*
D174*
X0003110748Y0001894980D03*
X0003079251Y0001894980D03*
X0003047755Y0001894980D03*
X0003016259Y0001894980D03*
X0002984763Y0001894980D03*
X0002953267Y0001894980D03*
X0002921771Y0001894980D03*
X0002890275Y0001894980D03*
D175*
X0003333011Y0002102303D03*
D176*
X0003333011Y0002002303D03*
X0003333011Y0001902303D03*
X0003333011Y0001802303D03*
D175*
X0003335511Y0001702303D03*
D176*
X0003235511Y0001702303D03*
X0003135511Y0001702303D03*
X0003035510Y0001702303D03*
X0002935511Y0001702303D03*
X0002835511Y0001702303D03*
D177*
X0003331102Y0002351102D03*
X0003252362Y0002351102D03*
X0003173622Y0002351102D03*
X0003094881Y0002351102D03*
X0003016141Y0002351102D03*
X0002937401Y0002351102D03*
X0002858661Y0002351102D03*
X0002779921Y0002351102D03*
X0003016141Y0003099133D03*
X0003094881Y0003099133D03*
X0002937401Y0003099133D03*
D178*
X0003255510Y0002079015D03*
X0003255510Y0001980590D03*
X0002748011Y0002009015D03*
X0002748011Y0001910590D03*
D179*
X0003324724Y0002252303D03*
X0003226299Y0002252303D03*
D180*
X0002987362Y0001804803D03*
X0003093661Y0001804803D03*
D178*
X0002665511Y0002009015D03*
X0002665511Y0001910590D03*
X0002670511Y0002333090D03*
X0002670511Y0002431515D03*
D181*
X0002680511Y0002105826D03*
X0002680511Y0002233779D03*
D182*
X0003310511Y0003159803D03*
X0002675511Y0001724803D03*
D183*
X0002670511Y0003172303D03*
M02*