%MOIN*%
%OFA0B0*%
%FSLAX46Y46*%
%IPPOS*%
%LPD*%
%ADD10C,0.0039370078740157488*%
%ADD11C,0.005905511811023622*%
%ADD12C,0.0047244094488188976*%
%ADD23C,0.0039370078740157488*%
%ADD24C,0.005905511811023622*%
%ADD25C,0.0047244094488188976*%
%ADD36C,0.0039370078740157488*%
%ADD37C,0.005905511811023622*%
%ADD38C,0.0047244094488188976*%
%ADD49C,0.0039370078740157488*%
%ADD50C,0.005905511811023622*%
%ADD51C,0.0047244094488188976*%
%ADD62C,0.0039370078740157488*%
%ADD63C,0.005905511811023622*%
%ADD64C,0.0047244094488188976*%
%ADD75C,0.0039370078740157488*%
%ADD76C,0.005905511811023622*%
%ADD77C,0.0047244094488188976*%
%ADD88C,0.0039370078740157488*%
%ADD89C,0.005905511811023622*%
%ADD90C,0.0047244094488188976*%
%ADD101C,0.0039370078740157488*%
%ADD102C,0.005905511811023622*%
%ADD103C,0.0047244094488188976*%
%LPD*%
G01*
D10*
D11*
X0000095519Y0000905949D02*
X0000095519Y0000945318D01*
X0000078646Y0000907824D02*
X0000073022Y0000905949D01*
X0000063646Y0000905949D01*
X0000059898Y0000907824D01*
X0000058023Y0000909699D01*
X0000056149Y0000913448D01*
X0000056149Y0000917198D01*
X0000058023Y0000920947D01*
X0000059898Y0000922822D01*
X0000063646Y0000924697D01*
X0000071147Y0000926571D01*
X0000074896Y0000928446D01*
X0000076771Y0000930321D01*
X0000078646Y0000934071D01*
X0000078646Y0000937820D01*
X0000076771Y0000941570D01*
X0000074896Y0000943444D01*
X0000071147Y0000945318D01*
X0000061773Y0000945318D01*
X0000056149Y0000943444D01*
X0000039276Y0000905949D02*
X0000039276Y0000945318D01*
X0000024278Y0000945318D01*
X0000020528Y0000943444D01*
X0000018653Y0000941570D01*
X0000016779Y0000937820D01*
X0000016779Y0000932195D01*
X0000018653Y0000928446D01*
X0000020528Y0000926571D01*
X0000024278Y0000924697D01*
X0000039276Y0000924697D01*
D10*
X0000193020Y0000997354D02*
X0000193020Y0001017039D01*
X0000186458Y0001002979D01*
X0000179896Y0001017039D01*
X0000179896Y0000997354D01*
X0000170523Y0000997354D02*
X0000170523Y0001017039D01*
X0000162086Y0000998292D02*
X0000159274Y0000997354D01*
X0000154587Y0000997354D01*
X0000152712Y0000998292D01*
X0000151775Y0000999229D01*
X0000150838Y0001001104D01*
X0000150838Y0001002979D01*
X0000151775Y0001004853D01*
X0000152712Y0001005791D01*
X0000154587Y0001006728D01*
X0000158337Y0001007665D01*
X0000160211Y0001008602D01*
X0000161149Y0001009540D01*
X0000162086Y0001011415D01*
X0000162086Y0001013290D01*
X0000161149Y0001015164D01*
X0000160211Y0001016102D01*
X0000158337Y0001017039D01*
X0000153650Y0001017039D01*
X0000150838Y0001016102D01*
X0000138652Y0001017039D02*
X0000134902Y0001017039D01*
X0000133027Y0001016102D01*
X0000131152Y0001014227D01*
X0000130215Y0001010478D01*
X0000130215Y0001003916D01*
X0000131152Y0001000166D01*
X0000133027Y0000998292D01*
X0000134902Y0000997354D01*
X0000138652Y0000997354D01*
X0000140526Y0000998292D01*
X0000142401Y0001000166D01*
X0000143338Y0001003916D01*
X0000143338Y0001010478D01*
X0000142401Y0001014227D01*
X0000140526Y0001016102D01*
X0000138652Y0001017039D01*
X0000182395Y0001098292D02*
X0000179583Y0001097354D01*
X0000174896Y0001097354D01*
X0000173022Y0001098292D01*
X0000172084Y0001099229D01*
X0000171147Y0001101104D01*
X0000171147Y0001102978D01*
X0000172084Y0001104853D01*
X0000173022Y0001105791D01*
X0000174896Y0001106728D01*
X0000178646Y0001107665D01*
X0000180520Y0001108603D01*
X0000181458Y0001109540D01*
X0000182395Y0001111415D01*
X0000182395Y0001113290D01*
X0000181458Y0001115164D01*
X0000180520Y0001116102D01*
X0000178646Y0001117039D01*
X0000173959Y0001117039D01*
X0000171147Y0001116102D01*
X0000151462Y0001099229D02*
X0000152399Y0001098292D01*
X0000155211Y0001097354D01*
X0000157086Y0001097354D01*
X0000159898Y0001098292D01*
X0000161773Y0001100166D01*
X0000162710Y0001102041D01*
X0000163648Y0001105791D01*
X0000163648Y0001108603D01*
X0000162710Y0001112352D01*
X0000161773Y0001114227D01*
X0000159898Y0001116102D01*
X0000157086Y0001117039D01*
X0000155211Y0001117039D01*
X0000152399Y0001116102D01*
X0000151462Y0001115164D01*
X0000143025Y0001097354D02*
X0000143025Y0001117039D01*
X0000131777Y0001097354D02*
X0000140213Y0001108603D01*
X0000131777Y0001117039D02*
X0000143025Y0001105791D01*
X0000205676Y0001197354D02*
X0000212238Y0001206728D01*
X0000216925Y0001197354D02*
X0000216925Y0001217039D01*
X0000209426Y0001217039D01*
X0000207551Y0001216102D01*
X0000206614Y0001215164D01*
X0000205676Y0001213290D01*
X0000205676Y0001210478D01*
X0000206614Y0001208603D01*
X0000207551Y0001207665D01*
X0000209426Y0001206728D01*
X0000216925Y0001206728D01*
X0000197240Y0001207665D02*
X0000190678Y0001207665D01*
X0000187865Y0001197354D02*
X0000197240Y0001197354D01*
X0000197240Y0001217039D01*
X0000187865Y0001217039D01*
X0000180367Y0001198292D02*
X0000177555Y0001197354D01*
X0000172868Y0001197354D01*
X0000170993Y0001198292D01*
X0000170055Y0001199229D01*
X0000169118Y0001201104D01*
X0000169118Y0001202979D01*
X0000170055Y0001204853D01*
X0000170993Y0001205791D01*
X0000172868Y0001206728D01*
X0000176617Y0001207665D01*
X0000178492Y0001208603D01*
X0000179430Y0001209540D01*
X0000180367Y0001211415D01*
X0000180367Y0001213290D01*
X0000179430Y0001215164D01*
X0000178492Y0001216102D01*
X0000176617Y0001217039D01*
X0000171930Y0001217039D01*
X0000169118Y0001216102D01*
X0000160682Y0001207665D02*
X0000154120Y0001207665D01*
X0000151308Y0001197354D02*
X0000160682Y0001197354D01*
X0000160682Y0001217039D01*
X0000151308Y0001217039D01*
X0000145684Y0001217039D02*
X0000134435Y0001217039D01*
X0000140060Y0001197354D02*
X0000140060Y0001217039D01*
X0000193020Y0001392354D02*
X0000193020Y0001412039D01*
X0000186458Y0001397979D01*
X0000179896Y0001412039D01*
X0000179896Y0001392354D01*
X0000166773Y0001412039D02*
X0000163023Y0001412039D01*
X0000161149Y0001411102D01*
X0000159274Y0001409227D01*
X0000158337Y0001405478D01*
X0000158337Y0001398916D01*
X0000159274Y0001395166D01*
X0000161149Y0001393292D01*
X0000163023Y0001392354D01*
X0000166773Y0001392354D01*
X0000168648Y0001393292D01*
X0000170523Y0001395166D01*
X0000171460Y0001398916D01*
X0000171460Y0001405478D01*
X0000170523Y0001409227D01*
X0000168648Y0001411102D01*
X0000166773Y0001412039D01*
X0000150837Y0001393292D02*
X0000148025Y0001392354D01*
X0000143338Y0001392354D01*
X0000141464Y0001393292D01*
X0000140526Y0001394229D01*
X0000139589Y0001396104D01*
X0000139589Y0001397979D01*
X0000140526Y0001399853D01*
X0000141464Y0001400791D01*
X0000143338Y0001401728D01*
X0000147088Y0001402665D01*
X0000148963Y0001403603D01*
X0000149900Y0001404540D01*
X0000150837Y0001406415D01*
X0000150837Y0001408290D01*
X0000149900Y0001410164D01*
X0000148963Y0001411102D01*
X0000147088Y0001412039D01*
X0000142401Y0001412039D01*
X0000139589Y0001411102D01*
X0000131152Y0001392354D02*
X0000131152Y0001412039D01*
D11*
X0000259370Y0000266043D02*
X0000259370Y0000274901D01*
X0000544803Y0000266043D02*
X0000544803Y0000278838D01*
X0000544803Y0000551476D02*
X0000544803Y0000538681D01*
X0000259370Y0000551476D02*
X0000259370Y0000538681D01*
X0000259370Y0000266043D02*
X0000272165Y0000266043D01*
X0000259370Y0000551476D02*
X0000272165Y0000551476D01*
X0000544803Y0000551476D02*
X0000532007Y0000551476D01*
X0000544803Y0000266043D02*
X0000532007Y0000266043D01*
X0000259370Y0000274901D02*
X0000203267Y0000274901D01*
X0000772047Y0000697559D02*
X0000142125Y0000697559D01*
X0000142125Y0000697559D02*
X0000142125Y0001445590D01*
X0000142125Y0001445590D02*
X0000772047Y0001445590D01*
X0000772047Y0001445590D02*
X0000772047Y0000697559D01*
D12*
X0000623622Y0000356574D02*
X0000623622Y0000395944D01*
X0000690551Y0000395944D02*
X0000690551Y0000356574D01*
X0000116122Y0000286574D02*
X0000116122Y0000325944D01*
X0000183051Y0000325944D02*
X0000183051Y0000286574D01*
X0000657401Y0000632224D02*
X0000696770Y0000632224D01*
X0000696770Y0000565295D02*
X0000657401Y0000565295D01*
X0000465708Y0000185905D02*
X0000418464Y0000185905D01*
X0000418464Y0000116614D02*
X0000465708Y0000116614D01*
X0000033622Y0000286574D02*
X0000033622Y0000325944D01*
X0000100551Y0000325944D02*
X0000100551Y0000286574D01*
X0000105551Y0000748444D02*
X0000105551Y0000709074D01*
X0000038622Y0000709074D02*
X0000038622Y0000748444D01*
X0000119487Y0000494606D02*
X0000119487Y0000537913D01*
X0000044685Y0000494606D02*
X0000044685Y0000537913D01*
X0000117519Y0000409960D02*
X0000046653Y0000409960D01*
D11*
X0000440519Y0000390949D02*
X0000440519Y0000430319D01*
X0000399273Y0000394699D02*
X0000401149Y0000392824D01*
X0000406773Y0000390949D01*
X0000410523Y0000390949D01*
X0000416147Y0000392824D01*
X0000419896Y0000396573D01*
X0000421770Y0000400323D01*
X0000423646Y0000407822D01*
X0000423646Y0000413446D01*
X0000421770Y0000420945D01*
X0000419896Y0000424695D01*
X0000416147Y0000428444D01*
X0000410523Y0000430319D01*
X0000406773Y0000430319D01*
X0000401149Y0000428444D01*
X0000399273Y0000426570D01*
X0000361779Y0000390949D02*
X0000384276Y0000390949D01*
X0000373027Y0000390949D02*
X0000373027Y0000430319D01*
X0000376777Y0000424695D01*
X0000380526Y0000420945D01*
X0000384276Y0000419071D01*
X0000495519Y0000955339D02*
X0000495519Y0000994709D01*
X0000454274Y0000959088D02*
X0000456149Y0000957214D01*
X0000461773Y0000955339D01*
X0000465523Y0000955339D01*
X0000471147Y0000957214D01*
X0000474896Y0000960963D01*
X0000476771Y0000964713D01*
X0000478646Y0000972212D01*
X0000478646Y0000977836D01*
X0000476771Y0000985335D01*
X0000474896Y0000989085D01*
X0000471147Y0000992834D01*
X0000465523Y0000994709D01*
X0000461773Y0000994709D01*
X0000456149Y0000992834D01*
X0000454274Y0000990959D01*
X0000439276Y0000990959D02*
X0000437401Y0000992834D01*
X0000433652Y0000994709D01*
X0000424278Y0000994709D01*
X0000420528Y0000992834D01*
X0000418653Y0000990959D01*
X0000416779Y0000987210D01*
X0000416779Y0000983460D01*
X0000418653Y0000977836D01*
X0000441151Y0000955339D01*
X0000416779Y0000955339D01*
X0000668647Y0000260321D02*
X0000670521Y0000262196D01*
X0000672396Y0000267820D01*
X0000672396Y0000271570D01*
X0000670521Y0000277194D01*
X0000666772Y0000280943D01*
X0000663022Y0000282818D01*
X0000655523Y0000284693D01*
X0000649899Y0000284693D01*
X0000642400Y0000282818D01*
X0000638651Y0000280943D01*
X0000634901Y0000277194D01*
X0000633026Y0000271570D01*
X0000633026Y0000267820D01*
X0000634901Y0000262196D01*
X0000636776Y0000260321D01*
X0000672396Y0000222826D02*
X0000672396Y0000245323D01*
X0000672396Y0000234074D02*
X0000633026Y0000234074D01*
X0000638651Y0000237824D01*
X0000642400Y0000241573D01*
X0000644275Y0000245323D01*
X0000163647Y0000192821D02*
X0000165522Y0000194696D01*
X0000167396Y0000200320D01*
X0000167396Y0000204069D01*
X0000165522Y0000209694D01*
X0000161772Y0000213442D01*
X0000158023Y0000215318D01*
X0000150523Y0000217192D01*
X0000144899Y0000217192D01*
X0000137400Y0000215318D01*
X0000133651Y0000213442D01*
X0000129899Y0000209694D01*
X0000128026Y0000204069D01*
X0000128026Y0000200320D01*
X0000129899Y0000194696D01*
X0000131776Y0000192821D01*
X0000131776Y0000177823D02*
X0000129899Y0000175948D01*
X0000128026Y0000172199D01*
X0000128026Y0000162825D01*
X0000129899Y0000159075D01*
X0000131776Y0000157200D01*
X0000135525Y0000155326D01*
X0000139275Y0000155326D01*
X0000144899Y0000157200D01*
X0000167396Y0000179698D01*
X0000167396Y0000155326D01*
X0000728648Y0000534699D02*
X0000730522Y0000532824D01*
X0000736146Y0000530949D01*
X0000739896Y0000530949D01*
X0000745521Y0000532824D01*
X0000749269Y0000536573D01*
X0000751145Y0000540323D01*
X0000753020Y0000547822D01*
X0000753020Y0000553446D01*
X0000751145Y0000560945D01*
X0000749269Y0000564695D01*
X0000745521Y0000568444D01*
X0000739896Y0000570319D01*
X0000736146Y0000570319D01*
X0000730522Y0000568444D01*
X0000728648Y0000566570D01*
X0000715524Y0000570319D02*
X0000691152Y0000570319D01*
X0000704276Y0000555321D01*
X0000698651Y0000555321D01*
X0000694902Y0000553446D01*
X0000693027Y0000551572D01*
X0000691152Y0000547822D01*
X0000691152Y0000538448D01*
X0000693027Y0000534699D01*
X0000694902Y0000532824D01*
X0000698651Y0000530949D01*
X0000709900Y0000530949D01*
X0000713650Y0000532824D01*
X0000715524Y0000534699D01*
X0000313648Y0000133449D02*
X0000326771Y0000152197D01*
X0000336145Y0000133449D02*
X0000336145Y0000172819D01*
X0000321147Y0000172819D01*
X0000317397Y0000170944D01*
X0000315522Y0000169070D01*
X0000313648Y0000165320D01*
X0000313648Y0000159696D01*
X0000315522Y0000155946D01*
X0000317397Y0000154071D01*
X0000321147Y0000152197D01*
X0000336145Y0000152197D01*
X0000276152Y0000133449D02*
X0000298650Y0000133449D01*
X0000287401Y0000133449D02*
X0000287401Y0000172819D01*
X0000291151Y0000167195D01*
X0000294900Y0000163445D01*
X0000298650Y0000161570D01*
X0000083647Y0000192821D02*
X0000085522Y0000194696D01*
X0000087396Y0000200320D01*
X0000087396Y0000204069D01*
X0000085522Y0000209694D01*
X0000081772Y0000213442D01*
X0000078023Y0000215318D01*
X0000070524Y0000217192D01*
X0000064899Y0000217192D01*
X0000057400Y0000215318D01*
X0000053651Y0000213442D01*
X0000049901Y0000209694D01*
X0000048026Y0000204069D01*
X0000048026Y0000200320D01*
X0000049901Y0000194696D01*
X0000051776Y0000192821D01*
X0000061150Y0000159075D02*
X0000087396Y0000159075D01*
X0000046152Y0000168449D02*
X0000074273Y0000177823D01*
X0000074273Y0000153451D01*
X0000078648Y0000829699D02*
X0000080523Y0000827824D01*
X0000086147Y0000825949D01*
X0000089896Y0000825949D01*
X0000095521Y0000827824D01*
X0000099270Y0000831572D01*
X0000101145Y0000835323D01*
X0000103020Y0000842822D01*
X0000103020Y0000848446D01*
X0000101145Y0000855945D01*
X0000099270Y0000859695D01*
X0000095521Y0000863444D01*
X0000089896Y0000865319D01*
X0000086147Y0000865319D01*
X0000080523Y0000863444D01*
X0000078648Y0000861569D01*
X0000043026Y0000865319D02*
X0000061775Y0000865319D01*
X0000063650Y0000846571D01*
X0000061775Y0000848446D01*
X0000058025Y0000850321D01*
X0000048650Y0000850321D01*
X0000044902Y0000848446D01*
X0000043026Y0000846571D01*
X0000041151Y0000842822D01*
X0000041151Y0000833448D01*
X0000043026Y0000829699D01*
X0000044902Y0000827824D01*
X0000048650Y0000825949D01*
X0000058025Y0000825949D01*
X0000061775Y0000827824D01*
X0000063650Y0000829699D01*
X0000178334Y0000529697D02*
X0000178334Y0000510949D01*
X0000191457Y0000550319D02*
X0000178334Y0000529697D01*
X0000165210Y0000550319D01*
X0000131465Y0000510949D02*
X0000153962Y0000510949D01*
X0000142713Y0000510949D02*
X0000142713Y0000550319D01*
X0000146463Y0000544695D01*
X0000150212Y0000540945D01*
X0000153962Y0000539071D01*
G01*
D23*
D24*
X0000095519Y0002559492D02*
X0000095519Y0002598862D01*
X0000078646Y0002561367D02*
X0000073022Y0002559492D01*
X0000063646Y0002559492D01*
X0000059898Y0002561367D01*
X0000058023Y0002563242D01*
X0000056149Y0002566991D01*
X0000056149Y0002570741D01*
X0000058023Y0002574490D01*
X0000059898Y0002576364D01*
X0000063646Y0002578240D01*
X0000071147Y0002580115D01*
X0000074896Y0002581990D01*
X0000076771Y0002583864D01*
X0000078646Y0002587614D01*
X0000078646Y0002591363D01*
X0000076771Y0002595113D01*
X0000074896Y0002596988D01*
X0000071147Y0002598862D01*
X0000061773Y0002598862D01*
X0000056149Y0002596988D01*
X0000039276Y0002559492D02*
X0000039276Y0002598862D01*
X0000024278Y0002598862D01*
X0000020528Y0002596988D01*
X0000018653Y0002595113D01*
X0000016779Y0002591363D01*
X0000016779Y0002585739D01*
X0000018653Y0002581990D01*
X0000020528Y0002580115D01*
X0000024278Y0002578240D01*
X0000039276Y0002578240D01*
D23*
X0000193020Y0002650898D02*
X0000193020Y0002670583D01*
X0000186458Y0002656522D01*
X0000179896Y0002670583D01*
X0000179896Y0002650898D01*
X0000170523Y0002650898D02*
X0000170523Y0002670583D01*
X0000162086Y0002651835D02*
X0000159274Y0002650898D01*
X0000154587Y0002650898D01*
X0000152712Y0002651835D01*
X0000151775Y0002652772D01*
X0000150838Y0002654646D01*
X0000150838Y0002656522D01*
X0000151775Y0002658396D01*
X0000152712Y0002659334D01*
X0000154587Y0002660270D01*
X0000158337Y0002661209D01*
X0000160211Y0002662146D01*
X0000161149Y0002663083D01*
X0000162086Y0002664958D01*
X0000162086Y0002666833D01*
X0000161149Y0002668707D01*
X0000160211Y0002669645D01*
X0000158337Y0002670583D01*
X0000153650Y0002670583D01*
X0000150838Y0002669645D01*
X0000138652Y0002670583D02*
X0000134902Y0002670583D01*
X0000133027Y0002669645D01*
X0000131152Y0002667770D01*
X0000130215Y0002664021D01*
X0000130215Y0002657459D01*
X0000131152Y0002653710D01*
X0000133027Y0002651835D01*
X0000134902Y0002650898D01*
X0000138652Y0002650898D01*
X0000140526Y0002651835D01*
X0000142401Y0002653710D01*
X0000143338Y0002657459D01*
X0000143338Y0002664021D01*
X0000142401Y0002667770D01*
X0000140526Y0002669645D01*
X0000138652Y0002670583D01*
X0000182395Y0002751835D02*
X0000179583Y0002750898D01*
X0000174896Y0002750898D01*
X0000173022Y0002751835D01*
X0000172084Y0002752772D01*
X0000171147Y0002754646D01*
X0000171147Y0002756522D01*
X0000172084Y0002758397D01*
X0000173022Y0002759334D01*
X0000174896Y0002760271D01*
X0000178646Y0002761209D01*
X0000180520Y0002762146D01*
X0000181458Y0002763083D01*
X0000182395Y0002764957D01*
X0000182395Y0002766833D01*
X0000181458Y0002768708D01*
X0000180520Y0002769645D01*
X0000178646Y0002770583D01*
X0000173959Y0002770583D01*
X0000171147Y0002769645D01*
X0000151462Y0002752772D02*
X0000152399Y0002751835D01*
X0000155211Y0002750898D01*
X0000157086Y0002750898D01*
X0000159898Y0002751835D01*
X0000161773Y0002753710D01*
X0000162710Y0002755584D01*
X0000163648Y0002759334D01*
X0000163648Y0002762146D01*
X0000162710Y0002765896D01*
X0000161773Y0002767770D01*
X0000159898Y0002769645D01*
X0000157086Y0002770583D01*
X0000155211Y0002770583D01*
X0000152399Y0002769645D01*
X0000151462Y0002768708D01*
X0000143025Y0002750898D02*
X0000143025Y0002770583D01*
X0000131777Y0002750898D02*
X0000140213Y0002762146D01*
X0000131777Y0002770583D02*
X0000143025Y0002759334D01*
X0000205676Y0002850898D02*
X0000212238Y0002860271D01*
X0000216925Y0002850898D02*
X0000216925Y0002870582D01*
X0000209426Y0002870582D01*
X0000207551Y0002869645D01*
X0000206614Y0002868708D01*
X0000205676Y0002866833D01*
X0000205676Y0002864021D01*
X0000206614Y0002862146D01*
X0000207551Y0002861209D01*
X0000209426Y0002860271D01*
X0000216925Y0002860271D01*
X0000197240Y0002861209D02*
X0000190678Y0002861209D01*
X0000187865Y0002850898D02*
X0000197240Y0002850898D01*
X0000197240Y0002870582D01*
X0000187865Y0002870582D01*
X0000180367Y0002851835D02*
X0000177555Y0002850898D01*
X0000172868Y0002850898D01*
X0000170993Y0002851835D01*
X0000170055Y0002852772D01*
X0000169118Y0002854647D01*
X0000169118Y0002856521D01*
X0000170055Y0002858397D01*
X0000170993Y0002859334D01*
X0000172868Y0002860271D01*
X0000176617Y0002861209D01*
X0000178492Y0002862146D01*
X0000179430Y0002863083D01*
X0000180367Y0002864958D01*
X0000180367Y0002866833D01*
X0000179430Y0002868708D01*
X0000178492Y0002869645D01*
X0000176617Y0002870582D01*
X0000171930Y0002870582D01*
X0000169118Y0002869645D01*
X0000160682Y0002861209D02*
X0000154120Y0002861209D01*
X0000151308Y0002850898D02*
X0000160682Y0002850898D01*
X0000160682Y0002870582D01*
X0000151308Y0002870582D01*
X0000145684Y0002870582D02*
X0000134435Y0002870582D01*
X0000140060Y0002850898D02*
X0000140060Y0002870582D01*
X0000193020Y0003045898D02*
X0000193020Y0003065583D01*
X0000186458Y0003051522D01*
X0000179896Y0003065583D01*
X0000179896Y0003045898D01*
X0000166773Y0003065583D02*
X0000163023Y0003065583D01*
X0000161149Y0003064645D01*
X0000159274Y0003062769D01*
X0000158337Y0003059021D01*
X0000158337Y0003052458D01*
X0000159274Y0003048710D01*
X0000161149Y0003046835D01*
X0000163023Y0003045898D01*
X0000166773Y0003045898D01*
X0000168648Y0003046835D01*
X0000170523Y0003048710D01*
X0000171460Y0003052458D01*
X0000171460Y0003059021D01*
X0000170523Y0003062769D01*
X0000168648Y0003064645D01*
X0000166773Y0003065583D01*
X0000150837Y0003046835D02*
X0000148025Y0003045898D01*
X0000143338Y0003045898D01*
X0000141464Y0003046835D01*
X0000140526Y0003047772D01*
X0000139589Y0003049647D01*
X0000139589Y0003051522D01*
X0000140526Y0003053397D01*
X0000141464Y0003054334D01*
X0000143338Y0003055271D01*
X0000147088Y0003056209D01*
X0000148963Y0003057146D01*
X0000149900Y0003058083D01*
X0000150837Y0003059958D01*
X0000150837Y0003061833D01*
X0000149900Y0003063708D01*
X0000148963Y0003064645D01*
X0000147088Y0003065583D01*
X0000142401Y0003065583D01*
X0000139589Y0003064645D01*
X0000131152Y0003045898D02*
X0000131152Y0003065583D01*
D24*
X0000259370Y0001919586D02*
X0000259370Y0001928444D01*
X0000544803Y0001919586D02*
X0000544803Y0001932381D01*
X0000544803Y0002205019D02*
X0000544803Y0002192224D01*
X0000259370Y0002205019D02*
X0000259370Y0002192224D01*
X0000259370Y0001919586D02*
X0000272165Y0001919586D01*
X0000259370Y0002205019D02*
X0000272165Y0002205019D01*
X0000544803Y0002205019D02*
X0000532007Y0002205019D01*
X0000544803Y0001919586D02*
X0000532007Y0001919586D01*
X0000259370Y0001928444D02*
X0000203267Y0001928444D01*
X0000772047Y0002351102D02*
X0000142125Y0002351102D01*
X0000142125Y0002351102D02*
X0000142125Y0003099133D01*
X0000142125Y0003099133D02*
X0000772047Y0003099133D01*
X0000772047Y0003099133D02*
X0000772047Y0002351102D01*
D25*
X0000623622Y0002010117D02*
X0000623622Y0002049488D01*
X0000690551Y0002049488D02*
X0000690551Y0002010117D01*
X0000116122Y0001940118D02*
X0000116122Y0001979488D01*
X0000183051Y0001979488D02*
X0000183051Y0001940118D01*
X0000657401Y0002285767D02*
X0000696770Y0002285767D01*
X0000696770Y0002218838D02*
X0000657401Y0002218838D01*
X0000465708Y0001839448D02*
X0000418464Y0001839448D01*
X0000418464Y0001770157D02*
X0000465708Y0001770157D01*
X0000033622Y0001940118D02*
X0000033622Y0001979488D01*
X0000100551Y0001979488D02*
X0000100551Y0001940118D01*
X0000105551Y0002401988D02*
X0000105551Y0002362618D01*
X0000038622Y0002362618D02*
X0000038622Y0002401988D01*
X0000119487Y0002148149D02*
X0000119487Y0002191456D01*
X0000044685Y0002148149D02*
X0000044685Y0002191456D01*
X0000117519Y0002063502D02*
X0000046653Y0002063502D01*
D24*
X0000440519Y0002044492D02*
X0000440519Y0002083861D01*
X0000399273Y0002048242D02*
X0000401149Y0002046367D01*
X0000406773Y0002044492D01*
X0000410523Y0002044492D01*
X0000416147Y0002046367D01*
X0000419896Y0002050117D01*
X0000421770Y0002053866D01*
X0000423646Y0002061365D01*
X0000423646Y0002066990D01*
X0000421770Y0002074488D01*
X0000419896Y0002078237D01*
X0000416147Y0002081988D01*
X0000410523Y0002083861D01*
X0000406773Y0002083861D01*
X0000401149Y0002081988D01*
X0000399273Y0002080112D01*
X0000361779Y0002044492D02*
X0000384276Y0002044492D01*
X0000373027Y0002044492D02*
X0000373027Y0002083861D01*
X0000376777Y0002078237D01*
X0000380526Y0002074488D01*
X0000384276Y0002072614D01*
X0000495519Y0002608882D02*
X0000495519Y0002648252D01*
X0000454274Y0002612632D02*
X0000456149Y0002610757D01*
X0000461773Y0002608882D01*
X0000465523Y0002608882D01*
X0000471147Y0002610757D01*
X0000474896Y0002614506D01*
X0000476771Y0002618256D01*
X0000478646Y0002625755D01*
X0000478646Y0002631378D01*
X0000476771Y0002638878D01*
X0000474896Y0002642628D01*
X0000471147Y0002646377D01*
X0000465523Y0002648252D01*
X0000461773Y0002648252D01*
X0000456149Y0002646377D01*
X0000454274Y0002644503D01*
X0000439276Y0002644503D02*
X0000437401Y0002646377D01*
X0000433652Y0002648252D01*
X0000424278Y0002648252D01*
X0000420528Y0002646377D01*
X0000418653Y0002644503D01*
X0000416779Y0002640753D01*
X0000416779Y0002637004D01*
X0000418653Y0002631378D01*
X0000441151Y0002608882D01*
X0000416779Y0002608882D01*
X0000668647Y0001913864D02*
X0000670521Y0001915739D01*
X0000672396Y0001921361D01*
X0000672396Y0001925113D01*
X0000670521Y0001930737D01*
X0000666772Y0001934487D01*
X0000663022Y0001936362D01*
X0000655523Y0001938236D01*
X0000649899Y0001938236D01*
X0000642400Y0001936362D01*
X0000638651Y0001934487D01*
X0000634901Y0001930737D01*
X0000633026Y0001925113D01*
X0000633026Y0001921361D01*
X0000634901Y0001915739D01*
X0000636776Y0001913864D01*
X0000672396Y0001876369D02*
X0000672396Y0001898866D01*
X0000672396Y0001887618D02*
X0000633026Y0001887618D01*
X0000638651Y0001891367D01*
X0000642400Y0001895117D01*
X0000644275Y0001898866D01*
X0000163647Y0001846364D02*
X0000165522Y0001848237D01*
X0000167396Y0001853863D01*
X0000167396Y0001857613D01*
X0000165522Y0001863237D01*
X0000161772Y0001866987D01*
X0000158023Y0001868861D01*
X0000150523Y0001870736D01*
X0000144899Y0001870736D01*
X0000137400Y0001868861D01*
X0000133651Y0001866987D01*
X0000129899Y0001863237D01*
X0000128026Y0001857613D01*
X0000128026Y0001853863D01*
X0000129899Y0001848237D01*
X0000131776Y0001846364D01*
X0000131776Y0001831366D02*
X0000129899Y0001829491D01*
X0000128026Y0001825742D01*
X0000128026Y0001816368D01*
X0000129899Y0001812618D01*
X0000131776Y0001810743D01*
X0000135525Y0001808868D01*
X0000139275Y0001808868D01*
X0000144899Y0001810743D01*
X0000167396Y0001833241D01*
X0000167396Y0001808868D01*
X0000728648Y0002188242D02*
X0000730522Y0002186367D01*
X0000736146Y0002184492D01*
X0000739896Y0002184492D01*
X0000745521Y0002186367D01*
X0000749269Y0002190117D01*
X0000751145Y0002193866D01*
X0000753020Y0002201365D01*
X0000753020Y0002206990D01*
X0000751145Y0002214489D01*
X0000749269Y0002218238D01*
X0000745521Y0002221988D01*
X0000739896Y0002223862D01*
X0000736146Y0002223862D01*
X0000730522Y0002221988D01*
X0000728648Y0002220113D01*
X0000715524Y0002223862D02*
X0000691152Y0002223862D01*
X0000704276Y0002208864D01*
X0000698651Y0002208864D01*
X0000694902Y0002206990D01*
X0000693027Y0002205115D01*
X0000691152Y0002201365D01*
X0000691152Y0002191991D01*
X0000693027Y0002188242D01*
X0000694902Y0002186367D01*
X0000698651Y0002184492D01*
X0000709900Y0002184492D01*
X0000713650Y0002186367D01*
X0000715524Y0002188242D01*
X0000313648Y0001786992D02*
X0000326771Y0001805740D01*
X0000336145Y0001786992D02*
X0000336145Y0001826362D01*
X0000321147Y0001826362D01*
X0000317397Y0001824488D01*
X0000315522Y0001822613D01*
X0000313648Y0001818863D01*
X0000313648Y0001813239D01*
X0000315522Y0001809490D01*
X0000317397Y0001807615D01*
X0000321147Y0001805740D01*
X0000336145Y0001805740D01*
X0000276152Y0001786992D02*
X0000298650Y0001786992D01*
X0000287401Y0001786992D02*
X0000287401Y0001826362D01*
X0000291151Y0001820738D01*
X0000294900Y0001816989D01*
X0000298650Y0001815114D01*
X0000083647Y0001846364D02*
X0000085522Y0001848237D01*
X0000087396Y0001853863D01*
X0000087396Y0001857613D01*
X0000085522Y0001863237D01*
X0000081772Y0001866987D01*
X0000078023Y0001868861D01*
X0000070524Y0001870736D01*
X0000064899Y0001870736D01*
X0000057400Y0001868861D01*
X0000053651Y0001866987D01*
X0000049901Y0001863237D01*
X0000048026Y0001857613D01*
X0000048026Y0001853863D01*
X0000049901Y0001848237D01*
X0000051776Y0001846364D01*
X0000061150Y0001812618D02*
X0000087396Y0001812618D01*
X0000046152Y0001821991D02*
X0000074273Y0001831366D01*
X0000074273Y0001806994D01*
X0000078648Y0002483242D02*
X0000080523Y0002481367D01*
X0000086147Y0002479492D01*
X0000089896Y0002479492D01*
X0000095521Y0002481367D01*
X0000099270Y0002485117D01*
X0000101145Y0002488866D01*
X0000103020Y0002496365D01*
X0000103020Y0002501990D01*
X0000101145Y0002509489D01*
X0000099270Y0002513238D01*
X0000095521Y0002516988D01*
X0000089896Y0002518862D01*
X0000086147Y0002518862D01*
X0000080523Y0002516988D01*
X0000078648Y0002515113D01*
X0000043026Y0002518862D02*
X0000061775Y0002518862D01*
X0000063650Y0002500115D01*
X0000061775Y0002501990D01*
X0000058025Y0002503864D01*
X0000048650Y0002503864D01*
X0000044902Y0002501990D01*
X0000043026Y0002500115D01*
X0000041151Y0002496365D01*
X0000041151Y0002486991D01*
X0000043026Y0002483242D01*
X0000044902Y0002481367D01*
X0000048650Y0002479492D01*
X0000058025Y0002479492D01*
X0000061775Y0002481367D01*
X0000063650Y0002483242D01*
X0000178334Y0002183240D02*
X0000178334Y0002164492D01*
X0000191457Y0002203862D02*
X0000178334Y0002183240D01*
X0000165210Y0002203862D01*
X0000131465Y0002164492D02*
X0000153962Y0002164492D01*
X0000142713Y0002164492D02*
X0000142713Y0002203862D01*
X0000146463Y0002198238D01*
X0000150212Y0002194489D01*
X0000153962Y0002192614D01*
G01*
D36*
D37*
X0000961660Y0000905949D02*
X0000961660Y0000945318D01*
X0000944788Y0000907824D02*
X0000939163Y0000905949D01*
X0000929790Y0000905949D01*
X0000926040Y0000907824D01*
X0000924165Y0000909699D01*
X0000922290Y0000913448D01*
X0000922290Y0000917198D01*
X0000924165Y0000920947D01*
X0000926040Y0000922822D01*
X0000929790Y0000924697D01*
X0000937289Y0000926571D01*
X0000941038Y0000928446D01*
X0000942913Y0000930321D01*
X0000944788Y0000934071D01*
X0000944788Y0000937820D01*
X0000942913Y0000941570D01*
X0000941038Y0000943444D01*
X0000937289Y0000945318D01*
X0000927915Y0000945318D01*
X0000922290Y0000943444D01*
X0000905418Y0000905949D02*
X0000905418Y0000945318D01*
X0000890419Y0000945318D01*
X0000886670Y0000943444D01*
X0000884794Y0000941570D01*
X0000882920Y0000937820D01*
X0000882920Y0000932195D01*
X0000884794Y0000928446D01*
X0000886670Y0000926571D01*
X0000890419Y0000924697D01*
X0000905418Y0000924697D01*
D36*
X0001059161Y0000997354D02*
X0001059161Y0001017039D01*
X0001052600Y0001002979D01*
X0001046038Y0001017039D01*
X0001046038Y0000997354D01*
X0001036664Y0000997354D02*
X0001036664Y0001017039D01*
X0001028227Y0000998292D02*
X0001025416Y0000997354D01*
X0001020729Y0000997354D01*
X0001018853Y0000998292D01*
X0001017917Y0000999229D01*
X0001016979Y0001001104D01*
X0001016979Y0001002979D01*
X0001017917Y0001004853D01*
X0001018853Y0001005791D01*
X0001020729Y0001006728D01*
X0001024478Y0001007665D01*
X0001026353Y0001008602D01*
X0001027290Y0001009540D01*
X0001028227Y0001011415D01*
X0001028227Y0001013290D01*
X0001027290Y0001015164D01*
X0001026353Y0001016102D01*
X0001024478Y0001017039D01*
X0001019790Y0001017039D01*
X0001016979Y0001016102D01*
X0001004793Y0001017039D02*
X0001001044Y0001017039D01*
X0000999169Y0001016102D01*
X0000997294Y0001014227D01*
X0000996357Y0001010478D01*
X0000996357Y0001003916D01*
X0000997294Y0001000166D01*
X0000999169Y0000998292D01*
X0001001044Y0000997354D01*
X0001004793Y0000997354D01*
X0001006667Y0000998292D01*
X0001008543Y0001000166D01*
X0001009479Y0001003916D01*
X0001009479Y0001010478D01*
X0001008543Y0001014227D01*
X0001006667Y0001016102D01*
X0001004793Y0001017039D01*
X0001048537Y0001098292D02*
X0001045725Y0001097354D01*
X0001041037Y0001097354D01*
X0001039163Y0001098292D01*
X0001038226Y0001099229D01*
X0001037288Y0001101104D01*
X0001037288Y0001102978D01*
X0001038226Y0001104853D01*
X0001039163Y0001105791D01*
X0001041037Y0001106728D01*
X0001044788Y0001107665D01*
X0001046662Y0001108603D01*
X0001047600Y0001109540D01*
X0001048537Y0001111415D01*
X0001048537Y0001113290D01*
X0001047600Y0001115164D01*
X0001046662Y0001116102D01*
X0001044788Y0001117039D01*
X0001040101Y0001117039D01*
X0001037288Y0001116102D01*
X0001017604Y0001099229D02*
X0001018540Y0001098292D01*
X0001021353Y0001097354D01*
X0001023228Y0001097354D01*
X0001026040Y0001098292D01*
X0001027914Y0001100166D01*
X0001028852Y0001102041D01*
X0001029790Y0001105791D01*
X0001029790Y0001108603D01*
X0001028852Y0001112352D01*
X0001027914Y0001114227D01*
X0001026040Y0001116102D01*
X0001023228Y0001117039D01*
X0001021353Y0001117039D01*
X0001018540Y0001116102D01*
X0001017604Y0001115164D01*
X0001009166Y0001097354D02*
X0001009166Y0001117039D01*
X0000997918Y0001097354D02*
X0001006355Y0001108603D01*
X0000997918Y0001117039D02*
X0001009166Y0001105791D01*
X0001071818Y0001197354D02*
X0001078380Y0001206728D01*
X0001083067Y0001197354D02*
X0001083067Y0001217039D01*
X0001075567Y0001217039D01*
X0001073693Y0001216102D01*
X0001072755Y0001215164D01*
X0001071818Y0001213290D01*
X0001071818Y0001210478D01*
X0001072755Y0001208603D01*
X0001073693Y0001207665D01*
X0001075567Y0001206728D01*
X0001083067Y0001206728D01*
X0001063382Y0001207665D02*
X0001056820Y0001207665D01*
X0001054008Y0001197354D02*
X0001063382Y0001197354D01*
X0001063382Y0001217039D01*
X0001054008Y0001217039D01*
X0001046508Y0001198292D02*
X0001043697Y0001197354D01*
X0001039010Y0001197354D01*
X0001037134Y0001198292D01*
X0001036197Y0001199229D01*
X0001035260Y0001201104D01*
X0001035260Y0001202979D01*
X0001036197Y0001204853D01*
X0001037134Y0001205791D01*
X0001039010Y0001206728D01*
X0001042759Y0001207665D01*
X0001044634Y0001208603D01*
X0001045571Y0001209540D01*
X0001046508Y0001211415D01*
X0001046508Y0001213290D01*
X0001045571Y0001215164D01*
X0001044634Y0001216102D01*
X0001042759Y0001217039D01*
X0001038072Y0001217039D01*
X0001035260Y0001216102D01*
X0001026824Y0001207665D02*
X0001020262Y0001207665D01*
X0001017450Y0001197354D02*
X0001026824Y0001197354D01*
X0001026824Y0001217039D01*
X0001017450Y0001217039D01*
X0001011825Y0001217039D02*
X0001000577Y0001217039D01*
X0001006200Y0001197354D02*
X0001006200Y0001217039D01*
X0001059161Y0001392354D02*
X0001059161Y0001412039D01*
X0001052600Y0001397979D01*
X0001046038Y0001412039D01*
X0001046038Y0001392354D01*
X0001032915Y0001412039D02*
X0001029165Y0001412039D01*
X0001027290Y0001411102D01*
X0001025416Y0001409227D01*
X0001024478Y0001405478D01*
X0001024478Y0001398916D01*
X0001025416Y0001395166D01*
X0001027290Y0001393292D01*
X0001029165Y0001392354D01*
X0001032915Y0001392354D01*
X0001034790Y0001393292D01*
X0001036664Y0001395166D01*
X0001037601Y0001398916D01*
X0001037601Y0001405478D01*
X0001036664Y0001409227D01*
X0001034790Y0001411102D01*
X0001032915Y0001412039D01*
X0001016979Y0001393292D02*
X0001014167Y0001392354D01*
X0001009479Y0001392354D01*
X0001007605Y0001393292D01*
X0001006667Y0001394229D01*
X0001005730Y0001396104D01*
X0001005730Y0001397979D01*
X0001006667Y0001399853D01*
X0001007605Y0001400791D01*
X0001009479Y0001401728D01*
X0001013230Y0001402665D01*
X0001015104Y0001403603D01*
X0001016041Y0001404540D01*
X0001016979Y0001406415D01*
X0001016979Y0001408290D01*
X0001016041Y0001410164D01*
X0001015104Y0001411102D01*
X0001013230Y0001412039D01*
X0001008543Y0001412039D01*
X0001005730Y0001411102D01*
X0000997294Y0001392354D02*
X0000997294Y0001412039D01*
D37*
X0001125511Y0000266043D02*
X0001125511Y0000274901D01*
X0001410944Y0000266043D02*
X0001410944Y0000278838D01*
X0001410944Y0000551476D02*
X0001410944Y0000538681D01*
X0001125511Y0000551476D02*
X0001125511Y0000538681D01*
X0001125511Y0000266043D02*
X0001138307Y0000266043D01*
X0001125511Y0000551476D02*
X0001138307Y0000551476D01*
X0001410944Y0000551476D02*
X0001398149Y0000551476D01*
X0001410944Y0000266043D02*
X0001398149Y0000266043D01*
X0001125511Y0000274901D02*
X0001069409Y0000274901D01*
X0001638187Y0000697559D02*
X0001008267Y0000697559D01*
X0001008267Y0000697559D02*
X0001008267Y0001445590D01*
X0001008267Y0001445590D02*
X0001638187Y0001445590D01*
X0001638187Y0001445590D02*
X0001638187Y0000697559D01*
D38*
X0001489763Y0000356574D02*
X0001489763Y0000395944D01*
X0001556692Y0000395944D02*
X0001556692Y0000356574D01*
X0000982263Y0000286574D02*
X0000982263Y0000325944D01*
X0001049192Y0000325944D02*
X0001049192Y0000286574D01*
X0001523543Y0000632224D02*
X0001562913Y0000632224D01*
X0001562913Y0000565295D02*
X0001523543Y0000565295D01*
X0001331850Y0000185905D02*
X0001284606Y0000185905D01*
X0001284606Y0000116614D02*
X0001331850Y0000116614D01*
X0000899763Y0000286574D02*
X0000899763Y0000325944D01*
X0000966692Y0000325944D02*
X0000966692Y0000286574D01*
X0000971692Y0000748444D02*
X0000971692Y0000709074D01*
X0000904763Y0000709074D02*
X0000904763Y0000748444D01*
X0000985629Y0000494606D02*
X0000985629Y0000537913D01*
X0000910826Y0000494606D02*
X0000910826Y0000537913D01*
X0000983661Y0000409960D02*
X0000912795Y0000409960D01*
D37*
X0001306660Y0000390949D02*
X0001306660Y0000430319D01*
X0001265416Y0000394699D02*
X0001267290Y0000392824D01*
X0001272915Y0000390949D01*
X0001276664Y0000390949D01*
X0001282289Y0000392824D01*
X0001286038Y0000396573D01*
X0001287913Y0000400323D01*
X0001289788Y0000407822D01*
X0001289788Y0000413446D01*
X0001287913Y0000420945D01*
X0001286038Y0000424695D01*
X0001282289Y0000428444D01*
X0001276664Y0000430319D01*
X0001272915Y0000430319D01*
X0001267290Y0000428444D01*
X0001265416Y0000426570D01*
X0001227920Y0000390949D02*
X0001250418Y0000390949D01*
X0001239169Y0000390949D02*
X0001239169Y0000430319D01*
X0001242919Y0000424695D01*
X0001246668Y0000420945D01*
X0001250418Y0000419071D01*
X0001361660Y0000955339D02*
X0001361660Y0000994709D01*
X0001320416Y0000959088D02*
X0001322290Y0000957214D01*
X0001327915Y0000955339D01*
X0001331664Y0000955339D01*
X0001337288Y0000957214D01*
X0001341038Y0000960963D01*
X0001342913Y0000964713D01*
X0001344788Y0000972212D01*
X0001344788Y0000977836D01*
X0001342913Y0000985335D01*
X0001341038Y0000989085D01*
X0001337288Y0000992834D01*
X0001331664Y0000994709D01*
X0001327915Y0000994709D01*
X0001322290Y0000992834D01*
X0001320416Y0000990959D01*
X0001305418Y0000990959D02*
X0001303543Y0000992834D01*
X0001299793Y0000994709D01*
X0001290419Y0000994709D01*
X0001286670Y0000992834D01*
X0001284795Y0000990959D01*
X0001282920Y0000987210D01*
X0001282920Y0000983460D01*
X0001284795Y0000977836D01*
X0001307292Y0000955339D01*
X0001282920Y0000955339D01*
X0001534789Y0000260321D02*
X0001536661Y0000262196D01*
X0001538538Y0000267820D01*
X0001538538Y0000271570D01*
X0001536661Y0000277194D01*
X0001532914Y0000280943D01*
X0001529164Y0000282818D01*
X0001521664Y0000284693D01*
X0001516041Y0000284693D01*
X0001508541Y0000282818D01*
X0001504792Y0000280943D01*
X0001501043Y0000277194D01*
X0001499168Y0000271570D01*
X0001499168Y0000267820D01*
X0001501043Y0000262196D01*
X0001502918Y0000260321D01*
X0001538538Y0000222826D02*
X0001538538Y0000245323D01*
X0001538538Y0000234074D02*
X0001499168Y0000234074D01*
X0001504792Y0000237824D01*
X0001508541Y0000241573D01*
X0001510415Y0000245323D01*
X0001029789Y0000192821D02*
X0001031663Y0000194696D01*
X0001033538Y0000200320D01*
X0001033538Y0000204069D01*
X0001031663Y0000209694D01*
X0001027914Y0000213442D01*
X0001024164Y0000215318D01*
X0001016664Y0000217192D01*
X0001011041Y0000217192D01*
X0001003541Y0000215318D01*
X0000999792Y0000213442D01*
X0000996043Y0000209694D01*
X0000994168Y0000204069D01*
X0000994168Y0000200320D01*
X0000996043Y0000194696D01*
X0000997918Y0000192821D01*
X0000997918Y0000177823D02*
X0000996043Y0000175948D01*
X0000994168Y0000172199D01*
X0000994168Y0000162825D01*
X0000996043Y0000159075D01*
X0000997918Y0000157200D01*
X0001001667Y0000155326D01*
X0001005417Y0000155326D01*
X0001011041Y0000157200D01*
X0001033538Y0000179698D01*
X0001033538Y0000155326D01*
X0001594790Y0000534699D02*
X0001596664Y0000532824D01*
X0001602289Y0000530949D01*
X0001606037Y0000530949D01*
X0001611662Y0000532824D01*
X0001615412Y0000536573D01*
X0001617287Y0000540323D01*
X0001619160Y0000547822D01*
X0001619160Y0000553446D01*
X0001617287Y0000560945D01*
X0001615412Y0000564695D01*
X0001611662Y0000568444D01*
X0001606037Y0000570319D01*
X0001602289Y0000570319D01*
X0001596664Y0000568444D01*
X0001594790Y0000566570D01*
X0001581665Y0000570319D02*
X0001557293Y0000570319D01*
X0001570418Y0000555321D01*
X0001564793Y0000555321D01*
X0001561044Y0000553446D01*
X0001559169Y0000551572D01*
X0001557293Y0000547822D01*
X0001557293Y0000538448D01*
X0001559169Y0000534699D01*
X0001561044Y0000532824D01*
X0001564793Y0000530949D01*
X0001576042Y0000530949D01*
X0001579791Y0000532824D01*
X0001581665Y0000534699D01*
X0001179790Y0000133449D02*
X0001192913Y0000152197D01*
X0001202287Y0000133449D02*
X0001202287Y0000172819D01*
X0001187289Y0000172819D01*
X0001183539Y0000170944D01*
X0001181664Y0000169070D01*
X0001179790Y0000165320D01*
X0001179790Y0000159696D01*
X0001181664Y0000155946D01*
X0001183539Y0000154071D01*
X0001187289Y0000152197D01*
X0001202287Y0000152197D01*
X0001142294Y0000133449D02*
X0001164791Y0000133449D01*
X0001153543Y0000133449D02*
X0001153543Y0000172819D01*
X0001157292Y0000167195D01*
X0001161042Y0000163445D01*
X0001164791Y0000161570D01*
X0000949789Y0000192821D02*
X0000951663Y0000194696D01*
X0000953538Y0000200320D01*
X0000953538Y0000204069D01*
X0000951663Y0000209694D01*
X0000947914Y0000213442D01*
X0000944164Y0000215318D01*
X0000936665Y0000217192D01*
X0000931041Y0000217192D01*
X0000923542Y0000215318D01*
X0000919792Y0000213442D01*
X0000916043Y0000209694D01*
X0000914168Y0000204069D01*
X0000914168Y0000200320D01*
X0000916043Y0000194696D01*
X0000917918Y0000192821D01*
X0000927291Y0000159075D02*
X0000953538Y0000159075D01*
X0000912293Y0000168449D02*
X0000940415Y0000177823D01*
X0000940415Y0000153451D01*
X0000944790Y0000829699D02*
X0000946664Y0000827824D01*
X0000952289Y0000825949D01*
X0000956038Y0000825949D01*
X0000961662Y0000827824D01*
X0000965412Y0000831572D01*
X0000967287Y0000835323D01*
X0000969161Y0000842822D01*
X0000969161Y0000848446D01*
X0000967287Y0000855945D01*
X0000965412Y0000859695D01*
X0000961662Y0000863444D01*
X0000956038Y0000865319D01*
X0000952289Y0000865319D01*
X0000946664Y0000863444D01*
X0000944790Y0000861569D01*
X0000909169Y0000865319D02*
X0000927917Y0000865319D01*
X0000929791Y0000846571D01*
X0000927917Y0000848446D01*
X0000924167Y0000850321D01*
X0000914793Y0000850321D01*
X0000911044Y0000848446D01*
X0000909169Y0000846571D01*
X0000907294Y0000842822D01*
X0000907294Y0000833448D01*
X0000909169Y0000829699D01*
X0000911044Y0000827824D01*
X0000914793Y0000825949D01*
X0000924167Y0000825949D01*
X0000927917Y0000827824D01*
X0000929791Y0000829699D01*
X0001044476Y0000529697D02*
X0001044476Y0000510949D01*
X0001057599Y0000550319D02*
X0001044476Y0000529697D01*
X0001031352Y0000550319D01*
X0000997606Y0000510949D02*
X0001020103Y0000510949D01*
X0001008855Y0000510949D02*
X0001008855Y0000550319D01*
X0001012605Y0000544695D01*
X0001016354Y0000540945D01*
X0001020103Y0000539071D01*
G01*
D49*
D50*
X0001827802Y0000905949D02*
X0001827802Y0000945318D01*
X0001810928Y0000907824D02*
X0001805305Y0000905949D01*
X0001795931Y0000905949D01*
X0001792182Y0000907824D01*
X0001790307Y0000909699D01*
X0001788432Y0000913448D01*
X0001788432Y0000917198D01*
X0001790307Y0000920947D01*
X0001792182Y0000922822D01*
X0001795931Y0000924697D01*
X0001803430Y0000926571D01*
X0001807180Y0000928446D01*
X0001809054Y0000930321D01*
X0001810928Y0000934071D01*
X0001810928Y0000937820D01*
X0001809054Y0000941570D01*
X0001807180Y0000943444D01*
X0001803430Y0000945318D01*
X0001794056Y0000945318D01*
X0001788432Y0000943444D01*
X0001771559Y0000905949D02*
X0001771559Y0000945318D01*
X0001756561Y0000945318D01*
X0001752812Y0000943444D01*
X0001750937Y0000941570D01*
X0001749062Y0000937820D01*
X0001749062Y0000932195D01*
X0001750937Y0000928446D01*
X0001752812Y0000926571D01*
X0001756561Y0000924697D01*
X0001771559Y0000924697D01*
D49*
X0001925301Y0000997354D02*
X0001925301Y0001017039D01*
X0001918742Y0001002979D01*
X0001912178Y0001017039D01*
X0001912178Y0000997354D01*
X0001902806Y0000997354D02*
X0001902806Y0001017039D01*
X0001894370Y0000998292D02*
X0001891557Y0000997354D01*
X0001886869Y0000997354D01*
X0001884996Y0000998292D01*
X0001884058Y0000999229D01*
X0001883121Y0001001104D01*
X0001883121Y0001002979D01*
X0001884058Y0001004853D01*
X0001884996Y0001005791D01*
X0001886869Y0001006728D01*
X0001890620Y0001007665D01*
X0001892495Y0001008602D01*
X0001893432Y0001009540D01*
X0001894370Y0001011415D01*
X0001894370Y0001013290D01*
X0001893432Y0001015164D01*
X0001892495Y0001016102D01*
X0001890620Y0001017039D01*
X0001885932Y0001017039D01*
X0001883121Y0001016102D01*
X0001870935Y0001017039D02*
X0001867185Y0001017039D01*
X0001865311Y0001016102D01*
X0001863436Y0001014227D01*
X0001862497Y0001010478D01*
X0001862497Y0001003916D01*
X0001863436Y0001000166D01*
X0001865311Y0000998292D01*
X0001867185Y0000997354D01*
X0001870935Y0000997354D01*
X0001872809Y0000998292D01*
X0001874683Y0001000166D01*
X0001875620Y0001003916D01*
X0001875620Y0001010478D01*
X0001874683Y0001014227D01*
X0001872809Y0001016102D01*
X0001870935Y0001017039D01*
X0001914679Y0001098292D02*
X0001911867Y0001097354D01*
X0001907180Y0001097354D01*
X0001905305Y0001098292D01*
X0001904368Y0001099229D01*
X0001903430Y0001101104D01*
X0001903430Y0001102978D01*
X0001904368Y0001104853D01*
X0001905305Y0001105791D01*
X0001907180Y0001106728D01*
X0001910929Y0001107665D01*
X0001912804Y0001108603D01*
X0001913742Y0001109540D01*
X0001914679Y0001111415D01*
X0001914679Y0001113290D01*
X0001913742Y0001115164D01*
X0001912804Y0001116102D01*
X0001910929Y0001117039D01*
X0001906242Y0001117039D01*
X0001903430Y0001116102D01*
X0001883745Y0001099229D02*
X0001884683Y0001098292D01*
X0001887495Y0001097354D01*
X0001889370Y0001097354D01*
X0001892182Y0001098292D01*
X0001894057Y0001100166D01*
X0001894994Y0001102041D01*
X0001895931Y0001105791D01*
X0001895931Y0001108603D01*
X0001894994Y0001112352D01*
X0001894057Y0001114227D01*
X0001892182Y0001116102D01*
X0001889370Y0001117039D01*
X0001887495Y0001117039D01*
X0001884683Y0001116102D01*
X0001883745Y0001115164D01*
X0001875309Y0001097354D02*
X0001875309Y0001117039D01*
X0001864060Y0001097354D02*
X0001872497Y0001108603D01*
X0001864060Y0001117039D02*
X0001875309Y0001105791D01*
X0001937960Y0001197354D02*
X0001944521Y0001206728D01*
X0001949208Y0001197354D02*
X0001949208Y0001217039D01*
X0001941709Y0001217039D01*
X0001939834Y0001216102D01*
X0001938897Y0001215164D01*
X0001937960Y0001213290D01*
X0001937960Y0001210478D01*
X0001938897Y0001208603D01*
X0001939834Y0001207665D01*
X0001941709Y0001206728D01*
X0001949208Y0001206728D01*
X0001929523Y0001207665D02*
X0001922962Y0001207665D01*
X0001920149Y0001197354D02*
X0001929523Y0001197354D01*
X0001929523Y0001217039D01*
X0001920149Y0001217039D01*
X0001912650Y0001198292D02*
X0001909837Y0001197354D01*
X0001905151Y0001197354D01*
X0001903277Y0001198292D01*
X0001902339Y0001199229D01*
X0001901402Y0001201104D01*
X0001901402Y0001202979D01*
X0001902339Y0001204853D01*
X0001903277Y0001205791D01*
X0001905151Y0001206728D01*
X0001908899Y0001207665D01*
X0001910776Y0001208603D01*
X0001911713Y0001209540D01*
X0001912650Y0001211415D01*
X0001912650Y0001213290D01*
X0001911713Y0001215164D01*
X0001910776Y0001216102D01*
X0001908899Y0001217039D01*
X0001904214Y0001217039D01*
X0001901402Y0001216102D01*
X0001892965Y0001207665D02*
X0001886404Y0001207665D01*
X0001883590Y0001197354D02*
X0001892965Y0001197354D01*
X0001892965Y0001217039D01*
X0001883590Y0001217039D01*
X0001877967Y0001217039D02*
X0001866719Y0001217039D01*
X0001872343Y0001197354D02*
X0001872343Y0001217039D01*
X0001925301Y0001392354D02*
X0001925301Y0001412039D01*
X0001918742Y0001397979D01*
X0001912178Y0001412039D01*
X0001912178Y0001392354D01*
X0001899055Y0001412039D02*
X0001895307Y0001412039D01*
X0001893432Y0001411102D01*
X0001891557Y0001409227D01*
X0001890620Y0001405478D01*
X0001890620Y0001398916D01*
X0001891557Y0001395166D01*
X0001893432Y0001393292D01*
X0001895307Y0001392354D01*
X0001899055Y0001392354D01*
X0001900929Y0001393292D01*
X0001902806Y0001395166D01*
X0001903743Y0001398916D01*
X0001903743Y0001405478D01*
X0001902806Y0001409227D01*
X0001900929Y0001411102D01*
X0001899055Y0001412039D01*
X0001883121Y0001393292D02*
X0001880309Y0001392354D01*
X0001875620Y0001392354D01*
X0001873746Y0001393292D01*
X0001872809Y0001394229D01*
X0001871872Y0001396104D01*
X0001871872Y0001397979D01*
X0001872809Y0001399853D01*
X0001873746Y0001400791D01*
X0001875620Y0001401728D01*
X0001879371Y0001402665D01*
X0001881246Y0001403603D01*
X0001882184Y0001404540D01*
X0001883121Y0001406415D01*
X0001883121Y0001408290D01*
X0001882184Y0001410164D01*
X0001881246Y0001411102D01*
X0001879371Y0001412039D01*
X0001874683Y0001412039D01*
X0001871872Y0001411102D01*
X0001863436Y0001392354D02*
X0001863436Y0001412039D01*
D50*
X0001991653Y0000266043D02*
X0001991653Y0000274901D01*
X0002277086Y0000266043D02*
X0002277086Y0000278838D01*
X0002277086Y0000551476D02*
X0002277086Y0000538681D01*
X0001991653Y0000551476D02*
X0001991653Y0000538681D01*
X0001991653Y0000266043D02*
X0002004448Y0000266043D01*
X0001991653Y0000551476D02*
X0002004448Y0000551476D01*
X0002277086Y0000551476D02*
X0002264291Y0000551476D01*
X0002277086Y0000266043D02*
X0002264291Y0000266043D01*
X0001991653Y0000274901D02*
X0001935551Y0000274901D01*
X0002504330Y0000697559D02*
X0001874407Y0000697559D01*
X0001874407Y0000697559D02*
X0001874407Y0001445590D01*
X0001874407Y0001445590D02*
X0002504330Y0001445590D01*
X0002504330Y0001445590D02*
X0002504330Y0000697559D01*
D51*
X0002355905Y0000356574D02*
X0002355905Y0000395944D01*
X0002422834Y0000395944D02*
X0002422834Y0000356574D01*
X0001848405Y0000286574D02*
X0001848405Y0000325944D01*
X0001915333Y0000325944D02*
X0001915333Y0000286574D01*
X0002389685Y0000632224D02*
X0002429055Y0000632224D01*
X0002429055Y0000565295D02*
X0002389685Y0000565295D01*
X0002197992Y0000185905D02*
X0002150747Y0000185905D01*
X0002150747Y0000116614D02*
X0002197992Y0000116614D01*
X0001765905Y0000286574D02*
X0001765905Y0000325944D01*
X0001832834Y0000325944D02*
X0001832834Y0000286574D01*
X0001837834Y0000748444D02*
X0001837834Y0000709074D01*
X0001770905Y0000709074D02*
X0001770905Y0000748444D01*
X0001851771Y0000494606D02*
X0001851771Y0000537913D01*
X0001776968Y0000494606D02*
X0001776968Y0000537913D01*
X0001849803Y0000409960D02*
X0001778937Y0000409960D01*
D50*
X0002172802Y0000390949D02*
X0002172802Y0000430319D01*
X0002131557Y0000394699D02*
X0002133432Y0000392824D01*
X0002139056Y0000390949D01*
X0002142806Y0000390949D01*
X0002148430Y0000392824D01*
X0002152180Y0000396573D01*
X0002154055Y0000400323D01*
X0002155929Y0000407822D01*
X0002155929Y0000413446D01*
X0002154055Y0000420945D01*
X0002152180Y0000424695D01*
X0002148430Y0000428444D01*
X0002142806Y0000430319D01*
X0002139056Y0000430319D01*
X0002133432Y0000428444D01*
X0002131557Y0000426570D01*
X0002094062Y0000390949D02*
X0002116559Y0000390949D01*
X0002105311Y0000390949D02*
X0002105311Y0000430319D01*
X0002109060Y0000424695D01*
X0002112810Y0000420945D01*
X0002116559Y0000419071D01*
X0002227802Y0000955339D02*
X0002227802Y0000994709D01*
X0002186557Y0000959088D02*
X0002188432Y0000957214D01*
X0002194056Y0000955339D01*
X0002197806Y0000955339D01*
X0002203430Y0000957214D01*
X0002207180Y0000960963D01*
X0002209055Y0000964713D01*
X0002210929Y0000972212D01*
X0002210929Y0000977836D01*
X0002209055Y0000985335D01*
X0002207180Y0000989085D01*
X0002203430Y0000992834D01*
X0002197806Y0000994709D01*
X0002194056Y0000994709D01*
X0002188432Y0000992834D01*
X0002186557Y0000990959D01*
X0002171559Y0000990959D02*
X0002169685Y0000992834D01*
X0002165935Y0000994709D01*
X0002156561Y0000994709D01*
X0002152812Y0000992834D01*
X0002150937Y0000990959D01*
X0002149062Y0000987210D01*
X0002149062Y0000983460D01*
X0002150937Y0000977836D01*
X0002173434Y0000955339D01*
X0002149062Y0000955339D01*
X0002400930Y0000260321D02*
X0002402805Y0000262196D01*
X0002404680Y0000267820D01*
X0002404680Y0000271570D01*
X0002402805Y0000277194D01*
X0002399056Y0000280943D01*
X0002395306Y0000282818D01*
X0002387807Y0000284693D01*
X0002382183Y0000284693D01*
X0002374684Y0000282818D01*
X0002370934Y0000280943D01*
X0002367185Y0000277194D01*
X0002365310Y0000271570D01*
X0002365310Y0000267820D01*
X0002367185Y0000262196D01*
X0002369059Y0000260321D01*
X0002404680Y0000222826D02*
X0002404680Y0000245323D01*
X0002404680Y0000234074D02*
X0002365310Y0000234074D01*
X0002370934Y0000237824D01*
X0002374684Y0000241573D01*
X0002376558Y0000245323D01*
X0001895928Y0000192821D02*
X0001897805Y0000194696D01*
X0001899680Y0000200320D01*
X0001899680Y0000204069D01*
X0001897805Y0000209694D01*
X0001894056Y0000213442D01*
X0001890306Y0000215318D01*
X0001882805Y0000217192D01*
X0001877183Y0000217192D01*
X0001869682Y0000215318D01*
X0001865934Y0000213442D01*
X0001862185Y0000209694D01*
X0001860310Y0000204069D01*
X0001860310Y0000200320D01*
X0001862185Y0000194696D01*
X0001864059Y0000192821D01*
X0001864059Y0000177823D02*
X0001862185Y0000175948D01*
X0001860310Y0000172199D01*
X0001860310Y0000162825D01*
X0001862185Y0000159075D01*
X0001864059Y0000157200D01*
X0001867808Y0000155326D01*
X0001871558Y0000155326D01*
X0001877183Y0000157200D01*
X0001899680Y0000179698D01*
X0001899680Y0000155326D01*
X0002460931Y0000534699D02*
X0002462806Y0000532824D01*
X0002468430Y0000530949D01*
X0002472180Y0000530949D01*
X0002477804Y0000532824D01*
X0002481554Y0000536573D01*
X0002483428Y0000540323D01*
X0002485303Y0000547822D01*
X0002485303Y0000553446D01*
X0002483428Y0000560945D01*
X0002481554Y0000564695D01*
X0002477804Y0000568444D01*
X0002472180Y0000570319D01*
X0002468430Y0000570319D01*
X0002462806Y0000568444D01*
X0002460931Y0000566570D01*
X0002447808Y0000570319D02*
X0002423436Y0000570319D01*
X0002436559Y0000555321D01*
X0002430935Y0000555321D01*
X0002427185Y0000553446D01*
X0002425311Y0000551572D01*
X0002423436Y0000547822D01*
X0002423436Y0000538448D01*
X0002425311Y0000534699D01*
X0002427185Y0000532824D01*
X0002430935Y0000530949D01*
X0002442184Y0000530949D01*
X0002445933Y0000532824D01*
X0002447808Y0000534699D01*
X0002045931Y0000133449D02*
X0002059054Y0000152197D01*
X0002068428Y0000133449D02*
X0002068428Y0000172819D01*
X0002053430Y0000172819D01*
X0002049681Y0000170944D01*
X0002047806Y0000169070D01*
X0002045931Y0000165320D01*
X0002045931Y0000159696D01*
X0002047806Y0000155946D01*
X0002049681Y0000154071D01*
X0002053430Y0000152197D01*
X0002068428Y0000152197D01*
X0002008436Y0000133449D02*
X0002030933Y0000133449D01*
X0002019685Y0000133449D02*
X0002019685Y0000172819D01*
X0002023434Y0000167195D01*
X0002027184Y0000163445D01*
X0002030933Y0000161570D01*
X0001815929Y0000192821D02*
X0001817804Y0000194696D01*
X0001819680Y0000200320D01*
X0001819680Y0000204069D01*
X0001817804Y0000209694D01*
X0001814056Y0000213442D01*
X0001810306Y0000215318D01*
X0001802806Y0000217192D01*
X0001797183Y0000217192D01*
X0001789683Y0000215318D01*
X0001785934Y0000213442D01*
X0001782185Y0000209694D01*
X0001780310Y0000204069D01*
X0001780310Y0000200320D01*
X0001782185Y0000194696D01*
X0001784059Y0000192821D01*
X0001793433Y0000159075D02*
X0001819680Y0000159075D01*
X0001778434Y0000168449D02*
X0001806557Y0000177823D01*
X0001806557Y0000153451D01*
X0001810931Y0000829699D02*
X0001812806Y0000827824D01*
X0001818430Y0000825949D01*
X0001822180Y0000825949D01*
X0001827804Y0000827824D01*
X0001831554Y0000831572D01*
X0001833428Y0000835323D01*
X0001835303Y0000842822D01*
X0001835303Y0000848446D01*
X0001833428Y0000855945D01*
X0001831554Y0000859695D01*
X0001827804Y0000863444D01*
X0001822180Y0000865319D01*
X0001818430Y0000865319D01*
X0001812806Y0000863444D01*
X0001810931Y0000861569D01*
X0001775311Y0000865319D02*
X0001794058Y0000865319D01*
X0001795933Y0000846571D01*
X0001794058Y0000848446D01*
X0001790309Y0000850321D01*
X0001780935Y0000850321D01*
X0001777185Y0000848446D01*
X0001775311Y0000846571D01*
X0001773436Y0000842822D01*
X0001773436Y0000833448D01*
X0001775311Y0000829699D01*
X0001777185Y0000827824D01*
X0001780935Y0000825949D01*
X0001790309Y0000825949D01*
X0001794058Y0000827824D01*
X0001795933Y0000829699D01*
X0001910617Y0000529697D02*
X0001910617Y0000510949D01*
X0001923741Y0000550319D02*
X0001910617Y0000529697D01*
X0001897494Y0000550319D01*
X0001863748Y0000510949D02*
X0001886245Y0000510949D01*
X0001874997Y0000510949D02*
X0001874997Y0000550319D01*
X0001878746Y0000544695D01*
X0001882496Y0000540945D01*
X0001886245Y0000539071D01*
G04 next file*
%LPD*%
G01*
D62*
D63*
X0002693944Y0000905949D02*
X0002693944Y0000945318D01*
X0002677071Y0000907824D02*
X0002671447Y0000905949D01*
X0002662073Y0000905949D01*
X0002658323Y0000907824D01*
X0002656449Y0000909699D01*
X0002654574Y0000913448D01*
X0002654574Y0000917198D01*
X0002656449Y0000920947D01*
X0002658323Y0000922822D01*
X0002662073Y0000924697D01*
X0002669572Y0000926571D01*
X0002673322Y0000928446D01*
X0002675196Y0000930321D01*
X0002677071Y0000934071D01*
X0002677071Y0000937820D01*
X0002675196Y0000941570D01*
X0002673322Y0000943444D01*
X0002669572Y0000945318D01*
X0002660198Y0000945318D01*
X0002654574Y0000943444D01*
X0002637701Y0000905949D02*
X0002637701Y0000945318D01*
X0002622703Y0000945318D01*
X0002618952Y0000943444D01*
X0002617079Y0000941570D01*
X0002615204Y0000937820D01*
X0002615204Y0000932195D01*
X0002617079Y0000928446D01*
X0002618952Y0000926571D01*
X0002622703Y0000924697D01*
X0002637701Y0000924697D01*
D62*
X0002791444Y0000997354D02*
X0002791444Y0001017039D01*
X0002784883Y0001002979D01*
X0002778322Y0001017039D01*
X0002778322Y0000997354D01*
X0002768948Y0000997354D02*
X0002768948Y0001017039D01*
X0002760511Y0000998292D02*
X0002757699Y0000997354D01*
X0002753011Y0000997354D01*
X0002751137Y0000998292D01*
X0002750200Y0000999229D01*
X0002749263Y0001001104D01*
X0002749263Y0001002979D01*
X0002750200Y0001004853D01*
X0002751137Y0001005791D01*
X0002753011Y0001006728D01*
X0002756762Y0001007665D01*
X0002758637Y0001008602D01*
X0002759574Y0001009540D01*
X0002760511Y0001011415D01*
X0002760511Y0001013290D01*
X0002759574Y0001015164D01*
X0002758637Y0001016102D01*
X0002756762Y0001017039D01*
X0002752075Y0001017039D01*
X0002749263Y0001016102D01*
X0002737077Y0001017039D02*
X0002733327Y0001017039D01*
X0002731452Y0001016102D01*
X0002729578Y0001014227D01*
X0002728640Y0001010478D01*
X0002728640Y0001003916D01*
X0002729578Y0001000166D01*
X0002731452Y0000998292D01*
X0002733327Y0000997354D01*
X0002737077Y0000997354D01*
X0002738952Y0000998292D01*
X0002740826Y0001000166D01*
X0002741764Y0001003916D01*
X0002741764Y0001010478D01*
X0002740826Y0001014227D01*
X0002738952Y0001016102D01*
X0002737077Y0001017039D01*
X0002780821Y0001098292D02*
X0002778008Y0001097354D01*
X0002773321Y0001097354D01*
X0002771447Y0001098292D01*
X0002770509Y0001099229D01*
X0002769571Y0001101104D01*
X0002769571Y0001102978D01*
X0002770509Y0001104853D01*
X0002771447Y0001105791D01*
X0002773321Y0001106728D01*
X0002777071Y0001107665D01*
X0002778946Y0001108603D01*
X0002779883Y0001109540D01*
X0002780821Y0001111415D01*
X0002780821Y0001113290D01*
X0002779883Y0001115164D01*
X0002778946Y0001116102D01*
X0002777071Y0001117039D01*
X0002772384Y0001117039D01*
X0002769571Y0001116102D01*
X0002749887Y0001099229D02*
X0002750824Y0001098292D01*
X0002753637Y0001097354D01*
X0002755511Y0001097354D01*
X0002758323Y0001098292D01*
X0002760198Y0001100166D01*
X0002761136Y0001102041D01*
X0002762073Y0001105791D01*
X0002762073Y0001108603D01*
X0002761136Y0001112352D01*
X0002760198Y0001114227D01*
X0002758323Y0001116102D01*
X0002755511Y0001117039D01*
X0002753637Y0001117039D01*
X0002750824Y0001116102D01*
X0002749887Y0001115164D01*
X0002741451Y0001097354D02*
X0002741451Y0001117039D01*
X0002730202Y0001097354D02*
X0002738638Y0001108603D01*
X0002730202Y0001117039D02*
X0002741451Y0001105791D01*
X0002804101Y0001197354D02*
X0002810663Y0001206728D01*
X0002815350Y0001197354D02*
X0002815350Y0001217039D01*
X0002807851Y0001217039D01*
X0002805976Y0001216102D01*
X0002805039Y0001215164D01*
X0002804101Y0001213290D01*
X0002804101Y0001210478D01*
X0002805039Y0001208603D01*
X0002805976Y0001207665D01*
X0002807851Y0001206728D01*
X0002815350Y0001206728D01*
X0002795665Y0001207665D02*
X0002789102Y0001207665D01*
X0002786291Y0001197354D02*
X0002795665Y0001197354D01*
X0002795665Y0001217039D01*
X0002786291Y0001217039D01*
X0002778792Y0001198292D02*
X0002775980Y0001197354D01*
X0002771293Y0001197354D01*
X0002769418Y0001198292D01*
X0002768481Y0001199229D01*
X0002767544Y0001201104D01*
X0002767544Y0001202979D01*
X0002768481Y0001204853D01*
X0002769418Y0001205791D01*
X0002771293Y0001206728D01*
X0002775043Y0001207665D01*
X0002776917Y0001208603D01*
X0002777855Y0001209540D01*
X0002778792Y0001211415D01*
X0002778792Y0001213290D01*
X0002777855Y0001215164D01*
X0002776917Y0001216102D01*
X0002775043Y0001217039D01*
X0002770356Y0001217039D01*
X0002767544Y0001216102D01*
X0002759107Y0001207665D02*
X0002752545Y0001207665D01*
X0002749733Y0001197354D02*
X0002759107Y0001197354D01*
X0002759107Y0001217039D01*
X0002749733Y0001217039D01*
X0002744109Y0001217039D02*
X0002732860Y0001217039D01*
X0002738484Y0001197354D02*
X0002738484Y0001217039D01*
X0002791444Y0001392354D02*
X0002791444Y0001412039D01*
X0002784883Y0001397979D01*
X0002778322Y0001412039D01*
X0002778322Y0001392354D01*
X0002765198Y0001412039D02*
X0002761449Y0001412039D01*
X0002759574Y0001411102D01*
X0002757699Y0001409227D01*
X0002756762Y0001405478D01*
X0002756762Y0001398916D01*
X0002757699Y0001395166D01*
X0002759574Y0001393292D01*
X0002761449Y0001392354D01*
X0002765198Y0001392354D01*
X0002767072Y0001393292D01*
X0002768948Y0001395166D01*
X0002769885Y0001398916D01*
X0002769885Y0001405478D01*
X0002768948Y0001409227D01*
X0002767072Y0001411102D01*
X0002765198Y0001412039D01*
X0002749263Y0001393292D02*
X0002746451Y0001392354D01*
X0002741764Y0001392354D01*
X0002739889Y0001393292D01*
X0002738951Y0001394229D01*
X0002738014Y0001396104D01*
X0002738014Y0001397979D01*
X0002738951Y0001399853D01*
X0002739889Y0001400791D01*
X0002741764Y0001401728D01*
X0002745513Y0001402665D01*
X0002747388Y0001403603D01*
X0002748325Y0001404540D01*
X0002749263Y0001406415D01*
X0002749263Y0001408290D01*
X0002748325Y0001410164D01*
X0002747388Y0001411102D01*
X0002745513Y0001412039D01*
X0002740826Y0001412039D01*
X0002738014Y0001411102D01*
X0002729578Y0001392354D02*
X0002729578Y0001412039D01*
D63*
X0002857795Y0000266043D02*
X0002857795Y0000274901D01*
X0003143228Y0000266043D02*
X0003143228Y0000278838D01*
X0003143228Y0000551476D02*
X0003143228Y0000538681D01*
X0002857795Y0000551476D02*
X0002857795Y0000538681D01*
X0002857795Y0000266043D02*
X0002870589Y0000266043D01*
X0002857795Y0000551476D02*
X0002870589Y0000551476D01*
X0003143228Y0000551476D02*
X0003130433Y0000551476D01*
X0003143228Y0000266043D02*
X0003130433Y0000266043D01*
X0002857795Y0000274901D02*
X0002801692Y0000274901D01*
X0003370472Y0000697559D02*
X0002740550Y0000697559D01*
X0002740550Y0000697559D02*
X0002740550Y0001445590D01*
X0002740550Y0001445590D02*
X0003370472Y0001445590D01*
X0003370472Y0001445590D02*
X0003370472Y0000697559D01*
D64*
X0003222047Y0000356574D02*
X0003222047Y0000395944D01*
X0003288976Y0000395944D02*
X0003288976Y0000356574D01*
X0002714547Y0000286574D02*
X0002714547Y0000325944D01*
X0002781475Y0000325944D02*
X0002781475Y0000286574D01*
X0003255826Y0000632224D02*
X0003295196Y0000632224D01*
X0003295196Y0000565295D02*
X0003255826Y0000565295D01*
X0003064133Y0000185905D02*
X0003016889Y0000185905D01*
X0003016889Y0000116614D02*
X0003064133Y0000116614D01*
X0002632047Y0000286574D02*
X0002632047Y0000325944D01*
X0002698976Y0000325944D02*
X0002698976Y0000286574D01*
X0002703976Y0000748444D02*
X0002703976Y0000709074D01*
X0002637047Y0000709074D02*
X0002637047Y0000748444D01*
X0002717913Y0000494606D02*
X0002717913Y0000537913D01*
X0002643109Y0000494606D02*
X0002643109Y0000537913D01*
X0002715944Y0000409960D02*
X0002645078Y0000409960D01*
D63*
X0003038944Y0000390949D02*
X0003038944Y0000430319D01*
X0002997699Y0000394699D02*
X0002999573Y0000392824D01*
X0003005198Y0000390949D01*
X0003008948Y0000390949D01*
X0003014572Y0000392824D01*
X0003018322Y0000396573D01*
X0003020196Y0000400323D01*
X0003022071Y0000407822D01*
X0003022071Y0000413446D01*
X0003020196Y0000420945D01*
X0003018322Y0000424695D01*
X0003014572Y0000428444D01*
X0003008948Y0000430319D01*
X0003005198Y0000430319D01*
X0002999573Y0000428444D01*
X0002997699Y0000426570D01*
X0002960204Y0000390949D02*
X0002982701Y0000390949D01*
X0002971451Y0000390949D02*
X0002971451Y0000430319D01*
X0002975201Y0000424695D01*
X0002978952Y0000420945D01*
X0002982701Y0000419071D01*
X0003093944Y0000955339D02*
X0003093944Y0000994709D01*
X0003052699Y0000959088D02*
X0003054574Y0000957214D01*
X0003060198Y0000955339D01*
X0003063948Y0000955339D01*
X0003069572Y0000957214D01*
X0003073322Y0000960963D01*
X0003075196Y0000964713D01*
X0003077071Y0000972212D01*
X0003077071Y0000977836D01*
X0003075196Y0000985335D01*
X0003073322Y0000989085D01*
X0003069572Y0000992834D01*
X0003063948Y0000994709D01*
X0003060198Y0000994709D01*
X0003054574Y0000992834D01*
X0003052699Y0000990959D01*
X0003037700Y0000990959D02*
X0003035826Y0000992834D01*
X0003032077Y0000994709D01*
X0003022703Y0000994709D01*
X0003018953Y0000992834D01*
X0003017078Y0000990959D01*
X0003015204Y0000987210D01*
X0003015204Y0000983460D01*
X0003017078Y0000977836D01*
X0003039576Y0000955339D01*
X0003015204Y0000955339D01*
X0003267072Y0000260321D02*
X0003268947Y0000262196D01*
X0003270822Y0000267820D01*
X0003270822Y0000271570D01*
X0003268947Y0000277194D01*
X0003265197Y0000280943D01*
X0003261448Y0000282818D01*
X0003253949Y0000284693D01*
X0003248323Y0000284693D01*
X0003240825Y0000282818D01*
X0003237076Y0000280943D01*
X0003233326Y0000277194D01*
X0003231452Y0000271570D01*
X0003231452Y0000267820D01*
X0003233326Y0000262196D01*
X0003235201Y0000260321D01*
X0003270822Y0000222826D02*
X0003270822Y0000245323D01*
X0003270822Y0000234074D02*
X0003231452Y0000234074D01*
X0003237076Y0000237824D01*
X0003240825Y0000241573D01*
X0003242700Y0000245323D01*
X0002762072Y0000192821D02*
X0002763947Y0000194696D01*
X0002765822Y0000200320D01*
X0002765822Y0000204069D01*
X0002763947Y0000209694D01*
X0002760197Y0000213442D01*
X0002756448Y0000215318D01*
X0002748949Y0000217192D01*
X0002743324Y0000217192D01*
X0002735824Y0000215318D01*
X0002732076Y0000213442D01*
X0002728326Y0000209694D01*
X0002726452Y0000204069D01*
X0002726452Y0000200320D01*
X0002728326Y0000194696D01*
X0002730201Y0000192821D01*
X0002730201Y0000177823D02*
X0002728326Y0000175948D01*
X0002726452Y0000172199D01*
X0002726452Y0000162825D01*
X0002728326Y0000159075D01*
X0002730201Y0000157200D01*
X0002733951Y0000155326D01*
X0002737700Y0000155326D01*
X0002743324Y0000157200D01*
X0002765822Y0000179698D01*
X0002765822Y0000155326D01*
X0003327073Y0000534699D02*
X0003328948Y0000532824D01*
X0003334572Y0000530949D01*
X0003338322Y0000530949D01*
X0003343946Y0000532824D01*
X0003347694Y0000536573D01*
X0003349570Y0000540323D01*
X0003351445Y0000547822D01*
X0003351445Y0000553446D01*
X0003349570Y0000560945D01*
X0003347694Y0000564695D01*
X0003343946Y0000568444D01*
X0003338322Y0000570319D01*
X0003334572Y0000570319D01*
X0003328948Y0000568444D01*
X0003327073Y0000566570D01*
X0003313950Y0000570319D02*
X0003289578Y0000570319D01*
X0003302701Y0000555321D01*
X0003297076Y0000555321D01*
X0003293327Y0000553446D01*
X0003291452Y0000551572D01*
X0003289578Y0000547822D01*
X0003289578Y0000538448D01*
X0003291452Y0000534699D01*
X0003293327Y0000532824D01*
X0003297076Y0000530949D01*
X0003308325Y0000530949D01*
X0003312075Y0000532824D01*
X0003313950Y0000534699D01*
X0002912073Y0000133449D02*
X0002925196Y0000152197D01*
X0002934570Y0000133449D02*
X0002934570Y0000172819D01*
X0002919572Y0000172819D01*
X0002915822Y0000170944D01*
X0002913948Y0000169070D01*
X0002912073Y0000165320D01*
X0002912073Y0000159696D01*
X0002913948Y0000155946D01*
X0002915822Y0000154071D01*
X0002919572Y0000152197D01*
X0002934570Y0000152197D01*
X0002874578Y0000133449D02*
X0002897075Y0000133449D01*
X0002885826Y0000133449D02*
X0002885826Y0000172819D01*
X0002889576Y0000167195D01*
X0002893325Y0000163445D01*
X0002897075Y0000161570D01*
X0002682072Y0000192821D02*
X0002683947Y0000194696D01*
X0002685822Y0000200320D01*
X0002685822Y0000204069D01*
X0002683947Y0000209694D01*
X0002680197Y0000213442D01*
X0002676448Y0000215318D01*
X0002668949Y0000217192D01*
X0002663324Y0000217192D01*
X0002655825Y0000215318D01*
X0002652076Y0000213442D01*
X0002648326Y0000209694D01*
X0002646451Y0000204069D01*
X0002646451Y0000200320D01*
X0002648326Y0000194696D01*
X0002650201Y0000192821D01*
X0002659575Y0000159075D02*
X0002685822Y0000159075D01*
X0002644577Y0000168449D02*
X0002672698Y0000177823D01*
X0002672698Y0000153451D01*
X0002677073Y0000829699D02*
X0002678948Y0000827824D01*
X0002684572Y0000825949D01*
X0002688322Y0000825949D01*
X0002693946Y0000827824D01*
X0002697695Y0000831572D01*
X0002699569Y0000835323D01*
X0002701445Y0000842822D01*
X0002701445Y0000848446D01*
X0002699569Y0000855945D01*
X0002697695Y0000859695D01*
X0002693946Y0000863444D01*
X0002688322Y0000865319D01*
X0002684572Y0000865319D01*
X0002678948Y0000863444D01*
X0002677073Y0000861569D01*
X0002641452Y0000865319D02*
X0002660200Y0000865319D01*
X0002662075Y0000846571D01*
X0002660200Y0000848446D01*
X0002656451Y0000850321D01*
X0002647077Y0000850321D01*
X0002643327Y0000848446D01*
X0002641452Y0000846571D01*
X0002639578Y0000842822D01*
X0002639578Y0000833448D01*
X0002641452Y0000829699D01*
X0002643327Y0000827824D01*
X0002647077Y0000825949D01*
X0002656451Y0000825949D01*
X0002660200Y0000827824D01*
X0002662075Y0000829699D01*
X0002776759Y0000529697D02*
X0002776759Y0000510949D01*
X0002789881Y0000550319D02*
X0002776759Y0000529697D01*
X0002763635Y0000550319D01*
X0002729890Y0000510949D02*
X0002752387Y0000510949D01*
X0002741137Y0000510949D02*
X0002741137Y0000550319D01*
X0002744888Y0000544695D01*
X0002748637Y0000540945D01*
X0002752387Y0000539071D01*
G01*
D75*
D76*
X0000961660Y0002559492D02*
X0000961660Y0002598862D01*
X0000944788Y0002561367D02*
X0000939163Y0002559492D01*
X0000929790Y0002559492D01*
X0000926040Y0002561367D01*
X0000924165Y0002563242D01*
X0000922290Y0002566991D01*
X0000922290Y0002570741D01*
X0000924165Y0002574490D01*
X0000926040Y0002576364D01*
X0000929790Y0002578240D01*
X0000937289Y0002580115D01*
X0000941038Y0002581990D01*
X0000942913Y0002583864D01*
X0000944788Y0002587614D01*
X0000944788Y0002591363D01*
X0000942913Y0002595113D01*
X0000941038Y0002596988D01*
X0000937289Y0002598862D01*
X0000927915Y0002598862D01*
X0000922290Y0002596988D01*
X0000905418Y0002559492D02*
X0000905418Y0002598862D01*
X0000890419Y0002598862D01*
X0000886670Y0002596988D01*
X0000884794Y0002595113D01*
X0000882920Y0002591363D01*
X0000882920Y0002585739D01*
X0000884794Y0002581990D01*
X0000886670Y0002580115D01*
X0000890419Y0002578240D01*
X0000905418Y0002578240D01*
D75*
X0001059161Y0002650898D02*
X0001059161Y0002670583D01*
X0001052600Y0002656522D01*
X0001046038Y0002670583D01*
X0001046038Y0002650898D01*
X0001036664Y0002650898D02*
X0001036664Y0002670583D01*
X0001028227Y0002651835D02*
X0001025416Y0002650898D01*
X0001020729Y0002650898D01*
X0001018853Y0002651835D01*
X0001017917Y0002652772D01*
X0001016979Y0002654646D01*
X0001016979Y0002656522D01*
X0001017917Y0002658396D01*
X0001018853Y0002659334D01*
X0001020729Y0002660270D01*
X0001024478Y0002661209D01*
X0001026353Y0002662146D01*
X0001027290Y0002663083D01*
X0001028227Y0002664958D01*
X0001028227Y0002666833D01*
X0001027290Y0002668707D01*
X0001026353Y0002669645D01*
X0001024478Y0002670583D01*
X0001019790Y0002670583D01*
X0001016979Y0002669645D01*
X0001004793Y0002670583D02*
X0001001044Y0002670583D01*
X0000999169Y0002669645D01*
X0000997294Y0002667770D01*
X0000996357Y0002664021D01*
X0000996357Y0002657459D01*
X0000997294Y0002653710D01*
X0000999169Y0002651835D01*
X0001001044Y0002650898D01*
X0001004793Y0002650898D01*
X0001006667Y0002651835D01*
X0001008543Y0002653710D01*
X0001009479Y0002657459D01*
X0001009479Y0002664021D01*
X0001008543Y0002667770D01*
X0001006667Y0002669645D01*
X0001004793Y0002670583D01*
X0001048537Y0002751835D02*
X0001045725Y0002750898D01*
X0001041037Y0002750898D01*
X0001039163Y0002751835D01*
X0001038226Y0002752772D01*
X0001037288Y0002754646D01*
X0001037288Y0002756522D01*
X0001038226Y0002758397D01*
X0001039163Y0002759334D01*
X0001041037Y0002760271D01*
X0001044788Y0002761209D01*
X0001046662Y0002762146D01*
X0001047600Y0002763083D01*
X0001048537Y0002764957D01*
X0001048537Y0002766833D01*
X0001047600Y0002768708D01*
X0001046662Y0002769645D01*
X0001044788Y0002770583D01*
X0001040101Y0002770583D01*
X0001037288Y0002769645D01*
X0001017604Y0002752772D02*
X0001018540Y0002751835D01*
X0001021353Y0002750898D01*
X0001023228Y0002750898D01*
X0001026040Y0002751835D01*
X0001027914Y0002753710D01*
X0001028852Y0002755584D01*
X0001029790Y0002759334D01*
X0001029790Y0002762146D01*
X0001028852Y0002765896D01*
X0001027914Y0002767770D01*
X0001026040Y0002769645D01*
X0001023228Y0002770583D01*
X0001021353Y0002770583D01*
X0001018540Y0002769645D01*
X0001017604Y0002768708D01*
X0001009166Y0002750898D02*
X0001009166Y0002770583D01*
X0000997918Y0002750898D02*
X0001006355Y0002762146D01*
X0000997918Y0002770583D02*
X0001009166Y0002759334D01*
X0001071818Y0002850898D02*
X0001078380Y0002860271D01*
X0001083067Y0002850898D02*
X0001083067Y0002870582D01*
X0001075567Y0002870582D01*
X0001073693Y0002869645D01*
X0001072755Y0002868708D01*
X0001071818Y0002866833D01*
X0001071818Y0002864021D01*
X0001072755Y0002862146D01*
X0001073693Y0002861209D01*
X0001075567Y0002860271D01*
X0001083067Y0002860271D01*
X0001063382Y0002861209D02*
X0001056820Y0002861209D01*
X0001054008Y0002850898D02*
X0001063382Y0002850898D01*
X0001063382Y0002870582D01*
X0001054008Y0002870582D01*
X0001046508Y0002851835D02*
X0001043697Y0002850898D01*
X0001039010Y0002850898D01*
X0001037134Y0002851835D01*
X0001036197Y0002852772D01*
X0001035260Y0002854647D01*
X0001035260Y0002856521D01*
X0001036197Y0002858397D01*
X0001037134Y0002859334D01*
X0001039010Y0002860271D01*
X0001042759Y0002861209D01*
X0001044634Y0002862146D01*
X0001045571Y0002863083D01*
X0001046508Y0002864958D01*
X0001046508Y0002866833D01*
X0001045571Y0002868708D01*
X0001044634Y0002869645D01*
X0001042759Y0002870582D01*
X0001038072Y0002870582D01*
X0001035260Y0002869645D01*
X0001026824Y0002861209D02*
X0001020262Y0002861209D01*
X0001017450Y0002850898D02*
X0001026824Y0002850898D01*
X0001026824Y0002870582D01*
X0001017450Y0002870582D01*
X0001011825Y0002870582D02*
X0001000577Y0002870582D01*
X0001006200Y0002850898D02*
X0001006200Y0002870582D01*
X0001059161Y0003045898D02*
X0001059161Y0003065583D01*
X0001052600Y0003051522D01*
X0001046038Y0003065583D01*
X0001046038Y0003045898D01*
X0001032915Y0003065583D02*
X0001029165Y0003065583D01*
X0001027290Y0003064645D01*
X0001025416Y0003062769D01*
X0001024478Y0003059021D01*
X0001024478Y0003052458D01*
X0001025416Y0003048710D01*
X0001027290Y0003046835D01*
X0001029165Y0003045898D01*
X0001032915Y0003045898D01*
X0001034790Y0003046835D01*
X0001036664Y0003048710D01*
X0001037601Y0003052458D01*
X0001037601Y0003059021D01*
X0001036664Y0003062769D01*
X0001034790Y0003064645D01*
X0001032915Y0003065583D01*
X0001016979Y0003046835D02*
X0001014167Y0003045898D01*
X0001009479Y0003045898D01*
X0001007605Y0003046835D01*
X0001006667Y0003047772D01*
X0001005730Y0003049647D01*
X0001005730Y0003051522D01*
X0001006667Y0003053397D01*
X0001007605Y0003054334D01*
X0001009479Y0003055271D01*
X0001013230Y0003056209D01*
X0001015104Y0003057146D01*
X0001016041Y0003058083D01*
X0001016979Y0003059958D01*
X0001016979Y0003061833D01*
X0001016041Y0003063708D01*
X0001015104Y0003064645D01*
X0001013230Y0003065583D01*
X0001008543Y0003065583D01*
X0001005730Y0003064645D01*
X0000997294Y0003045898D02*
X0000997294Y0003065583D01*
D76*
X0001125511Y0001919586D02*
X0001125511Y0001928444D01*
X0001410944Y0001919586D02*
X0001410944Y0001932381D01*
X0001410944Y0002205019D02*
X0001410944Y0002192224D01*
X0001125511Y0002205019D02*
X0001125511Y0002192224D01*
X0001125511Y0001919586D02*
X0001138307Y0001919586D01*
X0001125511Y0002205019D02*
X0001138307Y0002205019D01*
X0001410944Y0002205019D02*
X0001398149Y0002205019D01*
X0001410944Y0001919586D02*
X0001398149Y0001919586D01*
X0001125511Y0001928444D02*
X0001069409Y0001928444D01*
X0001638187Y0002351102D02*
X0001008267Y0002351102D01*
X0001008267Y0002351102D02*
X0001008267Y0003099133D01*
X0001008267Y0003099133D02*
X0001638187Y0003099133D01*
X0001638187Y0003099133D02*
X0001638187Y0002351102D01*
D77*
X0001489763Y0002010117D02*
X0001489763Y0002049488D01*
X0001556692Y0002049488D02*
X0001556692Y0002010117D01*
X0000982263Y0001940118D02*
X0000982263Y0001979488D01*
X0001049192Y0001979488D02*
X0001049192Y0001940118D01*
X0001523543Y0002285767D02*
X0001562913Y0002285767D01*
X0001562913Y0002218838D02*
X0001523543Y0002218838D01*
X0001331850Y0001839448D02*
X0001284606Y0001839448D01*
X0001284606Y0001770157D02*
X0001331850Y0001770157D01*
X0000899763Y0001940118D02*
X0000899763Y0001979488D01*
X0000966692Y0001979488D02*
X0000966692Y0001940118D01*
X0000971692Y0002401988D02*
X0000971692Y0002362618D01*
X0000904763Y0002362618D02*
X0000904763Y0002401988D01*
X0000985629Y0002148149D02*
X0000985629Y0002191456D01*
X0000910826Y0002148149D02*
X0000910826Y0002191456D01*
X0000983661Y0002063502D02*
X0000912795Y0002063502D01*
D76*
X0001306660Y0002044492D02*
X0001306660Y0002083861D01*
X0001265416Y0002048242D02*
X0001267290Y0002046367D01*
X0001272915Y0002044492D01*
X0001276664Y0002044492D01*
X0001282289Y0002046367D01*
X0001286038Y0002050117D01*
X0001287913Y0002053866D01*
X0001289788Y0002061365D01*
X0001289788Y0002066990D01*
X0001287913Y0002074488D01*
X0001286038Y0002078237D01*
X0001282289Y0002081988D01*
X0001276664Y0002083861D01*
X0001272915Y0002083861D01*
X0001267290Y0002081988D01*
X0001265416Y0002080112D01*
X0001227920Y0002044492D02*
X0001250418Y0002044492D01*
X0001239169Y0002044492D02*
X0001239169Y0002083861D01*
X0001242919Y0002078237D01*
X0001246668Y0002074488D01*
X0001250418Y0002072614D01*
X0001361660Y0002608882D02*
X0001361660Y0002648252D01*
X0001320416Y0002612632D02*
X0001322290Y0002610757D01*
X0001327915Y0002608882D01*
X0001331664Y0002608882D01*
X0001337288Y0002610757D01*
X0001341038Y0002614506D01*
X0001342913Y0002618256D01*
X0001344788Y0002625755D01*
X0001344788Y0002631378D01*
X0001342913Y0002638878D01*
X0001341038Y0002642628D01*
X0001337288Y0002646377D01*
X0001331664Y0002648252D01*
X0001327915Y0002648252D01*
X0001322290Y0002646377D01*
X0001320416Y0002644503D01*
X0001305418Y0002644503D02*
X0001303543Y0002646377D01*
X0001299793Y0002648252D01*
X0001290419Y0002648252D01*
X0001286670Y0002646377D01*
X0001284795Y0002644503D01*
X0001282920Y0002640753D01*
X0001282920Y0002637004D01*
X0001284795Y0002631378D01*
X0001307292Y0002608882D01*
X0001282920Y0002608882D01*
X0001534789Y0001913864D02*
X0001536661Y0001915739D01*
X0001538538Y0001921361D01*
X0001538538Y0001925113D01*
X0001536661Y0001930737D01*
X0001532914Y0001934487D01*
X0001529164Y0001936362D01*
X0001521664Y0001938236D01*
X0001516041Y0001938236D01*
X0001508541Y0001936362D01*
X0001504792Y0001934487D01*
X0001501043Y0001930737D01*
X0001499168Y0001925113D01*
X0001499168Y0001921361D01*
X0001501043Y0001915739D01*
X0001502918Y0001913864D01*
X0001538538Y0001876369D02*
X0001538538Y0001898866D01*
X0001538538Y0001887618D02*
X0001499168Y0001887618D01*
X0001504792Y0001891367D01*
X0001508541Y0001895117D01*
X0001510415Y0001898866D01*
X0001029789Y0001846364D02*
X0001031663Y0001848237D01*
X0001033538Y0001853863D01*
X0001033538Y0001857613D01*
X0001031663Y0001863237D01*
X0001027914Y0001866987D01*
X0001024164Y0001868861D01*
X0001016664Y0001870736D01*
X0001011041Y0001870736D01*
X0001003541Y0001868861D01*
X0000999792Y0001866987D01*
X0000996043Y0001863237D01*
X0000994168Y0001857613D01*
X0000994168Y0001853863D01*
X0000996043Y0001848237D01*
X0000997918Y0001846364D01*
X0000997918Y0001831366D02*
X0000996043Y0001829491D01*
X0000994168Y0001825742D01*
X0000994168Y0001816368D01*
X0000996043Y0001812618D01*
X0000997918Y0001810743D01*
X0001001667Y0001808868D01*
X0001005417Y0001808868D01*
X0001011041Y0001810743D01*
X0001033538Y0001833241D01*
X0001033538Y0001808868D01*
X0001594790Y0002188242D02*
X0001596664Y0002186367D01*
X0001602289Y0002184492D01*
X0001606037Y0002184492D01*
X0001611662Y0002186367D01*
X0001615412Y0002190117D01*
X0001617287Y0002193866D01*
X0001619160Y0002201365D01*
X0001619160Y0002206990D01*
X0001617287Y0002214489D01*
X0001615412Y0002218238D01*
X0001611662Y0002221988D01*
X0001606037Y0002223862D01*
X0001602289Y0002223862D01*
X0001596664Y0002221988D01*
X0001594790Y0002220113D01*
X0001581665Y0002223862D02*
X0001557293Y0002223862D01*
X0001570418Y0002208864D01*
X0001564793Y0002208864D01*
X0001561044Y0002206990D01*
X0001559169Y0002205115D01*
X0001557293Y0002201365D01*
X0001557293Y0002191991D01*
X0001559169Y0002188242D01*
X0001561044Y0002186367D01*
X0001564793Y0002184492D01*
X0001576042Y0002184492D01*
X0001579791Y0002186367D01*
X0001581665Y0002188242D01*
X0001179790Y0001786992D02*
X0001192913Y0001805740D01*
X0001202287Y0001786992D02*
X0001202287Y0001826362D01*
X0001187289Y0001826362D01*
X0001183539Y0001824488D01*
X0001181664Y0001822613D01*
X0001179790Y0001818863D01*
X0001179790Y0001813239D01*
X0001181664Y0001809490D01*
X0001183539Y0001807615D01*
X0001187289Y0001805740D01*
X0001202287Y0001805740D01*
X0001142294Y0001786992D02*
X0001164791Y0001786992D01*
X0001153543Y0001786992D02*
X0001153543Y0001826362D01*
X0001157292Y0001820738D01*
X0001161042Y0001816989D01*
X0001164791Y0001815114D01*
X0000949789Y0001846364D02*
X0000951663Y0001848237D01*
X0000953538Y0001853863D01*
X0000953538Y0001857613D01*
X0000951663Y0001863237D01*
X0000947914Y0001866987D01*
X0000944164Y0001868861D01*
X0000936665Y0001870736D01*
X0000931041Y0001870736D01*
X0000923542Y0001868861D01*
X0000919792Y0001866987D01*
X0000916043Y0001863237D01*
X0000914168Y0001857613D01*
X0000914168Y0001853863D01*
X0000916043Y0001848237D01*
X0000917918Y0001846364D01*
X0000927291Y0001812618D02*
X0000953538Y0001812618D01*
X0000912293Y0001821991D02*
X0000940415Y0001831366D01*
X0000940415Y0001806994D01*
X0000944790Y0002483242D02*
X0000946664Y0002481367D01*
X0000952289Y0002479492D01*
X0000956038Y0002479492D01*
X0000961662Y0002481367D01*
X0000965412Y0002485117D01*
X0000967287Y0002488866D01*
X0000969161Y0002496365D01*
X0000969161Y0002501990D01*
X0000967287Y0002509489D01*
X0000965412Y0002513238D01*
X0000961662Y0002516988D01*
X0000956038Y0002518862D01*
X0000952289Y0002518862D01*
X0000946664Y0002516988D01*
X0000944790Y0002515113D01*
X0000909169Y0002518862D02*
X0000927917Y0002518862D01*
X0000929791Y0002500115D01*
X0000927917Y0002501990D01*
X0000924167Y0002503864D01*
X0000914793Y0002503864D01*
X0000911044Y0002501990D01*
X0000909169Y0002500115D01*
X0000907294Y0002496365D01*
X0000907294Y0002486991D01*
X0000909169Y0002483242D01*
X0000911044Y0002481367D01*
X0000914793Y0002479492D01*
X0000924167Y0002479492D01*
X0000927917Y0002481367D01*
X0000929791Y0002483242D01*
X0001044476Y0002183240D02*
X0001044476Y0002164492D01*
X0001057599Y0002203862D02*
X0001044476Y0002183240D01*
X0001031352Y0002203862D01*
X0000997606Y0002164492D02*
X0001020103Y0002164492D01*
X0001008855Y0002164492D02*
X0001008855Y0002203862D01*
X0001012605Y0002198238D01*
X0001016354Y0002194489D01*
X0001020103Y0002192614D01*
G04 next file*
G01*
D88*
D89*
X0001827802Y0002559492D02*
X0001827802Y0002598862D01*
X0001810928Y0002561367D02*
X0001805305Y0002559492D01*
X0001795931Y0002559492D01*
X0001792182Y0002561367D01*
X0001790307Y0002563242D01*
X0001788432Y0002566991D01*
X0001788432Y0002570741D01*
X0001790307Y0002574490D01*
X0001792182Y0002576364D01*
X0001795931Y0002578240D01*
X0001803430Y0002580115D01*
X0001807180Y0002581990D01*
X0001809054Y0002583864D01*
X0001810928Y0002587614D01*
X0001810928Y0002591363D01*
X0001809054Y0002595113D01*
X0001807180Y0002596988D01*
X0001803430Y0002598862D01*
X0001794056Y0002598862D01*
X0001788432Y0002596988D01*
X0001771559Y0002559492D02*
X0001771559Y0002598862D01*
X0001756561Y0002598862D01*
X0001752812Y0002596988D01*
X0001750937Y0002595113D01*
X0001749062Y0002591363D01*
X0001749062Y0002585739D01*
X0001750937Y0002581990D01*
X0001752812Y0002580115D01*
X0001756561Y0002578240D01*
X0001771559Y0002578240D01*
D88*
X0001925301Y0002650898D02*
X0001925301Y0002670583D01*
X0001918742Y0002656522D01*
X0001912178Y0002670583D01*
X0001912178Y0002650898D01*
X0001902806Y0002650898D02*
X0001902806Y0002670583D01*
X0001894370Y0002651835D02*
X0001891557Y0002650898D01*
X0001886869Y0002650898D01*
X0001884996Y0002651835D01*
X0001884058Y0002652772D01*
X0001883121Y0002654646D01*
X0001883121Y0002656522D01*
X0001884058Y0002658396D01*
X0001884996Y0002659334D01*
X0001886869Y0002660270D01*
X0001890620Y0002661209D01*
X0001892495Y0002662146D01*
X0001893432Y0002663083D01*
X0001894370Y0002664958D01*
X0001894370Y0002666833D01*
X0001893432Y0002668707D01*
X0001892495Y0002669645D01*
X0001890620Y0002670583D01*
X0001885932Y0002670583D01*
X0001883121Y0002669645D01*
X0001870935Y0002670583D02*
X0001867185Y0002670583D01*
X0001865311Y0002669645D01*
X0001863436Y0002667770D01*
X0001862497Y0002664021D01*
X0001862497Y0002657459D01*
X0001863436Y0002653710D01*
X0001865311Y0002651835D01*
X0001867185Y0002650898D01*
X0001870935Y0002650898D01*
X0001872809Y0002651835D01*
X0001874683Y0002653710D01*
X0001875620Y0002657459D01*
X0001875620Y0002664021D01*
X0001874683Y0002667770D01*
X0001872809Y0002669645D01*
X0001870935Y0002670583D01*
X0001914679Y0002751835D02*
X0001911867Y0002750898D01*
X0001907180Y0002750898D01*
X0001905305Y0002751835D01*
X0001904368Y0002752772D01*
X0001903430Y0002754646D01*
X0001903430Y0002756522D01*
X0001904368Y0002758397D01*
X0001905305Y0002759334D01*
X0001907180Y0002760271D01*
X0001910929Y0002761209D01*
X0001912804Y0002762146D01*
X0001913742Y0002763083D01*
X0001914679Y0002764957D01*
X0001914679Y0002766833D01*
X0001913742Y0002768708D01*
X0001912804Y0002769645D01*
X0001910929Y0002770583D01*
X0001906242Y0002770583D01*
X0001903430Y0002769645D01*
X0001883745Y0002752772D02*
X0001884683Y0002751835D01*
X0001887495Y0002750898D01*
X0001889370Y0002750898D01*
X0001892182Y0002751835D01*
X0001894057Y0002753710D01*
X0001894994Y0002755584D01*
X0001895931Y0002759334D01*
X0001895931Y0002762146D01*
X0001894994Y0002765896D01*
X0001894057Y0002767770D01*
X0001892182Y0002769645D01*
X0001889370Y0002770583D01*
X0001887495Y0002770583D01*
X0001884683Y0002769645D01*
X0001883745Y0002768708D01*
X0001875309Y0002750898D02*
X0001875309Y0002770583D01*
X0001864060Y0002750898D02*
X0001872497Y0002762146D01*
X0001864060Y0002770583D02*
X0001875309Y0002759334D01*
X0001937960Y0002850898D02*
X0001944521Y0002860271D01*
X0001949208Y0002850898D02*
X0001949208Y0002870582D01*
X0001941709Y0002870582D01*
X0001939834Y0002869645D01*
X0001938897Y0002868708D01*
X0001937960Y0002866833D01*
X0001937960Y0002864021D01*
X0001938897Y0002862146D01*
X0001939834Y0002861209D01*
X0001941709Y0002860271D01*
X0001949208Y0002860271D01*
X0001929523Y0002861209D02*
X0001922962Y0002861209D01*
X0001920149Y0002850898D02*
X0001929523Y0002850898D01*
X0001929523Y0002870582D01*
X0001920149Y0002870582D01*
X0001912650Y0002851835D02*
X0001909837Y0002850898D01*
X0001905151Y0002850898D01*
X0001903277Y0002851835D01*
X0001902339Y0002852772D01*
X0001901402Y0002854647D01*
X0001901402Y0002856521D01*
X0001902339Y0002858397D01*
X0001903277Y0002859334D01*
X0001905151Y0002860271D01*
X0001908899Y0002861209D01*
X0001910776Y0002862146D01*
X0001911713Y0002863083D01*
X0001912650Y0002864958D01*
X0001912650Y0002866833D01*
X0001911713Y0002868708D01*
X0001910776Y0002869645D01*
X0001908899Y0002870582D01*
X0001904214Y0002870582D01*
X0001901402Y0002869645D01*
X0001892965Y0002861209D02*
X0001886404Y0002861209D01*
X0001883590Y0002850898D02*
X0001892965Y0002850898D01*
X0001892965Y0002870582D01*
X0001883590Y0002870582D01*
X0001877967Y0002870582D02*
X0001866719Y0002870582D01*
X0001872343Y0002850898D02*
X0001872343Y0002870582D01*
X0001925301Y0003045898D02*
X0001925301Y0003065583D01*
X0001918742Y0003051522D01*
X0001912178Y0003065583D01*
X0001912178Y0003045898D01*
X0001899055Y0003065583D02*
X0001895307Y0003065583D01*
X0001893432Y0003064645D01*
X0001891557Y0003062769D01*
X0001890620Y0003059021D01*
X0001890620Y0003052458D01*
X0001891557Y0003048710D01*
X0001893432Y0003046835D01*
X0001895307Y0003045898D01*
X0001899055Y0003045898D01*
X0001900929Y0003046835D01*
X0001902806Y0003048710D01*
X0001903743Y0003052458D01*
X0001903743Y0003059021D01*
X0001902806Y0003062769D01*
X0001900929Y0003064645D01*
X0001899055Y0003065583D01*
X0001883121Y0003046835D02*
X0001880309Y0003045898D01*
X0001875620Y0003045898D01*
X0001873746Y0003046835D01*
X0001872809Y0003047772D01*
X0001871872Y0003049647D01*
X0001871872Y0003051522D01*
X0001872809Y0003053397D01*
X0001873746Y0003054334D01*
X0001875620Y0003055271D01*
X0001879371Y0003056209D01*
X0001881246Y0003057146D01*
X0001882184Y0003058083D01*
X0001883121Y0003059958D01*
X0001883121Y0003061833D01*
X0001882184Y0003063708D01*
X0001881246Y0003064645D01*
X0001879371Y0003065583D01*
X0001874683Y0003065583D01*
X0001871872Y0003064645D01*
X0001863436Y0003045898D02*
X0001863436Y0003065583D01*
D89*
X0001991653Y0001919586D02*
X0001991653Y0001928444D01*
X0002277086Y0001919586D02*
X0002277086Y0001932381D01*
X0002277086Y0002205019D02*
X0002277086Y0002192224D01*
X0001991653Y0002205019D02*
X0001991653Y0002192224D01*
X0001991653Y0001919586D02*
X0002004448Y0001919586D01*
X0001991653Y0002205019D02*
X0002004448Y0002205019D01*
X0002277086Y0002205019D02*
X0002264291Y0002205019D01*
X0002277086Y0001919586D02*
X0002264291Y0001919586D01*
X0001991653Y0001928444D02*
X0001935551Y0001928444D01*
X0002504330Y0002351102D02*
X0001874407Y0002351102D01*
X0001874407Y0002351102D02*
X0001874407Y0003099133D01*
X0001874407Y0003099133D02*
X0002504330Y0003099133D01*
X0002504330Y0003099133D02*
X0002504330Y0002351102D01*
D90*
X0002355905Y0002010117D02*
X0002355905Y0002049488D01*
X0002422834Y0002049488D02*
X0002422834Y0002010117D01*
X0001848405Y0001940118D02*
X0001848405Y0001979488D01*
X0001915333Y0001979488D02*
X0001915333Y0001940118D01*
X0002389685Y0002285767D02*
X0002429055Y0002285767D01*
X0002429055Y0002218838D02*
X0002389685Y0002218838D01*
X0002197992Y0001839448D02*
X0002150747Y0001839448D01*
X0002150747Y0001770157D02*
X0002197992Y0001770157D01*
X0001765905Y0001940118D02*
X0001765905Y0001979488D01*
X0001832834Y0001979488D02*
X0001832834Y0001940118D01*
X0001837834Y0002401988D02*
X0001837834Y0002362618D01*
X0001770905Y0002362618D02*
X0001770905Y0002401988D01*
X0001851771Y0002148149D02*
X0001851771Y0002191456D01*
X0001776968Y0002148149D02*
X0001776968Y0002191456D01*
X0001849803Y0002063502D02*
X0001778937Y0002063502D01*
D89*
X0002172802Y0002044492D02*
X0002172802Y0002083861D01*
X0002131557Y0002048242D02*
X0002133432Y0002046367D01*
X0002139056Y0002044492D01*
X0002142806Y0002044492D01*
X0002148430Y0002046367D01*
X0002152180Y0002050117D01*
X0002154055Y0002053866D01*
X0002155929Y0002061365D01*
X0002155929Y0002066990D01*
X0002154055Y0002074488D01*
X0002152180Y0002078237D01*
X0002148430Y0002081988D01*
X0002142806Y0002083861D01*
X0002139056Y0002083861D01*
X0002133432Y0002081988D01*
X0002131557Y0002080112D01*
X0002094062Y0002044492D02*
X0002116559Y0002044492D01*
X0002105311Y0002044492D02*
X0002105311Y0002083861D01*
X0002109060Y0002078237D01*
X0002112810Y0002074488D01*
X0002116559Y0002072614D01*
X0002227802Y0002608882D02*
X0002227802Y0002648252D01*
X0002186557Y0002612632D02*
X0002188432Y0002610757D01*
X0002194056Y0002608882D01*
X0002197806Y0002608882D01*
X0002203430Y0002610757D01*
X0002207180Y0002614506D01*
X0002209055Y0002618256D01*
X0002210929Y0002625755D01*
X0002210929Y0002631378D01*
X0002209055Y0002638878D01*
X0002207180Y0002642628D01*
X0002203430Y0002646377D01*
X0002197806Y0002648252D01*
X0002194056Y0002648252D01*
X0002188432Y0002646377D01*
X0002186557Y0002644503D01*
X0002171559Y0002644503D02*
X0002169685Y0002646377D01*
X0002165935Y0002648252D01*
X0002156561Y0002648252D01*
X0002152812Y0002646377D01*
X0002150937Y0002644503D01*
X0002149062Y0002640753D01*
X0002149062Y0002637004D01*
X0002150937Y0002631378D01*
X0002173434Y0002608882D01*
X0002149062Y0002608882D01*
X0002400930Y0001913864D02*
X0002402805Y0001915739D01*
X0002404680Y0001921361D01*
X0002404680Y0001925113D01*
X0002402805Y0001930737D01*
X0002399056Y0001934487D01*
X0002395306Y0001936362D01*
X0002387807Y0001938236D01*
X0002382183Y0001938236D01*
X0002374684Y0001936362D01*
X0002370934Y0001934487D01*
X0002367185Y0001930737D01*
X0002365310Y0001925113D01*
X0002365310Y0001921361D01*
X0002367185Y0001915739D01*
X0002369059Y0001913864D01*
X0002404680Y0001876369D02*
X0002404680Y0001898866D01*
X0002404680Y0001887618D02*
X0002365310Y0001887618D01*
X0002370934Y0001891367D01*
X0002374684Y0001895117D01*
X0002376558Y0001898866D01*
X0001895928Y0001846364D02*
X0001897805Y0001848237D01*
X0001899680Y0001853863D01*
X0001899680Y0001857613D01*
X0001897805Y0001863237D01*
X0001894056Y0001866987D01*
X0001890306Y0001868861D01*
X0001882805Y0001870736D01*
X0001877183Y0001870736D01*
X0001869682Y0001868861D01*
X0001865934Y0001866987D01*
X0001862185Y0001863237D01*
X0001860310Y0001857613D01*
X0001860310Y0001853863D01*
X0001862185Y0001848237D01*
X0001864059Y0001846364D01*
X0001864059Y0001831366D02*
X0001862185Y0001829491D01*
X0001860310Y0001825742D01*
X0001860310Y0001816368D01*
X0001862185Y0001812618D01*
X0001864059Y0001810743D01*
X0001867808Y0001808868D01*
X0001871558Y0001808868D01*
X0001877183Y0001810743D01*
X0001899680Y0001833241D01*
X0001899680Y0001808868D01*
X0002460931Y0002188242D02*
X0002462806Y0002186367D01*
X0002468430Y0002184492D01*
X0002472180Y0002184492D01*
X0002477804Y0002186367D01*
X0002481554Y0002190117D01*
X0002483428Y0002193866D01*
X0002485303Y0002201365D01*
X0002485303Y0002206990D01*
X0002483428Y0002214489D01*
X0002481554Y0002218238D01*
X0002477804Y0002221988D01*
X0002472180Y0002223862D01*
X0002468430Y0002223862D01*
X0002462806Y0002221988D01*
X0002460931Y0002220113D01*
X0002447808Y0002223862D02*
X0002423436Y0002223862D01*
X0002436559Y0002208864D01*
X0002430935Y0002208864D01*
X0002427185Y0002206990D01*
X0002425311Y0002205115D01*
X0002423436Y0002201365D01*
X0002423436Y0002191991D01*
X0002425311Y0002188242D01*
X0002427185Y0002186367D01*
X0002430935Y0002184492D01*
X0002442184Y0002184492D01*
X0002445933Y0002186367D01*
X0002447808Y0002188242D01*
X0002045931Y0001786992D02*
X0002059054Y0001805740D01*
X0002068428Y0001786992D02*
X0002068428Y0001826362D01*
X0002053430Y0001826362D01*
X0002049681Y0001824488D01*
X0002047806Y0001822613D01*
X0002045931Y0001818863D01*
X0002045931Y0001813239D01*
X0002047806Y0001809490D01*
X0002049681Y0001807615D01*
X0002053430Y0001805740D01*
X0002068428Y0001805740D01*
X0002008436Y0001786992D02*
X0002030933Y0001786992D01*
X0002019685Y0001786992D02*
X0002019685Y0001826362D01*
X0002023434Y0001820738D01*
X0002027184Y0001816989D01*
X0002030933Y0001815114D01*
X0001815929Y0001846364D02*
X0001817804Y0001848237D01*
X0001819680Y0001853863D01*
X0001819680Y0001857613D01*
X0001817804Y0001863237D01*
X0001814056Y0001866987D01*
X0001810306Y0001868861D01*
X0001802806Y0001870736D01*
X0001797183Y0001870736D01*
X0001789683Y0001868861D01*
X0001785934Y0001866987D01*
X0001782185Y0001863237D01*
X0001780310Y0001857613D01*
X0001780310Y0001853863D01*
X0001782185Y0001848237D01*
X0001784059Y0001846364D01*
X0001793433Y0001812618D02*
X0001819680Y0001812618D01*
X0001778434Y0001821991D02*
X0001806557Y0001831366D01*
X0001806557Y0001806994D01*
X0001810931Y0002483242D02*
X0001812806Y0002481367D01*
X0001818430Y0002479492D01*
X0001822180Y0002479492D01*
X0001827804Y0002481367D01*
X0001831554Y0002485117D01*
X0001833428Y0002488866D01*
X0001835303Y0002496365D01*
X0001835303Y0002501990D01*
X0001833428Y0002509489D01*
X0001831554Y0002513238D01*
X0001827804Y0002516988D01*
X0001822180Y0002518862D01*
X0001818430Y0002518862D01*
X0001812806Y0002516988D01*
X0001810931Y0002515113D01*
X0001775311Y0002518862D02*
X0001794058Y0002518862D01*
X0001795933Y0002500115D01*
X0001794058Y0002501990D01*
X0001790309Y0002503864D01*
X0001780935Y0002503864D01*
X0001777185Y0002501990D01*
X0001775311Y0002500115D01*
X0001773436Y0002496365D01*
X0001773436Y0002486991D01*
X0001775311Y0002483242D01*
X0001777185Y0002481367D01*
X0001780935Y0002479492D01*
X0001790309Y0002479492D01*
X0001794058Y0002481367D01*
X0001795933Y0002483242D01*
X0001910617Y0002183240D02*
X0001910617Y0002164492D01*
X0001923741Y0002203862D02*
X0001910617Y0002183240D01*
X0001897494Y0002203862D01*
X0001863748Y0002164492D02*
X0001886245Y0002164492D01*
X0001874997Y0002164492D02*
X0001874997Y0002203862D01*
X0001878746Y0002198238D01*
X0001882496Y0002194489D01*
X0001886245Y0002192614D01*
G04 next file*
G04 #@! TF.FileFunction,Legend,Bot*
G04 Gerber Fmt 4.6, Leading zero omitted, Abs format (unit mm)*
G04 Created by KiCad (PCBNEW 4.0.2-stable) date 13.05.2017 08:24:33*
G01*
G04 APERTURE LIST*
G04 APERTURE END LIST*
D101*
D102*
X0002693944Y0002559492D02*
X0002693944Y0002598862D01*
X0002677071Y0002561367D02*
X0002671447Y0002559492D01*
X0002662073Y0002559492D01*
X0002658323Y0002561367D01*
X0002656449Y0002563242D01*
X0002654574Y0002566991D01*
X0002654574Y0002570741D01*
X0002656449Y0002574490D01*
X0002658323Y0002576364D01*
X0002662073Y0002578240D01*
X0002669572Y0002580115D01*
X0002673322Y0002581990D01*
X0002675196Y0002583864D01*
X0002677071Y0002587614D01*
X0002677071Y0002591363D01*
X0002675196Y0002595113D01*
X0002673322Y0002596988D01*
X0002669572Y0002598862D01*
X0002660198Y0002598862D01*
X0002654574Y0002596988D01*
X0002637701Y0002559492D02*
X0002637701Y0002598862D01*
X0002622703Y0002598862D01*
X0002618952Y0002596988D01*
X0002617079Y0002595113D01*
X0002615204Y0002591363D01*
X0002615204Y0002585739D01*
X0002617079Y0002581990D01*
X0002618952Y0002580115D01*
X0002622703Y0002578240D01*
X0002637701Y0002578240D01*
D101*
X0002791444Y0002650898D02*
X0002791444Y0002670583D01*
X0002784883Y0002656522D01*
X0002778322Y0002670583D01*
X0002778322Y0002650898D01*
X0002768948Y0002650898D02*
X0002768948Y0002670583D01*
X0002760511Y0002651835D02*
X0002757699Y0002650898D01*
X0002753011Y0002650898D01*
X0002751137Y0002651835D01*
X0002750200Y0002652772D01*
X0002749263Y0002654646D01*
X0002749263Y0002656522D01*
X0002750200Y0002658396D01*
X0002751137Y0002659334D01*
X0002753011Y0002660270D01*
X0002756762Y0002661209D01*
X0002758637Y0002662146D01*
X0002759574Y0002663083D01*
X0002760511Y0002664958D01*
X0002760511Y0002666833D01*
X0002759574Y0002668707D01*
X0002758637Y0002669645D01*
X0002756762Y0002670583D01*
X0002752075Y0002670583D01*
X0002749263Y0002669645D01*
X0002737077Y0002670583D02*
X0002733327Y0002670583D01*
X0002731452Y0002669645D01*
X0002729578Y0002667770D01*
X0002728640Y0002664021D01*
X0002728640Y0002657459D01*
X0002729578Y0002653710D01*
X0002731452Y0002651835D01*
X0002733327Y0002650898D01*
X0002737077Y0002650898D01*
X0002738952Y0002651835D01*
X0002740826Y0002653710D01*
X0002741764Y0002657459D01*
X0002741764Y0002664021D01*
X0002740826Y0002667770D01*
X0002738952Y0002669645D01*
X0002737077Y0002670583D01*
X0002780821Y0002751835D02*
X0002778008Y0002750898D01*
X0002773321Y0002750898D01*
X0002771447Y0002751835D01*
X0002770509Y0002752772D01*
X0002769571Y0002754646D01*
X0002769571Y0002756522D01*
X0002770509Y0002758397D01*
X0002771447Y0002759334D01*
X0002773321Y0002760271D01*
X0002777071Y0002761209D01*
X0002778946Y0002762146D01*
X0002779883Y0002763083D01*
X0002780821Y0002764957D01*
X0002780821Y0002766833D01*
X0002779883Y0002768708D01*
X0002778946Y0002769645D01*
X0002777071Y0002770583D01*
X0002772384Y0002770583D01*
X0002769571Y0002769645D01*
X0002749887Y0002752772D02*
X0002750824Y0002751835D01*
X0002753637Y0002750898D01*
X0002755511Y0002750898D01*
X0002758323Y0002751835D01*
X0002760198Y0002753710D01*
X0002761136Y0002755584D01*
X0002762073Y0002759334D01*
X0002762073Y0002762146D01*
X0002761136Y0002765896D01*
X0002760198Y0002767770D01*
X0002758323Y0002769645D01*
X0002755511Y0002770583D01*
X0002753637Y0002770583D01*
X0002750824Y0002769645D01*
X0002749887Y0002768708D01*
X0002741451Y0002750898D02*
X0002741451Y0002770583D01*
X0002730202Y0002750898D02*
X0002738638Y0002762146D01*
X0002730202Y0002770583D02*
X0002741451Y0002759334D01*
X0002804101Y0002850898D02*
X0002810663Y0002860271D01*
X0002815350Y0002850898D02*
X0002815350Y0002870582D01*
X0002807851Y0002870582D01*
X0002805976Y0002869645D01*
X0002805039Y0002868708D01*
X0002804101Y0002866833D01*
X0002804101Y0002864021D01*
X0002805039Y0002862146D01*
X0002805976Y0002861209D01*
X0002807851Y0002860271D01*
X0002815350Y0002860271D01*
X0002795665Y0002861209D02*
X0002789102Y0002861209D01*
X0002786291Y0002850898D02*
X0002795665Y0002850898D01*
X0002795665Y0002870582D01*
X0002786291Y0002870582D01*
X0002778792Y0002851835D02*
X0002775980Y0002850898D01*
X0002771293Y0002850898D01*
X0002769418Y0002851835D01*
X0002768481Y0002852772D01*
X0002767544Y0002854647D01*
X0002767544Y0002856521D01*
X0002768481Y0002858397D01*
X0002769418Y0002859334D01*
X0002771293Y0002860271D01*
X0002775043Y0002861209D01*
X0002776917Y0002862146D01*
X0002777855Y0002863083D01*
X0002778792Y0002864958D01*
X0002778792Y0002866833D01*
X0002777855Y0002868708D01*
X0002776917Y0002869645D01*
X0002775043Y0002870582D01*
X0002770356Y0002870582D01*
X0002767544Y0002869645D01*
X0002759107Y0002861209D02*
X0002752545Y0002861209D01*
X0002749733Y0002850898D02*
X0002759107Y0002850898D01*
X0002759107Y0002870582D01*
X0002749733Y0002870582D01*
X0002744109Y0002870582D02*
X0002732860Y0002870582D01*
X0002738484Y0002850898D02*
X0002738484Y0002870582D01*
X0002791444Y0003045898D02*
X0002791444Y0003065583D01*
X0002784883Y0003051522D01*
X0002778322Y0003065583D01*
X0002778322Y0003045898D01*
X0002765198Y0003065583D02*
X0002761449Y0003065583D01*
X0002759574Y0003064645D01*
X0002757699Y0003062769D01*
X0002756762Y0003059021D01*
X0002756762Y0003052458D01*
X0002757699Y0003048710D01*
X0002759574Y0003046835D01*
X0002761449Y0003045898D01*
X0002765198Y0003045898D01*
X0002767072Y0003046835D01*
X0002768948Y0003048710D01*
X0002769885Y0003052458D01*
X0002769885Y0003059021D01*
X0002768948Y0003062769D01*
X0002767072Y0003064645D01*
X0002765198Y0003065583D01*
X0002749263Y0003046835D02*
X0002746451Y0003045898D01*
X0002741764Y0003045898D01*
X0002739889Y0003046835D01*
X0002738951Y0003047772D01*
X0002738014Y0003049647D01*
X0002738014Y0003051522D01*
X0002738951Y0003053397D01*
X0002739889Y0003054334D01*
X0002741764Y0003055271D01*
X0002745513Y0003056209D01*
X0002747388Y0003057146D01*
X0002748325Y0003058083D01*
X0002749263Y0003059958D01*
X0002749263Y0003061833D01*
X0002748325Y0003063708D01*
X0002747388Y0003064645D01*
X0002745513Y0003065583D01*
X0002740826Y0003065583D01*
X0002738014Y0003064645D01*
X0002729578Y0003045898D02*
X0002729578Y0003065583D01*
D102*
X0002857795Y0001919586D02*
X0002857795Y0001928444D01*
X0003143228Y0001919586D02*
X0003143228Y0001932381D01*
X0003143228Y0002205019D02*
X0003143228Y0002192224D01*
X0002857795Y0002205019D02*
X0002857795Y0002192224D01*
X0002857795Y0001919586D02*
X0002870589Y0001919586D01*
X0002857795Y0002205019D02*
X0002870589Y0002205019D01*
X0003143228Y0002205019D02*
X0003130433Y0002205019D01*
X0003143228Y0001919586D02*
X0003130433Y0001919586D01*
X0002857795Y0001928444D02*
X0002801692Y0001928444D01*
X0003370472Y0002351102D02*
X0002740550Y0002351102D01*
X0002740550Y0002351102D02*
X0002740550Y0003099133D01*
X0002740550Y0003099133D02*
X0003370472Y0003099133D01*
X0003370472Y0003099133D02*
X0003370472Y0002351102D01*
D103*
X0003222047Y0002010117D02*
X0003222047Y0002049488D01*
X0003288976Y0002049488D02*
X0003288976Y0002010117D01*
X0002714547Y0001940118D02*
X0002714547Y0001979488D01*
X0002781475Y0001979488D02*
X0002781475Y0001940118D01*
X0003255826Y0002285767D02*
X0003295196Y0002285767D01*
X0003295196Y0002218838D02*
X0003255826Y0002218838D01*
X0003064133Y0001839448D02*
X0003016889Y0001839448D01*
X0003016889Y0001770157D02*
X0003064133Y0001770157D01*
X0002632047Y0001940118D02*
X0002632047Y0001979488D01*
X0002698976Y0001979488D02*
X0002698976Y0001940118D01*
X0002703976Y0002401988D02*
X0002703976Y0002362618D01*
X0002637047Y0002362618D02*
X0002637047Y0002401988D01*
X0002717913Y0002148149D02*
X0002717913Y0002191456D01*
X0002643109Y0002148149D02*
X0002643109Y0002191456D01*
X0002715944Y0002063502D02*
X0002645078Y0002063502D01*
D102*
X0003038944Y0002044492D02*
X0003038944Y0002083861D01*
X0002997699Y0002048242D02*
X0002999573Y0002046367D01*
X0003005198Y0002044492D01*
X0003008948Y0002044492D01*
X0003014572Y0002046367D01*
X0003018322Y0002050117D01*
X0003020196Y0002053866D01*
X0003022071Y0002061365D01*
X0003022071Y0002066990D01*
X0003020196Y0002074488D01*
X0003018322Y0002078237D01*
X0003014572Y0002081988D01*
X0003008948Y0002083861D01*
X0003005198Y0002083861D01*
X0002999573Y0002081988D01*
X0002997699Y0002080112D01*
X0002960204Y0002044492D02*
X0002982701Y0002044492D01*
X0002971451Y0002044492D02*
X0002971451Y0002083861D01*
X0002975201Y0002078237D01*
X0002978952Y0002074488D01*
X0002982701Y0002072614D01*
X0003093944Y0002608882D02*
X0003093944Y0002648252D01*
X0003052699Y0002612632D02*
X0003054574Y0002610757D01*
X0003060198Y0002608882D01*
X0003063948Y0002608882D01*
X0003069572Y0002610757D01*
X0003073322Y0002614506D01*
X0003075196Y0002618256D01*
X0003077071Y0002625755D01*
X0003077071Y0002631378D01*
X0003075196Y0002638878D01*
X0003073322Y0002642628D01*
X0003069572Y0002646377D01*
X0003063948Y0002648252D01*
X0003060198Y0002648252D01*
X0003054574Y0002646377D01*
X0003052699Y0002644503D01*
X0003037700Y0002644503D02*
X0003035826Y0002646377D01*
X0003032077Y0002648252D01*
X0003022703Y0002648252D01*
X0003018953Y0002646377D01*
X0003017078Y0002644503D01*
X0003015204Y0002640753D01*
X0003015204Y0002637004D01*
X0003017078Y0002631378D01*
X0003039576Y0002608882D01*
X0003015204Y0002608882D01*
X0003267072Y0001913864D02*
X0003268947Y0001915739D01*
X0003270822Y0001921361D01*
X0003270822Y0001925113D01*
X0003268947Y0001930737D01*
X0003265197Y0001934487D01*
X0003261448Y0001936362D01*
X0003253949Y0001938236D01*
X0003248323Y0001938236D01*
X0003240825Y0001936362D01*
X0003237076Y0001934487D01*
X0003233326Y0001930737D01*
X0003231452Y0001925113D01*
X0003231452Y0001921361D01*
X0003233326Y0001915739D01*
X0003235201Y0001913864D01*
X0003270822Y0001876369D02*
X0003270822Y0001898866D01*
X0003270822Y0001887618D02*
X0003231452Y0001887618D01*
X0003237076Y0001891367D01*
X0003240825Y0001895117D01*
X0003242700Y0001898866D01*
X0002762072Y0001846364D02*
X0002763947Y0001848237D01*
X0002765822Y0001853863D01*
X0002765822Y0001857613D01*
X0002763947Y0001863237D01*
X0002760197Y0001866987D01*
X0002756448Y0001868861D01*
X0002748949Y0001870736D01*
X0002743324Y0001870736D01*
X0002735824Y0001868861D01*
X0002732076Y0001866987D01*
X0002728326Y0001863237D01*
X0002726452Y0001857613D01*
X0002726452Y0001853863D01*
X0002728326Y0001848237D01*
X0002730201Y0001846364D01*
X0002730201Y0001831366D02*
X0002728326Y0001829491D01*
X0002726452Y0001825742D01*
X0002726452Y0001816368D01*
X0002728326Y0001812618D01*
X0002730201Y0001810743D01*
X0002733951Y0001808868D01*
X0002737700Y0001808868D01*
X0002743324Y0001810743D01*
X0002765822Y0001833241D01*
X0002765822Y0001808868D01*
X0003327073Y0002188242D02*
X0003328948Y0002186367D01*
X0003334572Y0002184492D01*
X0003338322Y0002184492D01*
X0003343946Y0002186367D01*
X0003347694Y0002190117D01*
X0003349570Y0002193866D01*
X0003351445Y0002201365D01*
X0003351445Y0002206990D01*
X0003349570Y0002214489D01*
X0003347694Y0002218238D01*
X0003343946Y0002221988D01*
X0003338322Y0002223862D01*
X0003334572Y0002223862D01*
X0003328948Y0002221988D01*
X0003327073Y0002220113D01*
X0003313950Y0002223862D02*
X0003289578Y0002223862D01*
X0003302701Y0002208864D01*
X0003297076Y0002208864D01*
X0003293327Y0002206990D01*
X0003291452Y0002205115D01*
X0003289578Y0002201365D01*
X0003289578Y0002191991D01*
X0003291452Y0002188242D01*
X0003293327Y0002186367D01*
X0003297076Y0002184492D01*
X0003308325Y0002184492D01*
X0003312075Y0002186367D01*
X0003313950Y0002188242D01*
X0002912073Y0001786992D02*
X0002925196Y0001805740D01*
X0002934570Y0001786992D02*
X0002934570Y0001826362D01*
X0002919572Y0001826362D01*
X0002915822Y0001824488D01*
X0002913948Y0001822613D01*
X0002912073Y0001818863D01*
X0002912073Y0001813239D01*
X0002913948Y0001809490D01*
X0002915822Y0001807615D01*
X0002919572Y0001805740D01*
X0002934570Y0001805740D01*
X0002874578Y0001786992D02*
X0002897075Y0001786992D01*
X0002885826Y0001786992D02*
X0002885826Y0001826362D01*
X0002889576Y0001820738D01*
X0002893325Y0001816989D01*
X0002897075Y0001815114D01*
X0002682072Y0001846364D02*
X0002683947Y0001848237D01*
X0002685822Y0001853863D01*
X0002685822Y0001857613D01*
X0002683947Y0001863237D01*
X0002680197Y0001866987D01*
X0002676448Y0001868861D01*
X0002668949Y0001870736D01*
X0002663324Y0001870736D01*
X0002655825Y0001868861D01*
X0002652076Y0001866987D01*
X0002648326Y0001863237D01*
X0002646451Y0001857613D01*
X0002646451Y0001853863D01*
X0002648326Y0001848237D01*
X0002650201Y0001846364D01*
X0002659575Y0001812618D02*
X0002685822Y0001812618D01*
X0002644577Y0001821991D02*
X0002672698Y0001831366D01*
X0002672698Y0001806994D01*
X0002677073Y0002483242D02*
X0002678948Y0002481367D01*
X0002684572Y0002479492D01*
X0002688322Y0002479492D01*
X0002693946Y0002481367D01*
X0002697695Y0002485117D01*
X0002699569Y0002488866D01*
X0002701445Y0002496365D01*
X0002701445Y0002501990D01*
X0002699569Y0002509489D01*
X0002697695Y0002513238D01*
X0002693946Y0002516988D01*
X0002688322Y0002518862D01*
X0002684572Y0002518862D01*
X0002678948Y0002516988D01*
X0002677073Y0002515113D01*
X0002641452Y0002518862D02*
X0002660200Y0002518862D01*
X0002662075Y0002500115D01*
X0002660200Y0002501990D01*
X0002656451Y0002503864D01*
X0002647077Y0002503864D01*
X0002643327Y0002501990D01*
X0002641452Y0002500115D01*
X0002639578Y0002496365D01*
X0002639578Y0002486991D01*
X0002641452Y0002483242D01*
X0002643327Y0002481367D01*
X0002647077Y0002479492D01*
X0002656451Y0002479492D01*
X0002660200Y0002481367D01*
X0002662075Y0002483242D01*
X0002776759Y0002183240D02*
X0002776759Y0002164492D01*
X0002789881Y0002203862D02*
X0002776759Y0002183240D01*
X0002763635Y0002203862D01*
X0002729890Y0002164492D02*
X0002752387Y0002164492D01*
X0002741137Y0002164492D02*
X0002741137Y0002203862D01*
X0002744888Y0002198238D01*
X0002748637Y0002194489D01*
X0002752387Y0002192614D01*
M02*