%MOIN*%
%OFA0B0*%
%FSLAX44Y44*%
%IPPOS*%
%LPD*%
%ADD10C,0*%
D10*
X00025196Y00021431D02*
X00025196Y00021431D01*
X00025196Y00027250D01*
X00025201Y00027312D01*
X00025216Y00027372D01*
X00025239Y00027429D01*
X00025272Y00027482D01*
X00025312Y00027529D01*
X00025359Y00027569D01*
X00025411Y00027601D01*
X00025468Y00027625D01*
X00025528Y00027639D01*
X00025590Y00027644D01*
X00025652Y00027639D01*
X00025712Y00027625D01*
X00025769Y00027601D01*
X00025821Y00027569D01*
X00025868Y00027529D01*
X00025909Y00027482D01*
X00025941Y00027429D01*
X00025964Y00027372D01*
X00025979Y00027312D01*
X00025984Y00027250D01*
X00025984Y00027193D01*
X00025984Y00021489D01*
X00025984Y00021431D01*
X00025979Y00021370D01*
X00025964Y00021310D01*
X00025941Y00021252D01*
X00025909Y00021200D01*
X00025868Y00021153D01*
X00025821Y00021113D01*
X00025769Y00021080D01*
X00025712Y00021057D01*
X00025652Y00021042D01*
X00025590Y00021038D01*
X00025528Y00021042D01*
X00025468Y00021057D01*
X00025411Y00021080D01*
X00025359Y00021113D01*
X00025312Y00021153D01*
X00025272Y00021200D01*
X00025239Y00021252D01*
X00025216Y00021310D01*
X00025201Y00021370D01*
X00025196Y00021431D01*
X00016535Y00032283D02*
X00016535Y00032283D01*
X00008661Y00032283D01*
X00008661Y00029397D01*
X00008661Y00029392D01*
X00008656Y00029330D01*
X00008642Y00029270D01*
X00008618Y00029213D01*
X00008586Y00029160D01*
X00008546Y00029113D01*
X00008499Y00029073D01*
X00008446Y00029041D01*
X00008389Y00029017D01*
X00008329Y00029003D01*
X00008267Y00028998D01*
X00008206Y00029003D01*
X00008146Y00029017D01*
X00008088Y00029041D01*
X00008036Y00029073D01*
X00007989Y00029113D01*
X00007949Y00029160D01*
X00007916Y00029213D01*
X00007893Y00029270D01*
X00007878Y00029330D01*
X00007874Y00029392D01*
X00007874Y00032283D01*
X00000000Y00032283D01*
X00000000Y00016535D01*
X00002796Y00016535D01*
X00002858Y00016530D01*
X00002918Y00016516D01*
X00002975Y00016492D01*
X00003028Y00016460D01*
X00003075Y00016420D01*
X00003115Y00016373D01*
X00003147Y00016320D01*
X00003171Y00016263D01*
X00003185Y00016203D01*
X00003190Y00016141D01*
X00003185Y00016080D01*
X00003171Y00016020D01*
X00003147Y00015962D01*
X00003115Y00015910D01*
X00003075Y00015863D01*
X00003028Y00015823D01*
X00002975Y00015790D01*
X00002918Y00015767D01*
X00002858Y00015752D01*
X00002796Y00015748D01*
X00002733Y00015748D01*
X00000000Y00015748D01*
X00000000Y00000000D01*
X00007874Y00000000D01*
X00007874Y00002760D01*
X00007874Y00002903D01*
X00007878Y00002964D01*
X00007893Y00003024D01*
X00007916Y00003081D01*
X00007949Y00003134D01*
X00007989Y00003181D01*
X00008036Y00003221D01*
X00008088Y00003253D01*
X00008146Y00003277D01*
X00008206Y00003292D01*
X00008267Y00003296D01*
X00008329Y00003292D01*
X00008389Y00003277D01*
X00008446Y00003253D01*
X00008499Y00003221D01*
X00008546Y00003181D01*
X00008586Y00003134D01*
X00008618Y00003081D01*
X00008642Y00003024D01*
X00008656Y00002964D01*
X00008661Y00002903D01*
X00008661Y00000000D01*
X00016535Y00000000D01*
X00016535Y00002728D01*
X00016535Y00002805D01*
X00016540Y00002867D01*
X00016554Y00002927D01*
X00016578Y00002984D01*
X00016610Y00003037D01*
X00016650Y00003084D01*
X00016697Y00003124D01*
X00016750Y00003156D01*
X00016807Y00003180D01*
X00016867Y00003194D01*
X00016929Y00003199D01*
X00016990Y00003194D01*
X00017050Y00003180D01*
X00017107Y00003156D01*
X00017160Y00003124D01*
X00017207Y00003084D01*
X00017247Y00003037D01*
X00017279Y00002984D01*
X00017303Y00002927D01*
X00017317Y00002867D01*
X00017322Y00002805D01*
X00017322Y00000000D01*
X00025196Y00000000D01*
X00025196Y00002702D01*
X00025196Y00002717D01*
X00025201Y00002779D01*
X00025216Y00002839D01*
X00025239Y00002896D01*
X00025272Y00002948D01*
X00025312Y00002995D01*
X00025359Y00003036D01*
X00025411Y00003068D01*
X00025468Y00003091D01*
X00025528Y00003106D01*
X00025590Y00003111D01*
X00025652Y00003106D01*
X00025712Y00003091D01*
X00025769Y00003068D01*
X00025821Y00003036D01*
X00025868Y00002995D01*
X00025909Y00002948D01*
X00025941Y00002896D01*
X00025964Y00002839D01*
X00025979Y00002779D01*
X00025984Y00002717D01*
X00025984Y00000000D01*
X00033858Y00000000D01*
X00033858Y00015748D01*
X00030969Y00015748D01*
X00030869Y00015748D01*
X00030807Y00015752D01*
X00030747Y00015767D01*
X00030690Y00015790D01*
X00030637Y00015823D01*
X00030590Y00015863D01*
X00030550Y00015910D01*
X00030518Y00015962D01*
X00030494Y00016020D01*
X00030480Y00016080D01*
X00030475Y00016141D01*
X00030480Y00016203D01*
X00030494Y00016263D01*
X00030518Y00016320D01*
X00030550Y00016373D01*
X00030590Y00016420D01*
X00030637Y00016460D01*
X00030690Y00016492D01*
X00030747Y00016516D01*
X00030807Y00016530D01*
X00030869Y00016535D01*
X00033858Y00016535D01*
X00033858Y00032283D01*
X00025984Y00032283D01*
X00025984Y00029471D01*
X00025984Y00029413D01*
X00025979Y00029352D01*
X00025964Y00029292D01*
X00025941Y00029235D01*
X00025909Y00029182D01*
X00025868Y00029135D01*
X00025821Y00029095D01*
X00025769Y00029062D01*
X00025712Y00029039D01*
X00025652Y00029024D01*
X00025590Y00029020D01*
X00025528Y00029024D01*
X00025468Y00029039D01*
X00025411Y00029062D01*
X00025359Y00029095D01*
X00025312Y00029135D01*
X00025272Y00029182D01*
X00025239Y00029235D01*
X00025216Y00029292D01*
X00025201Y00029352D01*
X00025196Y00029413D01*
X00025196Y00032283D01*
X00017322Y00032283D01*
X00017322Y00029255D01*
X00017322Y00029224D01*
X00017317Y00029162D01*
X00017303Y00029102D01*
X00017279Y00029045D01*
X00017247Y00028993D01*
X00017207Y00028946D01*
X00017160Y00028906D01*
X00017107Y00028873D01*
X00017050Y00028850D01*
X00016990Y00028835D01*
X00016929Y00028830D01*
X00016867Y00028835D01*
X00016807Y00028850D01*
X00016750Y00028873D01*
X00016697Y00028906D01*
X00016650Y00028946D01*
X00016610Y00028993D01*
X00016578Y00029045D01*
X00016554Y00029102D01*
X00016540Y00029162D01*
X00016535Y00029224D01*
X00016535Y00032283D01*
X00025196Y00012926D02*
X00025196Y00012926D01*
X00025196Y00015748D01*
X00022448Y00015748D01*
X00022421Y00015748D01*
X00022360Y00015752D01*
X00022299Y00015767D01*
X00022242Y00015790D01*
X00022190Y00015823D01*
X00022143Y00015863D01*
X00022103Y00015910D01*
X00022070Y00015962D01*
X00022047Y00016020D01*
X00022032Y00016080D01*
X00022027Y00016141D01*
X00022032Y00016203D01*
X00022047Y00016263D01*
X00022070Y00016320D01*
X00022103Y00016373D01*
X00022143Y00016420D01*
X00022190Y00016460D01*
X00022242Y00016492D01*
X00022299Y00016516D01*
X00022360Y00016530D01*
X00022421Y00016535D01*
X00025196Y00016535D01*
X00025196Y00019268D01*
X00025201Y00019330D01*
X00025216Y00019390D01*
X00025239Y00019447D01*
X00025272Y00019500D01*
X00025312Y00019547D01*
X00025359Y00019587D01*
X00025411Y00019619D01*
X00025468Y00019643D01*
X00025528Y00019657D01*
X00025590Y00019662D01*
X00025652Y00019657D01*
X00025712Y00019643D01*
X00025769Y00019619D01*
X00025821Y00019587D01*
X00025868Y00019547D01*
X00025909Y00019500D01*
X00025941Y00019447D01*
X00025964Y00019390D01*
X00025979Y00019330D01*
X00025984Y00019268D01*
X00025984Y00019211D01*
X00025984Y00016535D01*
X00028762Y00016535D01*
X00028824Y00016530D01*
X00028884Y00016516D01*
X00028941Y00016492D01*
X00028994Y00016460D01*
X00029041Y00016420D01*
X00029081Y00016373D01*
X00029113Y00016320D01*
X00029137Y00016263D01*
X00029151Y00016203D01*
X00029156Y00016141D01*
X00029151Y00016080D01*
X00029137Y00016020D01*
X00029113Y00015962D01*
X00029081Y00015910D01*
X00029041Y00015863D01*
X00028994Y00015823D01*
X00028941Y00015790D01*
X00028884Y00015767D01*
X00028824Y00015752D01*
X00028762Y00015748D01*
X00028662Y00015748D01*
X00025984Y00015748D01*
X00025984Y00012911D01*
X00025979Y00012849D01*
X00025964Y00012789D01*
X00025941Y00012732D01*
X00025909Y00012679D01*
X00025868Y00012632D01*
X00025821Y00012592D01*
X00025769Y00012560D01*
X00025712Y00012536D01*
X00025652Y00012522D01*
X00025590Y00012517D01*
X00025528Y00012522D01*
X00025468Y00012536D01*
X00025411Y00012560D01*
X00025359Y00012592D01*
X00025312Y00012632D01*
X00025272Y00012679D01*
X00025239Y00012732D01*
X00025216Y00012789D01*
X00025201Y00012849D01*
X00025196Y00012911D01*
X00025196Y00012926D01*
X00016535Y00012921D02*
X00016535Y00012921D01*
X00016535Y00015748D01*
X00013699Y00015748D01*
X00013672Y00015748D01*
X00013610Y00015752D01*
X00013550Y00015767D01*
X00013493Y00015790D01*
X00013440Y00015823D01*
X00013393Y00015863D01*
X00013353Y00015910D01*
X00013321Y00015962D01*
X00013297Y00016020D01*
X00013283Y00016080D01*
X00013278Y00016141D01*
X00013283Y00016203D01*
X00013297Y00016263D01*
X00013321Y00016320D01*
X00013353Y00016373D01*
X00013393Y00016420D01*
X00013440Y00016460D01*
X00013493Y00016492D01*
X00013550Y00016516D01*
X00013610Y00016530D01*
X00013672Y00016535D01*
X00016535Y00016535D01*
X00016535Y00019285D01*
X00016535Y00019290D01*
X00016540Y00019351D01*
X00016554Y00019412D01*
X00016578Y00019469D01*
X00016610Y00019521D01*
X00016650Y00019568D01*
X00016697Y00019608D01*
X00016750Y00019641D01*
X00016807Y00019664D01*
X00016867Y00019679D01*
X00016929Y00019684D01*
X00016990Y00019679D01*
X00017050Y00019664D01*
X00017107Y00019641D01*
X00017160Y00019608D01*
X00017207Y00019568D01*
X00017247Y00019521D01*
X00017279Y00019469D01*
X00017303Y00019412D01*
X00017317Y00019351D01*
X00017322Y00019290D01*
X00017322Y00016535D01*
X00020223Y00016535D01*
X00020284Y00016530D01*
X00020344Y00016516D01*
X00020401Y00016492D01*
X00020454Y00016460D01*
X00020501Y00016420D01*
X00020541Y00016373D01*
X00020573Y00016320D01*
X00020597Y00016263D01*
X00020612Y00016203D01*
X00020616Y00016141D01*
X00020612Y00016080D01*
X00020597Y00016020D01*
X00020573Y00015962D01*
X00020541Y00015910D01*
X00020501Y00015863D01*
X00020454Y00015823D01*
X00020401Y00015790D01*
X00020344Y00015767D01*
X00020284Y00015752D01*
X00020223Y00015748D01*
X00020195Y00015748D01*
X00017322Y00015748D01*
X00017322Y00012916D01*
X00017317Y00012854D01*
X00017303Y00012794D01*
X00017279Y00012737D01*
X00017247Y00012684D01*
X00017207Y00012637D01*
X00017160Y00012597D01*
X00017107Y00012565D01*
X00017050Y00012541D01*
X00016990Y00012527D01*
X00016929Y00012522D01*
X00016867Y00012527D01*
X00016807Y00012541D01*
X00016750Y00012565D01*
X00016697Y00012597D01*
X00016650Y00012637D01*
X00016610Y00012684D01*
X00016578Y00012737D01*
X00016554Y00012794D01*
X00016540Y00012854D01*
X00016535Y00012916D01*
X00016535Y00012921D01*
X00007874Y00012794D02*
X00007874Y00012794D01*
X00007874Y00015748D01*
X00005015Y00015748D01*
X00004952Y00015748D01*
X00004890Y00015752D01*
X00004830Y00015767D01*
X00004773Y00015790D01*
X00004720Y00015823D01*
X00004673Y00015863D01*
X00004633Y00015910D01*
X00004601Y00015962D01*
X00004577Y00016020D01*
X00004563Y00016080D01*
X00004558Y00016141D01*
X00004563Y00016203D01*
X00004577Y00016263D01*
X00004601Y00016320D01*
X00004633Y00016373D01*
X00004673Y00016420D01*
X00004720Y00016460D01*
X00004773Y00016492D01*
X00004830Y00016516D01*
X00004890Y00016530D01*
X00004952Y00016535D01*
X00007874Y00016535D01*
X00007874Y00019307D01*
X00007878Y00019368D01*
X00007893Y00019428D01*
X00007916Y00019485D01*
X00007949Y00019538D01*
X00007989Y00019585D01*
X00008036Y00019625D01*
X00008088Y00019658D01*
X00008146Y00019681D01*
X00008206Y00019696D01*
X00008267Y00019700D01*
X00008329Y00019696D01*
X00008389Y00019681D01*
X00008446Y00019658D01*
X00008499Y00019625D01*
X00008546Y00019585D01*
X00008586Y00019538D01*
X00008618Y00019485D01*
X00008642Y00019428D01*
X00008656Y00019368D01*
X00008661Y00019307D01*
X00008661Y00019192D01*
X00008661Y00016535D01*
X00011473Y00016535D01*
X00011535Y00016530D01*
X00011595Y00016516D01*
X00011652Y00016492D01*
X00011705Y00016460D01*
X00011751Y00016420D01*
X00011792Y00016373D01*
X00011824Y00016320D01*
X00011848Y00016263D01*
X00011862Y00016203D01*
X00011867Y00016141D01*
X00011862Y00016080D01*
X00011848Y00016020D01*
X00011824Y00015962D01*
X00011792Y00015910D01*
X00011751Y00015863D01*
X00011705Y00015823D01*
X00011652Y00015790D01*
X00011595Y00015767D01*
X00011535Y00015752D01*
X00011473Y00015748D01*
X00011446Y00015748D01*
X00008661Y00015748D01*
X00008661Y00012835D01*
X00008661Y00012794D01*
X00008656Y00012732D01*
X00008642Y00012672D01*
X00008618Y00012615D01*
X00008586Y00012562D01*
X00008546Y00012515D01*
X00008499Y00012475D01*
X00008446Y00012443D01*
X00008389Y00012419D01*
X00008329Y00012405D01*
X00008267Y00012400D01*
X00008206Y00012405D01*
X00008146Y00012419D01*
X00008088Y00012443D01*
X00008036Y00012475D01*
X00007989Y00012515D01*
X00007949Y00012562D01*
X00007916Y00012615D01*
X00007893Y00012672D01*
X00007878Y00012732D01*
X00007874Y00012794D01*
X00008661Y00021508D02*
X00008661Y00021508D01*
X00008661Y00021393D01*
X00008656Y00021331D01*
X00008642Y00021271D01*
X00008618Y00021214D01*
X00008586Y00021161D01*
X00008546Y00021114D01*
X00008499Y00021074D01*
X00008446Y00021042D01*
X00008389Y00021018D01*
X00008329Y00021004D01*
X00008267Y00020999D01*
X00008206Y00021004D01*
X00008146Y00021018D01*
X00008088Y00021042D01*
X00008036Y00021074D01*
X00007989Y00021114D01*
X00007949Y00021161D01*
X00007916Y00021214D01*
X00007893Y00021271D01*
X00007878Y00021331D01*
X00007874Y00021393D01*
X00007874Y00027170D01*
X00007878Y00027231D01*
X00007893Y00027291D01*
X00007916Y00027348D01*
X00007949Y00027401D01*
X00007989Y00027448D01*
X00008036Y00027488D01*
X00008088Y00027520D01*
X00008146Y00027544D01*
X00008206Y00027558D01*
X00008267Y00027563D01*
X00008329Y00027558D01*
X00008389Y00027544D01*
X00008446Y00027520D01*
X00008499Y00027488D01*
X00008546Y00027448D01*
X00008586Y00027401D01*
X00008618Y00027348D01*
X00008642Y00027291D01*
X00008656Y00027231D01*
X00008661Y00027170D01*
X00008661Y00027165D01*
X00008661Y00021508D01*
X00017322Y00021512D02*
X00017322Y00021512D01*
X00017317Y00021450D01*
X00017303Y00021390D01*
X00017279Y00021333D01*
X00017247Y00021280D01*
X00017207Y00021234D01*
X00017160Y00021193D01*
X00017107Y00021161D01*
X00017050Y00021137D01*
X00016990Y00021123D01*
X00016929Y00021118D01*
X00016867Y00021123D01*
X00016807Y00021137D01*
X00016750Y00021161D01*
X00016697Y00021193D01*
X00016650Y00021234D01*
X00016610Y00021280D01*
X00016578Y00021333D01*
X00016554Y00021390D01*
X00016540Y00021450D01*
X00016535Y00021512D01*
X00016535Y00021517D01*
X00016535Y00027030D01*
X00016540Y00027092D01*
X00016554Y00027152D01*
X00016578Y00027209D01*
X00016610Y00027262D01*
X00016650Y00027308D01*
X00016697Y00027349D01*
X00016750Y00027381D01*
X00016807Y00027405D01*
X00016867Y00027419D01*
X00016929Y00027424D01*
X00016990Y00027419D01*
X00017050Y00027405D01*
X00017107Y00027381D01*
X00017160Y00027349D01*
X00017207Y00027308D01*
X00017247Y00027262D01*
X00017279Y00027209D01*
X00017303Y00027152D01*
X00017317Y00027092D01*
X00017322Y00027030D01*
X00017322Y00026999D01*
X00017322Y00021512D01*
X00025984Y00004929D02*
X00025984Y00004929D01*
X00025979Y00004867D01*
X00025964Y00004807D01*
X00025941Y00004750D01*
X00025909Y00004697D01*
X00025868Y00004650D01*
X00025821Y00004610D01*
X00025769Y00004578D01*
X00025712Y00004554D01*
X00025652Y00004540D01*
X00025590Y00004535D01*
X00025528Y00004540D01*
X00025468Y00004554D01*
X00025411Y00004578D01*
X00025359Y00004610D01*
X00025312Y00004650D01*
X00025272Y00004697D01*
X00025239Y00004750D01*
X00025216Y00004807D01*
X00025201Y00004867D01*
X00025196Y00004929D01*
X00025196Y00004944D01*
X00025196Y00010684D01*
X00025196Y00010699D01*
X00025201Y00010761D01*
X00025216Y00010821D01*
X00025239Y00010878D01*
X00025272Y00010930D01*
X00025312Y00010977D01*
X00025359Y00011018D01*
X00025411Y00011050D01*
X00025468Y00011073D01*
X00025528Y00011088D01*
X00025590Y00011093D01*
X00025652Y00011088D01*
X00025712Y00011073D01*
X00025769Y00011050D01*
X00025821Y00011018D01*
X00025868Y00010977D01*
X00025909Y00010930D01*
X00025941Y00010878D01*
X00025964Y00010821D01*
X00025979Y00010761D01*
X00025984Y00010699D01*
X00025984Y00004929D01*
X00017322Y00004943D02*
X00017322Y00004943D01*
X00017317Y00004881D01*
X00017303Y00004821D01*
X00017279Y00004764D01*
X00017247Y00004711D01*
X00017207Y00004664D01*
X00017160Y00004624D01*
X00017107Y00004592D01*
X00017050Y00004568D01*
X00016990Y00004554D01*
X00016929Y00004549D01*
X00016867Y00004554D01*
X00016807Y00004568D01*
X00016750Y00004592D01*
X00016697Y00004624D01*
X00016650Y00004664D01*
X00016610Y00004711D01*
X00016578Y00004764D01*
X00016554Y00004821D01*
X00016540Y00004881D01*
X00016535Y00004943D01*
X00016535Y00005020D01*
X00016535Y00010689D01*
X00016535Y00010694D01*
X00016540Y00010755D01*
X00016554Y00010815D01*
X00016578Y00010873D01*
X00016610Y00010925D01*
X00016650Y00010972D01*
X00016697Y00011012D01*
X00016750Y00011045D01*
X00016807Y00011068D01*
X00016867Y00011083D01*
X00016929Y00011088D01*
X00016990Y00011083D01*
X00017050Y00011068D01*
X00017107Y00011045D01*
X00017160Y00011012D01*
X00017207Y00010972D01*
X00017247Y00010925D01*
X00017279Y00010873D01*
X00017303Y00010815D01*
X00017317Y00010755D01*
X00017322Y00010694D01*
X00017322Y00004943D01*
X00008661Y00004948D02*
X00008661Y00004948D01*
X00008656Y00004886D01*
X00008642Y00004826D01*
X00008618Y00004769D01*
X00008586Y00004716D01*
X00008546Y00004669D01*
X00008499Y00004629D01*
X00008446Y00004597D01*
X00008389Y00004573D01*
X00008329Y00004559D01*
X00008267Y00004554D01*
X00008206Y00004559D01*
X00008146Y00004573D01*
X00008088Y00004597D01*
X00008036Y00004629D01*
X00007989Y00004669D01*
X00007949Y00004716D01*
X00007916Y00004769D01*
X00007893Y00004826D01*
X00007878Y00004886D01*
X00007874Y00004948D01*
X00007874Y00005090D01*
X00007874Y00010611D01*
X00007878Y00010673D01*
X00007893Y00010733D01*
X00007916Y00010790D01*
X00007949Y00010843D01*
X00007989Y00010890D01*
X00008036Y00010930D01*
X00008088Y00010962D01*
X00008146Y00010986D01*
X00008206Y00011000D01*
X00008267Y00011005D01*
X00008329Y00011000D01*
X00008389Y00010986D01*
X00008446Y00010962D01*
X00008499Y00010930D01*
X00008546Y00010890D01*
X00008586Y00010843D01*
X00008618Y00010790D01*
X00008642Y00010733D01*
X00008656Y00010673D01*
X00008661Y00010611D01*
X00008661Y00010570D01*
X00008661Y00004948D01*
M02*