%
M48
METRIC,000.000
T01C0.40
T02C0.80
T03C1.00
T04C2.20
%
T01
X001385Y022129
X003990Y014129
X004811Y025939
X005177Y004984
X005259Y036099
X005259Y029369
X006021Y029623
X006657Y015144
X006783Y020224
X007164Y004412
X007419Y033687
X007800Y011588
X007963Y004378
X008180Y012986
X008497Y003778
X009831Y012986
X009831Y010319
X009878Y003841
X009959Y031781
X010593Y010953
X012245Y013177
X013007Y010826
X013133Y007652
X013959Y003841
X014421Y037751
X014593Y015272
X015674Y020162
X016753Y013558
X001385Y064129
X003990Y056129
X004811Y067940
X005177Y046985
X005259Y078100
X005259Y071369
X006021Y071623
X006657Y057144
X006783Y062224
X007164Y046413
X007419Y075687
X007800Y053589
X007963Y046378
X008180Y054986
X008497Y045779
X009831Y054986
X009831Y052319
X009878Y045842
X009959Y073782
X010593Y052953
X012245Y055177
X013007Y052827
X013133Y049652
X013959Y045842
X014421Y079751
X014593Y057272
X015674Y062162
X016753Y055558
X023385Y022129
X025990Y014129
X026811Y025939
X027177Y004984
X027259Y036099
X027259Y029369
X028021Y029623
X028657Y015144
X028783Y020224
X029164Y004412
X029419Y033687
X029800Y011588
X029964Y004378
X030181Y012986
X030497Y003778
X031831Y012986
X031831Y010319
X031878Y003841
X031959Y031781
X032593Y010953
X034245Y013177
X035007Y010826
X035133Y007652
X035959Y003841
X036422Y037751
X036593Y015272
X037674Y020162
X038753Y013558
X045385Y022129
X047990Y014129
X048811Y025939
X049178Y004984
X049259Y036099
X049259Y029369
X050021Y029623
X050657Y015144
X050783Y020224
X051164Y004412
X051419Y033687
X051800Y011588
X051964Y004378
X052181Y012986
X052497Y003778
X053831Y012986
X053831Y010319
X053878Y003841
X053959Y031781
X054593Y010953
X056245Y013177
X057007Y010826
X057133Y007652
X057959Y003841
X058422Y037751
X058593Y015272
X059674Y020162
X060753Y013558
X067386Y022129
X069990Y014129
X070811Y025939
X071178Y004984
X071259Y036099
X071259Y029369
X072021Y029623
X072657Y015144
X072783Y020224
X073164Y004412
X073419Y033687
X073800Y011588
X073964Y004378
X074181Y012986
X074497Y003778
X075832Y012986
X075832Y010319
X075878Y003841
X075959Y031781
X076594Y010953
X078245Y013177
X079007Y010826
X079133Y007652
X079959Y003841
X080422Y037751
X080594Y015272
X081674Y020162
X082753Y013558
X023385Y064129
X025990Y056129
X026811Y067940
X027177Y046985
X027259Y078100
X027259Y071369
X028021Y071623
X028657Y057144
X028783Y062224
X029164Y046413
X029419Y075687
X029800Y053589
X029964Y046378
X030181Y054986
X030497Y045779
X031831Y054986
X031831Y052319
X031878Y045842
X031959Y073782
X032593Y052953
X034245Y055177
X035007Y052827
X035133Y049652
X035959Y045842
X036422Y079751
X036593Y057272
X037674Y062162
X038753Y055558
X045385Y064129
X047990Y056129
X048811Y067940
X049178Y046985
X049259Y078100
X049259Y071369
X050021Y071623
X050657Y057144
X050783Y062224
X051164Y046413
X051419Y075687
X051800Y053589
X051964Y046378
X052181Y054986
X052497Y045779
X053831Y054986
X053831Y052319
X053878Y045842
X053959Y073782
X054593Y052953
X056245Y055177
X057007Y052827
X057133Y049652
X057959Y045842
X058422Y079751
X058593Y057272
X059674Y062162
X060753Y055558
X067386Y064129
X069990Y056129
X070811Y067940
X071178Y046985
X071259Y078100
X071259Y071369
X072021Y071623
X072657Y057144
X072783Y062224
X073164Y046413
X073419Y075687
X073800Y053589
X073964Y046378
X074181Y054986
X074497Y045779
X075832Y054986
X075832Y052319
X075878Y045842
X075959Y073782
X076594Y052953
X078245Y055177
X079007Y052827
X079133Y049652
X079959Y045842
X080422Y079751
X080594Y057272
X081674Y062162
X082753Y055558
T02
X001830Y038577
X001830Y080577
X023830Y038577
X045830Y038577
X067830Y038577
X023830Y080577
X045830Y080577
X067830Y080577
T03
X006021Y001239
X008562Y001239
X011102Y001239
X013641Y001239
X016181Y001239
X018658Y011397
X018658Y008858
X018658Y006319
X018658Y003778
X018722Y001239
X006021Y043239
X008562Y043239
X011102Y043239
X013641Y043239
X016181Y043239
X018658Y053397
X018658Y050858
X018658Y048319
X018658Y045779
X018722Y043239
X028021Y001239
X030562Y001239
X033102Y001239
X035641Y001239
X038181Y001239
X040658Y011397
X040658Y008858
X040658Y006319
X040658Y003778
X040722Y001239
X050021Y001239
X052562Y001239
X055102Y001239
X057641Y001239
X060181Y001239
X062658Y011397
X062658Y008858
X062658Y006319
X062658Y003778
X062722Y001239
X072021Y001239
X074562Y001239
X077102Y001239
X079642Y001239
X082181Y001239
X084658Y011397
X084658Y008858
X084658Y006319
X084658Y003778
X084722Y001239
X028021Y043239
X030562Y043239
X033102Y043239
X035641Y043239
X038181Y043239
X040658Y053397
X040658Y050858
X040658Y048319
X040658Y045779
X040722Y043239
X050021Y043239
X052562Y043239
X055102Y043239
X057641Y043239
X060181Y043239
X062658Y053397
X062658Y050858
X062658Y048319
X062658Y045779
X062722Y043239
X072021Y043239
X074562Y043239
X077102Y043239
X079642Y043239
X082181Y043239
X084658Y053397
X084658Y050858
X084658Y048319
X084658Y045779
X084722Y043239
T04
X001957Y001810
X018086Y038259
X001957Y043810
X018086Y080259
X023958Y001810
X040086Y038259
X045958Y001810
X062086Y038259
X067958Y001810
X084086Y038259
X023958Y043810
X040086Y080259
X045958Y043810
X062086Y080259
X067958Y043810
X084086Y080259
M30