%
M48
METRIC,000.000
T01C0.50
%
T01
X022586Y008230
X022586Y007230
X022586Y006230
X022586Y005230
X022586Y004230
X022586Y003230
X020250Y003607
X020250Y004607
X020250Y005607
X020250Y006607
X020250Y007607
X020250Y008607
X022586Y024230
X022586Y023230
X022586Y022230
X022586Y021230
X022586Y020230
X022586Y019230
X020250Y019607
X020250Y020607
X020250Y021607
X020250Y022607
X020250Y023607
X020250Y024607
X022586Y052438
X022586Y051438
X022586Y050438
X022586Y049438
X022586Y048438
X022586Y047438
X020250Y047607
X020250Y048607
X020250Y049607
X020250Y050607
X020250Y051607
X020250Y052607
X022586Y079438
X022586Y078438
X022586Y077438
X022586Y076438
X022586Y075438
X022586Y074438
X020250Y074607
X020250Y075607
X020250Y076607
X020250Y077607
X020250Y078607
X020250Y079607
X012785Y063250
X011785Y063250
X010785Y063250
X009785Y063250
X008785Y063250
X007785Y063250
X007429Y064750
X008429Y064750
X009429Y064750
X010429Y064750
X011429Y064750
X012429Y064750
X007429Y032750
X008429Y032750
X009429Y032750
X010429Y032750
X011429Y032750
X012429Y032750
X011785Y031250
X010785Y031250
X009785Y031250
X008785Y031250
X007785Y031250
X073886Y074563
X073886Y075563
X073886Y076563
X073886Y077563
X073886Y078563
X073886Y079563
X075750Y079178
X075750Y078178
X075750Y077178
X075750Y076178
X075750Y075178
X075750Y074178
X083429Y063750
X084429Y063750
X085429Y063750
X086429Y063750
X087429Y063750
X088429Y063750
X087785Y062250
X086785Y062250
X085785Y062250
X084785Y062250
X083785Y062250
X082785Y062250
X073886Y047563
X073886Y048563
X073886Y049563
X073886Y050563
X073886Y051563
X073886Y052563
X075750Y052178
X075750Y051178
X075750Y050178
X075750Y049178
X075750Y048178
X073886Y019771
X073886Y020771
X073886Y021771
X073886Y022771
X073886Y023771
X073886Y024771
X075750Y024178
X075750Y023178
X075750Y022178
X075750Y021178
X075750Y020178
X075750Y019178
X073886Y003771
X073886Y004771
X073886Y005771
X073886Y006771
X073886Y007771
X073886Y008771
X075750Y008178
X075750Y007178
X075750Y006178
X075750Y005178
X075750Y004178
X075750Y003178
X061965Y034958
X060965Y034958
X059965Y034958
X058965Y034958
X057965Y034958
X056961Y036705
X057961Y036705
X058961Y036705
X059961Y036705
X060961Y036705
X061961Y036705
X034965Y034958
X033965Y034958
X032965Y034958
X031965Y034958
X030965Y034958
X029965Y034958
X029961Y036705
X030961Y036705
X031961Y036705
X032961Y036705
X033961Y036705
X034961Y036705
X082429Y031750
X083429Y031750
X084429Y031750
X085429Y031750
X086429Y031750
X087429Y031750
X087785Y030250
X086785Y030250
X085785Y030250
X084785Y030250
X083785Y030250
X082785Y030250
M30