%
M48
METRIC,000.000
T01C0.50
%
T01
X033329Y034793
X032329Y034793
X031329Y034793
X030329Y034793
X029329Y034793
X028329Y034793
X028321Y036405
X029321Y036405
X030321Y036405
X031321Y036405
X032321Y036405
X033321Y036405
X067329Y034793
X066329Y034793
X065329Y034793
X064329Y034793
X063329Y034793
X062329Y034793
X062321Y036405
X063321Y036405
X064321Y036405
X065321Y036405
X066321Y036405
X067321Y036405
X073249Y003607
X073249Y004607
X073249Y005607
X073249Y006607
X073249Y007607
X074949Y008178
X074949Y007178
X074949Y006178
X074949Y005178
X074949Y004178
X074949Y003178
X073249Y021607
X073249Y022607
X073249Y023607
X073249Y024607
X073249Y025607
X073249Y026607
X074949Y026178
X074949Y025178
X074949Y024178
X074949Y023178
X074949Y022178
X086985Y030250
X085985Y030250
X084985Y030250
X083985Y030250
X082985Y030250
X082629Y031750
X083629Y031750
X084629Y031750
X085629Y031750
X086629Y031750
X087629Y031750
X086985Y063250
X085985Y063250
X084985Y063250
X083985Y063250
X082985Y063250
X082629Y064750
X083629Y064750
X084629Y064750
X085629Y064750
X086629Y064750
X087629Y064750
X073246Y047263
X073246Y048263
X073246Y049263
X073246Y050263
X073246Y051263
X074950Y051178
X074950Y050178
X074950Y049178
X074950Y048178
X074950Y047178
X073246Y073263
X073246Y074263
X073246Y075263
X073246Y076263
X073246Y077263
X074950Y077178
X074950Y076178
X074950Y075178
X074950Y074178
X074950Y073178
X021946Y077138
X021946Y076138
X021946Y075138
X021946Y074138
X021946Y073138
X020250Y072607
X020250Y073607
X020250Y074607
X020250Y075607
X020250Y076607
X020250Y077607
X021946Y050138
X021946Y049138
X021946Y048138
X021946Y047138
X021946Y046138
X020250Y045607
X020250Y046607
X020250Y047607
X020250Y048607
X020250Y049607
X020250Y050607
X021949Y026066
X021949Y025066
X021949Y024066
X021949Y023066
X021949Y022066
X020250Y021607
X020250Y022607
X020250Y023607
X020250Y024607
X020250Y025607
X020250Y026607
X021949Y007066
X021949Y006066
X021949Y005066
X021949Y004066
X021949Y003066
X020250Y002607
X020250Y003607
X020250Y004607
X020250Y005607
X020250Y006607
X020250Y007607
X007429Y063750
X008429Y063750
X009429Y063750
X010429Y063750
X011429Y063750
X012429Y063750
X012785Y062250
X011785Y062250
X010785Y062250
X009785Y062250
X008785Y062250
X007785Y062250
X007429Y031750
X008429Y031750
X009429Y031750
X010429Y031750
X011429Y031750
X012429Y031750
X012785Y030250
X011785Y030250
X010785Y030250
X009785Y030250
X008785Y030250
X007785Y030250
M30