%MOIN*%
%OFA0B0*%
%FSLAX46Y46*%
%IPPOS*%
%LPD*%
%ADD10C,0.0039370078740157488*%
%ADD11R,0.062992125984251982X0.085826771653543313*%
%ADD12R,0.076771653543307089X0.0984251968503937*%
%ADD13R,0.059055118110236227X0.059055118110236227*%
%ADD14R,0.027559055118110236X0.051181102362204731*%
%ADD25C,0.0039370078740157488*%
%ADD26R,0.062992125984251982X0.085826771653543313*%
%ADD27R,0.076771653543307089X0.0984251968503937*%
%ADD28R,0.059055118110236227X0.059055118110236227*%
%ADD29R,0.027559055118110236X0.051181102362204731*%
G01*
D10*
D11*
X-0003700787Y0006181102D02*
X0003075212Y0001589393D03*
X0003075212Y0001950811D03*
X0003240212Y0001590393D03*
X0003240212Y0001951810D03*
X0003406212Y0001590393D03*
X0003406212Y0001951810D03*
X0003573212Y0001590393D03*
X0003573212Y0001951810D03*
D12*
X0003483173Y0001452102D03*
X0003603251Y0001452102D03*
D13*
X0003071212Y0002174062D03*
X0003071212Y0002044141D03*
D14*
X0003033810Y0002252102D03*
X0003108614Y0002252102D03*
D13*
X0003239212Y0002174062D03*
X0003239212Y0002044141D03*
X0003405212Y0002174062D03*
X0003405212Y0002044141D03*
X0003573212Y0002174062D03*
X0003573212Y0002044141D03*
D14*
X0003276614Y0002252102D03*
X0003201811Y0002252102D03*
X0003441614Y0002251102D03*
X0003366811Y0002251102D03*
X0003608614Y0002252102D03*
X0003533811Y0002252102D03*
G04 next file*
G04 #@! TF.FileFunction,Paste,Top*
G04 Gerber Fmt 4.6, Leading zero omitted, Abs format (unit mm)*
G04 Created by KiCad (PCBNEW 4.0.2-stable) date 05.09.2017 20:58:13*
G01*
G04 APERTURE LIST*
G04 APERTURE END LIST*
D25*
D26*
X-0003700787Y0004921259D02*
X0003075212Y0000329551D03*
X0003075212Y0000690968D03*
X0003240212Y0000330551D03*
X0003240212Y0000691968D03*
X0003406212Y0000330551D03*
X0003406212Y0000691968D03*
X0003573212Y0000330551D03*
X0003573212Y0000691968D03*
D27*
X0003483173Y0000192259D03*
X0003603251Y0000192259D03*
D28*
X0003071212Y0000914220D03*
X0003071212Y0000784299D03*
D29*
X0003033810Y0000992259D03*
X0003108614Y0000992259D03*
D28*
X0003239212Y0000914220D03*
X0003239212Y0000784299D03*
X0003405212Y0000914220D03*
X0003405212Y0000784299D03*
X0003573212Y0000914220D03*
X0003573212Y0000784299D03*
D29*
X0003276614Y0000992259D03*
X0003201811Y0000992259D03*
X0003441614Y0000991259D03*
X0003366811Y0000991259D03*
X0003608614Y0000992259D03*
X0003533811Y0000992259D03*
M02*