%MOIN*%
%OFA0B0*%
%FSLAX46Y46*%
%IPPOS*%
%LPD*%
%ADD10C,0.0039370078740157488*%
%ADD11C,0.10236220472440946*%
%ADD12R,0.082677165354330714X0.082677165354330714*%
%ADD13C,0.082677165354330714*%
%ADD14O,0.082677165354330714X0.082677165354330714*%
%ADD15C,0.094488188976377951*%
%ADD26C,0.0039370078740157488*%
%ADD27C,0.10236220472440946*%
%ADD28R,0.082677165354330714X0.082677165354330714*%
%ADD29C,0.082677165354330714*%
%ADD30O,0.082677165354330714X0.082677165354330714*%
%ADD31C,0.094488188976377951*%
%ADD42C,0.0039370078740157488*%
%ADD43C,0.082677165354330714*%
%ADD44O,0.082677165354330714X0.082677165354330714*%
%ADD45C,0.10236220472440946*%
%ADD46R,0.068897637795275593X0.068897637795275593*%
%ADD47O,0.068897637795275593X0.068897637795275593*%
%ADD58C,0.0039370078740157488*%
%ADD59R,0.082677165354330714X0.082677165354330714*%
%ADD60C,0.10236220472440946*%
%ADD71C,0.0039370078740157488*%
%ADD72R,0.082677165354330714X0.082677165354330714*%
%ADD73C,0.10236220472440946*%
%ADD84C,0.0039370078740157488*%
%ADD85R,0.082677165354330714X0.082677165354330714*%
%ADD86C,0.10236220472440946*%
%ADD97C,0.0039370078740157488*%
%ADD98C,0.082677165354330714*%
%ADD99O,0.082677165354330714X0.082677165354330714*%
%ADD100C,0.10236220472440946*%
%ADD101R,0.068897637795275593X0.068897637795275593*%
%ADD102O,0.068897637795275593X0.068897637795275593*%
%ADD113C,0.0039370078740157488*%
%ADD114C,0.082677165354330714*%
%ADD115O,0.082677165354330714X0.082677165354330714*%
%ADD116C,0.10236220472440946*%
%ADD117R,0.068897637795275593X0.068897637795275593*%
%ADD118O,0.068897637795275593X0.068897637795275593*%
%LPD*%
G01*
D10*
D11*
X-0002465984Y-0006660000D02*
X0000949015Y0000744999D03*
D12*
X0001171515Y0000069999D03*
X0001171515Y0000169999D03*
X0001171515Y0000269999D03*
X0001171515Y0000369999D03*
X0001171515Y0000469999D03*
X0001171515Y0000569999D03*
X0001171515Y0000669999D03*
X0001171515Y0000769999D03*
X0001071515Y0000069999D03*
X0001071515Y0000169999D03*
X0001071515Y0000269999D03*
X0001071515Y0000369999D03*
X0001071515Y0000469999D03*
X0001071515Y0000569999D03*
X0001071515Y0000669999D03*
X0001071515Y0000769999D03*
X0000971515Y0000069999D03*
X0000971515Y0000169999D03*
X0000971515Y0000269999D03*
X0000971515Y0000369999D03*
X0000971515Y0000469999D03*
X0000971515Y0000569999D03*
X0002609015Y0000069999D03*
X0002609015Y0000169999D03*
X0002609015Y0000269999D03*
X0002609015Y0000369999D03*
X0002609015Y0000469999D03*
X0002609015Y0000569999D03*
X0002609015Y0000669999D03*
X0002609015Y0000769999D03*
X0002709014Y0000069999D03*
X0002709014Y0000169999D03*
X0002709014Y0000269999D03*
X0002709014Y0000369999D03*
X0002709014Y0000469999D03*
X0002709014Y0000569999D03*
X0002709014Y0000669999D03*
X0002709014Y0000769999D03*
X0002809015Y0000069999D03*
X0002809015Y0000169999D03*
X0002809015Y0000269999D03*
X0002809015Y0000369999D03*
X0002809015Y0000469999D03*
X0002809015Y0000569999D03*
X0002809015Y0000669999D03*
X0002809015Y0000769999D03*
D13*
X0001906515Y0000067499D03*
D14*
X0002006514Y0000067499D03*
X0002106515Y0000067499D03*
X0002206515Y0000067499D03*
D13*
X0002006514Y0000767499D03*
D14*
X0002106515Y0000767499D03*
X0002206515Y0000767499D03*
X0002306515Y0000767499D03*
D13*
X0002406515Y0000769999D03*
D14*
X0002406515Y0000669999D03*
X0002406515Y0000569999D03*
X0002406515Y0000469999D03*
X0002406515Y0000369999D03*
X0002406515Y0000269999D03*
D11*
X0002384015Y0000109999D03*
D15*
X0001009093Y0001092499D03*
X0002768936Y0001092499D03*
G01*
D26*
D27*
X-0002466141Y-0004696850D02*
X0000948858Y0002708149D03*
D28*
X0001171358Y0002033148D03*
X0001171358Y0002133149D03*
X0001171358Y0002233149D03*
X0001171358Y0002333149D03*
X0001171358Y0002433149D03*
X0001171358Y0002533149D03*
X0001171358Y0002633149D03*
X0001171358Y0002733149D03*
X0001071358Y0002033148D03*
X0001071358Y0002133149D03*
X0001071358Y0002233149D03*
X0001071358Y0002333149D03*
X0001071358Y0002433149D03*
X0001071358Y0002533149D03*
X0001071358Y0002633149D03*
X0001071358Y0002733149D03*
X0000971358Y0002033148D03*
X0000971358Y0002133149D03*
X0000971358Y0002233149D03*
X0000971358Y0002333149D03*
X0000971358Y0002433149D03*
X0000971358Y0002533149D03*
X0002608858Y0002033148D03*
X0002608858Y0002133149D03*
X0002608858Y0002233149D03*
X0002608858Y0002333149D03*
X0002608858Y0002433149D03*
X0002608858Y0002533149D03*
X0002608858Y0002633149D03*
X0002608858Y0002733149D03*
X0002708858Y0002033148D03*
X0002708858Y0002133149D03*
X0002708858Y0002233149D03*
X0002708858Y0002333149D03*
X0002708858Y0002433149D03*
X0002708858Y0002533149D03*
X0002708858Y0002633149D03*
X0002708858Y0002733149D03*
X0002808858Y0002033148D03*
X0002808858Y0002133149D03*
X0002808858Y0002233149D03*
X0002808858Y0002333149D03*
X0002808858Y0002433149D03*
X0002808858Y0002533149D03*
X0002808858Y0002633149D03*
X0002808858Y0002733149D03*
D29*
X0001906358Y0002030649D03*
D30*
X0002006358Y0002030649D03*
X0002106358Y0002030649D03*
X0002206358Y0002030649D03*
D29*
X0002006358Y0002730649D03*
D30*
X0002106358Y0002730649D03*
X0002206358Y0002730649D03*
X0002306358Y0002730649D03*
D29*
X0002406358Y0002733149D03*
D30*
X0002406358Y0002633149D03*
X0002406358Y0002533149D03*
X0002406358Y0002433149D03*
X0002406358Y0002333149D03*
X0002406358Y0002233149D03*
D27*
X0002383858Y0002073149D03*
D31*
X0000993937Y0003053149D03*
X0002753779Y0003053149D03*
X0002753779Y0001713149D03*
X0000993937Y0001713149D03*
G01*
D42*
D43*
X-0003732283Y0004921259D02*
X0002995216Y0000548759D03*
D44*
X0002995216Y0000448759D03*
X0002995216Y0000348759D03*
X0002995216Y0000248759D03*
D43*
X0003695216Y0000448759D03*
D44*
X0003695216Y0000348759D03*
X0003695216Y0000248759D03*
X0003695216Y0000148759D03*
D43*
X0003697716Y0000048759D03*
D44*
X0003597716Y0000048759D03*
X0003497716Y0000048759D03*
X0003397716Y0000048759D03*
X0003297716Y0000048759D03*
X0003197716Y0000048759D03*
D45*
X0003037716Y0000071259D03*
X0003347716Y0000201259D03*
D46*
X0003322716Y0000348759D03*
D47*
X0003401456Y0000348759D03*
X0003480196Y0000348759D03*
X0003558935Y0000348759D03*
G01*
D58*
D59*
X-0002157480Y0006771653D02*
X0003692519Y0002421653D03*
X0003592519Y0002421653D03*
X0003692519Y0002321653D03*
X0003592519Y0002321653D03*
D60*
X0003039370Y0001338582D03*
X0003342519Y0001471652D03*
D59*
X0002992519Y0002421653D03*
X0003092519Y0002421653D03*
X0003192519Y0002421653D03*
X0003292519Y0002421653D03*
X0003392519Y0002421653D03*
X0003492519Y0002421653D03*
X0002992519Y0002321653D03*
X0003092519Y0002321653D03*
X0003192519Y0002321653D03*
X0003292519Y0002321653D03*
X0003392519Y0002321653D03*
X0003492519Y0002321653D03*
X0002992519Y0002221653D03*
X0003092519Y0002221653D03*
X0003192519Y0002221653D03*
X0003292519Y0002221653D03*
X0003392519Y0002221653D03*
X0003492519Y0002221653D03*
X0003592519Y0002221653D03*
X0003692519Y0002221653D03*
X0002992519Y0002121653D03*
X0003092519Y0002121653D03*
X0003192519Y0002121653D03*
X0003292519Y0002121653D03*
X0003392519Y0002121653D03*
X0003492519Y0002121653D03*
X0003592519Y0002121653D03*
X0003692519Y0002121653D03*
X0002992519Y0002021653D03*
X0003092519Y0002021653D03*
X0003192519Y0002021653D03*
X0003292519Y0002021653D03*
X0003392519Y0002021653D03*
X0003492519Y0002021653D03*
X0003592519Y0002021653D03*
X0003692519Y0002021653D03*
X0002992519Y0001921653D03*
X0003092519Y0001921653D03*
X0003192519Y0001921653D03*
X0003292519Y0001921653D03*
X0003392519Y0001921653D03*
X0003492519Y0001921653D03*
X0003592519Y0001921653D03*
X0003692519Y0001921653D03*
X0002992519Y0001821653D03*
X0003092519Y0001821653D03*
X0003192519Y0001821653D03*
X0003292519Y0001821653D03*
X0003392519Y0001821653D03*
X0003492519Y0001821653D03*
X0003592519Y0001821653D03*
X0003692519Y0001821653D03*
X0002992519Y0001721653D03*
X0003092519Y0001721653D03*
X0003192519Y0001721653D03*
X0003292519Y0001721653D03*
X0003392519Y0001721653D03*
X0003492519Y0001721653D03*
X0003592519Y0001721653D03*
X0003692519Y0001721653D03*
X0002992519Y0001621653D03*
X0003092519Y0001621653D03*
X0003192519Y0001621653D03*
X0003292519Y0001621653D03*
X0003392519Y0001621653D03*
X0003492519Y0001621653D03*
X0003592519Y0001621653D03*
X0003692519Y0001621653D03*
X0002992519Y0001521653D03*
X0003092519Y0001521653D03*
X0003192519Y0001521653D03*
X0003492519Y0001521653D03*
X0003592519Y0001521653D03*
X0003692519Y0001521653D03*
X0003192519Y0001421653D03*
X0003492519Y0001421653D03*
X0003592519Y0001421653D03*
X0003692519Y0001421653D03*
X0003192519Y0001321653D03*
X0003292519Y0001321653D03*
X0003392519Y0001321653D03*
X0003492519Y0001321653D03*
X0003592519Y0001321653D03*
X0003692519Y0001321653D03*
G04 next file*
%LPD*%
G01*
D71*
D72*
X-0002157480Y0008070866D02*
X0003692519Y0003720866D03*
X0003592519Y0003720866D03*
X0003692519Y0003620866D03*
X0003592519Y0003620866D03*
D73*
X0003039370Y0002637795D03*
X0003342519Y0002770866D03*
D72*
X0002992519Y0003720866D03*
X0003092519Y0003720866D03*
X0003192519Y0003720866D03*
X0003292519Y0003720866D03*
X0003392519Y0003720866D03*
X0003492519Y0003720866D03*
X0002992519Y0003620866D03*
X0003092519Y0003620866D03*
X0003192519Y0003620866D03*
X0003292519Y0003620866D03*
X0003392519Y0003620866D03*
X0003492519Y0003620866D03*
X0002992519Y0003520866D03*
X0003092519Y0003520866D03*
X0003192519Y0003520866D03*
X0003292519Y0003520866D03*
X0003392519Y0003520866D03*
X0003492519Y0003520866D03*
X0003592519Y0003520866D03*
X0003692519Y0003520866D03*
X0002992519Y0003420866D03*
X0003092519Y0003420866D03*
X0003192519Y0003420866D03*
X0003292519Y0003420866D03*
X0003392519Y0003420866D03*
X0003492519Y0003420866D03*
X0003592519Y0003420866D03*
X0003692519Y0003420866D03*
X0002992519Y0003320866D03*
X0003092519Y0003320866D03*
X0003192519Y0003320866D03*
X0003292519Y0003320866D03*
X0003392519Y0003320866D03*
X0003492519Y0003320866D03*
X0003592519Y0003320866D03*
X0003692519Y0003320866D03*
X0002992519Y0003220865D03*
X0003092519Y0003220865D03*
X0003192519Y0003220865D03*
X0003292519Y0003220865D03*
X0003392519Y0003220865D03*
X0003492519Y0003220865D03*
X0003592519Y0003220865D03*
X0003692519Y0003220865D03*
X0002992519Y0003120866D03*
X0003092519Y0003120866D03*
X0003192519Y0003120866D03*
X0003292519Y0003120866D03*
X0003392519Y0003120866D03*
X0003492519Y0003120866D03*
X0003592519Y0003120866D03*
X0003692519Y0003120866D03*
X0002992519Y0003020866D03*
X0003092519Y0003020866D03*
X0003192519Y0003020866D03*
X0003292519Y0003020866D03*
X0003392519Y0003020866D03*
X0003492519Y0003020866D03*
X0003592519Y0003020866D03*
X0003692519Y0003020866D03*
X0002992519Y0002920866D03*
X0003092519Y0002920866D03*
X0003192519Y0002920866D03*
X0003292519Y0002920866D03*
X0003392519Y0002920866D03*
X0003492519Y0002920866D03*
X0003592519Y0002920866D03*
X0003692519Y0002920866D03*
X0002992519Y0002820865D03*
X0003092519Y0002820865D03*
X0003192519Y0002820865D03*
X0003492519Y0002820865D03*
X0003592519Y0002820865D03*
X0003692519Y0002820865D03*
X0003192519Y0002720866D03*
X0003492519Y0002720866D03*
X0003592519Y0002720866D03*
X0003692519Y0002720866D03*
X0003192519Y0002620866D03*
X0003292519Y0002620866D03*
X0003392519Y0002620866D03*
X0003492519Y0002620866D03*
X0003592519Y0002620866D03*
X0003692519Y0002620866D03*
G01*
D84*
D85*
X-0005118110Y0008031496D02*
X0000731889Y0003681496D03*
X0000631889Y0003681496D03*
X0000731889Y0003581496D03*
X0000631889Y0003581496D03*
D86*
X0000078740Y0002598425D03*
X0000381888Y0002731496D03*
D85*
X0000031889Y0003681496D03*
X0000131889Y0003681496D03*
X0000231889Y0003681496D03*
X0000331889Y0003681496D03*
X0000431889Y0003681496D03*
X0000531889Y0003681496D03*
X0000031889Y0003581496D03*
X0000131889Y0003581496D03*
X0000231889Y0003581496D03*
X0000331889Y0003581496D03*
X0000431889Y0003581496D03*
X0000531889Y0003581496D03*
X0000031889Y0003481496D03*
X0000131889Y0003481496D03*
X0000231889Y0003481496D03*
X0000331889Y0003481496D03*
X0000431889Y0003481496D03*
X0000531889Y0003481496D03*
X0000631889Y0003481496D03*
X0000731889Y0003481496D03*
X0000031889Y0003381496D03*
X0000131889Y0003381496D03*
X0000231889Y0003381496D03*
X0000331889Y0003381496D03*
X0000431889Y0003381496D03*
X0000531889Y0003381496D03*
X0000631889Y0003381496D03*
X0000731889Y0003381496D03*
X0000031889Y0003281496D03*
X0000131889Y0003281496D03*
X0000231889Y0003281496D03*
X0000331889Y0003281496D03*
X0000431889Y0003281496D03*
X0000531889Y0003281496D03*
X0000631889Y0003281496D03*
X0000731889Y0003281496D03*
X0000031889Y0003181496D03*
X0000131889Y0003181496D03*
X0000231889Y0003181496D03*
X0000331889Y0003181496D03*
X0000431889Y0003181496D03*
X0000531889Y0003181496D03*
X0000631889Y0003181496D03*
X0000731889Y0003181496D03*
X0000031889Y0003081496D03*
X0000131889Y0003081496D03*
X0000231889Y0003081496D03*
X0000331889Y0003081496D03*
X0000431889Y0003081496D03*
X0000531889Y0003081496D03*
X0000631889Y0003081496D03*
X0000731889Y0003081496D03*
X0000031889Y0002981496D03*
X0000131889Y0002981496D03*
X0000231889Y0002981496D03*
X0000331889Y0002981496D03*
X0000431889Y0002981496D03*
X0000531889Y0002981496D03*
X0000631889Y0002981496D03*
X0000731889Y0002981496D03*
X0000031889Y0002881496D03*
X0000131889Y0002881496D03*
X0000231889Y0002881496D03*
X0000331889Y0002881496D03*
X0000431889Y0002881496D03*
X0000531889Y0002881496D03*
X0000631889Y0002881496D03*
X0000731889Y0002881496D03*
X0000031889Y0002781496D03*
X0000131889Y0002781496D03*
X0000231889Y0002781496D03*
X0000531889Y0002781496D03*
X0000631889Y0002781496D03*
X0000731889Y0002781496D03*
X0000231889Y0002681496D03*
X0000531889Y0002681496D03*
X0000631889Y0002681496D03*
X0000731889Y0002681496D03*
X0000231889Y0002581496D03*
X0000331889Y0002581496D03*
X0000431889Y0002581496D03*
X0000531889Y0002581496D03*
X0000631889Y0002581496D03*
X0000731889Y0002581496D03*
G04 next file*
G01*
D97*
D98*
X-0006692913Y0006181102D02*
X0000034586Y0001808602D03*
D99*
X0000034586Y0001708602D03*
X0000034586Y0001608602D03*
X0000034586Y0001508602D03*
D98*
X0000734586Y0001708602D03*
D99*
X0000734586Y0001608602D03*
X0000734586Y0001508602D03*
X0000734586Y0001408602D03*
D98*
X0000737086Y0001308602D03*
D99*
X0000637086Y0001308602D03*
X0000537086Y0001308602D03*
X0000437086Y0001308602D03*
X0000337086Y0001308602D03*
X0000237086Y0001308602D03*
D100*
X0000077086Y0001331102D03*
X0000387086Y0001461102D03*
D101*
X0000362086Y0001608602D03*
D102*
X0000440826Y0001608602D03*
X0000519566Y0001608602D03*
X0000598307Y0001608602D03*
G04 next file*
G04 #@! TF.FileFunction,Soldermask,Bot*
G04 Gerber Fmt 4.6, Leading zero omitted, Abs format (unit mm)*
G04 Created by KiCad (PCBNEW 4.0.2-stable) date 05.07.2017 20:47:00*
G01*
G04 APERTURE LIST*
G04 APERTURE END LIST*
D113*
D114*
X-0006692913Y0004921259D02*
X0000034586Y0000548759D03*
D115*
X0000034586Y0000448759D03*
X0000034586Y0000348759D03*
X0000034586Y0000248759D03*
D114*
X0000734586Y0000448759D03*
D115*
X0000734586Y0000348759D03*
X0000734586Y0000248759D03*
X0000734586Y0000148759D03*
D114*
X0000737086Y0000048759D03*
D115*
X0000637086Y0000048759D03*
X0000537086Y0000048759D03*
X0000437086Y0000048759D03*
X0000337086Y0000048759D03*
X0000237086Y0000048759D03*
D116*
X0000077086Y0000071259D03*
X0000387086Y0000201259D03*
D117*
X0000362086Y0000348759D03*
D118*
X0000440826Y0000348759D03*
X0000519566Y0000348759D03*
X0000598307Y0000348759D03*
M02*