%MOIN*%
%OFA0B0*%
%FSLAX46Y46*%
%IPPOS*%
%LPD*%
%ADD10C,0.0039370078740157488*%
%ADD11C,0.005905511811023622*%
%ADD12C,0.015748031496062995*%
%ADD23C,0.0039370078740157488*%
%ADD24C,0.005905511811023622*%
%ADD25C,0.015748031496062995*%
%ADD36C,0.0039370078740157488*%
%ADD37C,0.0078740157480314977*%
%ADD38C,0.0047244094488188976*%
%ADD39C,0.0059*%
%ADD40C,0.005905511811023622*%
%ADD51C,0.0039370078740157488*%
%ADD52C,0.0078740157480314977*%
%ADD63C,0.0039370078740157488*%
%ADD64C,0.0078740157480314977*%
%ADD75C,0.0039370078740157488*%
%ADD76C,0.0078740157480314977*%
%ADD87C,0.0039370078740157488*%
%ADD88C,0.0078740157480314977*%
%ADD89C,0.0047244094488188976*%
%ADD90C,0.0059*%
%ADD91C,0.005905511811023622*%
%ADD102C,0.0039370078740157488*%
%ADD103C,0.0078740157480314977*%
%ADD104C,0.0047244094488188976*%
%ADD105C,0.0059*%
%ADD106C,0.005905511811023622*%
%LPD*%
G01*
D10*
X0002186580Y0000111813D02*
X0002186580Y0000135435D01*
X0002192204Y0000135435D01*
X0002195579Y0000134310D01*
X0002197828Y0000132061D01*
X0002198953Y0000129811D01*
X0002200078Y0000125312D01*
X0002200078Y0000121937D01*
X0002198953Y0000117438D01*
X0002197828Y0000115188D01*
X0002195579Y0000112938D01*
X0002192204Y0000111813D01*
X0002186580Y0000111813D01*
X0002207952Y0000135435D02*
X0002223700Y0000135435D01*
X0002213576Y0000111813D01*
X0002096954Y0000124187D02*
X0002100328Y0000123062D01*
X0002101453Y0000121937D01*
X0002102578Y0000119687D01*
X0002102578Y0000116313D01*
X0002101453Y0000114063D01*
X0002100328Y0000112938D01*
X0002098079Y0000111813D01*
X0002089080Y0000111813D01*
X0002089080Y0000135435D01*
X0002096954Y0000135435D01*
X0002099204Y0000134310D01*
X0002100328Y0000133186D01*
X0002101453Y0000130936D01*
X0002101453Y0000128686D01*
X0002100328Y0000126436D01*
X0002099204Y0000125312D01*
X0002096954Y0000124187D01*
X0002089080Y0000124187D01*
X0002125075Y0000111813D02*
X0002111577Y0000111813D01*
X0002118326Y0000111813D02*
X0002118326Y0000135435D01*
X0002116076Y0000132061D01*
X0002113827Y0000129811D01*
X0002111577Y0000128686D01*
X0001975019Y0000135435D02*
X0001982893Y0000111813D01*
X0001990767Y0000135435D01*
X0002012139Y0000114063D02*
X0002011015Y0000112938D01*
X0002007639Y0000111813D01*
X0002005389Y0000111813D01*
X0002002015Y0000112938D01*
X0001999766Y0000115188D01*
X0001998641Y0000117438D01*
X0001997516Y0000121937D01*
X0001997516Y0000125312D01*
X0001998641Y0000129811D01*
X0001999766Y0000132061D01*
X0002002015Y0000134310D01*
X0002005389Y0000135435D01*
X0002007639Y0000135435D01*
X0002011015Y0000134310D01*
X0002012139Y0000133186D01*
X0002035762Y0000114063D02*
X0002034637Y0000112938D01*
X0002031262Y0000111813D01*
X0002029011Y0000111813D01*
X0002025637Y0000112938D01*
X0002023388Y0000115188D01*
X0002022263Y0000117438D01*
X0002021138Y0000121937D01*
X0002021138Y0000125312D01*
X0002022263Y0000129811D01*
X0002023388Y0000132061D01*
X0002025637Y0000134310D01*
X0002029011Y0000135435D01*
X0002031262Y0000135435D01*
X0002034637Y0000134310D01*
X0002035762Y0000133186D01*
X0001891017Y0000134310D02*
X0001888768Y0000135435D01*
X0001885393Y0000135435D01*
X0001882019Y0000134310D01*
X0001879769Y0000132061D01*
X0001878644Y0000129811D01*
X0001877519Y0000125312D01*
X0001877519Y0000121937D01*
X0001878644Y0000117438D01*
X0001879769Y0000115188D01*
X0001882019Y0000112938D01*
X0001885393Y0000111813D01*
X0001887643Y0000111813D01*
X0001891017Y0000112938D01*
X0001892142Y0000114063D01*
X0001892142Y0000121937D01*
X0001887643Y0000121937D01*
X0001902266Y0000111813D02*
X0001902266Y0000135435D01*
X0001915764Y0000111813D01*
X0001915764Y0000135435D01*
X0001927013Y0000111813D02*
X0001927013Y0000135435D01*
X0001932637Y0000135435D01*
X0001936012Y0000134310D01*
X0001938262Y0000132061D01*
X0001939386Y0000129811D01*
X0001940511Y0000125312D01*
X0001940511Y0000121937D01*
X0001939386Y0000117438D01*
X0001938262Y0000115188D01*
X0001936012Y0000112938D01*
X0001932637Y0000111813D01*
X0001927013Y0000111813D01*
X0001943880Y0000413678D02*
X0001943880Y0000390056D01*
X0001943880Y0000401304D02*
X0001930382Y0000401304D01*
X0001930382Y0000413678D02*
X0001930382Y0000390056D01*
X0001919133Y0000413678D02*
X0001919133Y0000390056D01*
X0001911259Y0000406929D01*
X0001903385Y0000390056D01*
X0001903385Y0000413678D01*
X0001893262Y0000412553D02*
X0001889886Y0000413678D01*
X0001884263Y0000413678D01*
X0001882013Y0000412553D01*
X0001880888Y0000411428D01*
X0001879763Y0000409178D01*
X0001879763Y0000406929D01*
X0001880888Y0000404679D01*
X0001882013Y0000403554D01*
X0001884263Y0000402429D01*
X0001888762Y0000401304D01*
X0001891012Y0000400179D01*
X0001892137Y0000399055D01*
X0001893262Y0000396805D01*
X0001893262Y0000394555D01*
X0001892137Y0000392305D01*
X0001891012Y0000391181D01*
X0001888762Y0000390056D01*
X0001883138Y0000390056D01*
X0001879763Y0000391181D01*
X0001860641Y0000412553D02*
X0001862890Y0000413678D01*
X0001867390Y0000413678D01*
X0001869639Y0000412553D01*
X0001870763Y0000410303D01*
X0001870763Y0000401304D01*
X0001869639Y0000399055D01*
X0001867390Y0000397930D01*
X0001862890Y0000397930D01*
X0001860641Y0000399055D01*
X0001859514Y0000401304D01*
X0001859514Y0000403554D01*
X0001870763Y0000405804D01*
X0001849392Y0000397930D02*
X0001849392Y0000413678D01*
X0001849392Y0000400179D02*
X0001848267Y0000399055D01*
X0001846017Y0000397930D01*
X0001842643Y0000397930D01*
X0001840391Y0000399055D01*
X0001839268Y0000401304D01*
X0001839268Y0000413678D01*
X0001829145Y0000412553D02*
X0001826895Y0000413678D01*
X0001822395Y0000413678D01*
X0001820145Y0000412553D01*
X0001819021Y0000410303D01*
X0001819021Y0000409178D01*
X0001820145Y0000406929D01*
X0001822395Y0000405804D01*
X0001825770Y0000405804D01*
X0001828019Y0000404679D01*
X0001829145Y0000402429D01*
X0001829145Y0000401304D01*
X0001828019Y0000399055D01*
X0001825770Y0000397930D01*
X0001822395Y0000397930D01*
X0001820145Y0000399055D01*
X0001805522Y0000413678D02*
X0001807772Y0000412553D01*
X0001808896Y0000411428D01*
X0001810022Y0000409178D01*
X0001810022Y0000402429D01*
X0001808896Y0000400179D01*
X0001807772Y0000399055D01*
X0001805522Y0000397930D01*
X0001802148Y0000397930D01*
X0001799898Y0000399055D01*
X0001798773Y0000400179D01*
X0001797648Y0000402429D01*
X0001797648Y0000409178D01*
X0001798773Y0000411428D01*
X0001799898Y0000412553D01*
X0001802148Y0000413678D01*
X0001805522Y0000413678D01*
X0001787525Y0000413678D02*
X0001787525Y0000397930D01*
X0001787525Y0000402429D02*
X0001786400Y0000400179D01*
X0001785275Y0000399055D01*
X0001783025Y0000397930D01*
X0001780776Y0000397930D01*
X0002016433Y0000443936D02*
X0002005185Y0000443936D01*
X0002018682Y0000450686D02*
X0002010809Y0000427064D01*
X0002002935Y0000450686D01*
X0001996186Y0000443936D02*
X0001984938Y0000443936D01*
X0001998436Y0000450686D02*
X0001990562Y0000427064D01*
X0001982688Y0000450686D01*
X0001975939Y0000443936D02*
X0001964690Y0000443936D01*
X0001978188Y0000450686D02*
X0001970313Y0000427064D01*
X0001962439Y0000450686D01*
X0001936569Y0000450686D02*
X0001936569Y0000427064D01*
X0001936569Y0000438312D02*
X0001923069Y0000438312D01*
X0001923069Y0000450686D02*
X0001923069Y0000427064D01*
X0001908447Y0000450686D02*
X0001910697Y0000449561D01*
X0001911821Y0000448436D01*
X0001912947Y0000446186D01*
X0001912947Y0000439436D01*
X0001911821Y0000437187D01*
X0001910697Y0000436062D01*
X0001908447Y0000434938D01*
X0001905073Y0000434938D01*
X0001902823Y0000436062D01*
X0001901698Y0000437187D01*
X0001900573Y0000439436D01*
X0001900573Y0000446186D01*
X0001901698Y0000448436D01*
X0001902823Y0000449561D01*
X0001905073Y0000450686D01*
X0001908447Y0000450686D01*
X0001887075Y0000450686D02*
X0001889325Y0000449561D01*
X0001890449Y0000447311D01*
X0001890449Y0000427064D01*
X0001867952Y0000450686D02*
X0001867952Y0000427064D01*
X0001867952Y0000449561D02*
X0001870202Y0000450686D01*
X0001874701Y0000450686D01*
X0001876951Y0000449561D01*
X0001878076Y0000448436D01*
X0001879201Y0000446186D01*
X0001879201Y0000439436D01*
X0001878076Y0000437187D01*
X0001876951Y0000436062D01*
X0001874701Y0000434938D01*
X0001870202Y0000434938D01*
X0001867952Y0000436062D01*
X0001847705Y0000449561D02*
X0001849954Y0000450686D01*
X0001854454Y0000450686D01*
X0001856704Y0000449561D01*
X0001857828Y0000447311D01*
X0001857828Y0000438312D01*
X0001856704Y0000436062D01*
X0001854454Y0000434938D01*
X0001849954Y0000434938D01*
X0001847705Y0000436062D01*
X0001846580Y0000438312D01*
X0001846580Y0000440562D01*
X0001857828Y0000442812D01*
X0001836456Y0000450686D02*
X0001836456Y0000434938D01*
X0001836456Y0000439436D02*
X0001835331Y0000437187D01*
X0001834205Y0000436062D01*
X0001831957Y0000434938D01*
X0001829707Y0000434938D01*
X0001795959Y0000438312D02*
X0001792587Y0000439436D01*
X0001791462Y0000440562D01*
X0001790337Y0000442812D01*
X0001790337Y0000446186D01*
X0001791462Y0000448436D01*
X0001792587Y0000449561D01*
X0001794836Y0000450686D01*
X0001803835Y0000450686D01*
X0001803835Y0000427064D01*
X0001795959Y0000427064D01*
X0001793711Y0000428188D01*
X0001792587Y0000429313D01*
X0001791462Y0000431563D01*
X0001791462Y0000433813D01*
X0001792587Y0000436062D01*
X0001793711Y0000437187D01*
X0001795959Y0000438312D01*
X0001803835Y0000438312D01*
X0001776839Y0000450686D02*
X0001779088Y0000449561D01*
X0001780213Y0000448436D01*
X0001781338Y0000446186D01*
X0001781338Y0000439436D01*
X0001780213Y0000437187D01*
X0001779088Y0000436062D01*
X0001776839Y0000434938D01*
X0001773464Y0000434938D01*
X0001771214Y0000436062D01*
X0001770089Y0000437187D01*
X0001768965Y0000439436D01*
X0001768965Y0000446186D01*
X0001770089Y0000448436D01*
X0001771214Y0000449561D01*
X0001773464Y0000450686D01*
X0001776839Y0000450686D01*
X0001748716Y0000450686D02*
X0001748716Y0000438312D01*
X0001749842Y0000436062D01*
X0001752092Y0000434938D01*
X0001756590Y0000434938D01*
X0001758841Y0000436062D01*
X0001748716Y0000449561D02*
X0001750967Y0000450686D01*
X0001756590Y0000450686D01*
X0001758841Y0000449561D01*
X0001759966Y0000447311D01*
X0001759966Y0000445061D01*
X0001758841Y0000442812D01*
X0001756590Y0000441687D01*
X0001750967Y0000441687D01*
X0001748716Y0000440562D01*
X0001737467Y0000450686D02*
X0001737467Y0000434938D01*
X0001737467Y0000439436D02*
X0001736344Y0000437187D01*
X0001735219Y0000436062D01*
X0001732969Y0000434938D01*
X0001730719Y0000434938D01*
X0001712722Y0000450686D02*
X0001712722Y0000427064D01*
X0001712722Y0000449561D02*
X0001714971Y0000450686D01*
X0001719471Y0000450686D01*
X0001721720Y0000449561D01*
X0001722845Y0000448436D01*
X0001723970Y0000446186D01*
X0001723970Y0000439436D01*
X0001722845Y0000437187D01*
X0001721720Y0000436062D01*
X0001719471Y0000434938D01*
X0001714971Y0000434938D01*
X0001712722Y0000436062D01*
X0001900011Y0000464070D02*
X0001892137Y0000487693D01*
X0001884263Y0000464070D01*
X0001864015Y0000487693D02*
X0001877513Y0000487693D01*
X0001870763Y0000487693D02*
X0001870763Y0000464070D01*
X0001873014Y0000467446D01*
X0001875264Y0000469696D01*
X0001877513Y0000470821D01*
X0001853891Y0000485444D02*
X0001852767Y0000486569D01*
X0001853891Y0000487693D01*
X0001855016Y0000486569D01*
X0001853891Y0000485444D01*
X0001853891Y0000487693D01*
X0001838143Y0000464070D02*
X0001835894Y0000464070D01*
X0001833644Y0000465196D01*
X0001832519Y0000466321D01*
X0001831394Y0000468571D01*
X0001830269Y0000473070D01*
X0001830269Y0000478695D01*
X0001831394Y0000483194D01*
X0001832519Y0000485444D01*
X0001833644Y0000486569D01*
X0001835894Y0000487693D01*
X0001838143Y0000487693D01*
X0001840391Y0000486569D01*
X0001841518Y0000485444D01*
X0001842643Y0000483194D01*
X0001843768Y0000478695D01*
X0001843768Y0000473070D01*
X0001842643Y0000468571D01*
X0001841518Y0000466321D01*
X0001840391Y0000465196D01*
X0001838143Y0000464070D01*
X0002033200Y0000702064D02*
X0002025326Y0000725686D01*
X0002017452Y0000702064D01*
X0002009577Y0000725686D02*
X0002009577Y0000709938D01*
X0002009577Y0000702064D02*
X0002010702Y0000703188D01*
X0002009577Y0000704313D01*
X0002008452Y0000703188D01*
X0002009577Y0000702064D01*
X0002009577Y0000704313D01*
X0001998329Y0000709938D02*
X0001998329Y0000725686D01*
X0001998329Y0000712187D02*
X0001997204Y0000711061D01*
X0001994954Y0000709938D01*
X0001991580Y0000709938D01*
X0001989330Y0000711061D01*
X0001988205Y0000713312D01*
X0001988205Y0000725686D01*
X0002364701Y0000250064D02*
X0002341079Y0000250064D01*
X0002341079Y0000255688D01*
X0002342204Y0000259063D01*
X0002344454Y0000261313D01*
X0002346704Y0000262438D01*
X0002351203Y0000263562D01*
X0002354578Y0000263562D01*
X0002359077Y0000262438D01*
X0002361327Y0000261313D01*
X0002363576Y0000259063D01*
X0002364701Y0000255688D01*
X0002364701Y0000250064D01*
X0002341079Y0000283810D02*
X0002341079Y0000279310D01*
X0002342204Y0000277061D01*
X0002343329Y0000275936D01*
X0002346704Y0000273686D01*
X0002351203Y0000272561D01*
X0002360202Y0000272561D01*
X0002362452Y0000273686D01*
X0002363576Y0000274811D01*
X0002364701Y0000277061D01*
X0002364701Y0000281560D01*
X0002363576Y0000283810D01*
X0002362452Y0000284935D01*
X0002360202Y0000286060D01*
X0002354578Y0000286060D01*
X0002352328Y0000284935D01*
X0002351203Y0000283810D01*
X0002350078Y0000281560D01*
X0002350078Y0000277061D01*
X0002351203Y0000274811D01*
X0002352328Y0000273686D01*
X0002354578Y0000272561D01*
X0002367201Y0000350064D02*
X0002343579Y0000350064D01*
X0002343579Y0000355688D01*
X0002344704Y0000359062D01*
X0002346954Y0000361313D01*
X0002349204Y0000362438D01*
X0002353703Y0000363562D01*
X0002357078Y0000363562D01*
X0002361577Y0000362438D01*
X0002363827Y0000361313D01*
X0002366076Y0000359062D01*
X0002367201Y0000355688D01*
X0002367201Y0000350064D01*
X0002343579Y0000371436D02*
X0002343579Y0000386060D01*
X0002352578Y0000378185D01*
X0002352578Y0000381560D01*
X0002353703Y0000383810D01*
X0002354828Y0000384935D01*
X0002357078Y0000386060D01*
X0002362702Y0000386060D01*
X0002364952Y0000384935D01*
X0002366076Y0000383810D01*
X0002367201Y0000381560D01*
X0002367201Y0000374811D01*
X0002366076Y0000372561D01*
X0002364952Y0000371436D01*
X0002357952Y0000450627D02*
X0002357952Y0000461875D01*
X0002364701Y0000448377D02*
X0002341079Y0000456251D01*
X0002364701Y0000464125D01*
X0002341079Y0000483247D02*
X0002341079Y0000471999D01*
X0002352328Y0000470874D01*
X0002351203Y0000471999D01*
X0002350078Y0000474249D01*
X0002350078Y0000479873D01*
X0002351203Y0000482123D01*
X0002352328Y0000483247D01*
X0002354578Y0000484371D01*
X0002360202Y0000484371D01*
X0002362452Y0000483247D01*
X0002363576Y0000482123D01*
X0002364701Y0000479873D01*
X0002364701Y0000474249D01*
X0002363576Y0000471999D01*
X0002362452Y0000470874D01*
X0002357952Y0000550627D02*
X0002357952Y0000561875D01*
X0002364701Y0000548377D02*
X0002341079Y0000556251D01*
X0002364701Y0000564125D01*
X0002348953Y0000582123D02*
X0002364701Y0000582123D01*
X0002339954Y0000576498D02*
X0002356827Y0000570874D01*
X0002356827Y0000585497D01*
X0002357952Y0000648127D02*
X0002357952Y0000659375D01*
X0002364701Y0000645876D02*
X0002341079Y0000653751D01*
X0002364701Y0000661625D01*
X0002341079Y0000667249D02*
X0002341079Y0000681872D01*
X0002350078Y0000673998D01*
X0002350078Y0000677373D01*
X0002351203Y0000679623D01*
X0002352328Y0000680747D01*
X0002354578Y0000681872D01*
X0002360202Y0000681872D01*
X0002362452Y0000680747D01*
X0002363576Y0000679623D01*
X0002364701Y0000677373D01*
X0002364701Y0000670624D01*
X0002363576Y0000668374D01*
X0002362452Y0000667249D01*
X0002381230Y0000723352D02*
X0002373276Y0000731306D01*
X0002387593Y0000726534D02*
X0002365322Y0000715398D01*
X0002376458Y0000737670D01*
X0002356573Y0000727329D02*
X0002354982Y0000727329D01*
X0002352596Y0000728124D01*
X0002348619Y0000732102D01*
X0002347823Y0000734488D01*
X0002347823Y0000736079D01*
X0002348619Y0000738465D01*
X0002350210Y0000740055D01*
X0002353391Y0000741646D01*
X0002372481Y0000741646D01*
X0002362140Y0000751987D01*
X0002320888Y0000716436D02*
X0002309639Y0000716436D01*
X0002323138Y0000723185D02*
X0002315264Y0000699564D01*
X0002307390Y0000723185D01*
X0002287142Y0000723185D02*
X0002300641Y0000723185D01*
X0002293891Y0000723185D02*
X0002293891Y0000699564D01*
X0002296141Y0000702938D01*
X0002298391Y0000705188D01*
X0002300641Y0000706313D01*
X0002223388Y0000716436D02*
X0002212139Y0000716436D01*
X0002225638Y0000723185D02*
X0002217764Y0000699564D01*
X0002209890Y0000723185D01*
X0002197516Y0000699564D02*
X0002195267Y0000699564D01*
X0002193017Y0000700688D01*
X0002191892Y0000701813D01*
X0002190767Y0000704062D01*
X0002189642Y0000708562D01*
X0002189642Y0000714187D01*
X0002190767Y0000718686D01*
X0002191892Y0000720936D01*
X0002193017Y0000722061D01*
X0002195267Y0000723185D01*
X0002197516Y0000723185D01*
X0002199766Y0000722061D01*
X0002200891Y0000720936D01*
X0002202016Y0000718686D01*
X0002203141Y0000714187D01*
X0002203141Y0000708562D01*
X0002202016Y0000704062D01*
X0002200891Y0000701813D01*
X0002199766Y0000700688D01*
X0002197516Y0000699564D01*
X0002127013Y0000703188D02*
X0002129263Y0000702064D01*
X0002132637Y0000702064D01*
X0002136012Y0000703188D01*
X0002138261Y0000705438D01*
X0002139386Y0000707688D01*
X0002140511Y0000712187D01*
X0002140511Y0000715562D01*
X0002139386Y0000720061D01*
X0002138261Y0000722311D01*
X0002136012Y0000724561D01*
X0002132637Y0000725686D01*
X0002130387Y0000725686D01*
X0002127013Y0000724561D01*
X0002125888Y0000723436D01*
X0002125888Y0000715562D01*
X0002130387Y0000715562D01*
X0002115764Y0000725686D02*
X0002115764Y0000702064D01*
X0002102266Y0000725686D01*
X0002102266Y0000702064D01*
X0002091017Y0000725686D02*
X0002091017Y0000702064D01*
X0002085392Y0000702064D01*
X0002082018Y0000703188D01*
X0002079769Y0000705438D01*
X0002078644Y0000707688D01*
X0002077519Y0000712187D01*
X0002077519Y0000715562D01*
X0002078644Y0000720061D01*
X0002079769Y0000722311D01*
X0002082018Y0000724561D01*
X0002085392Y0000725686D01*
X0002091017Y0000725686D01*
D11*
X0001298463Y0001053129D02*
X0001259094Y0001053129D01*
X0001259094Y0001053129D02*
X0001259094Y0001131870D01*
X0001259094Y0001131870D02*
X0001298463Y0001131870D01*
X0001298463Y0000974389D02*
X0001298463Y0001210610D01*
X0001298463Y0001210610D02*
X0002518936Y0001210610D01*
X0002518936Y0001210610D02*
X0002518936Y0000974389D01*
X0002518936Y0000974389D02*
X0001298463Y0000974389D01*
X0000904763Y0001092499D02*
X0000904763Y0001348405D01*
X0000904763Y0001348405D02*
X0002873267Y0001348405D01*
X0002873267Y0001348405D02*
X0002873267Y0000836594D01*
X0002873267Y0000836594D02*
X0000904763Y0000836594D01*
X0000904763Y0000836594D02*
X0000904763Y0001092499D01*
D12*
X0002682041Y0001100936D02*
X0002592051Y0001100936D01*
X0001149420Y0001047504D02*
X0001149420Y0001137494D01*
X0001194415Y0001092499D02*
X0001104426Y0001092499D01*
G01*
D23*
X0002186422Y0002074963D02*
X0002186422Y0002098585D01*
X0002192047Y0002098585D01*
X0002195421Y0002097460D01*
X0002197671Y0002095211D01*
X0002198796Y0002092960D01*
X0002199921Y0002088461D01*
X0002199921Y0002085087D01*
X0002198796Y0002080587D01*
X0002197671Y0002078338D01*
X0002195421Y0002076088D01*
X0002192047Y0002074963D01*
X0002186422Y0002074963D01*
X0002207795Y0002098585D02*
X0002223543Y0002098585D01*
X0002213419Y0002074963D01*
X0002096795Y0002087337D02*
X0002100171Y0002086212D01*
X0002101296Y0002085087D01*
X0002102421Y0002082837D01*
X0002102421Y0002079463D01*
X0002101296Y0002077213D01*
X0002100171Y0002076088D01*
X0002097921Y0002074963D01*
X0002088922Y0002074963D01*
X0002088922Y0002098585D01*
X0002096795Y0002098585D01*
X0002099046Y0002097460D01*
X0002100171Y0002096334D01*
X0002101296Y0002094086D01*
X0002101296Y0002091835D01*
X0002100171Y0002089586D01*
X0002099046Y0002088461D01*
X0002096795Y0002087337D01*
X0002088922Y0002087337D01*
X0002124918Y0002074963D02*
X0002111420Y0002074963D01*
X0002118169Y0002074963D02*
X0002118169Y0002098585D01*
X0002115919Y0002095211D01*
X0002113669Y0002092960D01*
X0002111420Y0002091835D01*
X0001974862Y0002098585D02*
X0001982736Y0002074963D01*
X0001990610Y0002098585D01*
X0002011982Y0002077213D02*
X0002010857Y0002076088D01*
X0002007483Y0002074963D01*
X0002005233Y0002074963D01*
X0002001858Y0002076088D01*
X0001999609Y0002078338D01*
X0001998484Y0002080587D01*
X0001997359Y0002085087D01*
X0001997359Y0002088461D01*
X0001998484Y0002092960D01*
X0001999609Y0002095211D01*
X0002001858Y0002097460D01*
X0002005233Y0002098585D01*
X0002007483Y0002098585D01*
X0002010857Y0002097460D01*
X0002011982Y0002096334D01*
X0002035604Y0002077213D02*
X0002034479Y0002076088D01*
X0002031105Y0002074963D01*
X0002028855Y0002074963D01*
X0002025480Y0002076088D01*
X0002023231Y0002078338D01*
X0002022106Y0002080587D01*
X0002020981Y0002085087D01*
X0002020981Y0002088461D01*
X0002022106Y0002092960D01*
X0002023231Y0002095211D01*
X0002025480Y0002097460D01*
X0002028855Y0002098585D01*
X0002031105Y0002098585D01*
X0002034479Y0002097460D01*
X0002035604Y0002096334D01*
X0001890860Y0002097460D02*
X0001888610Y0002098585D01*
X0001885236Y0002098585D01*
X0001881861Y0002097460D01*
X0001879611Y0002095211D01*
X0001878485Y0002092960D01*
X0001877362Y0002088461D01*
X0001877362Y0002085087D01*
X0001878485Y0002080587D01*
X0001879611Y0002078338D01*
X0001881861Y0002076088D01*
X0001885236Y0002074963D01*
X0001887485Y0002074963D01*
X0001890860Y0002076088D01*
X0001891985Y0002077213D01*
X0001891985Y0002085087D01*
X0001887485Y0002085087D01*
X0001902109Y0002074963D02*
X0001902109Y0002098585D01*
X0001915607Y0002074963D01*
X0001915607Y0002098585D01*
X0001926856Y0002074963D02*
X0001926856Y0002098585D01*
X0001932480Y0002098585D01*
X0001935854Y0002097460D01*
X0001938104Y0002095211D01*
X0001939229Y0002092960D01*
X0001940354Y0002088461D01*
X0001940354Y0002085087D01*
X0001939229Y0002080587D01*
X0001938104Y0002078338D01*
X0001935854Y0002076088D01*
X0001932480Y0002074963D01*
X0001926856Y0002074963D01*
X0001943723Y0002376828D02*
X0001943723Y0002353206D01*
X0001943723Y0002364454D02*
X0001930224Y0002364454D01*
X0001930224Y0002376828D02*
X0001930224Y0002353206D01*
X0001918976Y0002376828D02*
X0001918976Y0002353206D01*
X0001911102Y0002370078D01*
X0001903228Y0002353206D01*
X0001903228Y0002376828D01*
X0001893104Y0002375703D02*
X0001889728Y0002376828D01*
X0001884105Y0002376828D01*
X0001881854Y0002375703D01*
X0001880731Y0002374578D01*
X0001879606Y0002372328D01*
X0001879606Y0002370078D01*
X0001880731Y0002367829D01*
X0001881854Y0002366704D01*
X0001884105Y0002365579D01*
X0001888605Y0002364454D01*
X0001890854Y0002363329D01*
X0001891979Y0002362204D01*
X0001893104Y0002359955D01*
X0001893104Y0002357705D01*
X0001891979Y0002355455D01*
X0001890854Y0002354330D01*
X0001888605Y0002353206D01*
X0001882980Y0002353206D01*
X0001879606Y0002354330D01*
X0001860483Y0002375703D02*
X0001862733Y0002376828D01*
X0001867232Y0002376828D01*
X0001869482Y0002375703D01*
X0001870605Y0002373453D01*
X0001870605Y0002364454D01*
X0001869482Y0002362204D01*
X0001867232Y0002361080D01*
X0001862733Y0002361080D01*
X0001860483Y0002362204D01*
X0001859358Y0002364454D01*
X0001859358Y0002366704D01*
X0001870605Y0002368954D01*
X0001849235Y0002361080D02*
X0001849235Y0002376828D01*
X0001849235Y0002363329D02*
X0001848110Y0002362204D01*
X0001845860Y0002361080D01*
X0001842485Y0002361080D01*
X0001840236Y0002362204D01*
X0001839111Y0002364454D01*
X0001839111Y0002376828D01*
X0001828987Y0002375703D02*
X0001826737Y0002376828D01*
X0001822238Y0002376828D01*
X0001819987Y0002375703D01*
X0001818863Y0002373453D01*
X0001818863Y0002372328D01*
X0001819987Y0002370078D01*
X0001822238Y0002368954D01*
X0001825613Y0002368954D01*
X0001827862Y0002367829D01*
X0001828987Y0002365579D01*
X0001828987Y0002364454D01*
X0001827862Y0002362204D01*
X0001825613Y0002361080D01*
X0001822238Y0002361080D01*
X0001819987Y0002362204D01*
X0001805365Y0002376828D02*
X0001807615Y0002375703D01*
X0001808740Y0002374578D01*
X0001809865Y0002372328D01*
X0001809865Y0002365579D01*
X0001808740Y0002363329D01*
X0001807615Y0002362204D01*
X0001805365Y0002361080D01*
X0001801990Y0002361080D01*
X0001799741Y0002362204D01*
X0001798616Y0002363329D01*
X0001797491Y0002365579D01*
X0001797491Y0002372328D01*
X0001798616Y0002374578D01*
X0001799741Y0002375703D01*
X0001801990Y0002376828D01*
X0001805365Y0002376828D01*
X0001787367Y0002376828D02*
X0001787367Y0002361080D01*
X0001787367Y0002365579D02*
X0001786242Y0002363329D01*
X0001785118Y0002362204D01*
X0001782868Y0002361080D01*
X0001780618Y0002361080D01*
X0002016276Y0002407086D02*
X0002005027Y0002407086D01*
X0002018526Y0002413835D02*
X0002010652Y0002390213D01*
X0002002778Y0002413835D01*
X0001996028Y0002407086D02*
X0001984778Y0002407086D01*
X0001998278Y0002413835D02*
X0001990404Y0002390213D01*
X0001982530Y0002413835D01*
X0001975781Y0002407086D02*
X0001964532Y0002407086D01*
X0001978031Y0002413835D02*
X0001970157Y0002390213D01*
X0001962283Y0002413835D01*
X0001936411Y0002413835D02*
X0001936411Y0002390213D01*
X0001936411Y0002401462D02*
X0001922913Y0002401462D01*
X0001922913Y0002413835D02*
X0001922913Y0002390213D01*
X0001908290Y0002413835D02*
X0001910539Y0002412711D01*
X0001911664Y0002411586D01*
X0001912789Y0002409336D01*
X0001912789Y0002402587D01*
X0001911664Y0002400337D01*
X0001910539Y0002399212D01*
X0001908290Y0002398087D01*
X0001904915Y0002398087D01*
X0001902665Y0002399212D01*
X0001901541Y0002400337D01*
X0001900416Y0002402587D01*
X0001900416Y0002409336D01*
X0001901541Y0002411586D01*
X0001902665Y0002412711D01*
X0001904915Y0002413835D01*
X0001908290Y0002413835D01*
X0001886917Y0002413835D02*
X0001889167Y0002412711D01*
X0001890292Y0002410461D01*
X0001890292Y0002390213D01*
X0001867794Y0002413835D02*
X0001867794Y0002390213D01*
X0001867794Y0002412711D02*
X0001870045Y0002413835D01*
X0001874544Y0002413835D01*
X0001876794Y0002412711D01*
X0001877919Y0002411586D01*
X0001879043Y0002409336D01*
X0001879043Y0002402587D01*
X0001877919Y0002400337D01*
X0001876794Y0002399212D01*
X0001874544Y0002398087D01*
X0001870045Y0002398087D01*
X0001867794Y0002399212D01*
X0001847547Y0002412711D02*
X0001849797Y0002413835D01*
X0001854296Y0002413835D01*
X0001856545Y0002412711D01*
X0001857671Y0002410461D01*
X0001857671Y0002401462D01*
X0001856545Y0002399212D01*
X0001854296Y0002398087D01*
X0001849797Y0002398087D01*
X0001847547Y0002399212D01*
X0001846422Y0002401462D01*
X0001846422Y0002403712D01*
X0001857671Y0002405961D01*
X0001836299Y0002413835D02*
X0001836299Y0002398087D01*
X0001836299Y0002402587D02*
X0001835174Y0002400337D01*
X0001834049Y0002399212D01*
X0001831799Y0002398087D01*
X0001829550Y0002398087D01*
X0001795804Y0002401462D02*
X0001792429Y0002402587D01*
X0001791304Y0002403712D01*
X0001790179Y0002405961D01*
X0001790179Y0002409336D01*
X0001791304Y0002411586D01*
X0001792429Y0002412711D01*
X0001794679Y0002413835D01*
X0001803678Y0002413835D01*
X0001803678Y0002390213D01*
X0001795804Y0002390213D01*
X0001793554Y0002391338D01*
X0001792429Y0002392463D01*
X0001791304Y0002394713D01*
X0001791304Y0002396963D01*
X0001792429Y0002399212D01*
X0001793554Y0002400337D01*
X0001795804Y0002401462D01*
X0001803678Y0002401462D01*
X0001776681Y0002413835D02*
X0001778930Y0002412711D01*
X0001780056Y0002411586D01*
X0001781181Y0002409336D01*
X0001781181Y0002402587D01*
X0001780056Y0002400337D01*
X0001778930Y0002399212D01*
X0001776681Y0002398087D01*
X0001773307Y0002398087D01*
X0001771056Y0002399212D01*
X0001769932Y0002400337D01*
X0001768807Y0002402587D01*
X0001768807Y0002409336D01*
X0001769932Y0002411586D01*
X0001771056Y0002412711D01*
X0001773307Y0002413835D01*
X0001776681Y0002413835D01*
X0001748560Y0002413835D02*
X0001748560Y0002401462D01*
X0001749685Y0002399212D01*
X0001751933Y0002398087D01*
X0001756434Y0002398087D01*
X0001758683Y0002399212D01*
X0001748560Y0002412711D02*
X0001750809Y0002413835D01*
X0001756434Y0002413835D01*
X0001758683Y0002412711D01*
X0001759807Y0002410461D01*
X0001759807Y0002408211D01*
X0001758683Y0002405961D01*
X0001756434Y0002404837D01*
X0001750809Y0002404837D01*
X0001748560Y0002403712D01*
X0001737311Y0002413835D02*
X0001737311Y0002398087D01*
X0001737311Y0002402587D02*
X0001736186Y0002400337D01*
X0001735061Y0002399212D01*
X0001732812Y0002398087D01*
X0001730562Y0002398087D01*
X0001712564Y0002413835D02*
X0001712564Y0002390213D01*
X0001712564Y0002412711D02*
X0001714814Y0002413835D01*
X0001719313Y0002413835D01*
X0001721563Y0002412711D01*
X0001722688Y0002411586D01*
X0001723813Y0002409336D01*
X0001723813Y0002402587D01*
X0001722688Y0002400337D01*
X0001721563Y0002399212D01*
X0001719313Y0002398087D01*
X0001714814Y0002398087D01*
X0001712564Y0002399212D01*
X0001899853Y0002427221D02*
X0001891979Y0002450843D01*
X0001884105Y0002427221D01*
X0001863858Y0002450843D02*
X0001877356Y0002450843D01*
X0001870605Y0002450843D02*
X0001870605Y0002427221D01*
X0001872857Y0002430596D01*
X0001875106Y0002432846D01*
X0001877356Y0002433970D01*
X0001853734Y0002448594D02*
X0001852609Y0002449718D01*
X0001853734Y0002450843D01*
X0001854859Y0002449718D01*
X0001853734Y0002448594D01*
X0001853734Y0002450843D01*
X0001837986Y0002427221D02*
X0001835736Y0002427221D01*
X0001833487Y0002428346D01*
X0001832362Y0002429471D01*
X0001831236Y0002431721D01*
X0001830112Y0002436220D01*
X0001830112Y0002441844D01*
X0001831236Y0002446344D01*
X0001832362Y0002448594D01*
X0001833487Y0002449718D01*
X0001835736Y0002450843D01*
X0001837986Y0002450843D01*
X0001840236Y0002449718D01*
X0001841361Y0002448594D01*
X0001842485Y0002446344D01*
X0001843610Y0002441844D01*
X0001843610Y0002436220D01*
X0001842485Y0002431721D01*
X0001841361Y0002429471D01*
X0001840236Y0002428346D01*
X0001837986Y0002427221D01*
X0002033042Y0002665213D02*
X0002025167Y0002688835D01*
X0002017294Y0002665213D01*
X0002009420Y0002688835D02*
X0002009420Y0002673087D01*
X0002009420Y0002665213D02*
X0002010545Y0002666337D01*
X0002009420Y0002667463D01*
X0002008295Y0002666337D01*
X0002009420Y0002665213D01*
X0002009420Y0002667463D01*
X0001998172Y0002673087D02*
X0001998172Y0002688835D01*
X0001998172Y0002675337D02*
X0001997047Y0002674212D01*
X0001994797Y0002673087D01*
X0001991422Y0002673087D01*
X0001989173Y0002674212D01*
X0001988048Y0002676462D01*
X0001988048Y0002688835D01*
X0002364544Y0002213214D02*
X0002340922Y0002213214D01*
X0002340922Y0002218838D01*
X0002342047Y0002222213D01*
X0002344296Y0002224463D01*
X0002346546Y0002225587D01*
X0002351046Y0002226712D01*
X0002354420Y0002226712D01*
X0002358920Y0002225587D01*
X0002361169Y0002224463D01*
X0002363419Y0002222213D01*
X0002364544Y0002218838D01*
X0002364544Y0002213214D01*
X0002340922Y0002246960D02*
X0002340922Y0002242460D01*
X0002342047Y0002240211D01*
X0002343172Y0002239086D01*
X0002346546Y0002236836D01*
X0002351046Y0002235711D01*
X0002360045Y0002235711D01*
X0002362294Y0002236836D01*
X0002363419Y0002237961D01*
X0002364544Y0002240211D01*
X0002364544Y0002244710D01*
X0002363419Y0002246960D01*
X0002362294Y0002248085D01*
X0002360045Y0002249209D01*
X0002354420Y0002249209D01*
X0002352170Y0002248085D01*
X0002351046Y0002246960D01*
X0002349921Y0002244710D01*
X0002349921Y0002240211D01*
X0002351046Y0002237961D01*
X0002352170Y0002236836D01*
X0002354420Y0002235711D01*
X0002367044Y0002313214D02*
X0002343422Y0002313214D01*
X0002343422Y0002318838D01*
X0002344547Y0002322213D01*
X0002346796Y0002324463D01*
X0002349046Y0002325587D01*
X0002353546Y0002326712D01*
X0002356920Y0002326712D01*
X0002361420Y0002325587D01*
X0002363669Y0002324463D01*
X0002365919Y0002322213D01*
X0002367044Y0002318838D01*
X0002367044Y0002313214D01*
X0002343422Y0002334586D02*
X0002343422Y0002349209D01*
X0002352421Y0002341335D01*
X0002352421Y0002344710D01*
X0002353546Y0002346960D01*
X0002354670Y0002348085D01*
X0002356920Y0002349209D01*
X0002362545Y0002349209D01*
X0002364794Y0002348085D01*
X0002365919Y0002346960D01*
X0002367044Y0002344710D01*
X0002367044Y0002337961D01*
X0002365919Y0002335711D01*
X0002364794Y0002334586D01*
X0002357795Y0002413776D02*
X0002357795Y0002425025D01*
X0002364544Y0002411527D02*
X0002340922Y0002419401D01*
X0002364544Y0002427275D01*
X0002340922Y0002446397D02*
X0002340922Y0002435149D01*
X0002352170Y0002434024D01*
X0002351046Y0002435149D01*
X0002349921Y0002437398D01*
X0002349921Y0002443023D01*
X0002351046Y0002445272D01*
X0002352170Y0002446397D01*
X0002354420Y0002447522D01*
X0002360045Y0002447522D01*
X0002362294Y0002446397D01*
X0002363419Y0002445272D01*
X0002364544Y0002443023D01*
X0002364544Y0002437398D01*
X0002363419Y0002435149D01*
X0002362294Y0002434024D01*
X0002357795Y0002513776D02*
X0002357795Y0002525025D01*
X0002364544Y0002511527D02*
X0002340922Y0002519401D01*
X0002364544Y0002527275D01*
X0002348796Y0002545272D02*
X0002364544Y0002545272D01*
X0002339797Y0002539648D02*
X0002356670Y0002534024D01*
X0002356670Y0002548647D01*
X0002357795Y0002611276D02*
X0002357795Y0002622525D01*
X0002364544Y0002609027D02*
X0002340922Y0002616901D01*
X0002364544Y0002624775D01*
X0002340922Y0002630398D02*
X0002340922Y0002645022D01*
X0002349921Y0002637148D01*
X0002349921Y0002640523D01*
X0002351046Y0002642772D01*
X0002352170Y0002643897D01*
X0002354420Y0002645022D01*
X0002360045Y0002645022D01*
X0002362294Y0002643897D01*
X0002363419Y0002642772D01*
X0002364544Y0002640523D01*
X0002364544Y0002633774D01*
X0002363419Y0002631524D01*
X0002362294Y0002630398D01*
X0002381073Y0002686502D02*
X0002373119Y0002694456D01*
X0002387436Y0002689684D02*
X0002365165Y0002678548D01*
X0002376300Y0002700819D01*
X0002356415Y0002690479D02*
X0002354825Y0002690479D01*
X0002352438Y0002691275D01*
X0002348461Y0002695252D01*
X0002347666Y0002697638D01*
X0002347666Y0002699229D01*
X0002348461Y0002701615D01*
X0002350052Y0002703206D01*
X0002353234Y0002704796D01*
X0002372323Y0002704796D01*
X0002361983Y0002715136D01*
X0002320731Y0002679586D02*
X0002309482Y0002679586D01*
X0002322980Y0002686335D02*
X0002315106Y0002662713D01*
X0002307232Y0002686335D01*
X0002286985Y0002686335D02*
X0002300483Y0002686335D01*
X0002293734Y0002686335D02*
X0002293734Y0002662713D01*
X0002295984Y0002666088D01*
X0002298233Y0002668337D01*
X0002300483Y0002669463D01*
X0002223231Y0002679586D02*
X0002211982Y0002679586D01*
X0002225480Y0002686335D02*
X0002217606Y0002662713D01*
X0002209732Y0002686335D01*
X0002197359Y0002662713D02*
X0002195109Y0002662713D01*
X0002192859Y0002663838D01*
X0002191735Y0002664963D01*
X0002190610Y0002667213D01*
X0002189485Y0002671712D01*
X0002189485Y0002677337D01*
X0002190610Y0002681836D01*
X0002191735Y0002684086D01*
X0002192859Y0002685211D01*
X0002195109Y0002686335D01*
X0002197359Y0002686335D01*
X0002199609Y0002685211D01*
X0002200733Y0002684086D01*
X0002201858Y0002681836D01*
X0002202983Y0002677337D01*
X0002202983Y0002671712D01*
X0002201858Y0002667213D01*
X0002200733Y0002664963D01*
X0002199609Y0002663838D01*
X0002197359Y0002662713D01*
X0002126855Y0002666337D02*
X0002129105Y0002665213D01*
X0002132480Y0002665213D01*
X0002135854Y0002666337D01*
X0002138104Y0002668588D01*
X0002139229Y0002670838D01*
X0002140354Y0002675337D01*
X0002140354Y0002678712D01*
X0002139229Y0002683211D01*
X0002138104Y0002685461D01*
X0002135854Y0002687711D01*
X0002132480Y0002688835D01*
X0002130230Y0002688835D01*
X0002126855Y0002687711D01*
X0002125731Y0002686586D01*
X0002125731Y0002678712D01*
X0002130230Y0002678712D01*
X0002115607Y0002688835D02*
X0002115607Y0002665213D01*
X0002102109Y0002688835D01*
X0002102109Y0002665213D01*
X0002090860Y0002688835D02*
X0002090860Y0002665213D01*
X0002085236Y0002665213D01*
X0002081861Y0002666337D01*
X0002079610Y0002668588D01*
X0002078487Y0002670838D01*
X0002077362Y0002675337D01*
X0002077362Y0002678712D01*
X0002078487Y0002683211D01*
X0002079610Y0002685461D01*
X0002081861Y0002687711D01*
X0002085236Y0002688835D01*
X0002090860Y0002688835D01*
D24*
X0001283307Y0003013779D02*
X0001243937Y0003013779D01*
X0001243937Y0003013779D02*
X0001243937Y0003092519D01*
X0001243937Y0003092519D02*
X0001283307Y0003092519D01*
X0001283307Y0002935039D02*
X0001283307Y0003171260D01*
X0001283307Y0003171260D02*
X0002503779Y0003171260D01*
X0002503779Y0003171260D02*
X0002503779Y0002935039D01*
X0002503779Y0002935039D02*
X0001283307Y0002935039D01*
X0000889606Y0003053149D02*
X0000889606Y0003309055D01*
X0000889606Y0003309055D02*
X0002858110Y0003309055D01*
X0002858110Y0003309055D02*
X0002858110Y0002797244D01*
X0002858110Y0002797244D02*
X0000889606Y0002797244D01*
X0000889606Y0002797244D02*
X0000889606Y0003053149D01*
X0002464409Y0001752519D02*
X0002503779Y0001752519D01*
X0002503779Y0001752519D02*
X0002503779Y0001673779D01*
X0002503779Y0001673779D02*
X0002464409Y0001673779D01*
X0002464409Y0001831260D02*
X0002464409Y0001595039D01*
X0002464409Y0001595039D02*
X0001243937Y0001595039D01*
X0001243937Y0001595039D02*
X0001243937Y0001831260D01*
X0001243937Y0001831260D02*
X0002464409Y0001831260D01*
X0002858110Y0001713149D02*
X0002858110Y0001457244D01*
X0002858110Y0001457244D02*
X0000889606Y0001457244D01*
X0000889606Y0001457244D02*
X0000889606Y0001969055D01*
X0000889606Y0001969055D02*
X0002858110Y0001969055D01*
X0002858110Y0001969055D02*
X0002858110Y0001713149D01*
D25*
X0002666884Y0003061586D02*
X0002576895Y0003061586D01*
X0001134263Y0003008155D02*
X0001134263Y0003098144D01*
X0001179257Y0003053149D02*
X0001089268Y0003053149D01*
X0001170821Y0001721586D02*
X0001080832Y0001721586D01*
X0002630326Y0001668155D02*
X0002630326Y0001758144D01*
X0002675320Y0001713149D02*
X0002585331Y0001713149D01*
G01*
D36*
D37*
X0003431472Y0000180949D02*
X0003418349Y0000199697D01*
X0003408975Y0000180949D02*
X0003408975Y0000220319D01*
X0003423973Y0000220319D01*
X0003427722Y0000218444D01*
X0003429597Y0000216570D01*
X0003431472Y0000212820D01*
X0003431472Y0000207196D01*
X0003429597Y0000203446D01*
X0003427722Y0000201571D01*
X0003423973Y0000199697D01*
X0003408975Y0000199697D01*
X0003463343Y0000182824D02*
X0003459593Y0000180949D01*
X0003452094Y0000180949D01*
X0003448345Y0000182824D01*
X0003446470Y0000186573D01*
X0003446470Y0000201571D01*
X0003448345Y0000205321D01*
X0003452094Y0000207196D01*
X0003459593Y0000207196D01*
X0003463343Y0000205321D01*
X0003465218Y0000201571D01*
X0003465218Y0000197822D01*
X0003446470Y0000194072D01*
X0003480216Y0000182824D02*
X0003483965Y0000180949D01*
X0003491464Y0000180949D01*
X0003495214Y0000182824D01*
X0003497089Y0000186573D01*
X0003497089Y0000188448D01*
X0003495214Y0000192198D01*
X0003491464Y0000194072D01*
X0003485840Y0000194072D01*
X0003482091Y0000195947D01*
X0003480216Y0000199697D01*
X0003480216Y0000201571D01*
X0003482091Y0000205321D01*
X0003485840Y0000207196D01*
X0003491464Y0000207196D01*
X0003495214Y0000205321D01*
X0003528960Y0000182824D02*
X0003525209Y0000180949D01*
X0003517711Y0000180949D01*
X0003513962Y0000182824D01*
X0003512087Y0000186573D01*
X0003512087Y0000201571D01*
X0003513962Y0000205321D01*
X0003517711Y0000207196D01*
X0003525209Y0000207196D01*
X0003528960Y0000205321D01*
X0003530835Y0000201571D01*
X0003530835Y0000197822D01*
X0003512087Y0000194072D01*
X0003542083Y0000207196D02*
X0003557081Y0000207196D01*
X0003547707Y0000220319D02*
X0003547707Y0000186573D01*
X0003549581Y0000182824D01*
X0003553332Y0000180949D01*
X0003557081Y0000180949D01*
X0003214603Y0000866572D02*
X0003220227Y0000864696D01*
X0003222102Y0000862822D01*
X0003223977Y0000859072D01*
X0003223977Y0000853447D01*
X0003222102Y0000849699D01*
X0003220227Y0000847824D01*
X0003216478Y0000845949D01*
X0003201479Y0000845949D01*
X0003201479Y0000885319D01*
X0003214603Y0000885319D01*
X0003218352Y0000883444D01*
X0003220227Y0000881570D01*
X0003222102Y0000877819D01*
X0003222102Y0000874071D01*
X0003220227Y0000870321D01*
X0003218352Y0000868446D01*
X0003214603Y0000866572D01*
X0003201479Y0000866572D01*
X0003240850Y0000845949D02*
X0003240850Y0000885319D01*
X0003253973Y0000857198D01*
X0003267096Y0000885319D01*
X0003267096Y0000845949D01*
X0003285844Y0000845949D02*
X0003285844Y0000885319D01*
X0003300842Y0000885319D01*
X0003304591Y0000883444D01*
X0003306465Y0000881570D01*
X0003308341Y0000877819D01*
X0003308341Y0000872196D01*
X0003306465Y0000868446D01*
X0003304591Y0000866572D01*
X0003300842Y0000864696D01*
X0003285844Y0000864696D01*
X0003345836Y0000845949D02*
X0003323339Y0000845949D01*
X0003334588Y0000845949D02*
X0003334588Y0000885319D01*
X0003330837Y0000879695D01*
X0003327089Y0000875945D01*
X0003323339Y0000874071D01*
X0003368334Y0000868446D02*
X0003364584Y0000870321D01*
X0003362709Y0000872196D01*
X0003360835Y0000875945D01*
X0003360835Y0000877819D01*
X0003362709Y0000881570D01*
X0003364584Y0000883444D01*
X0003368334Y0000885319D01*
X0003375833Y0000885319D01*
X0003379581Y0000883444D01*
X0003381457Y0000881570D01*
X0003383331Y0000877819D01*
X0003383331Y0000875945D01*
X0003381457Y0000872196D01*
X0003379581Y0000870321D01*
X0003375833Y0000868446D01*
X0003368334Y0000868446D01*
X0003364584Y0000866572D01*
X0003362709Y0000864696D01*
X0003360835Y0000860947D01*
X0003360835Y0000853447D01*
X0003362709Y0000849699D01*
X0003364584Y0000847824D01*
X0003368334Y0000845949D01*
X0003375833Y0000845949D01*
X0003379581Y0000847824D01*
X0003381457Y0000849699D01*
X0003383331Y0000853447D01*
X0003383331Y0000860947D01*
X0003381457Y0000864696D01*
X0003379581Y0000866572D01*
X0003375833Y0000868446D01*
X0003407704Y0000885319D02*
X0003411453Y0000885319D01*
X0003415203Y0000883444D01*
X0003417078Y0000881570D01*
X0003418952Y0000877819D01*
X0003420827Y0000870321D01*
X0003420827Y0000860947D01*
X0003418952Y0000853447D01*
X0003417078Y0000849699D01*
X0003415203Y0000847824D01*
X0003411453Y0000845949D01*
X0003407704Y0000845949D01*
X0003403953Y0000847824D01*
X0003402079Y0000849699D01*
X0003400205Y0000853447D01*
X0003398330Y0000860947D01*
X0003398330Y0000870321D01*
X0003400205Y0000877819D01*
X0003402079Y0000881570D01*
X0003403953Y0000883444D01*
X0003407704Y0000885319D01*
D36*
X0003039530Y0000268695D02*
X0003063152Y0000268695D01*
X0003063152Y0000263070D01*
X0003062027Y0000259695D01*
X0003059777Y0000257446D01*
X0003057527Y0000256321D01*
X0003053028Y0000255195D01*
X0003049653Y0000255195D01*
X0003045154Y0000256321D01*
X0003042904Y0000257446D01*
X0003040655Y0000259695D01*
X0003039530Y0000263070D01*
X0003039530Y0000268695D01*
X0003063152Y0000247322D02*
X0003063152Y0000231573D01*
X0003039530Y0000241698D01*
X0003051903Y0000358321D02*
X0003050778Y0000354946D01*
X0003049653Y0000353821D01*
X0003047404Y0000352696D01*
X0003044029Y0000352696D01*
X0003041779Y0000353821D01*
X0003040655Y0000354946D01*
X0003039530Y0000357196D01*
X0003039530Y0000366195D01*
X0003063152Y0000366195D01*
X0003063152Y0000358321D01*
X0003062027Y0000356071D01*
X0003060902Y0000354946D01*
X0003058651Y0000353821D01*
X0003056403Y0000353821D01*
X0003054152Y0000354946D01*
X0003053028Y0000356071D01*
X0003051903Y0000358321D01*
X0003051903Y0000366195D01*
X0003039530Y0000330199D02*
X0003039530Y0000343697D01*
X0003039530Y0000336948D02*
X0003063152Y0000336948D01*
X0003059777Y0000339198D01*
X0003057527Y0000341448D01*
X0003056403Y0000343697D01*
X0003063152Y0000480255D02*
X0003039530Y0000472381D01*
X0003063152Y0000464507D01*
X0003041779Y0000443135D02*
X0003040655Y0000444260D01*
X0003039530Y0000447634D01*
X0003039530Y0000449884D01*
X0003040655Y0000453259D01*
X0003042904Y0000455508D01*
X0003045154Y0000456632D01*
X0003049653Y0000457758D01*
X0003053028Y0000457758D01*
X0003057527Y0000456632D01*
X0003059777Y0000455508D01*
X0003062027Y0000453259D01*
X0003063152Y0000449884D01*
X0003063152Y0000447634D01*
X0003062027Y0000444260D01*
X0003060902Y0000443135D01*
X0003041779Y0000419512D02*
X0003040655Y0000420638D01*
X0003039530Y0000424012D01*
X0003039530Y0000426262D01*
X0003040655Y0000429637D01*
X0003042904Y0000431886D01*
X0003045154Y0000433011D01*
X0003049653Y0000434136D01*
X0003053028Y0000434136D01*
X0003057527Y0000433011D01*
X0003059777Y0000431886D01*
X0003062027Y0000429637D01*
X0003063152Y0000426262D01*
X0003063152Y0000424012D01*
X0003062027Y0000420638D01*
X0003060902Y0000419512D01*
X0003062027Y0000564257D02*
X0003063152Y0000566507D01*
X0003063152Y0000569881D01*
X0003062027Y0000573256D01*
X0003059777Y0000575506D01*
X0003057527Y0000576631D01*
X0003053028Y0000577755D01*
X0003049653Y0000577755D01*
X0003045154Y0000576631D01*
X0003042904Y0000575506D01*
X0003040655Y0000573256D01*
X0003039530Y0000569881D01*
X0003039530Y0000567632D01*
X0003040655Y0000564257D01*
X0003041779Y0000563132D01*
X0003049653Y0000563132D01*
X0003049653Y0000567632D01*
X0003039530Y0000553008D02*
X0003063152Y0000553008D01*
X0003039530Y0000539510D01*
X0003063152Y0000539510D01*
X0003039530Y0000528262D02*
X0003063152Y0000528262D01*
X0003063152Y0000522637D01*
X0003062027Y0000519263D01*
X0003059777Y0000517012D01*
X0003057527Y0000515888D01*
X0003053028Y0000514762D01*
X0003049653Y0000514762D01*
X0003045154Y0000515888D01*
X0003042904Y0000517012D01*
X0003040655Y0000519263D01*
X0003039530Y0000522637D01*
X0003039530Y0000528262D01*
X0002996394Y0000651394D02*
X0002972772Y0000651394D01*
X0002984021Y0000651394D02*
X0002984021Y0000664893D01*
X0002996394Y0000664893D02*
X0002972772Y0000664893D01*
X0002996394Y0000676141D02*
X0002972772Y0000676141D01*
X0002989645Y0000684015D01*
X0002972772Y0000691889D01*
X0002996394Y0000691889D01*
X0002995268Y0000702013D02*
X0002996394Y0000705388D01*
X0002996394Y0000711012D01*
X0002995268Y0000713262D01*
X0002994144Y0000714386D01*
X0002991895Y0000715511D01*
X0002989645Y0000715511D01*
X0002987395Y0000714386D01*
X0002986270Y0000713262D01*
X0002985146Y0000711012D01*
X0002984021Y0000706512D01*
X0002982896Y0000704263D01*
X0002981771Y0000703138D01*
X0002979521Y0000702013D01*
X0002977272Y0000702013D01*
X0002975021Y0000703138D01*
X0002973897Y0000704263D01*
X0002972772Y0000706512D01*
X0002972772Y0000712137D01*
X0002973897Y0000715511D01*
X0002995268Y0000734634D02*
X0002996394Y0000732384D01*
X0002996394Y0000727885D01*
X0002995268Y0000725635D01*
X0002993020Y0000724510D01*
X0002984021Y0000724510D01*
X0002981771Y0000725635D01*
X0002980646Y0000727885D01*
X0002980646Y0000732384D01*
X0002981771Y0000734634D01*
X0002984021Y0000735759D01*
X0002986270Y0000735759D01*
X0002988520Y0000724510D01*
X0002980646Y0000745883D02*
X0002996394Y0000745883D01*
X0002982896Y0000745883D02*
X0002981771Y0000747007D01*
X0002980646Y0000749257D01*
X0002980646Y0000752631D01*
X0002981771Y0000754881D01*
X0002984021Y0000756006D01*
X0002996394Y0000756006D01*
X0002995268Y0000766130D02*
X0002996394Y0000768380D01*
X0002996394Y0000772879D01*
X0002995268Y0000775129D01*
X0002993020Y0000776254D01*
X0002991895Y0000776254D01*
X0002989645Y0000775129D01*
X0002988520Y0000772879D01*
X0002988520Y0000769505D01*
X0002987395Y0000767255D01*
X0002985146Y0000766130D01*
X0002984021Y0000766130D01*
X0002981771Y0000767255D01*
X0002980646Y0000769505D01*
X0002980646Y0000772879D01*
X0002981771Y0000775129D01*
X0002996394Y0000789752D02*
X0002995268Y0000787501D01*
X0002994144Y0000786377D01*
X0002991895Y0000785253D01*
X0002985146Y0000785253D01*
X0002982896Y0000786377D01*
X0002981771Y0000787501D01*
X0002980646Y0000789752D01*
X0002980646Y0000793127D01*
X0002981771Y0000795376D01*
X0002982896Y0000796501D01*
X0002985146Y0000797626D01*
X0002991895Y0000797626D01*
X0002994144Y0000796501D01*
X0002995268Y0000795376D01*
X0002996394Y0000793127D01*
X0002996394Y0000789752D01*
X0002996394Y0000807750D02*
X0002980646Y0000807750D01*
X0002985146Y0000807750D02*
X0002982896Y0000808875D01*
X0002981771Y0000809999D01*
X0002980646Y0000812249D01*
X0002980646Y0000814499D01*
X0003033402Y0000650268D02*
X0003009780Y0000650268D01*
X0003004156Y0000660393D02*
X0003003031Y0000662643D01*
X0003003031Y0000666017D01*
X0003004156Y0000668267D01*
X0003006405Y0000669391D01*
X0003008655Y0000669391D01*
X0003010904Y0000668267D01*
X0003018779Y0000660393D01*
X0003018779Y0000669391D01*
X0003031152Y0000693014D02*
X0003032277Y0000691889D01*
X0003033402Y0000688514D01*
X0003033402Y0000686265D01*
X0003032277Y0000682890D01*
X0003030027Y0000680640D01*
X0003027778Y0000679516D01*
X0003023278Y0000678391D01*
X0003019904Y0000678391D01*
X0003015404Y0000679516D01*
X0003013155Y0000680640D01*
X0003010904Y0000682890D01*
X0003009780Y0000686265D01*
X0003009780Y0000688514D01*
X0003010904Y0000691889D01*
X0003012030Y0000693014D01*
X0003021029Y0000729009D02*
X0003022153Y0000732384D01*
X0003023278Y0000733509D01*
X0003025528Y0000734634D01*
X0003028903Y0000734634D01*
X0003031152Y0000733509D01*
X0003032277Y0000732384D01*
X0003033402Y0000730135D01*
X0003033402Y0000721136D01*
X0003009780Y0000721136D01*
X0003009780Y0000729009D01*
X0003010904Y0000731259D01*
X0003012030Y0000732384D01*
X0003014279Y0000733509D01*
X0003016529Y0000733509D01*
X0003018779Y0000732384D01*
X0003019904Y0000731259D01*
X0003021029Y0000729009D01*
X0003021029Y0000721136D01*
X0003033402Y0000748132D02*
X0003032277Y0000745883D01*
X0003031152Y0000744758D01*
X0003028903Y0000743633D01*
X0003022153Y0000743633D01*
X0003019904Y0000744758D01*
X0003018779Y0000745883D01*
X0003017654Y0000748132D01*
X0003017654Y0000751507D01*
X0003018779Y0000753757D01*
X0003019904Y0000754881D01*
X0003022153Y0000756006D01*
X0003028903Y0000756006D01*
X0003031152Y0000754881D01*
X0003032277Y0000753757D01*
X0003033402Y0000751507D01*
X0003033402Y0000748132D01*
X0003033402Y0000776254D02*
X0003021029Y0000776254D01*
X0003018779Y0000775129D01*
X0003017654Y0000772879D01*
X0003017654Y0000768380D01*
X0003018779Y0000766130D01*
X0003032277Y0000776254D02*
X0003033402Y0000774004D01*
X0003033402Y0000768380D01*
X0003032277Y0000766130D01*
X0003030027Y0000765005D01*
X0003027778Y0000765005D01*
X0003025528Y0000766130D01*
X0003024403Y0000768380D01*
X0003024403Y0000774004D01*
X0003023278Y0000776254D01*
X0003033402Y0000787501D02*
X0003017654Y0000787501D01*
X0003022153Y0000787501D02*
X0003019904Y0000788627D01*
X0003018779Y0000789752D01*
X0003017654Y0000792002D01*
X0003017654Y0000794251D01*
X0003033402Y0000812249D02*
X0003009780Y0000812249D01*
X0003032277Y0000812249D02*
X0003033402Y0000809999D01*
X0003033402Y0000805500D01*
X0003032277Y0000803250D01*
X0003031152Y0000802125D01*
X0003028903Y0000801000D01*
X0003022153Y0000801000D01*
X0003019904Y0000802125D01*
X0003018779Y0000803250D01*
X0003017654Y0000805500D01*
X0003017654Y0000809999D01*
X0003018779Y0000812249D01*
X0003046788Y0000695264D02*
X0003070410Y0000703138D01*
X0003046788Y0000711012D01*
X0003070410Y0000731259D02*
X0003070410Y0000717760D01*
X0003070410Y0000724510D02*
X0003046788Y0000724510D01*
X0003050162Y0000722260D01*
X0003052412Y0000720011D01*
X0003053537Y0000717760D01*
X0003068160Y0000741383D02*
X0003069285Y0000742508D01*
X0003070410Y0000741383D01*
X0003069285Y0000740258D01*
X0003068160Y0000741383D01*
X0003070410Y0000741383D01*
X0003046788Y0000757131D02*
X0003046788Y0000759381D01*
X0003047912Y0000761631D01*
X0003049038Y0000762754D01*
X0003051287Y0000763880D01*
X0003055787Y0000765005D01*
X0003061411Y0000765005D01*
X0003065910Y0000763880D01*
X0003068160Y0000762754D01*
X0003069285Y0000761631D01*
X0003070410Y0000759381D01*
X0003070410Y0000757131D01*
X0003069285Y0000754881D01*
X0003068160Y0000753757D01*
X0003065910Y0000752631D01*
X0003061411Y0000751507D01*
X0003055787Y0000751507D01*
X0003051287Y0000752631D01*
X0003049038Y0000753757D01*
X0003047912Y0000754881D01*
X0003046788Y0000757131D01*
X0003629780Y0000422075D02*
X0003653402Y0000429949D01*
X0003629780Y0000437823D01*
X0003653402Y0000445697D02*
X0003637654Y0000445697D01*
X0003629780Y0000445697D02*
X0003630904Y0000444572D01*
X0003632030Y0000445697D01*
X0003630904Y0000446822D01*
X0003629780Y0000445697D01*
X0003632030Y0000445697D01*
X0003637654Y0000456946D02*
X0003653402Y0000456946D01*
X0003639904Y0000456946D02*
X0003638779Y0000458070D01*
X0003637654Y0000460320D01*
X0003637654Y0000463695D01*
X0003638779Y0000465944D01*
X0003641028Y0000467069D01*
X0003653402Y0000467069D01*
X0003177781Y0000090573D02*
X0003177781Y0000114195D01*
X0003183405Y0000114195D01*
X0003186779Y0000113070D01*
X0003189029Y0000110821D01*
X0003190154Y0000108571D01*
X0003191278Y0000104071D01*
X0003191278Y0000100697D01*
X0003190154Y0000096197D01*
X0003189029Y0000093948D01*
X0003186779Y0000091698D01*
X0003183405Y0000090573D01*
X0003177781Y0000090573D01*
X0003211526Y0000114195D02*
X0003207026Y0000114195D01*
X0003204777Y0000113070D01*
X0003203652Y0000111946D01*
X0003201403Y0000108571D01*
X0003200278Y0000104071D01*
X0003200278Y0000095073D01*
X0003201403Y0000092823D01*
X0003202527Y0000091698D01*
X0003204777Y0000090573D01*
X0003209277Y0000090573D01*
X0003211526Y0000091698D01*
X0003212651Y0000092823D01*
X0003213776Y0000095073D01*
X0003213776Y0000100697D01*
X0003212651Y0000102947D01*
X0003211526Y0000104071D01*
X0003209277Y0000105196D01*
X0003204777Y0000105196D01*
X0003202527Y0000104071D01*
X0003201403Y0000102947D01*
X0003200278Y0000100697D01*
X0003277781Y0000088073D02*
X0003277781Y0000111695D01*
X0003283405Y0000111695D01*
X0003286779Y0000110570D01*
X0003289028Y0000108321D01*
X0003290153Y0000106071D01*
X0003291279Y0000101572D01*
X0003291279Y0000098197D01*
X0003290153Y0000093697D01*
X0003289028Y0000091448D01*
X0003286779Y0000089198D01*
X0003283405Y0000088073D01*
X0003277781Y0000088073D01*
X0003299153Y0000111695D02*
X0003313776Y0000111695D01*
X0003305902Y0000102696D01*
X0003309277Y0000102696D01*
X0003311526Y0000101572D01*
X0003312651Y0000100447D01*
X0003313776Y0000098197D01*
X0003313776Y0000092573D01*
X0003312651Y0000090323D01*
X0003311526Y0000089198D01*
X0003309277Y0000088073D01*
X0003302527Y0000088073D01*
X0003300278Y0000089198D01*
X0003299153Y0000090323D01*
X0003378343Y0000097322D02*
X0003389592Y0000097322D01*
X0003376093Y0000090573D02*
X0003383967Y0000114195D01*
X0003391841Y0000090573D01*
X0003410964Y0000114195D02*
X0003399715Y0000114195D01*
X0003398590Y0000102947D01*
X0003399715Y0000104071D01*
X0003401965Y0000105196D01*
X0003407589Y0000105196D01*
X0003409839Y0000104071D01*
X0003410964Y0000102947D01*
X0003412089Y0000100697D01*
X0003412089Y0000095073D01*
X0003410964Y0000092823D01*
X0003409839Y0000091698D01*
X0003407589Y0000090573D01*
X0003401965Y0000090573D01*
X0003399715Y0000091698D01*
X0003398590Y0000092823D01*
X0003478343Y0000097322D02*
X0003489592Y0000097322D01*
X0003476093Y0000090573D02*
X0003483967Y0000114195D01*
X0003491841Y0000090573D01*
X0003509839Y0000106321D02*
X0003509839Y0000090573D01*
X0003504215Y0000115320D02*
X0003498590Y0000098447D01*
X0003513214Y0000098447D01*
X0003575843Y0000097322D02*
X0003587092Y0000097322D01*
X0003573593Y0000090573D02*
X0003581467Y0000114195D01*
X0003589341Y0000090573D01*
X0003594965Y0000114195D02*
X0003609588Y0000114195D01*
X0003601715Y0000105196D01*
X0003605089Y0000105196D01*
X0003607339Y0000104071D01*
X0003608464Y0000102947D01*
X0003609588Y0000100697D01*
X0003609588Y0000095073D01*
X0003608464Y0000092823D01*
X0003607339Y0000091698D01*
X0003605089Y0000090573D01*
X0003598340Y0000090573D01*
X0003596090Y0000091698D01*
X0003594965Y0000092823D01*
X0003651069Y0000074045D02*
X0003659023Y0000081998D01*
X0003654250Y0000067681D02*
X0003643115Y0000089952D01*
X0003665386Y0000078817D01*
X0003655046Y0000098702D02*
X0003655046Y0000100293D01*
X0003655841Y0000102679D01*
X0003659818Y0000106655D01*
X0003662204Y0000107451D01*
X0003663795Y0000107451D01*
X0003666181Y0000106655D01*
X0003667772Y0000105065D01*
X0003669363Y0000101882D01*
X0003669363Y0000082794D01*
X0003679702Y0000093134D01*
X0003644153Y0000134386D02*
X0003644153Y0000145635D01*
X0003650901Y0000132137D02*
X0003627280Y0000140011D01*
X0003650901Y0000147885D01*
X0003650901Y0000168132D02*
X0003650901Y0000154634D01*
X0003650901Y0000161383D02*
X0003627280Y0000161383D01*
X0003630654Y0000159133D01*
X0003632904Y0000156884D01*
X0003634029Y0000154634D01*
X0003644153Y0000231886D02*
X0003644153Y0000243135D01*
X0003650901Y0000229637D02*
X0003627280Y0000237511D01*
X0003650901Y0000245385D01*
X0003627280Y0000257758D02*
X0003627280Y0000260008D01*
X0003628405Y0000262258D01*
X0003629530Y0000263383D01*
X0003631779Y0000264507D01*
X0003636279Y0000265632D01*
X0003641903Y0000265632D01*
X0003646403Y0000264507D01*
X0003648652Y0000263383D01*
X0003649777Y0000262258D01*
X0003650901Y0000260008D01*
X0003650901Y0000257758D01*
X0003649777Y0000255509D01*
X0003648652Y0000254384D01*
X0003646403Y0000253259D01*
X0003641903Y0000252134D01*
X0003636279Y0000252134D01*
X0003631779Y0000253259D01*
X0003629530Y0000254384D01*
X0003628405Y0000255509D01*
X0003627280Y0000257758D01*
X0003630904Y0000328262D02*
X0003629780Y0000326012D01*
X0003629780Y0000322637D01*
X0003630904Y0000319263D01*
X0003633155Y0000317013D01*
X0003635404Y0000315887D01*
X0003639904Y0000314763D01*
X0003643278Y0000314763D01*
X0003647778Y0000315887D01*
X0003650027Y0000317013D01*
X0003652277Y0000319263D01*
X0003653402Y0000322637D01*
X0003653402Y0000324887D01*
X0003652277Y0000328262D01*
X0003651152Y0000329386D01*
X0003643278Y0000329386D01*
X0003643278Y0000324887D01*
X0003653402Y0000339510D02*
X0003629780Y0000339510D01*
X0003653402Y0000353009D01*
X0003629780Y0000353009D01*
X0003653402Y0000364257D02*
X0003629780Y0000364257D01*
X0003629780Y0000369881D01*
X0003630904Y0000373256D01*
X0003633155Y0000375506D01*
X0003635404Y0000376630D01*
X0003639904Y0000377755D01*
X0003643278Y0000377755D01*
X0003647778Y0000376630D01*
X0003650027Y0000375506D01*
X0003652277Y0000373256D01*
X0003653402Y0000369881D01*
X0003653402Y0000364257D01*
D38*
X0003073031Y0001020295D02*
X0003112401Y0001020295D01*
X0003112401Y0001087224D02*
X0003073031Y0001087224D01*
X0003206180Y0000624074D02*
X0003206180Y0000663444D01*
X0003139251Y0000663444D02*
X0003139251Y0000624074D01*
X0003407519Y0000411220D02*
X0003557913Y0000411220D01*
X0003557913Y0000411220D02*
X0003557913Y0000481299D01*
X0003557913Y0000481299D02*
X0003407519Y0000481299D01*
X0003407519Y0000411220D02*
X0003407519Y0000481299D01*
X0003170413Y0000983799D02*
X0003020019Y0000983799D01*
X0003020019Y0000983799D02*
X0003020019Y0000913720D01*
X0003020019Y0000913720D02*
X0003170413Y0000913720D01*
X0003170413Y0000983799D02*
X0003170413Y0000913720D01*
X0003196338Y0000249114D02*
X0003149094Y0000249114D01*
X0003149094Y0000318405D02*
X0003196338Y0000318405D01*
X0003196338Y0000166614D02*
X0003149094Y0000166614D01*
X0003149094Y0000235905D02*
X0003196338Y0000235905D01*
D37*
X0003623031Y0000896456D02*
X0003636062Y0000864173D01*
X0003545039Y0000864173D02*
X0003558069Y0000896456D01*
X0003558069Y0000896456D02*
X0003623031Y0000896456D01*
X0003655511Y0000864173D02*
X0003642519Y0000864173D01*
X0003642519Y0000864173D02*
X0003636062Y0000864173D01*
X0003525590Y0000864173D02*
X0003545039Y0000864173D01*
X0003551179Y0001003937D02*
X0003629921Y0001003937D01*
X0003629921Y0001003937D02*
X0003629921Y0000980313D01*
X0003629921Y0000980313D02*
X0003551179Y0000980313D01*
X0003551179Y0000980313D02*
X0003551179Y0001003937D01*
X0003525590Y0000864173D02*
G75*
G03X0003590551Y0000799212I0000064960D01*
G01*
X0003590551Y0000799212D02*
G75*
G03X0003655511Y0000864173J0000064960D01*
G01*
X0003655511Y0000944881D02*
X0003655511Y0000864173D01*
X0003525590Y0000944881D02*
X0003525590Y0000864173D01*
X0003655511Y0000944881D02*
X0003655511Y0001029527D01*
X0003655511Y0001029527D02*
X0003590551Y0001029527D01*
X0003590551Y0001029527D02*
X0003525590Y0001029527D01*
X0003525590Y0001029527D02*
X0003525590Y0000944881D01*
X0003687795Y0000772834D02*
X0003687795Y0000944881D01*
X0003687795Y0000944881D02*
X0003687795Y0000772834D01*
X0003687795Y0000772834D02*
X0003493306Y0000772834D01*
X0003493306Y0000772834D02*
X0003493306Y0000944881D01*
X0003687795Y0001066929D02*
X0003687795Y0000944881D01*
X0003493306Y0001066929D02*
X0003493306Y0000944881D01*
X0003493306Y0001066929D02*
X0003687795Y0001066929D01*
X0003361397Y0000962578D02*
X0003361397Y0001064940D01*
X0003259035Y0000962578D02*
X0003259035Y0001064940D01*
X0003235413Y0000962578D02*
X0003235413Y0001064940D01*
X0003235413Y0001064940D02*
X0003385018Y0001064940D01*
X0003385018Y0001064940D02*
X0003385018Y0000962578D01*
X0003385018Y0000962578D02*
X0003235413Y0000962578D01*
D39*
X0003349133Y0000788661D02*
G75*
G03X0003349133Y0000788661I-0000009842D01*
G01*
X0003334369Y0000824094D02*
X0003350117Y0000824094D01*
X0003389487Y0000824094D02*
X0003383582Y0000824094D01*
X0003235944Y0000824094D02*
X0003241849Y0000824094D01*
X0003389487Y0000824094D02*
X0003389487Y0000678425D01*
X0003275314Y0000678425D02*
X0003350117Y0000678425D01*
X0003235944Y0000824094D02*
X0003235944Y0000678425D01*
D40*
X0003275314Y0000824094D02*
X0003291061Y0000824094D01*
D38*
X0003362086Y0000307027D02*
X0003600669Y0000307027D01*
X0003600669Y0000307027D02*
X0003600669Y0000390492D01*
X0003600669Y0000390492D02*
X0003362086Y0000390492D01*
X0003362086Y0000390492D02*
X0003362086Y0000307027D01*
X0003322716Y0000307027D02*
X0003280984Y0000307027D01*
X0003280984Y0000307027D02*
X0003280984Y0000348759D01*
X0003557400Y0000752224D02*
X0003518031Y0000752224D01*
X0003518031Y0000685295D02*
X0003557400Y0000685295D01*
D40*
X0003277283Y0000639940D02*
G75*
G03X0003277283Y0000639940I-0000002952D01*
G01*
X0003363897Y0000628129D02*
X0003363897Y0000549389D01*
X0003261535Y0000549389D02*
X0003261535Y0000630098D01*
X0003091154Y0001104699D02*
X0003089279Y0001102824D01*
X0003083655Y0001100949D01*
X0003079906Y0001100949D01*
X0003074280Y0001102824D01*
X0003070532Y0001106573D01*
X0003068657Y0001110323D01*
X0003066782Y0001117822D01*
X0003066782Y0001123446D01*
X0003068657Y0001130945D01*
X0003070532Y0001134695D01*
X0003074280Y0001138444D01*
X0003079906Y0001140319D01*
X0003083655Y0001140319D01*
X0003089279Y0001138444D01*
X0003091154Y0001136570D01*
X0003128650Y0001100949D02*
X0003106152Y0001100949D01*
X0003117401Y0001100949D02*
X0003117401Y0001140319D01*
X0003113651Y0001134695D01*
X0003109902Y0001130945D01*
X0003106152Y0001129071D01*
X0003171154Y0000747199D02*
X0003169279Y0000745324D01*
X0003163655Y0000743448D01*
X0003159906Y0000743448D01*
X0003154281Y0000745324D01*
X0003150531Y0000749073D01*
X0003148657Y0000752823D01*
X0003146782Y0000760322D01*
X0003146782Y0000765946D01*
X0003148657Y0000773445D01*
X0003150531Y0000777195D01*
X0003154281Y0000780944D01*
X0003159906Y0000782819D01*
X0003163655Y0000782819D01*
X0003169279Y0000780944D01*
X0003171154Y0000779070D01*
X0003186152Y0000779070D02*
X0003188027Y0000780944D01*
X0003191777Y0000782819D01*
X0003201149Y0000782819D01*
X0003204899Y0000780944D01*
X0003206775Y0000779070D01*
X0003208650Y0000775320D01*
X0003208650Y0000771571D01*
X0003206775Y0000765946D01*
X0003184278Y0000743448D01*
X0003208650Y0000743448D01*
X0003509907Y0000535319D02*
X0003509907Y0000507198D01*
X0003508033Y0000501573D01*
X0003504283Y0000497824D01*
X0003498659Y0000495949D01*
X0003494909Y0000495949D01*
X0003528655Y0000495949D02*
X0003528655Y0000535319D01*
X0003543653Y0000535319D01*
X0003547403Y0000533444D01*
X0003549277Y0000531570D01*
X0003551151Y0000527820D01*
X0003551151Y0000522196D01*
X0003549277Y0000518445D01*
X0003547403Y0000516572D01*
X0003543653Y0000514696D01*
X0003528655Y0000514696D01*
X0003588648Y0000495949D02*
X0003566150Y0000495949D01*
X0003577399Y0000495949D02*
X0003577399Y0000535319D01*
X0003573650Y0000529695D01*
X0003569900Y0000525945D01*
X0003566150Y0000524070D01*
X0003057407Y0000900318D02*
X0003057407Y0000872198D01*
X0003055533Y0000866573D01*
X0003051783Y0000862824D01*
X0003046159Y0000860949D01*
X0003042409Y0000860949D01*
X0003076154Y0000860949D02*
X0003076154Y0000900318D01*
X0003091153Y0000900318D01*
X0003094903Y0000898444D01*
X0003096778Y0000896570D01*
X0003098652Y0000892820D01*
X0003098652Y0000887195D01*
X0003096778Y0000883446D01*
X0003094903Y0000881572D01*
X0003091153Y0000879697D01*
X0003076154Y0000879697D01*
X0003113650Y0000896570D02*
X0003115525Y0000898444D01*
X0003119275Y0000900318D01*
X0003128648Y0000900318D01*
X0003132398Y0000898444D01*
X0003134273Y0000896570D01*
X0003136148Y0000892820D01*
X0003136148Y0000889071D01*
X0003134273Y0000883446D01*
X0003111776Y0000860949D01*
X0003136148Y0000860949D01*
X0003101153Y0000330949D02*
X0003088031Y0000349697D01*
X0003078657Y0000330949D02*
X0003078657Y0000370319D01*
X0003093655Y0000370319D01*
X0003097405Y0000368444D01*
X0003099279Y0000366569D01*
X0003101153Y0000362820D01*
X0003101153Y0000357196D01*
X0003099279Y0000353446D01*
X0003097405Y0000351572D01*
X0003093655Y0000349697D01*
X0003078657Y0000349697D01*
X0003138650Y0000330949D02*
X0003116152Y0000330949D01*
X0003127401Y0000330949D02*
X0003127401Y0000370319D01*
X0003123651Y0000364695D01*
X0003119902Y0000360945D01*
X0003116152Y0000359071D01*
X0003096153Y0000113449D02*
X0003083031Y0000132197D01*
X0003073657Y0000113449D02*
X0003073657Y0000152819D01*
X0003088655Y0000152819D01*
X0003092405Y0000150944D01*
X0003094279Y0000149070D01*
X0003096153Y0000145320D01*
X0003096153Y0000139696D01*
X0003094279Y0000135946D01*
X0003092405Y0000134071D01*
X0003088655Y0000132197D01*
X0003073657Y0000132197D01*
X0003111152Y0000149070D02*
X0003113027Y0000150944D01*
X0003116777Y0000152819D01*
X0003126150Y0000152819D01*
X0003129900Y0000150944D01*
X0003131775Y0000149070D01*
X0003133650Y0000145320D01*
X0003133650Y0000141571D01*
X0003131775Y0000135946D01*
X0003109278Y0000113449D01*
X0003133650Y0000113449D01*
D37*
X0003515851Y0001092824D02*
X0003521476Y0001090949D01*
X0003530850Y0001090949D01*
X0003534598Y0001092824D01*
X0003536474Y0001094699D01*
X0003538349Y0001098448D01*
X0003538349Y0001102198D01*
X0003536474Y0001105947D01*
X0003534598Y0001107822D01*
X0003530850Y0001109697D01*
X0003523350Y0001111572D01*
X0003519601Y0001113446D01*
X0003517726Y0001115321D01*
X0003515851Y0001119071D01*
X0003515851Y0001122820D01*
X0003517726Y0001126570D01*
X0003519601Y0001128444D01*
X0003523350Y0001130319D01*
X0003532724Y0001130319D01*
X0003538349Y0001128444D01*
X0003555222Y0001090949D02*
X0003555222Y0001130319D01*
X0003555222Y0001111572D02*
X0003577719Y0001111572D01*
X0003577719Y0001090949D02*
X0003577719Y0001130319D01*
X0003590842Y0001130319D02*
X0003613339Y0001130319D01*
X0003602091Y0001090949D02*
X0003602091Y0001130319D01*
X0003647085Y0001090949D02*
X0003624588Y0001090949D01*
X0003635836Y0001090949D02*
X0003635836Y0001130319D01*
X0003632087Y0001124695D01*
X0003628337Y0001120945D01*
X0003624588Y0001119071D01*
X0003671457Y0001130319D02*
X0003675207Y0001130319D01*
X0003678956Y0001128444D01*
X0003680831Y0001126570D01*
X0003682706Y0001122820D01*
X0003684580Y0001115321D01*
X0003684580Y0001105947D01*
X0003682706Y0001098448D01*
X0003680831Y0001094699D01*
X0003678956Y0001092824D01*
X0003675207Y0001090949D01*
X0003671457Y0001090949D01*
X0003667707Y0001092824D01*
X0003665833Y0001094699D01*
X0003663958Y0001098448D01*
X0003662083Y0001105947D01*
X0003662083Y0001115321D01*
X0003663958Y0001122820D01*
X0003665833Y0001126570D01*
X0003667707Y0001128444D01*
X0003671457Y0001130319D01*
X0003201792Y0001127819D02*
X0003224291Y0001127819D01*
X0003213042Y0001088449D02*
X0003213042Y0001127819D01*
X0003235539Y0001090324D02*
X0003241164Y0001088449D01*
X0003250537Y0001088449D01*
X0003254287Y0001090324D01*
X0003256162Y0001092199D01*
X0003258036Y0001095948D01*
X0003258036Y0001099698D01*
X0003256162Y0001103447D01*
X0003254287Y0001105322D01*
X0003250537Y0001107197D01*
X0003243038Y0001109072D01*
X0003239289Y0001110946D01*
X0003237413Y0001112821D01*
X0003235539Y0001116571D01*
X0003235539Y0001120320D01*
X0003237413Y0001124070D01*
X0003239289Y0001125944D01*
X0003243038Y0001127819D01*
X0003252412Y0001127819D01*
X0003258036Y0001125944D01*
X0003293657Y0001088449D02*
X0003274909Y0001088449D01*
X0003274909Y0001127819D01*
X0003304906Y0001124070D02*
X0003306780Y0001125944D01*
X0003310529Y0001127819D01*
X0003319904Y0001127819D01*
X0003323653Y0001125944D01*
X0003325528Y0001124070D01*
X0003327403Y0001120320D01*
X0003327403Y0001116571D01*
X0003325528Y0001110946D01*
X0003303031Y0001088449D01*
X0003327403Y0001088449D01*
X0003363023Y0001127819D02*
X0003344276Y0001127819D01*
X0003342401Y0001109072D01*
X0003344276Y0001110946D01*
X0003348025Y0001112821D01*
X0003357399Y0001112821D01*
X0003361149Y0001110946D01*
X0003363023Y0001109072D01*
X0003364898Y0001105322D01*
X0003364898Y0001095948D01*
X0003363023Y0001092199D01*
X0003361149Y0001090324D01*
X0003357399Y0001088449D01*
X0003348025Y0001088449D01*
X0003344276Y0001090324D01*
X0003342401Y0001092199D01*
X0003398644Y0001127819D02*
X0003391145Y0001127819D01*
X0003387395Y0001125944D01*
X0003385521Y0001124070D01*
X0003381771Y0001118445D01*
X0003379896Y0001110946D01*
X0003379896Y0001095948D01*
X0003381771Y0001092199D01*
X0003383645Y0001090324D01*
X0003387395Y0001088449D01*
X0003394894Y0001088449D01*
X0003398644Y0001090324D01*
X0003400519Y0001092199D01*
X0003402393Y0001095948D01*
X0003402393Y0001105322D01*
X0003400519Y0001109072D01*
X0003398644Y0001110946D01*
X0003394894Y0001112821D01*
X0003387395Y0001112821D01*
X0003383645Y0001110946D01*
X0003381771Y0001109072D01*
X0003379896Y0001105322D01*
X0003439889Y0001088449D02*
X0003417392Y0001088449D01*
X0003428640Y0001088449D02*
X0003428640Y0001127819D01*
X0003424891Y0001122195D01*
X0003421141Y0001118445D01*
X0003417392Y0001116571D01*
X0003424289Y0000255948D02*
X0003424289Y0000295319D01*
X0003433663Y0000295319D01*
X0003439287Y0000293444D01*
X0003443036Y0000289695D01*
X0003444911Y0000285945D01*
X0003446786Y0000278446D01*
X0003446786Y0000272822D01*
X0003444911Y0000265323D01*
X0003443036Y0000261573D01*
X0003439287Y0000257824D01*
X0003433663Y0000255948D01*
X0003424289Y0000255948D01*
X0003463659Y0000255948D02*
X0003463659Y0000295319D01*
X0003463659Y0000276572D02*
X0003486156Y0000276572D01*
X0003486156Y0000255948D02*
X0003486156Y0000295319D01*
X0003499279Y0000295319D02*
X0003521777Y0000295319D01*
X0003510528Y0000255948D02*
X0003510528Y0000295319D01*
X0003555522Y0000255948D02*
X0003533025Y0000255948D01*
X0003544274Y0000255948D02*
X0003544274Y0000295319D01*
X0003540524Y0000289695D01*
X0003536775Y0000285945D01*
X0003533025Y0000284071D01*
X0003593018Y0000255948D02*
X0003570521Y0000255948D01*
X0003581769Y0000255948D02*
X0003581769Y0000295319D01*
X0003578020Y0000289695D01*
X0003574270Y0000285945D01*
X0003570521Y0000284071D01*
D40*
X0003531154Y0000773596D02*
X0003529279Y0000771721D01*
X0003523655Y0000769846D01*
X0003519906Y0000769846D01*
X0003514281Y0000771721D01*
X0003510532Y0000775470D01*
X0003508656Y0000779221D01*
X0003506782Y0000786720D01*
X0003506782Y0000792344D01*
X0003508656Y0000799843D01*
X0003510532Y0000803592D01*
X0003514281Y0000807342D01*
X0003519906Y0000809217D01*
X0003523655Y0000809217D01*
X0003529279Y0000807342D01*
X0003531154Y0000805467D01*
X0003544278Y0000809217D02*
X0003568650Y0000809217D01*
X0003555526Y0000794219D01*
X0003561150Y0000794219D01*
X0003564900Y0000792344D01*
X0003566775Y0000790469D01*
X0003568650Y0000786720D01*
X0003568650Y0000777346D01*
X0003566775Y0000773596D01*
X0003564900Y0000771721D01*
X0003561150Y0000769846D01*
X0003549902Y0000769846D01*
X0003546152Y0000771721D01*
X0003544278Y0000773596D01*
D36*
X0003264909Y0000517665D02*
X0003267722Y0000516727D01*
X0003268659Y0000515791D01*
X0003269596Y0000513916D01*
X0003269596Y0000511104D01*
X0003268659Y0000509229D01*
X0003267722Y0000508291D01*
X0003265847Y0000507354D01*
X0003258348Y0000507354D01*
X0003258348Y0000527039D01*
X0003264909Y0000527039D01*
X0003266784Y0000526102D01*
X0003267722Y0000525164D01*
X0003268659Y0000523290D01*
X0003268659Y0000521414D01*
X0003267722Y0000519540D01*
X0003266784Y0000518603D01*
X0003264909Y0000517665D01*
X0003258348Y0000517665D01*
X0003278033Y0000507354D02*
X0003278033Y0000527039D01*
X0003284594Y0000512978D01*
X0003291156Y0000527039D01*
X0003291156Y0000507354D01*
X0003300530Y0000507354D02*
X0003300530Y0000527039D01*
X0003308029Y0000527039D01*
X0003309904Y0000526102D01*
X0003310840Y0000525164D01*
X0003311779Y0000523290D01*
X0003311779Y0000520478D01*
X0003310840Y0000518603D01*
X0003309904Y0000517665D01*
X0003308029Y0000516727D01*
X0003300530Y0000516727D01*
X0003319277Y0000525164D02*
X0003320215Y0000526102D01*
X0003322090Y0000527039D01*
X0003326777Y0000527039D01*
X0003328651Y0000526102D01*
X0003329589Y0000525164D01*
X0003330526Y0000523290D01*
X0003330526Y0000521414D01*
X0003329589Y0000518603D01*
X0003318340Y0000507354D01*
X0003330526Y0000507354D01*
X0003341775Y0000518603D02*
X0003339900Y0000519540D01*
X0003338963Y0000520478D01*
X0003338025Y0000522352D01*
X0003338025Y0000523290D01*
X0003338963Y0000525164D01*
X0003339900Y0000526102D01*
X0003341775Y0000527039D01*
X0003345523Y0000527039D01*
X0003347399Y0000526102D01*
X0003348336Y0000525164D01*
X0003349274Y0000523290D01*
X0003349274Y0000522352D01*
X0003348336Y0000520478D01*
X0003347399Y0000519540D01*
X0003345523Y0000518603D01*
X0003341775Y0000518603D01*
X0003339900Y0000517665D01*
X0003338963Y0000516727D01*
X0003338025Y0000514853D01*
X0003338025Y0000511104D01*
X0003338963Y0000509229D01*
X0003339900Y0000508291D01*
X0003341775Y0000507354D01*
X0003345523Y0000507354D01*
X0003347399Y0000508291D01*
X0003348336Y0000509229D01*
X0003349274Y0000511104D01*
X0003349274Y0000514853D01*
X0003348336Y0000516727D01*
X0003347399Y0000517665D01*
X0003345523Y0000518603D01*
X0003361460Y0000527039D02*
X0003363335Y0000527039D01*
X0003365209Y0000526102D01*
X0003366147Y0000525164D01*
X0003367084Y0000523290D01*
X0003368021Y0000519540D01*
X0003368021Y0000514853D01*
X0003367084Y0000511104D01*
X0003366147Y0000509229D01*
X0003365209Y0000508291D01*
X0003363335Y0000507354D01*
X0003361460Y0000507354D01*
X0003359584Y0000508291D01*
X0003358648Y0000509229D01*
X0003357710Y0000511104D01*
X0003356773Y0000514853D01*
X0003356773Y0000519540D01*
X0003357710Y0000523290D01*
X0003358648Y0000525164D01*
X0003359584Y0000526102D01*
X0003361460Y0000527039D01*
G01*
D51*
D52*
X0003293775Y0001383842D02*
X0003280652Y0001402590D01*
X0003271277Y0001383842D02*
X0003271277Y0001423213D01*
X0003286276Y0001423213D01*
X0003290026Y0001421337D01*
X0003291901Y0001419463D01*
X0003293775Y0001415714D01*
X0003293775Y0001410088D01*
X0003291901Y0001406340D01*
X0003290026Y0001404465D01*
X0003286276Y0001402590D01*
X0003271277Y0001402590D01*
X0003325646Y0001385718D02*
X0003321897Y0001383842D01*
X0003314398Y0001383842D01*
X0003310648Y0001385718D01*
X0003308773Y0001389467D01*
X0003308773Y0001404465D01*
X0003310648Y0001408214D01*
X0003314398Y0001410088D01*
X0003321897Y0001410088D01*
X0003325646Y0001408214D01*
X0003327521Y0001404465D01*
X0003327521Y0001400716D01*
X0003308773Y0001396965D01*
X0003342519Y0001385718D02*
X0003346269Y0001383842D01*
X0003353768Y0001383842D01*
X0003357516Y0001385718D01*
X0003359392Y0001389467D01*
X0003359392Y0001391342D01*
X0003357516Y0001395091D01*
X0003353768Y0001396965D01*
X0003348143Y0001396965D01*
X0003344394Y0001398841D01*
X0003342519Y0001402590D01*
X0003342519Y0001404465D01*
X0003344394Y0001408214D01*
X0003348143Y0001410088D01*
X0003353768Y0001410088D01*
X0003357516Y0001408214D01*
X0003391263Y0001385718D02*
X0003387514Y0001383842D01*
X0003380015Y0001383842D01*
X0003376265Y0001385718D01*
X0003374390Y0001389467D01*
X0003374390Y0001404465D01*
X0003376265Y0001408214D01*
X0003380015Y0001410088D01*
X0003387514Y0001410088D01*
X0003391263Y0001408214D01*
X0003393138Y0001404465D01*
X0003393138Y0001400716D01*
X0003374390Y0001396965D01*
X0003404386Y0001410088D02*
X0003419385Y0001410088D01*
X0003410010Y0001423213D02*
X0003410010Y0001389467D01*
X0003411886Y0001385718D01*
X0003415635Y0001383842D01*
X0003419385Y0001383842D01*
G04 next file*
%LPD*%
G01*
D63*
D64*
X0003293775Y0002683055D02*
X0003280652Y0002701803D01*
X0003271277Y0002683055D02*
X0003271277Y0002722425D01*
X0003286276Y0002722425D01*
X0003290026Y0002720551D01*
X0003291901Y0002718676D01*
X0003293775Y0002714926D01*
X0003293775Y0002709302D01*
X0003291901Y0002705553D01*
X0003290026Y0002703678D01*
X0003286276Y0002701803D01*
X0003271277Y0002701803D01*
X0003325646Y0002684930D02*
X0003321897Y0002683055D01*
X0003314398Y0002683055D01*
X0003310648Y0002684930D01*
X0003308773Y0002688680D01*
X0003308773Y0002703678D01*
X0003310648Y0002707427D01*
X0003314398Y0002709302D01*
X0003321897Y0002709302D01*
X0003325646Y0002707427D01*
X0003327521Y0002703678D01*
X0003327521Y0002699928D01*
X0003308773Y0002696179D01*
X0003342519Y0002684930D02*
X0003346269Y0002683055D01*
X0003353768Y0002683055D01*
X0003357516Y0002684930D01*
X0003359392Y0002688680D01*
X0003359392Y0002690554D01*
X0003357516Y0002694304D01*
X0003353768Y0002696179D01*
X0003348143Y0002696179D01*
X0003344394Y0002698053D01*
X0003342519Y0002701803D01*
X0003342519Y0002703678D01*
X0003344394Y0002707427D01*
X0003348143Y0002709302D01*
X0003353768Y0002709302D01*
X0003357516Y0002707427D01*
X0003391263Y0002684930D02*
X0003387514Y0002683055D01*
X0003380015Y0002683055D01*
X0003376265Y0002684930D01*
X0003374390Y0002688680D01*
X0003374390Y0002703678D01*
X0003376265Y0002707427D01*
X0003380015Y0002709302D01*
X0003387514Y0002709302D01*
X0003391263Y0002707427D01*
X0003393138Y0002703678D01*
X0003393138Y0002699928D01*
X0003374390Y0002696179D01*
X0003404386Y0002709302D02*
X0003419385Y0002709302D01*
X0003410010Y0002722425D02*
X0003410010Y0002688680D01*
X0003411886Y0002684930D01*
X0003415635Y0002683055D01*
X0003419385Y0002683055D01*
G01*
D75*
D76*
X0000333145Y0002643685D02*
X0000320022Y0002662432D01*
X0000310648Y0002643685D02*
X0000310648Y0002683055D01*
X0000325645Y0002683055D01*
X0000329396Y0002681181D01*
X0000331271Y0002679306D01*
X0000333145Y0002675556D01*
X0000333145Y0002669932D01*
X0000331271Y0002666182D01*
X0000329396Y0002664308D01*
X0000325645Y0002662432D01*
X0000310648Y0002662432D01*
X0000365016Y0002645560D02*
X0000361267Y0002643685D01*
X0000353768Y0002643685D01*
X0000350018Y0002645560D01*
X0000348143Y0002649310D01*
X0000348143Y0002664308D01*
X0000350018Y0002668057D01*
X0000353768Y0002669932D01*
X0000361267Y0002669932D01*
X0000365016Y0002668057D01*
X0000366891Y0002664308D01*
X0000366891Y0002660558D01*
X0000348143Y0002656809D01*
X0000381888Y0002645560D02*
X0000385639Y0002643685D01*
X0000393138Y0002643685D01*
X0000396887Y0002645560D01*
X0000398762Y0002649310D01*
X0000398762Y0002651184D01*
X0000396887Y0002654934D01*
X0000393138Y0002656809D01*
X0000387514Y0002656809D01*
X0000383764Y0002658683D01*
X0000381888Y0002662432D01*
X0000381888Y0002664308D01*
X0000383764Y0002668057D01*
X0000387514Y0002669932D01*
X0000393138Y0002669932D01*
X0000396887Y0002668057D01*
X0000430633Y0002645560D02*
X0000426884Y0002643685D01*
X0000419385Y0002643685D01*
X0000415634Y0002645560D01*
X0000413760Y0002649310D01*
X0000413760Y0002664308D01*
X0000415634Y0002668057D01*
X0000419385Y0002669932D01*
X0000426884Y0002669932D01*
X0000430633Y0002668057D01*
X0000432508Y0002664308D01*
X0000432508Y0002660558D01*
X0000413760Y0002656809D01*
X0000443757Y0002669932D02*
X0000458755Y0002669932D01*
X0000449381Y0002683055D02*
X0000449381Y0002649310D01*
X0000451256Y0002645560D01*
X0000455005Y0002643685D01*
X0000458755Y0002643685D01*
G04 next file*
G01*
D87*
D88*
X0000470842Y0001440792D02*
X0000457719Y0001459539D01*
X0000448345Y0001440792D02*
X0000448345Y0001480162D01*
X0000463343Y0001480162D01*
X0000467093Y0001478287D01*
X0000468967Y0001476412D01*
X0000470842Y0001472663D01*
X0000470842Y0001467038D01*
X0000468967Y0001463289D01*
X0000467093Y0001461414D01*
X0000463343Y0001459539D01*
X0000448345Y0001459539D01*
X0000502712Y0001442666D02*
X0000498963Y0001440792D01*
X0000491465Y0001440792D01*
X0000487715Y0001442666D01*
X0000485840Y0001446416D01*
X0000485840Y0001461414D01*
X0000487715Y0001465164D01*
X0000491465Y0001467038D01*
X0000498963Y0001467038D01*
X0000502712Y0001465164D01*
X0000504588Y0001461414D01*
X0000504588Y0001457664D01*
X0000485840Y0001453915D01*
X0000519586Y0001442666D02*
X0000523336Y0001440792D01*
X0000530835Y0001440792D01*
X0000534584Y0001442666D01*
X0000536459Y0001446416D01*
X0000536459Y0001448291D01*
X0000534584Y0001452040D01*
X0000530835Y0001453915D01*
X0000525210Y0001453915D01*
X0000521460Y0001455790D01*
X0000519586Y0001459539D01*
X0000519586Y0001461414D01*
X0000521460Y0001465164D01*
X0000525210Y0001467038D01*
X0000530835Y0001467038D01*
X0000534584Y0001465164D01*
X0000568330Y0001442666D02*
X0000564581Y0001440792D01*
X0000557081Y0001440792D01*
X0000553332Y0001442666D01*
X0000551457Y0001446416D01*
X0000551457Y0001461414D01*
X0000553332Y0001465164D01*
X0000557081Y0001467038D01*
X0000564581Y0001467038D01*
X0000568330Y0001465164D01*
X0000570205Y0001461414D01*
X0000570205Y0001457664D01*
X0000551457Y0001453915D01*
X0000581453Y0001467038D02*
X0000596451Y0001467038D01*
X0000587078Y0001480162D02*
X0000587078Y0001446416D01*
X0000588952Y0001442666D01*
X0000592702Y0001440792D01*
X0000596451Y0001440792D01*
X0000253973Y0002126414D02*
X0000259597Y0002124539D01*
X0000261471Y0002122664D01*
X0000263347Y0002118915D01*
X0000263347Y0002113291D01*
X0000261471Y0002109541D01*
X0000259597Y0002107666D01*
X0000255848Y0002105792D01*
X0000240850Y0002105792D01*
X0000240850Y0002145162D01*
X0000253973Y0002145162D01*
X0000257722Y0002143287D01*
X0000259597Y0002141412D01*
X0000261471Y0002137663D01*
X0000261471Y0002133913D01*
X0000259597Y0002130164D01*
X0000257722Y0002128289D01*
X0000253973Y0002126414D01*
X0000240850Y0002126414D01*
X0000280220Y0002105792D02*
X0000280220Y0002145162D01*
X0000293343Y0002117040D01*
X0000306467Y0002145162D01*
X0000306467Y0002105792D01*
X0000325214Y0002105792D02*
X0000325214Y0002145162D01*
X0000340211Y0002145162D01*
X0000343962Y0002143287D01*
X0000345837Y0002141412D01*
X0000347711Y0002137663D01*
X0000347711Y0002132038D01*
X0000345837Y0002128289D01*
X0000343962Y0002126414D01*
X0000340211Y0002124539D01*
X0000325214Y0002124539D01*
X0000385207Y0002105792D02*
X0000362709Y0002105792D01*
X0000373958Y0002105792D02*
X0000373958Y0002145162D01*
X0000370208Y0002139537D01*
X0000366459Y0002135788D01*
X0000362709Y0002133913D01*
X0000407704Y0002128289D02*
X0000403954Y0002130164D01*
X0000402080Y0002132038D01*
X0000400205Y0002135788D01*
X0000400205Y0002137663D01*
X0000402080Y0002141412D01*
X0000403954Y0002143287D01*
X0000407704Y0002145162D01*
X0000415203Y0002145162D01*
X0000418952Y0002143287D01*
X0000420827Y0002141412D01*
X0000422702Y0002137663D01*
X0000422702Y0002135788D01*
X0000420827Y0002132038D01*
X0000418952Y0002130164D01*
X0000415203Y0002128289D01*
X0000407704Y0002128289D01*
X0000403954Y0002126414D01*
X0000402080Y0002124539D01*
X0000400205Y0002120790D01*
X0000400205Y0002113291D01*
X0000402080Y0002109541D01*
X0000403954Y0002107666D01*
X0000407704Y0002105792D01*
X0000415203Y0002105792D01*
X0000418952Y0002107666D01*
X0000420827Y0002109541D01*
X0000422702Y0002113291D01*
X0000422702Y0002120790D01*
X0000420827Y0002124539D01*
X0000418952Y0002126414D01*
X0000415203Y0002128289D01*
X0000447074Y0002145162D02*
X0000450823Y0002145162D01*
X0000454573Y0002143287D01*
X0000456448Y0002141412D01*
X0000458322Y0002137663D01*
X0000460197Y0002130164D01*
X0000460197Y0002120790D01*
X0000458322Y0002113291D01*
X0000456448Y0002109541D01*
X0000454573Y0002107666D01*
X0000450823Y0002105792D01*
X0000447074Y0002105792D01*
X0000443324Y0002107666D01*
X0000441450Y0002109541D01*
X0000439574Y0002113291D01*
X0000437700Y0002120790D01*
X0000437700Y0002130164D01*
X0000439574Y0002137663D01*
X0000441450Y0002141412D01*
X0000443324Y0002143287D01*
X0000447074Y0002145162D01*
D87*
X0000078900Y0001528537D02*
X0000102522Y0001528537D01*
X0000102522Y0001522913D01*
X0000101397Y0001519538D01*
X0000099147Y0001517289D01*
X0000096898Y0001516164D01*
X0000092398Y0001515039D01*
X0000089024Y0001515039D01*
X0000084524Y0001516164D01*
X0000082275Y0001517289D01*
X0000080025Y0001519538D01*
X0000078900Y0001522913D01*
X0000078900Y0001528537D01*
X0000102522Y0001507165D02*
X0000102522Y0001491416D01*
X0000078900Y0001501541D01*
X0000091273Y0001618163D02*
X0000090149Y0001614789D01*
X0000089024Y0001613663D01*
X0000086774Y0001612539D01*
X0000083399Y0001612539D01*
X0000081150Y0001613663D01*
X0000080025Y0001614789D01*
X0000078900Y0001617038D01*
X0000078900Y0001626037D01*
X0000102522Y0001626037D01*
X0000102522Y0001618163D01*
X0000101397Y0001615913D01*
X0000100272Y0001614789D01*
X0000098023Y0001613663D01*
X0000095773Y0001613663D01*
X0000093523Y0001614789D01*
X0000092398Y0001615913D01*
X0000091273Y0001618163D01*
X0000091273Y0001626037D01*
X0000078900Y0001590042D02*
X0000078900Y0001603540D01*
X0000078900Y0001596791D02*
X0000102522Y0001596791D01*
X0000099147Y0001599041D01*
X0000096898Y0001601290D01*
X0000095773Y0001603540D01*
X0000102522Y0001740098D02*
X0000078900Y0001732224D01*
X0000102522Y0001724350D01*
X0000081150Y0001702978D02*
X0000080025Y0001704102D01*
X0000078900Y0001707477D01*
X0000078900Y0001709726D01*
X0000080025Y0001713101D01*
X0000082275Y0001715351D01*
X0000084524Y0001716476D01*
X0000089024Y0001717601D01*
X0000092398Y0001717601D01*
X0000096898Y0001716476D01*
X0000099147Y0001715351D01*
X0000101397Y0001713101D01*
X0000102522Y0001709726D01*
X0000102522Y0001707477D01*
X0000101397Y0001704102D01*
X0000100272Y0001702978D01*
X0000081150Y0001679356D02*
X0000080025Y0001680480D01*
X0000078900Y0001683855D01*
X0000078900Y0001686105D01*
X0000080025Y0001689479D01*
X0000082275Y0001691729D01*
X0000084524Y0001692854D01*
X0000089024Y0001693979D01*
X0000092398Y0001693979D01*
X0000096898Y0001692854D01*
X0000099147Y0001691729D01*
X0000101397Y0001689479D01*
X0000102522Y0001686105D01*
X0000102522Y0001683855D01*
X0000101397Y0001680480D01*
X0000100272Y0001679356D01*
X0000101397Y0001824099D02*
X0000102522Y0001826349D01*
X0000102522Y0001829724D01*
X0000101397Y0001833096D01*
X0000099147Y0001835348D01*
X0000096898Y0001836473D01*
X0000092398Y0001837598D01*
X0000089024Y0001837598D01*
X0000084524Y0001836473D01*
X0000082275Y0001835348D01*
X0000080025Y0001833096D01*
X0000078900Y0001829724D01*
X0000078900Y0001827474D01*
X0000080025Y0001824099D01*
X0000081150Y0001822975D01*
X0000089024Y0001822975D01*
X0000089024Y0001827474D01*
X0000078900Y0001812850D02*
X0000102522Y0001812850D01*
X0000078900Y0001799353D01*
X0000102522Y0001799353D01*
X0000078900Y0001788104D02*
X0000102522Y0001788104D01*
X0000102522Y0001782480D01*
X0000101397Y0001779105D01*
X0000099147Y0001776856D01*
X0000096898Y0001775731D01*
X0000092398Y0001774604D01*
X0000089024Y0001774604D01*
X0000084524Y0001775731D01*
X0000082275Y0001776856D01*
X0000080025Y0001779105D01*
X0000078900Y0001782480D01*
X0000078900Y0001788104D01*
X0000035764Y0001911237D02*
X0000012142Y0001911237D01*
X0000023391Y0001911237D02*
X0000023391Y0001924735D01*
X0000035764Y0001924735D02*
X0000012142Y0001924735D01*
X0000035764Y0001935984D02*
X0000012142Y0001935984D01*
X0000029014Y0001943858D01*
X0000012142Y0001951732D01*
X0000035764Y0001951732D01*
X0000034640Y0001961856D02*
X0000035764Y0001965230D01*
X0000035764Y0001970854D01*
X0000034640Y0001973104D01*
X0000033515Y0001974229D01*
X0000031265Y0001975354D01*
X0000029014Y0001975354D01*
X0000026765Y0001974229D01*
X0000025641Y0001973104D01*
X0000024516Y0001970854D01*
X0000023391Y0001966355D01*
X0000022266Y0001964105D01*
X0000021141Y0001962980D01*
X0000018892Y0001961856D01*
X0000016642Y0001961856D01*
X0000014391Y0001962980D01*
X0000013267Y0001964105D01*
X0000012142Y0001966355D01*
X0000012142Y0001971979D01*
X0000013267Y0001975354D01*
X0000034640Y0001994476D02*
X0000035764Y0001992227D01*
X0000035764Y0001987727D01*
X0000034640Y0001985478D01*
X0000032390Y0001984353D01*
X0000023391Y0001984353D01*
X0000021141Y0001985478D01*
X0000020016Y0001987727D01*
X0000020016Y0001992227D01*
X0000021141Y0001994476D01*
X0000023391Y0001995601D01*
X0000025641Y0001995601D01*
X0000027890Y0001984353D01*
X0000020016Y0002005725D02*
X0000035764Y0002005725D01*
X0000022266Y0002005725D02*
X0000021141Y0002006850D01*
X0000020016Y0002009100D01*
X0000020016Y0002012474D01*
X0000021141Y0002014724D01*
X0000023391Y0002015848D01*
X0000035764Y0002015848D01*
X0000034640Y0002025973D02*
X0000035764Y0002028222D01*
X0000035764Y0002032722D01*
X0000034640Y0002034971D01*
X0000032390Y0002036096D01*
X0000031265Y0002036096D01*
X0000029014Y0002034971D01*
X0000027890Y0002032722D01*
X0000027890Y0002029347D01*
X0000026765Y0002027097D01*
X0000024516Y0002025973D01*
X0000023391Y0002025973D01*
X0000021141Y0002027097D01*
X0000020016Y0002029347D01*
X0000020016Y0002032722D01*
X0000021141Y0002034971D01*
X0000035764Y0002049595D02*
X0000034640Y0002047345D01*
X0000033515Y0002046220D01*
X0000031265Y0002045095D01*
X0000024516Y0002045095D01*
X0000022266Y0002046220D01*
X0000021141Y0002047345D01*
X0000020016Y0002049595D01*
X0000020016Y0002052969D01*
X0000021141Y0002055219D01*
X0000022266Y0002056344D01*
X0000024516Y0002057469D01*
X0000031265Y0002057469D01*
X0000033515Y0002056344D01*
X0000034640Y0002055219D01*
X0000035764Y0002052969D01*
X0000035764Y0002049595D01*
X0000035764Y0002067591D02*
X0000020016Y0002067591D01*
X0000024516Y0002067591D02*
X0000022266Y0002068717D01*
X0000021141Y0002069842D01*
X0000020016Y0002072092D01*
X0000020016Y0002074341D01*
X0000072772Y0001910112D02*
X0000049150Y0001910112D01*
X0000043525Y0001920236D02*
X0000042400Y0001922484D01*
X0000042400Y0001925860D01*
X0000043525Y0001928110D01*
X0000045776Y0001929235D01*
X0000048024Y0001929235D01*
X0000050275Y0001928110D01*
X0000058149Y0001920236D01*
X0000058149Y0001929235D01*
X0000070523Y0001952856D02*
X0000071647Y0001951732D01*
X0000072772Y0001948357D01*
X0000072772Y0001946107D01*
X0000071647Y0001942733D01*
X0000069398Y0001940483D01*
X0000067148Y0001939358D01*
X0000062647Y0001938233D01*
X0000059274Y0001938233D01*
X0000054775Y0001939358D01*
X0000052525Y0001940483D01*
X0000050275Y0001942733D01*
X0000049150Y0001946107D01*
X0000049150Y0001948357D01*
X0000050275Y0001951732D01*
X0000051400Y0001952856D01*
X0000060399Y0001988852D02*
X0000061524Y0001992227D01*
X0000062647Y0001993352D01*
X0000064898Y0001994476D01*
X0000068273Y0001994476D01*
X0000070523Y0001993352D01*
X0000071647Y0001992227D01*
X0000072772Y0001989977D01*
X0000072772Y0001980976D01*
X0000049150Y0001980976D01*
X0000049150Y0001988852D01*
X0000050275Y0001991102D01*
X0000051400Y0001992227D01*
X0000053650Y0001993352D01*
X0000055899Y0001993352D01*
X0000058149Y0001992227D01*
X0000059274Y0001991102D01*
X0000060399Y0001988852D01*
X0000060399Y0001980976D01*
X0000072772Y0002007975D02*
X0000071647Y0002005725D01*
X0000070523Y0002004600D01*
X0000068273Y0002003475D01*
X0000061524Y0002003475D01*
X0000059274Y0002004600D01*
X0000058149Y0002005725D01*
X0000057024Y0002007975D01*
X0000057024Y0002011349D01*
X0000058149Y0002013599D01*
X0000059274Y0002014724D01*
X0000061524Y0002015848D01*
X0000068273Y0002015848D01*
X0000070523Y0002014724D01*
X0000071647Y0002013599D01*
X0000072772Y0002011349D01*
X0000072772Y0002007975D01*
X0000072772Y0002036096D02*
X0000060399Y0002036096D01*
X0000058149Y0002034971D01*
X0000057024Y0002032722D01*
X0000057024Y0002028222D01*
X0000058149Y0002025972D01*
X0000071647Y0002036096D02*
X0000072772Y0002033846D01*
X0000072772Y0002028222D01*
X0000071647Y0002025972D01*
X0000069398Y0002024848D01*
X0000067148Y0002024848D01*
X0000064898Y0002025972D01*
X0000063771Y0002028222D01*
X0000063771Y0002033846D01*
X0000062647Y0002036096D01*
X0000072772Y0002047345D02*
X0000057024Y0002047345D01*
X0000061524Y0002047345D02*
X0000059274Y0002048470D01*
X0000058149Y0002049595D01*
X0000057024Y0002051844D01*
X0000057024Y0002054094D01*
X0000072772Y0002072092D02*
X0000049150Y0002072092D01*
X0000071647Y0002072092D02*
X0000072772Y0002069842D01*
X0000072772Y0002065343D01*
X0000071647Y0002063092D01*
X0000070523Y0002061967D01*
X0000068273Y0002060843D01*
X0000061524Y0002060843D01*
X0000059274Y0002061967D01*
X0000058149Y0002063092D01*
X0000057024Y0002065343D01*
X0000057024Y0002069842D01*
X0000058149Y0002072092D01*
X0000086158Y0001955106D02*
X0000109780Y0001962980D01*
X0000086158Y0001970854D01*
X0000109780Y0001991102D02*
X0000109780Y0001977604D01*
X0000109780Y0001984353D02*
X0000086158Y0001984353D01*
X0000089533Y0001982103D01*
X0000091781Y0001979853D01*
X0000092906Y0001977604D01*
X0000107530Y0002001226D02*
X0000108655Y0002002349D01*
X0000109780Y0002001226D01*
X0000108655Y0002000101D01*
X0000107530Y0002001226D01*
X0000109780Y0002001226D01*
X0000086158Y0002016973D02*
X0000086158Y0002019223D01*
X0000087283Y0002021472D01*
X0000088408Y0002022598D01*
X0000090658Y0002023723D01*
X0000095156Y0002024848D01*
X0000100781Y0002024848D01*
X0000105281Y0002023723D01*
X0000107530Y0002022598D01*
X0000108655Y0002021472D01*
X0000109780Y0002019223D01*
X0000109780Y0002016973D01*
X0000108655Y0002014724D01*
X0000107530Y0002013599D01*
X0000105281Y0002012474D01*
X0000100781Y0002011349D01*
X0000095156Y0002011349D01*
X0000090658Y0002012474D01*
X0000088408Y0002013599D01*
X0000087283Y0002014724D01*
X0000086158Y0002016973D01*
X0000669150Y0001681917D02*
X0000692772Y0001689790D01*
X0000669150Y0001697664D01*
X0000692772Y0001705539D02*
X0000677024Y0001705539D01*
X0000669150Y0001705539D02*
X0000670275Y0001704415D01*
X0000671399Y0001705539D01*
X0000670275Y0001706664D01*
X0000669150Y0001705539D01*
X0000671399Y0001705539D01*
X0000677024Y0001716787D02*
X0000692772Y0001716787D01*
X0000679274Y0001716787D02*
X0000678149Y0001717913D01*
X0000677024Y0001720163D01*
X0000677024Y0001723537D01*
X0000678149Y0001725787D01*
X0000680399Y0001726912D01*
X0000692772Y0001726912D01*
X0000217151Y0001350416D02*
X0000217151Y0001374038D01*
X0000222775Y0001374038D01*
X0000226150Y0001372913D01*
X0000228399Y0001370663D01*
X0000229524Y0001368413D01*
X0000230649Y0001363914D01*
X0000230649Y0001360537D01*
X0000229524Y0001356040D01*
X0000228399Y0001353790D01*
X0000226150Y0001351540D01*
X0000222775Y0001350416D01*
X0000217151Y0001350416D01*
X0000250896Y0001374038D02*
X0000246397Y0001374038D01*
X0000244147Y0001372913D01*
X0000243023Y0001371788D01*
X0000240773Y0001368413D01*
X0000239648Y0001363914D01*
X0000239648Y0001354915D01*
X0000240773Y0001352665D01*
X0000241898Y0001351540D01*
X0000244147Y0001350416D01*
X0000248647Y0001350416D01*
X0000250896Y0001351540D01*
X0000252021Y0001352665D01*
X0000253145Y0001354915D01*
X0000253145Y0001360537D01*
X0000252021Y0001362789D01*
X0000250896Y0001363914D01*
X0000248647Y0001365039D01*
X0000244147Y0001365039D01*
X0000241898Y0001363914D01*
X0000240773Y0001362789D01*
X0000239648Y0001360537D01*
X0000317151Y0001347916D02*
X0000317151Y0001371538D01*
X0000322775Y0001371538D01*
X0000326150Y0001370413D01*
X0000328399Y0001368163D01*
X0000329524Y0001365913D01*
X0000330649Y0001361412D01*
X0000330649Y0001358039D01*
X0000329524Y0001353538D01*
X0000328399Y0001351290D01*
X0000326150Y0001349041D01*
X0000322775Y0001347916D01*
X0000317151Y0001347916D01*
X0000338523Y0001371538D02*
X0000353146Y0001371538D01*
X0000345272Y0001362539D01*
X0000348647Y0001362539D01*
X0000350897Y0001361412D01*
X0000352021Y0001360289D01*
X0000353146Y0001358039D01*
X0000353146Y0001352415D01*
X0000352021Y0001350165D01*
X0000350897Y0001349041D01*
X0000348647Y0001347916D01*
X0000341898Y0001347916D01*
X0000339648Y0001349041D01*
X0000338523Y0001350165D01*
X0000417713Y0001357165D02*
X0000428962Y0001357165D01*
X0000415463Y0001350416D02*
X0000423337Y0001374038D01*
X0000431211Y0001350416D01*
X0000450334Y0001374038D02*
X0000439085Y0001374038D01*
X0000437961Y0001362789D01*
X0000439085Y0001363914D01*
X0000441335Y0001365039D01*
X0000446960Y0001365039D01*
X0000449209Y0001363914D01*
X0000450334Y0001362789D01*
X0000451459Y0001360537D01*
X0000451459Y0001354915D01*
X0000450334Y0001352665D01*
X0000449209Y0001351540D01*
X0000446960Y0001350416D01*
X0000441335Y0001350416D01*
X0000439085Y0001351540D01*
X0000437961Y0001352665D01*
X0000517713Y0001357165D02*
X0000528962Y0001357165D01*
X0000515463Y0001350416D02*
X0000523337Y0001374038D01*
X0000531212Y0001350416D01*
X0000549209Y0001366164D02*
X0000549209Y0001350416D01*
X0000543585Y0001375163D02*
X0000537961Y0001358290D01*
X0000552584Y0001358290D01*
X0000615213Y0001357165D02*
X0000626462Y0001357165D01*
X0000612964Y0001350416D02*
X0000620837Y0001374038D01*
X0000628712Y0001350416D01*
X0000634336Y0001374038D02*
X0000648959Y0001374038D01*
X0000641085Y0001365039D01*
X0000644460Y0001365039D01*
X0000646709Y0001363914D01*
X0000647834Y0001362789D01*
X0000648959Y0001360537D01*
X0000648959Y0001354915D01*
X0000647834Y0001352665D01*
X0000646709Y0001351540D01*
X0000644460Y0001350416D01*
X0000637710Y0001350416D01*
X0000635461Y0001351540D01*
X0000634336Y0001352665D01*
X0000690439Y0001333887D02*
X0000698392Y0001341841D01*
X0000693621Y0001327524D02*
X0000682485Y0001349795D01*
X0000704756Y0001338659D01*
X0000694416Y0001358544D02*
X0000694416Y0001360135D01*
X0000695211Y0001362521D01*
X0000699188Y0001366498D01*
X0000701575Y0001367294D01*
X0000703165Y0001367294D01*
X0000705552Y0001366498D01*
X0000707142Y0001364907D01*
X0000708733Y0001361726D01*
X0000708733Y0001342636D01*
X0000719073Y0001352977D01*
X0000683523Y0001394229D02*
X0000683523Y0001405478D01*
X0000690272Y0001391979D02*
X0000666650Y0001399853D01*
X0000690272Y0001407727D01*
X0000690272Y0001427975D02*
X0000690272Y0001414476D01*
X0000690272Y0001421226D02*
X0000666650Y0001421226D01*
X0000670025Y0001418976D01*
X0000672274Y0001416726D01*
X0000673399Y0001414476D01*
X0000683523Y0001491729D02*
X0000683523Y0001502978D01*
X0000690272Y0001489479D02*
X0000666650Y0001497353D01*
X0000690272Y0001505227D01*
X0000666650Y0001517600D02*
X0000666650Y0001519850D01*
X0000667775Y0001522100D01*
X0000668900Y0001523225D01*
X0000671150Y0001524350D01*
X0000675649Y0001525475D01*
X0000681273Y0001525475D01*
X0000685773Y0001524350D01*
X0000688023Y0001523225D01*
X0000689147Y0001522100D01*
X0000690272Y0001519850D01*
X0000690272Y0001517600D01*
X0000689147Y0001515351D01*
X0000688023Y0001514226D01*
X0000685773Y0001513101D01*
X0000681273Y0001511976D01*
X0000675649Y0001511976D01*
X0000671150Y0001513101D01*
X0000668900Y0001514226D01*
X0000667775Y0001515351D01*
X0000666650Y0001517600D01*
X0000670275Y0001588104D02*
X0000669150Y0001585853D01*
X0000669150Y0001582480D01*
X0000670275Y0001579105D01*
X0000672525Y0001576856D01*
X0000674775Y0001575731D01*
X0000679274Y0001574606D01*
X0000682649Y0001574606D01*
X0000687148Y0001575731D01*
X0000689398Y0001576856D01*
X0000691647Y0001579105D01*
X0000692772Y0001582480D01*
X0000692772Y0001584730D01*
X0000691647Y0001588104D01*
X0000690522Y0001589229D01*
X0000682649Y0001589229D01*
X0000682649Y0001584730D01*
X0000692772Y0001599353D02*
X0000669150Y0001599353D01*
X0000692772Y0001612850D01*
X0000669150Y0001612850D01*
X0000692772Y0001624099D02*
X0000669150Y0001624099D01*
X0000669150Y0001629724D01*
X0000670275Y0001633099D01*
X0000672525Y0001635348D01*
X0000674775Y0001636473D01*
X0000679274Y0001637598D01*
X0000682649Y0001637598D01*
X0000687148Y0001636473D01*
X0000689398Y0001635348D01*
X0000691647Y0001633099D01*
X0000692772Y0001629724D01*
X0000692772Y0001624099D01*
D89*
X0000112401Y0002280137D02*
X0000151771Y0002280137D01*
X0000151771Y0002347066D02*
X0000112401Y0002347066D01*
X0000245551Y0001883917D02*
X0000245551Y0001923287D01*
X0000178622Y0001923287D02*
X0000178622Y0001883917D01*
X0000446889Y0001671062D02*
X0000597283Y0001671062D01*
X0000597283Y0001671062D02*
X0000597283Y0001741141D01*
X0000597283Y0001741141D02*
X0000446889Y0001741141D01*
X0000446889Y0001671062D02*
X0000446889Y0001741141D01*
X0000209783Y0002243641D02*
X0000059389Y0002243641D01*
X0000059389Y0002243641D02*
X0000059389Y0002173562D01*
X0000059389Y0002173562D02*
X0000209783Y0002173562D01*
X0000209783Y0002243641D02*
X0000209783Y0002173562D01*
X0000235708Y0001508955D02*
X0000188464Y0001508955D01*
X0000188464Y0001578248D02*
X0000235708Y0001578248D01*
X0000235708Y0001426456D02*
X0000188464Y0001426456D01*
X0000188464Y0001495748D02*
X0000235708Y0001495748D01*
D88*
X0000662401Y0002156299D02*
X0000675433Y0002124015D01*
X0000584409Y0002124015D02*
X0000597440Y0002156299D01*
X0000597440Y0002156299D02*
X0000662401Y0002156299D01*
X0000694881Y0002124015D02*
X0000681889Y0002124015D01*
X0000681889Y0002124015D02*
X0000675433Y0002124015D01*
X0000564960Y0002124015D02*
X0000584409Y0002124015D01*
X0000590551Y0002263779D02*
X0000669291Y0002263779D01*
X0000669291Y0002263779D02*
X0000669291Y0002240157D01*
X0000669291Y0002240157D02*
X0000590551Y0002240157D01*
X0000590551Y0002240157D02*
X0000590551Y0002263779D01*
X0000564960Y0002124015D02*
G75*
G03X0000629921Y0002059054I0000064960D01*
G01*
X0000629921Y0002059054D02*
G75*
G03X0000694881Y0002124015J0000064960D01*
G01*
X0000694881Y0002204724D02*
X0000694881Y0002124015D01*
X0000564960Y0002204724D02*
X0000564960Y0002124015D01*
X0000694881Y0002204724D02*
X0000694881Y0002289370D01*
X0000694881Y0002289370D02*
X0000629921Y0002289370D01*
X0000629921Y0002289370D02*
X0000564960Y0002289370D01*
X0000564960Y0002289370D02*
X0000564960Y0002204724D01*
X0000727165Y0002032677D02*
X0000727165Y0002204724D01*
X0000727165Y0002204724D02*
X0000727165Y0002032677D01*
X0000727165Y0002032677D02*
X0000532677Y0002032677D01*
X0000532677Y0002032677D02*
X0000532677Y0002204724D01*
X0000727165Y0002326771D02*
X0000727165Y0002204724D01*
X0000532677Y0002326771D02*
X0000532677Y0002204724D01*
X0000532677Y0002326771D02*
X0000727165Y0002326771D01*
X0000400767Y0002222421D02*
X0000400767Y0002324783D01*
X0000298405Y0002222421D02*
X0000298405Y0002324783D01*
X0000274783Y0002222421D02*
X0000274783Y0002324783D01*
X0000274783Y0002324783D02*
X0000424389Y0002324783D01*
X0000424389Y0002324783D02*
X0000424389Y0002222421D01*
X0000424389Y0002222421D02*
X0000274783Y0002222421D01*
D90*
X0000388503Y0002048503D02*
G75*
G03X0000388503Y0002048503I-0000009842D01*
G01*
X0000373740Y0002083937D02*
X0000389488Y0002083937D01*
X0000428858Y0002083937D02*
X0000422952Y0002083937D01*
X0000275314Y0002083937D02*
X0000281220Y0002083937D01*
X0000428858Y0002083937D02*
X0000428858Y0001938267D01*
X0000314685Y0001938267D02*
X0000389488Y0001938267D01*
X0000275314Y0002083937D02*
X0000275314Y0001938267D01*
D91*
X0000314685Y0002083937D02*
X0000330433Y0002083937D01*
D89*
X0000401456Y0001566870D02*
X0000640038Y0001566870D01*
X0000640038Y0001566870D02*
X0000640038Y0001650334D01*
X0000640038Y0001650334D02*
X0000401456Y0001650334D01*
X0000401456Y0001650334D02*
X0000401456Y0001566870D01*
X0000362086Y0001566870D02*
X0000320354Y0001566870D01*
X0000320354Y0001566870D02*
X0000320354Y0001608602D01*
X0000596771Y0002012066D02*
X0000557401Y0002012066D01*
X0000557401Y0001945137D02*
X0000596771Y0001945137D01*
D91*
X0000316653Y0001899783D02*
G75*
G03X0000316653Y0001899783I-0000002952D01*
G01*
X0000403267Y0001887972D02*
X0000403267Y0001809232D01*
X0000300905Y0001809232D02*
X0000300905Y0001889940D01*
X0000130524Y0002364541D02*
X0000128649Y0002362666D01*
X0000123025Y0002360792D01*
X0000119276Y0002360792D01*
X0000113652Y0002362666D01*
X0000109902Y0002366416D01*
X0000108027Y0002370165D01*
X0000106152Y0002377664D01*
X0000106152Y0002383289D01*
X0000108027Y0002390788D01*
X0000109902Y0002394537D01*
X0000113652Y0002398287D01*
X0000119276Y0002400162D01*
X0000123025Y0002400162D01*
X0000128649Y0002398287D01*
X0000130524Y0002396412D01*
X0000168020Y0002360792D02*
X0000145523Y0002360792D01*
X0000156771Y0002360792D02*
X0000156771Y0002400162D01*
X0000153022Y0002394537D01*
X0000149272Y0002390788D01*
X0000145523Y0002388913D01*
X0000210524Y0002007041D02*
X0000208650Y0002005166D01*
X0000203025Y0002003292D01*
X0000199276Y0002003292D01*
X0000193652Y0002005166D01*
X0000189902Y0002008916D01*
X0000188026Y0002012665D01*
X0000186152Y0002020163D01*
X0000186152Y0002025789D01*
X0000188026Y0002033288D01*
X0000189902Y0002037037D01*
X0000193652Y0002040787D01*
X0000199276Y0002042662D01*
X0000203025Y0002042662D01*
X0000208650Y0002040787D01*
X0000210524Y0002038911D01*
X0000225523Y0002038911D02*
X0000227396Y0002040787D01*
X0000231146Y0002042662D01*
X0000240521Y0002042662D01*
X0000244269Y0002040787D01*
X0000246145Y0002038911D01*
X0000248019Y0002035162D01*
X0000248019Y0002031413D01*
X0000246145Y0002025789D01*
X0000223648Y0002003292D01*
X0000248019Y0002003292D01*
X0000549278Y0001795162D02*
X0000549278Y0001767040D01*
X0000547403Y0001761416D01*
X0000543653Y0001757665D01*
X0000538029Y0001755791D01*
X0000534280Y0001755791D01*
X0000568025Y0001755791D02*
X0000568025Y0001795162D01*
X0000583023Y0001795162D01*
X0000586773Y0001793286D01*
X0000588648Y0001791412D01*
X0000590523Y0001787663D01*
X0000590523Y0001782037D01*
X0000588648Y0001778289D01*
X0000586773Y0001776414D01*
X0000583023Y0001774539D01*
X0000568025Y0001774539D01*
X0000628018Y0001755791D02*
X0000605521Y0001755791D01*
X0000616769Y0001755791D02*
X0000616769Y0001795162D01*
X0000613020Y0001789537D01*
X0000609270Y0001785788D01*
X0000605521Y0001783913D01*
X0000096778Y0002160162D02*
X0000096778Y0002132040D01*
X0000094902Y0002126416D01*
X0000091152Y0002122666D01*
X0000085529Y0002120792D01*
X0000081779Y0002120792D01*
X0000115525Y0002120792D02*
X0000115525Y0002160162D01*
X0000130524Y0002160162D01*
X0000134273Y0002158287D01*
X0000136148Y0002156412D01*
X0000138023Y0002152663D01*
X0000138023Y0002147038D01*
X0000136148Y0002143289D01*
X0000134273Y0002141414D01*
X0000130524Y0002139539D01*
X0000115525Y0002139539D01*
X0000153021Y0002156412D02*
X0000154895Y0002158287D01*
X0000158645Y0002160162D01*
X0000168019Y0002160162D01*
X0000171768Y0002158287D01*
X0000173643Y0002156412D01*
X0000175518Y0002152663D01*
X0000175518Y0002148913D01*
X0000173643Y0002143289D01*
X0000151146Y0002120792D01*
X0000175518Y0002120792D01*
X0000140524Y0001590792D02*
X0000127400Y0001609539D01*
X0000118027Y0001590792D02*
X0000118027Y0001630162D01*
X0000133025Y0001630162D01*
X0000136775Y0001628287D01*
X0000138650Y0001626412D01*
X0000140524Y0001622663D01*
X0000140524Y0001617038D01*
X0000138650Y0001613289D01*
X0000136775Y0001611414D01*
X0000133025Y0001609539D01*
X0000118027Y0001609539D01*
X0000178020Y0001590792D02*
X0000155523Y0001590792D01*
X0000166770Y0001590792D02*
X0000166770Y0001630162D01*
X0000163022Y0001624537D01*
X0000159272Y0001620786D01*
X0000155523Y0001618912D01*
X0000135524Y0001373292D02*
X0000122401Y0001392039D01*
X0000113027Y0001373292D02*
X0000113027Y0001412662D01*
X0000128025Y0001412662D01*
X0000131775Y0001410787D01*
X0000133650Y0001408912D01*
X0000135524Y0001405163D01*
X0000135524Y0001399538D01*
X0000133650Y0001395789D01*
X0000131775Y0001393914D01*
X0000128025Y0001392039D01*
X0000113027Y0001392039D01*
X0000150523Y0001408912D02*
X0000152397Y0001410787D01*
X0000156147Y0001412662D01*
X0000165521Y0001412662D01*
X0000169270Y0001410787D01*
X0000171145Y0001408912D01*
X0000173020Y0001405163D01*
X0000173020Y0001401413D01*
X0000171145Y0001395789D01*
X0000148648Y0001373292D01*
X0000173020Y0001373292D01*
D88*
X0000555222Y0002352666D02*
X0000560846Y0002350792D01*
X0000570220Y0002350792D01*
X0000573969Y0002352666D01*
X0000575844Y0002354541D01*
X0000577719Y0002358291D01*
X0000577719Y0002362040D01*
X0000575844Y0002365790D01*
X0000573969Y0002367664D01*
X0000570220Y0002369539D01*
X0000562721Y0002371414D01*
X0000558971Y0002373289D01*
X0000557096Y0002375164D01*
X0000555222Y0002378913D01*
X0000555222Y0002382663D01*
X0000557096Y0002386412D01*
X0000558971Y0002388287D01*
X0000562721Y0002390162D01*
X0000572095Y0002390162D01*
X0000577719Y0002388287D01*
X0000594592Y0002350792D02*
X0000594592Y0002390162D01*
X0000594592Y0002371414D02*
X0000617089Y0002371414D01*
X0000617089Y0002350792D02*
X0000617089Y0002390162D01*
X0000630212Y0002390162D02*
X0000652710Y0002390162D01*
X0000641461Y0002350792D02*
X0000641461Y0002390162D01*
X0000686454Y0002350792D02*
X0000663958Y0002350792D01*
X0000675207Y0002350792D02*
X0000675207Y0002390162D01*
X0000671457Y0002384537D01*
X0000667708Y0002380788D01*
X0000663958Y0002378913D01*
X0000710827Y0002390162D02*
X0000714577Y0002390162D01*
X0000718326Y0002388287D01*
X0000720201Y0002386412D01*
X0000722076Y0002382663D01*
X0000723951Y0002375164D01*
X0000723951Y0002365790D01*
X0000722076Y0002358291D01*
X0000720201Y0002354541D01*
X0000718326Y0002352666D01*
X0000714577Y0002350792D01*
X0000710827Y0002350792D01*
X0000707078Y0002352666D01*
X0000705203Y0002354541D01*
X0000703328Y0002358291D01*
X0000701453Y0002365790D01*
X0000701453Y0002375164D01*
X0000703328Y0002382663D01*
X0000705203Y0002386412D01*
X0000707078Y0002388287D01*
X0000710827Y0002390162D01*
X0000241164Y0002387662D02*
X0000263661Y0002387662D01*
X0000252412Y0002348292D02*
X0000252412Y0002387662D01*
X0000274909Y0002350166D02*
X0000280534Y0002348292D01*
X0000289908Y0002348292D01*
X0000293657Y0002350166D01*
X0000295532Y0002352041D01*
X0000297407Y0002355791D01*
X0000297407Y0002359540D01*
X0000295532Y0002363290D01*
X0000293657Y0002365164D01*
X0000289908Y0002367039D01*
X0000282409Y0002368914D01*
X0000278659Y0002370789D01*
X0000276784Y0002372664D01*
X0000274909Y0002376413D01*
X0000274909Y0002380163D01*
X0000276784Y0002383912D01*
X0000278659Y0002385787D01*
X0000282409Y0002387662D01*
X0000291782Y0002387662D01*
X0000297407Y0002385787D01*
X0000333026Y0002348292D02*
X0000314280Y0002348292D01*
X0000314280Y0002387662D01*
X0000344276Y0002383912D02*
X0000346151Y0002385787D01*
X0000349900Y0002387662D01*
X0000359274Y0002387662D01*
X0000363023Y0002385787D01*
X0000364898Y0002383912D01*
X0000366773Y0002380163D01*
X0000366773Y0002376413D01*
X0000364898Y0002370789D01*
X0000342401Y0002348292D01*
X0000366773Y0002348292D01*
X0000402394Y0002387662D02*
X0000383646Y0002387662D01*
X0000381771Y0002368914D01*
X0000383646Y0002370789D01*
X0000387395Y0002372664D01*
X0000396769Y0002372664D01*
X0000400519Y0002370789D01*
X0000402394Y0002368914D01*
X0000404268Y0002365164D01*
X0000404268Y0002355791D01*
X0000402394Y0002352041D01*
X0000400519Y0002350166D01*
X0000396769Y0002348292D01*
X0000387395Y0002348292D01*
X0000383646Y0002350166D01*
X0000381771Y0002352041D01*
X0000438014Y0002387662D02*
X0000430515Y0002387662D01*
X0000426765Y0002385787D01*
X0000424891Y0002383912D01*
X0000421141Y0002378288D01*
X0000419266Y0002370789D01*
X0000419266Y0002355791D01*
X0000421141Y0002352041D01*
X0000423016Y0002350166D01*
X0000426765Y0002348292D01*
X0000434265Y0002348292D01*
X0000438014Y0002350166D01*
X0000439889Y0002352041D01*
X0000441764Y0002355791D01*
X0000441764Y0002365164D01*
X0000439889Y0002368914D01*
X0000438014Y0002370789D01*
X0000434265Y0002372664D01*
X0000426765Y0002372664D01*
X0000423016Y0002370789D01*
X0000421141Y0002368914D01*
X0000419266Y0002365164D01*
X0000479259Y0002348292D02*
X0000456762Y0002348292D01*
X0000468010Y0002348292D02*
X0000468010Y0002387662D01*
X0000464261Y0002382037D01*
X0000460511Y0002378288D01*
X0000456762Y0002376413D01*
X0000463659Y0001515792D02*
X0000463659Y0001555162D01*
X0000473033Y0001555162D01*
X0000478657Y0001553287D01*
X0000482407Y0001549537D01*
X0000484281Y0001545788D01*
X0000486156Y0001538289D01*
X0000486156Y0001532664D01*
X0000484281Y0001525165D01*
X0000482407Y0001521416D01*
X0000478657Y0001517666D01*
X0000473033Y0001515792D01*
X0000463659Y0001515792D01*
X0000503028Y0001515792D02*
X0000503028Y0001555162D01*
X0000503028Y0001536414D02*
X0000525526Y0001536414D01*
X0000525526Y0001515792D02*
X0000525526Y0001555162D01*
X0000538650Y0001555162D02*
X0000561147Y0001555162D01*
X0000549898Y0001515792D02*
X0000549898Y0001555162D01*
X0000594893Y0001515792D02*
X0000572395Y0001515792D01*
X0000583644Y0001515792D02*
X0000583644Y0001555162D01*
X0000579894Y0001549537D01*
X0000576145Y0001545788D01*
X0000572395Y0001543913D01*
X0000632388Y0001515792D02*
X0000609891Y0001515792D01*
X0000621139Y0001515792D02*
X0000621139Y0001555162D01*
X0000617390Y0001549537D01*
X0000613640Y0001545788D01*
X0000609891Y0001543913D01*
D91*
X0000570524Y0002033439D02*
X0000568650Y0002031564D01*
X0000563025Y0002029688D01*
X0000559276Y0002029688D01*
X0000553652Y0002031564D01*
X0000549902Y0002035314D01*
X0000548027Y0002039063D01*
X0000546152Y0002046562D01*
X0000546152Y0002052185D01*
X0000548027Y0002059685D01*
X0000549902Y0002063435D01*
X0000553652Y0002067184D01*
X0000559276Y0002069059D01*
X0000563025Y0002069059D01*
X0000568650Y0002067184D01*
X0000570524Y0002065310D01*
X0000583648Y0002069059D02*
X0000608020Y0002069059D01*
X0000594896Y0002054061D01*
X0000600521Y0002054061D01*
X0000604270Y0002052185D01*
X0000606145Y0002050312D01*
X0000608020Y0002046562D01*
X0000608020Y0002037188D01*
X0000606145Y0002033439D01*
X0000604270Y0002031564D01*
X0000600521Y0002029688D01*
X0000589272Y0002029688D01*
X0000585523Y0002031564D01*
X0000583648Y0002033439D01*
D87*
X0000304280Y0001777508D02*
X0000307092Y0001776571D01*
X0000308029Y0001775633D01*
X0000308967Y0001773757D01*
X0000308967Y0001770946D01*
X0000308029Y0001769071D01*
X0000307092Y0001768134D01*
X0000305217Y0001767197D01*
X0000297718Y0001767197D01*
X0000297718Y0001786882D01*
X0000304280Y0001786882D01*
X0000306154Y0001785943D01*
X0000307092Y0001785006D01*
X0000308029Y0001783132D01*
X0000308029Y0001781257D01*
X0000307092Y0001779383D01*
X0000306154Y0001778445D01*
X0000304280Y0001777508D01*
X0000297718Y0001777508D01*
X0000317403Y0001767197D02*
X0000317403Y0001786882D01*
X0000323964Y0001772820D01*
X0000330526Y0001786882D01*
X0000330526Y0001767197D01*
X0000339900Y0001767197D02*
X0000339900Y0001786882D01*
X0000347399Y0001786882D01*
X0000349274Y0001785943D01*
X0000350211Y0001785006D01*
X0000351149Y0001783132D01*
X0000351149Y0001780320D01*
X0000350211Y0001778445D01*
X0000349274Y0001777508D01*
X0000347399Y0001776571D01*
X0000339900Y0001776571D01*
X0000358648Y0001785006D02*
X0000359584Y0001785943D01*
X0000361460Y0001786882D01*
X0000366147Y0001786882D01*
X0000368022Y0001785943D01*
X0000368959Y0001785006D01*
X0000369896Y0001783132D01*
X0000369896Y0001781257D01*
X0000368959Y0001778445D01*
X0000357710Y0001767197D01*
X0000369896Y0001767197D01*
X0000381145Y0001778445D02*
X0000379270Y0001779383D01*
X0000378333Y0001780320D01*
X0000377395Y0001782195D01*
X0000377395Y0001783132D01*
X0000378333Y0001785006D01*
X0000379270Y0001785943D01*
X0000381145Y0001786882D01*
X0000384895Y0001786882D01*
X0000386769Y0001785943D01*
X0000387707Y0001785006D01*
X0000388644Y0001783132D01*
X0000388644Y0001782195D01*
X0000387707Y0001780320D01*
X0000386769Y0001779383D01*
X0000384895Y0001778445D01*
X0000381145Y0001778445D01*
X0000379270Y0001777508D01*
X0000378333Y0001776571D01*
X0000377395Y0001774696D01*
X0000377395Y0001770946D01*
X0000378333Y0001769071D01*
X0000379270Y0001768134D01*
X0000381145Y0001767197D01*
X0000384895Y0001767197D01*
X0000386769Y0001768134D01*
X0000387707Y0001769071D01*
X0000388644Y0001770946D01*
X0000388644Y0001774696D01*
X0000387707Y0001776571D01*
X0000386769Y0001777508D01*
X0000384895Y0001778445D01*
X0000400830Y0001786882D02*
X0000402705Y0001786882D01*
X0000404580Y0001785943D01*
X0000405516Y0001785006D01*
X0000406453Y0001783132D01*
X0000407392Y0001779383D01*
X0000407392Y0001774696D01*
X0000406453Y0001770946D01*
X0000405516Y0001769071D01*
X0000404580Y0001768134D01*
X0000402705Y0001767197D01*
X0000400830Y0001767197D01*
X0000398955Y0001768134D01*
X0000398018Y0001769071D01*
X0000397081Y0001770946D01*
X0000396143Y0001774696D01*
X0000396143Y0001779383D01*
X0000397081Y0001783132D01*
X0000398018Y0001785006D01*
X0000398955Y0001785943D01*
X0000400830Y0001786882D01*
G04 next file*
G04 #@! TF.FileFunction,Legend,Top*
G04 Gerber Fmt 4.6, Leading zero omitted, Abs format (unit mm)*
G04 Created by KiCad (PCBNEW 4.0.2-stable) date 05.07.2017 20:46:59*
G01*
G04 APERTURE LIST*
G04 APERTURE END LIST*
D102*
D103*
X0000470842Y0000180949D02*
X0000457719Y0000199697D01*
X0000448345Y0000180949D02*
X0000448345Y0000220319D01*
X0000463343Y0000220319D01*
X0000467093Y0000218444D01*
X0000468967Y0000216570D01*
X0000470842Y0000212820D01*
X0000470842Y0000207196D01*
X0000468967Y0000203446D01*
X0000467093Y0000201571D01*
X0000463343Y0000199697D01*
X0000448345Y0000199697D01*
X0000502712Y0000182824D02*
X0000498963Y0000180949D01*
X0000491465Y0000180949D01*
X0000487715Y0000182824D01*
X0000485840Y0000186573D01*
X0000485840Y0000201571D01*
X0000487715Y0000205321D01*
X0000491465Y0000207196D01*
X0000498963Y0000207196D01*
X0000502712Y0000205321D01*
X0000504588Y0000201571D01*
X0000504588Y0000197822D01*
X0000485840Y0000194072D01*
X0000519586Y0000182824D02*
X0000523336Y0000180949D01*
X0000530835Y0000180949D01*
X0000534584Y0000182824D01*
X0000536459Y0000186573D01*
X0000536459Y0000188448D01*
X0000534584Y0000192198D01*
X0000530835Y0000194072D01*
X0000525210Y0000194072D01*
X0000521460Y0000195947D01*
X0000519586Y0000199697D01*
X0000519586Y0000201571D01*
X0000521460Y0000205321D01*
X0000525210Y0000207196D01*
X0000530835Y0000207196D01*
X0000534584Y0000205321D01*
X0000568330Y0000182824D02*
X0000564581Y0000180949D01*
X0000557081Y0000180949D01*
X0000553332Y0000182824D01*
X0000551457Y0000186573D01*
X0000551457Y0000201571D01*
X0000553332Y0000205321D01*
X0000557081Y0000207196D01*
X0000564581Y0000207196D01*
X0000568330Y0000205321D01*
X0000570205Y0000201571D01*
X0000570205Y0000197822D01*
X0000551457Y0000194072D01*
X0000581453Y0000207196D02*
X0000596451Y0000207196D01*
X0000587078Y0000220319D02*
X0000587078Y0000186573D01*
X0000588952Y0000182824D01*
X0000592702Y0000180949D01*
X0000596451Y0000180949D01*
X0000253973Y0000866572D02*
X0000259597Y0000864696D01*
X0000261471Y0000862822D01*
X0000263347Y0000859072D01*
X0000263347Y0000853447D01*
X0000261471Y0000849699D01*
X0000259597Y0000847824D01*
X0000255848Y0000845949D01*
X0000240850Y0000845949D01*
X0000240850Y0000885319D01*
X0000253973Y0000885319D01*
X0000257722Y0000883444D01*
X0000259597Y0000881570D01*
X0000261471Y0000877819D01*
X0000261471Y0000874071D01*
X0000259597Y0000870321D01*
X0000257722Y0000868446D01*
X0000253973Y0000866572D01*
X0000240850Y0000866572D01*
X0000280220Y0000845949D02*
X0000280220Y0000885319D01*
X0000293343Y0000857198D01*
X0000306467Y0000885319D01*
X0000306467Y0000845949D01*
X0000325214Y0000845949D02*
X0000325214Y0000885319D01*
X0000340211Y0000885319D01*
X0000343962Y0000883444D01*
X0000345837Y0000881570D01*
X0000347711Y0000877819D01*
X0000347711Y0000872196D01*
X0000345837Y0000868446D01*
X0000343962Y0000866572D01*
X0000340211Y0000864696D01*
X0000325214Y0000864696D01*
X0000385207Y0000845949D02*
X0000362709Y0000845949D01*
X0000373958Y0000845949D02*
X0000373958Y0000885319D01*
X0000370208Y0000879695D01*
X0000366459Y0000875945D01*
X0000362709Y0000874071D01*
X0000407704Y0000868446D02*
X0000403954Y0000870321D01*
X0000402080Y0000872196D01*
X0000400205Y0000875945D01*
X0000400205Y0000877819D01*
X0000402080Y0000881570D01*
X0000403954Y0000883444D01*
X0000407704Y0000885319D01*
X0000415203Y0000885319D01*
X0000418952Y0000883444D01*
X0000420827Y0000881570D01*
X0000422702Y0000877819D01*
X0000422702Y0000875945D01*
X0000420827Y0000872196D01*
X0000418952Y0000870321D01*
X0000415203Y0000868446D01*
X0000407704Y0000868446D01*
X0000403954Y0000866572D01*
X0000402080Y0000864696D01*
X0000400205Y0000860947D01*
X0000400205Y0000853447D01*
X0000402080Y0000849699D01*
X0000403954Y0000847824D01*
X0000407704Y0000845949D01*
X0000415203Y0000845949D01*
X0000418952Y0000847824D01*
X0000420827Y0000849699D01*
X0000422702Y0000853447D01*
X0000422702Y0000860947D01*
X0000420827Y0000864696D01*
X0000418952Y0000866572D01*
X0000415203Y0000868446D01*
X0000447074Y0000885319D02*
X0000450823Y0000885319D01*
X0000454573Y0000883444D01*
X0000456448Y0000881570D01*
X0000458322Y0000877819D01*
X0000460197Y0000870321D01*
X0000460197Y0000860947D01*
X0000458322Y0000853447D01*
X0000456448Y0000849699D01*
X0000454573Y0000847824D01*
X0000450823Y0000845949D01*
X0000447074Y0000845949D01*
X0000443324Y0000847824D01*
X0000441450Y0000849699D01*
X0000439574Y0000853447D01*
X0000437700Y0000860947D01*
X0000437700Y0000870321D01*
X0000439574Y0000877819D01*
X0000441450Y0000881570D01*
X0000443324Y0000883444D01*
X0000447074Y0000885319D01*
D102*
X0000078900Y0000268695D02*
X0000102522Y0000268695D01*
X0000102522Y0000263070D01*
X0000101397Y0000259695D01*
X0000099147Y0000257446D01*
X0000096898Y0000256321D01*
X0000092398Y0000255195D01*
X0000089024Y0000255195D01*
X0000084524Y0000256321D01*
X0000082275Y0000257446D01*
X0000080025Y0000259695D01*
X0000078900Y0000263070D01*
X0000078900Y0000268695D01*
X0000102522Y0000247322D02*
X0000102522Y0000231573D01*
X0000078900Y0000241698D01*
X0000091273Y0000358321D02*
X0000090149Y0000354946D01*
X0000089024Y0000353821D01*
X0000086774Y0000352696D01*
X0000083399Y0000352696D01*
X0000081150Y0000353821D01*
X0000080025Y0000354946D01*
X0000078900Y0000357196D01*
X0000078900Y0000366195D01*
X0000102522Y0000366195D01*
X0000102522Y0000358321D01*
X0000101397Y0000356071D01*
X0000100272Y0000354946D01*
X0000098023Y0000353821D01*
X0000095773Y0000353821D01*
X0000093523Y0000354946D01*
X0000092398Y0000356071D01*
X0000091273Y0000358321D01*
X0000091273Y0000366195D01*
X0000078900Y0000330199D02*
X0000078900Y0000343697D01*
X0000078900Y0000336948D02*
X0000102522Y0000336948D01*
X0000099147Y0000339198D01*
X0000096898Y0000341448D01*
X0000095773Y0000343697D01*
X0000102522Y0000480255D02*
X0000078900Y0000472381D01*
X0000102522Y0000464507D01*
X0000081150Y0000443135D02*
X0000080025Y0000444260D01*
X0000078900Y0000447634D01*
X0000078900Y0000449884D01*
X0000080025Y0000453259D01*
X0000082275Y0000455508D01*
X0000084524Y0000456632D01*
X0000089024Y0000457758D01*
X0000092398Y0000457758D01*
X0000096898Y0000456632D01*
X0000099147Y0000455508D01*
X0000101397Y0000453259D01*
X0000102522Y0000449884D01*
X0000102522Y0000447634D01*
X0000101397Y0000444260D01*
X0000100272Y0000443135D01*
X0000081150Y0000419512D02*
X0000080025Y0000420638D01*
X0000078900Y0000424012D01*
X0000078900Y0000426262D01*
X0000080025Y0000429637D01*
X0000082275Y0000431886D01*
X0000084524Y0000433011D01*
X0000089024Y0000434136D01*
X0000092398Y0000434136D01*
X0000096898Y0000433011D01*
X0000099147Y0000431886D01*
X0000101397Y0000429637D01*
X0000102522Y0000426262D01*
X0000102522Y0000424012D01*
X0000101397Y0000420638D01*
X0000100272Y0000419512D01*
X0000101397Y0000564257D02*
X0000102522Y0000566507D01*
X0000102522Y0000569881D01*
X0000101397Y0000573256D01*
X0000099147Y0000575506D01*
X0000096898Y0000576631D01*
X0000092398Y0000577755D01*
X0000089024Y0000577755D01*
X0000084524Y0000576631D01*
X0000082275Y0000575506D01*
X0000080025Y0000573256D01*
X0000078900Y0000569881D01*
X0000078900Y0000567632D01*
X0000080025Y0000564257D01*
X0000081150Y0000563132D01*
X0000089024Y0000563132D01*
X0000089024Y0000567632D01*
X0000078900Y0000553008D02*
X0000102522Y0000553008D01*
X0000078900Y0000539510D01*
X0000102522Y0000539510D01*
X0000078900Y0000528262D02*
X0000102522Y0000528262D01*
X0000102522Y0000522637D01*
X0000101397Y0000519263D01*
X0000099147Y0000517012D01*
X0000096898Y0000515888D01*
X0000092398Y0000514762D01*
X0000089024Y0000514762D01*
X0000084524Y0000515888D01*
X0000082275Y0000517012D01*
X0000080025Y0000519263D01*
X0000078900Y0000522637D01*
X0000078900Y0000528262D01*
X0000035764Y0000651394D02*
X0000012142Y0000651394D01*
X0000023391Y0000651394D02*
X0000023391Y0000664893D01*
X0000035764Y0000664893D02*
X0000012142Y0000664893D01*
X0000035764Y0000676141D02*
X0000012142Y0000676141D01*
X0000029014Y0000684015D01*
X0000012142Y0000691889D01*
X0000035764Y0000691889D01*
X0000034640Y0000702013D02*
X0000035764Y0000705388D01*
X0000035764Y0000711012D01*
X0000034640Y0000713262D01*
X0000033515Y0000714386D01*
X0000031265Y0000715511D01*
X0000029014Y0000715511D01*
X0000026765Y0000714386D01*
X0000025641Y0000713262D01*
X0000024516Y0000711012D01*
X0000023391Y0000706512D01*
X0000022266Y0000704263D01*
X0000021141Y0000703138D01*
X0000018892Y0000702013D01*
X0000016642Y0000702013D01*
X0000014391Y0000703138D01*
X0000013267Y0000704263D01*
X0000012142Y0000706512D01*
X0000012142Y0000712137D01*
X0000013267Y0000715511D01*
X0000034640Y0000734634D02*
X0000035764Y0000732384D01*
X0000035764Y0000727885D01*
X0000034640Y0000725635D01*
X0000032390Y0000724510D01*
X0000023391Y0000724510D01*
X0000021141Y0000725635D01*
X0000020016Y0000727885D01*
X0000020016Y0000732384D01*
X0000021141Y0000734634D01*
X0000023391Y0000735759D01*
X0000025641Y0000735759D01*
X0000027890Y0000724510D01*
X0000020016Y0000745883D02*
X0000035764Y0000745883D01*
X0000022266Y0000745883D02*
X0000021141Y0000747007D01*
X0000020016Y0000749257D01*
X0000020016Y0000752631D01*
X0000021141Y0000754881D01*
X0000023391Y0000756006D01*
X0000035764Y0000756006D01*
X0000034640Y0000766130D02*
X0000035764Y0000768380D01*
X0000035764Y0000772879D01*
X0000034640Y0000775129D01*
X0000032390Y0000776254D01*
X0000031265Y0000776254D01*
X0000029014Y0000775129D01*
X0000027890Y0000772879D01*
X0000027890Y0000769505D01*
X0000026765Y0000767255D01*
X0000024516Y0000766130D01*
X0000023391Y0000766130D01*
X0000021141Y0000767255D01*
X0000020016Y0000769505D01*
X0000020016Y0000772879D01*
X0000021141Y0000775129D01*
X0000035764Y0000789752D02*
X0000034640Y0000787501D01*
X0000033515Y0000786377D01*
X0000031265Y0000785253D01*
X0000024516Y0000785253D01*
X0000022266Y0000786377D01*
X0000021141Y0000787501D01*
X0000020016Y0000789752D01*
X0000020016Y0000793127D01*
X0000021141Y0000795376D01*
X0000022266Y0000796501D01*
X0000024516Y0000797626D01*
X0000031265Y0000797626D01*
X0000033515Y0000796501D01*
X0000034640Y0000795376D01*
X0000035764Y0000793127D01*
X0000035764Y0000789752D01*
X0000035764Y0000807750D02*
X0000020016Y0000807750D01*
X0000024516Y0000807750D02*
X0000022266Y0000808875D01*
X0000021141Y0000809999D01*
X0000020016Y0000812249D01*
X0000020016Y0000814499D01*
X0000072772Y0000650268D02*
X0000049150Y0000650268D01*
X0000043525Y0000660393D02*
X0000042400Y0000662643D01*
X0000042400Y0000666017D01*
X0000043525Y0000668267D01*
X0000045776Y0000669391D01*
X0000048024Y0000669391D01*
X0000050275Y0000668267D01*
X0000058149Y0000660393D01*
X0000058149Y0000669391D01*
X0000070523Y0000693014D02*
X0000071647Y0000691889D01*
X0000072772Y0000688514D01*
X0000072772Y0000686265D01*
X0000071647Y0000682890D01*
X0000069398Y0000680640D01*
X0000067148Y0000679516D01*
X0000062647Y0000678391D01*
X0000059274Y0000678391D01*
X0000054775Y0000679516D01*
X0000052525Y0000680640D01*
X0000050275Y0000682890D01*
X0000049150Y0000686265D01*
X0000049150Y0000688514D01*
X0000050275Y0000691889D01*
X0000051400Y0000693014D01*
X0000060399Y0000729009D02*
X0000061524Y0000732384D01*
X0000062647Y0000733509D01*
X0000064898Y0000734634D01*
X0000068273Y0000734634D01*
X0000070523Y0000733509D01*
X0000071647Y0000732384D01*
X0000072772Y0000730135D01*
X0000072772Y0000721136D01*
X0000049150Y0000721136D01*
X0000049150Y0000729009D01*
X0000050275Y0000731259D01*
X0000051400Y0000732384D01*
X0000053650Y0000733509D01*
X0000055899Y0000733509D01*
X0000058149Y0000732384D01*
X0000059274Y0000731259D01*
X0000060399Y0000729009D01*
X0000060399Y0000721136D01*
X0000072772Y0000748132D02*
X0000071647Y0000745883D01*
X0000070523Y0000744758D01*
X0000068273Y0000743633D01*
X0000061524Y0000743633D01*
X0000059274Y0000744758D01*
X0000058149Y0000745883D01*
X0000057024Y0000748132D01*
X0000057024Y0000751507D01*
X0000058149Y0000753757D01*
X0000059274Y0000754881D01*
X0000061524Y0000756006D01*
X0000068273Y0000756006D01*
X0000070523Y0000754881D01*
X0000071647Y0000753757D01*
X0000072772Y0000751507D01*
X0000072772Y0000748132D01*
X0000072772Y0000776254D02*
X0000060399Y0000776254D01*
X0000058149Y0000775129D01*
X0000057024Y0000772879D01*
X0000057024Y0000768380D01*
X0000058149Y0000766130D01*
X0000071647Y0000776254D02*
X0000072772Y0000774004D01*
X0000072772Y0000768380D01*
X0000071647Y0000766130D01*
X0000069398Y0000765005D01*
X0000067148Y0000765005D01*
X0000064898Y0000766130D01*
X0000063771Y0000768380D01*
X0000063771Y0000774004D01*
X0000062647Y0000776254D01*
X0000072772Y0000787501D02*
X0000057024Y0000787501D01*
X0000061524Y0000787501D02*
X0000059274Y0000788627D01*
X0000058149Y0000789752D01*
X0000057024Y0000792002D01*
X0000057024Y0000794251D01*
X0000072772Y0000812249D02*
X0000049150Y0000812249D01*
X0000071647Y0000812249D02*
X0000072772Y0000809999D01*
X0000072772Y0000805500D01*
X0000071647Y0000803250D01*
X0000070523Y0000802125D01*
X0000068273Y0000801000D01*
X0000061524Y0000801000D01*
X0000059274Y0000802125D01*
X0000058149Y0000803250D01*
X0000057024Y0000805500D01*
X0000057024Y0000809999D01*
X0000058149Y0000812249D01*
X0000086158Y0000695264D02*
X0000109780Y0000703138D01*
X0000086158Y0000711012D01*
X0000109780Y0000731259D02*
X0000109780Y0000717760D01*
X0000109780Y0000724510D02*
X0000086158Y0000724510D01*
X0000089533Y0000722260D01*
X0000091781Y0000720011D01*
X0000092906Y0000717760D01*
X0000107530Y0000741383D02*
X0000108655Y0000742508D01*
X0000109780Y0000741383D01*
X0000108655Y0000740258D01*
X0000107530Y0000741383D01*
X0000109780Y0000741383D01*
X0000086158Y0000757131D02*
X0000086158Y0000759381D01*
X0000087283Y0000761631D01*
X0000088408Y0000762754D01*
X0000090658Y0000763880D01*
X0000095156Y0000765005D01*
X0000100781Y0000765005D01*
X0000105281Y0000763880D01*
X0000107530Y0000762754D01*
X0000108655Y0000761631D01*
X0000109780Y0000759381D01*
X0000109780Y0000757131D01*
X0000108655Y0000754881D01*
X0000107530Y0000753757D01*
X0000105281Y0000752631D01*
X0000100781Y0000751507D01*
X0000095156Y0000751507D01*
X0000090658Y0000752631D01*
X0000088408Y0000753757D01*
X0000087283Y0000754881D01*
X0000086158Y0000757131D01*
X0000669150Y0000422075D02*
X0000692772Y0000429949D01*
X0000669150Y0000437823D01*
X0000692772Y0000445697D02*
X0000677024Y0000445697D01*
X0000669150Y0000445697D02*
X0000670275Y0000444572D01*
X0000671399Y0000445697D01*
X0000670275Y0000446822D01*
X0000669150Y0000445697D01*
X0000671399Y0000445697D01*
X0000677024Y0000456946D02*
X0000692772Y0000456946D01*
X0000679274Y0000456946D02*
X0000678149Y0000458070D01*
X0000677024Y0000460320D01*
X0000677024Y0000463695D01*
X0000678149Y0000465944D01*
X0000680399Y0000467069D01*
X0000692772Y0000467069D01*
X0000217151Y0000090573D02*
X0000217151Y0000114195D01*
X0000222775Y0000114195D01*
X0000226150Y0000113070D01*
X0000228399Y0000110821D01*
X0000229524Y0000108571D01*
X0000230649Y0000104071D01*
X0000230649Y0000100697D01*
X0000229524Y0000096197D01*
X0000228399Y0000093948D01*
X0000226150Y0000091698D01*
X0000222775Y0000090573D01*
X0000217151Y0000090573D01*
X0000250896Y0000114195D02*
X0000246397Y0000114195D01*
X0000244147Y0000113070D01*
X0000243023Y0000111946D01*
X0000240773Y0000108571D01*
X0000239648Y0000104071D01*
X0000239648Y0000095073D01*
X0000240773Y0000092823D01*
X0000241898Y0000091698D01*
X0000244147Y0000090573D01*
X0000248647Y0000090573D01*
X0000250896Y0000091698D01*
X0000252021Y0000092823D01*
X0000253145Y0000095073D01*
X0000253145Y0000100697D01*
X0000252021Y0000102947D01*
X0000250896Y0000104071D01*
X0000248647Y0000105196D01*
X0000244147Y0000105196D01*
X0000241898Y0000104071D01*
X0000240773Y0000102947D01*
X0000239648Y0000100697D01*
X0000317151Y0000088073D02*
X0000317151Y0000111695D01*
X0000322775Y0000111695D01*
X0000326150Y0000110570D01*
X0000328399Y0000108321D01*
X0000329524Y0000106071D01*
X0000330649Y0000101572D01*
X0000330649Y0000098197D01*
X0000329524Y0000093697D01*
X0000328399Y0000091448D01*
X0000326150Y0000089198D01*
X0000322775Y0000088073D01*
X0000317151Y0000088073D01*
X0000338523Y0000111695D02*
X0000353146Y0000111695D01*
X0000345272Y0000102696D01*
X0000348647Y0000102696D01*
X0000350897Y0000101572D01*
X0000352021Y0000100447D01*
X0000353146Y0000098197D01*
X0000353146Y0000092573D01*
X0000352021Y0000090323D01*
X0000350897Y0000089198D01*
X0000348647Y0000088073D01*
X0000341898Y0000088073D01*
X0000339648Y0000089198D01*
X0000338523Y0000090323D01*
X0000417713Y0000097322D02*
X0000428962Y0000097322D01*
X0000415463Y0000090573D02*
X0000423337Y0000114195D01*
X0000431211Y0000090573D01*
X0000450334Y0000114195D02*
X0000439085Y0000114195D01*
X0000437961Y0000102947D01*
X0000439085Y0000104071D01*
X0000441335Y0000105196D01*
X0000446960Y0000105196D01*
X0000449209Y0000104071D01*
X0000450334Y0000102947D01*
X0000451459Y0000100697D01*
X0000451459Y0000095073D01*
X0000450334Y0000092823D01*
X0000449209Y0000091698D01*
X0000446960Y0000090573D01*
X0000441335Y0000090573D01*
X0000439085Y0000091698D01*
X0000437961Y0000092823D01*
X0000517713Y0000097322D02*
X0000528962Y0000097322D01*
X0000515463Y0000090573D02*
X0000523337Y0000114195D01*
X0000531212Y0000090573D01*
X0000549209Y0000106321D02*
X0000549209Y0000090573D01*
X0000543585Y0000115320D02*
X0000537961Y0000098447D01*
X0000552584Y0000098447D01*
X0000615213Y0000097322D02*
X0000626462Y0000097322D01*
X0000612964Y0000090573D02*
X0000620837Y0000114195D01*
X0000628712Y0000090573D01*
X0000634336Y0000114195D02*
X0000648959Y0000114195D01*
X0000641085Y0000105196D01*
X0000644460Y0000105196D01*
X0000646709Y0000104071D01*
X0000647834Y0000102947D01*
X0000648959Y0000100697D01*
X0000648959Y0000095073D01*
X0000647834Y0000092823D01*
X0000646709Y0000091698D01*
X0000644460Y0000090573D01*
X0000637710Y0000090573D01*
X0000635461Y0000091698D01*
X0000634336Y0000092823D01*
X0000690439Y0000074045D02*
X0000698392Y0000081998D01*
X0000693621Y0000067681D02*
X0000682485Y0000089952D01*
X0000704756Y0000078817D01*
X0000694416Y0000098702D02*
X0000694416Y0000100293D01*
X0000695211Y0000102679D01*
X0000699188Y0000106655D01*
X0000701575Y0000107451D01*
X0000703165Y0000107451D01*
X0000705552Y0000106655D01*
X0000707142Y0000105065D01*
X0000708733Y0000101882D01*
X0000708733Y0000082794D01*
X0000719073Y0000093134D01*
X0000683523Y0000134386D02*
X0000683523Y0000145635D01*
X0000690272Y0000132137D02*
X0000666650Y0000140011D01*
X0000690272Y0000147885D01*
X0000690272Y0000168132D02*
X0000690272Y0000154634D01*
X0000690272Y0000161383D02*
X0000666650Y0000161383D01*
X0000670025Y0000159133D01*
X0000672274Y0000156884D01*
X0000673399Y0000154634D01*
X0000683523Y0000231886D02*
X0000683523Y0000243135D01*
X0000690272Y0000229637D02*
X0000666650Y0000237511D01*
X0000690272Y0000245385D01*
X0000666650Y0000257758D02*
X0000666650Y0000260008D01*
X0000667775Y0000262258D01*
X0000668900Y0000263383D01*
X0000671150Y0000264507D01*
X0000675649Y0000265632D01*
X0000681273Y0000265632D01*
X0000685773Y0000264507D01*
X0000688023Y0000263383D01*
X0000689147Y0000262258D01*
X0000690272Y0000260008D01*
X0000690272Y0000257758D01*
X0000689147Y0000255509D01*
X0000688023Y0000254384D01*
X0000685773Y0000253259D01*
X0000681273Y0000252134D01*
X0000675649Y0000252134D01*
X0000671150Y0000253259D01*
X0000668900Y0000254384D01*
X0000667775Y0000255509D01*
X0000666650Y0000257758D01*
X0000670275Y0000328262D02*
X0000669150Y0000326012D01*
X0000669150Y0000322637D01*
X0000670275Y0000319263D01*
X0000672525Y0000317013D01*
X0000674775Y0000315887D01*
X0000679274Y0000314763D01*
X0000682649Y0000314763D01*
X0000687148Y0000315887D01*
X0000689398Y0000317013D01*
X0000691647Y0000319263D01*
X0000692772Y0000322637D01*
X0000692772Y0000324887D01*
X0000691647Y0000328262D01*
X0000690522Y0000329386D01*
X0000682649Y0000329386D01*
X0000682649Y0000324887D01*
X0000692772Y0000339510D02*
X0000669150Y0000339510D01*
X0000692772Y0000353009D01*
X0000669150Y0000353009D01*
X0000692772Y0000364257D02*
X0000669150Y0000364257D01*
X0000669150Y0000369881D01*
X0000670275Y0000373256D01*
X0000672525Y0000375506D01*
X0000674775Y0000376630D01*
X0000679274Y0000377755D01*
X0000682649Y0000377755D01*
X0000687148Y0000376630D01*
X0000689398Y0000375506D01*
X0000691647Y0000373256D01*
X0000692772Y0000369881D01*
X0000692772Y0000364257D01*
D104*
X0000112401Y0001020295D02*
X0000151771Y0001020295D01*
X0000151771Y0001087224D02*
X0000112401Y0001087224D01*
X0000245551Y0000624074D02*
X0000245551Y0000663444D01*
X0000178622Y0000663444D02*
X0000178622Y0000624074D01*
X0000446889Y0000411220D02*
X0000597283Y0000411220D01*
X0000597283Y0000411220D02*
X0000597283Y0000481299D01*
X0000597283Y0000481299D02*
X0000446889Y0000481299D01*
X0000446889Y0000411220D02*
X0000446889Y0000481299D01*
X0000209783Y0000983799D02*
X0000059389Y0000983799D01*
X0000059389Y0000983799D02*
X0000059389Y0000913720D01*
X0000059389Y0000913720D02*
X0000209783Y0000913720D01*
X0000209783Y0000983799D02*
X0000209783Y0000913720D01*
X0000235708Y0000249114D02*
X0000188464Y0000249114D01*
X0000188464Y0000318405D02*
X0000235708Y0000318405D01*
X0000235708Y0000166614D02*
X0000188464Y0000166614D01*
X0000188464Y0000235905D02*
X0000235708Y0000235905D01*
D103*
X0000662401Y0000896456D02*
X0000675433Y0000864173D01*
X0000584409Y0000864173D02*
X0000597440Y0000896456D01*
X0000597440Y0000896456D02*
X0000662401Y0000896456D01*
X0000694881Y0000864173D02*
X0000681889Y0000864173D01*
X0000681889Y0000864173D02*
X0000675433Y0000864173D01*
X0000564960Y0000864173D02*
X0000584409Y0000864173D01*
X0000590551Y0001003937D02*
X0000669291Y0001003937D01*
X0000669291Y0001003937D02*
X0000669291Y0000980313D01*
X0000669291Y0000980313D02*
X0000590551Y0000980313D01*
X0000590551Y0000980313D02*
X0000590551Y0001003937D01*
X0000564960Y0000864173D02*
G75*
G03X0000629921Y0000799212I0000064960D01*
G01*
X0000629921Y0000799212D02*
G75*
G03X0000694881Y0000864173J0000064960D01*
G01*
X0000694881Y0000944881D02*
X0000694881Y0000864173D01*
X0000564960Y0000944881D02*
X0000564960Y0000864173D01*
X0000694881Y0000944881D02*
X0000694881Y0001029527D01*
X0000694881Y0001029527D02*
X0000629921Y0001029527D01*
X0000629921Y0001029527D02*
X0000564960Y0001029527D01*
X0000564960Y0001029527D02*
X0000564960Y0000944881D01*
X0000727165Y0000772834D02*
X0000727165Y0000944881D01*
X0000727165Y0000944881D02*
X0000727165Y0000772834D01*
X0000727165Y0000772834D02*
X0000532677Y0000772834D01*
X0000532677Y0000772834D02*
X0000532677Y0000944881D01*
X0000727165Y0001066929D02*
X0000727165Y0000944881D01*
X0000532677Y0001066929D02*
X0000532677Y0000944881D01*
X0000532677Y0001066929D02*
X0000727165Y0001066929D01*
X0000400767Y0000962578D02*
X0000400767Y0001064940D01*
X0000298405Y0000962578D02*
X0000298405Y0001064940D01*
X0000274783Y0000962578D02*
X0000274783Y0001064940D01*
X0000274783Y0001064940D02*
X0000424389Y0001064940D01*
X0000424389Y0001064940D02*
X0000424389Y0000962578D01*
X0000424389Y0000962578D02*
X0000274783Y0000962578D01*
D105*
X0000388503Y0000788661D02*
G75*
G03X0000388503Y0000788661I-0000009842D01*
G01*
X0000373740Y0000824094D02*
X0000389488Y0000824094D01*
X0000428858Y0000824094D02*
X0000422952Y0000824094D01*
X0000275314Y0000824094D02*
X0000281220Y0000824094D01*
X0000428858Y0000824094D02*
X0000428858Y0000678425D01*
X0000314685Y0000678425D02*
X0000389488Y0000678425D01*
X0000275314Y0000824094D02*
X0000275314Y0000678425D01*
D106*
X0000314685Y0000824094D02*
X0000330433Y0000824094D01*
D104*
X0000401456Y0000307027D02*
X0000640038Y0000307027D01*
X0000640038Y0000307027D02*
X0000640038Y0000390492D01*
X0000640038Y0000390492D02*
X0000401456Y0000390492D01*
X0000401456Y0000390492D02*
X0000401456Y0000307027D01*
X0000362086Y0000307027D02*
X0000320354Y0000307027D01*
X0000320354Y0000307027D02*
X0000320354Y0000348759D01*
X0000596771Y0000752224D02*
X0000557401Y0000752224D01*
X0000557401Y0000685295D02*
X0000596771Y0000685295D01*
D106*
X0000316653Y0000639940D02*
G75*
G03X0000316653Y0000639940I-0000002952D01*
G01*
X0000403267Y0000628129D02*
X0000403267Y0000549389D01*
X0000300905Y0000549389D02*
X0000300905Y0000630098D01*
X0000130524Y0001104699D02*
X0000128649Y0001102824D01*
X0000123025Y0001100949D01*
X0000119276Y0001100949D01*
X0000113652Y0001102824D01*
X0000109902Y0001106573D01*
X0000108027Y0001110323D01*
X0000106152Y0001117822D01*
X0000106152Y0001123446D01*
X0000108027Y0001130945D01*
X0000109902Y0001134695D01*
X0000113652Y0001138444D01*
X0000119276Y0001140319D01*
X0000123025Y0001140319D01*
X0000128649Y0001138444D01*
X0000130524Y0001136570D01*
X0000168020Y0001100949D02*
X0000145523Y0001100949D01*
X0000156771Y0001100949D02*
X0000156771Y0001140319D01*
X0000153022Y0001134695D01*
X0000149272Y0001130945D01*
X0000145523Y0001129071D01*
X0000210524Y0000747199D02*
X0000208650Y0000745324D01*
X0000203025Y0000743448D01*
X0000199276Y0000743448D01*
X0000193652Y0000745324D01*
X0000189902Y0000749073D01*
X0000188026Y0000752823D01*
X0000186152Y0000760322D01*
X0000186152Y0000765946D01*
X0000188026Y0000773445D01*
X0000189902Y0000777195D01*
X0000193652Y0000780944D01*
X0000199276Y0000782819D01*
X0000203025Y0000782819D01*
X0000208650Y0000780944D01*
X0000210524Y0000779070D01*
X0000225523Y0000779070D02*
X0000227396Y0000780944D01*
X0000231146Y0000782819D01*
X0000240521Y0000782819D01*
X0000244269Y0000780944D01*
X0000246145Y0000779070D01*
X0000248019Y0000775320D01*
X0000248019Y0000771571D01*
X0000246145Y0000765946D01*
X0000223648Y0000743448D01*
X0000248019Y0000743448D01*
X0000549278Y0000535319D02*
X0000549278Y0000507198D01*
X0000547403Y0000501573D01*
X0000543653Y0000497824D01*
X0000538029Y0000495949D01*
X0000534280Y0000495949D01*
X0000568025Y0000495949D02*
X0000568025Y0000535319D01*
X0000583023Y0000535319D01*
X0000586773Y0000533444D01*
X0000588648Y0000531570D01*
X0000590523Y0000527820D01*
X0000590523Y0000522196D01*
X0000588648Y0000518445D01*
X0000586773Y0000516572D01*
X0000583023Y0000514696D01*
X0000568025Y0000514696D01*
X0000628018Y0000495949D02*
X0000605521Y0000495949D01*
X0000616769Y0000495949D02*
X0000616769Y0000535319D01*
X0000613020Y0000529695D01*
X0000609270Y0000525945D01*
X0000605521Y0000524070D01*
X0000096778Y0000900318D02*
X0000096778Y0000872198D01*
X0000094902Y0000866573D01*
X0000091152Y0000862824D01*
X0000085529Y0000860949D01*
X0000081779Y0000860949D01*
X0000115525Y0000860949D02*
X0000115525Y0000900318D01*
X0000130524Y0000900318D01*
X0000134273Y0000898444D01*
X0000136148Y0000896570D01*
X0000138023Y0000892820D01*
X0000138023Y0000887195D01*
X0000136148Y0000883446D01*
X0000134273Y0000881572D01*
X0000130524Y0000879697D01*
X0000115525Y0000879697D01*
X0000153021Y0000896570D02*
X0000154895Y0000898444D01*
X0000158645Y0000900318D01*
X0000168019Y0000900318D01*
X0000171768Y0000898444D01*
X0000173643Y0000896570D01*
X0000175518Y0000892820D01*
X0000175518Y0000889071D01*
X0000173643Y0000883446D01*
X0000151146Y0000860949D01*
X0000175518Y0000860949D01*
X0000140524Y0000330949D02*
X0000127400Y0000349697D01*
X0000118027Y0000330949D02*
X0000118027Y0000370319D01*
X0000133025Y0000370319D01*
X0000136775Y0000368444D01*
X0000138650Y0000366569D01*
X0000140524Y0000362820D01*
X0000140524Y0000357196D01*
X0000138650Y0000353446D01*
X0000136775Y0000351572D01*
X0000133025Y0000349697D01*
X0000118027Y0000349697D01*
X0000178020Y0000330949D02*
X0000155523Y0000330949D01*
X0000166770Y0000330949D02*
X0000166770Y0000370319D01*
X0000163022Y0000364695D01*
X0000159272Y0000360945D01*
X0000155523Y0000359071D01*
X0000135524Y0000113449D02*
X0000122401Y0000132197D01*
X0000113027Y0000113449D02*
X0000113027Y0000152819D01*
X0000128025Y0000152819D01*
X0000131775Y0000150944D01*
X0000133650Y0000149070D01*
X0000135524Y0000145320D01*
X0000135524Y0000139696D01*
X0000133650Y0000135946D01*
X0000131775Y0000134071D01*
X0000128025Y0000132197D01*
X0000113027Y0000132197D01*
X0000150523Y0000149070D02*
X0000152397Y0000150944D01*
X0000156147Y0000152819D01*
X0000165521Y0000152819D01*
X0000169270Y0000150944D01*
X0000171145Y0000149070D01*
X0000173020Y0000145320D01*
X0000173020Y0000141571D01*
X0000171145Y0000135946D01*
X0000148648Y0000113449D01*
X0000173020Y0000113449D01*
D103*
X0000555222Y0001092824D02*
X0000560846Y0001090949D01*
X0000570220Y0001090949D01*
X0000573969Y0001092824D01*
X0000575844Y0001094699D01*
X0000577719Y0001098448D01*
X0000577719Y0001102198D01*
X0000575844Y0001105947D01*
X0000573969Y0001107822D01*
X0000570220Y0001109697D01*
X0000562721Y0001111572D01*
X0000558971Y0001113446D01*
X0000557096Y0001115321D01*
X0000555222Y0001119071D01*
X0000555222Y0001122820D01*
X0000557096Y0001126570D01*
X0000558971Y0001128444D01*
X0000562721Y0001130319D01*
X0000572095Y0001130319D01*
X0000577719Y0001128444D01*
X0000594592Y0001090949D02*
X0000594592Y0001130319D01*
X0000594592Y0001111572D02*
X0000617089Y0001111572D01*
X0000617089Y0001090949D02*
X0000617089Y0001130319D01*
X0000630212Y0001130319D02*
X0000652710Y0001130319D01*
X0000641461Y0001090949D02*
X0000641461Y0001130319D01*
X0000686454Y0001090949D02*
X0000663958Y0001090949D01*
X0000675207Y0001090949D02*
X0000675207Y0001130319D01*
X0000671457Y0001124695D01*
X0000667708Y0001120945D01*
X0000663958Y0001119071D01*
X0000710827Y0001130319D02*
X0000714577Y0001130319D01*
X0000718326Y0001128444D01*
X0000720201Y0001126570D01*
X0000722076Y0001122820D01*
X0000723951Y0001115321D01*
X0000723951Y0001105947D01*
X0000722076Y0001098448D01*
X0000720201Y0001094699D01*
X0000718326Y0001092824D01*
X0000714577Y0001090949D01*
X0000710827Y0001090949D01*
X0000707078Y0001092824D01*
X0000705203Y0001094699D01*
X0000703328Y0001098448D01*
X0000701453Y0001105947D01*
X0000701453Y0001115321D01*
X0000703328Y0001122820D01*
X0000705203Y0001126570D01*
X0000707078Y0001128444D01*
X0000710827Y0001130319D01*
X0000241164Y0001127819D02*
X0000263661Y0001127819D01*
X0000252412Y0001088449D02*
X0000252412Y0001127819D01*
X0000274909Y0001090324D02*
X0000280534Y0001088449D01*
X0000289908Y0001088449D01*
X0000293657Y0001090324D01*
X0000295532Y0001092199D01*
X0000297407Y0001095948D01*
X0000297407Y0001099698D01*
X0000295532Y0001103447D01*
X0000293657Y0001105322D01*
X0000289908Y0001107197D01*
X0000282409Y0001109072D01*
X0000278659Y0001110946D01*
X0000276784Y0001112821D01*
X0000274909Y0001116571D01*
X0000274909Y0001120320D01*
X0000276784Y0001124070D01*
X0000278659Y0001125944D01*
X0000282409Y0001127819D01*
X0000291782Y0001127819D01*
X0000297407Y0001125944D01*
X0000333026Y0001088449D02*
X0000314280Y0001088449D01*
X0000314280Y0001127819D01*
X0000344276Y0001124070D02*
X0000346151Y0001125944D01*
X0000349900Y0001127819D01*
X0000359274Y0001127819D01*
X0000363023Y0001125944D01*
X0000364898Y0001124070D01*
X0000366773Y0001120320D01*
X0000366773Y0001116571D01*
X0000364898Y0001110946D01*
X0000342401Y0001088449D01*
X0000366773Y0001088449D01*
X0000402394Y0001127819D02*
X0000383646Y0001127819D01*
X0000381771Y0001109072D01*
X0000383646Y0001110946D01*
X0000387395Y0001112821D01*
X0000396769Y0001112821D01*
X0000400519Y0001110946D01*
X0000402394Y0001109072D01*
X0000404268Y0001105322D01*
X0000404268Y0001095948D01*
X0000402394Y0001092199D01*
X0000400519Y0001090324D01*
X0000396769Y0001088449D01*
X0000387395Y0001088449D01*
X0000383646Y0001090324D01*
X0000381771Y0001092199D01*
X0000438014Y0001127819D02*
X0000430515Y0001127819D01*
X0000426765Y0001125944D01*
X0000424891Y0001124070D01*
X0000421141Y0001118445D01*
X0000419266Y0001110946D01*
X0000419266Y0001095948D01*
X0000421141Y0001092199D01*
X0000423016Y0001090324D01*
X0000426765Y0001088449D01*
X0000434265Y0001088449D01*
X0000438014Y0001090324D01*
X0000439889Y0001092199D01*
X0000441764Y0001095948D01*
X0000441764Y0001105322D01*
X0000439889Y0001109072D01*
X0000438014Y0001110946D01*
X0000434265Y0001112821D01*
X0000426765Y0001112821D01*
X0000423016Y0001110946D01*
X0000421141Y0001109072D01*
X0000419266Y0001105322D01*
X0000479259Y0001088449D02*
X0000456762Y0001088449D01*
X0000468010Y0001088449D02*
X0000468010Y0001127819D01*
X0000464261Y0001122195D01*
X0000460511Y0001118445D01*
X0000456762Y0001116571D01*
X0000463659Y0000255948D02*
X0000463659Y0000295319D01*
X0000473033Y0000295319D01*
X0000478657Y0000293444D01*
X0000482407Y0000289695D01*
X0000484281Y0000285945D01*
X0000486156Y0000278446D01*
X0000486156Y0000272822D01*
X0000484281Y0000265323D01*
X0000482407Y0000261573D01*
X0000478657Y0000257824D01*
X0000473033Y0000255948D01*
X0000463659Y0000255948D01*
X0000503028Y0000255948D02*
X0000503028Y0000295319D01*
X0000503028Y0000276572D02*
X0000525526Y0000276572D01*
X0000525526Y0000255948D02*
X0000525526Y0000295319D01*
X0000538650Y0000295319D02*
X0000561147Y0000295319D01*
X0000549898Y0000255948D02*
X0000549898Y0000295319D01*
X0000594893Y0000255948D02*
X0000572395Y0000255948D01*
X0000583644Y0000255948D02*
X0000583644Y0000295319D01*
X0000579894Y0000289695D01*
X0000576145Y0000285945D01*
X0000572395Y0000284071D01*
X0000632388Y0000255948D02*
X0000609891Y0000255948D01*
X0000621139Y0000255948D02*
X0000621139Y0000295319D01*
X0000617390Y0000289695D01*
X0000613640Y0000285945D01*
X0000609891Y0000284071D01*
D106*
X0000570524Y0000773596D02*
X0000568650Y0000771721D01*
X0000563025Y0000769846D01*
X0000559276Y0000769846D01*
X0000553652Y0000771721D01*
X0000549902Y0000775470D01*
X0000548027Y0000779221D01*
X0000546152Y0000786720D01*
X0000546152Y0000792344D01*
X0000548027Y0000799843D01*
X0000549902Y0000803592D01*
X0000553652Y0000807342D01*
X0000559276Y0000809217D01*
X0000563025Y0000809217D01*
X0000568650Y0000807342D01*
X0000570524Y0000805467D01*
X0000583648Y0000809217D02*
X0000608020Y0000809217D01*
X0000594896Y0000794219D01*
X0000600521Y0000794219D01*
X0000604270Y0000792344D01*
X0000606145Y0000790469D01*
X0000608020Y0000786720D01*
X0000608020Y0000777346D01*
X0000606145Y0000773596D01*
X0000604270Y0000771721D01*
X0000600521Y0000769846D01*
X0000589272Y0000769846D01*
X0000585523Y0000771721D01*
X0000583648Y0000773596D01*
D102*
X0000304280Y0000517665D02*
X0000307092Y0000516727D01*
X0000308029Y0000515791D01*
X0000308967Y0000513916D01*
X0000308967Y0000511104D01*
X0000308029Y0000509229D01*
X0000307092Y0000508291D01*
X0000305217Y0000507354D01*
X0000297718Y0000507354D01*
X0000297718Y0000527039D01*
X0000304280Y0000527039D01*
X0000306154Y0000526102D01*
X0000307092Y0000525164D01*
X0000308029Y0000523290D01*
X0000308029Y0000521414D01*
X0000307092Y0000519540D01*
X0000306154Y0000518603D01*
X0000304280Y0000517665D01*
X0000297718Y0000517665D01*
X0000317403Y0000507354D02*
X0000317403Y0000527039D01*
X0000323964Y0000512978D01*
X0000330526Y0000527039D01*
X0000330526Y0000507354D01*
X0000339900Y0000507354D02*
X0000339900Y0000527039D01*
X0000347399Y0000527039D01*
X0000349274Y0000526102D01*
X0000350211Y0000525164D01*
X0000351149Y0000523290D01*
X0000351149Y0000520478D01*
X0000350211Y0000518603D01*
X0000349274Y0000517665D01*
X0000347399Y0000516727D01*
X0000339900Y0000516727D01*
X0000358648Y0000525164D02*
X0000359584Y0000526102D01*
X0000361460Y0000527039D01*
X0000366147Y0000527039D01*
X0000368022Y0000526102D01*
X0000368959Y0000525164D01*
X0000369896Y0000523290D01*
X0000369896Y0000521414D01*
X0000368959Y0000518603D01*
X0000357710Y0000507354D01*
X0000369896Y0000507354D01*
X0000381145Y0000518603D02*
X0000379270Y0000519540D01*
X0000378333Y0000520478D01*
X0000377395Y0000522352D01*
X0000377395Y0000523290D01*
X0000378333Y0000525164D01*
X0000379270Y0000526102D01*
X0000381145Y0000527039D01*
X0000384895Y0000527039D01*
X0000386769Y0000526102D01*
X0000387707Y0000525164D01*
X0000388644Y0000523290D01*
X0000388644Y0000522352D01*
X0000387707Y0000520478D01*
X0000386769Y0000519540D01*
X0000384895Y0000518603D01*
X0000381145Y0000518603D01*
X0000379270Y0000517665D01*
X0000378333Y0000516727D01*
X0000377395Y0000514853D01*
X0000377395Y0000511104D01*
X0000378333Y0000509229D01*
X0000379270Y0000508291D01*
X0000381145Y0000507354D01*
X0000384895Y0000507354D01*
X0000386769Y0000508291D01*
X0000387707Y0000509229D01*
X0000388644Y0000511104D01*
X0000388644Y0000514853D01*
X0000387707Y0000516727D01*
X0000386769Y0000517665D01*
X0000384895Y0000518603D01*
X0000400830Y0000527039D02*
X0000402705Y0000527039D01*
X0000404580Y0000526102D01*
X0000405516Y0000525164D01*
X0000406453Y0000523290D01*
X0000407392Y0000519540D01*
X0000407392Y0000514853D01*
X0000406453Y0000511104D01*
X0000405516Y0000509229D01*
X0000404580Y0000508291D01*
X0000402705Y0000507354D01*
X0000400830Y0000507354D01*
X0000398955Y0000508291D01*
X0000398018Y0000509229D01*
X0000397081Y0000511104D01*
X0000396143Y0000514853D01*
X0000396143Y0000519540D01*
X0000397081Y0000523290D01*
X0000398018Y0000525164D01*
X0000398955Y0000526102D01*
X0000400830Y0000527039D01*
M02*