%MOIN*%
%OFA0B0*%
%FSLAX46Y46*%
%IPPOS*%
%LPD*%
%ADD10C,0.0039370078740157488*%
%ADD11C,0.0078740157480314977*%
%ADD22C,0.0039370078740157488*%
%ADD23C,0.0078740157480314977*%
%ADD34C,0.0039370078740157488*%
%ADD35C,0.005905511811023622*%
%ADD36C,0.015748031496062995*%
%ADD47C,0.0039370078740157488*%
%ADD48C,0.005905511811023622*%
%ADD49C,0.015748031496062995*%
%ADD60C,0.0039370078740157488*%
%ADD61C,0.0047244094488188976*%
%ADD72C,0.0039370078740157488*%
%ADD73C,0.0078740157480314977*%
%ADD74C,0.0047244094488188976*%
%ADD75C,0.0059*%
%ADD76C,0.005905511811023622*%
%LPD*%
G01*
D10*
D11*
X0003167790Y0001580693D02*
X0003154668Y0001599441D01*
X0003145294Y0001580693D02*
X0003145294Y0001620063D01*
X0003160292Y0001620063D01*
X0003164042Y0001618188D01*
X0003165916Y0001616314D01*
X0003167790Y0001612564D01*
X0003167790Y0001606940D01*
X0003165916Y0001603190D01*
X0003164042Y0001601316D01*
X0003160292Y0001599441D01*
X0003145294Y0001599441D01*
X0003199662Y0001582568D02*
X0003195912Y0001580693D01*
X0003188412Y0001580693D01*
X0003184664Y0001582568D01*
X0003182789Y0001586317D01*
X0003182789Y0001601316D01*
X0003184664Y0001605065D01*
X0003188412Y0001606940D01*
X0003195912Y0001606940D01*
X0003199662Y0001605065D01*
X0003201537Y0001601316D01*
X0003201537Y0001597566D01*
X0003182789Y0001593817D01*
X0003216535Y0001582568D02*
X0003220284Y0001580693D01*
X0003227784Y0001580693D01*
X0003231533Y0001582568D01*
X0003233408Y0001586317D01*
X0003233408Y0001588192D01*
X0003231533Y0001591942D01*
X0003227784Y0001593817D01*
X0003222159Y0001593817D01*
X0003218410Y0001595691D01*
X0003216535Y0001599441D01*
X0003216535Y0001601316D01*
X0003218410Y0001605065D01*
X0003222159Y0001606940D01*
X0003227784Y0001606940D01*
X0003231533Y0001605065D01*
X0003265279Y0001582568D02*
X0003261529Y0001580693D01*
X0003254030Y0001580693D01*
X0003250281Y0001582568D01*
X0003248406Y0001586317D01*
X0003248406Y0001601316D01*
X0003250281Y0001605065D01*
X0003254030Y0001606940D01*
X0003261529Y0001606940D01*
X0003265279Y0001605065D01*
X0003267154Y0001601316D01*
X0003267154Y0001597566D01*
X0003248406Y0001593817D01*
X0003278401Y0001606940D02*
X0003293400Y0001606940D01*
X0003284027Y0001620063D02*
X0003284027Y0001586317D01*
X0003285901Y0001582568D01*
X0003289651Y0001580693D01*
X0003293400Y0001580693D01*
G01*
D22*
D23*
X0003285901Y0000124000D02*
X0003272778Y0000142748D01*
X0003263404Y0000124000D02*
X0003263404Y0000163370D01*
X0003278401Y0000163370D01*
X0003282152Y0000161495D01*
X0003284027Y0000159621D01*
X0003285901Y0000155871D01*
X0003285901Y0000150247D01*
X0003284027Y0000146497D01*
X0003282152Y0000144623D01*
X0003278401Y0000142748D01*
X0003263404Y0000142748D01*
X0003317772Y0000125874D02*
X0003314023Y0000124000D01*
X0003306524Y0000124000D01*
X0003302773Y0000125874D01*
X0003300899Y0000129624D01*
X0003300899Y0000144623D01*
X0003302773Y0000148372D01*
X0003306524Y0000150247D01*
X0003314023Y0000150247D01*
X0003317772Y0000148372D01*
X0003319647Y0000144623D01*
X0003319647Y0000140873D01*
X0003300899Y0000137124D01*
X0003334645Y0000125874D02*
X0003338395Y0000124000D01*
X0003345894Y0000124000D01*
X0003349643Y0000125874D01*
X0003351517Y0000129624D01*
X0003351517Y0000131499D01*
X0003349643Y0000135249D01*
X0003345894Y0000137124D01*
X0003340269Y0000137124D01*
X0003336520Y0000138998D01*
X0003334645Y0000142748D01*
X0003334645Y0000144623D01*
X0003336520Y0000148372D01*
X0003340269Y0000150247D01*
X0003345894Y0000150247D01*
X0003349643Y0000148372D01*
X0003383389Y0000125874D02*
X0003379640Y0000124000D01*
X0003372140Y0000124000D01*
X0003368391Y0000125874D01*
X0003366516Y0000129624D01*
X0003366516Y0000144623D01*
X0003368391Y0000148372D01*
X0003372140Y0000150247D01*
X0003379640Y0000150247D01*
X0003383389Y0000148372D01*
X0003385264Y0000144623D01*
X0003385264Y0000140873D01*
X0003366516Y0000137124D01*
X0003396512Y0000150247D02*
X0003411511Y0000150247D01*
X0003402137Y0000163370D02*
X0003402137Y0000129624D01*
X0003404012Y0000125874D01*
X0003407761Y0000124000D01*
X0003411511Y0000124000D01*
G04 next file*
%LPD*%
G01*
D34*
X0002186580Y0000111813D02*
X0002186580Y0000135435D01*
X0002192204Y0000135435D01*
X0002195579Y0000134310D01*
X0002197828Y0000132061D01*
X0002198953Y0000129811D01*
X0002200078Y0000125312D01*
X0002200078Y0000121937D01*
X0002198953Y0000117438D01*
X0002197828Y0000115188D01*
X0002195579Y0000112938D01*
X0002192204Y0000111813D01*
X0002186580Y0000111813D01*
X0002207952Y0000135435D02*
X0002223700Y0000135435D01*
X0002213576Y0000111813D01*
X0002096954Y0000124187D02*
X0002100328Y0000123062D01*
X0002101453Y0000121937D01*
X0002102578Y0000119687D01*
X0002102578Y0000116313D01*
X0002101453Y0000114063D01*
X0002100328Y0000112938D01*
X0002098079Y0000111813D01*
X0002089080Y0000111813D01*
X0002089080Y0000135435D01*
X0002096954Y0000135435D01*
X0002099204Y0000134310D01*
X0002100328Y0000133186D01*
X0002101453Y0000130936D01*
X0002101453Y0000128686D01*
X0002100328Y0000126436D01*
X0002099204Y0000125312D01*
X0002096954Y0000124187D01*
X0002089080Y0000124187D01*
X0002125075Y0000111813D02*
X0002111577Y0000111813D01*
X0002118326Y0000111813D02*
X0002118326Y0000135435D01*
X0002116076Y0000132061D01*
X0002113827Y0000129811D01*
X0002111577Y0000128686D01*
X0001975019Y0000135435D02*
X0001982893Y0000111813D01*
X0001990767Y0000135435D01*
X0002012139Y0000114063D02*
X0002011015Y0000112938D01*
X0002007639Y0000111813D01*
X0002005389Y0000111813D01*
X0002002015Y0000112938D01*
X0001999766Y0000115188D01*
X0001998641Y0000117438D01*
X0001997516Y0000121937D01*
X0001997516Y0000125312D01*
X0001998641Y0000129811D01*
X0001999766Y0000132061D01*
X0002002015Y0000134310D01*
X0002005389Y0000135435D01*
X0002007639Y0000135435D01*
X0002011015Y0000134310D01*
X0002012139Y0000133186D01*
X0002035762Y0000114063D02*
X0002034637Y0000112938D01*
X0002031262Y0000111813D01*
X0002029011Y0000111813D01*
X0002025637Y0000112938D01*
X0002023388Y0000115188D01*
X0002022263Y0000117438D01*
X0002021138Y0000121937D01*
X0002021138Y0000125312D01*
X0002022263Y0000129811D01*
X0002023388Y0000132061D01*
X0002025637Y0000134310D01*
X0002029011Y0000135435D01*
X0002031262Y0000135435D01*
X0002034637Y0000134310D01*
X0002035762Y0000133186D01*
X0001891017Y0000134310D02*
X0001888768Y0000135435D01*
X0001885393Y0000135435D01*
X0001882019Y0000134310D01*
X0001879769Y0000132061D01*
X0001878644Y0000129811D01*
X0001877519Y0000125312D01*
X0001877519Y0000121937D01*
X0001878644Y0000117438D01*
X0001879769Y0000115188D01*
X0001882019Y0000112938D01*
X0001885393Y0000111813D01*
X0001887643Y0000111813D01*
X0001891017Y0000112938D01*
X0001892142Y0000114063D01*
X0001892142Y0000121937D01*
X0001887643Y0000121937D01*
X0001902266Y0000111813D02*
X0001902266Y0000135435D01*
X0001915764Y0000111813D01*
X0001915764Y0000135435D01*
X0001927013Y0000111813D02*
X0001927013Y0000135435D01*
X0001932637Y0000135435D01*
X0001936012Y0000134310D01*
X0001938262Y0000132061D01*
X0001939386Y0000129811D01*
X0001940511Y0000125312D01*
X0001940511Y0000121937D01*
X0001939386Y0000117438D01*
X0001938262Y0000115188D01*
X0001936012Y0000112938D01*
X0001932637Y0000111813D01*
X0001927013Y0000111813D01*
X0001943880Y0000413678D02*
X0001943880Y0000390056D01*
X0001943880Y0000401304D02*
X0001930382Y0000401304D01*
X0001930382Y0000413678D02*
X0001930382Y0000390056D01*
X0001919133Y0000413678D02*
X0001919133Y0000390056D01*
X0001911259Y0000406929D01*
X0001903385Y0000390056D01*
X0001903385Y0000413678D01*
X0001893262Y0000412553D02*
X0001889886Y0000413678D01*
X0001884263Y0000413678D01*
X0001882013Y0000412553D01*
X0001880888Y0000411428D01*
X0001879763Y0000409178D01*
X0001879763Y0000406929D01*
X0001880888Y0000404679D01*
X0001882013Y0000403554D01*
X0001884263Y0000402429D01*
X0001888762Y0000401304D01*
X0001891012Y0000400179D01*
X0001892137Y0000399055D01*
X0001893262Y0000396805D01*
X0001893262Y0000394555D01*
X0001892137Y0000392305D01*
X0001891012Y0000391181D01*
X0001888762Y0000390056D01*
X0001883138Y0000390056D01*
X0001879763Y0000391181D01*
X0001860641Y0000412553D02*
X0001862890Y0000413678D01*
X0001867390Y0000413678D01*
X0001869639Y0000412553D01*
X0001870763Y0000410303D01*
X0001870763Y0000401304D01*
X0001869639Y0000399055D01*
X0001867390Y0000397930D01*
X0001862890Y0000397930D01*
X0001860641Y0000399055D01*
X0001859514Y0000401304D01*
X0001859514Y0000403554D01*
X0001870763Y0000405804D01*
X0001849392Y0000397930D02*
X0001849392Y0000413678D01*
X0001849392Y0000400179D02*
X0001848267Y0000399055D01*
X0001846017Y0000397930D01*
X0001842643Y0000397930D01*
X0001840391Y0000399055D01*
X0001839268Y0000401304D01*
X0001839268Y0000413678D01*
X0001829145Y0000412553D02*
X0001826895Y0000413678D01*
X0001822395Y0000413678D01*
X0001820145Y0000412553D01*
X0001819021Y0000410303D01*
X0001819021Y0000409178D01*
X0001820145Y0000406929D01*
X0001822395Y0000405804D01*
X0001825770Y0000405804D01*
X0001828019Y0000404679D01*
X0001829145Y0000402429D01*
X0001829145Y0000401304D01*
X0001828019Y0000399055D01*
X0001825770Y0000397930D01*
X0001822395Y0000397930D01*
X0001820145Y0000399055D01*
X0001805522Y0000413678D02*
X0001807772Y0000412553D01*
X0001808896Y0000411428D01*
X0001810022Y0000409178D01*
X0001810022Y0000402429D01*
X0001808896Y0000400179D01*
X0001807772Y0000399055D01*
X0001805522Y0000397930D01*
X0001802148Y0000397930D01*
X0001799898Y0000399055D01*
X0001798773Y0000400179D01*
X0001797648Y0000402429D01*
X0001797648Y0000409178D01*
X0001798773Y0000411428D01*
X0001799898Y0000412553D01*
X0001802148Y0000413678D01*
X0001805522Y0000413678D01*
X0001787525Y0000413678D02*
X0001787525Y0000397930D01*
X0001787525Y0000402429D02*
X0001786400Y0000400179D01*
X0001785275Y0000399055D01*
X0001783025Y0000397930D01*
X0001780776Y0000397930D01*
X0002016433Y0000443936D02*
X0002005185Y0000443936D01*
X0002018682Y0000450686D02*
X0002010809Y0000427064D01*
X0002002935Y0000450686D01*
X0001996186Y0000443936D02*
X0001984938Y0000443936D01*
X0001998436Y0000450686D02*
X0001990562Y0000427064D01*
X0001982688Y0000450686D01*
X0001975939Y0000443936D02*
X0001964690Y0000443936D01*
X0001978188Y0000450686D02*
X0001970313Y0000427064D01*
X0001962439Y0000450686D01*
X0001936569Y0000450686D02*
X0001936569Y0000427064D01*
X0001936569Y0000438312D02*
X0001923069Y0000438312D01*
X0001923069Y0000450686D02*
X0001923069Y0000427064D01*
X0001908447Y0000450686D02*
X0001910697Y0000449561D01*
X0001911821Y0000448436D01*
X0001912947Y0000446186D01*
X0001912947Y0000439436D01*
X0001911821Y0000437187D01*
X0001910697Y0000436062D01*
X0001908447Y0000434938D01*
X0001905073Y0000434938D01*
X0001902823Y0000436062D01*
X0001901698Y0000437187D01*
X0001900573Y0000439436D01*
X0001900573Y0000446186D01*
X0001901698Y0000448436D01*
X0001902823Y0000449561D01*
X0001905073Y0000450686D01*
X0001908447Y0000450686D01*
X0001887075Y0000450686D02*
X0001889325Y0000449561D01*
X0001890449Y0000447311D01*
X0001890449Y0000427064D01*
X0001867952Y0000450686D02*
X0001867952Y0000427064D01*
X0001867952Y0000449561D02*
X0001870202Y0000450686D01*
X0001874701Y0000450686D01*
X0001876951Y0000449561D01*
X0001878076Y0000448436D01*
X0001879201Y0000446186D01*
X0001879201Y0000439436D01*
X0001878076Y0000437187D01*
X0001876951Y0000436062D01*
X0001874701Y0000434938D01*
X0001870202Y0000434938D01*
X0001867952Y0000436062D01*
X0001847705Y0000449561D02*
X0001849954Y0000450686D01*
X0001854454Y0000450686D01*
X0001856704Y0000449561D01*
X0001857828Y0000447311D01*
X0001857828Y0000438312D01*
X0001856704Y0000436062D01*
X0001854454Y0000434938D01*
X0001849954Y0000434938D01*
X0001847705Y0000436062D01*
X0001846580Y0000438312D01*
X0001846580Y0000440562D01*
X0001857828Y0000442812D01*
X0001836456Y0000450686D02*
X0001836456Y0000434938D01*
X0001836456Y0000439436D02*
X0001835331Y0000437187D01*
X0001834205Y0000436062D01*
X0001831957Y0000434938D01*
X0001829707Y0000434938D01*
X0001795959Y0000438312D02*
X0001792587Y0000439436D01*
X0001791462Y0000440562D01*
X0001790337Y0000442812D01*
X0001790337Y0000446186D01*
X0001791462Y0000448436D01*
X0001792587Y0000449561D01*
X0001794836Y0000450686D01*
X0001803835Y0000450686D01*
X0001803835Y0000427064D01*
X0001795959Y0000427064D01*
X0001793711Y0000428188D01*
X0001792587Y0000429313D01*
X0001791462Y0000431563D01*
X0001791462Y0000433813D01*
X0001792587Y0000436062D01*
X0001793711Y0000437187D01*
X0001795959Y0000438312D01*
X0001803835Y0000438312D01*
X0001776839Y0000450686D02*
X0001779088Y0000449561D01*
X0001780213Y0000448436D01*
X0001781338Y0000446186D01*
X0001781338Y0000439436D01*
X0001780213Y0000437187D01*
X0001779088Y0000436062D01*
X0001776839Y0000434938D01*
X0001773464Y0000434938D01*
X0001771214Y0000436062D01*
X0001770089Y0000437187D01*
X0001768965Y0000439436D01*
X0001768965Y0000446186D01*
X0001770089Y0000448436D01*
X0001771214Y0000449561D01*
X0001773464Y0000450686D01*
X0001776839Y0000450686D01*
X0001748716Y0000450686D02*
X0001748716Y0000438312D01*
X0001749842Y0000436062D01*
X0001752092Y0000434938D01*
X0001756590Y0000434938D01*
X0001758841Y0000436062D01*
X0001748716Y0000449561D02*
X0001750967Y0000450686D01*
X0001756590Y0000450686D01*
X0001758841Y0000449561D01*
X0001759966Y0000447311D01*
X0001759966Y0000445061D01*
X0001758841Y0000442812D01*
X0001756590Y0000441687D01*
X0001750967Y0000441687D01*
X0001748716Y0000440562D01*
X0001737467Y0000450686D02*
X0001737467Y0000434938D01*
X0001737467Y0000439436D02*
X0001736344Y0000437187D01*
X0001735219Y0000436062D01*
X0001732969Y0000434938D01*
X0001730719Y0000434938D01*
X0001712722Y0000450686D02*
X0001712722Y0000427064D01*
X0001712722Y0000449561D02*
X0001714971Y0000450686D01*
X0001719471Y0000450686D01*
X0001721720Y0000449561D01*
X0001722845Y0000448436D01*
X0001723970Y0000446186D01*
X0001723970Y0000439436D01*
X0001722845Y0000437187D01*
X0001721720Y0000436062D01*
X0001719471Y0000434938D01*
X0001714971Y0000434938D01*
X0001712722Y0000436062D01*
X0001900011Y0000464070D02*
X0001892137Y0000487693D01*
X0001884263Y0000464070D01*
X0001864015Y0000487693D02*
X0001877513Y0000487693D01*
X0001870763Y0000487693D02*
X0001870763Y0000464070D01*
X0001873014Y0000467446D01*
X0001875264Y0000469696D01*
X0001877513Y0000470821D01*
X0001853891Y0000485444D02*
X0001852767Y0000486569D01*
X0001853891Y0000487693D01*
X0001855016Y0000486569D01*
X0001853891Y0000485444D01*
X0001853891Y0000487693D01*
X0001838143Y0000464070D02*
X0001835894Y0000464070D01*
X0001833644Y0000465196D01*
X0001832519Y0000466321D01*
X0001831394Y0000468571D01*
X0001830269Y0000473070D01*
X0001830269Y0000478695D01*
X0001831394Y0000483194D01*
X0001832519Y0000485444D01*
X0001833644Y0000486569D01*
X0001835894Y0000487693D01*
X0001838143Y0000487693D01*
X0001840391Y0000486569D01*
X0001841518Y0000485444D01*
X0001842643Y0000483194D01*
X0001843768Y0000478695D01*
X0001843768Y0000473070D01*
X0001842643Y0000468571D01*
X0001841518Y0000466321D01*
X0001840391Y0000465196D01*
X0001838143Y0000464070D01*
X0002033200Y0000702064D02*
X0002025326Y0000725686D01*
X0002017452Y0000702064D01*
X0002009577Y0000725686D02*
X0002009577Y0000709938D01*
X0002009577Y0000702064D02*
X0002010702Y0000703188D01*
X0002009577Y0000704313D01*
X0002008452Y0000703188D01*
X0002009577Y0000702064D01*
X0002009577Y0000704313D01*
X0001998329Y0000709938D02*
X0001998329Y0000725686D01*
X0001998329Y0000712187D02*
X0001997204Y0000711061D01*
X0001994954Y0000709938D01*
X0001991580Y0000709938D01*
X0001989330Y0000711061D01*
X0001988205Y0000713312D01*
X0001988205Y0000725686D01*
X0002364701Y0000250064D02*
X0002341079Y0000250064D01*
X0002341079Y0000255688D01*
X0002342204Y0000259063D01*
X0002344454Y0000261313D01*
X0002346704Y0000262438D01*
X0002351203Y0000263562D01*
X0002354578Y0000263562D01*
X0002359077Y0000262438D01*
X0002361327Y0000261313D01*
X0002363576Y0000259063D01*
X0002364701Y0000255688D01*
X0002364701Y0000250064D01*
X0002341079Y0000283810D02*
X0002341079Y0000279310D01*
X0002342204Y0000277061D01*
X0002343329Y0000275936D01*
X0002346704Y0000273686D01*
X0002351203Y0000272561D01*
X0002360202Y0000272561D01*
X0002362452Y0000273686D01*
X0002363576Y0000274811D01*
X0002364701Y0000277061D01*
X0002364701Y0000281560D01*
X0002363576Y0000283810D01*
X0002362452Y0000284935D01*
X0002360202Y0000286060D01*
X0002354578Y0000286060D01*
X0002352328Y0000284935D01*
X0002351203Y0000283810D01*
X0002350078Y0000281560D01*
X0002350078Y0000277061D01*
X0002351203Y0000274811D01*
X0002352328Y0000273686D01*
X0002354578Y0000272561D01*
X0002367201Y0000350064D02*
X0002343579Y0000350064D01*
X0002343579Y0000355688D01*
X0002344704Y0000359062D01*
X0002346954Y0000361313D01*
X0002349204Y0000362438D01*
X0002353703Y0000363562D01*
X0002357078Y0000363562D01*
X0002361577Y0000362438D01*
X0002363827Y0000361313D01*
X0002366076Y0000359062D01*
X0002367201Y0000355688D01*
X0002367201Y0000350064D01*
X0002343579Y0000371436D02*
X0002343579Y0000386060D01*
X0002352578Y0000378185D01*
X0002352578Y0000381560D01*
X0002353703Y0000383810D01*
X0002354828Y0000384935D01*
X0002357078Y0000386060D01*
X0002362702Y0000386060D01*
X0002364952Y0000384935D01*
X0002366076Y0000383810D01*
X0002367201Y0000381560D01*
X0002367201Y0000374811D01*
X0002366076Y0000372561D01*
X0002364952Y0000371436D01*
X0002357952Y0000450627D02*
X0002357952Y0000461875D01*
X0002364701Y0000448377D02*
X0002341079Y0000456251D01*
X0002364701Y0000464125D01*
X0002341079Y0000483247D02*
X0002341079Y0000471999D01*
X0002352328Y0000470874D01*
X0002351203Y0000471999D01*
X0002350078Y0000474249D01*
X0002350078Y0000479873D01*
X0002351203Y0000482123D01*
X0002352328Y0000483247D01*
X0002354578Y0000484371D01*
X0002360202Y0000484371D01*
X0002362452Y0000483247D01*
X0002363576Y0000482123D01*
X0002364701Y0000479873D01*
X0002364701Y0000474249D01*
X0002363576Y0000471999D01*
X0002362452Y0000470874D01*
X0002357952Y0000550627D02*
X0002357952Y0000561875D01*
X0002364701Y0000548377D02*
X0002341079Y0000556251D01*
X0002364701Y0000564125D01*
X0002348953Y0000582123D02*
X0002364701Y0000582123D01*
X0002339954Y0000576498D02*
X0002356827Y0000570874D01*
X0002356827Y0000585497D01*
X0002357952Y0000648127D02*
X0002357952Y0000659375D01*
X0002364701Y0000645876D02*
X0002341079Y0000653751D01*
X0002364701Y0000661625D01*
X0002341079Y0000667249D02*
X0002341079Y0000681872D01*
X0002350078Y0000673998D01*
X0002350078Y0000677373D01*
X0002351203Y0000679623D01*
X0002352328Y0000680747D01*
X0002354578Y0000681872D01*
X0002360202Y0000681872D01*
X0002362452Y0000680747D01*
X0002363576Y0000679623D01*
X0002364701Y0000677373D01*
X0002364701Y0000670624D01*
X0002363576Y0000668374D01*
X0002362452Y0000667249D01*
X0002381230Y0000723352D02*
X0002373276Y0000731306D01*
X0002387593Y0000726534D02*
X0002365322Y0000715398D01*
X0002376458Y0000737670D01*
X0002356573Y0000727329D02*
X0002354982Y0000727329D01*
X0002352596Y0000728124D01*
X0002348619Y0000732102D01*
X0002347823Y0000734488D01*
X0002347823Y0000736079D01*
X0002348619Y0000738465D01*
X0002350210Y0000740055D01*
X0002353391Y0000741646D01*
X0002372481Y0000741646D01*
X0002362140Y0000751987D01*
X0002320888Y0000716436D02*
X0002309639Y0000716436D01*
X0002323138Y0000723185D02*
X0002315264Y0000699564D01*
X0002307390Y0000723185D01*
X0002287142Y0000723185D02*
X0002300641Y0000723185D01*
X0002293891Y0000723185D02*
X0002293891Y0000699564D01*
X0002296141Y0000702938D01*
X0002298391Y0000705188D01*
X0002300641Y0000706313D01*
X0002223388Y0000716436D02*
X0002212139Y0000716436D01*
X0002225638Y0000723185D02*
X0002217764Y0000699564D01*
X0002209890Y0000723185D01*
X0002197516Y0000699564D02*
X0002195267Y0000699564D01*
X0002193017Y0000700688D01*
X0002191892Y0000701813D01*
X0002190767Y0000704062D01*
X0002189642Y0000708562D01*
X0002189642Y0000714187D01*
X0002190767Y0000718686D01*
X0002191892Y0000720936D01*
X0002193017Y0000722061D01*
X0002195267Y0000723185D01*
X0002197516Y0000723185D01*
X0002199766Y0000722061D01*
X0002200891Y0000720936D01*
X0002202016Y0000718686D01*
X0002203141Y0000714187D01*
X0002203141Y0000708562D01*
X0002202016Y0000704062D01*
X0002200891Y0000701813D01*
X0002199766Y0000700688D01*
X0002197516Y0000699564D01*
X0002127013Y0000703188D02*
X0002129263Y0000702064D01*
X0002132637Y0000702064D01*
X0002136012Y0000703188D01*
X0002138261Y0000705438D01*
X0002139386Y0000707688D01*
X0002140511Y0000712187D01*
X0002140511Y0000715562D01*
X0002139386Y0000720061D01*
X0002138261Y0000722311D01*
X0002136012Y0000724561D01*
X0002132637Y0000725686D01*
X0002130387Y0000725686D01*
X0002127013Y0000724561D01*
X0002125888Y0000723436D01*
X0002125888Y0000715562D01*
X0002130387Y0000715562D01*
X0002115764Y0000725686D02*
X0002115764Y0000702064D01*
X0002102266Y0000725686D01*
X0002102266Y0000702064D01*
X0002091017Y0000725686D02*
X0002091017Y0000702064D01*
X0002085392Y0000702064D01*
X0002082018Y0000703188D01*
X0002079769Y0000705438D01*
X0002078644Y0000707688D01*
X0002077519Y0000712187D01*
X0002077519Y0000715562D01*
X0002078644Y0000720061D01*
X0002079769Y0000722311D01*
X0002082018Y0000724561D01*
X0002085392Y0000725686D01*
X0002091017Y0000725686D01*
D35*
X0001298463Y0001053129D02*
X0001259094Y0001053129D01*
X0001259094Y0001053129D02*
X0001259094Y0001131870D01*
X0001259094Y0001131870D02*
X0001298463Y0001131870D01*
X0001298463Y0000974389D02*
X0001298463Y0001210610D01*
X0001298463Y0001210610D02*
X0002518936Y0001210610D01*
X0002518936Y0001210610D02*
X0002518936Y0000974389D01*
X0002518936Y0000974389D02*
X0001298463Y0000974389D01*
X0000904763Y0001092499D02*
X0000904763Y0001348405D01*
X0000904763Y0001348405D02*
X0002873267Y0001348405D01*
X0002873267Y0001348405D02*
X0002873267Y0000836594D01*
X0002873267Y0000836594D02*
X0000904763Y0000836594D01*
X0000904763Y0000836594D02*
X0000904763Y0001092499D01*
D36*
X0002682041Y0001100936D02*
X0002592051Y0001100936D01*
X0001149420Y0001047504D02*
X0001149420Y0001137494D01*
X0001194415Y0001092499D02*
X0001104426Y0001092499D01*
G01*
D47*
X0001501893Y0002144128D02*
X0001525515Y0002144128D01*
X0001525515Y0002138503D01*
X0001524390Y0002135129D01*
X0001522140Y0002132879D01*
X0001519890Y0002131754D01*
X0001515391Y0002130629D01*
X0001512016Y0002130629D01*
X0001507517Y0002131754D01*
X0001505267Y0002132879D01*
X0001503016Y0002135129D01*
X0001501893Y0002138503D01*
X0001501893Y0002144128D01*
X0001525515Y0002122755D02*
X0001525515Y0002107007D01*
X0001501893Y0002117131D01*
X0001514266Y0002233754D02*
X0001513141Y0002230379D01*
X0001512016Y0002229254D01*
X0001509767Y0002228129D01*
X0001506392Y0002228129D01*
X0001504142Y0002229254D01*
X0001503016Y0002230379D01*
X0001501893Y0002232629D01*
X0001501893Y0002241628D01*
X0001525515Y0002241628D01*
X0001525515Y0002233754D01*
X0001524390Y0002231504D01*
X0001523265Y0002230379D01*
X0001521015Y0002229254D01*
X0001518765Y0002229254D01*
X0001516516Y0002230379D01*
X0001515391Y0002231504D01*
X0001514266Y0002233754D01*
X0001514266Y0002241628D01*
X0001501893Y0002205632D02*
X0001501893Y0002219131D01*
X0001501893Y0002212381D02*
X0001525515Y0002212381D01*
X0001522140Y0002214631D01*
X0001519890Y0002216881D01*
X0001518765Y0002219131D01*
X0001525515Y0002355689D02*
X0001501893Y0002347815D01*
X0001525515Y0002339940D01*
X0001504142Y0002318568D02*
X0001503016Y0002319693D01*
X0001501893Y0002323068D01*
X0001501893Y0002325317D01*
X0001503016Y0002328692D01*
X0001505267Y0002330942D01*
X0001507517Y0002332066D01*
X0001512016Y0002333191D01*
X0001515391Y0002333191D01*
X0001519890Y0002332066D01*
X0001522140Y0002330942D01*
X0001524390Y0002328692D01*
X0001525515Y0002325317D01*
X0001525515Y0002323068D01*
X0001524390Y0002319693D01*
X0001523265Y0002318568D01*
X0001504142Y0002294946D02*
X0001503016Y0002296071D01*
X0001501893Y0002299446D01*
X0001501893Y0002301695D01*
X0001503016Y0002305070D01*
X0001505267Y0002307320D01*
X0001507517Y0002308444D01*
X0001512016Y0002309569D01*
X0001515391Y0002309569D01*
X0001519890Y0002308444D01*
X0001522140Y0002307320D01*
X0001524390Y0002305070D01*
X0001525515Y0002301695D01*
X0001525515Y0002299446D01*
X0001524390Y0002296071D01*
X0001523265Y0002294946D01*
X0001524390Y0002439690D02*
X0001525515Y0002441940D01*
X0001525515Y0002445314D01*
X0001524390Y0002448689D01*
X0001522140Y0002450939D01*
X0001519890Y0002452064D01*
X0001515391Y0002453188D01*
X0001512016Y0002453188D01*
X0001507517Y0002452064D01*
X0001505267Y0002450939D01*
X0001503016Y0002448689D01*
X0001501893Y0002445314D01*
X0001501893Y0002443065D01*
X0001503016Y0002439690D01*
X0001504142Y0002438565D01*
X0001512016Y0002438565D01*
X0001512016Y0002443065D01*
X0001501893Y0002428442D02*
X0001525515Y0002428442D01*
X0001501893Y0002414943D01*
X0001525515Y0002414943D01*
X0001501893Y0002403695D02*
X0001525515Y0002403695D01*
X0001525515Y0002398070D01*
X0001524390Y0002394696D01*
X0001522140Y0002392446D01*
X0001519890Y0002391321D01*
X0001515391Y0002390196D01*
X0001512016Y0002390196D01*
X0001507517Y0002391321D01*
X0001505267Y0002392446D01*
X0001503016Y0002394696D01*
X0001501893Y0002398070D01*
X0001501893Y0002403695D01*
X0001803757Y0002386827D02*
X0001780135Y0002386827D01*
X0001791384Y0002386827D02*
X0001791384Y0002400326D01*
X0001803757Y0002400326D02*
X0001780135Y0002400326D01*
X0001803757Y0002411574D02*
X0001780135Y0002411574D01*
X0001797008Y0002419448D01*
X0001780135Y0002427322D01*
X0001803757Y0002427322D01*
X0001802632Y0002437446D02*
X0001803757Y0002440821D01*
X0001803757Y0002446445D01*
X0001802632Y0002448695D01*
X0001801507Y0002449820D01*
X0001799258Y0002450944D01*
X0001797008Y0002450944D01*
X0001794758Y0002449820D01*
X0001793633Y0002448695D01*
X0001792508Y0002446445D01*
X0001791384Y0002441946D01*
X0001790259Y0002439696D01*
X0001789134Y0002438571D01*
X0001786884Y0002437446D01*
X0001784634Y0002437446D01*
X0001782385Y0002438571D01*
X0001781260Y0002439696D01*
X0001780135Y0002441946D01*
X0001780135Y0002447570D01*
X0001781260Y0002450944D01*
X0001802632Y0002470067D02*
X0001803757Y0002467817D01*
X0001803757Y0002463318D01*
X0001802632Y0002461068D01*
X0001800382Y0002459943D01*
X0001791384Y0002459943D01*
X0001789134Y0002461068D01*
X0001788009Y0002463318D01*
X0001788009Y0002467817D01*
X0001789134Y0002470067D01*
X0001791384Y0002471192D01*
X0001793633Y0002471192D01*
X0001795883Y0002459943D01*
X0001788009Y0002481316D02*
X0001803757Y0002481316D01*
X0001790259Y0002481316D02*
X0001789134Y0002482441D01*
X0001788009Y0002484690D01*
X0001788009Y0002488065D01*
X0001789134Y0002490315D01*
X0001791384Y0002491439D01*
X0001803757Y0002491439D01*
X0001802632Y0002501563D02*
X0001803757Y0002503813D01*
X0001803757Y0002508312D01*
X0001802632Y0002510562D01*
X0001800382Y0002511687D01*
X0001799258Y0002511687D01*
X0001797008Y0002510562D01*
X0001795883Y0002508312D01*
X0001795883Y0002504938D01*
X0001794758Y0002502688D01*
X0001792508Y0002501563D01*
X0001791384Y0002501563D01*
X0001789134Y0002502688D01*
X0001788009Y0002504938D01*
X0001788009Y0002508312D01*
X0001789134Y0002510562D01*
X0001803757Y0002525185D02*
X0001802632Y0002522935D01*
X0001801507Y0002521811D01*
X0001799258Y0002520686D01*
X0001792508Y0002520686D01*
X0001790259Y0002521811D01*
X0001789134Y0002522935D01*
X0001788009Y0002525185D01*
X0001788009Y0002528560D01*
X0001789134Y0002530809D01*
X0001790259Y0002531934D01*
X0001792508Y0002533059D01*
X0001799258Y0002533059D01*
X0001801507Y0002531934D01*
X0001802632Y0002530809D01*
X0001803757Y0002528560D01*
X0001803757Y0002525185D01*
X0001803757Y0002543183D02*
X0001788009Y0002543183D01*
X0001792508Y0002543183D02*
X0001790259Y0002544308D01*
X0001789134Y0002545433D01*
X0001788009Y0002547682D01*
X0001788009Y0002549932D01*
X0001834016Y0002314274D02*
X0001834016Y0002325523D01*
X0001840765Y0002312024D02*
X0001817142Y0002319898D01*
X0001840765Y0002327772D01*
X0001834016Y0002334521D02*
X0001834016Y0002345770D01*
X0001840765Y0002332272D02*
X0001817142Y0002340146D01*
X0001840765Y0002348020D01*
X0001834016Y0002354769D02*
X0001834016Y0002366018D01*
X0001840765Y0002352519D02*
X0001817142Y0002360393D01*
X0001840765Y0002368267D01*
X0001840765Y0002394139D02*
X0001817142Y0002394139D01*
X0001828391Y0002394139D02*
X0001828391Y0002407637D01*
X0001840765Y0002407637D02*
X0001817142Y0002407637D01*
X0001840765Y0002422260D02*
X0001839640Y0002420011D01*
X0001838515Y0002418886D01*
X0001836265Y0002417761D01*
X0001829516Y0002417761D01*
X0001827267Y0002418886D01*
X0001826142Y0002420011D01*
X0001825017Y0002422260D01*
X0001825017Y0002425635D01*
X0001826142Y0002427885D01*
X0001827267Y0002429010D01*
X0001829516Y0002430135D01*
X0001836265Y0002430135D01*
X0001838515Y0002429010D01*
X0001839640Y0002427885D01*
X0001840765Y0002425635D01*
X0001840765Y0002422260D01*
X0001840765Y0002443633D02*
X0001839640Y0002441383D01*
X0001837390Y0002440258D01*
X0001817142Y0002440258D01*
X0001840765Y0002462755D02*
X0001817142Y0002462755D01*
X0001839640Y0002462755D02*
X0001840765Y0002460506D01*
X0001840765Y0002456006D01*
X0001839640Y0002453757D01*
X0001838515Y0002452632D01*
X0001836265Y0002451507D01*
X0001829516Y0002451507D01*
X0001827267Y0002452632D01*
X0001826142Y0002453757D01*
X0001825017Y0002456006D01*
X0001825017Y0002460506D01*
X0001826142Y0002462755D01*
X0001839640Y0002483003D02*
X0001840765Y0002480753D01*
X0001840765Y0002476254D01*
X0001839640Y0002474004D01*
X0001837390Y0002472879D01*
X0001828391Y0002472879D01*
X0001826142Y0002474004D01*
X0001825017Y0002476254D01*
X0001825017Y0002480753D01*
X0001826142Y0002483003D01*
X0001828391Y0002484128D01*
X0001830641Y0002484128D01*
X0001832891Y0002472879D01*
X0001840765Y0002494252D02*
X0001825017Y0002494252D01*
X0001829516Y0002494252D02*
X0001827267Y0002495376D01*
X0001826142Y0002496501D01*
X0001825017Y0002498751D01*
X0001825017Y0002501001D01*
X0001828391Y0002534746D02*
X0001829516Y0002538120D01*
X0001830641Y0002539246D01*
X0001832891Y0002540371D01*
X0001836265Y0002540371D01*
X0001838515Y0002539246D01*
X0001839640Y0002538120D01*
X0001840765Y0002535871D01*
X0001840765Y0002526872D01*
X0001817142Y0002526872D01*
X0001817142Y0002534746D01*
X0001818268Y0002536996D01*
X0001819393Y0002538120D01*
X0001821642Y0002539246D01*
X0001823892Y0002539246D01*
X0001826142Y0002538120D01*
X0001827267Y0002536996D01*
X0001828391Y0002534746D01*
X0001828391Y0002526872D01*
X0001840765Y0002553869D02*
X0001839640Y0002551619D01*
X0001838515Y0002550495D01*
X0001836265Y0002549370D01*
X0001829516Y0002549370D01*
X0001827267Y0002550495D01*
X0001826142Y0002551619D01*
X0001825017Y0002553869D01*
X0001825017Y0002557244D01*
X0001826142Y0002559493D01*
X0001827267Y0002560618D01*
X0001829516Y0002561743D01*
X0001836265Y0002561743D01*
X0001838515Y0002560618D01*
X0001839640Y0002559493D01*
X0001840765Y0002557244D01*
X0001840765Y0002553869D01*
X0001840765Y0002581991D02*
X0001828391Y0002581991D01*
X0001826142Y0002580866D01*
X0001825017Y0002578616D01*
X0001825017Y0002574117D01*
X0001826142Y0002571867D01*
X0001839640Y0002581991D02*
X0001840765Y0002579741D01*
X0001840765Y0002574117D01*
X0001839640Y0002571867D01*
X0001837390Y0002570742D01*
X0001835141Y0002570742D01*
X0001832891Y0002571867D01*
X0001831766Y0002574117D01*
X0001831766Y0002579741D01*
X0001830641Y0002581991D01*
X0001840765Y0002593239D02*
X0001825017Y0002593239D01*
X0001829516Y0002593239D02*
X0001827267Y0002594364D01*
X0001826142Y0002595489D01*
X0001825017Y0002597739D01*
X0001825017Y0002599988D01*
X0001840765Y0002617986D02*
X0001817142Y0002617986D01*
X0001839640Y0002617986D02*
X0001840765Y0002615736D01*
X0001840765Y0002611237D01*
X0001839640Y0002608987D01*
X0001838515Y0002607862D01*
X0001836265Y0002606737D01*
X0001829516Y0002606737D01*
X0001827267Y0002607862D01*
X0001826142Y0002608987D01*
X0001825017Y0002611237D01*
X0001825017Y0002615736D01*
X0001826142Y0002617986D01*
X0001854151Y0002430697D02*
X0001877773Y0002438571D01*
X0001854151Y0002446445D01*
X0001877773Y0002466692D02*
X0001877773Y0002453194D01*
X0001877773Y0002459943D02*
X0001854151Y0002459943D01*
X0001857525Y0002457694D01*
X0001859775Y0002455444D01*
X0001860899Y0002453194D01*
X0001875523Y0002476816D02*
X0001876648Y0002477941D01*
X0001877773Y0002476816D01*
X0001876648Y0002475691D01*
X0001875523Y0002476816D01*
X0001877773Y0002476816D01*
X0001854151Y0002492564D02*
X0001854151Y0002494814D01*
X0001855276Y0002497064D01*
X0001856400Y0002498189D01*
X0001858650Y0002499313D01*
X0001863150Y0002500438D01*
X0001868773Y0002500438D01*
X0001873273Y0002499313D01*
X0001875523Y0002498189D01*
X0001876648Y0002497064D01*
X0001877773Y0002494814D01*
X0001877773Y0002492564D01*
X0001876648Y0002490315D01*
X0001875523Y0002489190D01*
X0001873273Y0002488065D01*
X0001868773Y0002486940D01*
X0001863150Y0002486940D01*
X0001858650Y0002488065D01*
X0001856400Y0002489190D01*
X0001855276Y0002490315D01*
X0001854151Y0002492564D01*
X0002092143Y0002297508D02*
X0002115765Y0002305382D01*
X0002092143Y0002313256D01*
X0002115765Y0002321130D02*
X0002100017Y0002321130D01*
X0002092143Y0002321130D02*
X0002093268Y0002320005D01*
X0002094393Y0002321130D01*
X0002093268Y0002322255D01*
X0002092143Y0002321130D01*
X0002094393Y0002321130D01*
X0002100017Y0002332379D02*
X0002115765Y0002332379D01*
X0002102267Y0002332379D02*
X0002101142Y0002333504D01*
X0002100017Y0002335753D01*
X0002100017Y0002339128D01*
X0002101142Y0002341378D01*
X0002103391Y0002342502D01*
X0002115765Y0002342502D01*
X0001640143Y0001966006D02*
X0001640143Y0001989628D01*
X0001645768Y0001989628D01*
X0001649142Y0001988503D01*
X0001651392Y0001986253D01*
X0001652517Y0001984004D01*
X0001653642Y0001979505D01*
X0001653642Y0001976130D01*
X0001652517Y0001971631D01*
X0001651392Y0001969381D01*
X0001649142Y0001967130D01*
X0001645768Y0001966006D01*
X0001640143Y0001966006D01*
X0001673889Y0001989628D02*
X0001669390Y0001989628D01*
X0001667140Y0001988503D01*
X0001666015Y0001987379D01*
X0001663765Y0001984004D01*
X0001662641Y0001979505D01*
X0001662641Y0001970505D01*
X0001663765Y0001968256D01*
X0001664890Y0001967130D01*
X0001667140Y0001966006D01*
X0001671638Y0001966006D01*
X0001673889Y0001967130D01*
X0001675014Y0001968256D01*
X0001676139Y0001970505D01*
X0001676139Y0001976130D01*
X0001675014Y0001978379D01*
X0001673889Y0001979505D01*
X0001671638Y0001980629D01*
X0001667140Y0001980629D01*
X0001664890Y0001979505D01*
X0001663765Y0001978379D01*
X0001662641Y0001976130D01*
X0001740143Y0001963506D02*
X0001740143Y0001987128D01*
X0001745768Y0001987128D01*
X0001749142Y0001986003D01*
X0001751392Y0001983754D01*
X0001752517Y0001981504D01*
X0001753642Y0001977005D01*
X0001753642Y0001973630D01*
X0001752517Y0001969131D01*
X0001751392Y0001966881D01*
X0001749142Y0001964631D01*
X0001745768Y0001963506D01*
X0001740143Y0001963506D01*
X0001761515Y0001987128D02*
X0001776139Y0001987128D01*
X0001768265Y0001978129D01*
X0001771639Y0001978129D01*
X0001773889Y0001977005D01*
X0001775014Y0001975880D01*
X0001776139Y0001973630D01*
X0001776139Y0001968005D01*
X0001775014Y0001965756D01*
X0001773889Y0001964631D01*
X0001771639Y0001963506D01*
X0001764890Y0001963506D01*
X0001762641Y0001964631D01*
X0001761515Y0001965756D01*
X0001840706Y0001972755D02*
X0001851954Y0001972755D01*
X0001838455Y0001966006D02*
X0001846329Y0001989628D01*
X0001854204Y0001966006D01*
X0001873327Y0001989628D02*
X0001862078Y0001989628D01*
X0001860953Y0001978379D01*
X0001862078Y0001979505D01*
X0001864328Y0001980629D01*
X0001869952Y0001980629D01*
X0001872202Y0001979505D01*
X0001873327Y0001978379D01*
X0001874452Y0001976130D01*
X0001874452Y0001970505D01*
X0001873327Y0001968256D01*
X0001872202Y0001967130D01*
X0001869952Y0001966006D01*
X0001864328Y0001966006D01*
X0001862078Y0001967130D01*
X0001860953Y0001968256D01*
X0001940706Y0001972755D02*
X0001951954Y0001972755D01*
X0001938456Y0001966006D02*
X0001946330Y0001989628D01*
X0001954204Y0001966006D01*
X0001972202Y0001981754D02*
X0001972202Y0001966006D01*
X0001966578Y0001990753D02*
X0001960953Y0001973880D01*
X0001975576Y0001973880D01*
X0002038206Y0001972755D02*
X0002049454Y0001972755D01*
X0002035956Y0001966006D02*
X0002043829Y0001989628D01*
X0002051704Y0001966006D01*
X0002057328Y0001989628D02*
X0002071952Y0001989628D01*
X0002064077Y0001980629D01*
X0002067451Y0001980629D01*
X0002069702Y0001979505D01*
X0002070827Y0001978379D01*
X0002071952Y0001976130D01*
X0002071952Y0001970505D01*
X0002070827Y0001968256D01*
X0002069702Y0001967130D01*
X0002067451Y0001966006D01*
X0002060703Y0001966006D01*
X0002058453Y0001967130D01*
X0002057328Y0001968256D01*
X0002113432Y0001949478D02*
X0002121386Y0001957432D01*
X0002116613Y0001943114D02*
X0002105478Y0001965386D01*
X0002127749Y0001954250D01*
X0002117409Y0001974135D02*
X0002117409Y0001975726D01*
X0002118204Y0001978112D01*
X0002122181Y0001982089D01*
X0002124567Y0001982884D01*
X0002126158Y0001982884D01*
X0002128544Y0001982089D01*
X0002130135Y0001980498D01*
X0002131726Y0001977317D01*
X0002131726Y0001958227D01*
X0002142066Y0001968567D01*
X0002106516Y0002009820D02*
X0002106516Y0002021068D01*
X0002113265Y0002007569D02*
X0002089643Y0002015444D01*
X0002113265Y0002023318D01*
X0002113265Y0002043565D02*
X0002113265Y0002030066D01*
X0002113265Y0002036816D02*
X0002089643Y0002036816D01*
X0002093017Y0002034565D01*
X0002095267Y0002032317D01*
X0002096391Y0002030066D01*
X0002106516Y0002107320D02*
X0002106516Y0002118568D01*
X0002113265Y0002105070D02*
X0002089643Y0002112944D01*
X0002113265Y0002120818D01*
X0002089643Y0002133191D02*
X0002089643Y0002135441D01*
X0002090768Y0002137691D01*
X0002091892Y0002138816D01*
X0002094142Y0002139940D01*
X0002098642Y0002141065D01*
X0002104266Y0002141065D01*
X0002108765Y0002139940D01*
X0002111015Y0002138816D01*
X0002112140Y0002137691D01*
X0002113265Y0002135441D01*
X0002113265Y0002133191D01*
X0002112140Y0002130942D01*
X0002111015Y0002129817D01*
X0002108765Y0002128692D01*
X0002104266Y0002127567D01*
X0002098642Y0002127567D01*
X0002094142Y0002128692D01*
X0002091892Y0002129817D01*
X0002090768Y0002130942D01*
X0002089643Y0002133191D01*
X0002093268Y0002203695D02*
X0002092143Y0002201445D01*
X0002092143Y0002198070D01*
X0002093268Y0002194696D01*
X0002095517Y0002192446D01*
X0002097767Y0002191321D01*
X0002102267Y0002190196D01*
X0002105641Y0002190196D01*
X0002110141Y0002191321D01*
X0002112390Y0002192446D01*
X0002114640Y0002194696D01*
X0002115765Y0002198070D01*
X0002115765Y0002200320D01*
X0002114640Y0002203695D01*
X0002113515Y0002204820D01*
X0002105641Y0002204820D01*
X0002105641Y0002200320D01*
X0002115765Y0002214943D02*
X0002092143Y0002214943D01*
X0002115765Y0002228442D01*
X0002092143Y0002228442D01*
X0002115765Y0002239690D02*
X0002092143Y0002239690D01*
X0002092143Y0002245315D01*
X0002093268Y0002248689D01*
X0002095517Y0002250939D01*
X0002097767Y0002252064D01*
X0002102267Y0002253189D01*
X0002105641Y0002253189D01*
X0002110141Y0002252064D01*
X0002112390Y0002250939D01*
X0002114640Y0002248689D01*
X0002115765Y0002245315D01*
X0002115765Y0002239690D01*
D48*
X0002440709Y0003047244D02*
X0002440709Y0003086614D01*
X0002440709Y0003086614D02*
X0002519449Y0003086614D01*
X0002519449Y0003086614D02*
X0002519449Y0003047244D01*
X0002361968Y0003047244D02*
X0002598188Y0003047244D01*
X0002598188Y0003047244D02*
X0002598188Y0001826771D01*
X0002598188Y0001826771D02*
X0002361968Y0001826771D01*
X0002361968Y0001826771D02*
X0002361968Y0003047244D01*
X0002480079Y0003440944D02*
X0002735984Y0003440944D01*
X0002735984Y0003440944D02*
X0002735984Y0001472440D01*
X0002735984Y0001472440D02*
X0002224173Y0001472440D01*
X0002224173Y0001472440D02*
X0002224173Y0003440944D01*
X0002224173Y0003440944D02*
X0002480079Y0003440944D01*
X0001179449Y0001866141D02*
X0001179449Y0001826771D01*
X0001179449Y0001826771D02*
X0001100709Y0001826771D01*
X0001100709Y0001826771D02*
X0001100709Y0001866141D01*
X0001258189Y0001866141D02*
X0001021968Y0001866141D01*
X0001021968Y0001866141D02*
X0001021968Y0003086614D01*
X0001021968Y0003086614D02*
X0001258189Y0003086614D01*
X0001258189Y0003086614D02*
X0001258189Y0001866141D01*
X0001140079Y0001472440D02*
X0000884173Y0001472440D01*
X0000884173Y0001472440D02*
X0000884173Y0003440944D01*
X0000884173Y0003440944D02*
X0001395984Y0003440944D01*
X0001395984Y0003440944D02*
X0001395984Y0001472440D01*
X0001395984Y0001472440D02*
X0001140079Y0001472440D01*
D49*
X0002488515Y0001663667D02*
X0002488515Y0001753655D01*
X0002435084Y0003196287D02*
X0002525072Y0003196287D01*
X0002480079Y0003151293D02*
X0002480079Y0003241282D01*
X0001148515Y0003159730D02*
X0001148515Y0003249718D01*
X0001095084Y0001700225D02*
X0001185073Y0001700225D01*
X0001140079Y0001655230D02*
X0001140079Y0001745219D01*
G04 next file*
G01*
D60*
X0000230764Y0001496394D02*
X0000207142Y0001496394D01*
X0000218391Y0001496394D02*
X0000218391Y0001509892D01*
X0000230764Y0001509892D02*
X0000207142Y0001509892D01*
X0000230764Y0001521140D02*
X0000207142Y0001521140D01*
X0000224015Y0001529015D01*
X0000207142Y0001536889D01*
X0000230764Y0001536889D01*
X0000229640Y0001547013D02*
X0000230764Y0001550388D01*
X0000230764Y0001556012D01*
X0000229640Y0001558262D01*
X0000228515Y0001559386D01*
X0000226265Y0001560510D01*
X0000224015Y0001560510D01*
X0000221766Y0001559386D01*
X0000220641Y0001558262D01*
X0000219516Y0001556012D01*
X0000218391Y0001551512D01*
X0000217266Y0001549263D01*
X0000216141Y0001548138D01*
X0000213892Y0001547013D01*
X0000211642Y0001547013D01*
X0000209392Y0001548138D01*
X0000208267Y0001549263D01*
X0000207142Y0001551512D01*
X0000207142Y0001557137D01*
X0000208267Y0001560510D01*
X0000229640Y0001579633D02*
X0000230764Y0001577384D01*
X0000230764Y0001572885D01*
X0000229640Y0001570635D01*
X0000227390Y0001569510D01*
X0000218391Y0001569510D01*
X0000216141Y0001570635D01*
X0000215016Y0001572885D01*
X0000215016Y0001577384D01*
X0000216141Y0001579633D01*
X0000218391Y0001580759D01*
X0000220641Y0001580759D01*
X0000222890Y0001569510D01*
X0000215016Y0001590882D02*
X0000230764Y0001590882D01*
X0000217266Y0001590882D02*
X0000216141Y0001592007D01*
X0000215016Y0001594257D01*
X0000215016Y0001597632D01*
X0000216141Y0001599881D01*
X0000218391Y0001601006D01*
X0000230764Y0001601006D01*
X0000229640Y0001611130D02*
X0000230764Y0001613380D01*
X0000230764Y0001617879D01*
X0000229640Y0001620129D01*
X0000227390Y0001621254D01*
X0000226265Y0001621254D01*
X0000224015Y0001620129D01*
X0000222890Y0001617879D01*
X0000222890Y0001614505D01*
X0000221766Y0001612255D01*
X0000219516Y0001611130D01*
X0000218391Y0001611130D01*
X0000216141Y0001612255D01*
X0000215016Y0001614505D01*
X0000215016Y0001617879D01*
X0000216141Y0001620129D01*
X0000230764Y0001634752D02*
X0000229640Y0001632502D01*
X0000228515Y0001631377D01*
X0000226265Y0001630253D01*
X0000219516Y0001630253D01*
X0000217266Y0001631377D01*
X0000216141Y0001632502D01*
X0000215016Y0001634752D01*
X0000215016Y0001638127D01*
X0000216141Y0001640376D01*
X0000217266Y0001641500D01*
X0000219516Y0001642626D01*
X0000226265Y0001642626D01*
X0000228515Y0001641500D01*
X0000229640Y0001640376D01*
X0000230764Y0001638127D01*
X0000230764Y0001634752D01*
X0000230764Y0001652750D02*
X0000215016Y0001652750D01*
X0000219516Y0001652750D02*
X0000217266Y0001653875D01*
X0000216141Y0001655000D01*
X0000215016Y0001657248D01*
X0000215016Y0001659499D01*
X0000267772Y0001411467D02*
X0000267772Y0001397969D01*
X0000267772Y0001404718D02*
X0000244150Y0001404718D01*
X0000247525Y0001402469D01*
X0000249775Y0001400219D01*
X0000250898Y0001397969D01*
X0000254274Y0001424966D02*
X0000253149Y0001422716D01*
X0000252024Y0001421591D01*
X0000249775Y0001420466D01*
X0000248650Y0001420466D01*
X0000246400Y0001421591D01*
X0000245275Y0001422716D01*
X0000244150Y0001424966D01*
X0000244150Y0001429465D01*
X0000245275Y0001431715D01*
X0000246400Y0001432840D01*
X0000248650Y0001433965D01*
X0000249775Y0001433965D01*
X0000252024Y0001432840D01*
X0000253149Y0001431715D01*
X0000254274Y0001429465D01*
X0000254274Y0001424966D01*
X0000255399Y0001422716D01*
X0000256523Y0001421591D01*
X0000258772Y0001420466D01*
X0000263273Y0001420466D01*
X0000265523Y0001421591D01*
X0000266647Y0001422716D01*
X0000267772Y0001424966D01*
X0000267772Y0001429465D01*
X0000266647Y0001431715D01*
X0000265523Y0001432840D01*
X0000263273Y0001433965D01*
X0000258772Y0001433965D01*
X0000256523Y0001432840D01*
X0000255399Y0001431715D01*
X0000254274Y0001429465D01*
X0000244150Y0001454212D02*
X0000244150Y0001449713D01*
X0000245275Y0001447463D01*
X0000246400Y0001446337D01*
X0000249775Y0001444088D01*
X0000254274Y0001442964D01*
X0000263273Y0001442964D01*
X0000265523Y0001444088D01*
X0000266647Y0001445213D01*
X0000267772Y0001447463D01*
X0000267772Y0001451962D01*
X0000266647Y0001454212D01*
X0000265523Y0001455337D01*
X0000263273Y0001456462D01*
X0000257649Y0001456462D01*
X0000255399Y0001455337D01*
X0000254274Y0001454212D01*
X0000253149Y0001451962D01*
X0000253149Y0001447463D01*
X0000254274Y0001445213D01*
X0000255399Y0001444088D01*
X0000257649Y0001442964D01*
X0000244150Y0001477834D02*
X0000244150Y0001466586D01*
X0000255399Y0001465460D01*
X0000254274Y0001466586D01*
X0000253149Y0001468835D01*
X0000253149Y0001474460D01*
X0000254274Y0001476708D01*
X0000255399Y0001477834D01*
X0000257649Y0001478959D01*
X0000263273Y0001478959D01*
X0000265523Y0001477834D01*
X0000266647Y0001476708D01*
X0000267772Y0001474460D01*
X0000267772Y0001468835D01*
X0000266647Y0001466586D01*
X0000265523Y0001465460D01*
X0000244150Y0001493582D02*
X0000244150Y0001495832D01*
X0000245275Y0001498082D01*
X0000246400Y0001499207D01*
X0000248650Y0001500331D01*
X0000253149Y0001501456D01*
X0000258772Y0001501456D01*
X0000263273Y0001500331D01*
X0000265523Y0001499207D01*
X0000266647Y0001498082D01*
X0000267772Y0001495832D01*
X0000267772Y0001493582D01*
X0000266647Y0001491332D01*
X0000265523Y0001490208D01*
X0000263273Y0001489083D01*
X0000258772Y0001487958D01*
X0000253149Y0001487958D01*
X0000248650Y0001489083D01*
X0000246400Y0001490208D01*
X0000245275Y0001491332D01*
X0000244150Y0001493582D01*
X0000267772Y0001529578D02*
X0000244150Y0001529578D01*
X0000255399Y0001529578D02*
X0000255399Y0001543075D01*
X0000267772Y0001543075D02*
X0000244150Y0001543075D01*
X0000267772Y0001557699D02*
X0000266647Y0001555450D01*
X0000265523Y0001554324D01*
X0000263273Y0001553200D01*
X0000256523Y0001553200D01*
X0000254274Y0001554324D01*
X0000253149Y0001555450D01*
X0000252024Y0001557699D01*
X0000252024Y0001561074D01*
X0000253149Y0001563324D01*
X0000254274Y0001564448D01*
X0000256523Y0001565572D01*
X0000263273Y0001565572D01*
X0000265523Y0001564448D01*
X0000266647Y0001563324D01*
X0000267772Y0001561074D01*
X0000267772Y0001557699D01*
X0000267772Y0001579072D02*
X0000266647Y0001576822D01*
X0000264398Y0001575697D01*
X0000244150Y0001575697D01*
X0000267772Y0001598194D02*
X0000244150Y0001598194D01*
X0000266647Y0001598194D02*
X0000267772Y0001595944D01*
X0000267772Y0001591445D01*
X0000266647Y0001589195D01*
X0000265523Y0001588070D01*
X0000263273Y0001586946D01*
X0000256523Y0001586946D01*
X0000254274Y0001588070D01*
X0000253149Y0001589195D01*
X0000252024Y0001591445D01*
X0000252024Y0001595944D01*
X0000253149Y0001598194D01*
X0000266647Y0001618442D02*
X0000267772Y0001616191D01*
X0000267772Y0001611692D01*
X0000266647Y0001609443D01*
X0000264398Y0001608318D01*
X0000255399Y0001608318D01*
X0000253149Y0001609443D01*
X0000252024Y0001611692D01*
X0000252024Y0001616191D01*
X0000253149Y0001618442D01*
X0000255399Y0001619566D01*
X0000257649Y0001619566D01*
X0000259898Y0001608318D01*
X0000267772Y0001629690D02*
X0000252024Y0001629690D01*
X0000256523Y0001629690D02*
X0000254274Y0001630815D01*
X0000253149Y0001631939D01*
X0000252024Y0001634190D01*
X0000252024Y0001636439D01*
X0000255399Y0001670185D02*
X0000256523Y0001673560D01*
X0000257649Y0001674685D01*
X0000259898Y0001675809D01*
X0000263273Y0001675809D01*
X0000265523Y0001674685D01*
X0000266647Y0001673560D01*
X0000267772Y0001671310D01*
X0000267772Y0001662311D01*
X0000244150Y0001662311D01*
X0000244150Y0001670185D01*
X0000245275Y0001672435D01*
X0000246400Y0001673560D01*
X0000248650Y0001674685D01*
X0000250898Y0001674685D01*
X0000253149Y0001673560D01*
X0000254274Y0001672435D01*
X0000255399Y0001670185D01*
X0000255399Y0001662311D01*
X0000267772Y0001689308D02*
X0000266647Y0001687058D01*
X0000265523Y0001685933D01*
X0000263273Y0001684808D01*
X0000256523Y0001684808D01*
X0000254274Y0001685933D01*
X0000253149Y0001687058D01*
X0000252024Y0001689308D01*
X0000252024Y0001692682D01*
X0000253149Y0001694932D01*
X0000254274Y0001696057D01*
X0000256523Y0001697182D01*
X0000263273Y0001697182D01*
X0000265523Y0001696057D01*
X0000266647Y0001694932D01*
X0000267772Y0001692682D01*
X0000267772Y0001689308D01*
X0000267772Y0001717429D02*
X0000255399Y0001717429D01*
X0000253149Y0001716304D01*
X0000252024Y0001714055D01*
X0000252024Y0001709555D01*
X0000253149Y0001707306D01*
X0000266647Y0001717429D02*
X0000267772Y0001715180D01*
X0000267772Y0001709555D01*
X0000266647Y0001707306D01*
X0000264398Y0001706181D01*
X0000262148Y0001706181D01*
X0000259898Y0001707306D01*
X0000258772Y0001709555D01*
X0000258772Y0001715180D01*
X0000257649Y0001717429D01*
X0000267772Y0001728678D02*
X0000252024Y0001728678D01*
X0000256523Y0001728678D02*
X0000254274Y0001729803D01*
X0000253149Y0001730928D01*
X0000252024Y0001733177D01*
X0000252024Y0001735427D01*
X0000267772Y0001753425D02*
X0000244150Y0001753425D01*
X0000266647Y0001753425D02*
X0000267772Y0001751175D01*
X0000267772Y0001746676D01*
X0000266647Y0001744426D01*
X0000265523Y0001743301D01*
X0000263273Y0001742176D01*
X0000256523Y0001742176D01*
X0000254274Y0001743301D01*
X0000253149Y0001744426D01*
X0000252024Y0001746676D01*
X0000252024Y0001751175D01*
X0000253149Y0001753425D01*
X0000281158Y0001540264D02*
X0000304780Y0001548138D01*
X0000281158Y0001556012D01*
X0000304780Y0001576259D02*
X0000304780Y0001562761D01*
X0000304780Y0001569510D02*
X0000281158Y0001569510D01*
X0000284533Y0001567260D01*
X0000286782Y0001565011D01*
X0000287907Y0001562761D01*
X0000302530Y0001586383D02*
X0000303655Y0001587507D01*
X0000304780Y0001586383D01*
X0000303655Y0001585258D01*
X0000302530Y0001586383D01*
X0000304780Y0001586383D01*
X0000281158Y0001602131D02*
X0000281158Y0001604381D01*
X0000282283Y0001606630D01*
X0000283408Y0001607755D01*
X0000285658Y0001608880D01*
X0000290157Y0001610005D01*
X0000295781Y0001610005D01*
X0000300281Y0001608880D01*
X0000302530Y0001607755D01*
X0000303655Y0001606630D01*
X0000304780Y0001604381D01*
X0000304780Y0001602131D01*
X0000303655Y0001599881D01*
X0000302530Y0001598756D01*
X0000300281Y0001597632D01*
X0000295781Y0001596507D01*
X0000290157Y0001596507D01*
X0000285658Y0001597632D01*
X0000283408Y0001598756D01*
X0000282283Y0001599881D01*
X0000281158Y0001602131D01*
X0000636650Y0000669575D02*
X0000660272Y0000677449D01*
X0000636650Y0000685323D01*
X0000660272Y0000693197D02*
X0000644524Y0000693197D01*
X0000636650Y0000693197D02*
X0000637775Y0000692072D01*
X0000638900Y0000693197D01*
X0000637775Y0000694322D01*
X0000636650Y0000693197D01*
X0000638900Y0000693197D01*
X0000644524Y0000704445D02*
X0000660272Y0000704445D01*
X0000646774Y0000704445D02*
X0000645649Y0000705570D01*
X0000644524Y0000707820D01*
X0000644524Y0000711195D01*
X0000645649Y0000713444D01*
X0000647898Y0000714569D01*
X0000660272Y0000714569D01*
X0000640275Y0000575762D02*
X0000639150Y0000573512D01*
X0000639150Y0000570137D01*
X0000640275Y0000566763D01*
X0000642525Y0000564513D01*
X0000644774Y0000563388D01*
X0000649274Y0000562263D01*
X0000652649Y0000562263D01*
X0000657148Y0000563388D01*
X0000659398Y0000564513D01*
X0000661647Y0000566763D01*
X0000662772Y0000570137D01*
X0000662772Y0000572387D01*
X0000661647Y0000575762D01*
X0000660522Y0000576886D01*
X0000652649Y0000576886D01*
X0000652649Y0000572387D01*
X0000662772Y0000587010D02*
X0000639150Y0000587010D01*
X0000662772Y0000600508D01*
X0000639150Y0000600508D01*
X0000662772Y0000611757D02*
X0000639150Y0000611757D01*
X0000639150Y0000617381D01*
X0000640275Y0000620756D01*
X0000642525Y0000623006D01*
X0000644774Y0000624131D01*
X0000649274Y0000625255D01*
X0000652649Y0000625255D01*
X0000657148Y0000624131D01*
X0000659398Y0000623006D01*
X0000661647Y0000620756D01*
X0000662772Y0000617381D01*
X0000662772Y0000611757D01*
D61*
X0000682224Y0000641259D02*
X0000682224Y0000538897D01*
X0000682224Y0000538897D02*
X0000786947Y0000538897D01*
X0000786947Y0000538897D02*
X0000786947Y0000641259D01*
X0000786947Y0000641259D02*
X0000682224Y0000641259D01*
X0000682224Y0000691259D02*
X0000682224Y0000743622D01*
X0000682224Y0000743622D02*
X0000734586Y0000743622D01*
G04 next file*
G04 #@! TF.FileFunction,Legend,Top*
G04 Gerber Fmt 4.6, Leading zero omitted, Abs format (unit mm)*
G04 Created by KiCad (PCBNEW 4.0.2-stable) date 05.07.2017 20:46:59*
G01*
G04 APERTURE LIST*
G04 APERTURE END LIST*
D72*
D73*
X0003305487Y0002936855D02*
X0003292365Y0002955602D01*
X0003282991Y0002936855D02*
X0003282991Y0002976225D01*
X0003297989Y0002976225D01*
X0003301738Y0002974350D01*
X0003303613Y0002972475D01*
X0003305487Y0002968726D01*
X0003305487Y0002963101D01*
X0003303613Y0002959352D01*
X0003301738Y0002957476D01*
X0003297989Y0002955602D01*
X0003282991Y0002955602D01*
X0003337359Y0002938729D02*
X0003333609Y0002936855D01*
X0003326110Y0002936855D01*
X0003322361Y0002938729D01*
X0003320486Y0002942479D01*
X0003320486Y0002957476D01*
X0003322361Y0002961227D01*
X0003326110Y0002963101D01*
X0003333609Y0002963101D01*
X0003337359Y0002961227D01*
X0003339234Y0002957476D01*
X0003339234Y0002953727D01*
X0003320486Y0002949978D01*
X0003354231Y0002938729D02*
X0003357981Y0002936855D01*
X0003365480Y0002936855D01*
X0003369230Y0002938729D01*
X0003371105Y0002942479D01*
X0003371105Y0002944354D01*
X0003369230Y0002948103D01*
X0003365480Y0002949978D01*
X0003359856Y0002949978D01*
X0003356107Y0002951853D01*
X0003354231Y0002955602D01*
X0003354231Y0002957476D01*
X0003356107Y0002961227D01*
X0003359856Y0002963101D01*
X0003365480Y0002963101D01*
X0003369230Y0002961227D01*
X0003402976Y0002938729D02*
X0003399226Y0002936855D01*
X0003391727Y0002936855D01*
X0003387978Y0002938729D01*
X0003386103Y0002942479D01*
X0003386103Y0002957476D01*
X0003387978Y0002961227D01*
X0003391727Y0002963101D01*
X0003399226Y0002963101D01*
X0003402976Y0002961227D01*
X0003404849Y0002957476D01*
X0003404849Y0002953727D01*
X0003386103Y0002949978D01*
X0003416098Y0002963101D02*
X0003431097Y0002963101D01*
X0003421723Y0002976225D02*
X0003421723Y0002942479D01*
X0003423598Y0002938729D01*
X0003427348Y0002936855D01*
X0003431097Y0002936855D01*
X0003088619Y0003622477D02*
X0003094243Y0003620602D01*
X0003096118Y0003618727D01*
X0003097993Y0003614978D01*
X0003097993Y0003609354D01*
X0003096118Y0003605604D01*
X0003094243Y0003603729D01*
X0003090494Y0003601855D01*
X0003075495Y0003601855D01*
X0003075495Y0003641225D01*
X0003088619Y0003641225D01*
X0003092368Y0003639350D01*
X0003094243Y0003637475D01*
X0003096118Y0003633726D01*
X0003096118Y0003629976D01*
X0003094243Y0003626227D01*
X0003092368Y0003624351D01*
X0003088619Y0003622477D01*
X0003075495Y0003622477D01*
X0003114865Y0003601855D02*
X0003114865Y0003641225D01*
X0003127989Y0003613103D01*
X0003141112Y0003641225D01*
X0003141112Y0003601855D01*
X0003159859Y0003601855D02*
X0003159859Y0003641225D01*
X0003174858Y0003641225D01*
X0003178607Y0003639350D01*
X0003180482Y0003637475D01*
X0003182357Y0003633726D01*
X0003182357Y0003628101D01*
X0003180482Y0003624351D01*
X0003178607Y0003622477D01*
X0003174858Y0003620602D01*
X0003159859Y0003620602D01*
X0003219852Y0003601855D02*
X0003197355Y0003601855D01*
X0003208604Y0003601855D02*
X0003208604Y0003641225D01*
X0003204854Y0003635600D01*
X0003201105Y0003631851D01*
X0003197355Y0003629976D01*
X0003242350Y0003624351D02*
X0003238600Y0003626227D01*
X0003236725Y0003628101D01*
X0003234850Y0003631851D01*
X0003234850Y0003633726D01*
X0003236725Y0003637475D01*
X0003238600Y0003639350D01*
X0003242350Y0003641225D01*
X0003249849Y0003641225D01*
X0003253598Y0003639350D01*
X0003255473Y0003637475D01*
X0003257348Y0003633726D01*
X0003257348Y0003631851D01*
X0003255473Y0003628101D01*
X0003253598Y0003626227D01*
X0003249849Y0003624351D01*
X0003242350Y0003624351D01*
X0003238600Y0003622477D01*
X0003236725Y0003620602D01*
X0003234850Y0003616853D01*
X0003234850Y0003609354D01*
X0003236725Y0003605604D01*
X0003238600Y0003603729D01*
X0003242350Y0003601855D01*
X0003249849Y0003601855D01*
X0003253598Y0003603729D01*
X0003255473Y0003605604D01*
X0003257348Y0003609354D01*
X0003257348Y0003616853D01*
X0003255473Y0003620602D01*
X0003253598Y0003622477D01*
X0003249849Y0003624351D01*
X0003281720Y0003641225D02*
X0003285469Y0003641225D01*
X0003289219Y0003639350D01*
X0003291093Y0003637475D01*
X0003292968Y0003633726D01*
X0003294842Y0003626227D01*
X0003294842Y0003616853D01*
X0003292968Y0003609354D01*
X0003291093Y0003605604D01*
X0003289219Y0003603729D01*
X0003285469Y0003601855D01*
X0003281720Y0003601855D01*
X0003277970Y0003603729D01*
X0003276095Y0003605604D01*
X0003274220Y0003609354D01*
X0003272346Y0003616853D01*
X0003272346Y0003626227D01*
X0003274220Y0003633726D01*
X0003276095Y0003637475D01*
X0003277970Y0003639350D01*
X0003281720Y0003641225D01*
D72*
X0002913545Y0003024600D02*
X0002937168Y0003024600D01*
X0002937168Y0003018976D01*
X0002936043Y0003015601D01*
X0002933792Y0003013351D01*
X0002931543Y0003012226D01*
X0002927044Y0003011102D01*
X0002923669Y0003011102D01*
X0002919169Y0003012226D01*
X0002916920Y0003013351D01*
X0002914670Y0003015601D01*
X0002913545Y0003018976D01*
X0002913545Y0003024600D01*
X0002937168Y0003003228D02*
X0002937168Y0002987480D01*
X0002913545Y0002997603D01*
X0002925919Y0003114226D02*
X0002924794Y0003110852D01*
X0002923669Y0003109727D01*
X0002921420Y0003108602D01*
X0002918045Y0003108602D01*
X0002915795Y0003109727D01*
X0002914670Y0003110852D01*
X0002913545Y0003113101D01*
X0002913545Y0003122100D01*
X0002937168Y0003122100D01*
X0002937168Y0003114226D01*
X0002936043Y0003111976D01*
X0002934918Y0003110852D01*
X0002932668Y0003109727D01*
X0002930419Y0003109727D01*
X0002928169Y0003110852D01*
X0002927044Y0003111976D01*
X0002925919Y0003114226D01*
X0002925919Y0003122100D01*
X0002913545Y0003086105D02*
X0002913545Y0003099603D01*
X0002913545Y0003092854D02*
X0002937168Y0003092854D01*
X0002933792Y0003095104D01*
X0002931543Y0003097353D01*
X0002930419Y0003099603D01*
X0002937168Y0003236161D02*
X0002913545Y0003228286D01*
X0002937168Y0003220413D01*
X0002915795Y0003199041D02*
X0002914670Y0003200164D01*
X0002913545Y0003203540D01*
X0002913545Y0003205790D01*
X0002914670Y0003209164D01*
X0002916920Y0003211414D01*
X0002919169Y0003212539D01*
X0002923669Y0003213664D01*
X0002927044Y0003213664D01*
X0002931543Y0003212539D01*
X0002933792Y0003211414D01*
X0002936043Y0003209164D01*
X0002937168Y0003205790D01*
X0002937168Y0003203540D01*
X0002936043Y0003200164D01*
X0002934918Y0003199041D01*
X0002915795Y0003175419D02*
X0002914670Y0003176543D01*
X0002913545Y0003179918D01*
X0002913545Y0003182168D01*
X0002914670Y0003185541D01*
X0002916920Y0003187792D01*
X0002919169Y0003188917D01*
X0002923669Y0003190042D01*
X0002927044Y0003190042D01*
X0002931543Y0003188917D01*
X0002933792Y0003187792D01*
X0002936043Y0003185541D01*
X0002937168Y0003182168D01*
X0002937168Y0003179918D01*
X0002936043Y0003176543D01*
X0002934918Y0003175419D01*
X0002936043Y0003320163D02*
X0002937168Y0003322412D01*
X0002937168Y0003325787D01*
X0002936043Y0003329161D01*
X0002933792Y0003331411D01*
X0002931543Y0003332536D01*
X0002927044Y0003333661D01*
X0002923669Y0003333661D01*
X0002919169Y0003332536D01*
X0002916920Y0003331411D01*
X0002914670Y0003329161D01*
X0002913545Y0003325787D01*
X0002913545Y0003323537D01*
X0002914670Y0003320163D01*
X0002915795Y0003319038D01*
X0002923669Y0003319038D01*
X0002923669Y0003323537D01*
X0002913545Y0003308914D02*
X0002937168Y0003308914D01*
X0002913545Y0003295416D01*
X0002937168Y0003295416D01*
X0002913545Y0003284166D02*
X0002937168Y0003284166D01*
X0002937168Y0003278543D01*
X0002936043Y0003275168D01*
X0002933792Y0003272919D01*
X0002931543Y0003271794D01*
X0002927044Y0003270669D01*
X0002923669Y0003270669D01*
X0002919169Y0003271794D01*
X0002916920Y0003272919D01*
X0002914670Y0003275168D01*
X0002913545Y0003278543D01*
X0002913545Y0003284166D01*
X0002870409Y0003407300D02*
X0002846788Y0003407300D01*
X0002858037Y0003407300D02*
X0002858037Y0003420798D01*
X0002870409Y0003420798D02*
X0002846788Y0003420798D01*
X0002870409Y0003432047D02*
X0002846788Y0003432047D01*
X0002863661Y0003439920D01*
X0002846788Y0003447795D01*
X0002870409Y0003447795D01*
X0002869285Y0003457919D02*
X0002870409Y0003461293D01*
X0002870409Y0003466917D01*
X0002869285Y0003469167D01*
X0002868160Y0003470291D01*
X0002865910Y0003471417D01*
X0002863661Y0003471417D01*
X0002861411Y0003470291D01*
X0002860286Y0003469167D01*
X0002859161Y0003466917D01*
X0002858037Y0003462418D01*
X0002856912Y0003460167D01*
X0002855786Y0003459043D01*
X0002853537Y0003457919D01*
X0002851287Y0003457919D01*
X0002849038Y0003459043D01*
X0002847913Y0003460167D01*
X0002846788Y0003462418D01*
X0002846788Y0003468042D01*
X0002847913Y0003471417D01*
X0002869285Y0003490538D02*
X0002870409Y0003488290D01*
X0002870409Y0003483790D01*
X0002869285Y0003481541D01*
X0002867035Y0003480416D01*
X0002858037Y0003480416D01*
X0002855786Y0003481541D01*
X0002854662Y0003483790D01*
X0002854662Y0003488290D01*
X0002855786Y0003490538D01*
X0002858037Y0003491664D01*
X0002860286Y0003491664D01*
X0002862536Y0003480416D01*
X0002854662Y0003501788D02*
X0002870409Y0003501788D01*
X0002856912Y0003501788D02*
X0002855786Y0003502913D01*
X0002854662Y0003505163D01*
X0002854662Y0003508537D01*
X0002855786Y0003510787D01*
X0002858037Y0003511912D01*
X0002870409Y0003511912D01*
X0002869285Y0003522036D02*
X0002870409Y0003524285D01*
X0002870409Y0003528784D01*
X0002869285Y0003531034D01*
X0002867035Y0003532159D01*
X0002865910Y0003532159D01*
X0002863661Y0003531034D01*
X0002862536Y0003528784D01*
X0002862536Y0003525410D01*
X0002861411Y0003523160D01*
X0002859161Y0003522036D01*
X0002858037Y0003522036D01*
X0002855786Y0003523160D01*
X0002854662Y0003525410D01*
X0002854662Y0003528784D01*
X0002855786Y0003531034D01*
X0002870409Y0003545658D02*
X0002869285Y0003543408D01*
X0002868160Y0003542283D01*
X0002865910Y0003541158D01*
X0002859161Y0003541158D01*
X0002856912Y0003542283D01*
X0002855786Y0003543408D01*
X0002854662Y0003545658D01*
X0002854662Y0003549031D01*
X0002855786Y0003551282D01*
X0002856912Y0003552407D01*
X0002859161Y0003553532D01*
X0002865910Y0003553532D01*
X0002868160Y0003552407D01*
X0002869285Y0003551282D01*
X0002870409Y0003549031D01*
X0002870409Y0003545658D01*
X0002870409Y0003563655D02*
X0002854662Y0003563655D01*
X0002859161Y0003563655D02*
X0002856912Y0003564779D01*
X0002855786Y0003565905D01*
X0002854662Y0003568155D01*
X0002854662Y0003570404D01*
X0002907417Y0003406175D02*
X0002883796Y0003406175D01*
X0002878172Y0003416299D02*
X0002877047Y0003418548D01*
X0002877047Y0003421923D01*
X0002878172Y0003424172D01*
X0002880421Y0003425298D01*
X0002882671Y0003425298D01*
X0002884921Y0003424172D01*
X0002892795Y0003416299D01*
X0002892795Y0003425298D01*
X0002905168Y0003448920D02*
X0002906293Y0003447795D01*
X0002907417Y0003444420D01*
X0002907417Y0003442170D01*
X0002906293Y0003438796D01*
X0002904043Y0003436546D01*
X0002901793Y0003435421D01*
X0002897294Y0003434296D01*
X0002893920Y0003434296D01*
X0002889420Y0003435421D01*
X0002887170Y0003436546D01*
X0002884921Y0003438796D01*
X0002883796Y0003442170D01*
X0002883796Y0003444420D01*
X0002884921Y0003447795D01*
X0002886046Y0003448920D01*
X0002895045Y0003484915D02*
X0002896169Y0003488290D01*
X0002897294Y0003489415D01*
X0002899544Y0003490538D01*
X0002902918Y0003490538D01*
X0002905168Y0003489415D01*
X0002906293Y0003488290D01*
X0002907417Y0003486039D01*
X0002907417Y0003477041D01*
X0002883796Y0003477041D01*
X0002883796Y0003484915D01*
X0002884921Y0003487165D01*
X0002886046Y0003488290D01*
X0002888295Y0003489415D01*
X0002890545Y0003489415D01*
X0002892795Y0003488290D01*
X0002893920Y0003487165D01*
X0002895045Y0003484915D01*
X0002895045Y0003477041D01*
X0002907417Y0003504038D02*
X0002906293Y0003501788D01*
X0002905168Y0003500663D01*
X0002902918Y0003499538D01*
X0002896169Y0003499538D01*
X0002893920Y0003500663D01*
X0002892795Y0003501788D01*
X0002891670Y0003504038D01*
X0002891670Y0003507412D01*
X0002892795Y0003509662D01*
X0002893920Y0003510787D01*
X0002896169Y0003511912D01*
X0002902918Y0003511912D01*
X0002905168Y0003510787D01*
X0002906293Y0003509662D01*
X0002907417Y0003507412D01*
X0002907417Y0003504038D01*
X0002907417Y0003532159D02*
X0002895045Y0003532159D01*
X0002892795Y0003531034D01*
X0002891670Y0003528784D01*
X0002891670Y0003524285D01*
X0002892795Y0003522034D01*
X0002906293Y0003532159D02*
X0002907417Y0003529910D01*
X0002907417Y0003524285D01*
X0002906293Y0003522034D01*
X0002904043Y0003520911D01*
X0002901793Y0003520911D01*
X0002899544Y0003522034D01*
X0002898419Y0003524285D01*
X0002898419Y0003529910D01*
X0002897294Y0003532159D01*
X0002907417Y0003543408D02*
X0002891670Y0003543408D01*
X0002896169Y0003543408D02*
X0002893920Y0003544532D01*
X0002892795Y0003545658D01*
X0002891670Y0003547907D01*
X0002891670Y0003550157D01*
X0002907417Y0003568155D02*
X0002883796Y0003568155D01*
X0002906293Y0003568155D02*
X0002907417Y0003565905D01*
X0002907417Y0003561406D01*
X0002906293Y0003559155D01*
X0002905168Y0003558031D01*
X0002902918Y0003556906D01*
X0002896169Y0003556906D01*
X0002893920Y0003558031D01*
X0002892795Y0003559155D01*
X0002891670Y0003561406D01*
X0002891670Y0003565905D01*
X0002892795Y0003568155D01*
X0002920804Y0003451169D02*
X0002944426Y0003459043D01*
X0002920804Y0003466917D01*
X0002944426Y0003487165D02*
X0002944426Y0003473667D01*
X0002944426Y0003480416D02*
X0002920804Y0003480416D01*
X0002924178Y0003478166D01*
X0002926428Y0003475915D01*
X0002927553Y0003473667D01*
X0002942176Y0003497289D02*
X0002943301Y0003498413D01*
X0002944426Y0003497289D01*
X0002943301Y0003496164D01*
X0002942176Y0003497289D01*
X0002944426Y0003497289D01*
X0002920804Y0003513036D02*
X0002920804Y0003515286D01*
X0002921929Y0003517536D01*
X0002923053Y0003518661D01*
X0002925303Y0003519786D01*
X0002929803Y0003520911D01*
X0002935427Y0003520911D01*
X0002939926Y0003519786D01*
X0002942176Y0003518661D01*
X0002943301Y0003517536D01*
X0002944426Y0003515286D01*
X0002944426Y0003513036D01*
X0002943301Y0003510787D01*
X0002942176Y0003509662D01*
X0002939926Y0003508537D01*
X0002935427Y0003507412D01*
X0002929803Y0003507412D01*
X0002925303Y0003508537D01*
X0002923053Y0003509662D01*
X0002921929Y0003510787D01*
X0002920804Y0003513036D01*
X0003503796Y0003177980D02*
X0003527418Y0003185854D01*
X0003503796Y0003193728D01*
X0003527418Y0003201602D02*
X0003511670Y0003201602D01*
X0003503796Y0003201602D02*
X0003504921Y0003200478D01*
X0003506045Y0003201602D01*
X0003504921Y0003202727D01*
X0003503796Y0003201602D01*
X0003506045Y0003201602D01*
X0003511670Y0003212851D02*
X0003527418Y0003212851D01*
X0003513920Y0003212851D02*
X0003512795Y0003213976D01*
X0003511670Y0003216226D01*
X0003511670Y0003219599D01*
X0003512795Y0003221850D01*
X0003515044Y0003222975D01*
X0003527418Y0003222975D01*
X0003051796Y0002846479D02*
X0003051796Y0002870101D01*
X0003057421Y0002870101D01*
X0003060795Y0002868976D01*
X0003063045Y0002866726D01*
X0003064170Y0002864476D01*
X0003065295Y0002859977D01*
X0003065295Y0002856602D01*
X0003064170Y0002852103D01*
X0003063045Y0002849853D01*
X0003060795Y0002847604D01*
X0003057421Y0002846479D01*
X0003051796Y0002846479D01*
X0003085542Y0002870101D02*
X0003081043Y0002870101D01*
X0003078793Y0002868976D01*
X0003077668Y0002867851D01*
X0003075419Y0002864476D01*
X0003074294Y0002859977D01*
X0003074294Y0002850978D01*
X0003075419Y0002848728D01*
X0003076543Y0002847604D01*
X0003078793Y0002846479D01*
X0003083292Y0002846479D01*
X0003085542Y0002847604D01*
X0003086667Y0002848728D01*
X0003087791Y0002850978D01*
X0003087791Y0002856602D01*
X0003086667Y0002858852D01*
X0003085542Y0002859977D01*
X0003083292Y0002861102D01*
X0003078793Y0002861102D01*
X0003076543Y0002859977D01*
X0003075419Y0002858852D01*
X0003074294Y0002856602D01*
X0003151796Y0002843979D02*
X0003151796Y0002867601D01*
X0003157421Y0002867601D01*
X0003160795Y0002866476D01*
X0003163045Y0002864226D01*
X0003164170Y0002861976D01*
X0003165294Y0002857477D01*
X0003165294Y0002854102D01*
X0003164170Y0002849603D01*
X0003163045Y0002847352D01*
X0003160795Y0002845104D01*
X0003157421Y0002843979D01*
X0003151796Y0002843979D01*
X0003173169Y0002867601D02*
X0003187792Y0002867601D01*
X0003179918Y0002858602D01*
X0003183292Y0002858602D01*
X0003185541Y0002857477D01*
X0003186667Y0002856352D01*
X0003187792Y0002854102D01*
X0003187792Y0002848478D01*
X0003186667Y0002846228D01*
X0003185541Y0002845104D01*
X0003183292Y0002843979D01*
X0003176543Y0002843979D01*
X0003174294Y0002845104D01*
X0003173169Y0002846228D01*
X0003252359Y0002853228D02*
X0003263607Y0002853228D01*
X0003250108Y0002846479D02*
X0003257983Y0002870101D01*
X0003265856Y0002846479D01*
X0003284980Y0002870101D02*
X0003273731Y0002870101D01*
X0003272606Y0002858852D01*
X0003273731Y0002859977D01*
X0003275981Y0002861102D01*
X0003281604Y0002861102D01*
X0003283855Y0002859977D01*
X0003284980Y0002858852D01*
X0003286105Y0002856602D01*
X0003286105Y0002850978D01*
X0003284980Y0002848728D01*
X0003283855Y0002847604D01*
X0003281604Y0002846479D01*
X0003275981Y0002846479D01*
X0003273731Y0002847604D01*
X0003272606Y0002848728D01*
X0003352359Y0002853228D02*
X0003363606Y0002853228D01*
X0003350109Y0002846479D02*
X0003357983Y0002870101D01*
X0003365857Y0002846479D01*
X0003383855Y0002862227D02*
X0003383855Y0002846479D01*
X0003378231Y0002871226D02*
X0003372606Y0002854353D01*
X0003387230Y0002854353D01*
X0003449859Y0002853228D02*
X0003461107Y0002853228D01*
X0003447608Y0002846479D02*
X0003455483Y0002870101D01*
X0003463356Y0002846479D01*
X0003468982Y0002870101D02*
X0003483605Y0002870101D01*
X0003475731Y0002861102D01*
X0003479105Y0002861102D01*
X0003481355Y0002859977D01*
X0003482480Y0002858852D01*
X0003483605Y0002856602D01*
X0003483605Y0002850978D01*
X0003482480Y0002848728D01*
X0003481355Y0002847604D01*
X0003479105Y0002846479D01*
X0003472356Y0002846479D01*
X0003470106Y0002847604D01*
X0003468982Y0002848728D01*
X0003525085Y0002829950D02*
X0003533039Y0002837904D01*
X0003528266Y0002823587D02*
X0003517131Y0002845858D01*
X0003539402Y0002834722D01*
X0003529062Y0002854607D02*
X0003529062Y0002856198D01*
X0003529857Y0002858584D01*
X0003533833Y0002862561D01*
X0003536220Y0002863357D01*
X0003537811Y0002863357D01*
X0003540197Y0002862561D01*
X0003541788Y0002860970D01*
X0003543379Y0002857789D01*
X0003543379Y0002838699D01*
X0003553719Y0002849040D01*
X0003518169Y0002890292D02*
X0003518169Y0002901540D01*
X0003524918Y0002888042D02*
X0003501296Y0002895916D01*
X0003524918Y0002903790D01*
X0003524918Y0002924038D02*
X0003524918Y0002910539D01*
X0003524918Y0002917288D02*
X0003501296Y0002917288D01*
X0003504670Y0002915039D01*
X0003506920Y0002912789D01*
X0003508045Y0002910539D01*
X0003518169Y0002987792D02*
X0003518169Y0002999041D01*
X0003524918Y0002985542D02*
X0003501296Y0002993415D01*
X0003524918Y0003001290D01*
X0003501296Y0003013664D02*
X0003501296Y0003015913D01*
X0003502421Y0003018163D01*
X0003503546Y0003019288D01*
X0003505795Y0003020413D01*
X0003510294Y0003021538D01*
X0003515918Y0003021538D01*
X0003520419Y0003020413D01*
X0003522668Y0003019288D01*
X0003523793Y0003018163D01*
X0003524918Y0003015913D01*
X0003524918Y0003013664D01*
X0003523793Y0003011414D01*
X0003522668Y0003010289D01*
X0003520419Y0003009164D01*
X0003515918Y0003008038D01*
X0003510294Y0003008038D01*
X0003505795Y0003009164D01*
X0003503546Y0003010289D01*
X0003502421Y0003011414D01*
X0003501296Y0003013664D01*
X0003504921Y0003084167D02*
X0003503796Y0003081917D01*
X0003503796Y0003078543D01*
X0003504921Y0003075168D01*
X0003507170Y0003072919D01*
X0003509420Y0003071793D01*
X0003513920Y0003070669D01*
X0003517294Y0003070669D01*
X0003521793Y0003071793D01*
X0003524043Y0003072919D01*
X0003526293Y0003075168D01*
X0003527418Y0003078543D01*
X0003527418Y0003080793D01*
X0003526293Y0003084167D01*
X0003525168Y0003085292D01*
X0003517294Y0003085292D01*
X0003517294Y0003080793D01*
X0003527418Y0003095416D02*
X0003503796Y0003095416D01*
X0003527418Y0003108914D01*
X0003503796Y0003108914D01*
X0003527418Y0003120163D02*
X0003503796Y0003120163D01*
X0003503796Y0003125787D01*
X0003504921Y0003129162D01*
X0003507170Y0003131411D01*
X0003509420Y0003132536D01*
X0003513920Y0003133661D01*
X0003517294Y0003133661D01*
X0003521793Y0003132536D01*
X0003524043Y0003131411D01*
X0003526293Y0003129162D01*
X0003527418Y0003125787D01*
X0003527418Y0003120163D01*
D74*
X0002947046Y0003776200D02*
X0002986417Y0003776200D01*
X0002986417Y0003843129D02*
X0002947046Y0003843129D01*
X0003080196Y0003379980D02*
X0003080196Y0003419350D01*
X0003013267Y0003419350D02*
X0003013267Y0003379980D01*
X0003281535Y0003167125D02*
X0003431929Y0003167125D01*
X0003431929Y0003167125D02*
X0003431929Y0003237204D01*
X0003431929Y0003237204D02*
X0003281535Y0003237204D01*
X0003281535Y0003167125D02*
X0003281535Y0003237204D01*
X0003044429Y0003739704D02*
X0002894035Y0003739704D01*
X0002894035Y0003739704D02*
X0002894035Y0003669625D01*
X0002894035Y0003669625D02*
X0003044429Y0003669625D01*
X0003044429Y0003739704D02*
X0003044429Y0003669625D01*
X0003070354Y0003005019D02*
X0003023110Y0003005019D01*
X0003023110Y0003074310D02*
X0003070354Y0003074310D01*
X0003070354Y0002922519D02*
X0003023110Y0002922519D01*
X0003023110Y0002991811D02*
X0003070354Y0002991811D01*
D73*
X0003497047Y0003652362D02*
X0003510078Y0003620078D01*
X0003419055Y0003620078D02*
X0003432086Y0003652362D01*
X0003432086Y0003652362D02*
X0003497047Y0003652362D01*
X0003529527Y0003620078D02*
X0003516535Y0003620078D01*
X0003516535Y0003620078D02*
X0003510078Y0003620078D01*
X0003399606Y0003620078D02*
X0003419055Y0003620078D01*
X0003425196Y0003759842D02*
X0003503937Y0003759842D01*
X0003503937Y0003759842D02*
X0003503937Y0003736220D01*
X0003503937Y0003736220D02*
X0003425196Y0003736220D01*
X0003425196Y0003736220D02*
X0003425196Y0003759842D01*
X0003399606Y0003620078D02*
G75*
G03X0003464566Y0003555118I0000064960D01*
G01*
X0003464566Y0003555118D02*
G75*
G03X0003529527Y0003620078J0000064960D01*
G01*
X0003529527Y0003700787D02*
X0003529527Y0003620078D01*
X0003399606Y0003700787D02*
X0003399606Y0003620078D01*
X0003529527Y0003700787D02*
X0003529527Y0003785433D01*
X0003529527Y0003785433D02*
X0003464566Y0003785433D01*
X0003464566Y0003785433D02*
X0003399606Y0003785433D01*
X0003399606Y0003785433D02*
X0003399606Y0003700787D01*
X0003561811Y0003528740D02*
X0003561811Y0003700787D01*
X0003561811Y0003700787D02*
X0003561811Y0003528740D01*
X0003561811Y0003528740D02*
X0003367322Y0003528740D01*
X0003367322Y0003528740D02*
X0003367322Y0003700787D01*
X0003561811Y0003822834D02*
X0003561811Y0003700787D01*
X0003367322Y0003822834D02*
X0003367322Y0003700787D01*
X0003367322Y0003822834D02*
X0003561811Y0003822834D01*
X0003235413Y0003718484D02*
X0003235413Y0003820845D01*
X0003133051Y0003718484D02*
X0003133051Y0003820845D01*
X0003109429Y0003718484D02*
X0003109429Y0003820845D01*
X0003109429Y0003820845D02*
X0003259035Y0003820845D01*
X0003259035Y0003820845D02*
X0003259035Y0003718484D01*
X0003259035Y0003718484D02*
X0003109429Y0003718484D01*
D75*
X0003223149Y0003544565D02*
G75*
G03X0003223149Y0003544565I-0000009842D01*
G01*
X0003208385Y0003580000D02*
X0003224133Y0003580000D01*
X0003263503Y0003580000D02*
X0003257598Y0003580000D01*
X0003109960Y0003580000D02*
X0003115866Y0003580000D01*
X0003263503Y0003580000D02*
X0003263503Y0003434330D01*
X0003149330Y0003434330D02*
X0003224133Y0003434330D01*
X0003109960Y0003580000D02*
X0003109960Y0003434330D01*
D76*
X0003149330Y0003580000D02*
X0003165078Y0003580000D01*
D74*
X0003236102Y0003062933D02*
X0003474685Y0003062933D01*
X0003474685Y0003062933D02*
X0003474685Y0003146397D01*
X0003474685Y0003146397D02*
X0003236102Y0003146397D01*
X0003236102Y0003146397D02*
X0003236102Y0003062933D01*
X0003196732Y0003062933D02*
X0003155000Y0003062933D01*
X0003155000Y0003062933D02*
X0003155000Y0003104665D01*
X0003431417Y0003508129D02*
X0003392047Y0003508129D01*
X0003392047Y0003441200D02*
X0003431417Y0003441200D01*
D76*
X0003151298Y0003395846D02*
G75*
G03X0003151298Y0003395846I-0000002952D01*
G01*
X0003237913Y0003384035D02*
X0003237913Y0003305295D01*
X0003135551Y0003305295D02*
X0003135551Y0003386003D01*
X0002965170Y0003860604D02*
X0002963295Y0003858729D01*
X0002957671Y0003856855D01*
X0002953922Y0003856855D01*
X0002948297Y0003858729D01*
X0002944548Y0003862479D01*
X0002942673Y0003866228D01*
X0002940798Y0003873727D01*
X0002940798Y0003879352D01*
X0002942673Y0003886851D01*
X0002944548Y0003890599D01*
X0002948297Y0003894350D01*
X0002953922Y0003896225D01*
X0002957671Y0003896225D01*
X0002963295Y0003894350D01*
X0002965170Y0003892475D01*
X0003002665Y0003856855D02*
X0002980168Y0003856855D01*
X0002991417Y0003856855D02*
X0002991417Y0003896225D01*
X0002987667Y0003890599D01*
X0002983918Y0003886851D01*
X0002980168Y0003884976D01*
X0003045170Y0003503104D02*
X0003043295Y0003501229D01*
X0003037671Y0003499355D01*
X0003033922Y0003499355D01*
X0003028297Y0003501229D01*
X0003024548Y0003504979D01*
X0003022673Y0003508728D01*
X0003020798Y0003516227D01*
X0003020798Y0003521852D01*
X0003022673Y0003529351D01*
X0003024548Y0003533100D01*
X0003028297Y0003536850D01*
X0003033922Y0003538725D01*
X0003037671Y0003538725D01*
X0003043295Y0003536850D01*
X0003045170Y0003534975D01*
X0003060168Y0003534975D02*
X0003062043Y0003536850D01*
X0003065792Y0003538725D01*
X0003075166Y0003538725D01*
X0003078916Y0003536850D01*
X0003080791Y0003534975D01*
X0003082665Y0003531226D01*
X0003082665Y0003527476D01*
X0003080791Y0003521852D01*
X0003058293Y0003499355D01*
X0003082665Y0003499355D01*
X0003383923Y0003291225D02*
X0003383923Y0003263103D01*
X0003382049Y0003257479D01*
X0003378299Y0003253729D01*
X0003372675Y0003251855D01*
X0003368925Y0003251855D01*
X0003402671Y0003251855D02*
X0003402671Y0003291225D01*
X0003417669Y0003291225D01*
X0003421419Y0003289350D01*
X0003423293Y0003287475D01*
X0003425168Y0003283726D01*
X0003425168Y0003278101D01*
X0003423293Y0003274352D01*
X0003421419Y0003272477D01*
X0003417669Y0003270602D01*
X0003402671Y0003270602D01*
X0003462664Y0003251855D02*
X0003440166Y0003251855D01*
X0003451415Y0003251855D02*
X0003451415Y0003291225D01*
X0003447665Y0003285600D01*
X0003443916Y0003281851D01*
X0003440166Y0003279976D01*
X0002931422Y0003656225D02*
X0002931422Y0003628103D01*
X0002929548Y0003622479D01*
X0002925799Y0003618729D01*
X0002920175Y0003616855D01*
X0002916425Y0003616855D01*
X0002950171Y0003616855D02*
X0002950171Y0003656225D01*
X0002965169Y0003656225D01*
X0002968919Y0003654350D01*
X0002970793Y0003652475D01*
X0002972668Y0003648726D01*
X0002972668Y0003643101D01*
X0002970793Y0003639352D01*
X0002968919Y0003637477D01*
X0002965169Y0003635602D01*
X0002950171Y0003635602D01*
X0002987666Y0003652475D02*
X0002989541Y0003654350D01*
X0002993291Y0003656225D01*
X0003002665Y0003656225D01*
X0003006414Y0003654350D01*
X0003008289Y0003652475D01*
X0003010164Y0003648726D01*
X0003010164Y0003644976D01*
X0003008289Y0003639352D01*
X0002985792Y0003616855D01*
X0003010164Y0003616855D01*
X0002975170Y0003086855D02*
X0002962047Y0003105602D01*
X0002952673Y0003086855D02*
X0002952673Y0003126225D01*
X0002967670Y0003126225D01*
X0002971421Y0003124350D01*
X0002973294Y0003122474D01*
X0002975170Y0003118726D01*
X0002975170Y0003113101D01*
X0002973294Y0003109352D01*
X0002971421Y0003107477D01*
X0002967670Y0003105602D01*
X0002952673Y0003105602D01*
X0003012665Y0003086855D02*
X0002990168Y0003086855D01*
X0003001417Y0003086855D02*
X0003001417Y0003126225D01*
X0002997666Y0003120600D01*
X0002993918Y0003116851D01*
X0002990168Y0003114976D01*
X0002970170Y0002869354D02*
X0002957047Y0002888102D01*
X0002947673Y0002869354D02*
X0002947673Y0002908725D01*
X0002962671Y0002908725D01*
X0002966421Y0002906850D01*
X0002968295Y0002904975D01*
X0002970170Y0002901226D01*
X0002970170Y0002895600D01*
X0002968295Y0002891852D01*
X0002966421Y0002889977D01*
X0002962671Y0002888102D01*
X0002947673Y0002888102D01*
X0002985168Y0002904975D02*
X0002987043Y0002906850D01*
X0002990792Y0002908725D01*
X0003000165Y0002908725D01*
X0003003916Y0002906850D01*
X0003005791Y0002904975D01*
X0003007665Y0002901226D01*
X0003007665Y0002897476D01*
X0003005791Y0002891852D01*
X0002983293Y0002869354D01*
X0003007665Y0002869354D01*
D73*
X0003389867Y0003848729D02*
X0003395492Y0003846855D01*
X0003404865Y0003846855D01*
X0003408615Y0003848729D01*
X0003410490Y0003850603D01*
X0003412365Y0003854353D01*
X0003412365Y0003858103D01*
X0003410490Y0003861853D01*
X0003408615Y0003863727D01*
X0003404865Y0003865602D01*
X0003397366Y0003867477D01*
X0003393617Y0003869352D01*
X0003391742Y0003871227D01*
X0003389867Y0003874975D01*
X0003389867Y0003878725D01*
X0003391742Y0003882475D01*
X0003393617Y0003884350D01*
X0003397366Y0003886225D01*
X0003406740Y0003886225D01*
X0003412365Y0003884350D01*
X0003429237Y0003846855D02*
X0003429237Y0003886225D01*
X0003429237Y0003867477D02*
X0003451735Y0003867477D01*
X0003451735Y0003846855D02*
X0003451735Y0003886225D01*
X0003464858Y0003886225D02*
X0003487355Y0003886225D01*
X0003476107Y0003846855D02*
X0003476107Y0003886225D01*
X0003521101Y0003846855D02*
X0003498604Y0003846855D01*
X0003509852Y0003846855D02*
X0003509852Y0003886225D01*
X0003506103Y0003880599D01*
X0003502353Y0003876851D01*
X0003498604Y0003874975D01*
X0003545473Y0003886225D02*
X0003549222Y0003886225D01*
X0003552971Y0003884350D01*
X0003554847Y0003882475D01*
X0003556722Y0003878725D01*
X0003558596Y0003871227D01*
X0003558596Y0003861853D01*
X0003556722Y0003854353D01*
X0003554847Y0003850603D01*
X0003552971Y0003848729D01*
X0003549222Y0003846855D01*
X0003545473Y0003846855D01*
X0003541723Y0003848729D01*
X0003539849Y0003850603D01*
X0003537974Y0003854353D01*
X0003536099Y0003861853D01*
X0003536099Y0003871227D01*
X0003537974Y0003878725D01*
X0003539849Y0003882475D01*
X0003541723Y0003884350D01*
X0003545473Y0003886225D01*
X0003075809Y0003883725D02*
X0003098307Y0003883725D01*
X0003087058Y0003844355D02*
X0003087058Y0003883725D01*
X0003109555Y0003846229D02*
X0003115179Y0003844355D01*
X0003124553Y0003844355D01*
X0003128303Y0003846229D01*
X0003130178Y0003848104D01*
X0003132052Y0003851854D01*
X0003132052Y0003855603D01*
X0003130178Y0003859353D01*
X0003128303Y0003861227D01*
X0003124553Y0003863102D01*
X0003117053Y0003864977D01*
X0003113305Y0003866852D01*
X0003111430Y0003868727D01*
X0003109555Y0003872476D01*
X0003109555Y0003876226D01*
X0003111430Y0003879975D01*
X0003113305Y0003881850D01*
X0003117053Y0003883725D01*
X0003126428Y0003883725D01*
X0003132052Y0003881850D01*
X0003167673Y0003844355D02*
X0003148925Y0003844355D01*
X0003148925Y0003883725D01*
X0003178922Y0003879975D02*
X0003180796Y0003881850D01*
X0003184546Y0003883725D01*
X0003193920Y0003883725D01*
X0003197669Y0003881850D01*
X0003199544Y0003879975D01*
X0003201418Y0003876226D01*
X0003201418Y0003872476D01*
X0003199544Y0003866852D01*
X0003177047Y0003844355D01*
X0003201418Y0003844355D01*
X0003237039Y0003883725D02*
X0003218292Y0003883725D01*
X0003216417Y0003864977D01*
X0003218292Y0003866852D01*
X0003222041Y0003868727D01*
X0003231415Y0003868727D01*
X0003235165Y0003866852D01*
X0003237039Y0003864977D01*
X0003238914Y0003861227D01*
X0003238914Y0003851854D01*
X0003237039Y0003848104D01*
X0003235165Y0003846229D01*
X0003231415Y0003844355D01*
X0003222041Y0003844355D01*
X0003218292Y0003846229D01*
X0003216417Y0003848104D01*
X0003272660Y0003883725D02*
X0003265161Y0003883725D01*
X0003261411Y0003881850D01*
X0003259536Y0003879975D01*
X0003255787Y0003874350D01*
X0003253912Y0003866852D01*
X0003253912Y0003851854D01*
X0003255787Y0003848104D01*
X0003257662Y0003846229D01*
X0003261411Y0003844355D01*
X0003268910Y0003844355D01*
X0003272660Y0003846229D01*
X0003274534Y0003848104D01*
X0003276408Y0003851854D01*
X0003276408Y0003861227D01*
X0003274534Y0003864977D01*
X0003272660Y0003866852D01*
X0003268910Y0003868727D01*
X0003261411Y0003868727D01*
X0003257662Y0003866852D01*
X0003255787Y0003864977D01*
X0003253912Y0003861227D01*
X0003313905Y0003844355D02*
X0003291407Y0003844355D01*
X0003302656Y0003844355D02*
X0003302656Y0003883725D01*
X0003298907Y0003878100D01*
X0003295157Y0003874350D01*
X0003291407Y0003872476D01*
X0003298305Y0003011854D02*
X0003298305Y0003051225D01*
X0003307679Y0003051225D01*
X0003313303Y0003049350D01*
X0003317052Y0003045600D01*
X0003318926Y0003041850D01*
X0003320802Y0003034352D01*
X0003320802Y0003028727D01*
X0003318926Y0003021228D01*
X0003317052Y0003017478D01*
X0003313303Y0003013728D01*
X0003307679Y0003011854D01*
X0003298305Y0003011854D01*
X0003337675Y0003011854D02*
X0003337675Y0003051225D01*
X0003337675Y0003032477D02*
X0003360172Y0003032477D01*
X0003360172Y0003011854D02*
X0003360172Y0003051225D01*
X0003373295Y0003051225D02*
X0003395792Y0003051225D01*
X0003384544Y0003011854D02*
X0003384544Y0003051225D01*
X0003429538Y0003011854D02*
X0003407041Y0003011854D01*
X0003418290Y0003011854D02*
X0003418290Y0003051225D01*
X0003414540Y0003045600D01*
X0003410791Y0003041850D01*
X0003407041Y0003039976D01*
X0003467034Y0003011854D02*
X0003444536Y0003011854D01*
X0003455785Y0003011854D02*
X0003455785Y0003051225D01*
X0003452035Y0003045600D01*
X0003448286Y0003041850D01*
X0003444536Y0003039976D01*
D76*
X0003405170Y0003529502D02*
X0003403295Y0003527627D01*
X0003397671Y0003525752D01*
X0003393922Y0003525752D01*
X0003388297Y0003527627D01*
X0003384548Y0003531377D01*
X0003382673Y0003535126D01*
X0003380798Y0003542625D01*
X0003380798Y0003548249D01*
X0003382673Y0003555748D01*
X0003384548Y0003559498D01*
X0003388297Y0003563247D01*
X0003393922Y0003565121D01*
X0003397671Y0003565121D01*
X0003403295Y0003563247D01*
X0003405170Y0003561373D01*
X0003418293Y0003565121D02*
X0003442665Y0003565121D01*
X0003429542Y0003550124D01*
X0003435166Y0003550124D01*
X0003438916Y0003548249D01*
X0003440791Y0003546375D01*
X0003442665Y0003542625D01*
X0003442665Y0003533251D01*
X0003440791Y0003529502D01*
X0003438916Y0003527627D01*
X0003435166Y0003525752D01*
X0003423917Y0003525752D01*
X0003420168Y0003527627D01*
X0003418293Y0003529502D01*
D72*
X0003138924Y0003273571D02*
X0003141737Y0003272634D01*
X0003142675Y0003271696D01*
X0003143612Y0003269821D01*
X0003143612Y0003267009D01*
X0003142675Y0003265135D01*
X0003141737Y0003264197D01*
X0003139863Y0003263260D01*
X0003132364Y0003263260D01*
X0003132364Y0003282945D01*
X0003138924Y0003282945D01*
X0003140800Y0003282007D01*
X0003141737Y0003281070D01*
X0003142675Y0003279195D01*
X0003142675Y0003277320D01*
X0003141737Y0003275446D01*
X0003140800Y0003274508D01*
X0003138924Y0003273571D01*
X0003132364Y0003273571D01*
X0003152049Y0003263260D02*
X0003152049Y0003282945D01*
X0003158610Y0003268884D01*
X0003165172Y0003282945D01*
X0003165172Y0003263260D01*
X0003174546Y0003263260D02*
X0003174546Y0003282945D01*
X0003182045Y0003282945D01*
X0003183920Y0003282007D01*
X0003184857Y0003281070D01*
X0003185794Y0003279195D01*
X0003185794Y0003276382D01*
X0003184857Y0003274508D01*
X0003183920Y0003273571D01*
X0003182045Y0003272634D01*
X0003174546Y0003272634D01*
X0003193294Y0003281070D02*
X0003194231Y0003282007D01*
X0003196106Y0003282945D01*
X0003200793Y0003282945D01*
X0003202667Y0003282007D01*
X0003203605Y0003281070D01*
X0003204542Y0003279195D01*
X0003204542Y0003277320D01*
X0003203605Y0003274508D01*
X0003192356Y0003263260D01*
X0003204542Y0003263260D01*
X0003215790Y0003274508D02*
X0003213916Y0003275446D01*
X0003212979Y0003276382D01*
X0003212040Y0003278258D01*
X0003212040Y0003279195D01*
X0003212979Y0003281070D01*
X0003213916Y0003282007D01*
X0003215790Y0003282945D01*
X0003219540Y0003282945D01*
X0003221415Y0003282007D01*
X0003222352Y0003281070D01*
X0003223290Y0003279195D01*
X0003223290Y0003278258D01*
X0003222352Y0003276382D01*
X0003221415Y0003275446D01*
X0003219540Y0003274508D01*
X0003215790Y0003274508D01*
X0003213916Y0003273571D01*
X0003212979Y0003272634D01*
X0003212040Y0003270759D01*
X0003212040Y0003267009D01*
X0003212979Y0003265135D01*
X0003213916Y0003264197D01*
X0003215790Y0003263260D01*
X0003219540Y0003263260D01*
X0003221415Y0003264197D01*
X0003222352Y0003265135D01*
X0003223290Y0003267009D01*
X0003223290Y0003270759D01*
X0003222352Y0003272634D01*
X0003221415Y0003273571D01*
X0003219540Y0003274508D01*
X0003235476Y0003282945D02*
X0003237350Y0003282945D01*
X0003239225Y0003282007D01*
X0003240162Y0003281070D01*
X0003241100Y0003279195D01*
X0003242036Y0003275446D01*
X0003242036Y0003270759D01*
X0003241100Y0003267009D01*
X0003240162Y0003265135D01*
X0003239225Y0003264197D01*
X0003237350Y0003263260D01*
X0003235476Y0003263260D01*
X0003233601Y0003264197D01*
X0003232664Y0003265135D01*
X0003231726Y0003267009D01*
X0003230789Y0003270759D01*
X0003230789Y0003275446D01*
X0003231726Y0003279195D01*
X0003232664Y0003281070D01*
X0003233601Y0003282007D01*
X0003235476Y0003282945D01*
M02*