%MOIN*%
%OFA0B0*%
%FSLAX46Y46*%
%IPPOS*%
%LPD*%
%ADD10C,0.0039370078740157488*%
%ADD11C,0.10236220472440946*%
%ADD12R,0.082677165354330714X0.082677165354330714*%
%ADD13C,0.082677165354330714*%
%ADD14O,0.082677165354330714X0.082677165354330714*%
%ADD15C,0.094488188976377951*%
%ADD26C,0.0039370078740157488*%
%ADD27C,0.10236220472440946*%
%ADD28R,0.082677165354330714X0.082677165354330714*%
%ADD29C,0.082677165354330714*%
%ADD30O,0.082677165354330714X0.082677165354330714*%
%ADD31C,0.094488188976377951*%
%ADD42C,0.0039370078740157488*%
%ADD43C,0.082677165354330714*%
%ADD44O,0.082677165354330714X0.082677165354330714*%
%ADD45C,0.10236220472440946*%
%ADD46R,0.068897637795275593X0.068897637795275593*%
%ADD47O,0.068897637795275593X0.068897637795275593*%
%ADD58C,0.0039370078740157488*%
%ADD59C,0.082677165354330714*%
%ADD60O,0.082677165354330714X0.082677165354330714*%
%ADD61C,0.10236220472440946*%
%ADD62R,0.068897637795275593X0.068897637795275593*%
%ADD63O,0.068897637795275593X0.068897637795275593*%
%ADD74C,0.0039370078740157488*%
%ADD75R,0.082677165354330714X0.082677165354330714*%
%ADD76C,0.10236220472440946*%
%ADD87C,0.0039370078740157488*%
%ADD88R,0.082677165354330714X0.082677165354330714*%
%ADD89C,0.10236220472440946*%
%ADD100C,0.0039370078740157488*%
%ADD101C,0.082677165354330714*%
%ADD102O,0.082677165354330714X0.082677165354330714*%
%ADD103C,0.10236220472440946*%
%ADD104R,0.03937007874015748X0.051181102362204731*%
%ADD105R,0.064960629921259838X0.055118110236220472*%
%ADD106R,0.086614173228346469X0.1141732283464567*%
%ADD107R,0.066929133858267723X0.043307086614173235*%
%ADD118C,0.0039370078740157488*%
%ADD119C,0.082677165354330714*%
%ADD120O,0.082677165354330714X0.082677165354330714*%
%ADD121C,0.10236220472440946*%
%ADD122R,0.03937007874015748X0.051181102362204731*%
%ADD123R,0.064960629921259838X0.055118110236220472*%
%ADD124R,0.086614173228346469X0.1141732283464567*%
%ADD125R,0.066929133858267723X0.043307086614173235*%
%LPD*%
G01*
D10*
D11*
X-0002440944Y-0006653543D02*
X0000974055Y0000751456D03*
D12*
X0001196555Y0000076456D03*
X0001196555Y0000176456D03*
X0001196555Y0000276456D03*
X0001196555Y0000376456D03*
X0001196555Y0000476456D03*
X0001196555Y0000576456D03*
X0001196555Y0000676456D03*
X0001196555Y0000776455D03*
X0001096555Y0000076456D03*
X0001096555Y0000176456D03*
X0001096555Y0000276456D03*
X0001096555Y0000376456D03*
X0001096555Y0000476456D03*
X0001096555Y0000576456D03*
X0001096555Y0000676456D03*
X0001096555Y0000776455D03*
X0000996555Y0000076456D03*
X0000996555Y0000176456D03*
X0000996555Y0000276456D03*
X0000996555Y0000376456D03*
X0000996555Y0000476456D03*
X0000996555Y0000576456D03*
X0002634055Y0000076456D03*
X0002634055Y0000176456D03*
X0002634055Y0000276456D03*
X0002634055Y0000376456D03*
X0002634055Y0000476456D03*
X0002634055Y0000576456D03*
X0002634055Y0000676456D03*
X0002634055Y0000776455D03*
X0002734055Y0000076456D03*
X0002734055Y0000176456D03*
X0002734055Y0000276456D03*
X0002734055Y0000376456D03*
X0002734055Y0000476456D03*
X0002734055Y0000576456D03*
X0002734055Y0000676456D03*
X0002734055Y0000776455D03*
X0002834055Y0000076456D03*
X0002834055Y0000176456D03*
X0002834055Y0000276456D03*
X0002834055Y0000376456D03*
X0002834055Y0000476456D03*
X0002834055Y0000576456D03*
X0002834055Y0000676456D03*
X0002834055Y0000776455D03*
D13*
X0001931555Y0000073956D03*
D14*
X0002031555Y0000073956D03*
X0002131555Y0000073956D03*
X0002231555Y0000073956D03*
D13*
X0002031555Y0000773956D03*
D14*
X0002131555Y0000773956D03*
X0002231555Y0000773956D03*
X0002331555Y0000773956D03*
D13*
X0002431555Y0000776455D03*
D14*
X0002431555Y0000676456D03*
X0002431555Y0000576456D03*
X0002431555Y0000476456D03*
X0002431555Y0000376456D03*
X0002431555Y0000276456D03*
D11*
X0002409055Y0000116456D03*
D15*
X0001034133Y0001098956D03*
X0002793976Y0001098956D03*
G01*
D26*
D27*
X-0002440944Y-0004685039D02*
X0000974055Y0002719960D03*
D28*
X0001196555Y0002044960D03*
X0001196555Y0002144960D03*
X0001196555Y0002244960D03*
X0001196555Y0002344960D03*
X0001196555Y0002444960D03*
X0001196555Y0002544960D03*
X0001196555Y0002644960D03*
X0001196555Y0002744960D03*
X0001096555Y0002044960D03*
X0001096555Y0002144960D03*
X0001096555Y0002244960D03*
X0001096555Y0002344960D03*
X0001096555Y0002444960D03*
X0001096555Y0002544960D03*
X0001096555Y0002644960D03*
X0001096555Y0002744960D03*
X0000996555Y0002044960D03*
X0000996555Y0002144960D03*
X0000996555Y0002244960D03*
X0000996555Y0002344960D03*
X0000996555Y0002444960D03*
X0000996555Y0002544960D03*
X0002634055Y0002044960D03*
X0002634055Y0002144960D03*
X0002634055Y0002244960D03*
X0002634055Y0002344960D03*
X0002634055Y0002444960D03*
X0002634055Y0002544960D03*
X0002634055Y0002644960D03*
X0002634055Y0002744960D03*
X0002734055Y0002044960D03*
X0002734055Y0002144960D03*
X0002734055Y0002244960D03*
X0002734055Y0002344960D03*
X0002734055Y0002444960D03*
X0002734055Y0002544960D03*
X0002734055Y0002644960D03*
X0002734055Y0002744960D03*
X0002834055Y0002044960D03*
X0002834055Y0002144960D03*
X0002834055Y0002244960D03*
X0002834055Y0002344960D03*
X0002834055Y0002444960D03*
X0002834055Y0002544960D03*
X0002834055Y0002644960D03*
X0002834055Y0002744960D03*
D29*
X0001931555Y0002042460D03*
D30*
X0002031555Y0002042460D03*
X0002131555Y0002042460D03*
X0002231555Y0002042460D03*
D29*
X0002031555Y0002742459D03*
D30*
X0002131555Y0002742459D03*
X0002231555Y0002742459D03*
X0002331555Y0002742459D03*
D29*
X0002431555Y0002744960D03*
D30*
X0002431555Y0002644960D03*
X0002431555Y0002544960D03*
X0002431555Y0002444960D03*
X0002431555Y0002344960D03*
X0002431555Y0002244960D03*
D27*
X0002409055Y0002084960D03*
D31*
X0001019133Y0003064959D03*
X0002778976Y0003064959D03*
X0002778976Y0001724960D03*
X0001019133Y0001724960D03*
G01*
D42*
D43*
X-0006692913Y0006220472D02*
X0000034586Y0001847972D03*
D44*
X0000034586Y0001747972D03*
X0000034586Y0001647972D03*
X0000034586Y0001547972D03*
D43*
X0000734586Y0001747972D03*
D44*
X0000734586Y0001647972D03*
X0000734586Y0001547972D03*
X0000734586Y0001447972D03*
D43*
X0000737086Y0001347972D03*
D44*
X0000637086Y0001347972D03*
X0000537086Y0001347972D03*
X0000437086Y0001347972D03*
X0000337086Y0001347972D03*
X0000237086Y0001347972D03*
D45*
X0000077086Y0001370472D03*
X0000387086Y0001500472D03*
D46*
X0000362086Y0001647972D03*
D47*
X0000440826Y0001647972D03*
X0000519566Y0001647972D03*
X0000598307Y0001647972D03*
G01*
D58*
D59*
X-0006692913Y0007480314D02*
X0000034586Y0003107814D03*
D60*
X0000034586Y0003007814D03*
X0000034586Y0002907814D03*
X0000034586Y0002807814D03*
D59*
X0000734586Y0003007814D03*
D60*
X0000734586Y0002907814D03*
X0000734586Y0002807814D03*
X0000734586Y0002707814D03*
D59*
X0000737086Y0002607813D03*
D60*
X0000637086Y0002607813D03*
X0000537086Y0002607813D03*
X0000437086Y0002607813D03*
X0000337086Y0002607813D03*
X0000237086Y0002607813D03*
D61*
X0000077086Y0002630314D03*
X0000387086Y0002760313D03*
D62*
X0000362086Y0002907814D03*
D63*
X0000440826Y0002907814D03*
X0000519566Y0002907814D03*
X0000598307Y0002907814D03*
G04 next file*
%LPD*%
G01*
D74*
D75*
X-0005118110Y0005511811D02*
X0000731889Y0001161811D03*
X0000631889Y0001161811D03*
X0000731889Y0001061811D03*
X0000631889Y0001061811D03*
D76*
X0000078740Y0000078740D03*
X0000381888Y0000211810D03*
D75*
X0000031889Y0001161811D03*
X0000131889Y0001161811D03*
X0000231889Y0001161811D03*
X0000331889Y0001161811D03*
X0000431889Y0001161811D03*
X0000531889Y0001161811D03*
X0000031889Y0001061811D03*
X0000131889Y0001061811D03*
X0000231889Y0001061811D03*
X0000331889Y0001061811D03*
X0000431889Y0001061811D03*
X0000531889Y0001061811D03*
X0000031889Y0000961810D03*
X0000131889Y0000961810D03*
X0000231889Y0000961810D03*
X0000331889Y0000961810D03*
X0000431889Y0000961810D03*
X0000531889Y0000961810D03*
X0000631889Y0000961810D03*
X0000731889Y0000961810D03*
X0000031889Y0000861810D03*
X0000131889Y0000861810D03*
X0000231889Y0000861810D03*
X0000331889Y0000861810D03*
X0000431889Y0000861810D03*
X0000531889Y0000861810D03*
X0000631889Y0000861810D03*
X0000731889Y0000861810D03*
X0000031889Y0000761810D03*
X0000131889Y0000761810D03*
X0000231889Y0000761810D03*
X0000331889Y0000761810D03*
X0000431889Y0000761810D03*
X0000531889Y0000761810D03*
X0000631889Y0000761810D03*
X0000731889Y0000761810D03*
X0000031889Y0000661811D03*
X0000131889Y0000661811D03*
X0000231889Y0000661811D03*
X0000331889Y0000661811D03*
X0000431889Y0000661811D03*
X0000531889Y0000661811D03*
X0000631889Y0000661811D03*
X0000731889Y0000661811D03*
X0000031889Y0000561810D03*
X0000131889Y0000561810D03*
X0000231889Y0000561810D03*
X0000331889Y0000561810D03*
X0000431889Y0000561810D03*
X0000531889Y0000561810D03*
X0000631889Y0000561810D03*
X0000731889Y0000561810D03*
X0000031889Y0000461809D03*
X0000131889Y0000461809D03*
X0000231889Y0000461809D03*
X0000331889Y0000461809D03*
X0000431889Y0000461809D03*
X0000531889Y0000461809D03*
X0000631889Y0000461809D03*
X0000731889Y0000461809D03*
X0000031889Y0000361810D03*
X0000131889Y0000361810D03*
X0000231889Y0000361810D03*
X0000331889Y0000361810D03*
X0000431889Y0000361810D03*
X0000531889Y0000361810D03*
X0000631889Y0000361810D03*
X0000731889Y0000361810D03*
X0000031889Y0000261811D03*
X0000131889Y0000261811D03*
X0000231889Y0000261811D03*
X0000531889Y0000261811D03*
X0000631889Y0000261811D03*
X0000731889Y0000261811D03*
X0000231889Y0000161811D03*
X0000531889Y0000161811D03*
X0000631889Y0000161811D03*
X0000731889Y0000161811D03*
X0000231889Y0000061810D03*
X0000331889Y0000061810D03*
X0000431889Y0000061810D03*
X0000531889Y0000061810D03*
X0000631889Y0000061810D03*
X0000731889Y0000061810D03*
G01*
D87*
D88*
X-0002125984Y0008031496D02*
X0003724015Y0003681496D03*
X0003624014Y0003681496D03*
X0003724015Y0003581496D03*
X0003624014Y0003581496D03*
D89*
X0003070866Y0002598425D03*
X0003374015Y0002731496D03*
D88*
X0003024015Y0003681496D03*
X0003124015Y0003681496D03*
X0003224015Y0003681496D03*
X0003324015Y0003681496D03*
X0003424015Y0003681496D03*
X0003524015Y0003681496D03*
X0003024015Y0003581496D03*
X0003124015Y0003581496D03*
X0003224015Y0003581496D03*
X0003324015Y0003581496D03*
X0003424015Y0003581496D03*
X0003524015Y0003581496D03*
X0003024015Y0003481496D03*
X0003124015Y0003481496D03*
X0003224015Y0003481496D03*
X0003324015Y0003481496D03*
X0003424015Y0003481496D03*
X0003524015Y0003481496D03*
X0003624014Y0003481496D03*
X0003724015Y0003481496D03*
X0003024015Y0003381496D03*
X0003124015Y0003381496D03*
X0003224015Y0003381496D03*
X0003324015Y0003381496D03*
X0003424015Y0003381496D03*
X0003524015Y0003381496D03*
X0003624014Y0003381496D03*
X0003724015Y0003381496D03*
X0003024015Y0003281496D03*
X0003124015Y0003281496D03*
X0003224015Y0003281496D03*
X0003324015Y0003281496D03*
X0003424015Y0003281496D03*
X0003524015Y0003281496D03*
X0003624014Y0003281496D03*
X0003724015Y0003281496D03*
X0003024015Y0003181496D03*
X0003124015Y0003181496D03*
X0003224015Y0003181496D03*
X0003324015Y0003181496D03*
X0003424015Y0003181496D03*
X0003524015Y0003181496D03*
X0003624014Y0003181496D03*
X0003724015Y0003181496D03*
X0003024015Y0003081496D03*
X0003124015Y0003081496D03*
X0003224015Y0003081496D03*
X0003324015Y0003081496D03*
X0003424015Y0003081496D03*
X0003524015Y0003081496D03*
X0003624014Y0003081496D03*
X0003724015Y0003081496D03*
X0003024015Y0002981496D03*
X0003124015Y0002981496D03*
X0003224015Y0002981496D03*
X0003324015Y0002981496D03*
X0003424015Y0002981496D03*
X0003524015Y0002981496D03*
X0003624014Y0002981496D03*
X0003724015Y0002981496D03*
X0003024015Y0002881496D03*
X0003124015Y0002881496D03*
X0003224015Y0002881496D03*
X0003324015Y0002881496D03*
X0003424015Y0002881496D03*
X0003524015Y0002881496D03*
X0003624014Y0002881496D03*
X0003724015Y0002881496D03*
X0003024015Y0002781496D03*
X0003124015Y0002781496D03*
X0003224015Y0002781496D03*
X0003524015Y0002781496D03*
X0003624014Y0002781496D03*
X0003724015Y0002781496D03*
X0003224015Y0002681496D03*
X0003524015Y0002681496D03*
X0003624014Y0002681496D03*
X0003724015Y0002681496D03*
X0003224015Y0002581496D03*
X0003324015Y0002581496D03*
X0003424015Y0002581496D03*
X0003524015Y0002581496D03*
X0003624014Y0002581496D03*
X0003724015Y0002581496D03*
G04 next file*
G01*
D100*
D101*
X-0003700787Y0006181102D02*
X0003724212Y0002091101D03*
D102*
X0003724212Y0001991102D03*
D101*
X0003029212Y0002358102D03*
D102*
X0003129212Y0002358102D03*
X0003229212Y0002358102D03*
X0003329211Y0002358102D03*
X0003429212Y0002358102D03*
X0003529212Y0002358102D03*
X0003629212Y0002358102D03*
X0003729211Y0002358102D03*
D101*
X0003726712Y0001708602D03*
D102*
X0003726712Y0001608602D03*
X0003726712Y0001508602D03*
X0003726712Y0001408602D03*
D101*
X0003729211Y0001308602D03*
D102*
X0003629212Y0001308602D03*
X0003529212Y0001308602D03*
X0003429212Y0001308602D03*
X0003329211Y0001308602D03*
X0003229212Y0001308602D03*
D103*
X0003069212Y0001331102D03*
X0003379211Y0001461102D03*
D104*
X0003470212Y0001645220D03*
X0003432810Y0001534984D03*
X0003507614Y0001534984D03*
D105*
X0003601212Y0001625472D03*
X0003601212Y0001546732D03*
X0003334212Y0001623972D03*
X0003334212Y0001545231D03*
D106*
X0003063212Y0002227842D03*
X0003063212Y0002070361D03*
D107*
X0003114212Y0001784503D03*
X0003114212Y0001709698D03*
X0003042212Y0001784503D03*
X0003042212Y0001709698D03*
D104*
X0003072212Y0001850984D03*
X0003109614Y0001961220D03*
X0003034811Y0001961220D03*
D106*
X0003237212Y0002227842D03*
X0003237212Y0002070361D03*
X0003405212Y0002225842D03*
X0003405212Y0002068362D03*
X0003572212Y0002227842D03*
X0003572212Y0002070361D03*
D104*
X0003238212Y0001849984D03*
X0003275614Y0001960220D03*
X0003200811Y0001960220D03*
X0003405212Y0001849984D03*
X0003442614Y0001960220D03*
X0003367810Y0001960220D03*
X0003572212Y0001850984D03*
X0003609614Y0001961220D03*
X0003534811Y0001961220D03*
D107*
X0003282212Y0001783503D03*
X0003282212Y0001708700D03*
X0003209212Y0001783503D03*
X0003209212Y0001708700D03*
X0003447212Y0001783503D03*
X0003447212Y0001708700D03*
X0003375212Y0001783503D03*
X0003375212Y0001708700D03*
X0003614212Y0001782503D03*
X0003614212Y0001707700D03*
X0003542212Y0001782503D03*
X0003542212Y0001707700D03*
G04 next file*
G04 #@! TF.FileFunction,Soldermask,Bot*
G04 Gerber Fmt 4.6, Leading zero omitted, Abs format (unit mm)*
G04 Created by KiCad (PCBNEW 4.0.2-stable) date 08.08.2017 13:07:48*
G01*
G04 APERTURE LIST*
G04 APERTURE END LIST*
D118*
D119*
X-0003700787Y0004921259D02*
X0003724212Y0000831259D03*
D120*
X0003724212Y0000731259D03*
D119*
X0003029212Y0001098259D03*
D120*
X0003129212Y0001098259D03*
X0003229212Y0001098259D03*
X0003329211Y0001098259D03*
X0003429212Y0001098259D03*
X0003529212Y0001098259D03*
X0003629212Y0001098259D03*
X0003729211Y0001098259D03*
D119*
X0003726712Y0000448759D03*
D120*
X0003726712Y0000348759D03*
X0003726712Y0000248759D03*
X0003726712Y0000148759D03*
D119*
X0003729211Y0000048759D03*
D120*
X0003629212Y0000048759D03*
X0003529212Y0000048759D03*
X0003429212Y0000048759D03*
X0003329211Y0000048759D03*
X0003229212Y0000048759D03*
D121*
X0003069212Y0000071259D03*
X0003379211Y0000201259D03*
D122*
X0003470212Y0000385377D03*
X0003432810Y0000275141D03*
X0003507614Y0000275141D03*
D123*
X0003601212Y0000365629D03*
X0003601212Y0000286889D03*
X0003334212Y0000364129D03*
X0003334212Y0000285389D03*
D124*
X0003063212Y0000967999D03*
X0003063212Y0000810519D03*
D125*
X0003114212Y0000524661D03*
X0003114212Y0000449858D03*
X0003042212Y0000524661D03*
X0003042212Y0000449858D03*
D122*
X0003072212Y0000591141D03*
X0003109614Y0000701377D03*
X0003034811Y0000701377D03*
D124*
X0003237212Y0000967999D03*
X0003237212Y0000810519D03*
X0003405212Y0000966000D03*
X0003405212Y0000808519D03*
X0003572212Y0000967999D03*
X0003572212Y0000810519D03*
D122*
X0003238212Y0000590141D03*
X0003275614Y0000700376D03*
X0003200811Y0000700376D03*
X0003405212Y0000590141D03*
X0003442614Y0000700376D03*
X0003367810Y0000700376D03*
X0003572212Y0000591141D03*
X0003609614Y0000701377D03*
X0003534811Y0000701377D03*
D125*
X0003282212Y0000523661D03*
X0003282212Y0000448858D03*
X0003209212Y0000523661D03*
X0003209212Y0000448858D03*
X0003447212Y0000523661D03*
X0003447212Y0000448858D03*
X0003375212Y0000523661D03*
X0003375212Y0000448858D03*
X0003614212Y0000522661D03*
X0003614212Y0000447858D03*
X0003542212Y0000522661D03*
X0003542212Y0000447858D03*
M02*