%MOIN*%
%OFA0B0*%
%FSLAX46Y46*%
%IPPOS*%
%LPD*%
%ADD10C,0.0039370078740157488*%
%ADD11R,0.066929133858267723X0.066929133858267723*%
%ADD12C,0.066929133858267723*%
%ADD13O,0.066929133858267723X0.066929133858267723*%
%ADD14C,0.07874015748031496*%
%ADD15C,0.03937007874015748*%
%ADD26C,0.0039370078740157488*%
%ADD27R,0.066929133858267723X0.066929133858267723*%
%ADD28C,0.066929133858267723*%
%ADD29O,0.066929133858267723X0.066929133858267723*%
%ADD30C,0.07874015748031496*%
%ADD31C,0.03937007874015748*%
%ADD42C,0.0039370078740157488*%
%ADD43C,0.066929133858267723*%
%ADD44O,0.066929133858267723X0.066929133858267723*%
%ADD45R,0.059055118110236227X0.049212598425196853*%
%ADD46R,0.049212598425196853X0.059055118110236227*%
%ADD47R,0.038188976377952759X0.05*%
%ADD48R,0.059055118110236227X0.051181102362204731*%
%ADD49C,0.023622047244094488*%
%ADD50R,0.070866141732283464X0.031496062992125991*%
%ADD51R,0.059055118110236227X0.027559055118110236*%
%ADD52R,0.01968503937007874X0.023622047244094488*%
%ADD53R,0.023622047244094488X0.01968503937007874*%
%ADD54R,0.053149606299212608X0.053149606299212608*%
%ADD55O,0.053149606299212608X0.053149606299212608*%
%ADD56R,0.013779527559055118X0.01968503937007874*%
%ADD57C,0.00984251968503937*%
%ADD58C,0.01*%
%ADD69C,0.0039370078740157488*%
%ADD70C,0.066929133858267723*%
%ADD71O,0.066929133858267723X0.066929133858267723*%
%ADD72R,0.059055118110236227X0.049212598425196853*%
%ADD73R,0.049212598425196853X0.059055118110236227*%
%ADD74R,0.038188976377952759X0.05*%
%ADD75R,0.059055118110236227X0.051181102362204731*%
%ADD76C,0.023622047244094488*%
%ADD77R,0.070866141732283464X0.031496062992125991*%
%ADD78R,0.059055118110236227X0.027559055118110236*%
%ADD79R,0.01968503937007874X0.023622047244094488*%
%ADD80R,0.023622047244094488X0.01968503937007874*%
%ADD81R,0.053149606299212608X0.053149606299212608*%
%ADD82O,0.053149606299212608X0.053149606299212608*%
%ADD83R,0.013779527559055118X0.01968503937007874*%
%ADD84C,0.00984251968503937*%
%ADD85C,0.01*%
%ADD96C,0.0039370078740157488*%
%ADD97R,0.066929133858267723X0.066929133858267723*%
%ADD108C,0.0039370078740157488*%
%ADD109R,0.066929133858267723X0.066929133858267723*%
%ADD120C,0.0039370078740157488*%
%ADD121C,0.066929133858267723*%
%ADD122O,0.066929133858267723X0.066929133858267723*%
%ADD123R,0.062992125984251982X0.085826771653543313*%
%ADD124R,0.076771653543307089X0.0984251968503937*%
%ADD125R,0.059055118110236227X0.059055118110236227*%
%ADD126R,0.027559055118110236X0.051181102362204731*%
%ADD127C,0.023622047244094488*%
%ADD128C,0.00984251968503937*%
%ADD129C,0.01*%
%ADD140C,0.0039370078740157488*%
%ADD141C,0.066929133858267723*%
%ADD142O,0.066929133858267723X0.066929133858267723*%
%ADD143R,0.062992125984251982X0.085826771653543313*%
%ADD144R,0.076771653543307089X0.0984251968503937*%
%ADD145R,0.059055118110236227X0.059055118110236227*%
%ADD146R,0.027559055118110236X0.051181102362204731*%
%ADD147C,0.023622047244094488*%
%ADD148C,0.00984251968503937*%
%ADD149C,0.01*%
%LPD*%
G01*
D10*
D11*
X-0002440944Y-0006653543D02*
X0001196555Y0000076456D03*
X0001196555Y0000176456D03*
X0001196555Y0000276456D03*
X0001196555Y0000376456D03*
X0001196555Y0000476456D03*
X0001196555Y0000576456D03*
X0001196555Y0000676456D03*
X0001196555Y0000776455D03*
X0001096555Y0000076456D03*
X0001096555Y0000176456D03*
X0001096555Y0000276456D03*
X0001096555Y0000376456D03*
X0001096555Y0000476456D03*
X0001096555Y0000576456D03*
X0001096555Y0000676456D03*
X0001096555Y0000776455D03*
X0000996555Y0000076456D03*
X0000996555Y0000176456D03*
X0000996555Y0000276456D03*
X0000996555Y0000376456D03*
X0000996555Y0000476456D03*
X0000996555Y0000576456D03*
X0002634055Y0000076456D03*
X0002634055Y0000176456D03*
X0002634055Y0000276456D03*
X0002634055Y0000376456D03*
X0002634055Y0000476456D03*
X0002634055Y0000576456D03*
X0002634055Y0000676456D03*
X0002634055Y0000776455D03*
X0002734055Y0000076456D03*
X0002734055Y0000176456D03*
X0002734055Y0000276456D03*
X0002734055Y0000376456D03*
X0002734055Y0000476456D03*
X0002734055Y0000576456D03*
X0002734055Y0000676456D03*
X0002734055Y0000776455D03*
X0002834055Y0000076456D03*
X0002834055Y0000176456D03*
X0002834055Y0000276456D03*
X0002834055Y0000376456D03*
X0002834055Y0000476456D03*
X0002834055Y0000576456D03*
X0002834055Y0000676456D03*
X0002834055Y0000776455D03*
D12*
X0001931555Y0000073956D03*
D13*
X0002031555Y0000073956D03*
X0002131555Y0000073956D03*
X0002231555Y0000073956D03*
D12*
X0002031555Y0000773956D03*
D13*
X0002131555Y0000773956D03*
X0002231555Y0000773956D03*
X0002331555Y0000773956D03*
D12*
X0002431555Y0000776455D03*
D13*
X0002431555Y0000676456D03*
X0002431555Y0000576456D03*
X0002431555Y0000476456D03*
X0002431555Y0000376456D03*
X0002431555Y0000276456D03*
D14*
X0001034133Y0001098956D03*
X0002793976Y0001098956D03*
D15*
X0002793976Y0001098956D02*
X0002231555Y0001098956D01*
X0002231555Y0001098956D02*
X0002131555Y0000998956D01*
X0002131555Y0000998956D02*
X0002131555Y0000773956D01*
X0002131555Y0000773956D02*
X0002131555Y0000546456D01*
X0001931555Y0000073956D02*
X0001931555Y0000346456D01*
X0001931555Y0000346456D02*
X0002131555Y0000546456D01*
X0002031555Y0000773956D02*
X0002031555Y0000983956D01*
X0002031555Y0000983956D02*
X0001916555Y0001098956D01*
X0001456555Y0001098956D02*
X0001034133Y0001098956D01*
X0001916555Y0001098956D02*
X0001456555Y0001098956D01*
G01*
D26*
D27*
X-0002440944Y-0004685039D02*
X0001196555Y0002044960D03*
X0001196555Y0002144960D03*
X0001196555Y0002244960D03*
X0001196555Y0002344960D03*
X0001196555Y0002444960D03*
X0001196555Y0002544960D03*
X0001196555Y0002644960D03*
X0001196555Y0002744960D03*
X0001096555Y0002044960D03*
X0001096555Y0002144960D03*
X0001096555Y0002244960D03*
X0001096555Y0002344960D03*
X0001096555Y0002444960D03*
X0001096555Y0002544960D03*
X0001096555Y0002644960D03*
X0001096555Y0002744960D03*
X0000996555Y0002044960D03*
X0000996555Y0002144960D03*
X0000996555Y0002244960D03*
X0000996555Y0002344960D03*
X0000996555Y0002444960D03*
X0000996555Y0002544960D03*
X0002634055Y0002044960D03*
X0002634055Y0002144960D03*
X0002634055Y0002244960D03*
X0002634055Y0002344960D03*
X0002634055Y0002444960D03*
X0002634055Y0002544960D03*
X0002634055Y0002644960D03*
X0002634055Y0002744960D03*
X0002734055Y0002044960D03*
X0002734055Y0002144960D03*
X0002734055Y0002244960D03*
X0002734055Y0002344960D03*
X0002734055Y0002444960D03*
X0002734055Y0002544960D03*
X0002734055Y0002644960D03*
X0002734055Y0002744960D03*
X0002834055Y0002044960D03*
X0002834055Y0002144960D03*
X0002834055Y0002244960D03*
X0002834055Y0002344960D03*
X0002834055Y0002444960D03*
X0002834055Y0002544960D03*
X0002834055Y0002644960D03*
X0002834055Y0002744960D03*
D28*
X0001931555Y0002042460D03*
D29*
X0002031555Y0002042460D03*
X0002131555Y0002042460D03*
X0002231555Y0002042460D03*
D28*
X0002031555Y0002742459D03*
D29*
X0002131555Y0002742459D03*
X0002231555Y0002742459D03*
X0002331555Y0002742459D03*
D28*
X0002431555Y0002744960D03*
D29*
X0002431555Y0002644960D03*
X0002431555Y0002544960D03*
X0002431555Y0002444960D03*
X0002431555Y0002344960D03*
X0002431555Y0002244960D03*
D30*
X0001019133Y0003064959D03*
X0002778976Y0003064959D03*
X0002778976Y0001724960D03*
X0001019133Y0001724960D03*
D31*
X0002549055Y0002914960D02*
X0002701555Y0003067460D01*
X0002701555Y0003067460D02*
X0002778976Y0003064959D01*
X0002549055Y0001864960D02*
X0002549055Y0002914960D01*
X0002691555Y0001722460D02*
X0002549055Y0001864960D01*
X0002778976Y0001724960D02*
X0002691555Y0001722460D01*
X0002131555Y0002742459D02*
X0002131555Y0002514960D01*
X0001931555Y0002042460D02*
X0001931555Y0002314960D01*
X0001931555Y0002314960D02*
X0002131555Y0002514960D01*
X0001931555Y0002042460D02*
X0001769055Y0002042460D01*
X0001019133Y0001724960D02*
X0001449055Y0001722460D01*
X0001449055Y0001722460D02*
X0001769055Y0002042460D01*
X0001781555Y0002742459D02*
X0001456555Y0003067460D01*
X0001456555Y0003067460D02*
X0001019133Y0003064959D01*
X0002031555Y0002742459D02*
X0001781555Y0002742459D01*
G01*
D42*
D43*
X-0006692913Y0006220472D02*
X0000034586Y0001847972D03*
D44*
X0000034586Y0001747972D03*
X0000034586Y0001647972D03*
X0000034586Y0001547972D03*
D43*
X0000734586Y0001747972D03*
D44*
X0000734586Y0001647972D03*
X0000734586Y0001547972D03*
X0000734586Y0001447972D03*
D43*
X0000737086Y0001347972D03*
D44*
X0000637086Y0001347972D03*
X0000537086Y0001347972D03*
X0000437086Y0001347972D03*
X0000337086Y0001347972D03*
X0000237086Y0001347972D03*
D45*
X0000181299Y0002352972D03*
X0000082873Y0002352972D03*
D46*
X0000212086Y0001992185D03*
X0000212086Y0001893759D03*
D47*
X0000472086Y0001745472D03*
X0000522086Y0001745472D03*
X0000572086Y0001745472D03*
X0000184586Y0002247972D03*
X0000134586Y0002247972D03*
X0000084586Y0002247972D03*
D48*
X0000158937Y0001582972D03*
X0000265236Y0001582972D03*
X0000158937Y0001500472D03*
X0000265236Y0001500472D03*
D49*
X0000629921Y0002322834D03*
D50*
X0000525984Y0002244094D03*
X0000525984Y0002294094D03*
X0000525984Y0002344094D03*
X0000525984Y0002194094D03*
X0000525984Y0002144094D03*
X0000733858Y0002244094D03*
X0000733858Y0002294094D03*
X0000733858Y0002344094D03*
X0000733858Y0002194094D03*
X0000733858Y0002144094D03*
D51*
X0000290531Y0002275570D03*
X0000290531Y0002312972D03*
X0000290531Y0002350374D03*
X0000408641Y0002350374D03*
X0000408641Y0002312972D03*
X0000408641Y0002275570D03*
D52*
X0000294999Y0002109527D03*
X0000294999Y0002050472D03*
X0000294999Y0001991417D03*
X0000409173Y0001991417D03*
X0000409173Y0002050472D03*
X0000409173Y0002109527D03*
D53*
X0000352086Y0002111496D03*
D54*
X0000362086Y0001647972D03*
D55*
X0000440826Y0001647972D03*
X0000519566Y0001647972D03*
X0000598307Y0001647972D03*
D45*
X0000527873Y0002017971D03*
X0000626299Y0002017971D03*
D56*
X0000313700Y0001919467D03*
X0000339291Y0001919467D03*
X0000364881Y0001919467D03*
X0000390472Y0001919467D03*
X0000313700Y0001856476D03*
X0000339291Y0001856476D03*
X0000364881Y0001856476D03*
X0000390472Y0001856476D03*
D49*
X0000322086Y0001420472D03*
X0000207086Y0002055472D03*
X0000464585Y0002145472D03*
X0000084586Y0002192972D03*
X0000414585Y0001745472D03*
D57*
X0000034586Y0001847972D02*
X0000282440Y0001847972D01*
X0000282440Y0001847972D02*
X0000287086Y0001843326D01*
X0000304940Y0001825472D02*
X0000331495Y0001825472D01*
X0000331495Y0001825472D02*
X0000339291Y0001833267D01*
X0000287086Y0001889900D02*
X0000287086Y0001843326D01*
X0000287086Y0001843326D02*
X0000304940Y0001825472D01*
X0000313700Y0001919467D02*
X0000313700Y0001916515D01*
X0000313700Y0001916515D02*
X0000287086Y0001889900D01*
X0000347086Y0001825472D02*
X0000339291Y0001833267D01*
X0000339291Y0001833267D02*
X0000339291Y0001856476D01*
X0000379153Y0001825472D02*
X0000347086Y0001825472D01*
X0000390472Y0001856476D02*
X0000390472Y0001836791D01*
X0000390472Y0001836791D02*
X0000379153Y0001825472D01*
X0000184586Y0002247972D02*
X0000284586Y0002247972D01*
X0000290531Y0002253917D02*
X0000290531Y0002275570D01*
X0000284586Y0002247972D02*
X0000290531Y0002253917D01*
X0000408641Y0002350374D02*
X0000364487Y0002350374D01*
X0000359586Y0002159114D02*
X0000409173Y0002109527D01*
X0000359586Y0002345472D02*
X0000359586Y0002159114D01*
X0000364487Y0002350374D02*
X0000359586Y0002345472D01*
X0000409173Y0002111496D02*
X0000409173Y0002109527D01*
X0000457085Y0002267716D02*
X0000457085Y0002333425D01*
X0000457085Y0002333425D02*
X0000440137Y0002350374D01*
X0000440137Y0002350374D02*
X0000408641Y0002350374D01*
X0000525984Y0002244094D02*
X0000480708Y0002244094D01*
X0000480708Y0002244094D02*
X0000457085Y0002267716D01*
X0000410157Y0001841098D02*
X0000410157Y0001813543D01*
X0000259585Y0001662972D02*
X0000232031Y0001662972D01*
X0000410157Y0001813543D02*
X0000259585Y0001662972D01*
X0000224748Y0001655689D02*
X0000196220Y0001655689D01*
X0000232031Y0001662972D02*
X0000224748Y0001655689D01*
X0000158937Y0001618405D02*
X0000158937Y0001582972D01*
X0000196220Y0001655689D02*
X0000158937Y0001618405D01*
X0000410157Y0001876555D02*
X0000410157Y0001841098D01*
X0000407598Y0001879113D02*
X0000410157Y0001876555D01*
X0000385551Y0001879113D02*
X0000407598Y0001879113D01*
X0000364881Y0001919467D02*
X0000364881Y0001899783D01*
X0000364881Y0001899783D02*
X0000385551Y0001879113D01*
X0000364881Y0001919467D02*
X0000364881Y0002065236D01*
X0000364881Y0002065236D02*
X0000387519Y0002087873D01*
X0000387519Y0002087873D02*
X0000389488Y0002087873D01*
X0000389488Y0002087873D02*
X0000409173Y0002107559D01*
X0000409173Y0002107559D02*
X0000409173Y0002109527D01*
X0000107086Y0001570492D02*
X0000107086Y0001474173D01*
X0000107086Y0001474173D02*
X0000160787Y0001420472D01*
X0000160787Y0001420472D02*
X0000322086Y0001420472D01*
X0000158937Y0001582972D02*
X0000119566Y0001582972D01*
X0000119566Y0001582972D02*
X0000107086Y0001570492D01*
X0000408641Y0002275570D02*
X0000408641Y0002232972D01*
X0000525984Y0002194094D02*
X0000480708Y0002194094D01*
X0000408641Y0002232972D02*
X0000408641Y0002168917D01*
X0000480708Y0002194094D02*
X0000441830Y0002232972D01*
X0000441830Y0002232972D02*
X0000408641Y0002232972D01*
X0000429586Y0001830771D02*
X0000429586Y0001797971D01*
X0000269586Y0001637972D02*
X0000236787Y0001637972D01*
X0000429586Y0001797971D02*
X0000269586Y0001637972D01*
X0000212086Y0001613271D02*
X0000212086Y0001549685D01*
X0000236787Y0001637972D02*
X0000212086Y0001613271D01*
X0000212086Y0001549685D02*
X0000162874Y0001500472D01*
X0000162874Y0001500472D02*
X0000158937Y0001500472D01*
X0000429586Y0001897085D02*
X0000429586Y0001830771D01*
X0000390472Y0001919467D02*
X0000407204Y0001919467D01*
X0000407204Y0001919467D02*
X0000429586Y0001897085D01*
X0000390472Y0001919467D02*
X0000390472Y0001939153D01*
X0000390472Y0001939153D02*
X0000386535Y0001943090D01*
X0000386535Y0001943090D02*
X0000386535Y0002025866D01*
X0000386535Y0002025866D02*
X0000409173Y0002048503D01*
X0000409173Y0002048503D02*
X0000409173Y0002050472D01*
X0000437086Y0002050472D02*
X0000437086Y0002082971D01*
X0000409173Y0002050472D02*
X0000428858Y0002050472D01*
X0000428858Y0002050472D02*
X0000437086Y0002050472D01*
X0000437086Y0002140472D02*
X0000437086Y0002082971D01*
X0000437086Y0002082971D02*
X0000437086Y0002078385D01*
X0000403622Y0001381436D02*
X0000437086Y0001347972D01*
X0000339980Y0001445078D02*
X0000403622Y0001381436D01*
X0000218267Y0001445078D02*
X0000339980Y0001445078D01*
X0000162874Y0001500472D02*
X0000218267Y0001445078D01*
X0000408641Y0002168917D02*
X0000437086Y0002140472D01*
X0000572086Y0001745472D02*
X0000732085Y0001745472D01*
X0000732085Y0001745472D02*
X0000734586Y0001747972D01*
X0000212086Y0001992185D02*
X0000294232Y0001992185D01*
X0000294232Y0001992185D02*
X0000294999Y0001991417D01*
X0000207086Y0002055472D02*
X0000207086Y0001997185D01*
X0000207086Y0001997185D02*
X0000212086Y0001992185D01*
X0000294232Y0001992185D02*
X0000294999Y0001991417D01*
X0000313700Y0001856476D02*
X0000313700Y0001879704D01*
X0000313700Y0001879704D02*
X0000339291Y0001905295D01*
X0000339291Y0001905295D02*
X0000339291Y0001919467D01*
X0000339291Y0001919467D02*
X0000339291Y0001899783D01*
X0000339291Y0001899783D02*
X0000364881Y0001874192D01*
X0000364881Y0001874192D02*
X0000364881Y0001856476D01*
X0000294999Y0001991417D02*
X0000314685Y0001991417D01*
X0000314685Y0001991417D02*
X0000339291Y0001966810D01*
X0000339291Y0001966810D02*
X0000339291Y0001939153D01*
X0000339291Y0001939153D02*
X0000339291Y0001919467D01*
X0000527873Y0002017971D02*
X0000527873Y0001751259D01*
X0000527873Y0001751259D02*
X0000522086Y0001745472D01*
X0000525984Y0002144094D02*
X0000525984Y0002019861D01*
X0000525984Y0002019861D02*
X0000527873Y0002017971D01*
X0000537874Y0001761259D02*
X0000522086Y0001745472D01*
X0000525984Y0002029862D02*
X0000537874Y0002017971D01*
X0000464585Y0002145472D02*
X0000524606Y0002145472D01*
X0000524606Y0002145472D02*
X0000525984Y0002144094D01*
X0000522086Y0002140196D02*
X0000525984Y0002144094D01*
X0000378168Y0001700472D02*
X0000511928Y0001700472D01*
X0000511928Y0001700472D02*
X0000522086Y0001710629D01*
X0000522086Y0001710629D02*
X0000522086Y0001745472D01*
X0000362086Y0001647972D02*
X0000362086Y0001684389D01*
X0000362086Y0001684389D02*
X0000378168Y0001700472D01*
X0000265236Y0001582972D02*
X0000269173Y0001582972D01*
X0000269173Y0001582972D02*
X0000334173Y0001647972D01*
X0000334173Y0001647972D02*
X0000362086Y0001647972D01*
X0000265236Y0001500472D02*
X0000265236Y0001582972D01*
X0000506299Y0002144094D02*
X0000525984Y0002144094D01*
X0000084586Y0002192972D02*
X0000084586Y0002247972D01*
X0000545669Y0002144094D02*
X0000525984Y0002144094D01*
X0000525984Y0001749370D02*
X0000522086Y0001745472D01*
X0000084586Y0002247972D02*
X0000084586Y0002261181D01*
X0000084586Y0002261181D02*
X0000176377Y0002352972D01*
X0000176377Y0002352972D02*
X0000181299Y0002352972D01*
X0000181299Y0002352972D02*
X0000287933Y0002352972D01*
X0000287933Y0002352972D02*
X0000290531Y0002350374D01*
X0000294999Y0001991417D02*
X0000294999Y0002050472D01*
X0000294999Y0001989448D02*
X0000294999Y0001991417D01*
X0000472086Y0001745472D02*
X0000414585Y0001745472D01*
X0000134586Y0002247972D02*
X0000134586Y0002282814D01*
X0000134586Y0002282814D02*
X0000164743Y0002312972D01*
X0000164743Y0002312972D02*
X0000259035Y0002312972D01*
X0000259035Y0002312972D02*
X0000290531Y0002312972D01*
D58*
G36*
X0000684993Y0001714898D02*
X0000701425Y0001698435D01*
X0000722906Y0001689518D01*
X0000746164Y0001689497D01*
X0000759447Y0001694986D01*
X0000759447Y0001601088D01*
X0000758105Y0001601986D01*
X0000735731Y0001606437D01*
X0000733441Y0001606437D01*
X0000711067Y0001601986D01*
X0000692100Y0001589311D01*
X0000679426Y0001570345D01*
X0000674976Y0001547972D01*
X0000679426Y0001525598D01*
X0000692100Y0001506631D01*
X0000705060Y0001497972D01*
X0000692100Y0001489313D01*
X0000679426Y0001470345D01*
X0000674976Y0001447972D01*
X0000679426Y0001425599D01*
X0000692100Y0001406630D01*
X0000705036Y0001397988D01*
X0000704012Y0001397565D01*
X0000687551Y0001381133D01*
X0000686442Y0001378461D01*
X0000678427Y0001390458D01*
X0000659460Y0001403132D01*
X0000637086Y0001407582D01*
X0000614713Y0001403132D01*
X0000595745Y0001390458D01*
X0000587086Y0001377498D01*
X0000578427Y0001390458D01*
X0000559460Y0001403132D01*
X0000537086Y0001407582D01*
X0000514713Y0001403132D01*
X0000495745Y0001390458D01*
X0000487086Y0001377498D01*
X0000478427Y0001390458D01*
X0000459460Y0001403132D01*
X0000437086Y0001407582D01*
X0000422661Y0001404712D01*
X0000395215Y0001432158D01*
X0000400614Y0001432153D01*
X0000425728Y0001442530D01*
X0000444959Y0001461729D01*
X0000455381Y0001486825D01*
X0000455405Y0001513999D01*
X0000445028Y0001539113D01*
X0000425829Y0001558346D01*
X0000400733Y0001568767D01*
X0000373559Y0001568790D01*
X0000348444Y0001558414D01*
X0000329212Y0001539215D01*
X0000320253Y0001517640D01*
X0000320253Y0001526062D01*
X0000318510Y0001535327D01*
X0000314359Y0001541777D01*
X0000318245Y0001547463D01*
X0000320253Y0001557381D01*
X0000320253Y0001591737D01*
X0000326290Y0001597775D01*
X0000335511Y0001595907D01*
X0000388661Y0001595907D01*
X0000397925Y0001597651D01*
X0000406434Y0001603126D01*
X0000409239Y0001607231D01*
X0000421088Y0001599313D01*
X0000440826Y0001595387D01*
X0000460562Y0001599313D01*
X0000477295Y0001610493D01*
X0000480196Y0001614834D01*
X0000483098Y0001610493D01*
X0000499830Y0001599313D01*
X0000519566Y0001595387D01*
X0000539303Y0001599313D01*
X0000556035Y0001610493D01*
X0000567215Y0001627225D01*
X0000571141Y0001646962D01*
X0000571141Y0001648982D01*
X0000567215Y0001668719D01*
X0000556035Y0001685450D01*
X0000545335Y0001692601D01*
X0000547648Y0001696064D01*
X0000552992Y0001694982D01*
X0000591181Y0001694982D01*
X0000600445Y0001696725D01*
X0000608954Y0001702201D01*
X0000614662Y0001710555D01*
X0000615674Y0001715551D01*
X0000684724Y0001715551D01*
X0000684993Y0001714898D01*
X0000684993Y0001714898D01*
G37*
X0000684993Y0001714898D02*
X0000701425Y0001698435D01*
X0000722906Y0001689518D01*
X0000746164Y0001689497D01*
X0000759447Y0001694986D01*
X0000759447Y0001601088D01*
X0000758105Y0001601986D01*
X0000735731Y0001606437D01*
X0000733441Y0001606437D01*
X0000711067Y0001601986D01*
X0000692100Y0001589311D01*
X0000679426Y0001570345D01*
X0000674976Y0001547972D01*
X0000679426Y0001525598D01*
X0000692100Y0001506631D01*
X0000705060Y0001497972D01*
X0000692100Y0001489313D01*
X0000679426Y0001470345D01*
X0000674976Y0001447972D01*
X0000679426Y0001425599D01*
X0000692100Y0001406630D01*
X0000705036Y0001397988D01*
X0000704012Y0001397565D01*
X0000687551Y0001381133D01*
X0000686442Y0001378461D01*
X0000678427Y0001390458D01*
X0000659460Y0001403132D01*
X0000637086Y0001407582D01*
X0000614713Y0001403132D01*
X0000595745Y0001390458D01*
X0000587086Y0001377498D01*
X0000578427Y0001390458D01*
X0000559460Y0001403132D01*
X0000537086Y0001407582D01*
X0000514713Y0001403132D01*
X0000495745Y0001390458D01*
X0000487086Y0001377498D01*
X0000478427Y0001390458D01*
X0000459460Y0001403132D01*
X0000437086Y0001407582D01*
X0000422661Y0001404712D01*
X0000395215Y0001432158D01*
X0000400614Y0001432153D01*
X0000425728Y0001442530D01*
X0000444959Y0001461729D01*
X0000455381Y0001486825D01*
X0000455405Y0001513999D01*
X0000445028Y0001539113D01*
X0000425829Y0001558346D01*
X0000400733Y0001568767D01*
X0000373559Y0001568790D01*
X0000348444Y0001558414D01*
X0000329212Y0001539215D01*
X0000320253Y0001517640D01*
X0000320253Y0001526062D01*
X0000318510Y0001535327D01*
X0000314359Y0001541777D01*
X0000318245Y0001547463D01*
X0000320253Y0001557381D01*
X0000320253Y0001591737D01*
X0000326290Y0001597775D01*
X0000335511Y0001595907D01*
X0000388661Y0001595907D01*
X0000397925Y0001597651D01*
X0000406434Y0001603126D01*
X0000409239Y0001607231D01*
X0000421088Y0001599313D01*
X0000440826Y0001595387D01*
X0000460562Y0001599313D01*
X0000477295Y0001610493D01*
X0000480196Y0001614834D01*
X0000483098Y0001610493D01*
X0000499830Y0001599313D01*
X0000519566Y0001595387D01*
X0000539303Y0001599313D01*
X0000556035Y0001610493D01*
X0000567215Y0001627225D01*
X0000571141Y0001646962D01*
X0000571141Y0001648982D01*
X0000567215Y0001668719D01*
X0000556035Y0001685450D01*
X0000545335Y0001692601D01*
X0000547648Y0001696064D01*
X0000552992Y0001694982D01*
X0000591181Y0001694982D01*
X0000600445Y0001696725D01*
X0000608954Y0001702201D01*
X0000614662Y0001710555D01*
X0000615674Y0001715551D01*
X0000684724Y0001715551D01*
X0000684993Y0001714898D01*
G36*
X0000759447Y0002385332D02*
X0000698425Y0002385332D01*
X0000689160Y0002383589D01*
X0000680651Y0002378113D01*
X0000674943Y0002369759D01*
X0000672935Y0002359842D01*
X0000672935Y0002328346D01*
X0000674678Y0002319082D01*
X0000674775Y0002318930D01*
X0000672935Y0002309842D01*
X0000672935Y0002278346D01*
X0000674678Y0002269081D01*
X0000674775Y0002268930D01*
X0000672935Y0002259842D01*
X0000672935Y0002228346D01*
X0000674678Y0002219082D01*
X0000674775Y0002218930D01*
X0000672935Y0002209842D01*
X0000672935Y0002178346D01*
X0000674678Y0002169082D01*
X0000674775Y0002168930D01*
X0000672935Y0002159842D01*
X0000672935Y0002128346D01*
X0000674678Y0002119081D01*
X0000680153Y0002110573D01*
X0000688507Y0002104864D01*
X0000698425Y0002102856D01*
X0000759447Y0002102856D01*
X0000759447Y0001800953D01*
X0000746266Y0001806426D01*
X0000723008Y0001806447D01*
X0000701512Y0001797564D01*
X0000685051Y0001781133D01*
X0000682668Y0001775393D01*
X0000615744Y0001775393D01*
X0000614927Y0001779736D01*
X0000609452Y0001788245D01*
X0000601097Y0001793953D01*
X0000591181Y0001795962D01*
X0000557795Y0001795962D01*
X0000557795Y0001967949D01*
X0000566665Y0001969619D01*
X0000575174Y0001975094D01*
X0000580883Y0001983449D01*
X0000582891Y0001993366D01*
X0000582891Y0002042577D01*
X0000581148Y0002051842D01*
X0000575672Y0002060352D01*
X0000567318Y0002066059D01*
X0000557401Y0002068067D01*
X0000555905Y0002068067D01*
X0000555905Y0002102856D01*
X0000561417Y0002102856D01*
X0000570681Y0002104599D01*
X0000579190Y0002110075D01*
X0000584898Y0002118429D01*
X0000586907Y0002128346D01*
X0000586907Y0002159842D01*
X0000585163Y0002169106D01*
X0000585066Y0002169258D01*
X0000586907Y0002178346D01*
X0000586907Y0002209842D01*
X0000585163Y0002219106D01*
X0000585066Y0002219258D01*
X0000586907Y0002228346D01*
X0000586907Y0002259842D01*
X0000585163Y0002269106D01*
X0000579688Y0002277615D01*
X0000571334Y0002283324D01*
X0000561417Y0002285332D01*
X0000490551Y0002285332D01*
X0000487006Y0002284665D01*
X0000487006Y0002303574D01*
X0000490551Y0002302856D01*
X0000561417Y0002302856D01*
X0000570681Y0002304599D01*
X0000579190Y0002310075D01*
X0000582927Y0002315544D01*
X0000593103Y0002315544D01*
X0000598696Y0002302010D01*
X0000609042Y0002291645D01*
X0000622566Y0002286030D01*
X0000637211Y0002286017D01*
X0000650745Y0002291609D01*
X0000661109Y0002301955D01*
X0000666725Y0002315480D01*
X0000666738Y0002330124D01*
X0000661145Y0002343659D01*
X0000650800Y0002354023D01*
X0000637275Y0002359639D01*
X0000622631Y0002359652D01*
X0000609096Y0002354059D01*
X0000598732Y0002343713D01*
X0000593116Y0002330188D01*
X0000593103Y0002315544D01*
X0000582927Y0002315544D01*
X0000584898Y0002318429D01*
X0000586907Y0002328346D01*
X0000586907Y0002359842D01*
X0000585163Y0002369106D01*
X0000579688Y0002377615D01*
X0000571334Y0002383324D01*
X0000561417Y0002385332D01*
X0000490551Y0002385332D01*
X0000481286Y0002383589D01*
X0000472777Y0002378113D01*
X0000467069Y0002369759D01*
X0000466395Y0002366431D01*
X0000462496Y0002370329D01*
X0000461915Y0002373417D01*
X0000456440Y0002381926D01*
X0000448085Y0002387635D01*
X0000438169Y0002389643D01*
X0000379114Y0002389643D01*
X0000369849Y0002387900D01*
X0000361340Y0002382424D01*
X0000359161Y0002379235D01*
X0000353037Y0002378017D01*
X0000344067Y0002372024D01*
X0000343805Y0002373417D01*
X0000338330Y0002381926D01*
X0000329975Y0002387635D01*
X0000320059Y0002389643D01*
X0000261002Y0002389643D01*
X0000251739Y0002387900D01*
X0000243958Y0002382893D01*
X0000235316Y0002382893D01*
X0000234573Y0002386843D01*
X0000229097Y0002395352D01*
X0000220743Y0002401060D01*
X0000210826Y0002403068D01*
X0000151771Y0002403068D01*
X0000142507Y0002401325D01*
X0000133998Y0002395850D01*
X0000128288Y0002387495D01*
X0000126281Y0002377578D01*
X0000126281Y0002345191D01*
X0000079552Y0002298462D01*
X0000065490Y0002298462D01*
X0000056227Y0002296718D01*
X0000047718Y0002291243D01*
X0000042010Y0002282889D01*
X0000040001Y0002272972D01*
X0000040001Y0002222972D01*
X0000041745Y0002213707D01*
X0000047220Y0002205199D01*
X0000049233Y0002203823D01*
X0000047781Y0002200326D01*
X0000047769Y0002185682D01*
X0000053361Y0002172147D01*
X0000063707Y0002161783D01*
X0000077232Y0002156167D01*
X0000091876Y0002156155D01*
X0000105411Y0002161747D01*
X0000115775Y0002172093D01*
X0000121390Y0002185618D01*
X0000121401Y0002197482D01*
X0000153681Y0002197482D01*
X0000162945Y0002199225D01*
X0000171454Y0002204701D01*
X0000177162Y0002213055D01*
X0000179170Y0002222972D01*
X0000179170Y0002272972D01*
X0000177426Y0002282236D01*
X0000176995Y0002282908D01*
X0000177137Y0002283051D01*
X0000241682Y0002283051D01*
X0000242731Y0002281419D01*
X0000251087Y0002275711D01*
X0000261002Y0002273703D01*
X0000320059Y0002273703D01*
X0000329323Y0002275446D01*
X0000329665Y0002275666D01*
X0000329665Y0002159114D01*
X0000331942Y0002147663D01*
X0000338429Y0002137956D01*
X0000366956Y0002109428D01*
X0000366362Y0002109031D01*
X0000343724Y0002086393D01*
X0000337237Y0002076686D01*
X0000334960Y0002065236D01*
X0000334960Y0002013164D01*
X0000326134Y0002019060D01*
X0000324921Y0002019302D01*
X0000324921Y0002023764D01*
X0000328324Y0002028744D01*
X0000330332Y0002038660D01*
X0000330332Y0002062282D01*
X0000328588Y0002071546D01*
X0000323113Y0002080056D01*
X0000323059Y0002080094D01*
X0000328324Y0002087799D01*
X0000330332Y0002097716D01*
X0000330332Y0002121338D01*
X0000328588Y0002130603D01*
X0000323113Y0002139111D01*
X0000314759Y0002144820D01*
X0000304842Y0002146828D01*
X0000285157Y0002146828D01*
X0000275892Y0002145085D01*
X0000267384Y0002139609D01*
X0000261675Y0002131255D01*
X0000259666Y0002121338D01*
X0000259666Y0002097716D01*
X0000261409Y0002088452D01*
X0000266886Y0002079943D01*
X0000266940Y0002079905D01*
X0000261675Y0002072200D01*
X0000259666Y0002062282D01*
X0000259666Y0002038660D01*
X0000261409Y0002029396D01*
X0000265078Y0002023696D01*
X0000265078Y0002022106D01*
X0000262108Y0002022106D01*
X0000260438Y0002030977D01*
X0000254964Y0002039485D01*
X0000246609Y0002045194D01*
X0000242982Y0002045928D01*
X0000243891Y0002048118D01*
X0000243904Y0002062762D01*
X0000238311Y0002076296D01*
X0000227965Y0002086660D01*
X0000214440Y0002092277D01*
X0000199796Y0002092289D01*
X0000186262Y0002086697D01*
X0000175897Y0002076350D01*
X0000170281Y0002062825D01*
X0000170269Y0002048182D01*
X0000172826Y0002041991D01*
X0000169707Y0002039982D01*
X0000163998Y0002031629D01*
X0000161990Y0002021712D01*
X0000161990Y0001962657D01*
X0000163733Y0001953393D01*
X0000169209Y0001944884D01*
X0000177563Y0001939175D01*
X0000187480Y0001937167D01*
X0000236692Y0001937167D01*
X0000245957Y0001938910D01*
X0000254466Y0001944386D01*
X0000260174Y0001952740D01*
X0000262102Y0001962263D01*
X0000266609Y0001962263D01*
X0000266886Y0001961832D01*
X0000275240Y0001956124D01*
X0000285157Y0001954116D01*
X0000304842Y0001954116D01*
X0000308906Y0001954881D01*
X0000309370Y0001954417D01*
X0000309370Y0001939885D01*
X0000308920Y0001939227D01*
X0000306911Y0001929310D01*
X0000306911Y0001915230D01*
X0000292543Y0001900862D01*
X0000286057Y0001891155D01*
X0000283779Y0001879704D01*
X0000283779Y0001876894D01*
X0000283329Y0001876235D01*
X0000281321Y0001866318D01*
X0000281321Y0001846633D01*
X0000283064Y0001837369D01*
X0000288539Y0001828860D01*
X0000296894Y0001823152D01*
X0000306811Y0001821144D01*
X0000320590Y0001821144D01*
X0000329855Y0001822887D01*
X0000338363Y0001828362D01*
X0000339226Y0001829626D01*
X0000339720Y0001828860D01*
X0000348075Y0001823152D01*
X0000357991Y0001821144D01*
X0000371771Y0001821144D01*
X0000376294Y0001821995D01*
X0000247192Y0001692893D01*
X0000232031Y0001692893D01*
X0000220580Y0001690616D01*
X0000213088Y0001685610D01*
X0000196220Y0001685610D01*
X0000184770Y0001683333D01*
X0000175063Y0001676846D01*
X0000137779Y0001639563D01*
X0000134097Y0001634052D01*
X0000129409Y0001634052D01*
X0000120144Y0001632309D01*
X0000111636Y0001626834D01*
X0000105927Y0001618478D01*
X0000103919Y0001608562D01*
X0000103919Y0001607811D01*
X0000098409Y0001604129D01*
X0000085929Y0001591649D01*
X0000080719Y0001583854D01*
X0000077072Y0001589311D01*
X0000064113Y0001597971D01*
X0000077072Y0001606630D01*
X0000089746Y0001625599D01*
X0000094196Y0001647972D01*
X0000089746Y0001670343D01*
X0000077072Y0001689313D01*
X0000064113Y0001697972D01*
X0000077072Y0001706631D01*
X0000089746Y0001725598D01*
X0000094196Y0001747972D01*
X0000089746Y0001770345D01*
X0000077072Y0001789312D01*
X0000058105Y0001801986D01*
X0000035731Y0001806437D01*
X0000033441Y0001806437D01*
X0000027952Y0001805345D01*
X0000027952Y0002452362D01*
X0000759447Y0002452362D01*
X0000759447Y0002385332D01*
X0000759447Y0002385332D01*
G37*
X0000759447Y0002385332D02*
X0000698425Y0002385332D01*
X0000689160Y0002383589D01*
X0000680651Y0002378113D01*
X0000674943Y0002369759D01*
X0000672935Y0002359842D01*
X0000672935Y0002328346D01*
X0000674678Y0002319082D01*
X0000674775Y0002318930D01*
X0000672935Y0002309842D01*
X0000672935Y0002278346D01*
X0000674678Y0002269081D01*
X0000674775Y0002268930D01*
X0000672935Y0002259842D01*
X0000672935Y0002228346D01*
X0000674678Y0002219082D01*
X0000674775Y0002218930D01*
X0000672935Y0002209842D01*
X0000672935Y0002178346D01*
X0000674678Y0002169082D01*
X0000674775Y0002168930D01*
X0000672935Y0002159842D01*
X0000672935Y0002128346D01*
X0000674678Y0002119081D01*
X0000680153Y0002110573D01*
X0000688507Y0002104864D01*
X0000698425Y0002102856D01*
X0000759447Y0002102856D01*
X0000759447Y0001800953D01*
X0000746266Y0001806426D01*
X0000723008Y0001806447D01*
X0000701512Y0001797564D01*
X0000685051Y0001781133D01*
X0000682668Y0001775393D01*
X0000615744Y0001775393D01*
X0000614927Y0001779736D01*
X0000609452Y0001788245D01*
X0000601097Y0001793953D01*
X0000591181Y0001795962D01*
X0000557795Y0001795962D01*
X0000557795Y0001967949D01*
X0000566665Y0001969619D01*
X0000575174Y0001975094D01*
X0000580883Y0001983449D01*
X0000582891Y0001993366D01*
X0000582891Y0002042577D01*
X0000581148Y0002051842D01*
X0000575672Y0002060352D01*
X0000567318Y0002066059D01*
X0000557401Y0002068067D01*
X0000555905Y0002068067D01*
X0000555905Y0002102856D01*
X0000561417Y0002102856D01*
X0000570681Y0002104599D01*
X0000579190Y0002110075D01*
X0000584898Y0002118429D01*
X0000586907Y0002128346D01*
X0000586907Y0002159842D01*
X0000585163Y0002169106D01*
X0000585066Y0002169258D01*
X0000586907Y0002178346D01*
X0000586907Y0002209842D01*
X0000585163Y0002219106D01*
X0000585066Y0002219258D01*
X0000586907Y0002228346D01*
X0000586907Y0002259842D01*
X0000585163Y0002269106D01*
X0000579688Y0002277615D01*
X0000571334Y0002283324D01*
X0000561417Y0002285332D01*
X0000490551Y0002285332D01*
X0000487006Y0002284665D01*
X0000487006Y0002303574D01*
X0000490551Y0002302856D01*
X0000561417Y0002302856D01*
X0000570681Y0002304599D01*
X0000579190Y0002310075D01*
X0000582927Y0002315544D01*
X0000593103Y0002315544D01*
X0000598696Y0002302010D01*
X0000609042Y0002291645D01*
X0000622566Y0002286030D01*
X0000637211Y0002286017D01*
X0000650745Y0002291609D01*
X0000661109Y0002301955D01*
X0000666725Y0002315480D01*
X0000666738Y0002330124D01*
X0000661145Y0002343659D01*
X0000650800Y0002354023D01*
X0000637275Y0002359639D01*
X0000622631Y0002359652D01*
X0000609096Y0002354059D01*
X0000598732Y0002343713D01*
X0000593116Y0002330188D01*
X0000593103Y0002315544D01*
X0000582927Y0002315544D01*
X0000584898Y0002318429D01*
X0000586907Y0002328346D01*
X0000586907Y0002359842D01*
X0000585163Y0002369106D01*
X0000579688Y0002377615D01*
X0000571334Y0002383324D01*
X0000561417Y0002385332D01*
X0000490551Y0002385332D01*
X0000481286Y0002383589D01*
X0000472777Y0002378113D01*
X0000467069Y0002369759D01*
X0000466395Y0002366431D01*
X0000462496Y0002370329D01*
X0000461915Y0002373417D01*
X0000456440Y0002381926D01*
X0000448085Y0002387635D01*
X0000438169Y0002389643D01*
X0000379114Y0002389643D01*
X0000369849Y0002387900D01*
X0000361340Y0002382424D01*
X0000359161Y0002379235D01*
X0000353037Y0002378017D01*
X0000344067Y0002372024D01*
X0000343805Y0002373417D01*
X0000338330Y0002381926D01*
X0000329975Y0002387635D01*
X0000320059Y0002389643D01*
X0000261002Y0002389643D01*
X0000251739Y0002387900D01*
X0000243958Y0002382893D01*
X0000235316Y0002382893D01*
X0000234573Y0002386843D01*
X0000229097Y0002395352D01*
X0000220743Y0002401060D01*
X0000210826Y0002403068D01*
X0000151771Y0002403068D01*
X0000142507Y0002401325D01*
X0000133998Y0002395850D01*
X0000128288Y0002387495D01*
X0000126281Y0002377578D01*
X0000126281Y0002345191D01*
X0000079552Y0002298462D01*
X0000065490Y0002298462D01*
X0000056227Y0002296718D01*
X0000047718Y0002291243D01*
X0000042010Y0002282889D01*
X0000040001Y0002272972D01*
X0000040001Y0002222972D01*
X0000041745Y0002213707D01*
X0000047220Y0002205199D01*
X0000049233Y0002203823D01*
X0000047781Y0002200326D01*
X0000047769Y0002185682D01*
X0000053361Y0002172147D01*
X0000063707Y0002161783D01*
X0000077232Y0002156167D01*
X0000091876Y0002156155D01*
X0000105411Y0002161747D01*
X0000115775Y0002172093D01*
X0000121390Y0002185618D01*
X0000121401Y0002197482D01*
X0000153681Y0002197482D01*
X0000162945Y0002199225D01*
X0000171454Y0002204701D01*
X0000177162Y0002213055D01*
X0000179170Y0002222972D01*
X0000179170Y0002272972D01*
X0000177426Y0002282236D01*
X0000176995Y0002282908D01*
X0000177137Y0002283051D01*
X0000241682Y0002283051D01*
X0000242731Y0002281419D01*
X0000251087Y0002275711D01*
X0000261002Y0002273703D01*
X0000320059Y0002273703D01*
X0000329323Y0002275446D01*
X0000329665Y0002275666D01*
X0000329665Y0002159114D01*
X0000331942Y0002147663D01*
X0000338429Y0002137956D01*
X0000366956Y0002109428D01*
X0000366362Y0002109031D01*
X0000343724Y0002086393D01*
X0000337237Y0002076686D01*
X0000334960Y0002065236D01*
X0000334960Y0002013164D01*
X0000326134Y0002019060D01*
X0000324921Y0002019302D01*
X0000324921Y0002023764D01*
X0000328324Y0002028744D01*
X0000330332Y0002038660D01*
X0000330332Y0002062282D01*
X0000328588Y0002071546D01*
X0000323113Y0002080056D01*
X0000323059Y0002080094D01*
X0000328324Y0002087799D01*
X0000330332Y0002097716D01*
X0000330332Y0002121338D01*
X0000328588Y0002130603D01*
X0000323113Y0002139111D01*
X0000314759Y0002144820D01*
X0000304842Y0002146828D01*
X0000285157Y0002146828D01*
X0000275892Y0002145085D01*
X0000267384Y0002139609D01*
X0000261675Y0002131255D01*
X0000259666Y0002121338D01*
X0000259666Y0002097716D01*
X0000261409Y0002088452D01*
X0000266886Y0002079943D01*
X0000266940Y0002079905D01*
X0000261675Y0002072200D01*
X0000259666Y0002062282D01*
X0000259666Y0002038660D01*
X0000261409Y0002029396D01*
X0000265078Y0002023696D01*
X0000265078Y0002022106D01*
X0000262108Y0002022106D01*
X0000260438Y0002030977D01*
X0000254964Y0002039485D01*
X0000246609Y0002045194D01*
X0000242982Y0002045928D01*
X0000243891Y0002048118D01*
X0000243904Y0002062762D01*
X0000238311Y0002076296D01*
X0000227965Y0002086660D01*
X0000214440Y0002092277D01*
X0000199796Y0002092289D01*
X0000186262Y0002086697D01*
X0000175897Y0002076350D01*
X0000170281Y0002062825D01*
X0000170269Y0002048182D01*
X0000172826Y0002041991D01*
X0000169707Y0002039982D01*
X0000163998Y0002031629D01*
X0000161990Y0002021712D01*
X0000161990Y0001962657D01*
X0000163733Y0001953393D01*
X0000169209Y0001944884D01*
X0000177563Y0001939175D01*
X0000187480Y0001937167D01*
X0000236692Y0001937167D01*
X0000245957Y0001938910D01*
X0000254466Y0001944386D01*
X0000260174Y0001952740D01*
X0000262102Y0001962263D01*
X0000266609Y0001962263D01*
X0000266886Y0001961832D01*
X0000275240Y0001956124D01*
X0000285157Y0001954116D01*
X0000304842Y0001954116D01*
X0000308906Y0001954881D01*
X0000309370Y0001954417D01*
X0000309370Y0001939885D01*
X0000308920Y0001939227D01*
X0000306911Y0001929310D01*
X0000306911Y0001915230D01*
X0000292543Y0001900862D01*
X0000286057Y0001891155D01*
X0000283779Y0001879704D01*
X0000283779Y0001876894D01*
X0000283329Y0001876235D01*
X0000281321Y0001866318D01*
X0000281321Y0001846633D01*
X0000283064Y0001837369D01*
X0000288539Y0001828860D01*
X0000296894Y0001823152D01*
X0000306811Y0001821144D01*
X0000320590Y0001821144D01*
X0000329855Y0001822887D01*
X0000338363Y0001828362D01*
X0000339226Y0001829626D01*
X0000339720Y0001828860D01*
X0000348075Y0001823152D01*
X0000357991Y0001821144D01*
X0000371771Y0001821144D01*
X0000376294Y0001821995D01*
X0000247192Y0001692893D01*
X0000232031Y0001692893D01*
X0000220580Y0001690616D01*
X0000213088Y0001685610D01*
X0000196220Y0001685610D01*
X0000184770Y0001683333D01*
X0000175063Y0001676846D01*
X0000137779Y0001639563D01*
X0000134097Y0001634052D01*
X0000129409Y0001634052D01*
X0000120144Y0001632309D01*
X0000111636Y0001626834D01*
X0000105927Y0001618478D01*
X0000103919Y0001608562D01*
X0000103919Y0001607811D01*
X0000098409Y0001604129D01*
X0000085929Y0001591649D01*
X0000080719Y0001583854D01*
X0000077072Y0001589311D01*
X0000064113Y0001597971D01*
X0000077072Y0001606630D01*
X0000089746Y0001625599D01*
X0000094196Y0001647972D01*
X0000089746Y0001670343D01*
X0000077072Y0001689313D01*
X0000064113Y0001697972D01*
X0000077072Y0001706631D01*
X0000089746Y0001725598D01*
X0000094196Y0001747972D01*
X0000089746Y0001770345D01*
X0000077072Y0001789312D01*
X0000058105Y0001801986D01*
X0000035731Y0001806437D01*
X0000033441Y0001806437D01*
X0000027952Y0001805345D01*
X0000027952Y0002452362D01*
X0000759447Y0002452362D01*
X0000759447Y0002385332D01*
G01*
D69*
D70*
X-0006692913Y0007480314D02*
X0000034586Y0003107814D03*
D71*
X0000034586Y0003007814D03*
X0000034586Y0002907814D03*
X0000034586Y0002807814D03*
D70*
X0000734586Y0003007814D03*
D71*
X0000734586Y0002907814D03*
X0000734586Y0002807814D03*
X0000734586Y0002707814D03*
D70*
X0000737086Y0002607813D03*
D71*
X0000637086Y0002607813D03*
X0000537086Y0002607813D03*
X0000437086Y0002607813D03*
X0000337086Y0002607813D03*
X0000237086Y0002607813D03*
D72*
X0000181299Y0003612814D03*
X0000082873Y0003612814D03*
D73*
X0000212086Y0003252027D03*
X0000212086Y0003153602D03*
D74*
X0000472086Y0003005314D03*
X0000522086Y0003005314D03*
X0000572086Y0003005314D03*
X0000184586Y0003507814D03*
X0000134586Y0003507814D03*
X0000084586Y0003507814D03*
D75*
X0000158937Y0002842814D03*
X0000265236Y0002842814D03*
X0000158937Y0002760313D03*
X0000265236Y0002760313D03*
D76*
X0000629921Y0003582677D03*
D77*
X0000525984Y0003503937D03*
X0000525984Y0003553937D03*
X0000525984Y0003603937D03*
X0000525984Y0003453937D03*
X0000525984Y0003403937D03*
X0000733858Y0003503937D03*
X0000733858Y0003553937D03*
X0000733858Y0003603937D03*
X0000733858Y0003453937D03*
X0000733858Y0003403937D03*
D78*
X0000290531Y0003535413D03*
X0000290531Y0003572814D03*
X0000290531Y0003610216D03*
X0000408641Y0003610216D03*
X0000408641Y0003572814D03*
X0000408641Y0003535413D03*
D79*
X0000294999Y0003369370D03*
X0000294999Y0003310314D03*
X0000294999Y0003251259D03*
X0000409173Y0003251259D03*
X0000409173Y0003310314D03*
X0000409173Y0003369370D03*
D80*
X0000352086Y0003371338D03*
D81*
X0000362086Y0002907814D03*
D82*
X0000440826Y0002907814D03*
X0000519566Y0002907814D03*
X0000598307Y0002907814D03*
D72*
X0000527873Y0003277814D03*
X0000626299Y0003277814D03*
D83*
X0000313700Y0003179311D03*
X0000339291Y0003179311D03*
X0000364881Y0003179311D03*
X0000390472Y0003179311D03*
X0000313700Y0003116318D03*
X0000339291Y0003116318D03*
X0000364881Y0003116318D03*
X0000390472Y0003116318D03*
D76*
X0000322086Y0002680314D03*
X0000207086Y0003315314D03*
X0000464585Y0003405314D03*
X0000084586Y0003452814D03*
X0000414585Y0003005314D03*
D84*
X0000034586Y0003107814D02*
X0000282440Y0003107814D01*
X0000282440Y0003107814D02*
X0000287086Y0003103169D01*
X0000304940Y0003085314D02*
X0000331495Y0003085314D01*
X0000331495Y0003085314D02*
X0000339291Y0003093109D01*
X0000287086Y0003149744D02*
X0000287086Y0003103169D01*
X0000287086Y0003103169D02*
X0000304940Y0003085314D01*
X0000313700Y0003179311D02*
X0000313700Y0003176358D01*
X0000313700Y0003176358D02*
X0000287086Y0003149744D01*
X0000347086Y0003085314D02*
X0000339291Y0003093109D01*
X0000339291Y0003093109D02*
X0000339291Y0003116318D01*
X0000379153Y0003085314D02*
X0000347086Y0003085314D01*
X0000390472Y0003116318D02*
X0000390472Y0003096633D01*
X0000390472Y0003096633D02*
X0000379153Y0003085314D01*
X0000184586Y0003507814D02*
X0000284586Y0003507814D01*
X0000290531Y0003513759D02*
X0000290531Y0003535413D01*
X0000284586Y0003507814D02*
X0000290531Y0003513759D01*
X0000408641Y0003610216D02*
X0000364487Y0003610216D01*
X0000359586Y0003418956D02*
X0000409173Y0003369370D01*
X0000359586Y0003605314D02*
X0000359586Y0003418956D01*
X0000364487Y0003610216D02*
X0000359586Y0003605314D01*
X0000409173Y0003371338D02*
X0000409173Y0003369370D01*
X0000457085Y0003527558D02*
X0000457085Y0003593267D01*
X0000457085Y0003593267D02*
X0000440137Y0003610216D01*
X0000440137Y0003610216D02*
X0000408641Y0003610216D01*
X0000525984Y0003503937D02*
X0000480708Y0003503937D01*
X0000480708Y0003503937D02*
X0000457085Y0003527558D01*
X0000410157Y0003100941D02*
X0000410157Y0003073385D01*
X0000259585Y0002922814D02*
X0000232031Y0002922814D01*
X0000410157Y0003073385D02*
X0000259585Y0002922814D01*
X0000224748Y0002915531D02*
X0000196220Y0002915531D01*
X0000232031Y0002922814D02*
X0000224748Y0002915531D01*
X0000158937Y0002878247D02*
X0000158937Y0002842814D01*
X0000196220Y0002915531D02*
X0000158937Y0002878247D01*
X0000410157Y0003136397D02*
X0000410157Y0003100941D01*
X0000407598Y0003138956D02*
X0000410157Y0003136397D01*
X0000385551Y0003138956D02*
X0000407598Y0003138956D01*
X0000364881Y0003179311D02*
X0000364881Y0003159625D01*
X0000364881Y0003159625D02*
X0000385551Y0003138956D01*
X0000364881Y0003179311D02*
X0000364881Y0003325078D01*
X0000364881Y0003325078D02*
X0000387519Y0003347716D01*
X0000387519Y0003347716D02*
X0000389488Y0003347716D01*
X0000389488Y0003347716D02*
X0000409173Y0003367401D01*
X0000409173Y0003367401D02*
X0000409173Y0003369370D01*
X0000107086Y0002830334D02*
X0000107086Y0002734015D01*
X0000107086Y0002734015D02*
X0000160787Y0002680314D01*
X0000160787Y0002680314D02*
X0000322086Y0002680314D01*
X0000158937Y0002842814D02*
X0000119566Y0002842814D01*
X0000119566Y0002842814D02*
X0000107086Y0002830334D01*
X0000408641Y0003535413D02*
X0000408641Y0003492814D01*
X0000525984Y0003453937D02*
X0000480708Y0003453937D01*
X0000408641Y0003492814D02*
X0000408641Y0003428759D01*
X0000480708Y0003453937D02*
X0000441830Y0003492814D01*
X0000441830Y0003492814D02*
X0000408641Y0003492814D01*
X0000429586Y0003090613D02*
X0000429586Y0003057814D01*
X0000269586Y0002897813D02*
X0000236787Y0002897813D01*
X0000429586Y0003057814D02*
X0000269586Y0002897813D01*
X0000212086Y0002873113D02*
X0000212086Y0002809527D01*
X0000236787Y0002897813D02*
X0000212086Y0002873113D01*
X0000212086Y0002809527D02*
X0000162874Y0002760313D01*
X0000162874Y0002760313D02*
X0000158937Y0002760313D01*
X0000429586Y0003156929D02*
X0000429586Y0003090613D01*
X0000390472Y0003179311D02*
X0000407204Y0003179311D01*
X0000407204Y0003179311D02*
X0000429586Y0003156929D01*
X0000390472Y0003179311D02*
X0000390472Y0003198996D01*
X0000390472Y0003198996D02*
X0000386535Y0003202933D01*
X0000386535Y0003202933D02*
X0000386535Y0003285708D01*
X0000386535Y0003285708D02*
X0000409173Y0003308346D01*
X0000409173Y0003308346D02*
X0000409173Y0003310314D01*
X0000437086Y0003310314D02*
X0000437086Y0003342814D01*
X0000409173Y0003310314D02*
X0000428858Y0003310314D01*
X0000428858Y0003310314D02*
X0000437086Y0003310314D01*
X0000437086Y0003400314D02*
X0000437086Y0003342814D01*
X0000437086Y0003342814D02*
X0000437086Y0003338228D01*
X0000403622Y0002641279D02*
X0000437086Y0002607813D01*
X0000339980Y0002704921D02*
X0000403622Y0002641279D01*
X0000218267Y0002704921D02*
X0000339980Y0002704921D01*
X0000162874Y0002760313D02*
X0000218267Y0002704921D01*
X0000408641Y0003428759D02*
X0000437086Y0003400314D01*
X0000572086Y0003005314D02*
X0000732085Y0003005314D01*
X0000732085Y0003005314D02*
X0000734586Y0003007814D01*
X0000212086Y0003252027D02*
X0000294232Y0003252027D01*
X0000294232Y0003252027D02*
X0000294999Y0003251259D01*
X0000207086Y0003315314D02*
X0000207086Y0003257027D01*
X0000207086Y0003257027D02*
X0000212086Y0003252027D01*
X0000294232Y0003252027D02*
X0000294999Y0003251259D01*
X0000313700Y0003116318D02*
X0000313700Y0003139547D01*
X0000313700Y0003139547D02*
X0000339291Y0003165137D01*
X0000339291Y0003165137D02*
X0000339291Y0003179311D01*
X0000339291Y0003179311D02*
X0000339291Y0003159625D01*
X0000339291Y0003159625D02*
X0000364881Y0003134034D01*
X0000364881Y0003134034D02*
X0000364881Y0003116318D01*
X0000294999Y0003251259D02*
X0000314685Y0003251259D01*
X0000314685Y0003251259D02*
X0000339291Y0003226653D01*
X0000339291Y0003226653D02*
X0000339291Y0003198996D01*
X0000339291Y0003198996D02*
X0000339291Y0003179311D01*
X0000527873Y0003277814D02*
X0000527873Y0003011102D01*
X0000527873Y0003011102D02*
X0000522086Y0003005314D01*
X0000525984Y0003403937D02*
X0000525984Y0003279704D01*
X0000525984Y0003279704D02*
X0000527873Y0003277814D01*
X0000537874Y0003021102D02*
X0000522086Y0003005314D01*
X0000525984Y0003289704D02*
X0000537874Y0003277814D01*
X0000464585Y0003405314D02*
X0000524606Y0003405314D01*
X0000524606Y0003405314D02*
X0000525984Y0003403937D01*
X0000522086Y0003400039D02*
X0000525984Y0003403937D01*
X0000378168Y0002960314D02*
X0000511928Y0002960314D01*
X0000511928Y0002960314D02*
X0000522086Y0002970472D01*
X0000522086Y0002970472D02*
X0000522086Y0003005314D01*
X0000362086Y0002907814D02*
X0000362086Y0002944232D01*
X0000362086Y0002944232D02*
X0000378168Y0002960314D01*
X0000265236Y0002842814D02*
X0000269173Y0002842814D01*
X0000269173Y0002842814D02*
X0000334173Y0002907814D01*
X0000334173Y0002907814D02*
X0000362086Y0002907814D01*
X0000265236Y0002760313D02*
X0000265236Y0002842814D01*
X0000506299Y0003403937D02*
X0000525984Y0003403937D01*
X0000084586Y0003452814D02*
X0000084586Y0003507814D01*
X0000545669Y0003403937D02*
X0000525984Y0003403937D01*
X0000525984Y0003009212D02*
X0000522086Y0003005314D01*
X0000084586Y0003507814D02*
X0000084586Y0003521023D01*
X0000084586Y0003521023D02*
X0000176377Y0003612814D01*
X0000176377Y0003612814D02*
X0000181299Y0003612814D01*
X0000181299Y0003612814D02*
X0000287933Y0003612814D01*
X0000287933Y0003612814D02*
X0000290531Y0003610216D01*
X0000294999Y0003251259D02*
X0000294999Y0003310314D01*
X0000294999Y0003249291D02*
X0000294999Y0003251259D01*
X0000472086Y0003005314D02*
X0000414585Y0003005314D01*
X0000134586Y0003507814D02*
X0000134586Y0003542657D01*
X0000134586Y0003542657D02*
X0000164743Y0003572814D01*
X0000164743Y0003572814D02*
X0000259035Y0003572814D01*
X0000259035Y0003572814D02*
X0000290531Y0003572814D01*
D85*
G36*
X0000684993Y0002974740D02*
X0000701425Y0002958280D01*
X0000722906Y0002949360D01*
X0000746164Y0002949340D01*
X0000759447Y0002954829D01*
X0000759447Y0002860931D01*
X0000758105Y0002861829D01*
X0000735731Y0002866279D01*
X0000733441Y0002866279D01*
X0000711067Y0002861829D01*
X0000692100Y0002849155D01*
X0000679426Y0002830188D01*
X0000674976Y0002807814D01*
X0000679426Y0002785441D01*
X0000692100Y0002766474D01*
X0000705060Y0002757814D01*
X0000692100Y0002749155D01*
X0000679426Y0002730188D01*
X0000674976Y0002707814D01*
X0000679426Y0002685440D01*
X0000692100Y0002666474D01*
X0000705036Y0002657830D01*
X0000704012Y0002657407D01*
X0000687551Y0002640975D01*
X0000686442Y0002638305D01*
X0000678427Y0002650301D01*
X0000659460Y0002662974D01*
X0000637086Y0002667424D01*
X0000614713Y0002662974D01*
X0000595745Y0002650301D01*
X0000587086Y0002637341D01*
X0000578427Y0002650301D01*
X0000559460Y0002662974D01*
X0000537086Y0002667424D01*
X0000514713Y0002662974D01*
X0000495745Y0002650301D01*
X0000487086Y0002637341D01*
X0000478427Y0002650301D01*
X0000459460Y0002662974D01*
X0000437086Y0002667424D01*
X0000422661Y0002664554D01*
X0000395215Y0002692000D01*
X0000400614Y0002691996D01*
X0000425728Y0002702372D01*
X0000444959Y0002721571D01*
X0000455381Y0002746668D01*
X0000455405Y0002773842D01*
X0000445028Y0002798957D01*
X0000425829Y0002818189D01*
X0000400733Y0002828609D01*
X0000373559Y0002828633D01*
X0000348444Y0002818256D01*
X0000329212Y0002799058D01*
X0000320253Y0002777481D01*
X0000320253Y0002785905D01*
X0000318510Y0002795169D01*
X0000314359Y0002801620D01*
X0000318245Y0002807307D01*
X0000320253Y0002817224D01*
X0000320253Y0002851580D01*
X0000326290Y0002857617D01*
X0000335511Y0002855750D01*
X0000388661Y0002855750D01*
X0000397925Y0002857493D01*
X0000406434Y0002862968D01*
X0000409239Y0002867073D01*
X0000421088Y0002859155D01*
X0000440826Y0002855229D01*
X0000460562Y0002859155D01*
X0000477295Y0002870334D01*
X0000480196Y0002874677D01*
X0000483098Y0002870334D01*
X0000499830Y0002859155D01*
X0000519566Y0002855229D01*
X0000539303Y0002859155D01*
X0000556035Y0002870334D01*
X0000567215Y0002887067D01*
X0000571141Y0002906804D01*
X0000571141Y0002908825D01*
X0000567215Y0002928562D01*
X0000556035Y0002945294D01*
X0000545335Y0002952444D01*
X0000547648Y0002955906D01*
X0000552992Y0002954825D01*
X0000591181Y0002954825D01*
X0000600445Y0002956568D01*
X0000608954Y0002962043D01*
X0000614662Y0002970398D01*
X0000615674Y0002975393D01*
X0000684724Y0002975393D01*
X0000684993Y0002974740D01*
X0000684993Y0002974740D01*
G37*
X0000684993Y0002974740D02*
X0000701425Y0002958280D01*
X0000722906Y0002949360D01*
X0000746164Y0002949340D01*
X0000759447Y0002954829D01*
X0000759447Y0002860931D01*
X0000758105Y0002861829D01*
X0000735731Y0002866279D01*
X0000733441Y0002866279D01*
X0000711067Y0002861829D01*
X0000692100Y0002849155D01*
X0000679426Y0002830188D01*
X0000674976Y0002807814D01*
X0000679426Y0002785441D01*
X0000692100Y0002766474D01*
X0000705060Y0002757814D01*
X0000692100Y0002749155D01*
X0000679426Y0002730188D01*
X0000674976Y0002707814D01*
X0000679426Y0002685440D01*
X0000692100Y0002666474D01*
X0000705036Y0002657830D01*
X0000704012Y0002657407D01*
X0000687551Y0002640975D01*
X0000686442Y0002638305D01*
X0000678427Y0002650301D01*
X0000659460Y0002662974D01*
X0000637086Y0002667424D01*
X0000614713Y0002662974D01*
X0000595745Y0002650301D01*
X0000587086Y0002637341D01*
X0000578427Y0002650301D01*
X0000559460Y0002662974D01*
X0000537086Y0002667424D01*
X0000514713Y0002662974D01*
X0000495745Y0002650301D01*
X0000487086Y0002637341D01*
X0000478427Y0002650301D01*
X0000459460Y0002662974D01*
X0000437086Y0002667424D01*
X0000422661Y0002664554D01*
X0000395215Y0002692000D01*
X0000400614Y0002691996D01*
X0000425728Y0002702372D01*
X0000444959Y0002721571D01*
X0000455381Y0002746668D01*
X0000455405Y0002773842D01*
X0000445028Y0002798957D01*
X0000425829Y0002818189D01*
X0000400733Y0002828609D01*
X0000373559Y0002828633D01*
X0000348444Y0002818256D01*
X0000329212Y0002799058D01*
X0000320253Y0002777481D01*
X0000320253Y0002785905D01*
X0000318510Y0002795169D01*
X0000314359Y0002801620D01*
X0000318245Y0002807307D01*
X0000320253Y0002817224D01*
X0000320253Y0002851580D01*
X0000326290Y0002857617D01*
X0000335511Y0002855750D01*
X0000388661Y0002855750D01*
X0000397925Y0002857493D01*
X0000406434Y0002862968D01*
X0000409239Y0002867073D01*
X0000421088Y0002859155D01*
X0000440826Y0002855229D01*
X0000460562Y0002859155D01*
X0000477295Y0002870334D01*
X0000480196Y0002874677D01*
X0000483098Y0002870334D01*
X0000499830Y0002859155D01*
X0000519566Y0002855229D01*
X0000539303Y0002859155D01*
X0000556035Y0002870334D01*
X0000567215Y0002887067D01*
X0000571141Y0002906804D01*
X0000571141Y0002908825D01*
X0000567215Y0002928562D01*
X0000556035Y0002945294D01*
X0000545335Y0002952444D01*
X0000547648Y0002955906D01*
X0000552992Y0002954825D01*
X0000591181Y0002954825D01*
X0000600445Y0002956568D01*
X0000608954Y0002962043D01*
X0000614662Y0002970398D01*
X0000615674Y0002975393D01*
X0000684724Y0002975393D01*
X0000684993Y0002974740D01*
G36*
X0000759447Y0003645174D02*
X0000698425Y0003645174D01*
X0000689160Y0003643431D01*
X0000680651Y0003637956D01*
X0000674943Y0003629601D01*
X0000672935Y0003619685D01*
X0000672935Y0003588188D01*
X0000674678Y0003578924D01*
X0000674775Y0003578773D01*
X0000672935Y0003569685D01*
X0000672935Y0003538188D01*
X0000674678Y0003528924D01*
X0000674775Y0003528773D01*
X0000672935Y0003519685D01*
X0000672935Y0003488188D01*
X0000674678Y0003478924D01*
X0000674775Y0003478773D01*
X0000672935Y0003469685D01*
X0000672935Y0003438188D01*
X0000674678Y0003428924D01*
X0000674775Y0003428773D01*
X0000672935Y0003419685D01*
X0000672935Y0003388188D01*
X0000674678Y0003378924D01*
X0000680153Y0003370415D01*
X0000688507Y0003364707D01*
X0000698425Y0003362699D01*
X0000759447Y0003362699D01*
X0000759447Y0003060795D01*
X0000746266Y0003066269D01*
X0000723008Y0003066289D01*
X0000701512Y0003057407D01*
X0000685051Y0003040975D01*
X0000682668Y0003035236D01*
X0000615744Y0003035236D01*
X0000614927Y0003039579D01*
X0000609452Y0003048088D01*
X0000601097Y0003053796D01*
X0000591181Y0003055804D01*
X0000557795Y0003055804D01*
X0000557795Y0003227792D01*
X0000566665Y0003229462D01*
X0000575174Y0003234937D01*
X0000580883Y0003243291D01*
X0000582891Y0003253208D01*
X0000582891Y0003302421D01*
X0000581148Y0003311685D01*
X0000575672Y0003320194D01*
X0000567318Y0003325902D01*
X0000557401Y0003327910D01*
X0000555905Y0003327910D01*
X0000555905Y0003362699D01*
X0000561417Y0003362699D01*
X0000570681Y0003364441D01*
X0000579190Y0003369916D01*
X0000584898Y0003378272D01*
X0000586907Y0003388188D01*
X0000586907Y0003419685D01*
X0000585163Y0003428949D01*
X0000585066Y0003429100D01*
X0000586907Y0003438188D01*
X0000586907Y0003469685D01*
X0000585163Y0003478949D01*
X0000585066Y0003479100D01*
X0000586907Y0003488188D01*
X0000586907Y0003519685D01*
X0000585163Y0003528949D01*
X0000579688Y0003537457D01*
X0000571334Y0003543166D01*
X0000561417Y0003545173D01*
X0000490551Y0003545173D01*
X0000487006Y0003544508D01*
X0000487006Y0003563416D01*
X0000490551Y0003562699D01*
X0000561417Y0003562699D01*
X0000570681Y0003564442D01*
X0000579190Y0003569917D01*
X0000582927Y0003575387D01*
X0000593103Y0003575387D01*
X0000598696Y0003561852D01*
X0000609042Y0003551488D01*
X0000622566Y0003545872D01*
X0000637211Y0003545859D01*
X0000650745Y0003551452D01*
X0000661109Y0003561798D01*
X0000666725Y0003575322D01*
X0000666738Y0003589967D01*
X0000661145Y0003603501D01*
X0000650800Y0003613865D01*
X0000637275Y0003619481D01*
X0000622631Y0003619494D01*
X0000609096Y0003613902D01*
X0000598732Y0003603556D01*
X0000593116Y0003590031D01*
X0000593103Y0003575387D01*
X0000582927Y0003575387D01*
X0000584898Y0003578272D01*
X0000586907Y0003588188D01*
X0000586907Y0003619685D01*
X0000585163Y0003628949D01*
X0000579688Y0003637458D01*
X0000571334Y0003643166D01*
X0000561417Y0003645174D01*
X0000490551Y0003645174D01*
X0000481286Y0003643431D01*
X0000472777Y0003637956D01*
X0000467069Y0003629601D01*
X0000466395Y0003626273D01*
X0000462496Y0003630172D01*
X0000461915Y0003633260D01*
X0000456440Y0003641769D01*
X0000448085Y0003647477D01*
X0000438169Y0003649485D01*
X0000379114Y0003649485D01*
X0000369849Y0003647742D01*
X0000361340Y0003642267D01*
X0000359161Y0003639078D01*
X0000353037Y0003637860D01*
X0000344067Y0003631866D01*
X0000343805Y0003633260D01*
X0000338330Y0003641769D01*
X0000329975Y0003647477D01*
X0000320059Y0003649485D01*
X0000261002Y0003649485D01*
X0000251739Y0003647742D01*
X0000243958Y0003642736D01*
X0000235316Y0003642736D01*
X0000234573Y0003646685D01*
X0000229097Y0003655194D01*
X0000220743Y0003660902D01*
X0000210826Y0003662911D01*
X0000151771Y0003662911D01*
X0000142507Y0003661167D01*
X0000133998Y0003655692D01*
X0000128288Y0003647338D01*
X0000126281Y0003637420D01*
X0000126281Y0003605033D01*
X0000079552Y0003558304D01*
X0000065490Y0003558304D01*
X0000056227Y0003556560D01*
X0000047718Y0003551086D01*
X0000042010Y0003542731D01*
X0000040001Y0003532813D01*
X0000040001Y0003482814D01*
X0000041745Y0003473550D01*
X0000047220Y0003465041D01*
X0000049233Y0003463666D01*
X0000047781Y0003460169D01*
X0000047769Y0003445524D01*
X0000053361Y0003431990D01*
X0000063707Y0003421626D01*
X0000077232Y0003416009D01*
X0000091876Y0003415997D01*
X0000105411Y0003421589D01*
X0000115775Y0003431935D01*
X0000121390Y0003445460D01*
X0000121401Y0003457325D01*
X0000153681Y0003457325D01*
X0000162945Y0003459068D01*
X0000171454Y0003464543D01*
X0000177162Y0003472897D01*
X0000179170Y0003482814D01*
X0000179170Y0003532813D01*
X0000177426Y0003542078D01*
X0000176995Y0003542751D01*
X0000177137Y0003542893D01*
X0000241682Y0003542893D01*
X0000242731Y0003541262D01*
X0000251087Y0003535553D01*
X0000261002Y0003533545D01*
X0000320059Y0003533545D01*
X0000329323Y0003535288D01*
X0000329665Y0003535508D01*
X0000329665Y0003418956D01*
X0000331942Y0003407506D01*
X0000338429Y0003397799D01*
X0000366956Y0003369270D01*
X0000366362Y0003368874D01*
X0000343724Y0003346236D01*
X0000337237Y0003336529D01*
X0000334960Y0003325078D01*
X0000334960Y0003273006D01*
X0000326134Y0003278902D01*
X0000324921Y0003279144D01*
X0000324921Y0003283606D01*
X0000328324Y0003288587D01*
X0000330332Y0003298503D01*
X0000330332Y0003322125D01*
X0000328588Y0003331389D01*
X0000323113Y0003339899D01*
X0000323059Y0003339936D01*
X0000328324Y0003347642D01*
X0000330332Y0003357559D01*
X0000330332Y0003381181D01*
X0000328588Y0003390444D01*
X0000323113Y0003398954D01*
X0000314759Y0003404662D01*
X0000304842Y0003406670D01*
X0000285157Y0003406670D01*
X0000275892Y0003404926D01*
X0000267384Y0003399452D01*
X0000261675Y0003391098D01*
X0000259666Y0003381181D01*
X0000259666Y0003357559D01*
X0000261409Y0003348293D01*
X0000266886Y0003339785D01*
X0000266940Y0003339748D01*
X0000261675Y0003332042D01*
X0000259666Y0003322125D01*
X0000259666Y0003298503D01*
X0000261409Y0003289238D01*
X0000265078Y0003283539D01*
X0000265078Y0003281948D01*
X0000262108Y0003281948D01*
X0000260438Y0003290819D01*
X0000254964Y0003299328D01*
X0000246609Y0003305036D01*
X0000242982Y0003305771D01*
X0000243891Y0003307960D01*
X0000243904Y0003322605D01*
X0000238311Y0003336139D01*
X0000227965Y0003346503D01*
X0000214440Y0003352119D01*
X0000199796Y0003352132D01*
X0000186262Y0003346540D01*
X0000175897Y0003336193D01*
X0000170281Y0003322669D01*
X0000170269Y0003308024D01*
X0000172826Y0003301834D01*
X0000169707Y0003299825D01*
X0000163998Y0003291472D01*
X0000161990Y0003281555D01*
X0000161990Y0003222500D01*
X0000163733Y0003213235D01*
X0000169209Y0003204726D01*
X0000177563Y0003199018D01*
X0000187480Y0003197010D01*
X0000236692Y0003197010D01*
X0000245957Y0003198753D01*
X0000254466Y0003204228D01*
X0000260174Y0003212583D01*
X0000262102Y0003222105D01*
X0000266609Y0003222105D01*
X0000266886Y0003221675D01*
X0000275240Y0003215967D01*
X0000285157Y0003213959D01*
X0000304842Y0003213959D01*
X0000308906Y0003214723D01*
X0000309370Y0003214258D01*
X0000309370Y0003199729D01*
X0000308920Y0003199070D01*
X0000306911Y0003189153D01*
X0000306911Y0003175073D01*
X0000292543Y0003160704D01*
X0000286057Y0003150997D01*
X0000283779Y0003139547D01*
X0000283779Y0003136737D01*
X0000283329Y0003136078D01*
X0000281321Y0003126161D01*
X0000281321Y0003106476D01*
X0000283064Y0003097211D01*
X0000288539Y0003088703D01*
X0000296894Y0003082994D01*
X0000306811Y0003080985D01*
X0000320590Y0003080985D01*
X0000329855Y0003082729D01*
X0000338363Y0003088205D01*
X0000339226Y0003089469D01*
X0000339720Y0003088703D01*
X0000348075Y0003082994D01*
X0000357991Y0003080985D01*
X0000371771Y0003080985D01*
X0000376294Y0003081837D01*
X0000247192Y0002952736D01*
X0000232031Y0002952736D01*
X0000220580Y0002950457D01*
X0000213088Y0002945453D01*
X0000196220Y0002945453D01*
X0000184770Y0002943174D01*
X0000175063Y0002936689D01*
X0000137779Y0002899405D01*
X0000134097Y0002893895D01*
X0000129409Y0002893895D01*
X0000120144Y0002892151D01*
X0000111636Y0002886676D01*
X0000105927Y0002878322D01*
X0000103919Y0002868404D01*
X0000103919Y0002867654D01*
X0000098409Y0002863972D01*
X0000085929Y0002851492D01*
X0000080719Y0002843695D01*
X0000077072Y0002849155D01*
X0000064113Y0002857814D01*
X0000077072Y0002866474D01*
X0000089746Y0002885441D01*
X0000094196Y0002907814D01*
X0000089746Y0002930188D01*
X0000077072Y0002949155D01*
X0000064113Y0002957813D01*
X0000077072Y0002966474D01*
X0000089746Y0002985441D01*
X0000094196Y0003007814D01*
X0000089746Y0003030187D01*
X0000077072Y0003049155D01*
X0000058105Y0003061829D01*
X0000035731Y0003066279D01*
X0000033441Y0003066279D01*
X0000027952Y0003065187D01*
X0000027952Y0003712204D01*
X0000759447Y0003712204D01*
X0000759447Y0003645174D01*
X0000759447Y0003645174D01*
G37*
X0000759447Y0003645174D02*
X0000698425Y0003645174D01*
X0000689160Y0003643431D01*
X0000680651Y0003637956D01*
X0000674943Y0003629601D01*
X0000672935Y0003619685D01*
X0000672935Y0003588188D01*
X0000674678Y0003578924D01*
X0000674775Y0003578773D01*
X0000672935Y0003569685D01*
X0000672935Y0003538188D01*
X0000674678Y0003528924D01*
X0000674775Y0003528773D01*
X0000672935Y0003519685D01*
X0000672935Y0003488188D01*
X0000674678Y0003478924D01*
X0000674775Y0003478773D01*
X0000672935Y0003469685D01*
X0000672935Y0003438188D01*
X0000674678Y0003428924D01*
X0000674775Y0003428773D01*
X0000672935Y0003419685D01*
X0000672935Y0003388188D01*
X0000674678Y0003378924D01*
X0000680153Y0003370415D01*
X0000688507Y0003364707D01*
X0000698425Y0003362699D01*
X0000759447Y0003362699D01*
X0000759447Y0003060795D01*
X0000746266Y0003066269D01*
X0000723008Y0003066289D01*
X0000701512Y0003057407D01*
X0000685051Y0003040975D01*
X0000682668Y0003035236D01*
X0000615744Y0003035236D01*
X0000614927Y0003039579D01*
X0000609452Y0003048088D01*
X0000601097Y0003053796D01*
X0000591181Y0003055804D01*
X0000557795Y0003055804D01*
X0000557795Y0003227792D01*
X0000566665Y0003229462D01*
X0000575174Y0003234937D01*
X0000580883Y0003243291D01*
X0000582891Y0003253208D01*
X0000582891Y0003302421D01*
X0000581148Y0003311685D01*
X0000575672Y0003320194D01*
X0000567318Y0003325902D01*
X0000557401Y0003327910D01*
X0000555905Y0003327910D01*
X0000555905Y0003362699D01*
X0000561417Y0003362699D01*
X0000570681Y0003364441D01*
X0000579190Y0003369916D01*
X0000584898Y0003378272D01*
X0000586907Y0003388188D01*
X0000586907Y0003419685D01*
X0000585163Y0003428949D01*
X0000585066Y0003429100D01*
X0000586907Y0003438188D01*
X0000586907Y0003469685D01*
X0000585163Y0003478949D01*
X0000585066Y0003479100D01*
X0000586907Y0003488188D01*
X0000586907Y0003519685D01*
X0000585163Y0003528949D01*
X0000579688Y0003537457D01*
X0000571334Y0003543166D01*
X0000561417Y0003545173D01*
X0000490551Y0003545173D01*
X0000487006Y0003544508D01*
X0000487006Y0003563416D01*
X0000490551Y0003562699D01*
X0000561417Y0003562699D01*
X0000570681Y0003564442D01*
X0000579190Y0003569917D01*
X0000582927Y0003575387D01*
X0000593103Y0003575387D01*
X0000598696Y0003561852D01*
X0000609042Y0003551488D01*
X0000622566Y0003545872D01*
X0000637211Y0003545859D01*
X0000650745Y0003551452D01*
X0000661109Y0003561798D01*
X0000666725Y0003575322D01*
X0000666738Y0003589967D01*
X0000661145Y0003603501D01*
X0000650800Y0003613865D01*
X0000637275Y0003619481D01*
X0000622631Y0003619494D01*
X0000609096Y0003613902D01*
X0000598732Y0003603556D01*
X0000593116Y0003590031D01*
X0000593103Y0003575387D01*
X0000582927Y0003575387D01*
X0000584898Y0003578272D01*
X0000586907Y0003588188D01*
X0000586907Y0003619685D01*
X0000585163Y0003628949D01*
X0000579688Y0003637458D01*
X0000571334Y0003643166D01*
X0000561417Y0003645174D01*
X0000490551Y0003645174D01*
X0000481286Y0003643431D01*
X0000472777Y0003637956D01*
X0000467069Y0003629601D01*
X0000466395Y0003626273D01*
X0000462496Y0003630172D01*
X0000461915Y0003633260D01*
X0000456440Y0003641769D01*
X0000448085Y0003647477D01*
X0000438169Y0003649485D01*
X0000379114Y0003649485D01*
X0000369849Y0003647742D01*
X0000361340Y0003642267D01*
X0000359161Y0003639078D01*
X0000353037Y0003637860D01*
X0000344067Y0003631866D01*
X0000343805Y0003633260D01*
X0000338330Y0003641769D01*
X0000329975Y0003647477D01*
X0000320059Y0003649485D01*
X0000261002Y0003649485D01*
X0000251739Y0003647742D01*
X0000243958Y0003642736D01*
X0000235316Y0003642736D01*
X0000234573Y0003646685D01*
X0000229097Y0003655194D01*
X0000220743Y0003660902D01*
X0000210826Y0003662911D01*
X0000151771Y0003662911D01*
X0000142507Y0003661167D01*
X0000133998Y0003655692D01*
X0000128288Y0003647338D01*
X0000126281Y0003637420D01*
X0000126281Y0003605033D01*
X0000079552Y0003558304D01*
X0000065490Y0003558304D01*
X0000056227Y0003556560D01*
X0000047718Y0003551086D01*
X0000042010Y0003542731D01*
X0000040001Y0003532813D01*
X0000040001Y0003482814D01*
X0000041745Y0003473550D01*
X0000047220Y0003465041D01*
X0000049233Y0003463666D01*
X0000047781Y0003460169D01*
X0000047769Y0003445524D01*
X0000053361Y0003431990D01*
X0000063707Y0003421626D01*
X0000077232Y0003416009D01*
X0000091876Y0003415997D01*
X0000105411Y0003421589D01*
X0000115775Y0003431935D01*
X0000121390Y0003445460D01*
X0000121401Y0003457325D01*
X0000153681Y0003457325D01*
X0000162945Y0003459068D01*
X0000171454Y0003464543D01*
X0000177162Y0003472897D01*
X0000179170Y0003482814D01*
X0000179170Y0003532813D01*
X0000177426Y0003542078D01*
X0000176995Y0003542751D01*
X0000177137Y0003542893D01*
X0000241682Y0003542893D01*
X0000242731Y0003541262D01*
X0000251087Y0003535553D01*
X0000261002Y0003533545D01*
X0000320059Y0003533545D01*
X0000329323Y0003535288D01*
X0000329665Y0003535508D01*
X0000329665Y0003418956D01*
X0000331942Y0003407506D01*
X0000338429Y0003397799D01*
X0000366956Y0003369270D01*
X0000366362Y0003368874D01*
X0000343724Y0003346236D01*
X0000337237Y0003336529D01*
X0000334960Y0003325078D01*
X0000334960Y0003273006D01*
X0000326134Y0003278902D01*
X0000324921Y0003279144D01*
X0000324921Y0003283606D01*
X0000328324Y0003288587D01*
X0000330332Y0003298503D01*
X0000330332Y0003322125D01*
X0000328588Y0003331389D01*
X0000323113Y0003339899D01*
X0000323059Y0003339936D01*
X0000328324Y0003347642D01*
X0000330332Y0003357559D01*
X0000330332Y0003381181D01*
X0000328588Y0003390444D01*
X0000323113Y0003398954D01*
X0000314759Y0003404662D01*
X0000304842Y0003406670D01*
X0000285157Y0003406670D01*
X0000275892Y0003404926D01*
X0000267384Y0003399452D01*
X0000261675Y0003391098D01*
X0000259666Y0003381181D01*
X0000259666Y0003357559D01*
X0000261409Y0003348293D01*
X0000266886Y0003339785D01*
X0000266940Y0003339748D01*
X0000261675Y0003332042D01*
X0000259666Y0003322125D01*
X0000259666Y0003298503D01*
X0000261409Y0003289238D01*
X0000265078Y0003283539D01*
X0000265078Y0003281948D01*
X0000262108Y0003281948D01*
X0000260438Y0003290819D01*
X0000254964Y0003299328D01*
X0000246609Y0003305036D01*
X0000242982Y0003305771D01*
X0000243891Y0003307960D01*
X0000243904Y0003322605D01*
X0000238311Y0003336139D01*
X0000227965Y0003346503D01*
X0000214440Y0003352119D01*
X0000199796Y0003352132D01*
X0000186262Y0003346540D01*
X0000175897Y0003336193D01*
X0000170281Y0003322669D01*
X0000170269Y0003308024D01*
X0000172826Y0003301834D01*
X0000169707Y0003299825D01*
X0000163998Y0003291472D01*
X0000161990Y0003281555D01*
X0000161990Y0003222500D01*
X0000163733Y0003213235D01*
X0000169209Y0003204726D01*
X0000177563Y0003199018D01*
X0000187480Y0003197010D01*
X0000236692Y0003197010D01*
X0000245957Y0003198753D01*
X0000254466Y0003204228D01*
X0000260174Y0003212583D01*
X0000262102Y0003222105D01*
X0000266609Y0003222105D01*
X0000266886Y0003221675D01*
X0000275240Y0003215967D01*
X0000285157Y0003213959D01*
X0000304842Y0003213959D01*
X0000308906Y0003214723D01*
X0000309370Y0003214258D01*
X0000309370Y0003199729D01*
X0000308920Y0003199070D01*
X0000306911Y0003189153D01*
X0000306911Y0003175073D01*
X0000292543Y0003160704D01*
X0000286057Y0003150997D01*
X0000283779Y0003139547D01*
X0000283779Y0003136737D01*
X0000283329Y0003136078D01*
X0000281321Y0003126161D01*
X0000281321Y0003106476D01*
X0000283064Y0003097211D01*
X0000288539Y0003088703D01*
X0000296894Y0003082994D01*
X0000306811Y0003080985D01*
X0000320590Y0003080985D01*
X0000329855Y0003082729D01*
X0000338363Y0003088205D01*
X0000339226Y0003089469D01*
X0000339720Y0003088703D01*
X0000348075Y0003082994D01*
X0000357991Y0003080985D01*
X0000371771Y0003080985D01*
X0000376294Y0003081837D01*
X0000247192Y0002952736D01*
X0000232031Y0002952736D01*
X0000220580Y0002950457D01*
X0000213088Y0002945453D01*
X0000196220Y0002945453D01*
X0000184770Y0002943174D01*
X0000175063Y0002936689D01*
X0000137779Y0002899405D01*
X0000134097Y0002893895D01*
X0000129409Y0002893895D01*
X0000120144Y0002892151D01*
X0000111636Y0002886676D01*
X0000105927Y0002878322D01*
X0000103919Y0002868404D01*
X0000103919Y0002867654D01*
X0000098409Y0002863972D01*
X0000085929Y0002851492D01*
X0000080719Y0002843695D01*
X0000077072Y0002849155D01*
X0000064113Y0002857814D01*
X0000077072Y0002866474D01*
X0000089746Y0002885441D01*
X0000094196Y0002907814D01*
X0000089746Y0002930188D01*
X0000077072Y0002949155D01*
X0000064113Y0002957813D01*
X0000077072Y0002966474D01*
X0000089746Y0002985441D01*
X0000094196Y0003007814D01*
X0000089746Y0003030187D01*
X0000077072Y0003049155D01*
X0000058105Y0003061829D01*
X0000035731Y0003066279D01*
X0000033441Y0003066279D01*
X0000027952Y0003065187D01*
X0000027952Y0003712204D01*
X0000759447Y0003712204D01*
X0000759447Y0003645174D01*
G04 next file*
%LPD*%
G01*
D96*
D97*
X-0005118110Y0005511811D02*
X0000731889Y0001161811D03*
X0000631889Y0001161811D03*
X0000731889Y0001061811D03*
X0000631889Y0001061811D03*
X0000031889Y0001161811D03*
X0000131889Y0001161811D03*
X0000231889Y0001161811D03*
X0000331889Y0001161811D03*
X0000431889Y0001161811D03*
X0000531889Y0001161811D03*
X0000031889Y0001061811D03*
X0000131889Y0001061811D03*
X0000231889Y0001061811D03*
X0000331889Y0001061811D03*
X0000431889Y0001061811D03*
X0000531889Y0001061811D03*
X0000031889Y0000961810D03*
X0000131889Y0000961810D03*
X0000231889Y0000961810D03*
X0000331889Y0000961810D03*
X0000431889Y0000961810D03*
X0000531889Y0000961810D03*
X0000631889Y0000961810D03*
X0000731889Y0000961810D03*
X0000031889Y0000861810D03*
X0000131889Y0000861810D03*
X0000231889Y0000861810D03*
X0000331889Y0000861810D03*
X0000431889Y0000861810D03*
X0000531889Y0000861810D03*
X0000631889Y0000861810D03*
X0000731889Y0000861810D03*
X0000031889Y0000761810D03*
X0000131889Y0000761810D03*
X0000231889Y0000761810D03*
X0000331889Y0000761810D03*
X0000431889Y0000761810D03*
X0000531889Y0000761810D03*
X0000631889Y0000761810D03*
X0000731889Y0000761810D03*
X0000031889Y0000661811D03*
X0000131889Y0000661811D03*
X0000231889Y0000661811D03*
X0000331889Y0000661811D03*
X0000431889Y0000661811D03*
X0000531889Y0000661811D03*
X0000631889Y0000661811D03*
X0000731889Y0000661811D03*
X0000031889Y0000561810D03*
X0000131889Y0000561810D03*
X0000231889Y0000561810D03*
X0000331889Y0000561810D03*
X0000431889Y0000561810D03*
X0000531889Y0000561810D03*
X0000631889Y0000561810D03*
X0000731889Y0000561810D03*
X0000031889Y0000461809D03*
X0000131889Y0000461809D03*
X0000231889Y0000461809D03*
X0000331889Y0000461809D03*
X0000431889Y0000461809D03*
X0000531889Y0000461809D03*
X0000631889Y0000461809D03*
X0000731889Y0000461809D03*
X0000031889Y0000361810D03*
X0000131889Y0000361810D03*
X0000231889Y0000361810D03*
X0000331889Y0000361810D03*
X0000431889Y0000361810D03*
X0000531889Y0000361810D03*
X0000631889Y0000361810D03*
X0000731889Y0000361810D03*
X0000031889Y0000261811D03*
X0000131889Y0000261811D03*
X0000231889Y0000261811D03*
X0000531889Y0000261811D03*
X0000631889Y0000261811D03*
X0000731889Y0000261811D03*
X0000231889Y0000161811D03*
X0000531889Y0000161811D03*
X0000631889Y0000161811D03*
X0000731889Y0000161811D03*
X0000231889Y0000061810D03*
X0000331889Y0000061810D03*
X0000431889Y0000061810D03*
X0000531889Y0000061810D03*
X0000631889Y0000061810D03*
X0000731889Y0000061810D03*
G01*
D108*
D109*
X-0002125984Y0008031496D02*
X0003724015Y0003681496D03*
X0003624014Y0003681496D03*
X0003724015Y0003581496D03*
X0003624014Y0003581496D03*
X0003024015Y0003681496D03*
X0003124015Y0003681496D03*
X0003224015Y0003681496D03*
X0003324015Y0003681496D03*
X0003424015Y0003681496D03*
X0003524015Y0003681496D03*
X0003024015Y0003581496D03*
X0003124015Y0003581496D03*
X0003224015Y0003581496D03*
X0003324015Y0003581496D03*
X0003424015Y0003581496D03*
X0003524015Y0003581496D03*
X0003024015Y0003481496D03*
X0003124015Y0003481496D03*
X0003224015Y0003481496D03*
X0003324015Y0003481496D03*
X0003424015Y0003481496D03*
X0003524015Y0003481496D03*
X0003624014Y0003481496D03*
X0003724015Y0003481496D03*
X0003024015Y0003381496D03*
X0003124015Y0003381496D03*
X0003224015Y0003381496D03*
X0003324015Y0003381496D03*
X0003424015Y0003381496D03*
X0003524015Y0003381496D03*
X0003624014Y0003381496D03*
X0003724015Y0003381496D03*
X0003024015Y0003281496D03*
X0003124015Y0003281496D03*
X0003224015Y0003281496D03*
X0003324015Y0003281496D03*
X0003424015Y0003281496D03*
X0003524015Y0003281496D03*
X0003624014Y0003281496D03*
X0003724015Y0003281496D03*
X0003024015Y0003181496D03*
X0003124015Y0003181496D03*
X0003224015Y0003181496D03*
X0003324015Y0003181496D03*
X0003424015Y0003181496D03*
X0003524015Y0003181496D03*
X0003624014Y0003181496D03*
X0003724015Y0003181496D03*
X0003024015Y0003081496D03*
X0003124015Y0003081496D03*
X0003224015Y0003081496D03*
X0003324015Y0003081496D03*
X0003424015Y0003081496D03*
X0003524015Y0003081496D03*
X0003624014Y0003081496D03*
X0003724015Y0003081496D03*
X0003024015Y0002981496D03*
X0003124015Y0002981496D03*
X0003224015Y0002981496D03*
X0003324015Y0002981496D03*
X0003424015Y0002981496D03*
X0003524015Y0002981496D03*
X0003624014Y0002981496D03*
X0003724015Y0002981496D03*
X0003024015Y0002881496D03*
X0003124015Y0002881496D03*
X0003224015Y0002881496D03*
X0003324015Y0002881496D03*
X0003424015Y0002881496D03*
X0003524015Y0002881496D03*
X0003624014Y0002881496D03*
X0003724015Y0002881496D03*
X0003024015Y0002781496D03*
X0003124015Y0002781496D03*
X0003224015Y0002781496D03*
X0003524015Y0002781496D03*
X0003624014Y0002781496D03*
X0003724015Y0002781496D03*
X0003224015Y0002681496D03*
X0003524015Y0002681496D03*
X0003624014Y0002681496D03*
X0003724015Y0002681496D03*
X0003224015Y0002581496D03*
X0003324015Y0002581496D03*
X0003424015Y0002581496D03*
X0003524015Y0002581496D03*
X0003624014Y0002581496D03*
X0003724015Y0002581496D03*
G04 next file*
G01*
D120*
D121*
X-0003700787Y0006181102D02*
X0003724212Y0002091101D03*
D122*
X0003724212Y0001991102D03*
D121*
X0003029212Y0002358102D03*
D122*
X0003129212Y0002358102D03*
X0003229212Y0002358102D03*
X0003329211Y0002358102D03*
X0003429212Y0002358102D03*
X0003529212Y0002358102D03*
X0003629212Y0002358102D03*
X0003729211Y0002358102D03*
D121*
X0003726712Y0001708602D03*
D122*
X0003726712Y0001608602D03*
X0003726712Y0001508602D03*
X0003726712Y0001408602D03*
D121*
X0003729211Y0001308602D03*
D122*
X0003629212Y0001308602D03*
X0003529212Y0001308602D03*
X0003429212Y0001308602D03*
X0003329211Y0001308602D03*
X0003229212Y0001308602D03*
D123*
X0003075211Y0001589393D03*
X0003075211Y0001950810D03*
X0003240212Y0001590393D03*
X0003240212Y0001951809D03*
X0003406212Y0001590393D03*
X0003406212Y0001951809D03*
X0003573211Y0001590393D03*
X0003573211Y0001951809D03*
D124*
X0003483173Y0001452102D03*
X0003603250Y0001452102D03*
D125*
X0003071212Y0002174062D03*
X0003071212Y0002044141D03*
D126*
X0003033810Y0002252102D03*
X0003108614Y0002252102D03*
D125*
X0003239212Y0002174062D03*
X0003239212Y0002044141D03*
X0003405212Y0002174062D03*
X0003405212Y0002044141D03*
X0003573211Y0002174062D03*
X0003573211Y0002044141D03*
D126*
X0003276614Y0002252102D03*
X0003201811Y0002252102D03*
X0003441614Y0002251102D03*
X0003366811Y0002251102D03*
X0003608614Y0002252102D03*
X0003533811Y0002252102D03*
D127*
X0003603250Y0001452102D03*
X0003668212Y0001802602D03*
X0003514711Y0001660602D03*
X0003063212Y0002070361D03*
X0003237212Y0002070361D03*
X0003405212Y0002068362D03*
X0003573211Y0002074602D03*
D128*
X0003573211Y0001590393D02*
X0003573211Y0001537637D01*
X0003573211Y0001537637D02*
X0003534354Y0001498779D01*
X0003534354Y0001498779D02*
X0003534354Y0001361070D01*
X0003534354Y0001361070D02*
X0003529212Y0001355928D01*
X0003529212Y0001355928D02*
X0003529212Y0001308602D01*
X0003344397Y0001569917D02*
X0003344397Y0001569787D01*
X0003295212Y0001442602D02*
X0003336712Y0001401102D01*
X0003295212Y0001520602D02*
X0003295212Y0001442602D01*
X0003344397Y0001569787D02*
X0003295212Y0001520602D01*
X0003406212Y0001590393D02*
X0003364874Y0001590393D01*
X0003364874Y0001590393D02*
X0003344397Y0001569917D01*
X0003336712Y0001401102D02*
X0003395748Y0001342066D01*
X0003395748Y0001342066D02*
X0003429212Y0001308602D01*
X0003240212Y0001590393D02*
X0003240212Y0001397602D01*
X0003240212Y0001397602D02*
X0003329211Y0001308602D01*
X0003075211Y0001589393D02*
X0003075211Y0001462600D01*
X0003075211Y0001462600D02*
X0003229212Y0001308602D01*
X0003668212Y0001802602D02*
X0003668212Y0002035102D01*
X0003668212Y0002035102D02*
X0003724212Y0002091101D01*
X0003668212Y0002035102D02*
X0003724212Y0002091101D01*
X0003629212Y0002358102D02*
X0003629212Y0002272700D01*
X0003629212Y0002272700D02*
X0003608614Y0002252102D01*
X0003429212Y0002358102D02*
X0003429212Y0002263503D01*
X0003429212Y0002263503D02*
X0003441614Y0002251102D01*
X0003229212Y0002358102D02*
X0003276614Y0002310700D01*
X0003276614Y0002310700D02*
X0003276614Y0002252102D01*
X0003029212Y0002358102D02*
X0003029212Y0002256700D01*
X0003029212Y0002256700D02*
X0003033810Y0002252102D01*
X0003483173Y0001452102D02*
X0003483173Y0001629062D01*
X0003483173Y0001629062D02*
X0003514711Y0001660602D01*
X0003514711Y0001660602D02*
X0003678712Y0001660602D01*
X0003678712Y0001660602D02*
X0003726712Y0001708602D01*
X0003724212Y0001706102D02*
X0003726712Y0001708602D01*
X0003071212Y0002044141D02*
X0003071212Y0002062361D01*
X0003071212Y0002062361D02*
X0003063212Y0002070361D01*
X0003129212Y0002358102D02*
X0003129212Y0002310776D01*
X0003129212Y0002310776D02*
X0003135189Y0002304799D01*
X0003135189Y0002304799D02*
X0003135189Y0002147488D01*
X0003135189Y0002147488D02*
X0003071212Y0002083511D01*
X0003071212Y0002083511D02*
X0003071212Y0002044141D01*
X0003108614Y0002252102D02*
X0003108614Y0002211464D01*
X0003108614Y0002211464D02*
X0003071212Y0002174062D01*
X0003239212Y0002044141D02*
X0003239212Y0002068362D01*
X0003239212Y0002068362D02*
X0003237212Y0002070361D01*
X0003329211Y0002358102D02*
X0003329211Y0002094771D01*
X0003329211Y0002094771D02*
X0003278582Y0002044141D01*
X0003278582Y0002044141D02*
X0003239212Y0002044141D01*
X0003201811Y0002252102D02*
X0003201811Y0002211464D01*
X0003201811Y0002211464D02*
X0003239212Y0002174062D01*
X0003405212Y0002044141D02*
X0003405212Y0002068362D01*
X0003529212Y0002358102D02*
X0003495748Y0002324637D01*
X0003495748Y0002324637D02*
X0003495748Y0002174047D01*
X0003495748Y0002174047D02*
X0003405212Y0002083511D01*
X0003405212Y0002083511D02*
X0003405212Y0002044141D01*
X0003366811Y0002251102D02*
X0003366811Y0002212464D01*
X0003366811Y0002212464D02*
X0003405212Y0002174062D01*
X0003573211Y0002083511D02*
X0003573211Y0002074602D01*
X0003573211Y0002044141D02*
X0003573211Y0002074602D01*
X0003729211Y0002358102D02*
X0003695748Y0002324637D01*
X0003695748Y0002324637D02*
X0003695748Y0002206047D01*
X0003695748Y0002206047D02*
X0003573211Y0002083511D01*
X0003533811Y0002252102D02*
X0003533811Y0002174094D01*
X0003533811Y0002174094D02*
X0003533842Y0002174062D01*
X0003533842Y0002174062D02*
X0003573211Y0002174062D01*
D129*
G36*
X0003751574Y0001561718D02*
X0003750230Y0001562616D01*
X0003727857Y0001567066D01*
X0003725567Y0001567066D01*
X0003703192Y0001562616D01*
X0003684226Y0001549942D01*
X0003671552Y0001530975D01*
X0003667102Y0001508602D01*
X0003671552Y0001486228D01*
X0003684226Y0001467261D01*
X0003697186Y0001458602D01*
X0003684226Y0001449943D01*
X0003671552Y0001430975D01*
X0003667102Y0001408602D01*
X0003671552Y0001386228D01*
X0003684226Y0001367261D01*
X0003697162Y0001358618D01*
X0003696138Y0001358195D01*
X0003679676Y0001341763D01*
X0003678567Y0001339092D01*
X0003670553Y0001351088D01*
X0003651584Y0001363761D01*
X0003629212Y0001368212D01*
X0003606839Y0001363761D01*
X0003587871Y0001351088D01*
X0003579212Y0001338128D01*
X0003570553Y0001351088D01*
X0003563259Y0001355962D01*
X0003564275Y0001361070D01*
X0003564275Y0001486385D01*
X0003594370Y0001516480D01*
X0003598051Y0001521990D01*
X0003604708Y0001521990D01*
X0003613973Y0001523733D01*
X0003622481Y0001529209D01*
X0003628190Y0001537563D01*
X0003630198Y0001547480D01*
X0003630198Y0001630681D01*
X0003678712Y0001630681D01*
X0003690162Y0001632958D01*
X0003699870Y0001639444D01*
X0003711881Y0001651456D01*
X0003715032Y0001650147D01*
X0003738290Y0001650125D01*
X0003751574Y0001655616D01*
X0003751574Y0001561718D01*
X0003751574Y0001561718D01*
G37*
X0003751574Y0001561718D02*
X0003750230Y0001562616D01*
X0003727857Y0001567066D01*
X0003725567Y0001567066D01*
X0003703192Y0001562616D01*
X0003684226Y0001549942D01*
X0003671552Y0001530975D01*
X0003667102Y0001508602D01*
X0003671552Y0001486228D01*
X0003684226Y0001467261D01*
X0003697186Y0001458602D01*
X0003684226Y0001449943D01*
X0003671552Y0001430975D01*
X0003667102Y0001408602D01*
X0003671552Y0001386228D01*
X0003684226Y0001367261D01*
X0003697162Y0001358618D01*
X0003696138Y0001358195D01*
X0003679676Y0001341763D01*
X0003678567Y0001339092D01*
X0003670553Y0001351088D01*
X0003651584Y0001363761D01*
X0003629212Y0001368212D01*
X0003606839Y0001363761D01*
X0003587871Y0001351088D01*
X0003579212Y0001338128D01*
X0003570553Y0001351088D01*
X0003563259Y0001355962D01*
X0003564275Y0001361070D01*
X0003564275Y0001486385D01*
X0003594370Y0001516480D01*
X0003598051Y0001521990D01*
X0003604708Y0001521990D01*
X0003613973Y0001523733D01*
X0003622481Y0001529209D01*
X0003628190Y0001537563D01*
X0003630198Y0001547480D01*
X0003630198Y0001630681D01*
X0003678712Y0001630681D01*
X0003690162Y0001632958D01*
X0003699870Y0001639444D01*
X0003711881Y0001651456D01*
X0003715032Y0001650147D01*
X0003738290Y0001650125D01*
X0003751574Y0001655616D01*
X0003751574Y0001561718D01*
G36*
X0003751574Y0002143045D02*
X0003735892Y0002149556D01*
X0003712634Y0002149577D01*
X0003691138Y0002140695D01*
X0003674677Y0002124263D01*
X0003665758Y0002102782D01*
X0003665737Y0002079524D01*
X0003667077Y0002076282D01*
X0003647055Y0002056258D01*
X0003640567Y0002046552D01*
X0003638291Y0002035102D01*
X0003638291Y0001824746D01*
X0003637023Y0001823480D01*
X0003631407Y0001809956D01*
X0003631395Y0001795312D01*
X0003636987Y0001781777D01*
X0003647333Y0001771413D01*
X0003660858Y0001765797D01*
X0003675502Y0001765784D01*
X0003689037Y0001771377D01*
X0003699401Y0001781723D01*
X0003705017Y0001795248D01*
X0003705030Y0001809892D01*
X0003699437Y0001823426D01*
X0003698133Y0001824732D01*
X0003698133Y0002022708D01*
X0003709381Y0002033955D01*
X0003712532Y0002032646D01*
X0003735790Y0002032627D01*
X0003751574Y0002039149D01*
X0003751574Y0001761583D01*
X0003738392Y0001767056D01*
X0003715134Y0001767077D01*
X0003693638Y0001758195D01*
X0003677177Y0001741763D01*
X0003668258Y0001720282D01*
X0003668237Y0001697023D01*
X0003669576Y0001693782D01*
X0003666317Y0001690523D01*
X0003536856Y0001690523D01*
X0003535591Y0001691791D01*
X0003522066Y0001697407D01*
X0003507422Y0001697419D01*
X0003493888Y0001691827D01*
X0003483523Y0001681481D01*
X0003477907Y0001667956D01*
X0003477906Y0001666111D01*
X0003462015Y0001650220D01*
X0003459222Y0001646040D01*
X0003455979Y0001651080D01*
X0003447625Y0001656787D01*
X0003437707Y0001658796D01*
X0003374716Y0001658796D01*
X0003365452Y0001657053D01*
X0003356943Y0001651578D01*
X0003351234Y0001643222D01*
X0003349226Y0001633307D01*
X0003349226Y0001615233D01*
X0003343716Y0001611551D01*
X0003323240Y0001591074D01*
X0003322978Y0001590682D01*
X0003297198Y0001564903D01*
X0003297198Y0001633307D01*
X0003295455Y0001642571D01*
X0003289979Y0001651080D01*
X0003281625Y0001656787D01*
X0003271708Y0001658796D01*
X0003208715Y0001658796D01*
X0003199452Y0001657053D01*
X0003190943Y0001651578D01*
X0003185235Y0001643222D01*
X0003183226Y0001633307D01*
X0003183226Y0001547480D01*
X0003184968Y0001538215D01*
X0003190445Y0001529707D01*
X0003198799Y0001523998D01*
X0003208715Y0001521990D01*
X0003210291Y0001521990D01*
X0003210291Y0001397602D01*
X0003212568Y0001386150D01*
X0003219054Y0001376444D01*
X0003227606Y0001367892D01*
X0003214787Y0001365342D01*
X0003105133Y0001474996D01*
X0003105133Y0001520989D01*
X0003106707Y0001520989D01*
X0003115972Y0001522733D01*
X0003124481Y0001528209D01*
X0003130190Y0001536563D01*
X0003132198Y0001546480D01*
X0003132198Y0001632307D01*
X0003130455Y0001641570D01*
X0003124979Y0001650080D01*
X0003116625Y0001655788D01*
X0003106707Y0001657796D01*
X0003043716Y0001657796D01*
X0003034452Y0001656053D01*
X0003025943Y0001650578D01*
X0003020234Y0001642224D01*
X0003020078Y0001641452D01*
X0003020078Y0002002023D01*
X0003023413Y0001996840D01*
X0003031768Y0001991130D01*
X0003041685Y0001989124D01*
X0003100740Y0001989124D01*
X0003110004Y0001990867D01*
X0003118513Y0001996342D01*
X0003124221Y0002004697D01*
X0003126229Y0002014614D01*
X0003126229Y0002073669D01*
X0003124486Y0002082933D01*
X0003119969Y0002089953D01*
X0003156345Y0002126330D01*
X0003162832Y0002136037D01*
X0003163759Y0002140695D01*
X0003165109Y0002147488D01*
X0003165109Y0002215964D01*
X0003169760Y0002208738D01*
X0003172852Y0002206625D01*
X0003174166Y0002200014D01*
X0003180653Y0002190307D01*
X0003184195Y0002186765D01*
X0003184195Y0002144535D01*
X0003185938Y0002135270D01*
X0003191413Y0002126762D01*
X0003199768Y0002121053D01*
X0003209685Y0002119045D01*
X0003268740Y0002119045D01*
X0003278004Y0002120788D01*
X0003286513Y0002126264D01*
X0003292221Y0002134618D01*
X0003294229Y0002144535D01*
X0003294229Y0002201743D01*
X0003299291Y0002202696D01*
X0003299291Y0002107165D01*
X0003284966Y0002092839D01*
X0003278656Y0002097150D01*
X0003268740Y0002099159D01*
X0003260479Y0002099159D01*
X0003258091Y0002101550D01*
X0003244566Y0002107166D01*
X0003229922Y0002107179D01*
X0003216388Y0002101587D01*
X0003213955Y0002099159D01*
X0003209685Y0002099159D01*
X0003200420Y0002097415D01*
X0003191911Y0002091940D01*
X0003186203Y0002083586D01*
X0003184195Y0002073669D01*
X0003184195Y0002014614D01*
X0003185938Y0002005348D01*
X0003191413Y0001996840D01*
X0003199768Y0001991130D01*
X0003209685Y0001989124D01*
X0003268740Y0001989124D01*
X0003278004Y0001990867D01*
X0003286513Y0001996342D01*
X0003292221Y0002004697D01*
X0003294229Y0002014614D01*
X0003294229Y0002019302D01*
X0003299740Y0002022984D01*
X0003350195Y0002073439D01*
X0003350195Y0002014614D01*
X0003351938Y0002005348D01*
X0003357413Y0001996840D01*
X0003365768Y0001991130D01*
X0003375685Y0001989124D01*
X0003434740Y0001989124D01*
X0003444004Y0001990867D01*
X0003452512Y0001996342D01*
X0003458221Y0002004697D01*
X0003460228Y0002014614D01*
X0003460228Y0002073669D01*
X0003458486Y0002082933D01*
X0003453969Y0002089953D01*
X0003515224Y0002151208D01*
X0003518195Y0002149223D01*
X0003518195Y0002144535D01*
X0003519938Y0002135270D01*
X0003525413Y0002126762D01*
X0003533768Y0002121053D01*
X0003543685Y0002119045D01*
X0003566431Y0002119045D01*
X0003553794Y0002106408D01*
X0003552388Y0002105827D01*
X0003545707Y0002099159D01*
X0003543685Y0002099159D01*
X0003534420Y0002097415D01*
X0003525911Y0002091940D01*
X0003520203Y0002083586D01*
X0003518195Y0002073669D01*
X0003518195Y0002014614D01*
X0003519938Y0002005348D01*
X0003525413Y0001996840D01*
X0003533768Y0001991130D01*
X0003543685Y0001989124D01*
X0003602740Y0001989124D01*
X0003612004Y0001990867D01*
X0003620513Y0001996342D01*
X0003626221Y0002004697D01*
X0003628228Y0002014614D01*
X0003628228Y0002073669D01*
X0003626486Y0002082933D01*
X0003621969Y0002089953D01*
X0003716905Y0002184889D01*
X0003723391Y0002194596D01*
X0003725669Y0002206047D01*
X0003725669Y0002299197D01*
X0003729211Y0002298492D01*
X0003751574Y0002302940D01*
X0003751574Y0002143045D01*
X0003751574Y0002143045D01*
G37*
X0003751574Y0002143045D02*
X0003735892Y0002149556D01*
X0003712634Y0002149577D01*
X0003691138Y0002140695D01*
X0003674677Y0002124263D01*
X0003665758Y0002102782D01*
X0003665737Y0002079524D01*
X0003667077Y0002076282D01*
X0003647055Y0002056258D01*
X0003640567Y0002046552D01*
X0003638291Y0002035102D01*
X0003638291Y0001824746D01*
X0003637023Y0001823480D01*
X0003631407Y0001809956D01*
X0003631395Y0001795312D01*
X0003636987Y0001781777D01*
X0003647333Y0001771413D01*
X0003660858Y0001765797D01*
X0003675502Y0001765784D01*
X0003689037Y0001771377D01*
X0003699401Y0001781723D01*
X0003705017Y0001795248D01*
X0003705030Y0001809892D01*
X0003699437Y0001823426D01*
X0003698133Y0001824732D01*
X0003698133Y0002022708D01*
X0003709381Y0002033955D01*
X0003712532Y0002032646D01*
X0003735790Y0002032627D01*
X0003751574Y0002039149D01*
X0003751574Y0001761583D01*
X0003738392Y0001767056D01*
X0003715134Y0001767077D01*
X0003693638Y0001758195D01*
X0003677177Y0001741763D01*
X0003668258Y0001720282D01*
X0003668237Y0001697023D01*
X0003669576Y0001693782D01*
X0003666317Y0001690523D01*
X0003536856Y0001690523D01*
X0003535591Y0001691791D01*
X0003522066Y0001697407D01*
X0003507422Y0001697419D01*
X0003493888Y0001691827D01*
X0003483523Y0001681481D01*
X0003477907Y0001667956D01*
X0003477906Y0001666111D01*
X0003462015Y0001650220D01*
X0003459222Y0001646040D01*
X0003455979Y0001651080D01*
X0003447625Y0001656787D01*
X0003437707Y0001658796D01*
X0003374716Y0001658796D01*
X0003365452Y0001657053D01*
X0003356943Y0001651578D01*
X0003351234Y0001643222D01*
X0003349226Y0001633307D01*
X0003349226Y0001615233D01*
X0003343716Y0001611551D01*
X0003323240Y0001591074D01*
X0003322978Y0001590682D01*
X0003297198Y0001564903D01*
X0003297198Y0001633307D01*
X0003295455Y0001642571D01*
X0003289979Y0001651080D01*
X0003281625Y0001656787D01*
X0003271708Y0001658796D01*
X0003208715Y0001658796D01*
X0003199452Y0001657053D01*
X0003190943Y0001651578D01*
X0003185235Y0001643222D01*
X0003183226Y0001633307D01*
X0003183226Y0001547480D01*
X0003184968Y0001538215D01*
X0003190445Y0001529707D01*
X0003198799Y0001523998D01*
X0003208715Y0001521990D01*
X0003210291Y0001521990D01*
X0003210291Y0001397602D01*
X0003212568Y0001386150D01*
X0003219054Y0001376444D01*
X0003227606Y0001367892D01*
X0003214787Y0001365342D01*
X0003105133Y0001474996D01*
X0003105133Y0001520989D01*
X0003106707Y0001520989D01*
X0003115972Y0001522733D01*
X0003124481Y0001528209D01*
X0003130190Y0001536563D01*
X0003132198Y0001546480D01*
X0003132198Y0001632307D01*
X0003130455Y0001641570D01*
X0003124979Y0001650080D01*
X0003116625Y0001655788D01*
X0003106707Y0001657796D01*
X0003043716Y0001657796D01*
X0003034452Y0001656053D01*
X0003025943Y0001650578D01*
X0003020234Y0001642224D01*
X0003020078Y0001641452D01*
X0003020078Y0002002023D01*
X0003023413Y0001996840D01*
X0003031768Y0001991130D01*
X0003041685Y0001989124D01*
X0003100740Y0001989124D01*
X0003110004Y0001990867D01*
X0003118513Y0001996342D01*
X0003124221Y0002004697D01*
X0003126229Y0002014614D01*
X0003126229Y0002073669D01*
X0003124486Y0002082933D01*
X0003119969Y0002089953D01*
X0003156345Y0002126330D01*
X0003162832Y0002136037D01*
X0003163759Y0002140695D01*
X0003165109Y0002147488D01*
X0003165109Y0002215964D01*
X0003169760Y0002208738D01*
X0003172852Y0002206625D01*
X0003174166Y0002200014D01*
X0003180653Y0002190307D01*
X0003184195Y0002186765D01*
X0003184195Y0002144535D01*
X0003185938Y0002135270D01*
X0003191413Y0002126762D01*
X0003199768Y0002121053D01*
X0003209685Y0002119045D01*
X0003268740Y0002119045D01*
X0003278004Y0002120788D01*
X0003286513Y0002126264D01*
X0003292221Y0002134618D01*
X0003294229Y0002144535D01*
X0003294229Y0002201743D01*
X0003299291Y0002202696D01*
X0003299291Y0002107165D01*
X0003284966Y0002092839D01*
X0003278656Y0002097150D01*
X0003268740Y0002099159D01*
X0003260479Y0002099159D01*
X0003258091Y0002101550D01*
X0003244566Y0002107166D01*
X0003229922Y0002107179D01*
X0003216388Y0002101587D01*
X0003213955Y0002099159D01*
X0003209685Y0002099159D01*
X0003200420Y0002097415D01*
X0003191911Y0002091940D01*
X0003186203Y0002083586D01*
X0003184195Y0002073669D01*
X0003184195Y0002014614D01*
X0003185938Y0002005348D01*
X0003191413Y0001996840D01*
X0003199768Y0001991130D01*
X0003209685Y0001989124D01*
X0003268740Y0001989124D01*
X0003278004Y0001990867D01*
X0003286513Y0001996342D01*
X0003292221Y0002004697D01*
X0003294229Y0002014614D01*
X0003294229Y0002019302D01*
X0003299740Y0002022984D01*
X0003350195Y0002073439D01*
X0003350195Y0002014614D01*
X0003351938Y0002005348D01*
X0003357413Y0001996840D01*
X0003365768Y0001991130D01*
X0003375685Y0001989124D01*
X0003434740Y0001989124D01*
X0003444004Y0001990867D01*
X0003452512Y0001996342D01*
X0003458221Y0002004697D01*
X0003460228Y0002014614D01*
X0003460228Y0002073669D01*
X0003458486Y0002082933D01*
X0003453969Y0002089953D01*
X0003515224Y0002151208D01*
X0003518195Y0002149223D01*
X0003518195Y0002144535D01*
X0003519938Y0002135270D01*
X0003525413Y0002126762D01*
X0003533768Y0002121053D01*
X0003543685Y0002119045D01*
X0003566431Y0002119045D01*
X0003553794Y0002106408D01*
X0003552388Y0002105827D01*
X0003545707Y0002099159D01*
X0003543685Y0002099159D01*
X0003534420Y0002097415D01*
X0003525911Y0002091940D01*
X0003520203Y0002083586D01*
X0003518195Y0002073669D01*
X0003518195Y0002014614D01*
X0003519938Y0002005348D01*
X0003525413Y0001996840D01*
X0003533768Y0001991130D01*
X0003543685Y0001989124D01*
X0003602740Y0001989124D01*
X0003612004Y0001990867D01*
X0003620513Y0001996342D01*
X0003626221Y0002004697D01*
X0003628228Y0002014614D01*
X0003628228Y0002073669D01*
X0003626486Y0002082933D01*
X0003621969Y0002089953D01*
X0003716905Y0002184889D01*
X0003723391Y0002194596D01*
X0003725669Y0002206047D01*
X0003725669Y0002299197D01*
X0003729211Y0002298492D01*
X0003751574Y0002302940D01*
X0003751574Y0002143045D01*
G04 next file*
G04 #@! TF.FileFunction,Copper,L1,Top,Signal*
G04 Gerber Fmt 4.6, Leading zero omitted, Abs format (unit mm)*
G04 Created by KiCad (PCBNEW 4.0.2-stable) date 08.08.2017 13:07:48*
G01*
G04 APERTURE LIST*
G04 APERTURE END LIST*
D140*
D141*
X-0003700787Y0004921259D02*
X0003724212Y0000831259D03*
D142*
X0003724212Y0000731259D03*
D141*
X0003029212Y0001098259D03*
D142*
X0003129212Y0001098259D03*
X0003229212Y0001098259D03*
X0003329211Y0001098259D03*
X0003429212Y0001098259D03*
X0003529212Y0001098259D03*
X0003629212Y0001098259D03*
X0003729211Y0001098259D03*
D141*
X0003726712Y0000448759D03*
D142*
X0003726712Y0000348759D03*
X0003726712Y0000248759D03*
X0003726712Y0000148759D03*
D141*
X0003729211Y0000048759D03*
D142*
X0003629212Y0000048759D03*
X0003529212Y0000048759D03*
X0003429212Y0000048759D03*
X0003329211Y0000048759D03*
X0003229212Y0000048759D03*
D143*
X0003075211Y0000329551D03*
X0003075211Y0000690968D03*
X0003240212Y0000330551D03*
X0003240212Y0000691968D03*
X0003406212Y0000330551D03*
X0003406212Y0000691968D03*
X0003573211Y0000330551D03*
X0003573211Y0000691968D03*
D144*
X0003483173Y0000192259D03*
X0003603250Y0000192259D03*
D145*
X0003071212Y0000914219D03*
X0003071212Y0000784299D03*
D146*
X0003033810Y0000992258D03*
X0003108614Y0000992258D03*
D145*
X0003239212Y0000914219D03*
X0003239212Y0000784299D03*
X0003405212Y0000914219D03*
X0003405212Y0000784299D03*
X0003573211Y0000914219D03*
X0003573211Y0000784299D03*
D146*
X0003276614Y0000992258D03*
X0003201811Y0000992258D03*
X0003441614Y0000991259D03*
X0003366811Y0000991259D03*
X0003608614Y0000992258D03*
X0003533811Y0000992258D03*
D147*
X0003603250Y0000192259D03*
X0003668212Y0000542759D03*
X0003514711Y0000400759D03*
X0003063212Y0000810519D03*
X0003237212Y0000810519D03*
X0003405212Y0000808519D03*
X0003573211Y0000814759D03*
D148*
X0003573211Y0000330551D02*
X0003573211Y0000277795D01*
X0003573211Y0000277795D02*
X0003534354Y0000238937D01*
X0003534354Y0000238937D02*
X0003534354Y0000101227D01*
X0003534354Y0000101227D02*
X0003529212Y0000096085D01*
X0003529212Y0000096085D02*
X0003529212Y0000048759D01*
X0003344397Y0000310074D02*
X0003344397Y0000309944D01*
X0003295212Y0000182759D02*
X0003336712Y0000141259D01*
X0003295212Y0000260759D02*
X0003295212Y0000182759D01*
X0003344397Y0000309944D02*
X0003295212Y0000260759D01*
X0003406212Y0000330551D02*
X0003364874Y0000330551D01*
X0003364874Y0000330551D02*
X0003344397Y0000310074D01*
X0003336712Y0000141259D02*
X0003395748Y0000082224D01*
X0003395748Y0000082224D02*
X0003429212Y0000048759D01*
X0003240212Y0000330551D02*
X0003240212Y0000137759D01*
X0003240212Y0000137759D02*
X0003329211Y0000048759D01*
X0003075211Y0000329551D02*
X0003075211Y0000202759D01*
X0003075211Y0000202759D02*
X0003229212Y0000048759D01*
X0003668212Y0000542759D02*
X0003668212Y0000775259D01*
X0003668212Y0000775259D02*
X0003724212Y0000831259D01*
X0003668212Y0000775259D02*
X0003724212Y0000831259D01*
X0003629212Y0001098259D02*
X0003629212Y0001012858D01*
X0003629212Y0001012858D02*
X0003608614Y0000992258D01*
X0003429212Y0001098259D02*
X0003429212Y0001003660D01*
X0003429212Y0001003660D02*
X0003441614Y0000991259D01*
X0003229212Y0001098259D02*
X0003276614Y0001050858D01*
X0003276614Y0001050858D02*
X0003276614Y0000992258D01*
X0003029212Y0001098259D02*
X0003029212Y0000996858D01*
X0003029212Y0000996858D02*
X0003033810Y0000992258D01*
X0003483173Y0000192259D02*
X0003483173Y0000369220D01*
X0003483173Y0000369220D02*
X0003514711Y0000400759D01*
X0003514711Y0000400759D02*
X0003678712Y0000400759D01*
X0003678712Y0000400759D02*
X0003726712Y0000448759D01*
X0003724212Y0000446259D02*
X0003726712Y0000448759D01*
X0003071212Y0000784299D02*
X0003071212Y0000802519D01*
X0003071212Y0000802519D02*
X0003063212Y0000810519D01*
X0003129212Y0001098259D02*
X0003129212Y0001050933D01*
X0003129212Y0001050933D02*
X0003135189Y0001044956D01*
X0003135189Y0001044956D02*
X0003135189Y0000887645D01*
X0003135189Y0000887645D02*
X0003071212Y0000823669D01*
X0003071212Y0000823669D02*
X0003071212Y0000784299D01*
X0003108614Y0000992258D02*
X0003108614Y0000951622D01*
X0003108614Y0000951622D02*
X0003071212Y0000914219D01*
X0003239212Y0000784299D02*
X0003239212Y0000808519D01*
X0003239212Y0000808519D02*
X0003237212Y0000810519D01*
X0003329211Y0001098259D02*
X0003329211Y0000834929D01*
X0003329211Y0000834929D02*
X0003278582Y0000784299D01*
X0003278582Y0000784299D02*
X0003239212Y0000784299D01*
X0003201811Y0000992258D02*
X0003201811Y0000951622D01*
X0003201811Y0000951622D02*
X0003239212Y0000914219D01*
X0003405212Y0000784299D02*
X0003405212Y0000808519D01*
X0003529212Y0001098259D02*
X0003495748Y0001064795D01*
X0003495748Y0001064795D02*
X0003495748Y0000914204D01*
X0003495748Y0000914204D02*
X0003405212Y0000823669D01*
X0003405212Y0000823669D02*
X0003405212Y0000784299D01*
X0003366811Y0000991259D02*
X0003366811Y0000952622D01*
X0003366811Y0000952622D02*
X0003405212Y0000914219D01*
X0003573211Y0000823669D02*
X0003573211Y0000814759D01*
X0003573211Y0000784299D02*
X0003573211Y0000814759D01*
X0003729211Y0001098259D02*
X0003695748Y0001064795D01*
X0003695748Y0001064795D02*
X0003695748Y0000946204D01*
X0003695748Y0000946204D02*
X0003573211Y0000823669D01*
X0003533811Y0000992258D02*
X0003533811Y0000914250D01*
X0003533811Y0000914250D02*
X0003533842Y0000914219D01*
X0003533842Y0000914219D02*
X0003573211Y0000914219D01*
D149*
G36*
X0003751574Y0000301876D02*
X0003750230Y0000302774D01*
X0003727857Y0000307224D01*
X0003725567Y0000307224D01*
X0003703192Y0000302774D01*
X0003684226Y0000290100D01*
X0003671552Y0000271133D01*
X0003667102Y0000248759D01*
X0003671552Y0000226386D01*
X0003684226Y0000207419D01*
X0003697186Y0000198759D01*
X0003684226Y0000190100D01*
X0003671552Y0000171133D01*
X0003667102Y0000148759D01*
X0003671552Y0000126386D01*
X0003684226Y0000107419D01*
X0003697162Y0000098775D01*
X0003696138Y0000098352D01*
X0003679676Y0000081920D01*
X0003678567Y0000079250D01*
X0003670553Y0000091245D01*
X0003651584Y0000103919D01*
X0003629212Y0000108369D01*
X0003606839Y0000103919D01*
X0003587871Y0000091245D01*
X0003579212Y0000078286D01*
X0003570553Y0000091245D01*
X0003563259Y0000096119D01*
X0003564275Y0000101227D01*
X0003564275Y0000226543D01*
X0003594370Y0000256637D01*
X0003598051Y0000262147D01*
X0003604708Y0000262147D01*
X0003613973Y0000263891D01*
X0003622481Y0000269366D01*
X0003628190Y0000277720D01*
X0003630198Y0000287637D01*
X0003630198Y0000370838D01*
X0003678712Y0000370838D01*
X0003690162Y0000373115D01*
X0003699870Y0000379602D01*
X0003711881Y0000391613D01*
X0003715032Y0000390304D01*
X0003738290Y0000390285D01*
X0003751574Y0000395773D01*
X0003751574Y0000301876D01*
X0003751574Y0000301876D01*
G37*
X0003751574Y0000301876D02*
X0003750230Y0000302774D01*
X0003727857Y0000307224D01*
X0003725567Y0000307224D01*
X0003703192Y0000302774D01*
X0003684226Y0000290100D01*
X0003671552Y0000271133D01*
X0003667102Y0000248759D01*
X0003671552Y0000226386D01*
X0003684226Y0000207419D01*
X0003697186Y0000198759D01*
X0003684226Y0000190100D01*
X0003671552Y0000171133D01*
X0003667102Y0000148759D01*
X0003671552Y0000126386D01*
X0003684226Y0000107419D01*
X0003697162Y0000098775D01*
X0003696138Y0000098352D01*
X0003679676Y0000081920D01*
X0003678567Y0000079250D01*
X0003670553Y0000091245D01*
X0003651584Y0000103919D01*
X0003629212Y0000108369D01*
X0003606839Y0000103919D01*
X0003587871Y0000091245D01*
X0003579212Y0000078286D01*
X0003570553Y0000091245D01*
X0003563259Y0000096119D01*
X0003564275Y0000101227D01*
X0003564275Y0000226543D01*
X0003594370Y0000256637D01*
X0003598051Y0000262147D01*
X0003604708Y0000262147D01*
X0003613973Y0000263891D01*
X0003622481Y0000269366D01*
X0003628190Y0000277720D01*
X0003630198Y0000287637D01*
X0003630198Y0000370838D01*
X0003678712Y0000370838D01*
X0003690162Y0000373115D01*
X0003699870Y0000379602D01*
X0003711881Y0000391613D01*
X0003715032Y0000390304D01*
X0003738290Y0000390285D01*
X0003751574Y0000395773D01*
X0003751574Y0000301876D01*
G36*
X0003751574Y0000883202D02*
X0003735892Y0000889714D01*
X0003712634Y0000889733D01*
X0003691138Y0000880852D01*
X0003674677Y0000864420D01*
X0003665758Y0000842940D01*
X0003665737Y0000819681D01*
X0003667077Y0000816439D01*
X0003647055Y0000796417D01*
X0003640567Y0000786709D01*
X0003638291Y0000775259D01*
X0003638291Y0000564904D01*
X0003637023Y0000563638D01*
X0003631407Y0000550114D01*
X0003631395Y0000535469D01*
X0003636987Y0000521935D01*
X0003647333Y0000511571D01*
X0003660858Y0000505955D01*
X0003675502Y0000505942D01*
X0003689037Y0000511534D01*
X0003699401Y0000521880D01*
X0003705017Y0000535405D01*
X0003705030Y0000550049D01*
X0003699437Y0000563584D01*
X0003698133Y0000564890D01*
X0003698133Y0000762866D01*
X0003709381Y0000774113D01*
X0003712532Y0000772805D01*
X0003735790Y0000772785D01*
X0003751574Y0000779306D01*
X0003751574Y0000501739D01*
X0003738392Y0000507214D01*
X0003715134Y0000507233D01*
X0003693638Y0000498352D01*
X0003677177Y0000481920D01*
X0003668258Y0000460440D01*
X0003668237Y0000437181D01*
X0003669576Y0000433939D01*
X0003666317Y0000430681D01*
X0003536856Y0000430681D01*
X0003535591Y0000431948D01*
X0003522066Y0000437564D01*
X0003507422Y0000437577D01*
X0003493888Y0000431984D01*
X0003483523Y0000421638D01*
X0003477907Y0000408114D01*
X0003477906Y0000406268D01*
X0003462015Y0000390377D01*
X0003459222Y0000386198D01*
X0003455979Y0000391237D01*
X0003447625Y0000396946D01*
X0003437707Y0000398953D01*
X0003374716Y0000398953D01*
X0003365452Y0000397211D01*
X0003356943Y0000391735D01*
X0003351234Y0000383381D01*
X0003349226Y0000373464D01*
X0003349226Y0000355390D01*
X0003343716Y0000351708D01*
X0003323240Y0000331232D01*
X0003322978Y0000330840D01*
X0003297198Y0000305060D01*
X0003297198Y0000373464D01*
X0003295455Y0000382729D01*
X0003289979Y0000391237D01*
X0003281625Y0000396946D01*
X0003271708Y0000398953D01*
X0003208715Y0000398953D01*
X0003199452Y0000397211D01*
X0003190943Y0000391735D01*
X0003185235Y0000383381D01*
X0003183226Y0000373464D01*
X0003183226Y0000287637D01*
X0003184968Y0000278373D01*
X0003190445Y0000269864D01*
X0003198799Y0000264156D01*
X0003208715Y0000262147D01*
X0003210291Y0000262147D01*
X0003210291Y0000137759D01*
X0003212568Y0000126309D01*
X0003219054Y0000116602D01*
X0003227606Y0000108050D01*
X0003214787Y0000105500D01*
X0003105133Y0000215152D01*
X0003105133Y0000261148D01*
X0003106707Y0000261148D01*
X0003115972Y0000262891D01*
X0003124481Y0000268366D01*
X0003130190Y0000276720D01*
X0003132198Y0000286637D01*
X0003132198Y0000372464D01*
X0003130455Y0000381728D01*
X0003124979Y0000390237D01*
X0003116625Y0000395946D01*
X0003106707Y0000397954D01*
X0003043716Y0000397954D01*
X0003034452Y0000396211D01*
X0003025943Y0000390735D01*
X0003020234Y0000382381D01*
X0003020078Y0000381609D01*
X0003020078Y0000742181D01*
X0003023413Y0000736998D01*
X0003031768Y0000731290D01*
X0003041685Y0000729281D01*
X0003100740Y0000729281D01*
X0003110004Y0000731024D01*
X0003118513Y0000736500D01*
X0003124221Y0000744854D01*
X0003126229Y0000754771D01*
X0003126229Y0000813826D01*
X0003124486Y0000823091D01*
X0003119969Y0000830111D01*
X0003156345Y0000866487D01*
X0003162832Y0000876194D01*
X0003163759Y0000880852D01*
X0003165109Y0000887645D01*
X0003165109Y0000956122D01*
X0003169760Y0000948895D01*
X0003172852Y0000946782D01*
X0003174166Y0000940171D01*
X0003180653Y0000930463D01*
X0003184195Y0000926922D01*
X0003184195Y0000884692D01*
X0003185938Y0000875428D01*
X0003191413Y0000866918D01*
X0003199768Y0000861211D01*
X0003209685Y0000859203D01*
X0003268740Y0000859203D01*
X0003278004Y0000860946D01*
X0003286513Y0000866421D01*
X0003292221Y0000874775D01*
X0003294229Y0000884692D01*
X0003294229Y0000941901D01*
X0003299291Y0000942853D01*
X0003299291Y0000847322D01*
X0003284966Y0000832997D01*
X0003278656Y0000837308D01*
X0003268740Y0000839315D01*
X0003260479Y0000839315D01*
X0003258091Y0000841708D01*
X0003244566Y0000847323D01*
X0003229922Y0000847337D01*
X0003216388Y0000841744D01*
X0003213955Y0000839315D01*
X0003209685Y0000839315D01*
X0003200420Y0000837572D01*
X0003191911Y0000832097D01*
X0003186203Y0000823743D01*
X0003184195Y0000813826D01*
X0003184195Y0000754771D01*
X0003185938Y0000745507D01*
X0003191413Y0000736998D01*
X0003199768Y0000731290D01*
X0003209685Y0000729281D01*
X0003268740Y0000729281D01*
X0003278004Y0000731024D01*
X0003286513Y0000736500D01*
X0003292221Y0000744854D01*
X0003294229Y0000754771D01*
X0003294229Y0000759459D01*
X0003299740Y0000763141D01*
X0003350195Y0000813596D01*
X0003350195Y0000754771D01*
X0003351938Y0000745507D01*
X0003357413Y0000736998D01*
X0003365768Y0000731290D01*
X0003375685Y0000729281D01*
X0003434740Y0000729281D01*
X0003444004Y0000731024D01*
X0003452512Y0000736500D01*
X0003458221Y0000744854D01*
X0003460228Y0000754771D01*
X0003460228Y0000813826D01*
X0003458486Y0000823091D01*
X0003453969Y0000830111D01*
X0003515224Y0000891366D01*
X0003518195Y0000889381D01*
X0003518195Y0000884692D01*
X0003519938Y0000875428D01*
X0003525413Y0000866918D01*
X0003533768Y0000861211D01*
X0003543685Y0000859203D01*
X0003566431Y0000859203D01*
X0003553794Y0000846565D01*
X0003552388Y0000845984D01*
X0003545707Y0000839315D01*
X0003543685Y0000839315D01*
X0003534420Y0000837572D01*
X0003525911Y0000832097D01*
X0003520203Y0000823743D01*
X0003518195Y0000813826D01*
X0003518195Y0000754771D01*
X0003519938Y0000745507D01*
X0003525413Y0000736998D01*
X0003533768Y0000731290D01*
X0003543685Y0000729281D01*
X0003602740Y0000729281D01*
X0003612004Y0000731024D01*
X0003620513Y0000736500D01*
X0003626221Y0000744854D01*
X0003628228Y0000754771D01*
X0003628228Y0000813826D01*
X0003626486Y0000823091D01*
X0003621969Y0000830111D01*
X0003716905Y0000925047D01*
X0003723391Y0000934754D01*
X0003725669Y0000946204D01*
X0003725669Y0001039353D01*
X0003729211Y0001038648D01*
X0003751574Y0001043096D01*
X0003751574Y0000883202D01*
X0003751574Y0000883202D01*
G37*
X0003751574Y0000883202D02*
X0003735892Y0000889714D01*
X0003712634Y0000889733D01*
X0003691138Y0000880852D01*
X0003674677Y0000864420D01*
X0003665758Y0000842940D01*
X0003665737Y0000819681D01*
X0003667077Y0000816439D01*
X0003647055Y0000796417D01*
X0003640567Y0000786709D01*
X0003638291Y0000775259D01*
X0003638291Y0000564904D01*
X0003637023Y0000563638D01*
X0003631407Y0000550114D01*
X0003631395Y0000535469D01*
X0003636987Y0000521935D01*
X0003647333Y0000511571D01*
X0003660858Y0000505955D01*
X0003675502Y0000505942D01*
X0003689037Y0000511534D01*
X0003699401Y0000521880D01*
X0003705017Y0000535405D01*
X0003705030Y0000550049D01*
X0003699437Y0000563584D01*
X0003698133Y0000564890D01*
X0003698133Y0000762866D01*
X0003709381Y0000774113D01*
X0003712532Y0000772805D01*
X0003735790Y0000772785D01*
X0003751574Y0000779306D01*
X0003751574Y0000501739D01*
X0003738392Y0000507214D01*
X0003715134Y0000507233D01*
X0003693638Y0000498352D01*
X0003677177Y0000481920D01*
X0003668258Y0000460440D01*
X0003668237Y0000437181D01*
X0003669576Y0000433939D01*
X0003666317Y0000430681D01*
X0003536856Y0000430681D01*
X0003535591Y0000431948D01*
X0003522066Y0000437564D01*
X0003507422Y0000437577D01*
X0003493888Y0000431984D01*
X0003483523Y0000421638D01*
X0003477907Y0000408114D01*
X0003477906Y0000406268D01*
X0003462015Y0000390377D01*
X0003459222Y0000386198D01*
X0003455979Y0000391237D01*
X0003447625Y0000396946D01*
X0003437707Y0000398953D01*
X0003374716Y0000398953D01*
X0003365452Y0000397211D01*
X0003356943Y0000391735D01*
X0003351234Y0000383381D01*
X0003349226Y0000373464D01*
X0003349226Y0000355390D01*
X0003343716Y0000351708D01*
X0003323240Y0000331232D01*
X0003322978Y0000330840D01*
X0003297198Y0000305060D01*
X0003297198Y0000373464D01*
X0003295455Y0000382729D01*
X0003289979Y0000391237D01*
X0003281625Y0000396946D01*
X0003271708Y0000398953D01*
X0003208715Y0000398953D01*
X0003199452Y0000397211D01*
X0003190943Y0000391735D01*
X0003185235Y0000383381D01*
X0003183226Y0000373464D01*
X0003183226Y0000287637D01*
X0003184968Y0000278373D01*
X0003190445Y0000269864D01*
X0003198799Y0000264156D01*
X0003208715Y0000262147D01*
X0003210291Y0000262147D01*
X0003210291Y0000137759D01*
X0003212568Y0000126309D01*
X0003219054Y0000116602D01*
X0003227606Y0000108050D01*
X0003214787Y0000105500D01*
X0003105133Y0000215152D01*
X0003105133Y0000261148D01*
X0003106707Y0000261148D01*
X0003115972Y0000262891D01*
X0003124481Y0000268366D01*
X0003130190Y0000276720D01*
X0003132198Y0000286637D01*
X0003132198Y0000372464D01*
X0003130455Y0000381728D01*
X0003124979Y0000390237D01*
X0003116625Y0000395946D01*
X0003106707Y0000397954D01*
X0003043716Y0000397954D01*
X0003034452Y0000396211D01*
X0003025943Y0000390735D01*
X0003020234Y0000382381D01*
X0003020078Y0000381609D01*
X0003020078Y0000742181D01*
X0003023413Y0000736998D01*
X0003031768Y0000731290D01*
X0003041685Y0000729281D01*
X0003100740Y0000729281D01*
X0003110004Y0000731024D01*
X0003118513Y0000736500D01*
X0003124221Y0000744854D01*
X0003126229Y0000754771D01*
X0003126229Y0000813826D01*
X0003124486Y0000823091D01*
X0003119969Y0000830111D01*
X0003156345Y0000866487D01*
X0003162832Y0000876194D01*
X0003163759Y0000880852D01*
X0003165109Y0000887645D01*
X0003165109Y0000956122D01*
X0003169760Y0000948895D01*
X0003172852Y0000946782D01*
X0003174166Y0000940171D01*
X0003180653Y0000930463D01*
X0003184195Y0000926922D01*
X0003184195Y0000884692D01*
X0003185938Y0000875428D01*
X0003191413Y0000866918D01*
X0003199768Y0000861211D01*
X0003209685Y0000859203D01*
X0003268740Y0000859203D01*
X0003278004Y0000860946D01*
X0003286513Y0000866421D01*
X0003292221Y0000874775D01*
X0003294229Y0000884692D01*
X0003294229Y0000941901D01*
X0003299291Y0000942853D01*
X0003299291Y0000847322D01*
X0003284966Y0000832997D01*
X0003278656Y0000837308D01*
X0003268740Y0000839315D01*
X0003260479Y0000839315D01*
X0003258091Y0000841708D01*
X0003244566Y0000847323D01*
X0003229922Y0000847337D01*
X0003216388Y0000841744D01*
X0003213955Y0000839315D01*
X0003209685Y0000839315D01*
X0003200420Y0000837572D01*
X0003191911Y0000832097D01*
X0003186203Y0000823743D01*
X0003184195Y0000813826D01*
X0003184195Y0000754771D01*
X0003185938Y0000745507D01*
X0003191413Y0000736998D01*
X0003199768Y0000731290D01*
X0003209685Y0000729281D01*
X0003268740Y0000729281D01*
X0003278004Y0000731024D01*
X0003286513Y0000736500D01*
X0003292221Y0000744854D01*
X0003294229Y0000754771D01*
X0003294229Y0000759459D01*
X0003299740Y0000763141D01*
X0003350195Y0000813596D01*
X0003350195Y0000754771D01*
X0003351938Y0000745507D01*
X0003357413Y0000736998D01*
X0003365768Y0000731290D01*
X0003375685Y0000729281D01*
X0003434740Y0000729281D01*
X0003444004Y0000731024D01*
X0003452512Y0000736500D01*
X0003458221Y0000744854D01*
X0003460228Y0000754771D01*
X0003460228Y0000813826D01*
X0003458486Y0000823091D01*
X0003453969Y0000830111D01*
X0003515224Y0000891366D01*
X0003518195Y0000889381D01*
X0003518195Y0000884692D01*
X0003519938Y0000875428D01*
X0003525413Y0000866918D01*
X0003533768Y0000861211D01*
X0003543685Y0000859203D01*
X0003566431Y0000859203D01*
X0003553794Y0000846565D01*
X0003552388Y0000845984D01*
X0003545707Y0000839315D01*
X0003543685Y0000839315D01*
X0003534420Y0000837572D01*
X0003525911Y0000832097D01*
X0003520203Y0000823743D01*
X0003518195Y0000813826D01*
X0003518195Y0000754771D01*
X0003519938Y0000745507D01*
X0003525413Y0000736998D01*
X0003533768Y0000731290D01*
X0003543685Y0000729281D01*
X0003602740Y0000729281D01*
X0003612004Y0000731024D01*
X0003620513Y0000736500D01*
X0003626221Y0000744854D01*
X0003628228Y0000754771D01*
X0003628228Y0000813826D01*
X0003626486Y0000823091D01*
X0003621969Y0000830111D01*
X0003716905Y0000925047D01*
X0003723391Y0000934754D01*
X0003725669Y0000946204D01*
X0003725669Y0001039353D01*
X0003729211Y0001038648D01*
X0003751574Y0001043096D01*
X0003751574Y0000883202D01*
M02*