%
M48
METRIC,000.000
T01C0.50
%
T01
X021949Y029066
X021949Y028066
X021949Y027066
X021949Y026066
X021949Y025066
X021949Y024066
X020250Y024607
X020250Y025607
X020250Y026607
X020250Y027607
X020250Y028607
X021949Y010066
X021949Y009066
X021949Y008066
X021949Y007066
X021949Y006066
X021949Y005066
X020250Y004607
X020250Y005607
X020250Y006607
X020250Y007607
X020250Y008607
X020250Y009607
X036329Y034793
X035329Y034793
X034329Y034793
X033329Y034793
X032329Y034793
X032177Y036750
X033177Y036750
X034177Y036750
X035177Y036750
X036177Y036750
X060329Y034793
X059329Y034793
X058329Y034793
X057329Y034793
X056329Y034793
X055329Y034793
X055177Y036750
X056177Y036750
X057177Y036750
X058177Y036750
X059177Y036750
X060177Y036750
X070102Y077607
X070102Y078607
X070102Y079607
X070102Y080607
X070102Y081607
X070102Y082607
X071750Y082178
X071750Y081178
X071750Y080178
X071750Y079178
X071750Y078178
X079429Y069750
X080429Y069750
X081429Y069750
X082429Y069750
X083429Y069750
X084429Y069750
X083785Y068250
X082785Y068250
X081785Y068250
X080785Y068250
X079785Y068250
X078785Y068250
X070102Y057607
X070102Y058607
X070102Y059607
X070102Y060607
X070102Y061607
X070102Y062607
X071750Y062178
X071750Y061178
X071750Y060178
X071750Y059178
X071750Y058178
X070102Y043607
X070102Y044607
X070102Y045607
X070102Y046607
X070102Y047607
X071750Y048178
X071750Y047178
X071750Y046178
X071750Y045178
X071750Y044178
X071750Y043178
X073249Y020607
X073249Y021607
X073249Y022607
X073249Y023607
X073249Y024607
X073249Y025607
X074750Y025178
X074750Y024178
X074750Y023178
X074750Y022178
X074750Y021178
X073249Y005607
X073249Y006607
X073249Y007607
X073249Y008607
X073249Y009607
X073249Y010607
X074750Y010178
X074750Y009178
X074750Y008178
X074750Y007178
X074750Y006178
X074750Y005178
X021850Y047530
X021850Y046530
X021850Y045530
X021850Y044530
X021850Y043530
X021850Y042530
X020250Y042607
X020250Y043607
X020250Y044607
X020250Y045607
X020250Y046607
X020250Y047607
X021850Y072530
X021850Y071530
X021850Y070530
X021850Y069530
X021850Y068530
X021850Y067530
X020250Y067607
X020250Y068607
X020250Y069607
X020250Y070607
X020250Y071607
X020250Y072607
M30