%
M48
METRIC,000.000
T01C0.90
T02C1.00
T03C2.20
T10C0.40
T11C0.80
%
T01
X026267Y027913
X070967Y027913
X025886Y043813
X070586Y043813
X025886Y077850
X070586Y077850
T02
X049061Y001878
X051602Y001878
X054141Y001878
X056681Y001878
X025312Y001942
X027852Y001942
X030392Y001942
X066905Y001942
X069445Y001942
X071985Y001942
X025312Y004481
X027852Y004481
X030392Y004481
X066905Y004481
X069445Y004481
X071985Y004481
X025312Y007021
X027852Y007021
X030392Y007021
X061761Y007021
X066905Y007021
X069445Y007021
X071985Y007021
X025312Y009562
X027852Y009562
X030392Y009562
X061761Y009562
X066905Y009562
X069445Y009562
X071985Y009562
X025312Y012102
X027852Y012102
X030392Y012102
X061761Y012102
X066905Y012102
X069445Y012102
X071985Y012102
X025312Y014641
X027852Y014641
X030392Y014641
X061761Y014641
X066905Y014641
X069445Y014641
X071985Y014641
X027852Y017181
X030392Y017181
X061761Y017181
X066905Y017181
X069445Y017181
X071985Y017181
X051602Y019658
X054141Y019658
X056681Y019658
X059221Y019658
X027852Y019722
X030392Y019722
X061761Y019722
X066905Y019722
X069445Y019722
X071985Y019722
X049061Y051878
X051602Y051878
X054141Y051878
X056681Y051878
X025312Y051942
X027852Y051942
X030392Y051942
X066905Y051942
X069445Y051942
X071985Y051942
X025312Y054482
X027852Y054482
X030392Y054482
X066905Y054482
X069445Y054482
X071985Y054482
X025312Y057021
X027852Y057021
X030392Y057021
X061761Y057021
X066905Y057021
X069445Y057021
X071985Y057021
X025312Y059562
X027852Y059562
X030392Y059562
X061761Y059562
X066905Y059562
X069445Y059562
X071985Y059562
X025312Y062102
X027852Y062102
X030392Y062102
X061761Y062102
X066905Y062102
X069445Y062102
X071985Y062102
X025312Y064641
X027852Y064641
X030392Y064641
X061761Y064641
X066905Y064641
X069445Y064641
X071985Y064641
X027852Y067181
X030392Y067181
X061761Y067181
X066905Y067181
X069445Y067181
X071985Y067181
X051602Y069658
X054141Y069658
X056681Y069658
X059221Y069658
X027852Y069722
X030392Y069722
X061761Y069722
X066905Y069722
X069445Y069722
X071985Y069722
X000878Y046938
X000878Y044397
X000878Y041858
X000878Y039319
X006021Y034239
X008562Y034239
X011102Y034239
X013641Y034239
X016181Y034239
X018658Y044397
X018658Y041858
X018658Y039319
X018658Y036779
X018722Y034239
X000878Y078939
X000878Y076398
X000878Y073859
X000878Y071319
X006021Y066239
X008562Y066239
X011102Y066239
X013641Y066239
X016181Y066239
X018658Y076398
X018658Y073859
X018658Y071319
X018658Y068779
X018722Y066239
X000810Y029510
X000810Y026970
X000810Y024430
X000810Y021890
X000810Y019349
X000810Y016810
X000810Y014269
X000810Y011729
X000810Y009189
X000810Y006650
X003349Y029510
X003349Y026970
X003349Y024430
X003349Y021890
X003349Y019349
X003349Y016810
X003349Y014269
X003349Y011729
X003349Y009189
X003349Y006650
X005889Y029510
X005889Y026970
X005889Y024430
X005889Y021890
X005889Y019349
X005889Y016810
X005889Y014269
X005889Y011729
X005889Y009189
X005889Y006650
X005889Y004110
X005889Y001569
X008430Y029510
X008430Y026970
X008430Y024430
X008430Y021890
X008430Y019349
X008430Y016810
X008430Y014269
X008430Y011729
X008430Y009189
X008430Y001569
X010969Y029510
X010969Y026970
X010969Y024430
X010969Y021890
X010969Y019349
X010969Y016810
X010969Y014269
X010969Y011729
X010969Y009189
X010969Y001569
X013509Y029510
X013509Y026970
X013509Y024430
X013509Y021890
X013509Y019349
X013509Y016810
X013509Y014269
X013509Y011729
X013509Y009189
X013509Y006650
X013509Y004110
X013509Y001569
X016050Y029510
X016050Y026970
X016050Y024430
X016050Y021890
X016050Y019349
X016050Y016810
X016050Y014269
X016050Y011729
X016050Y009189
X016050Y006650
X016050Y004110
X016050Y001569
X018590Y029510
X018590Y026970
X018590Y024430
X018590Y021890
X018590Y019349
X018590Y016810
X018590Y014269
X018590Y011729
X018590Y009189
X018590Y006650
X018590Y004110
X018590Y001569
X076810Y093510
X076810Y090970
X076810Y088430
X076810Y085890
X076810Y083350
X076810Y080810
X076810Y078270
X076810Y075729
X076810Y073190
X076810Y070650
X079350Y093510
X079350Y090970
X079350Y088430
X079350Y085890
X079350Y083350
X079350Y080810
X079350Y078270
X079350Y075729
X079350Y073190
X079350Y070650
X081889Y093510
X081889Y090970
X081889Y088430
X081889Y085890
X081889Y083350
X081889Y080810
X081889Y078270
X081889Y075729
X081889Y073190
X081889Y070650
X081889Y068110
X081889Y065570
X084430Y093510
X084430Y090970
X084430Y088430
X084430Y085890
X084430Y083350
X084430Y080810
X084430Y078270
X084430Y075729
X084430Y073190
X084430Y065570
X086970Y093510
X086970Y090970
X086970Y088430
X086970Y085890
X086970Y083350
X086970Y080810
X086970Y078270
X086970Y075729
X086970Y073190
X086970Y065570
X089509Y093510
X089509Y090970
X089509Y088430
X089509Y085890
X089509Y083350
X089509Y080810
X089509Y078270
X089509Y075729
X089509Y073190
X089509Y070650
X089509Y068110
X089509Y065570
X092050Y093510
X092050Y090970
X092050Y088430
X092050Y085890
X092050Y083350
X092050Y080810
X092050Y078270
X092050Y075729
X092050Y073190
X092050Y070650
X092050Y068110
X092050Y065570
X094590Y093510
X094590Y090970
X094590Y088430
X094590Y085890
X094590Y083350
X094590Y080810
X094590Y078270
X094590Y075729
X094590Y073190
X094590Y070650
X094590Y068110
X094590Y065570
X076942Y059896
X079482Y059896
X082021Y059896
X082021Y033239
X084562Y059896
X084562Y033239
X087102Y059896
X087102Y033239
X089642Y059896
X089642Y033239
X092181Y059896
X092181Y033239
X094595Y053114
X094595Y050574
X094658Y043397
X094658Y040858
X094658Y038319
X094658Y035779
X094722Y059896
X094722Y033239
X076942Y027896
X079482Y027896
X082021Y027896
X082021Y001239
X084562Y027896
X084562Y001239
X087102Y027896
X087102Y001239
X089642Y027896
X089642Y001239
X092181Y027896
X092181Y001239
X094595Y021114
X094595Y018573
X094658Y011397
X094658Y008858
X094658Y006319
X094658Y003778
X094722Y027896
X094722Y001239
T03
X061190Y002957
X024741Y019086
X061190Y052958
X024741Y069086
X001957Y034810
X009831Y038111
X001957Y066810
X009831Y070112
X002000Y002000
X009699Y005379
X078000Y066000
X085699Y069380
X077958Y033810
X085832Y037111
X077958Y001810
X085832Y005111
T10
X002147Y055702
X005259Y052209
X008180Y036080
X010530Y044334
X011800Y054495
X002147Y087702
X005259Y084209
X008180Y068080
X010530Y076335
X011800Y086495
X077806Y052587
X082225Y052587
X086491Y052536
X089274Y042179
X090759Y052694
X091523Y036882
X093173Y045786
X077806Y020587
X082225Y020587
X086491Y020536
X089274Y010179
X090759Y020694
X091523Y004882
X093173Y013786
T11
X009197Y041858
X011197Y041858
X013197Y041858
X015197Y041858
X009197Y073859
X011197Y073859
X013197Y073859
X015197Y073859
M30