%MOIN*%
%OFA0B0*%
%FSLAX46Y46*%
%IPPOS*%
%LPD*%
%ADD10C,0.0039370078740157488*%
%ADD11R,0.066929133858267723X0.066929133858267723*%
%ADD12C,0.066929133858267723*%
%ADD13O,0.066929133858267723X0.066929133858267723*%
%ADD14C,0.07874015748031496*%
%ADD15C,0.03937007874015748*%
%ADD26C,0.0039370078740157488*%
%ADD27R,0.066929133858267723X0.066929133858267723*%
%ADD28C,0.066929133858267723*%
%ADD29O,0.066929133858267723X0.066929133858267723*%
%ADD30C,0.07874015748031496*%
%ADD31C,0.03937007874015748*%
%ADD42C,0.0039370078740157488*%
%ADD43C,0.066929133858267723*%
%ADD44O,0.066929133858267723X0.066929133858267723*%
%ADD45R,0.059055118110236227X0.049212598425196853*%
%ADD46R,0.049212598425196853X0.059055118110236227*%
%ADD47R,0.038188976377952759X0.05*%
%ADD48R,0.059055118110236227X0.051181102362204731*%
%ADD49C,0.023622047244094488*%
%ADD50R,0.070866141732283464X0.031496062992125991*%
%ADD51R,0.059055118110236227X0.027559055118110236*%
%ADD52R,0.01968503937007874X0.023622047244094488*%
%ADD53R,0.023622047244094488X0.01968503937007874*%
%ADD54R,0.053149606299212608X0.053149606299212608*%
%ADD55O,0.053149606299212608X0.053149606299212608*%
%ADD56R,0.013779527559055118X0.01968503937007874*%
%ADD57C,0.00984251968503937*%
%ADD58C,0.01*%
%ADD69C,0.0039370078740157488*%
%ADD70R,0.066929133858267723X0.066929133858267723*%
%ADD81C,0.0039370078740157488*%
%ADD82R,0.066929133858267723X0.066929133858267723*%
%ADD93C,0.0039370078740157488*%
%ADD94R,0.066929133858267723X0.066929133858267723*%
%ADD105C,0.0039370078740157488*%
%ADD106C,0.066929133858267723*%
%ADD107O,0.066929133858267723X0.066929133858267723*%
%ADD108R,0.059055118110236227X0.049212598425196853*%
%ADD109R,0.049212598425196853X0.059055118110236227*%
%ADD110R,0.038188976377952759X0.05*%
%ADD111R,0.059055118110236227X0.051181102362204731*%
%ADD112C,0.023622047244094488*%
%ADD113R,0.070866141732283464X0.031496062992125991*%
%ADD114R,0.059055118110236227X0.027559055118110236*%
%ADD115R,0.01968503937007874X0.023622047244094488*%
%ADD116R,0.023622047244094488X0.01968503937007874*%
%ADD117R,0.053149606299212608X0.053149606299212608*%
%ADD118O,0.053149606299212608X0.053149606299212608*%
%ADD119R,0.013779527559055118X0.01968503937007874*%
%ADD120C,0.00984251968503937*%
%ADD121C,0.01*%
%ADD132C,0.0039370078740157488*%
%ADD133C,0.066929133858267723*%
%ADD134O,0.066929133858267723X0.066929133858267723*%
%ADD135R,0.059055118110236227X0.049212598425196853*%
%ADD136R,0.049212598425196853X0.059055118110236227*%
%ADD137R,0.038188976377952759X0.05*%
%ADD138R,0.059055118110236227X0.051181102362204731*%
%ADD139C,0.023622047244094488*%
%ADD140R,0.070866141732283464X0.031496062992125991*%
%ADD141R,0.059055118110236227X0.027559055118110236*%
%ADD142R,0.01968503937007874X0.023622047244094488*%
%ADD143R,0.023622047244094488X0.01968503937007874*%
%ADD144R,0.053149606299212608X0.053149606299212608*%
%ADD145O,0.053149606299212608X0.053149606299212608*%
%ADD146R,0.013779527559055118X0.01968503937007874*%
%ADD147C,0.00984251968503937*%
%ADD148C,0.01*%
%LPD*%
G01*
D10*
D11*
X-0002465984Y-0006660000D02*
X0001171515Y0000069999D03*
X0001171515Y0000169999D03*
X0001171515Y0000269999D03*
X0001171515Y0000369999D03*
X0001171515Y0000469999D03*
X0001171515Y0000569999D03*
X0001171515Y0000669999D03*
X0001171515Y0000769999D03*
X0001071515Y0000069999D03*
X0001071515Y0000169999D03*
X0001071515Y0000269999D03*
X0001071515Y0000369999D03*
X0001071515Y0000469999D03*
X0001071515Y0000569999D03*
X0001071515Y0000669999D03*
X0001071515Y0000769999D03*
X0000971515Y0000069999D03*
X0000971515Y0000169999D03*
X0000971515Y0000269999D03*
X0000971515Y0000369999D03*
X0000971515Y0000469999D03*
X0000971515Y0000569999D03*
X0002609015Y0000069999D03*
X0002609015Y0000169999D03*
X0002609015Y0000269999D03*
X0002609015Y0000369999D03*
X0002609015Y0000469999D03*
X0002609015Y0000569999D03*
X0002609015Y0000669999D03*
X0002609015Y0000769999D03*
X0002709014Y0000069999D03*
X0002709014Y0000169999D03*
X0002709014Y0000269999D03*
X0002709014Y0000369999D03*
X0002709014Y0000469999D03*
X0002709014Y0000569999D03*
X0002709014Y0000669999D03*
X0002709014Y0000769999D03*
X0002809015Y0000069999D03*
X0002809015Y0000169999D03*
X0002809015Y0000269999D03*
X0002809015Y0000369999D03*
X0002809015Y0000469999D03*
X0002809015Y0000569999D03*
X0002809015Y0000669999D03*
X0002809015Y0000769999D03*
D12*
X0001906515Y0000067499D03*
D13*
X0002006514Y0000067499D03*
X0002106515Y0000067499D03*
X0002206515Y0000067499D03*
D12*
X0002006514Y0000767499D03*
D13*
X0002106515Y0000767499D03*
X0002206515Y0000767499D03*
X0002306515Y0000767499D03*
D12*
X0002406515Y0000769999D03*
D13*
X0002406515Y0000669999D03*
X0002406515Y0000569999D03*
X0002406515Y0000469999D03*
X0002406515Y0000369999D03*
X0002406515Y0000269999D03*
D14*
X0001009093Y0001092499D03*
X0002768936Y0001092499D03*
D15*
X0002768936Y0001092499D02*
X0002206515Y0001092499D01*
X0002206515Y0001092499D02*
X0002106515Y0000992499D01*
X0002106515Y0000992499D02*
X0002106515Y0000767499D01*
X0002106515Y0000767499D02*
X0002106515Y0000539999D01*
X0001906515Y0000067499D02*
X0001906515Y0000339999D01*
X0001906515Y0000339999D02*
X0002106515Y0000539999D01*
X0002006514Y0000767499D02*
X0002006514Y0000977499D01*
X0002006514Y0000977499D02*
X0001891515Y0001092499D01*
X0001431515Y0001092499D02*
X0001009093Y0001092499D01*
X0001891515Y0001092499D02*
X0001431515Y0001092499D01*
G01*
D26*
D27*
X-0002466141Y-0004696850D02*
X0001171358Y0002033148D03*
X0001171358Y0002133149D03*
X0001171358Y0002233149D03*
X0001171358Y0002333149D03*
X0001171358Y0002433149D03*
X0001171358Y0002533149D03*
X0001171358Y0002633149D03*
X0001171358Y0002733149D03*
X0001071358Y0002033148D03*
X0001071358Y0002133149D03*
X0001071358Y0002233149D03*
X0001071358Y0002333149D03*
X0001071358Y0002433149D03*
X0001071358Y0002533149D03*
X0001071358Y0002633149D03*
X0001071358Y0002733149D03*
X0000971358Y0002033148D03*
X0000971358Y0002133149D03*
X0000971358Y0002233149D03*
X0000971358Y0002333149D03*
X0000971358Y0002433149D03*
X0000971358Y0002533149D03*
X0002608858Y0002033148D03*
X0002608858Y0002133149D03*
X0002608858Y0002233149D03*
X0002608858Y0002333149D03*
X0002608858Y0002433149D03*
X0002608858Y0002533149D03*
X0002608858Y0002633149D03*
X0002608858Y0002733149D03*
X0002708858Y0002033148D03*
X0002708858Y0002133149D03*
X0002708858Y0002233149D03*
X0002708858Y0002333149D03*
X0002708858Y0002433149D03*
X0002708858Y0002533149D03*
X0002708858Y0002633149D03*
X0002708858Y0002733149D03*
X0002808858Y0002033148D03*
X0002808858Y0002133149D03*
X0002808858Y0002233149D03*
X0002808858Y0002333149D03*
X0002808858Y0002433149D03*
X0002808858Y0002533149D03*
X0002808858Y0002633149D03*
X0002808858Y0002733149D03*
D28*
X0001906358Y0002030649D03*
D29*
X0002006358Y0002030649D03*
X0002106358Y0002030649D03*
X0002206358Y0002030649D03*
D28*
X0002006358Y0002730649D03*
D29*
X0002106358Y0002730649D03*
X0002206358Y0002730649D03*
X0002306358Y0002730649D03*
D28*
X0002406358Y0002733149D03*
D29*
X0002406358Y0002633149D03*
X0002406358Y0002533149D03*
X0002406358Y0002433149D03*
X0002406358Y0002333149D03*
X0002406358Y0002233149D03*
D30*
X0000993937Y0003053149D03*
X0002753779Y0003053149D03*
X0002753779Y0001713149D03*
X0000993937Y0001713149D03*
D31*
X0002523858Y0002903149D02*
X0002676358Y0003055649D01*
X0002676358Y0003055649D02*
X0002753779Y0003053149D01*
X0002523858Y0001853149D02*
X0002523858Y0002903149D01*
X0002666358Y0001710649D02*
X0002523858Y0001853149D01*
X0002753779Y0001713149D02*
X0002666358Y0001710649D01*
X0002106358Y0002730649D02*
X0002106358Y0002503149D01*
X0001906358Y0002030649D02*
X0001906358Y0002303149D01*
X0001906358Y0002303149D02*
X0002106358Y0002503149D01*
X0001906358Y0002030649D02*
X0001743858Y0002030649D01*
X0000993937Y0001713149D02*
X0001423858Y0001710649D01*
X0001423858Y0001710649D02*
X0001743858Y0002030649D01*
X0001756358Y0002730649D02*
X0001431358Y0003055649D01*
X0001431358Y0003055649D02*
X0000993937Y0003053149D01*
X0002006358Y0002730649D02*
X0001756358Y0002730649D01*
G01*
D42*
D43*
X-0003732283Y0004921259D02*
X0002995216Y0000548759D03*
D44*
X0002995216Y0000448759D03*
X0002995216Y0000348759D03*
X0002995216Y0000248759D03*
D43*
X0003695216Y0000448759D03*
D44*
X0003695216Y0000348759D03*
X0003695216Y0000248759D03*
X0003695216Y0000148759D03*
D43*
X0003697716Y0000048759D03*
D44*
X0003597716Y0000048759D03*
X0003497716Y0000048759D03*
X0003397716Y0000048759D03*
X0003297716Y0000048759D03*
X0003197716Y0000048759D03*
D45*
X0003141928Y0001053759D03*
X0003043503Y0001053759D03*
D46*
X0003172715Y0000692972D03*
X0003172715Y0000594547D03*
D47*
X0003432716Y0000446259D03*
X0003482716Y0000446259D03*
X0003532716Y0000446259D03*
X0003145216Y0000948759D03*
X0003095216Y0000948759D03*
X0003045216Y0000948759D03*
D48*
X0003119566Y0000283759D03*
X0003225865Y0000283759D03*
X0003119566Y0000201259D03*
X0003225865Y0000201259D03*
D49*
X0003590551Y0001023622D03*
D50*
X0003486614Y0000944881D03*
X0003486614Y0000994881D03*
X0003486614Y0001044881D03*
X0003486614Y0000894881D03*
X0003486614Y0000844881D03*
X0003694488Y0000944881D03*
X0003694488Y0000994881D03*
X0003694488Y0001044881D03*
X0003694488Y0000894881D03*
X0003694488Y0000844881D03*
D51*
X0003251161Y0000976358D03*
X0003251161Y0001013759D03*
X0003251161Y0001051161D03*
X0003369270Y0001051161D03*
X0003369270Y0001013759D03*
X0003369270Y0000976358D03*
D52*
X0003255629Y0000810314D03*
X0003255629Y0000751259D03*
X0003255629Y0000692204D03*
X0003369802Y0000692204D03*
X0003369802Y0000751259D03*
X0003369802Y0000810314D03*
D53*
X0003312716Y0000812283D03*
D54*
X0003322716Y0000348759D03*
D55*
X0003401456Y0000348759D03*
X0003480196Y0000348759D03*
X0003558935Y0000348759D03*
D45*
X0003488503Y0000718759D03*
X0003586928Y0000718759D03*
D56*
X0003274330Y0000620255D03*
X0003299921Y0000620255D03*
X0003325511Y0000620255D03*
X0003351102Y0000620255D03*
X0003274330Y0000557263D03*
X0003299921Y0000557263D03*
X0003325511Y0000557263D03*
X0003351102Y0000557263D03*
D49*
X0003282716Y0000121259D03*
X0003167716Y0000756259D03*
X0003425216Y0000846259D03*
X0003045216Y0000893759D03*
X0003375216Y0000446259D03*
D57*
X0002995216Y0000548759D02*
X0003243070Y0000548759D01*
X0003243070Y0000548759D02*
X0003247716Y0000544114D01*
X0003265570Y0000526259D02*
X0003292125Y0000526259D01*
X0003292125Y0000526259D02*
X0003299921Y0000534055D01*
X0003247716Y0000590688D02*
X0003247716Y0000544114D01*
X0003247716Y0000544114D02*
X0003265570Y0000526259D01*
X0003274330Y0000620255D02*
X0003274330Y0000617303D01*
X0003274330Y0000617303D02*
X0003247716Y0000590688D01*
X0003307716Y0000526259D02*
X0003299921Y0000534055D01*
X0003299921Y0000534055D02*
X0003299921Y0000557263D01*
X0003339783Y0000526259D02*
X0003307716Y0000526259D01*
X0003351102Y0000557263D02*
X0003351102Y0000537578D01*
X0003351102Y0000537578D02*
X0003339783Y0000526259D01*
X0003145216Y0000948759D02*
X0003245216Y0000948759D01*
X0003251161Y0000954704D02*
X0003251161Y0000976358D01*
X0003245216Y0000948759D02*
X0003251161Y0000954704D01*
X0003369270Y0001051161D02*
X0003325117Y0001051161D01*
X0003320215Y0000859901D02*
X0003369802Y0000810314D01*
X0003320215Y0001046259D02*
X0003320215Y0000859901D01*
X0003325117Y0001051161D02*
X0003320215Y0001046259D01*
X0003369802Y0000812283D02*
X0003369802Y0000810314D01*
X0003417716Y0000968503D02*
X0003417716Y0001034211D01*
X0003417716Y0001034211D02*
X0003400767Y0001051161D01*
X0003400767Y0001051161D02*
X0003369270Y0001051161D01*
X0003486614Y0000944881D02*
X0003441338Y0000944881D01*
X0003441338Y0000944881D02*
X0003417716Y0000968503D01*
X0003370787Y0000541886D02*
X0003370787Y0000514329D01*
X0003220216Y0000363759D02*
X0003192660Y0000363759D01*
X0003370787Y0000514329D02*
X0003220216Y0000363759D01*
X0003185377Y0000356476D02*
X0003156850Y0000356476D01*
X0003192660Y0000363759D02*
X0003185377Y0000356476D01*
X0003119566Y0000319192D02*
X0003119566Y0000283759D01*
X0003156850Y0000356476D02*
X0003119566Y0000319192D01*
X0003370787Y0000577342D02*
X0003370787Y0000541886D01*
X0003368228Y0000579901D02*
X0003370787Y0000577342D01*
X0003346180Y0000579901D02*
X0003368228Y0000579901D01*
X0003325511Y0000620255D02*
X0003325511Y0000600570D01*
X0003325511Y0000600570D02*
X0003346180Y0000579901D01*
X0003325511Y0000620255D02*
X0003325511Y0000766023D01*
X0003325511Y0000766023D02*
X0003348149Y0000788661D01*
X0003348149Y0000788661D02*
X0003350117Y0000788661D01*
X0003350117Y0000788661D02*
X0003369802Y0000808346D01*
X0003369802Y0000808346D02*
X0003369802Y0000810314D01*
X0003067716Y0000271279D02*
X0003067716Y0000174959D01*
X0003067716Y0000174959D02*
X0003121417Y0000121259D01*
X0003121417Y0000121259D02*
X0003282716Y0000121259D01*
X0003119566Y0000283759D02*
X0003080196Y0000283759D01*
X0003080196Y0000283759D02*
X0003067716Y0000271279D01*
X0003369270Y0000976358D02*
X0003369270Y0000933759D01*
X0003486614Y0000894881D02*
X0003441338Y0000894881D01*
X0003369270Y0000933759D02*
X0003369270Y0000869704D01*
X0003441338Y0000894881D02*
X0003402460Y0000933759D01*
X0003402460Y0000933759D02*
X0003369270Y0000933759D01*
X0003390216Y0000531558D02*
X0003390216Y0000498759D01*
X0003230216Y0000338759D02*
X0003197417Y0000338759D01*
X0003390216Y0000498759D02*
X0003230216Y0000338759D01*
X0003172715Y0000314058D02*
X0003172715Y0000250471D01*
X0003197417Y0000338759D02*
X0003172715Y0000314058D01*
X0003172715Y0000250471D02*
X0003123503Y0000201259D01*
X0003123503Y0000201259D02*
X0003119566Y0000201259D01*
X0003390216Y0000597874D02*
X0003390216Y0000531558D01*
X0003351102Y0000620255D02*
X0003367834Y0000620255D01*
X0003367834Y0000620255D02*
X0003390216Y0000597874D01*
X0003351102Y0000620255D02*
X0003351102Y0000639940D01*
X0003351102Y0000639940D02*
X0003347165Y0000643877D01*
X0003347165Y0000643877D02*
X0003347165Y0000726653D01*
X0003347165Y0000726653D02*
X0003369802Y0000749291D01*
X0003369802Y0000749291D02*
X0003369802Y0000751259D01*
X0003397716Y0000751259D02*
X0003397716Y0000783759D01*
X0003369802Y0000751259D02*
X0003389487Y0000751259D01*
X0003389487Y0000751259D02*
X0003397716Y0000751259D01*
X0003397716Y0000841259D02*
X0003397716Y0000783759D01*
X0003397716Y0000783759D02*
X0003397716Y0000779173D01*
X0003364251Y0000082224D02*
X0003397716Y0000048759D01*
X0003300610Y0000145866D02*
X0003364251Y0000082224D01*
X0003178897Y0000145866D02*
X0003300610Y0000145866D01*
X0003123503Y0000201259D02*
X0003178897Y0000145866D01*
X0003369270Y0000869704D02*
X0003397716Y0000841259D01*
X0003532716Y0000446259D02*
X0003692715Y0000446259D01*
X0003692715Y0000446259D02*
X0003695216Y0000448759D01*
X0003172715Y0000692972D02*
X0003254862Y0000692972D01*
X0003254862Y0000692972D02*
X0003255629Y0000692204D01*
X0003167716Y0000756259D02*
X0003167716Y0000697972D01*
X0003167716Y0000697972D02*
X0003172715Y0000692972D01*
X0003254862Y0000692972D02*
X0003255629Y0000692204D01*
X0003274330Y0000557263D02*
X0003274330Y0000580492D01*
X0003274330Y0000580492D02*
X0003299921Y0000606082D01*
X0003299921Y0000606082D02*
X0003299921Y0000620255D01*
X0003299921Y0000620255D02*
X0003299921Y0000600570D01*
X0003299921Y0000600570D02*
X0003325511Y0000574980D01*
X0003325511Y0000574980D02*
X0003325511Y0000557263D01*
X0003255629Y0000692204D02*
X0003275314Y0000692204D01*
X0003275314Y0000692204D02*
X0003299921Y0000667598D01*
X0003299921Y0000667598D02*
X0003299921Y0000639940D01*
X0003299921Y0000639940D02*
X0003299921Y0000620255D01*
X0003488503Y0000718759D02*
X0003488503Y0000452046D01*
X0003488503Y0000452046D02*
X0003482716Y0000446259D01*
X0003486614Y0000844881D02*
X0003486614Y0000720649D01*
X0003486614Y0000720649D02*
X0003488503Y0000718759D01*
X0003498502Y0000462047D02*
X0003482716Y0000446259D01*
X0003486614Y0000730649D02*
X0003498502Y0000718759D01*
X0003425216Y0000846259D02*
X0003485236Y0000846259D01*
X0003485236Y0000846259D02*
X0003486614Y0000844881D01*
X0003482716Y0000840984D02*
X0003486614Y0000844881D01*
X0003338799Y0000401259D02*
X0003472558Y0000401259D01*
X0003472558Y0000401259D02*
X0003482716Y0000411417D01*
X0003482716Y0000411417D02*
X0003482716Y0000446259D01*
X0003322716Y0000348759D02*
X0003322716Y0000385177D01*
X0003322716Y0000385177D02*
X0003338799Y0000401259D01*
X0003225865Y0000283759D02*
X0003229802Y0000283759D01*
X0003229802Y0000283759D02*
X0003294802Y0000348759D01*
X0003294802Y0000348759D02*
X0003322716Y0000348759D01*
X0003225865Y0000201259D02*
X0003225865Y0000283759D01*
X0003466928Y0000844881D02*
X0003486614Y0000844881D01*
X0003045216Y0000893759D02*
X0003045216Y0000948759D01*
X0003506299Y0000844881D02*
X0003486614Y0000844881D01*
X0003486614Y0000450157D02*
X0003482716Y0000446259D01*
X0003045216Y0000948759D02*
X0003045216Y0000961968D01*
X0003045216Y0000961968D02*
X0003137007Y0001053759D01*
X0003137007Y0001053759D02*
X0003141928Y0001053759D01*
X0003141928Y0001053759D02*
X0003248562Y0001053759D01*
X0003248562Y0001053759D02*
X0003251161Y0001051161D01*
X0003255629Y0000692204D02*
X0003255629Y0000751259D01*
X0003255629Y0000690236D02*
X0003255629Y0000692204D01*
X0003432716Y0000446259D02*
X0003375216Y0000446259D01*
X0003095216Y0000948759D02*
X0003095216Y0000983602D01*
X0003095216Y0000983602D02*
X0003125373Y0001013759D01*
X0003125373Y0001013759D02*
X0003219665Y0001013759D01*
X0003219665Y0001013759D02*
X0003251161Y0001013759D01*
D58*
G36*
X0003645623Y0000415685D02*
X0003662055Y0000399224D01*
X0003683536Y0000390304D01*
X0003706794Y0000390285D01*
X0003720077Y0000395773D01*
X0003720077Y0000301876D01*
X0003718735Y0000302774D01*
X0003696361Y0000307224D01*
X0003694070Y0000307224D01*
X0003671697Y0000302774D01*
X0003652730Y0000290100D01*
X0003640056Y0000271133D01*
X0003635606Y0000248759D01*
X0003640056Y0000226386D01*
X0003652730Y0000207419D01*
X0003665689Y0000198759D01*
X0003652730Y0000190100D01*
X0003640056Y0000171133D01*
X0003635606Y0000148759D01*
X0003640056Y0000126386D01*
X0003652730Y0000107419D01*
X0003665666Y0000098775D01*
X0003664642Y0000098352D01*
X0003648181Y0000081920D01*
X0003647072Y0000079250D01*
X0003639057Y0000091245D01*
X0003620089Y0000103919D01*
X0003597716Y0000108369D01*
X0003575342Y0000103919D01*
X0003556375Y0000091245D01*
X0003547716Y0000078286D01*
X0003539057Y0000091245D01*
X0003520089Y0000103919D01*
X0003497716Y0000108369D01*
X0003475342Y0000103919D01*
X0003456375Y0000091245D01*
X0003447716Y0000078286D01*
X0003439057Y0000091245D01*
X0003420089Y0000103919D01*
X0003397716Y0000108369D01*
X0003383290Y0000105500D01*
X0003355845Y0000132945D01*
X0003361243Y0000132940D01*
X0003386358Y0000143318D01*
X0003405590Y0000162516D01*
X0003416011Y0000187613D01*
X0003416035Y0000214787D01*
X0003405658Y0000239902D01*
X0003386459Y0000259133D01*
X0003361362Y0000269555D01*
X0003334188Y0000269578D01*
X0003309074Y0000259201D01*
X0003289842Y0000240003D01*
X0003280883Y0000218427D01*
X0003280883Y0000226850D01*
X0003279140Y0000236114D01*
X0003274989Y0000242565D01*
X0003278874Y0000248252D01*
X0003280883Y0000258168D01*
X0003280883Y0000292525D01*
X0003286920Y0000298562D01*
X0003296141Y0000296695D01*
X0003349291Y0000296695D01*
X0003358555Y0000298438D01*
X0003367064Y0000303913D01*
X0003369869Y0000308018D01*
X0003381719Y0000300100D01*
X0003401456Y0000296174D01*
X0003421193Y0000300100D01*
X0003437925Y0000311280D01*
X0003440826Y0000315622D01*
X0003443727Y0000311280D01*
X0003460459Y0000300100D01*
X0003480196Y0000296174D01*
X0003499933Y0000300100D01*
X0003516665Y0000311280D01*
X0003527845Y0000328011D01*
X0003531771Y0000347749D01*
X0003531771Y0000349769D01*
X0003527845Y0000369507D01*
X0003516665Y0000386238D01*
X0003505964Y0000393389D01*
X0003508278Y0000396852D01*
X0003513621Y0000395770D01*
X0003551810Y0000395770D01*
X0003561075Y0000397513D01*
X0003569584Y0000402988D01*
X0003575292Y0000411342D01*
X0003576304Y0000416338D01*
X0003645353Y0000416338D01*
X0003645623Y0000415685D01*
X0003645623Y0000415685D01*
G37*
X0003645623Y0000415685D02*
X0003662055Y0000399224D01*
X0003683536Y0000390304D01*
X0003706794Y0000390285D01*
X0003720077Y0000395773D01*
X0003720077Y0000301876D01*
X0003718735Y0000302774D01*
X0003696361Y0000307224D01*
X0003694070Y0000307224D01*
X0003671697Y0000302774D01*
X0003652730Y0000290100D01*
X0003640056Y0000271133D01*
X0003635606Y0000248759D01*
X0003640056Y0000226386D01*
X0003652730Y0000207419D01*
X0003665689Y0000198759D01*
X0003652730Y0000190100D01*
X0003640056Y0000171133D01*
X0003635606Y0000148759D01*
X0003640056Y0000126386D01*
X0003652730Y0000107419D01*
X0003665666Y0000098775D01*
X0003664642Y0000098352D01*
X0003648181Y0000081920D01*
X0003647072Y0000079250D01*
X0003639057Y0000091245D01*
X0003620089Y0000103919D01*
X0003597716Y0000108369D01*
X0003575342Y0000103919D01*
X0003556375Y0000091245D01*
X0003547716Y0000078286D01*
X0003539057Y0000091245D01*
X0003520089Y0000103919D01*
X0003497716Y0000108369D01*
X0003475342Y0000103919D01*
X0003456375Y0000091245D01*
X0003447716Y0000078286D01*
X0003439057Y0000091245D01*
X0003420089Y0000103919D01*
X0003397716Y0000108369D01*
X0003383290Y0000105500D01*
X0003355845Y0000132945D01*
X0003361243Y0000132940D01*
X0003386358Y0000143318D01*
X0003405590Y0000162516D01*
X0003416011Y0000187613D01*
X0003416035Y0000214787D01*
X0003405658Y0000239902D01*
X0003386459Y0000259133D01*
X0003361362Y0000269555D01*
X0003334188Y0000269578D01*
X0003309074Y0000259201D01*
X0003289842Y0000240003D01*
X0003280883Y0000218427D01*
X0003280883Y0000226850D01*
X0003279140Y0000236114D01*
X0003274989Y0000242565D01*
X0003278874Y0000248252D01*
X0003280883Y0000258168D01*
X0003280883Y0000292525D01*
X0003286920Y0000298562D01*
X0003296141Y0000296695D01*
X0003349291Y0000296695D01*
X0003358555Y0000298438D01*
X0003367064Y0000303913D01*
X0003369869Y0000308018D01*
X0003381719Y0000300100D01*
X0003401456Y0000296174D01*
X0003421193Y0000300100D01*
X0003437925Y0000311280D01*
X0003440826Y0000315622D01*
X0003443727Y0000311280D01*
X0003460459Y0000300100D01*
X0003480196Y0000296174D01*
X0003499933Y0000300100D01*
X0003516665Y0000311280D01*
X0003527845Y0000328011D01*
X0003531771Y0000347749D01*
X0003531771Y0000349769D01*
X0003527845Y0000369507D01*
X0003516665Y0000386238D01*
X0003505964Y0000393389D01*
X0003508278Y0000396852D01*
X0003513621Y0000395770D01*
X0003551810Y0000395770D01*
X0003561075Y0000397513D01*
X0003569584Y0000402988D01*
X0003575292Y0000411342D01*
X0003576304Y0000416338D01*
X0003645353Y0000416338D01*
X0003645623Y0000415685D01*
G36*
X0003720077Y0001086119D02*
X0003659054Y0001086119D01*
X0003649790Y0001084376D01*
X0003641281Y0001078901D01*
X0003635573Y0001070546D01*
X0003633565Y0001060629D01*
X0003633565Y0001029133D01*
X0003635308Y0001019868D01*
X0003635405Y0001019717D01*
X0003633565Y0001010629D01*
X0003633565Y0000979133D01*
X0003635308Y0000969869D01*
X0003635405Y0000969718D01*
X0003633565Y0000960629D01*
X0003633565Y0000929133D01*
X0003635308Y0000919869D01*
X0003635405Y0000919718D01*
X0003633565Y0000910629D01*
X0003633565Y0000879133D01*
X0003635308Y0000869869D01*
X0003635405Y0000869718D01*
X0003633565Y0000860629D01*
X0003633565Y0000829133D01*
X0003635308Y0000819869D01*
X0003640782Y0000811360D01*
X0003649138Y0000805652D01*
X0003659054Y0000803644D01*
X0003720077Y0000803644D01*
X0003720077Y0000501739D01*
X0003706896Y0000507214D01*
X0003683638Y0000507233D01*
X0003662142Y0000498352D01*
X0003645681Y0000481920D01*
X0003643298Y0000476181D01*
X0003576374Y0000476181D01*
X0003575557Y0000480524D01*
X0003570081Y0000489033D01*
X0003561727Y0000494741D01*
X0003551810Y0000496749D01*
X0003518425Y0000496749D01*
X0003518425Y0000668737D01*
X0003527295Y0000670407D01*
X0003535803Y0000675882D01*
X0003541512Y0000684236D01*
X0003543521Y0000694153D01*
X0003543521Y0000743366D01*
X0003541777Y0000752630D01*
X0003536302Y0000761138D01*
X0003527948Y0000766846D01*
X0003518031Y0000768854D01*
X0003516535Y0000768854D01*
X0003516535Y0000803644D01*
X0003522046Y0000803644D01*
X0003531311Y0000805387D01*
X0003539820Y0000810861D01*
X0003545528Y0000819216D01*
X0003547536Y0000829133D01*
X0003547536Y0000860629D01*
X0003545793Y0000869894D01*
X0003545696Y0000870045D01*
X0003547536Y0000879133D01*
X0003547536Y0000910629D01*
X0003545793Y0000919894D01*
X0003545696Y0000920045D01*
X0003547536Y0000929133D01*
X0003547536Y0000960629D01*
X0003545793Y0000969894D01*
X0003540318Y0000978403D01*
X0003531964Y0000984111D01*
X0003522046Y0000986119D01*
X0003451180Y0000986119D01*
X0003447636Y0000985452D01*
X0003447636Y0001004361D01*
X0003451180Y0001003644D01*
X0003522046Y0001003644D01*
X0003531311Y0001005387D01*
X0003539820Y0001010861D01*
X0003543557Y0001016331D01*
X0003553733Y0001016331D01*
X0003559325Y0001002796D01*
X0003569672Y0000992433D01*
X0003583196Y0000986817D01*
X0003597841Y0000986804D01*
X0003611375Y0000992396D01*
X0003621739Y0001002742D01*
X0003627355Y0001016267D01*
X0003627367Y0001030912D01*
X0003621776Y0001044446D01*
X0003611429Y0001054810D01*
X0003597905Y0001060426D01*
X0003583260Y0001060439D01*
X0003569726Y0001054847D01*
X0003559362Y0001044500D01*
X0003553746Y0001030975D01*
X0003553733Y0001016331D01*
X0003543557Y0001016331D01*
X0003545528Y0001019215D01*
X0003547536Y0001029133D01*
X0003547536Y0001060629D01*
X0003545793Y0001069894D01*
X0003540318Y0001078403D01*
X0003531964Y0001084111D01*
X0003522046Y0001086119D01*
X0003451180Y0001086119D01*
X0003441916Y0001084376D01*
X0003433407Y0001078901D01*
X0003427699Y0001070546D01*
X0003427024Y0001067218D01*
X0003423126Y0001071117D01*
X0003422545Y0001074205D01*
X0003417070Y0001082714D01*
X0003408714Y0001088422D01*
X0003398799Y0001090430D01*
X0003339743Y0001090430D01*
X0003330479Y0001088687D01*
X0003321970Y0001083212D01*
X0003319791Y0001080023D01*
X0003313667Y0001078805D01*
X0003304697Y0001072811D01*
X0003304434Y0001074205D01*
X0003298960Y0001082714D01*
X0003290605Y0001088422D01*
X0003280687Y0001090430D01*
X0003221633Y0001090430D01*
X0003212369Y0001088687D01*
X0003204588Y0001083681D01*
X0003195946Y0001083681D01*
X0003195203Y0001087630D01*
X0003189727Y0001096139D01*
X0003181373Y0001101847D01*
X0003171456Y0001103855D01*
X0003112401Y0001103855D01*
X0003103136Y0001102112D01*
X0003094628Y0001096637D01*
X0003088919Y0001088283D01*
X0003086911Y0001078366D01*
X0003086911Y0001045978D01*
X0003040182Y0000999249D01*
X0003026121Y0000999249D01*
X0003016857Y0000997506D01*
X0003008348Y0000992031D01*
X0003002640Y0000983676D01*
X0003000632Y0000973758D01*
X0003000632Y0000923759D01*
X0003002375Y0000914495D01*
X0003007850Y0000905986D01*
X0003009863Y0000904611D01*
X0003008410Y0000901114D01*
X0003008398Y0000886469D01*
X0003013991Y0000872935D01*
X0003024337Y0000862571D01*
X0003037862Y0000856955D01*
X0003052505Y0000856942D01*
X0003066040Y0000862533D01*
X0003076404Y0000872880D01*
X0003082021Y0000886405D01*
X0003082031Y0000898270D01*
X0003114310Y0000898270D01*
X0003123575Y0000900013D01*
X0003132084Y0000905488D01*
X0003137792Y0000913842D01*
X0003139799Y0000923759D01*
X0003139799Y0000973758D01*
X0003138057Y0000983024D01*
X0003137625Y0000983696D01*
X0003137766Y0000983838D01*
X0003202312Y0000983838D01*
X0003203362Y0000982207D01*
X0003211716Y0000976498D01*
X0003221633Y0000974490D01*
X0003280687Y0000974490D01*
X0003289952Y0000976233D01*
X0003290295Y0000976453D01*
X0003290295Y0000859901D01*
X0003292572Y0000848451D01*
X0003299058Y0000838744D01*
X0003327585Y0000810216D01*
X0003326991Y0000809817D01*
X0003304354Y0000787181D01*
X0003297868Y0000777473D01*
X0003295590Y0000766023D01*
X0003295590Y0000713951D01*
X0003286765Y0000719847D01*
X0003285551Y0000720089D01*
X0003285551Y0000724551D01*
X0003288953Y0000729531D01*
X0003290962Y0000739448D01*
X0003290962Y0000763070D01*
X0003289218Y0000772335D01*
X0003283743Y0000780844D01*
X0003283688Y0000780881D01*
X0003288953Y0000788586D01*
X0003290962Y0000798503D01*
X0003290962Y0000822124D01*
X0003289218Y0000831390D01*
X0003283743Y0000839899D01*
X0003275389Y0000845607D01*
X0003265472Y0000847615D01*
X0003245787Y0000847615D01*
X0003236522Y0000845872D01*
X0003228013Y0000840397D01*
X0003222305Y0000832042D01*
X0003220297Y0000822124D01*
X0003220297Y0000798503D01*
X0003222040Y0000789239D01*
X0003227514Y0000780730D01*
X0003227570Y0000780692D01*
X0003222305Y0000772987D01*
X0003220297Y0000763070D01*
X0003220297Y0000739448D01*
X0003222040Y0000730184D01*
X0003225708Y0000724484D01*
X0003225708Y0000722892D01*
X0003222738Y0000722892D01*
X0003221069Y0000731764D01*
X0003215593Y0000740273D01*
X0003207239Y0000745981D01*
X0003203610Y0000746716D01*
X0003204521Y0000748905D01*
X0003204532Y0000763549D01*
X0003198941Y0000777084D01*
X0003188595Y0000787448D01*
X0003175070Y0000793064D01*
X0003160426Y0000793077D01*
X0003146891Y0000787484D01*
X0003136526Y0000777138D01*
X0003130911Y0000763614D01*
X0003130898Y0000748969D01*
X0003133456Y0000742778D01*
X0003130335Y0000740771D01*
X0003124628Y0000732416D01*
X0003122619Y0000722500D01*
X0003122619Y0000663444D01*
X0003124363Y0000654180D01*
X0003129838Y0000645671D01*
X0003138193Y0000639963D01*
X0003148110Y0000637954D01*
X0003197322Y0000637954D01*
X0003206586Y0000639698D01*
X0003215095Y0000645173D01*
X0003220804Y0000653527D01*
X0003222732Y0000663051D01*
X0003227238Y0000663051D01*
X0003227514Y0000662620D01*
X0003235870Y0000656912D01*
X0003245787Y0000654903D01*
X0003265472Y0000654903D01*
X0003269535Y0000655668D01*
X0003269999Y0000655204D01*
X0003269999Y0000640674D01*
X0003269548Y0000640014D01*
X0003267541Y0000630098D01*
X0003267541Y0000616018D01*
X0003253173Y0000601649D01*
X0003246685Y0000591942D01*
X0003244409Y0000580492D01*
X0003244409Y0000577681D01*
X0003243959Y0000577023D01*
X0003241951Y0000567106D01*
X0003241951Y0000547421D01*
X0003243694Y0000538156D01*
X0003249169Y0000529647D01*
X0003257523Y0000523939D01*
X0003267440Y0000521931D01*
X0003281220Y0000521931D01*
X0003290484Y0000523674D01*
X0003298992Y0000529150D01*
X0003299857Y0000530414D01*
X0003300350Y0000529647D01*
X0003308704Y0000523939D01*
X0003318621Y0000521931D01*
X0003332401Y0000521931D01*
X0003336923Y0000522781D01*
X0003207822Y0000393681D01*
X0003192660Y0000393681D01*
X0003181210Y0000391403D01*
X0003173719Y0000386398D01*
X0003156850Y0000386398D01*
X0003145400Y0000384120D01*
X0003135693Y0000377634D01*
X0003098409Y0000340349D01*
X0003094727Y0000334840D01*
X0003090039Y0000334840D01*
X0003080774Y0000333095D01*
X0003072265Y0000327621D01*
X0003066557Y0000319267D01*
X0003064549Y0000309350D01*
X0003064549Y0000308599D01*
X0003059039Y0000304917D01*
X0003046558Y0000292437D01*
X0003041350Y0000284641D01*
X0003037702Y0000290100D01*
X0003024742Y0000298759D01*
X0003037702Y0000307419D01*
X0003050375Y0000326386D01*
X0003054826Y0000348759D01*
X0003050375Y0000371133D01*
X0003037702Y0000390100D01*
X0003024742Y0000398759D01*
X0003037702Y0000407419D01*
X0003050375Y0000426386D01*
X0003054826Y0000448759D01*
X0003050375Y0000471133D01*
X0003037702Y0000490100D01*
X0003018735Y0000502774D01*
X0002996361Y0000507224D01*
X0002994070Y0000507224D01*
X0002988582Y0000506132D01*
X0002988582Y0001153149D01*
X0003720077Y0001153149D01*
X0003720077Y0001086119D01*
X0003720077Y0001086119D01*
G37*
X0003720077Y0001086119D02*
X0003659054Y0001086119D01*
X0003649790Y0001084376D01*
X0003641281Y0001078901D01*
X0003635573Y0001070546D01*
X0003633565Y0001060629D01*
X0003633565Y0001029133D01*
X0003635308Y0001019868D01*
X0003635405Y0001019717D01*
X0003633565Y0001010629D01*
X0003633565Y0000979133D01*
X0003635308Y0000969869D01*
X0003635405Y0000969718D01*
X0003633565Y0000960629D01*
X0003633565Y0000929133D01*
X0003635308Y0000919869D01*
X0003635405Y0000919718D01*
X0003633565Y0000910629D01*
X0003633565Y0000879133D01*
X0003635308Y0000869869D01*
X0003635405Y0000869718D01*
X0003633565Y0000860629D01*
X0003633565Y0000829133D01*
X0003635308Y0000819869D01*
X0003640782Y0000811360D01*
X0003649138Y0000805652D01*
X0003659054Y0000803644D01*
X0003720077Y0000803644D01*
X0003720077Y0000501739D01*
X0003706896Y0000507214D01*
X0003683638Y0000507233D01*
X0003662142Y0000498352D01*
X0003645681Y0000481920D01*
X0003643298Y0000476181D01*
X0003576374Y0000476181D01*
X0003575557Y0000480524D01*
X0003570081Y0000489033D01*
X0003561727Y0000494741D01*
X0003551810Y0000496749D01*
X0003518425Y0000496749D01*
X0003518425Y0000668737D01*
X0003527295Y0000670407D01*
X0003535803Y0000675882D01*
X0003541512Y0000684236D01*
X0003543521Y0000694153D01*
X0003543521Y0000743366D01*
X0003541777Y0000752630D01*
X0003536302Y0000761138D01*
X0003527948Y0000766846D01*
X0003518031Y0000768854D01*
X0003516535Y0000768854D01*
X0003516535Y0000803644D01*
X0003522046Y0000803644D01*
X0003531311Y0000805387D01*
X0003539820Y0000810861D01*
X0003545528Y0000819216D01*
X0003547536Y0000829133D01*
X0003547536Y0000860629D01*
X0003545793Y0000869894D01*
X0003545696Y0000870045D01*
X0003547536Y0000879133D01*
X0003547536Y0000910629D01*
X0003545793Y0000919894D01*
X0003545696Y0000920045D01*
X0003547536Y0000929133D01*
X0003547536Y0000960629D01*
X0003545793Y0000969894D01*
X0003540318Y0000978403D01*
X0003531964Y0000984111D01*
X0003522046Y0000986119D01*
X0003451180Y0000986119D01*
X0003447636Y0000985452D01*
X0003447636Y0001004361D01*
X0003451180Y0001003644D01*
X0003522046Y0001003644D01*
X0003531311Y0001005387D01*
X0003539820Y0001010861D01*
X0003543557Y0001016331D01*
X0003553733Y0001016331D01*
X0003559325Y0001002796D01*
X0003569672Y0000992433D01*
X0003583196Y0000986817D01*
X0003597841Y0000986804D01*
X0003611375Y0000992396D01*
X0003621739Y0001002742D01*
X0003627355Y0001016267D01*
X0003627367Y0001030912D01*
X0003621776Y0001044446D01*
X0003611429Y0001054810D01*
X0003597905Y0001060426D01*
X0003583260Y0001060439D01*
X0003569726Y0001054847D01*
X0003559362Y0001044500D01*
X0003553746Y0001030975D01*
X0003553733Y0001016331D01*
X0003543557Y0001016331D01*
X0003545528Y0001019215D01*
X0003547536Y0001029133D01*
X0003547536Y0001060629D01*
X0003545793Y0001069894D01*
X0003540318Y0001078403D01*
X0003531964Y0001084111D01*
X0003522046Y0001086119D01*
X0003451180Y0001086119D01*
X0003441916Y0001084376D01*
X0003433407Y0001078901D01*
X0003427699Y0001070546D01*
X0003427024Y0001067218D01*
X0003423126Y0001071117D01*
X0003422545Y0001074205D01*
X0003417070Y0001082714D01*
X0003408714Y0001088422D01*
X0003398799Y0001090430D01*
X0003339743Y0001090430D01*
X0003330479Y0001088687D01*
X0003321970Y0001083212D01*
X0003319791Y0001080023D01*
X0003313667Y0001078805D01*
X0003304697Y0001072811D01*
X0003304434Y0001074205D01*
X0003298960Y0001082714D01*
X0003290605Y0001088422D01*
X0003280687Y0001090430D01*
X0003221633Y0001090430D01*
X0003212369Y0001088687D01*
X0003204588Y0001083681D01*
X0003195946Y0001083681D01*
X0003195203Y0001087630D01*
X0003189727Y0001096139D01*
X0003181373Y0001101847D01*
X0003171456Y0001103855D01*
X0003112401Y0001103855D01*
X0003103136Y0001102112D01*
X0003094628Y0001096637D01*
X0003088919Y0001088283D01*
X0003086911Y0001078366D01*
X0003086911Y0001045978D01*
X0003040182Y0000999249D01*
X0003026121Y0000999249D01*
X0003016857Y0000997506D01*
X0003008348Y0000992031D01*
X0003002640Y0000983676D01*
X0003000632Y0000973758D01*
X0003000632Y0000923759D01*
X0003002375Y0000914495D01*
X0003007850Y0000905986D01*
X0003009863Y0000904611D01*
X0003008410Y0000901114D01*
X0003008398Y0000886469D01*
X0003013991Y0000872935D01*
X0003024337Y0000862571D01*
X0003037862Y0000856955D01*
X0003052505Y0000856942D01*
X0003066040Y0000862533D01*
X0003076404Y0000872880D01*
X0003082021Y0000886405D01*
X0003082031Y0000898270D01*
X0003114310Y0000898270D01*
X0003123575Y0000900013D01*
X0003132084Y0000905488D01*
X0003137792Y0000913842D01*
X0003139799Y0000923759D01*
X0003139799Y0000973758D01*
X0003138057Y0000983024D01*
X0003137625Y0000983696D01*
X0003137766Y0000983838D01*
X0003202312Y0000983838D01*
X0003203362Y0000982207D01*
X0003211716Y0000976498D01*
X0003221633Y0000974490D01*
X0003280687Y0000974490D01*
X0003289952Y0000976233D01*
X0003290295Y0000976453D01*
X0003290295Y0000859901D01*
X0003292572Y0000848451D01*
X0003299058Y0000838744D01*
X0003327585Y0000810216D01*
X0003326991Y0000809817D01*
X0003304354Y0000787181D01*
X0003297868Y0000777473D01*
X0003295590Y0000766023D01*
X0003295590Y0000713951D01*
X0003286765Y0000719847D01*
X0003285551Y0000720089D01*
X0003285551Y0000724551D01*
X0003288953Y0000729531D01*
X0003290962Y0000739448D01*
X0003290962Y0000763070D01*
X0003289218Y0000772335D01*
X0003283743Y0000780844D01*
X0003283688Y0000780881D01*
X0003288953Y0000788586D01*
X0003290962Y0000798503D01*
X0003290962Y0000822124D01*
X0003289218Y0000831390D01*
X0003283743Y0000839899D01*
X0003275389Y0000845607D01*
X0003265472Y0000847615D01*
X0003245787Y0000847615D01*
X0003236522Y0000845872D01*
X0003228013Y0000840397D01*
X0003222305Y0000832042D01*
X0003220297Y0000822124D01*
X0003220297Y0000798503D01*
X0003222040Y0000789239D01*
X0003227514Y0000780730D01*
X0003227570Y0000780692D01*
X0003222305Y0000772987D01*
X0003220297Y0000763070D01*
X0003220297Y0000739448D01*
X0003222040Y0000730184D01*
X0003225708Y0000724484D01*
X0003225708Y0000722892D01*
X0003222738Y0000722892D01*
X0003221069Y0000731764D01*
X0003215593Y0000740273D01*
X0003207239Y0000745981D01*
X0003203610Y0000746716D01*
X0003204521Y0000748905D01*
X0003204532Y0000763549D01*
X0003198941Y0000777084D01*
X0003188595Y0000787448D01*
X0003175070Y0000793064D01*
X0003160426Y0000793077D01*
X0003146891Y0000787484D01*
X0003136526Y0000777138D01*
X0003130911Y0000763614D01*
X0003130898Y0000748969D01*
X0003133456Y0000742778D01*
X0003130335Y0000740771D01*
X0003124628Y0000732416D01*
X0003122619Y0000722500D01*
X0003122619Y0000663444D01*
X0003124363Y0000654180D01*
X0003129838Y0000645671D01*
X0003138193Y0000639963D01*
X0003148110Y0000637954D01*
X0003197322Y0000637954D01*
X0003206586Y0000639698D01*
X0003215095Y0000645173D01*
X0003220804Y0000653527D01*
X0003222732Y0000663051D01*
X0003227238Y0000663051D01*
X0003227514Y0000662620D01*
X0003235870Y0000656912D01*
X0003245787Y0000654903D01*
X0003265472Y0000654903D01*
X0003269535Y0000655668D01*
X0003269999Y0000655204D01*
X0003269999Y0000640674D01*
X0003269548Y0000640014D01*
X0003267541Y0000630098D01*
X0003267541Y0000616018D01*
X0003253173Y0000601649D01*
X0003246685Y0000591942D01*
X0003244409Y0000580492D01*
X0003244409Y0000577681D01*
X0003243959Y0000577023D01*
X0003241951Y0000567106D01*
X0003241951Y0000547421D01*
X0003243694Y0000538156D01*
X0003249169Y0000529647D01*
X0003257523Y0000523939D01*
X0003267440Y0000521931D01*
X0003281220Y0000521931D01*
X0003290484Y0000523674D01*
X0003298992Y0000529150D01*
X0003299857Y0000530414D01*
X0003300350Y0000529647D01*
X0003308704Y0000523939D01*
X0003318621Y0000521931D01*
X0003332401Y0000521931D01*
X0003336923Y0000522781D01*
X0003207822Y0000393681D01*
X0003192660Y0000393681D01*
X0003181210Y0000391403D01*
X0003173719Y0000386398D01*
X0003156850Y0000386398D01*
X0003145400Y0000384120D01*
X0003135693Y0000377634D01*
X0003098409Y0000340349D01*
X0003094727Y0000334840D01*
X0003090039Y0000334840D01*
X0003080774Y0000333095D01*
X0003072265Y0000327621D01*
X0003066557Y0000319267D01*
X0003064549Y0000309350D01*
X0003064549Y0000308599D01*
X0003059039Y0000304917D01*
X0003046558Y0000292437D01*
X0003041350Y0000284641D01*
X0003037702Y0000290100D01*
X0003024742Y0000298759D01*
X0003037702Y0000307419D01*
X0003050375Y0000326386D01*
X0003054826Y0000348759D01*
X0003050375Y0000371133D01*
X0003037702Y0000390100D01*
X0003024742Y0000398759D01*
X0003037702Y0000407419D01*
X0003050375Y0000426386D01*
X0003054826Y0000448759D01*
X0003050375Y0000471133D01*
X0003037702Y0000490100D01*
X0003018735Y0000502774D01*
X0002996361Y0000507224D01*
X0002994070Y0000507224D01*
X0002988582Y0000506132D01*
X0002988582Y0001153149D01*
X0003720077Y0001153149D01*
X0003720077Y0001086119D01*
G01*
D69*
D70*
X-0002157480Y0006771653D02*
X0003692519Y0002421653D03*
X0003592519Y0002421653D03*
X0003692519Y0002321653D03*
X0003592519Y0002321653D03*
X0002992519Y0002421653D03*
X0003092519Y0002421653D03*
X0003192519Y0002421653D03*
X0003292519Y0002421653D03*
X0003392519Y0002421653D03*
X0003492519Y0002421653D03*
X0002992519Y0002321653D03*
X0003092519Y0002321653D03*
X0003192519Y0002321653D03*
X0003292519Y0002321653D03*
X0003392519Y0002321653D03*
X0003492519Y0002321653D03*
X0002992519Y0002221653D03*
X0003092519Y0002221653D03*
X0003192519Y0002221653D03*
X0003292519Y0002221653D03*
X0003392519Y0002221653D03*
X0003492519Y0002221653D03*
X0003592519Y0002221653D03*
X0003692519Y0002221653D03*
X0002992519Y0002121653D03*
X0003092519Y0002121653D03*
X0003192519Y0002121653D03*
X0003292519Y0002121653D03*
X0003392519Y0002121653D03*
X0003492519Y0002121653D03*
X0003592519Y0002121653D03*
X0003692519Y0002121653D03*
X0002992519Y0002021653D03*
X0003092519Y0002021653D03*
X0003192519Y0002021653D03*
X0003292519Y0002021653D03*
X0003392519Y0002021653D03*
X0003492519Y0002021653D03*
X0003592519Y0002021653D03*
X0003692519Y0002021653D03*
X0002992519Y0001921653D03*
X0003092519Y0001921653D03*
X0003192519Y0001921653D03*
X0003292519Y0001921653D03*
X0003392519Y0001921653D03*
X0003492519Y0001921653D03*
X0003592519Y0001921653D03*
X0003692519Y0001921653D03*
X0002992519Y0001821653D03*
X0003092519Y0001821653D03*
X0003192519Y0001821653D03*
X0003292519Y0001821653D03*
X0003392519Y0001821653D03*
X0003492519Y0001821653D03*
X0003592519Y0001821653D03*
X0003692519Y0001821653D03*
X0002992519Y0001721653D03*
X0003092519Y0001721653D03*
X0003192519Y0001721653D03*
X0003292519Y0001721653D03*
X0003392519Y0001721653D03*
X0003492519Y0001721653D03*
X0003592519Y0001721653D03*
X0003692519Y0001721653D03*
X0002992519Y0001621653D03*
X0003092519Y0001621653D03*
X0003192519Y0001621653D03*
X0003292519Y0001621653D03*
X0003392519Y0001621653D03*
X0003492519Y0001621653D03*
X0003592519Y0001621653D03*
X0003692519Y0001621653D03*
X0002992519Y0001521653D03*
X0003092519Y0001521653D03*
X0003192519Y0001521653D03*
X0003492519Y0001521653D03*
X0003592519Y0001521653D03*
X0003692519Y0001521653D03*
X0003192519Y0001421653D03*
X0003492519Y0001421653D03*
X0003592519Y0001421653D03*
X0003692519Y0001421653D03*
X0003192519Y0001321653D03*
X0003292519Y0001321653D03*
X0003392519Y0001321653D03*
X0003492519Y0001321653D03*
X0003592519Y0001321653D03*
X0003692519Y0001321653D03*
G04 next file*
%LPD*%
G01*
D81*
D82*
X-0002157480Y0008070866D02*
X0003692519Y0003720866D03*
X0003592519Y0003720866D03*
X0003692519Y0003620866D03*
X0003592519Y0003620866D03*
X0002992519Y0003720866D03*
X0003092519Y0003720866D03*
X0003192519Y0003720866D03*
X0003292519Y0003720866D03*
X0003392519Y0003720866D03*
X0003492519Y0003720866D03*
X0002992519Y0003620866D03*
X0003092519Y0003620866D03*
X0003192519Y0003620866D03*
X0003292519Y0003620866D03*
X0003392519Y0003620866D03*
X0003492519Y0003620866D03*
X0002992519Y0003520866D03*
X0003092519Y0003520866D03*
X0003192519Y0003520866D03*
X0003292519Y0003520866D03*
X0003392519Y0003520866D03*
X0003492519Y0003520866D03*
X0003592519Y0003520866D03*
X0003692519Y0003520866D03*
X0002992519Y0003420866D03*
X0003092519Y0003420866D03*
X0003192519Y0003420866D03*
X0003292519Y0003420866D03*
X0003392519Y0003420866D03*
X0003492519Y0003420866D03*
X0003592519Y0003420866D03*
X0003692519Y0003420866D03*
X0002992519Y0003320866D03*
X0003092519Y0003320866D03*
X0003192519Y0003320866D03*
X0003292519Y0003320866D03*
X0003392519Y0003320866D03*
X0003492519Y0003320866D03*
X0003592519Y0003320866D03*
X0003692519Y0003320866D03*
X0002992519Y0003220865D03*
X0003092519Y0003220865D03*
X0003192519Y0003220865D03*
X0003292519Y0003220865D03*
X0003392519Y0003220865D03*
X0003492519Y0003220865D03*
X0003592519Y0003220865D03*
X0003692519Y0003220865D03*
X0002992519Y0003120866D03*
X0003092519Y0003120866D03*
X0003192519Y0003120866D03*
X0003292519Y0003120866D03*
X0003392519Y0003120866D03*
X0003492519Y0003120866D03*
X0003592519Y0003120866D03*
X0003692519Y0003120866D03*
X0002992519Y0003020866D03*
X0003092519Y0003020866D03*
X0003192519Y0003020866D03*
X0003292519Y0003020866D03*
X0003392519Y0003020866D03*
X0003492519Y0003020866D03*
X0003592519Y0003020866D03*
X0003692519Y0003020866D03*
X0002992519Y0002920866D03*
X0003092519Y0002920866D03*
X0003192519Y0002920866D03*
X0003292519Y0002920866D03*
X0003392519Y0002920866D03*
X0003492519Y0002920866D03*
X0003592519Y0002920866D03*
X0003692519Y0002920866D03*
X0002992519Y0002820865D03*
X0003092519Y0002820865D03*
X0003192519Y0002820865D03*
X0003492519Y0002820865D03*
X0003592519Y0002820865D03*
X0003692519Y0002820865D03*
X0003192519Y0002720866D03*
X0003492519Y0002720866D03*
X0003592519Y0002720866D03*
X0003692519Y0002720866D03*
X0003192519Y0002620866D03*
X0003292519Y0002620866D03*
X0003392519Y0002620866D03*
X0003492519Y0002620866D03*
X0003592519Y0002620866D03*
X0003692519Y0002620866D03*
G01*
D93*
D94*
X-0005118110Y0008031496D02*
X0000731889Y0003681496D03*
X0000631889Y0003681496D03*
X0000731889Y0003581496D03*
X0000631889Y0003581496D03*
X0000031889Y0003681496D03*
X0000131889Y0003681496D03*
X0000231889Y0003681496D03*
X0000331889Y0003681496D03*
X0000431889Y0003681496D03*
X0000531889Y0003681496D03*
X0000031889Y0003581496D03*
X0000131889Y0003581496D03*
X0000231889Y0003581496D03*
X0000331889Y0003581496D03*
X0000431889Y0003581496D03*
X0000531889Y0003581496D03*
X0000031889Y0003481496D03*
X0000131889Y0003481496D03*
X0000231889Y0003481496D03*
X0000331889Y0003481496D03*
X0000431889Y0003481496D03*
X0000531889Y0003481496D03*
X0000631889Y0003481496D03*
X0000731889Y0003481496D03*
X0000031889Y0003381496D03*
X0000131889Y0003381496D03*
X0000231889Y0003381496D03*
X0000331889Y0003381496D03*
X0000431889Y0003381496D03*
X0000531889Y0003381496D03*
X0000631889Y0003381496D03*
X0000731889Y0003381496D03*
X0000031889Y0003281496D03*
X0000131889Y0003281496D03*
X0000231889Y0003281496D03*
X0000331889Y0003281496D03*
X0000431889Y0003281496D03*
X0000531889Y0003281496D03*
X0000631889Y0003281496D03*
X0000731889Y0003281496D03*
X0000031889Y0003181496D03*
X0000131889Y0003181496D03*
X0000231889Y0003181496D03*
X0000331889Y0003181496D03*
X0000431889Y0003181496D03*
X0000531889Y0003181496D03*
X0000631889Y0003181496D03*
X0000731889Y0003181496D03*
X0000031889Y0003081496D03*
X0000131889Y0003081496D03*
X0000231889Y0003081496D03*
X0000331889Y0003081496D03*
X0000431889Y0003081496D03*
X0000531889Y0003081496D03*
X0000631889Y0003081496D03*
X0000731889Y0003081496D03*
X0000031889Y0002981496D03*
X0000131889Y0002981496D03*
X0000231889Y0002981496D03*
X0000331889Y0002981496D03*
X0000431889Y0002981496D03*
X0000531889Y0002981496D03*
X0000631889Y0002981496D03*
X0000731889Y0002981496D03*
X0000031889Y0002881496D03*
X0000131889Y0002881496D03*
X0000231889Y0002881496D03*
X0000331889Y0002881496D03*
X0000431889Y0002881496D03*
X0000531889Y0002881496D03*
X0000631889Y0002881496D03*
X0000731889Y0002881496D03*
X0000031889Y0002781496D03*
X0000131889Y0002781496D03*
X0000231889Y0002781496D03*
X0000531889Y0002781496D03*
X0000631889Y0002781496D03*
X0000731889Y0002781496D03*
X0000231889Y0002681496D03*
X0000531889Y0002681496D03*
X0000631889Y0002681496D03*
X0000731889Y0002681496D03*
X0000231889Y0002581496D03*
X0000331889Y0002581496D03*
X0000431889Y0002581496D03*
X0000531889Y0002581496D03*
X0000631889Y0002581496D03*
X0000731889Y0002581496D03*
G04 next file*
G01*
D105*
D106*
X-0006692913Y0006181102D02*
X0000034586Y0001808602D03*
D107*
X0000034586Y0001708602D03*
X0000034586Y0001608602D03*
X0000034586Y0001508602D03*
D106*
X0000734586Y0001708602D03*
D107*
X0000734586Y0001608602D03*
X0000734586Y0001508602D03*
X0000734586Y0001408602D03*
D106*
X0000737086Y0001308602D03*
D107*
X0000637086Y0001308602D03*
X0000537086Y0001308602D03*
X0000437086Y0001308602D03*
X0000337086Y0001308602D03*
X0000237086Y0001308602D03*
D108*
X0000181299Y0002313602D03*
X0000082873Y0002313602D03*
D109*
X0000212086Y0001952814D03*
X0000212086Y0001854389D03*
D110*
X0000472086Y0001706102D03*
X0000522086Y0001706102D03*
X0000572086Y0001706102D03*
X0000184586Y0002208602D03*
X0000134586Y0002208602D03*
X0000084586Y0002208602D03*
D111*
X0000158937Y0001543602D03*
X0000265236Y0001543602D03*
X0000158937Y0001461102D03*
X0000265236Y0001461102D03*
D112*
X0000629921Y0002283464D03*
D113*
X0000525984Y0002204724D03*
X0000525984Y0002254724D03*
X0000525984Y0002304724D03*
X0000525984Y0002154724D03*
X0000525984Y0002104724D03*
X0000733858Y0002204724D03*
X0000733858Y0002254724D03*
X0000733858Y0002304724D03*
X0000733858Y0002154724D03*
X0000733858Y0002104724D03*
D114*
X0000290531Y0002236200D03*
X0000290531Y0002273602D03*
X0000290531Y0002311003D03*
X0000408641Y0002311003D03*
X0000408641Y0002273602D03*
X0000408641Y0002236200D03*
D115*
X0000294999Y0002070157D03*
X0000294999Y0002011102D03*
X0000294999Y0001952047D03*
X0000409173Y0001952047D03*
X0000409173Y0002011102D03*
X0000409173Y0002070157D03*
D116*
X0000352086Y0002072125D03*
D117*
X0000362086Y0001608602D03*
D118*
X0000440826Y0001608602D03*
X0000519566Y0001608602D03*
X0000598307Y0001608602D03*
D108*
X0000527873Y0001978602D03*
X0000626299Y0001978602D03*
D119*
X0000313700Y0001880098D03*
X0000339291Y0001880098D03*
X0000364881Y0001880098D03*
X0000390472Y0001880098D03*
X0000313700Y0001817106D03*
X0000339291Y0001817106D03*
X0000364881Y0001817106D03*
X0000390472Y0001817106D03*
D112*
X0000322086Y0001381102D03*
X0000207086Y0002016102D03*
X0000464585Y0002106102D03*
X0000084586Y0002153602D03*
X0000414585Y0001706102D03*
D120*
X0000034586Y0001808602D02*
X0000282440Y0001808602D01*
X0000282440Y0001808602D02*
X0000287086Y0001803956D01*
X0000304940Y0001786101D02*
X0000331495Y0001786101D01*
X0000331495Y0001786101D02*
X0000339291Y0001793897D01*
X0000287086Y0001850531D02*
X0000287086Y0001803956D01*
X0000287086Y0001803956D02*
X0000304940Y0001786101D01*
X0000313700Y0001880098D02*
X0000313700Y0001877145D01*
X0000313700Y0001877145D02*
X0000287086Y0001850531D01*
X0000347086Y0001786101D02*
X0000339291Y0001793897D01*
X0000339291Y0001793897D02*
X0000339291Y0001817106D01*
X0000379153Y0001786101D02*
X0000347086Y0001786101D01*
X0000390472Y0001817106D02*
X0000390472Y0001797420D01*
X0000390472Y0001797420D02*
X0000379153Y0001786101D01*
X0000184586Y0002208602D02*
X0000284586Y0002208602D01*
X0000290531Y0002214547D02*
X0000290531Y0002236200D01*
X0000284586Y0002208602D02*
X0000290531Y0002214547D01*
X0000408641Y0002311003D02*
X0000364487Y0002311003D01*
X0000359586Y0002119744D02*
X0000409173Y0002070157D01*
X0000359586Y0002306102D02*
X0000359586Y0002119744D01*
X0000364487Y0002311003D02*
X0000359586Y0002306102D01*
X0000409173Y0002072125D02*
X0000409173Y0002070157D01*
X0000457085Y0002228346D02*
X0000457085Y0002294055D01*
X0000457085Y0002294055D02*
X0000440137Y0002311003D01*
X0000440137Y0002311003D02*
X0000408641Y0002311003D01*
X0000525984Y0002204724D02*
X0000480708Y0002204724D01*
X0000480708Y0002204724D02*
X0000457085Y0002228346D01*
X0000410157Y0001801728D02*
X0000410157Y0001774173D01*
X0000259585Y0001623602D02*
X0000232031Y0001623602D01*
X0000410157Y0001774173D02*
X0000259585Y0001623602D01*
X0000224748Y0001616319D02*
X0000196220Y0001616319D01*
X0000232031Y0001623602D02*
X0000224748Y0001616319D01*
X0000158937Y0001579033D02*
X0000158937Y0001543602D01*
X0000196220Y0001616319D02*
X0000158937Y0001579033D01*
X0000410157Y0001837185D02*
X0000410157Y0001801728D01*
X0000407598Y0001839744D02*
X0000410157Y0001837185D01*
X0000385551Y0001839744D02*
X0000407598Y0001839744D01*
X0000364881Y0001880098D02*
X0000364881Y0001860413D01*
X0000364881Y0001860413D02*
X0000385551Y0001839744D01*
X0000364881Y0001880098D02*
X0000364881Y0002025866D01*
X0000364881Y0002025866D02*
X0000387519Y0002048503D01*
X0000387519Y0002048503D02*
X0000389488Y0002048503D01*
X0000389488Y0002048503D02*
X0000409173Y0002068188D01*
X0000409173Y0002068188D02*
X0000409173Y0002070157D01*
X0000107086Y0001531122D02*
X0000107086Y0001434803D01*
X0000107086Y0001434803D02*
X0000160787Y0001381102D01*
X0000160787Y0001381102D02*
X0000322086Y0001381102D01*
X0000158937Y0001543602D02*
X0000119566Y0001543602D01*
X0000119566Y0001543602D02*
X0000107086Y0001531122D01*
X0000408641Y0002236200D02*
X0000408641Y0002193602D01*
X0000525984Y0002154724D02*
X0000480708Y0002154724D01*
X0000408641Y0002193602D02*
X0000408641Y0002129547D01*
X0000480708Y0002154724D02*
X0000441830Y0002193602D01*
X0000441830Y0002193602D02*
X0000408641Y0002193602D01*
X0000429586Y0001791401D02*
X0000429586Y0001758602D01*
X0000269586Y0001598602D02*
X0000236787Y0001598602D01*
X0000429586Y0001758602D02*
X0000269586Y0001598602D01*
X0000212086Y0001573901D02*
X0000212086Y0001510314D01*
X0000236787Y0001598602D02*
X0000212086Y0001573901D01*
X0000212086Y0001510314D02*
X0000162874Y0001461102D01*
X0000162874Y0001461102D02*
X0000158937Y0001461102D01*
X0000429586Y0001857716D02*
X0000429586Y0001791401D01*
X0000390472Y0001880098D02*
X0000407204Y0001880098D01*
X0000407204Y0001880098D02*
X0000429586Y0001857716D01*
X0000390472Y0001880098D02*
X0000390472Y0001899783D01*
X0000390472Y0001899783D02*
X0000386535Y0001903719D01*
X0000386535Y0001903719D02*
X0000386535Y0001986495D01*
X0000386535Y0001986495D02*
X0000409173Y0002009132D01*
X0000409173Y0002009132D02*
X0000409173Y0002011102D01*
X0000437086Y0002011102D02*
X0000437086Y0002043602D01*
X0000409173Y0002011102D02*
X0000428858Y0002011102D01*
X0000428858Y0002011102D02*
X0000437086Y0002011102D01*
X0000437086Y0002101102D02*
X0000437086Y0002043602D01*
X0000437086Y0002043602D02*
X0000437086Y0002039015D01*
X0000403622Y0001342066D02*
X0000437086Y0001308602D01*
X0000339980Y0001405707D02*
X0000403622Y0001342066D01*
X0000218267Y0001405707D02*
X0000339980Y0001405707D01*
X0000162874Y0001461102D02*
X0000218267Y0001405707D01*
X0000408641Y0002129547D02*
X0000437086Y0002101102D01*
X0000572086Y0001706102D02*
X0000732085Y0001706102D01*
X0000732085Y0001706102D02*
X0000734586Y0001708602D01*
X0000212086Y0001952814D02*
X0000294232Y0001952814D01*
X0000294232Y0001952814D02*
X0000294999Y0001952047D01*
X0000207086Y0002016102D02*
X0000207086Y0001957814D01*
X0000207086Y0001957814D02*
X0000212086Y0001952814D01*
X0000294232Y0001952814D02*
X0000294999Y0001952047D01*
X0000313700Y0001817106D02*
X0000313700Y0001840334D01*
X0000313700Y0001840334D02*
X0000339291Y0001865925D01*
X0000339291Y0001865925D02*
X0000339291Y0001880098D01*
X0000339291Y0001880098D02*
X0000339291Y0001860413D01*
X0000339291Y0001860413D02*
X0000364881Y0001834822D01*
X0000364881Y0001834822D02*
X0000364881Y0001817106D01*
X0000294999Y0001952047D02*
X0000314685Y0001952047D01*
X0000314685Y0001952047D02*
X0000339291Y0001927440D01*
X0000339291Y0001927440D02*
X0000339291Y0001899783D01*
X0000339291Y0001899783D02*
X0000339291Y0001880098D01*
X0000527873Y0001978602D02*
X0000527873Y0001711889D01*
X0000527873Y0001711889D02*
X0000522086Y0001706102D01*
X0000525984Y0002104724D02*
X0000525984Y0001980492D01*
X0000525984Y0001980492D02*
X0000527873Y0001978602D01*
X0000537874Y0001721889D02*
X0000522086Y0001706102D01*
X0000525984Y0001990492D02*
X0000537874Y0001978602D01*
X0000464585Y0002106102D02*
X0000524606Y0002106102D01*
X0000524606Y0002106102D02*
X0000525984Y0002104724D01*
X0000522086Y0002100826D02*
X0000525984Y0002104724D01*
X0000378168Y0001661102D02*
X0000511928Y0001661102D01*
X0000511928Y0001661102D02*
X0000522086Y0001671259D01*
X0000522086Y0001671259D02*
X0000522086Y0001706102D01*
X0000362086Y0001608602D02*
X0000362086Y0001645019D01*
X0000362086Y0001645019D02*
X0000378168Y0001661102D01*
X0000265236Y0001543602D02*
X0000269173Y0001543602D01*
X0000269173Y0001543602D02*
X0000334173Y0001608602D01*
X0000334173Y0001608602D02*
X0000362086Y0001608602D01*
X0000265236Y0001461102D02*
X0000265236Y0001543602D01*
X0000506299Y0002104724D02*
X0000525984Y0002104724D01*
X0000084586Y0002153602D02*
X0000084586Y0002208602D01*
X0000545669Y0002104724D02*
X0000525984Y0002104724D01*
X0000525984Y0001710000D02*
X0000522086Y0001706102D01*
X0000084586Y0002208602D02*
X0000084586Y0002221811D01*
X0000084586Y0002221811D02*
X0000176377Y0002313602D01*
X0000176377Y0002313602D02*
X0000181299Y0002313602D01*
X0000181299Y0002313602D02*
X0000287933Y0002313602D01*
X0000287933Y0002313602D02*
X0000290531Y0002311003D01*
X0000294999Y0001952047D02*
X0000294999Y0002011102D01*
X0000294999Y0001950078D02*
X0000294999Y0001952047D01*
X0000472086Y0001706102D02*
X0000414585Y0001706102D01*
X0000134586Y0002208602D02*
X0000134586Y0002243444D01*
X0000134586Y0002243444D02*
X0000164743Y0002273602D01*
X0000164743Y0002273602D02*
X0000259035Y0002273602D01*
X0000259035Y0002273602D02*
X0000290531Y0002273602D01*
D121*
G36*
X0000684993Y0001675528D02*
X0000701425Y0001659066D01*
X0000722906Y0001650147D01*
X0000746164Y0001650125D01*
X0000759447Y0001655616D01*
X0000759447Y0001561718D01*
X0000758105Y0001562616D01*
X0000735731Y0001567066D01*
X0000733441Y0001567066D01*
X0000711067Y0001562616D01*
X0000692100Y0001549942D01*
X0000679426Y0001530975D01*
X0000674976Y0001508602D01*
X0000679426Y0001486228D01*
X0000692100Y0001467261D01*
X0000705060Y0001458602D01*
X0000692100Y0001449943D01*
X0000679426Y0001430975D01*
X0000674976Y0001408602D01*
X0000679426Y0001386228D01*
X0000692100Y0001367261D01*
X0000705036Y0001358618D01*
X0000704012Y0001358195D01*
X0000687551Y0001341763D01*
X0000686442Y0001339092D01*
X0000678427Y0001351088D01*
X0000659460Y0001363761D01*
X0000637086Y0001368212D01*
X0000614713Y0001363761D01*
X0000595745Y0001351088D01*
X0000587086Y0001338128D01*
X0000578427Y0001351088D01*
X0000559460Y0001363761D01*
X0000537086Y0001368212D01*
X0000514713Y0001363761D01*
X0000495745Y0001351088D01*
X0000487086Y0001338128D01*
X0000478427Y0001351088D01*
X0000459460Y0001363761D01*
X0000437086Y0001368212D01*
X0000422661Y0001365342D01*
X0000395215Y0001392788D01*
X0000400614Y0001392783D01*
X0000425728Y0001403160D01*
X0000444959Y0001422358D01*
X0000455381Y0001447455D01*
X0000455405Y0001474629D01*
X0000445028Y0001499744D01*
X0000425829Y0001518976D01*
X0000400733Y0001529397D01*
X0000373559Y0001529421D01*
X0000348444Y0001519044D01*
X0000329212Y0001499845D01*
X0000320253Y0001478270D01*
X0000320253Y0001486691D01*
X0000318510Y0001495955D01*
X0000314359Y0001502407D01*
X0000318245Y0001508093D01*
X0000320253Y0001518011D01*
X0000320253Y0001552367D01*
X0000326290Y0001558405D01*
X0000335511Y0001556537D01*
X0000388661Y0001556537D01*
X0000397925Y0001558281D01*
X0000406434Y0001563754D01*
X0000409239Y0001567861D01*
X0000421088Y0001559943D01*
X0000440826Y0001556017D01*
X0000460562Y0001559943D01*
X0000477295Y0001571123D01*
X0000480196Y0001575465D01*
X0000483098Y0001571123D01*
X0000499830Y0001559943D01*
X0000519566Y0001556017D01*
X0000539303Y0001559943D01*
X0000556035Y0001571123D01*
X0000567215Y0001587855D01*
X0000571141Y0001607591D01*
X0000571141Y0001609612D01*
X0000567215Y0001629349D01*
X0000556035Y0001646081D01*
X0000545335Y0001653231D01*
X0000547648Y0001656694D01*
X0000552992Y0001655612D01*
X0000591181Y0001655612D01*
X0000600445Y0001657355D01*
X0000608954Y0001662831D01*
X0000614662Y0001671185D01*
X0000615674Y0001676181D01*
X0000684724Y0001676181D01*
X0000684993Y0001675528D01*
X0000684993Y0001675528D01*
G37*
X0000684993Y0001675528D02*
X0000701425Y0001659066D01*
X0000722906Y0001650147D01*
X0000746164Y0001650125D01*
X0000759447Y0001655616D01*
X0000759447Y0001561718D01*
X0000758105Y0001562616D01*
X0000735731Y0001567066D01*
X0000733441Y0001567066D01*
X0000711067Y0001562616D01*
X0000692100Y0001549942D01*
X0000679426Y0001530975D01*
X0000674976Y0001508602D01*
X0000679426Y0001486228D01*
X0000692100Y0001467261D01*
X0000705060Y0001458602D01*
X0000692100Y0001449943D01*
X0000679426Y0001430975D01*
X0000674976Y0001408602D01*
X0000679426Y0001386228D01*
X0000692100Y0001367261D01*
X0000705036Y0001358618D01*
X0000704012Y0001358195D01*
X0000687551Y0001341763D01*
X0000686442Y0001339092D01*
X0000678427Y0001351088D01*
X0000659460Y0001363761D01*
X0000637086Y0001368212D01*
X0000614713Y0001363761D01*
X0000595745Y0001351088D01*
X0000587086Y0001338128D01*
X0000578427Y0001351088D01*
X0000559460Y0001363761D01*
X0000537086Y0001368212D01*
X0000514713Y0001363761D01*
X0000495745Y0001351088D01*
X0000487086Y0001338128D01*
X0000478427Y0001351088D01*
X0000459460Y0001363761D01*
X0000437086Y0001368212D01*
X0000422661Y0001365342D01*
X0000395215Y0001392788D01*
X0000400614Y0001392783D01*
X0000425728Y0001403160D01*
X0000444959Y0001422358D01*
X0000455381Y0001447455D01*
X0000455405Y0001474629D01*
X0000445028Y0001499744D01*
X0000425829Y0001518976D01*
X0000400733Y0001529397D01*
X0000373559Y0001529421D01*
X0000348444Y0001519044D01*
X0000329212Y0001499845D01*
X0000320253Y0001478270D01*
X0000320253Y0001486691D01*
X0000318510Y0001495955D01*
X0000314359Y0001502407D01*
X0000318245Y0001508093D01*
X0000320253Y0001518011D01*
X0000320253Y0001552367D01*
X0000326290Y0001558405D01*
X0000335511Y0001556537D01*
X0000388661Y0001556537D01*
X0000397925Y0001558281D01*
X0000406434Y0001563754D01*
X0000409239Y0001567861D01*
X0000421088Y0001559943D01*
X0000440826Y0001556017D01*
X0000460562Y0001559943D01*
X0000477295Y0001571123D01*
X0000480196Y0001575465D01*
X0000483098Y0001571123D01*
X0000499830Y0001559943D01*
X0000519566Y0001556017D01*
X0000539303Y0001559943D01*
X0000556035Y0001571123D01*
X0000567215Y0001587855D01*
X0000571141Y0001607591D01*
X0000571141Y0001609612D01*
X0000567215Y0001629349D01*
X0000556035Y0001646081D01*
X0000545335Y0001653231D01*
X0000547648Y0001656694D01*
X0000552992Y0001655612D01*
X0000591181Y0001655612D01*
X0000600445Y0001657355D01*
X0000608954Y0001662831D01*
X0000614662Y0001671185D01*
X0000615674Y0001676181D01*
X0000684724Y0001676181D01*
X0000684993Y0001675528D01*
G36*
X0000759447Y0002345962D02*
X0000698425Y0002345962D01*
X0000689160Y0002344218D01*
X0000680651Y0002338743D01*
X0000674943Y0002330389D01*
X0000672935Y0002320472D01*
X0000672935Y0002288976D01*
X0000674678Y0002279711D01*
X0000674775Y0002279560D01*
X0000672935Y0002270472D01*
X0000672935Y0002238976D01*
X0000674678Y0002229711D01*
X0000674775Y0002229560D01*
X0000672935Y0002220472D01*
X0000672935Y0002188976D01*
X0000674678Y0002179711D01*
X0000674775Y0002179560D01*
X0000672935Y0002170472D01*
X0000672935Y0002138976D01*
X0000674678Y0002129711D01*
X0000674775Y0002129560D01*
X0000672935Y0002120472D01*
X0000672935Y0002088976D01*
X0000674678Y0002079711D01*
X0000680153Y0002071203D01*
X0000688507Y0002065494D01*
X0000698425Y0002063486D01*
X0000759447Y0002063486D01*
X0000759447Y0001761583D01*
X0000746266Y0001767056D01*
X0000723008Y0001767077D01*
X0000701512Y0001758195D01*
X0000685051Y0001741763D01*
X0000682668Y0001736023D01*
X0000615744Y0001736023D01*
X0000614927Y0001740366D01*
X0000609452Y0001748875D01*
X0000601097Y0001754583D01*
X0000591181Y0001756592D01*
X0000557795Y0001756592D01*
X0000557795Y0001928580D01*
X0000566665Y0001930249D01*
X0000575174Y0001935724D01*
X0000580883Y0001944079D01*
X0000582891Y0001953996D01*
X0000582891Y0002003207D01*
X0000581148Y0002012473D01*
X0000575672Y0002020981D01*
X0000567318Y0002026689D01*
X0000557401Y0002028698D01*
X0000555905Y0002028698D01*
X0000555905Y0002063486D01*
X0000561417Y0002063486D01*
X0000570681Y0002065229D01*
X0000579190Y0002070704D01*
X0000584898Y0002079059D01*
X0000586907Y0002088976D01*
X0000586907Y0002120472D01*
X0000585163Y0002129736D01*
X0000585066Y0002129887D01*
X0000586907Y0002138976D01*
X0000586907Y0002170472D01*
X0000585163Y0002179736D01*
X0000585066Y0002179887D01*
X0000586907Y0002188976D01*
X0000586907Y0002220472D01*
X0000585163Y0002229736D01*
X0000579688Y0002238245D01*
X0000571334Y0002243953D01*
X0000561417Y0002245962D01*
X0000490551Y0002245962D01*
X0000487006Y0002245295D01*
X0000487006Y0002264204D01*
X0000490551Y0002263486D01*
X0000561417Y0002263486D01*
X0000570681Y0002265229D01*
X0000579190Y0002270705D01*
X0000582927Y0002276174D01*
X0000593103Y0002276174D01*
X0000598696Y0002262640D01*
X0000609042Y0002252275D01*
X0000622566Y0002246659D01*
X0000637211Y0002246647D01*
X0000650745Y0002252239D01*
X0000661109Y0002262585D01*
X0000666725Y0002276110D01*
X0000666738Y0002290754D01*
X0000661145Y0002304289D01*
X0000650800Y0002314653D01*
X0000637275Y0002320269D01*
X0000622631Y0002320281D01*
X0000609096Y0002314689D01*
X0000598732Y0002304343D01*
X0000593116Y0002290818D01*
X0000593103Y0002276174D01*
X0000582927Y0002276174D01*
X0000584898Y0002279059D01*
X0000586907Y0002288976D01*
X0000586907Y0002320472D01*
X0000585163Y0002329736D01*
X0000579688Y0002338245D01*
X0000571334Y0002343953D01*
X0000561417Y0002345962D01*
X0000490551Y0002345962D01*
X0000481286Y0002344218D01*
X0000472777Y0002338743D01*
X0000467069Y0002330389D01*
X0000466395Y0002327061D01*
X0000462496Y0002330959D01*
X0000461915Y0002334047D01*
X0000456440Y0002342556D01*
X0000448085Y0002348265D01*
X0000438169Y0002350273D01*
X0000379114Y0002350273D01*
X0000369849Y0002348530D01*
X0000361340Y0002343054D01*
X0000359161Y0002339865D01*
X0000353037Y0002338647D01*
X0000344067Y0002332654D01*
X0000343805Y0002334047D01*
X0000338330Y0002342556D01*
X0000329975Y0002348265D01*
X0000320059Y0002350273D01*
X0000261002Y0002350273D01*
X0000251739Y0002348530D01*
X0000243958Y0002343523D01*
X0000235316Y0002343523D01*
X0000234573Y0002347473D01*
X0000229097Y0002355981D01*
X0000220743Y0002361690D01*
X0000210826Y0002363698D01*
X0000151771Y0002363698D01*
X0000142507Y0002361955D01*
X0000133998Y0002356479D01*
X0000128288Y0002348125D01*
X0000126281Y0002338208D01*
X0000126281Y0002305821D01*
X0000079552Y0002259092D01*
X0000065490Y0002259092D01*
X0000056227Y0002257348D01*
X0000047718Y0002251873D01*
X0000042010Y0002243519D01*
X0000040001Y0002233602D01*
X0000040001Y0002183602D01*
X0000041745Y0002174337D01*
X0000047220Y0002165829D01*
X0000049233Y0002164453D01*
X0000047781Y0002160956D01*
X0000047769Y0002146312D01*
X0000053361Y0002132777D01*
X0000063707Y0002122413D01*
X0000077232Y0002116797D01*
X0000091876Y0002116784D01*
X0000105411Y0002122377D01*
X0000115775Y0002132723D01*
X0000121390Y0002146248D01*
X0000121401Y0002158112D01*
X0000153681Y0002158112D01*
X0000162945Y0002159855D01*
X0000171454Y0002165331D01*
X0000177162Y0002173685D01*
X0000179170Y0002183602D01*
X0000179170Y0002233602D01*
X0000177426Y0002242866D01*
X0000176995Y0002243538D01*
X0000177137Y0002243681D01*
X0000241682Y0002243681D01*
X0000242731Y0002242049D01*
X0000251087Y0002236341D01*
X0000261002Y0002234333D01*
X0000320059Y0002234333D01*
X0000329323Y0002236076D01*
X0000329665Y0002236296D01*
X0000329665Y0002119744D01*
X0000331942Y0002108293D01*
X0000338429Y0002098586D01*
X0000366956Y0002070058D01*
X0000366362Y0002069661D01*
X0000343724Y0002047022D01*
X0000337237Y0002037316D01*
X0000334960Y0002025866D01*
X0000334960Y0001973794D01*
X0000326134Y0001979690D01*
X0000324921Y0001979932D01*
X0000324921Y0001984393D01*
X0000328324Y0001989374D01*
X0000330332Y0001999291D01*
X0000330332Y0002022913D01*
X0000328588Y0002032177D01*
X0000323113Y0002040686D01*
X0000323059Y0002040724D01*
X0000328324Y0002048429D01*
X0000330332Y0002058345D01*
X0000330332Y0002081967D01*
X0000328588Y0002091232D01*
X0000323113Y0002099741D01*
X0000314759Y0002105450D01*
X0000304842Y0002107458D01*
X0000285157Y0002107458D01*
X0000275892Y0002105715D01*
X0000267384Y0002100239D01*
X0000261675Y0002091885D01*
X0000259666Y0002081967D01*
X0000259666Y0002058345D01*
X0000261409Y0002049081D01*
X0000266886Y0002040573D01*
X0000266940Y0002040535D01*
X0000261675Y0002032830D01*
X0000259666Y0002022913D01*
X0000259666Y0001999291D01*
X0000261409Y0001990026D01*
X0000265078Y0001984326D01*
X0000265078Y0001982736D01*
X0000262108Y0001982736D01*
X0000260438Y0001991606D01*
X0000254964Y0002000115D01*
X0000246609Y0002005824D01*
X0000242982Y0002006558D01*
X0000243891Y0002008748D01*
X0000243904Y0002023391D01*
X0000238311Y0002036925D01*
X0000227965Y0002047291D01*
X0000214440Y0002052906D01*
X0000199796Y0002052919D01*
X0000186262Y0002047327D01*
X0000175897Y0002036981D01*
X0000170281Y0002023456D01*
X0000170269Y0002008811D01*
X0000172826Y0002002621D01*
X0000169707Y0002000613D01*
X0000163998Y0001992259D01*
X0000161990Y0001982342D01*
X0000161990Y0001923287D01*
X0000163733Y0001914022D01*
X0000169209Y0001905514D01*
X0000177563Y0001899805D01*
X0000187480Y0001897797D01*
X0000236692Y0001897797D01*
X0000245957Y0001899540D01*
X0000254466Y0001905016D01*
X0000260174Y0001913370D01*
X0000262102Y0001922893D01*
X0000266609Y0001922893D01*
X0000266886Y0001922462D01*
X0000275240Y0001916754D01*
X0000285157Y0001914746D01*
X0000304842Y0001914746D01*
X0000308906Y0001915511D01*
X0000309370Y0001915047D01*
X0000309370Y0001900516D01*
X0000308920Y0001899857D01*
X0000306911Y0001889940D01*
X0000306911Y0001875860D01*
X0000292543Y0001861492D01*
X0000286057Y0001851784D01*
X0000283779Y0001840334D01*
X0000283779Y0001837524D01*
X0000283329Y0001836865D01*
X0000281321Y0001826948D01*
X0000281321Y0001807263D01*
X0000283064Y0001797999D01*
X0000288539Y0001789490D01*
X0000296894Y0001783782D01*
X0000306811Y0001781773D01*
X0000320590Y0001781773D01*
X0000329855Y0001783517D01*
X0000338363Y0001788992D01*
X0000339226Y0001790255D01*
X0000339720Y0001789490D01*
X0000348075Y0001783782D01*
X0000357991Y0001781773D01*
X0000371771Y0001781773D01*
X0000376294Y0001782625D01*
X0000247192Y0001653523D01*
X0000232031Y0001653523D01*
X0000220580Y0001651245D01*
X0000213088Y0001646240D01*
X0000196220Y0001646240D01*
X0000184770Y0001643962D01*
X0000175063Y0001637476D01*
X0000137779Y0001600192D01*
X0000134097Y0001594682D01*
X0000129409Y0001594682D01*
X0000120144Y0001592939D01*
X0000111636Y0001587464D01*
X0000105927Y0001579109D01*
X0000103919Y0001569192D01*
X0000103919Y0001568441D01*
X0000098409Y0001564759D01*
X0000085929Y0001552278D01*
X0000080719Y0001544484D01*
X0000077072Y0001549942D01*
X0000064113Y0001558602D01*
X0000077072Y0001567261D01*
X0000089746Y0001586228D01*
X0000094196Y0001608602D01*
X0000089746Y0001630974D01*
X0000077072Y0001649943D01*
X0000064113Y0001658602D01*
X0000077072Y0001667261D01*
X0000089746Y0001686228D01*
X0000094196Y0001708602D01*
X0000089746Y0001730975D01*
X0000077072Y0001749943D01*
X0000058105Y0001762616D01*
X0000035731Y0001767066D01*
X0000033441Y0001767066D01*
X0000027952Y0001765975D01*
X0000027952Y0002412992D01*
X0000759447Y0002412992D01*
X0000759447Y0002345962D01*
X0000759447Y0002345962D01*
G37*
X0000759447Y0002345962D02*
X0000698425Y0002345962D01*
X0000689160Y0002344218D01*
X0000680651Y0002338743D01*
X0000674943Y0002330389D01*
X0000672935Y0002320472D01*
X0000672935Y0002288976D01*
X0000674678Y0002279711D01*
X0000674775Y0002279560D01*
X0000672935Y0002270472D01*
X0000672935Y0002238976D01*
X0000674678Y0002229711D01*
X0000674775Y0002229560D01*
X0000672935Y0002220472D01*
X0000672935Y0002188976D01*
X0000674678Y0002179711D01*
X0000674775Y0002179560D01*
X0000672935Y0002170472D01*
X0000672935Y0002138976D01*
X0000674678Y0002129711D01*
X0000674775Y0002129560D01*
X0000672935Y0002120472D01*
X0000672935Y0002088976D01*
X0000674678Y0002079711D01*
X0000680153Y0002071203D01*
X0000688507Y0002065494D01*
X0000698425Y0002063486D01*
X0000759447Y0002063486D01*
X0000759447Y0001761583D01*
X0000746266Y0001767056D01*
X0000723008Y0001767077D01*
X0000701512Y0001758195D01*
X0000685051Y0001741763D01*
X0000682668Y0001736023D01*
X0000615744Y0001736023D01*
X0000614927Y0001740366D01*
X0000609452Y0001748875D01*
X0000601097Y0001754583D01*
X0000591181Y0001756592D01*
X0000557795Y0001756592D01*
X0000557795Y0001928580D01*
X0000566665Y0001930249D01*
X0000575174Y0001935724D01*
X0000580883Y0001944079D01*
X0000582891Y0001953996D01*
X0000582891Y0002003207D01*
X0000581148Y0002012473D01*
X0000575672Y0002020981D01*
X0000567318Y0002026689D01*
X0000557401Y0002028698D01*
X0000555905Y0002028698D01*
X0000555905Y0002063486D01*
X0000561417Y0002063486D01*
X0000570681Y0002065229D01*
X0000579190Y0002070704D01*
X0000584898Y0002079059D01*
X0000586907Y0002088976D01*
X0000586907Y0002120472D01*
X0000585163Y0002129736D01*
X0000585066Y0002129887D01*
X0000586907Y0002138976D01*
X0000586907Y0002170472D01*
X0000585163Y0002179736D01*
X0000585066Y0002179887D01*
X0000586907Y0002188976D01*
X0000586907Y0002220472D01*
X0000585163Y0002229736D01*
X0000579688Y0002238245D01*
X0000571334Y0002243953D01*
X0000561417Y0002245962D01*
X0000490551Y0002245962D01*
X0000487006Y0002245295D01*
X0000487006Y0002264204D01*
X0000490551Y0002263486D01*
X0000561417Y0002263486D01*
X0000570681Y0002265229D01*
X0000579190Y0002270705D01*
X0000582927Y0002276174D01*
X0000593103Y0002276174D01*
X0000598696Y0002262640D01*
X0000609042Y0002252275D01*
X0000622566Y0002246659D01*
X0000637211Y0002246647D01*
X0000650745Y0002252239D01*
X0000661109Y0002262585D01*
X0000666725Y0002276110D01*
X0000666738Y0002290754D01*
X0000661145Y0002304289D01*
X0000650800Y0002314653D01*
X0000637275Y0002320269D01*
X0000622631Y0002320281D01*
X0000609096Y0002314689D01*
X0000598732Y0002304343D01*
X0000593116Y0002290818D01*
X0000593103Y0002276174D01*
X0000582927Y0002276174D01*
X0000584898Y0002279059D01*
X0000586907Y0002288976D01*
X0000586907Y0002320472D01*
X0000585163Y0002329736D01*
X0000579688Y0002338245D01*
X0000571334Y0002343953D01*
X0000561417Y0002345962D01*
X0000490551Y0002345962D01*
X0000481286Y0002344218D01*
X0000472777Y0002338743D01*
X0000467069Y0002330389D01*
X0000466395Y0002327061D01*
X0000462496Y0002330959D01*
X0000461915Y0002334047D01*
X0000456440Y0002342556D01*
X0000448085Y0002348265D01*
X0000438169Y0002350273D01*
X0000379114Y0002350273D01*
X0000369849Y0002348530D01*
X0000361340Y0002343054D01*
X0000359161Y0002339865D01*
X0000353037Y0002338647D01*
X0000344067Y0002332654D01*
X0000343805Y0002334047D01*
X0000338330Y0002342556D01*
X0000329975Y0002348265D01*
X0000320059Y0002350273D01*
X0000261002Y0002350273D01*
X0000251739Y0002348530D01*
X0000243958Y0002343523D01*
X0000235316Y0002343523D01*
X0000234573Y0002347473D01*
X0000229097Y0002355981D01*
X0000220743Y0002361690D01*
X0000210826Y0002363698D01*
X0000151771Y0002363698D01*
X0000142507Y0002361955D01*
X0000133998Y0002356479D01*
X0000128288Y0002348125D01*
X0000126281Y0002338208D01*
X0000126281Y0002305821D01*
X0000079552Y0002259092D01*
X0000065490Y0002259092D01*
X0000056227Y0002257348D01*
X0000047718Y0002251873D01*
X0000042010Y0002243519D01*
X0000040001Y0002233602D01*
X0000040001Y0002183602D01*
X0000041745Y0002174337D01*
X0000047220Y0002165829D01*
X0000049233Y0002164453D01*
X0000047781Y0002160956D01*
X0000047769Y0002146312D01*
X0000053361Y0002132777D01*
X0000063707Y0002122413D01*
X0000077232Y0002116797D01*
X0000091876Y0002116784D01*
X0000105411Y0002122377D01*
X0000115775Y0002132723D01*
X0000121390Y0002146248D01*
X0000121401Y0002158112D01*
X0000153681Y0002158112D01*
X0000162945Y0002159855D01*
X0000171454Y0002165331D01*
X0000177162Y0002173685D01*
X0000179170Y0002183602D01*
X0000179170Y0002233602D01*
X0000177426Y0002242866D01*
X0000176995Y0002243538D01*
X0000177137Y0002243681D01*
X0000241682Y0002243681D01*
X0000242731Y0002242049D01*
X0000251087Y0002236341D01*
X0000261002Y0002234333D01*
X0000320059Y0002234333D01*
X0000329323Y0002236076D01*
X0000329665Y0002236296D01*
X0000329665Y0002119744D01*
X0000331942Y0002108293D01*
X0000338429Y0002098586D01*
X0000366956Y0002070058D01*
X0000366362Y0002069661D01*
X0000343724Y0002047022D01*
X0000337237Y0002037316D01*
X0000334960Y0002025866D01*
X0000334960Y0001973794D01*
X0000326134Y0001979690D01*
X0000324921Y0001979932D01*
X0000324921Y0001984393D01*
X0000328324Y0001989374D01*
X0000330332Y0001999291D01*
X0000330332Y0002022913D01*
X0000328588Y0002032177D01*
X0000323113Y0002040686D01*
X0000323059Y0002040724D01*
X0000328324Y0002048429D01*
X0000330332Y0002058345D01*
X0000330332Y0002081967D01*
X0000328588Y0002091232D01*
X0000323113Y0002099741D01*
X0000314759Y0002105450D01*
X0000304842Y0002107458D01*
X0000285157Y0002107458D01*
X0000275892Y0002105715D01*
X0000267384Y0002100239D01*
X0000261675Y0002091885D01*
X0000259666Y0002081967D01*
X0000259666Y0002058345D01*
X0000261409Y0002049081D01*
X0000266886Y0002040573D01*
X0000266940Y0002040535D01*
X0000261675Y0002032830D01*
X0000259666Y0002022913D01*
X0000259666Y0001999291D01*
X0000261409Y0001990026D01*
X0000265078Y0001984326D01*
X0000265078Y0001982736D01*
X0000262108Y0001982736D01*
X0000260438Y0001991606D01*
X0000254964Y0002000115D01*
X0000246609Y0002005824D01*
X0000242982Y0002006558D01*
X0000243891Y0002008748D01*
X0000243904Y0002023391D01*
X0000238311Y0002036925D01*
X0000227965Y0002047291D01*
X0000214440Y0002052906D01*
X0000199796Y0002052919D01*
X0000186262Y0002047327D01*
X0000175897Y0002036981D01*
X0000170281Y0002023456D01*
X0000170269Y0002008811D01*
X0000172826Y0002002621D01*
X0000169707Y0002000613D01*
X0000163998Y0001992259D01*
X0000161990Y0001982342D01*
X0000161990Y0001923287D01*
X0000163733Y0001914022D01*
X0000169209Y0001905514D01*
X0000177563Y0001899805D01*
X0000187480Y0001897797D01*
X0000236692Y0001897797D01*
X0000245957Y0001899540D01*
X0000254466Y0001905016D01*
X0000260174Y0001913370D01*
X0000262102Y0001922893D01*
X0000266609Y0001922893D01*
X0000266886Y0001922462D01*
X0000275240Y0001916754D01*
X0000285157Y0001914746D01*
X0000304842Y0001914746D01*
X0000308906Y0001915511D01*
X0000309370Y0001915047D01*
X0000309370Y0001900516D01*
X0000308920Y0001899857D01*
X0000306911Y0001889940D01*
X0000306911Y0001875860D01*
X0000292543Y0001861492D01*
X0000286057Y0001851784D01*
X0000283779Y0001840334D01*
X0000283779Y0001837524D01*
X0000283329Y0001836865D01*
X0000281321Y0001826948D01*
X0000281321Y0001807263D01*
X0000283064Y0001797999D01*
X0000288539Y0001789490D01*
X0000296894Y0001783782D01*
X0000306811Y0001781773D01*
X0000320590Y0001781773D01*
X0000329855Y0001783517D01*
X0000338363Y0001788992D01*
X0000339226Y0001790255D01*
X0000339720Y0001789490D01*
X0000348075Y0001783782D01*
X0000357991Y0001781773D01*
X0000371771Y0001781773D01*
X0000376294Y0001782625D01*
X0000247192Y0001653523D01*
X0000232031Y0001653523D01*
X0000220580Y0001651245D01*
X0000213088Y0001646240D01*
X0000196220Y0001646240D01*
X0000184770Y0001643962D01*
X0000175063Y0001637476D01*
X0000137779Y0001600192D01*
X0000134097Y0001594682D01*
X0000129409Y0001594682D01*
X0000120144Y0001592939D01*
X0000111636Y0001587464D01*
X0000105927Y0001579109D01*
X0000103919Y0001569192D01*
X0000103919Y0001568441D01*
X0000098409Y0001564759D01*
X0000085929Y0001552278D01*
X0000080719Y0001544484D01*
X0000077072Y0001549942D01*
X0000064113Y0001558602D01*
X0000077072Y0001567261D01*
X0000089746Y0001586228D01*
X0000094196Y0001608602D01*
X0000089746Y0001630974D01*
X0000077072Y0001649943D01*
X0000064113Y0001658602D01*
X0000077072Y0001667261D01*
X0000089746Y0001686228D01*
X0000094196Y0001708602D01*
X0000089746Y0001730975D01*
X0000077072Y0001749943D01*
X0000058105Y0001762616D01*
X0000035731Y0001767066D01*
X0000033441Y0001767066D01*
X0000027952Y0001765975D01*
X0000027952Y0002412992D01*
X0000759447Y0002412992D01*
X0000759447Y0002345962D01*
G04 next file*
G04 #@! TF.FileFunction,Copper,L1,Top,Signal*
G04 Gerber Fmt 4.6, Leading zero omitted, Abs format (unit mm)*
G04 Created by KiCad (PCBNEW 4.0.2-stable) date 05.07.2017 20:46:59*
G01*
G04 APERTURE LIST*
G04 APERTURE END LIST*
D132*
D133*
X-0006692913Y0004921259D02*
X0000034586Y0000548759D03*
D134*
X0000034586Y0000448759D03*
X0000034586Y0000348759D03*
X0000034586Y0000248759D03*
D133*
X0000734586Y0000448759D03*
D134*
X0000734586Y0000348759D03*
X0000734586Y0000248759D03*
X0000734586Y0000148759D03*
D133*
X0000737086Y0000048759D03*
D134*
X0000637086Y0000048759D03*
X0000537086Y0000048759D03*
X0000437086Y0000048759D03*
X0000337086Y0000048759D03*
X0000237086Y0000048759D03*
D135*
X0000181299Y0001053759D03*
X0000082873Y0001053759D03*
D136*
X0000212086Y0000692972D03*
X0000212086Y0000594547D03*
D137*
X0000472086Y0000446259D03*
X0000522086Y0000446259D03*
X0000572086Y0000446259D03*
X0000184586Y0000948759D03*
X0000134586Y0000948759D03*
X0000084586Y0000948759D03*
D138*
X0000158937Y0000283759D03*
X0000265236Y0000283759D03*
X0000158937Y0000201259D03*
X0000265236Y0000201259D03*
D139*
X0000629921Y0001023622D03*
D140*
X0000525984Y0000944881D03*
X0000525984Y0000994881D03*
X0000525984Y0001044881D03*
X0000525984Y0000894881D03*
X0000525984Y0000844881D03*
X0000733858Y0000944881D03*
X0000733858Y0000994881D03*
X0000733858Y0001044881D03*
X0000733858Y0000894881D03*
X0000733858Y0000844881D03*
D141*
X0000290531Y0000976358D03*
X0000290531Y0001013759D03*
X0000290531Y0001051161D03*
X0000408641Y0001051161D03*
X0000408641Y0001013759D03*
X0000408641Y0000976358D03*
D142*
X0000294999Y0000810314D03*
X0000294999Y0000751259D03*
X0000294999Y0000692204D03*
X0000409173Y0000692204D03*
X0000409173Y0000751259D03*
X0000409173Y0000810314D03*
D143*
X0000352086Y0000812283D03*
D144*
X0000362086Y0000348759D03*
D145*
X0000440826Y0000348759D03*
X0000519566Y0000348759D03*
X0000598307Y0000348759D03*
D135*
X0000527873Y0000718759D03*
X0000626299Y0000718759D03*
D146*
X0000313700Y0000620255D03*
X0000339291Y0000620255D03*
X0000364881Y0000620255D03*
X0000390472Y0000620255D03*
X0000313700Y0000557263D03*
X0000339291Y0000557263D03*
X0000364881Y0000557263D03*
X0000390472Y0000557263D03*
D139*
X0000322086Y0000121259D03*
X0000207086Y0000756259D03*
X0000464585Y0000846259D03*
X0000084586Y0000893759D03*
X0000414585Y0000446259D03*
D147*
X0000034586Y0000548759D02*
X0000282440Y0000548759D01*
X0000282440Y0000548759D02*
X0000287086Y0000544114D01*
X0000304940Y0000526259D02*
X0000331495Y0000526259D01*
X0000331495Y0000526259D02*
X0000339291Y0000534055D01*
X0000287086Y0000590688D02*
X0000287086Y0000544114D01*
X0000287086Y0000544114D02*
X0000304940Y0000526259D01*
X0000313700Y0000620255D02*
X0000313700Y0000617303D01*
X0000313700Y0000617303D02*
X0000287086Y0000590688D01*
X0000347086Y0000526259D02*
X0000339291Y0000534055D01*
X0000339291Y0000534055D02*
X0000339291Y0000557263D01*
X0000379153Y0000526259D02*
X0000347086Y0000526259D01*
X0000390472Y0000557263D02*
X0000390472Y0000537578D01*
X0000390472Y0000537578D02*
X0000379153Y0000526259D01*
X0000184586Y0000948759D02*
X0000284586Y0000948759D01*
X0000290531Y0000954704D02*
X0000290531Y0000976358D01*
X0000284586Y0000948759D02*
X0000290531Y0000954704D01*
X0000408641Y0001051161D02*
X0000364487Y0001051161D01*
X0000359586Y0000859901D02*
X0000409173Y0000810314D01*
X0000359586Y0001046259D02*
X0000359586Y0000859901D01*
X0000364487Y0001051161D02*
X0000359586Y0001046259D01*
X0000409173Y0000812283D02*
X0000409173Y0000810314D01*
X0000457085Y0000968503D02*
X0000457085Y0001034211D01*
X0000457085Y0001034211D02*
X0000440137Y0001051161D01*
X0000440137Y0001051161D02*
X0000408641Y0001051161D01*
X0000525984Y0000944881D02*
X0000480708Y0000944881D01*
X0000480708Y0000944881D02*
X0000457085Y0000968503D01*
X0000410157Y0000541886D02*
X0000410157Y0000514329D01*
X0000259585Y0000363759D02*
X0000232031Y0000363759D01*
X0000410157Y0000514329D02*
X0000259585Y0000363759D01*
X0000224748Y0000356476D02*
X0000196220Y0000356476D01*
X0000232031Y0000363759D02*
X0000224748Y0000356476D01*
X0000158937Y0000319192D02*
X0000158937Y0000283759D01*
X0000196220Y0000356476D02*
X0000158937Y0000319192D01*
X0000410157Y0000577342D02*
X0000410157Y0000541886D01*
X0000407598Y0000579901D02*
X0000410157Y0000577342D01*
X0000385551Y0000579901D02*
X0000407598Y0000579901D01*
X0000364881Y0000620255D02*
X0000364881Y0000600570D01*
X0000364881Y0000600570D02*
X0000385551Y0000579901D01*
X0000364881Y0000620255D02*
X0000364881Y0000766023D01*
X0000364881Y0000766023D02*
X0000387519Y0000788661D01*
X0000387519Y0000788661D02*
X0000389488Y0000788661D01*
X0000389488Y0000788661D02*
X0000409173Y0000808346D01*
X0000409173Y0000808346D02*
X0000409173Y0000810314D01*
X0000107086Y0000271279D02*
X0000107086Y0000174959D01*
X0000107086Y0000174959D02*
X0000160787Y0000121259D01*
X0000160787Y0000121259D02*
X0000322086Y0000121259D01*
X0000158937Y0000283759D02*
X0000119566Y0000283759D01*
X0000119566Y0000283759D02*
X0000107086Y0000271279D01*
X0000408641Y0000976358D02*
X0000408641Y0000933759D01*
X0000525984Y0000894881D02*
X0000480708Y0000894881D01*
X0000408641Y0000933759D02*
X0000408641Y0000869704D01*
X0000480708Y0000894881D02*
X0000441830Y0000933759D01*
X0000441830Y0000933759D02*
X0000408641Y0000933759D01*
X0000429586Y0000531558D02*
X0000429586Y0000498759D01*
X0000269586Y0000338759D02*
X0000236787Y0000338759D01*
X0000429586Y0000498759D02*
X0000269586Y0000338759D01*
X0000212086Y0000314058D02*
X0000212086Y0000250471D01*
X0000236787Y0000338759D02*
X0000212086Y0000314058D01*
X0000212086Y0000250471D02*
X0000162874Y0000201259D01*
X0000162874Y0000201259D02*
X0000158937Y0000201259D01*
X0000429586Y0000597874D02*
X0000429586Y0000531558D01*
X0000390472Y0000620255D02*
X0000407204Y0000620255D01*
X0000407204Y0000620255D02*
X0000429586Y0000597874D01*
X0000390472Y0000620255D02*
X0000390472Y0000639940D01*
X0000390472Y0000639940D02*
X0000386535Y0000643877D01*
X0000386535Y0000643877D02*
X0000386535Y0000726653D01*
X0000386535Y0000726653D02*
X0000409173Y0000749291D01*
X0000409173Y0000749291D02*
X0000409173Y0000751259D01*
X0000437086Y0000751259D02*
X0000437086Y0000783759D01*
X0000409173Y0000751259D02*
X0000428858Y0000751259D01*
X0000428858Y0000751259D02*
X0000437086Y0000751259D01*
X0000437086Y0000841259D02*
X0000437086Y0000783759D01*
X0000437086Y0000783759D02*
X0000437086Y0000779173D01*
X0000403622Y0000082224D02*
X0000437086Y0000048759D01*
X0000339980Y0000145866D02*
X0000403622Y0000082224D01*
X0000218267Y0000145866D02*
X0000339980Y0000145866D01*
X0000162874Y0000201259D02*
X0000218267Y0000145866D01*
X0000408641Y0000869704D02*
X0000437086Y0000841259D01*
X0000572086Y0000446259D02*
X0000732085Y0000446259D01*
X0000732085Y0000446259D02*
X0000734586Y0000448759D01*
X0000212086Y0000692972D02*
X0000294232Y0000692972D01*
X0000294232Y0000692972D02*
X0000294999Y0000692204D01*
X0000207086Y0000756259D02*
X0000207086Y0000697972D01*
X0000207086Y0000697972D02*
X0000212086Y0000692972D01*
X0000294232Y0000692972D02*
X0000294999Y0000692204D01*
X0000313700Y0000557263D02*
X0000313700Y0000580492D01*
X0000313700Y0000580492D02*
X0000339291Y0000606082D01*
X0000339291Y0000606082D02*
X0000339291Y0000620255D01*
X0000339291Y0000620255D02*
X0000339291Y0000600570D01*
X0000339291Y0000600570D02*
X0000364881Y0000574980D01*
X0000364881Y0000574980D02*
X0000364881Y0000557263D01*
X0000294999Y0000692204D02*
X0000314685Y0000692204D01*
X0000314685Y0000692204D02*
X0000339291Y0000667598D01*
X0000339291Y0000667598D02*
X0000339291Y0000639940D01*
X0000339291Y0000639940D02*
X0000339291Y0000620255D01*
X0000527873Y0000718759D02*
X0000527873Y0000452046D01*
X0000527873Y0000452046D02*
X0000522086Y0000446259D01*
X0000525984Y0000844881D02*
X0000525984Y0000720649D01*
X0000525984Y0000720649D02*
X0000527873Y0000718759D01*
X0000537874Y0000462047D02*
X0000522086Y0000446259D01*
X0000525984Y0000730649D02*
X0000537874Y0000718759D01*
X0000464585Y0000846259D02*
X0000524606Y0000846259D01*
X0000524606Y0000846259D02*
X0000525984Y0000844881D01*
X0000522086Y0000840984D02*
X0000525984Y0000844881D01*
X0000378168Y0000401259D02*
X0000511928Y0000401259D01*
X0000511928Y0000401259D02*
X0000522086Y0000411417D01*
X0000522086Y0000411417D02*
X0000522086Y0000446259D01*
X0000362086Y0000348759D02*
X0000362086Y0000385177D01*
X0000362086Y0000385177D02*
X0000378168Y0000401259D01*
X0000265236Y0000283759D02*
X0000269173Y0000283759D01*
X0000269173Y0000283759D02*
X0000334173Y0000348759D01*
X0000334173Y0000348759D02*
X0000362086Y0000348759D01*
X0000265236Y0000201259D02*
X0000265236Y0000283759D01*
X0000506299Y0000844881D02*
X0000525984Y0000844881D01*
X0000084586Y0000893759D02*
X0000084586Y0000948759D01*
X0000545669Y0000844881D02*
X0000525984Y0000844881D01*
X0000525984Y0000450157D02*
X0000522086Y0000446259D01*
X0000084586Y0000948759D02*
X0000084586Y0000961968D01*
X0000084586Y0000961968D02*
X0000176377Y0001053759D01*
X0000176377Y0001053759D02*
X0000181299Y0001053759D01*
X0000181299Y0001053759D02*
X0000287933Y0001053759D01*
X0000287933Y0001053759D02*
X0000290531Y0001051161D01*
X0000294999Y0000692204D02*
X0000294999Y0000751259D01*
X0000294999Y0000690236D02*
X0000294999Y0000692204D01*
X0000472086Y0000446259D02*
X0000414585Y0000446259D01*
X0000134586Y0000948759D02*
X0000134586Y0000983602D01*
X0000134586Y0000983602D02*
X0000164743Y0001013759D01*
X0000164743Y0001013759D02*
X0000259035Y0001013759D01*
X0000259035Y0001013759D02*
X0000290531Y0001013759D01*
D148*
G36*
X0000684993Y0000415685D02*
X0000701425Y0000399224D01*
X0000722906Y0000390304D01*
X0000746164Y0000390285D01*
X0000759447Y0000395773D01*
X0000759447Y0000301876D01*
X0000758105Y0000302774D01*
X0000735731Y0000307224D01*
X0000733441Y0000307224D01*
X0000711067Y0000302774D01*
X0000692100Y0000290100D01*
X0000679426Y0000271133D01*
X0000674976Y0000248759D01*
X0000679426Y0000226386D01*
X0000692100Y0000207419D01*
X0000705060Y0000198759D01*
X0000692100Y0000190100D01*
X0000679426Y0000171133D01*
X0000674976Y0000148759D01*
X0000679426Y0000126386D01*
X0000692100Y0000107419D01*
X0000705036Y0000098775D01*
X0000704012Y0000098352D01*
X0000687551Y0000081920D01*
X0000686442Y0000079250D01*
X0000678427Y0000091245D01*
X0000659460Y0000103919D01*
X0000637086Y0000108369D01*
X0000614713Y0000103919D01*
X0000595745Y0000091245D01*
X0000587086Y0000078286D01*
X0000578427Y0000091245D01*
X0000559460Y0000103919D01*
X0000537086Y0000108369D01*
X0000514713Y0000103919D01*
X0000495745Y0000091245D01*
X0000487086Y0000078286D01*
X0000478427Y0000091245D01*
X0000459460Y0000103919D01*
X0000437086Y0000108369D01*
X0000422661Y0000105500D01*
X0000395215Y0000132945D01*
X0000400614Y0000132940D01*
X0000425728Y0000143318D01*
X0000444959Y0000162516D01*
X0000455381Y0000187613D01*
X0000455405Y0000214787D01*
X0000445028Y0000239902D01*
X0000425829Y0000259133D01*
X0000400733Y0000269555D01*
X0000373559Y0000269578D01*
X0000348444Y0000259201D01*
X0000329212Y0000240003D01*
X0000320253Y0000218427D01*
X0000320253Y0000226850D01*
X0000318510Y0000236114D01*
X0000314359Y0000242565D01*
X0000318245Y0000248252D01*
X0000320253Y0000258168D01*
X0000320253Y0000292525D01*
X0000326290Y0000298562D01*
X0000335511Y0000296695D01*
X0000388661Y0000296695D01*
X0000397925Y0000298438D01*
X0000406434Y0000303913D01*
X0000409239Y0000308018D01*
X0000421088Y0000300100D01*
X0000440826Y0000296174D01*
X0000460562Y0000300100D01*
X0000477295Y0000311280D01*
X0000480196Y0000315622D01*
X0000483098Y0000311280D01*
X0000499830Y0000300100D01*
X0000519566Y0000296174D01*
X0000539303Y0000300100D01*
X0000556035Y0000311280D01*
X0000567215Y0000328011D01*
X0000571141Y0000347749D01*
X0000571141Y0000349769D01*
X0000567215Y0000369507D01*
X0000556035Y0000386238D01*
X0000545335Y0000393389D01*
X0000547648Y0000396852D01*
X0000552992Y0000395770D01*
X0000591181Y0000395770D01*
X0000600445Y0000397513D01*
X0000608954Y0000402988D01*
X0000614662Y0000411342D01*
X0000615674Y0000416338D01*
X0000684724Y0000416338D01*
X0000684993Y0000415685D01*
X0000684993Y0000415685D01*
G37*
X0000684993Y0000415685D02*
X0000701425Y0000399224D01*
X0000722906Y0000390304D01*
X0000746164Y0000390285D01*
X0000759447Y0000395773D01*
X0000759447Y0000301876D01*
X0000758105Y0000302774D01*
X0000735731Y0000307224D01*
X0000733441Y0000307224D01*
X0000711067Y0000302774D01*
X0000692100Y0000290100D01*
X0000679426Y0000271133D01*
X0000674976Y0000248759D01*
X0000679426Y0000226386D01*
X0000692100Y0000207419D01*
X0000705060Y0000198759D01*
X0000692100Y0000190100D01*
X0000679426Y0000171133D01*
X0000674976Y0000148759D01*
X0000679426Y0000126386D01*
X0000692100Y0000107419D01*
X0000705036Y0000098775D01*
X0000704012Y0000098352D01*
X0000687551Y0000081920D01*
X0000686442Y0000079250D01*
X0000678427Y0000091245D01*
X0000659460Y0000103919D01*
X0000637086Y0000108369D01*
X0000614713Y0000103919D01*
X0000595745Y0000091245D01*
X0000587086Y0000078286D01*
X0000578427Y0000091245D01*
X0000559460Y0000103919D01*
X0000537086Y0000108369D01*
X0000514713Y0000103919D01*
X0000495745Y0000091245D01*
X0000487086Y0000078286D01*
X0000478427Y0000091245D01*
X0000459460Y0000103919D01*
X0000437086Y0000108369D01*
X0000422661Y0000105500D01*
X0000395215Y0000132945D01*
X0000400614Y0000132940D01*
X0000425728Y0000143318D01*
X0000444959Y0000162516D01*
X0000455381Y0000187613D01*
X0000455405Y0000214787D01*
X0000445028Y0000239902D01*
X0000425829Y0000259133D01*
X0000400733Y0000269555D01*
X0000373559Y0000269578D01*
X0000348444Y0000259201D01*
X0000329212Y0000240003D01*
X0000320253Y0000218427D01*
X0000320253Y0000226850D01*
X0000318510Y0000236114D01*
X0000314359Y0000242565D01*
X0000318245Y0000248252D01*
X0000320253Y0000258168D01*
X0000320253Y0000292525D01*
X0000326290Y0000298562D01*
X0000335511Y0000296695D01*
X0000388661Y0000296695D01*
X0000397925Y0000298438D01*
X0000406434Y0000303913D01*
X0000409239Y0000308018D01*
X0000421088Y0000300100D01*
X0000440826Y0000296174D01*
X0000460562Y0000300100D01*
X0000477295Y0000311280D01*
X0000480196Y0000315622D01*
X0000483098Y0000311280D01*
X0000499830Y0000300100D01*
X0000519566Y0000296174D01*
X0000539303Y0000300100D01*
X0000556035Y0000311280D01*
X0000567215Y0000328011D01*
X0000571141Y0000347749D01*
X0000571141Y0000349769D01*
X0000567215Y0000369507D01*
X0000556035Y0000386238D01*
X0000545335Y0000393389D01*
X0000547648Y0000396852D01*
X0000552992Y0000395770D01*
X0000591181Y0000395770D01*
X0000600445Y0000397513D01*
X0000608954Y0000402988D01*
X0000614662Y0000411342D01*
X0000615674Y0000416338D01*
X0000684724Y0000416338D01*
X0000684993Y0000415685D01*
G36*
X0000759447Y0001086119D02*
X0000698425Y0001086119D01*
X0000689160Y0001084376D01*
X0000680651Y0001078901D01*
X0000674943Y0001070546D01*
X0000672935Y0001060629D01*
X0000672935Y0001029133D01*
X0000674678Y0001019868D01*
X0000674775Y0001019717D01*
X0000672935Y0001010629D01*
X0000672935Y0000979133D01*
X0000674678Y0000969869D01*
X0000674775Y0000969718D01*
X0000672935Y0000960629D01*
X0000672935Y0000929133D01*
X0000674678Y0000919869D01*
X0000674775Y0000919718D01*
X0000672935Y0000910629D01*
X0000672935Y0000879133D01*
X0000674678Y0000869869D01*
X0000674775Y0000869718D01*
X0000672935Y0000860629D01*
X0000672935Y0000829133D01*
X0000674678Y0000819869D01*
X0000680153Y0000811360D01*
X0000688507Y0000805652D01*
X0000698425Y0000803644D01*
X0000759447Y0000803644D01*
X0000759447Y0000501739D01*
X0000746266Y0000507214D01*
X0000723008Y0000507233D01*
X0000701512Y0000498352D01*
X0000685051Y0000481920D01*
X0000682668Y0000476181D01*
X0000615744Y0000476181D01*
X0000614927Y0000480524D01*
X0000609452Y0000489033D01*
X0000601097Y0000494741D01*
X0000591181Y0000496749D01*
X0000557795Y0000496749D01*
X0000557795Y0000668737D01*
X0000566665Y0000670407D01*
X0000575174Y0000675882D01*
X0000580883Y0000684236D01*
X0000582891Y0000694153D01*
X0000582891Y0000743366D01*
X0000581148Y0000752630D01*
X0000575672Y0000761138D01*
X0000567318Y0000766846D01*
X0000557401Y0000768854D01*
X0000555905Y0000768854D01*
X0000555905Y0000803644D01*
X0000561417Y0000803644D01*
X0000570681Y0000805387D01*
X0000579190Y0000810861D01*
X0000584898Y0000819216D01*
X0000586907Y0000829133D01*
X0000586907Y0000860629D01*
X0000585163Y0000869894D01*
X0000585066Y0000870045D01*
X0000586907Y0000879133D01*
X0000586907Y0000910629D01*
X0000585163Y0000919894D01*
X0000585066Y0000920045D01*
X0000586907Y0000929133D01*
X0000586907Y0000960629D01*
X0000585163Y0000969894D01*
X0000579688Y0000978403D01*
X0000571334Y0000984111D01*
X0000561417Y0000986119D01*
X0000490551Y0000986119D01*
X0000487006Y0000985452D01*
X0000487006Y0001004361D01*
X0000490551Y0001003644D01*
X0000561417Y0001003644D01*
X0000570681Y0001005387D01*
X0000579190Y0001010861D01*
X0000582927Y0001016331D01*
X0000593103Y0001016331D01*
X0000598696Y0001002796D01*
X0000609042Y0000992433D01*
X0000622566Y0000986817D01*
X0000637211Y0000986804D01*
X0000650745Y0000992396D01*
X0000661109Y0001002742D01*
X0000666725Y0001016267D01*
X0000666738Y0001030912D01*
X0000661145Y0001044446D01*
X0000650800Y0001054810D01*
X0000637275Y0001060426D01*
X0000622631Y0001060439D01*
X0000609096Y0001054847D01*
X0000598732Y0001044500D01*
X0000593116Y0001030975D01*
X0000593103Y0001016331D01*
X0000582927Y0001016331D01*
X0000584898Y0001019215D01*
X0000586907Y0001029133D01*
X0000586907Y0001060629D01*
X0000585163Y0001069894D01*
X0000579688Y0001078403D01*
X0000571334Y0001084111D01*
X0000561417Y0001086119D01*
X0000490551Y0001086119D01*
X0000481286Y0001084376D01*
X0000472777Y0001078901D01*
X0000467069Y0001070546D01*
X0000466395Y0001067218D01*
X0000462496Y0001071117D01*
X0000461915Y0001074205D01*
X0000456440Y0001082714D01*
X0000448085Y0001088422D01*
X0000438169Y0001090430D01*
X0000379114Y0001090430D01*
X0000369849Y0001088687D01*
X0000361340Y0001083212D01*
X0000359161Y0001080023D01*
X0000353037Y0001078805D01*
X0000344067Y0001072811D01*
X0000343805Y0001074205D01*
X0000338330Y0001082714D01*
X0000329975Y0001088422D01*
X0000320059Y0001090430D01*
X0000261002Y0001090430D01*
X0000251739Y0001088687D01*
X0000243958Y0001083681D01*
X0000235316Y0001083681D01*
X0000234573Y0001087630D01*
X0000229097Y0001096139D01*
X0000220743Y0001101847D01*
X0000210826Y0001103855D01*
X0000151771Y0001103855D01*
X0000142507Y0001102112D01*
X0000133998Y0001096637D01*
X0000128288Y0001088283D01*
X0000126281Y0001078366D01*
X0000126281Y0001045978D01*
X0000079552Y0000999249D01*
X0000065490Y0000999249D01*
X0000056227Y0000997506D01*
X0000047718Y0000992031D01*
X0000042010Y0000983676D01*
X0000040001Y0000973758D01*
X0000040001Y0000923759D01*
X0000041745Y0000914495D01*
X0000047220Y0000905986D01*
X0000049233Y0000904611D01*
X0000047781Y0000901114D01*
X0000047769Y0000886469D01*
X0000053361Y0000872935D01*
X0000063707Y0000862571D01*
X0000077232Y0000856955D01*
X0000091876Y0000856942D01*
X0000105411Y0000862533D01*
X0000115775Y0000872880D01*
X0000121390Y0000886405D01*
X0000121401Y0000898270D01*
X0000153681Y0000898270D01*
X0000162945Y0000900013D01*
X0000171454Y0000905488D01*
X0000177162Y0000913842D01*
X0000179170Y0000923759D01*
X0000179170Y0000973758D01*
X0000177426Y0000983024D01*
X0000176995Y0000983696D01*
X0000177137Y0000983838D01*
X0000241682Y0000983838D01*
X0000242731Y0000982207D01*
X0000251087Y0000976498D01*
X0000261002Y0000974490D01*
X0000320059Y0000974490D01*
X0000329323Y0000976233D01*
X0000329665Y0000976453D01*
X0000329665Y0000859901D01*
X0000331942Y0000848451D01*
X0000338429Y0000838744D01*
X0000366956Y0000810216D01*
X0000366362Y0000809817D01*
X0000343724Y0000787181D01*
X0000337237Y0000777473D01*
X0000334960Y0000766023D01*
X0000334960Y0000713951D01*
X0000326134Y0000719847D01*
X0000324921Y0000720089D01*
X0000324921Y0000724551D01*
X0000328324Y0000729531D01*
X0000330332Y0000739448D01*
X0000330332Y0000763070D01*
X0000328588Y0000772335D01*
X0000323113Y0000780844D01*
X0000323059Y0000780881D01*
X0000328324Y0000788586D01*
X0000330332Y0000798503D01*
X0000330332Y0000822124D01*
X0000328588Y0000831390D01*
X0000323113Y0000839899D01*
X0000314759Y0000845607D01*
X0000304842Y0000847615D01*
X0000285157Y0000847615D01*
X0000275892Y0000845872D01*
X0000267384Y0000840397D01*
X0000261675Y0000832042D01*
X0000259666Y0000822124D01*
X0000259666Y0000798503D01*
X0000261409Y0000789239D01*
X0000266886Y0000780730D01*
X0000266940Y0000780692D01*
X0000261675Y0000772987D01*
X0000259666Y0000763070D01*
X0000259666Y0000739448D01*
X0000261409Y0000730184D01*
X0000265078Y0000724484D01*
X0000265078Y0000722892D01*
X0000262108Y0000722892D01*
X0000260438Y0000731764D01*
X0000254964Y0000740273D01*
X0000246609Y0000745981D01*
X0000242982Y0000746716D01*
X0000243891Y0000748905D01*
X0000243904Y0000763549D01*
X0000238311Y0000777084D01*
X0000227965Y0000787448D01*
X0000214440Y0000793064D01*
X0000199796Y0000793077D01*
X0000186262Y0000787484D01*
X0000175897Y0000777138D01*
X0000170281Y0000763614D01*
X0000170269Y0000748969D01*
X0000172826Y0000742778D01*
X0000169707Y0000740771D01*
X0000163998Y0000732416D01*
X0000161990Y0000722500D01*
X0000161990Y0000663444D01*
X0000163733Y0000654180D01*
X0000169209Y0000645671D01*
X0000177563Y0000639963D01*
X0000187480Y0000637954D01*
X0000236692Y0000637954D01*
X0000245957Y0000639698D01*
X0000254466Y0000645173D01*
X0000260174Y0000653527D01*
X0000262102Y0000663051D01*
X0000266609Y0000663051D01*
X0000266886Y0000662620D01*
X0000275240Y0000656912D01*
X0000285157Y0000654903D01*
X0000304842Y0000654903D01*
X0000308906Y0000655668D01*
X0000309370Y0000655204D01*
X0000309370Y0000640674D01*
X0000308920Y0000640014D01*
X0000306911Y0000630098D01*
X0000306911Y0000616018D01*
X0000292543Y0000601649D01*
X0000286057Y0000591942D01*
X0000283779Y0000580492D01*
X0000283779Y0000577681D01*
X0000283329Y0000577023D01*
X0000281321Y0000567106D01*
X0000281321Y0000547421D01*
X0000283064Y0000538156D01*
X0000288539Y0000529647D01*
X0000296894Y0000523939D01*
X0000306811Y0000521931D01*
X0000320590Y0000521931D01*
X0000329855Y0000523674D01*
X0000338363Y0000529150D01*
X0000339226Y0000530414D01*
X0000339720Y0000529647D01*
X0000348075Y0000523939D01*
X0000357991Y0000521931D01*
X0000371771Y0000521931D01*
X0000376294Y0000522781D01*
X0000247192Y0000393681D01*
X0000232031Y0000393681D01*
X0000220580Y0000391403D01*
X0000213088Y0000386398D01*
X0000196220Y0000386398D01*
X0000184770Y0000384120D01*
X0000175063Y0000377634D01*
X0000137779Y0000340349D01*
X0000134097Y0000334840D01*
X0000129409Y0000334840D01*
X0000120144Y0000333095D01*
X0000111636Y0000327621D01*
X0000105927Y0000319267D01*
X0000103919Y0000309350D01*
X0000103919Y0000308599D01*
X0000098409Y0000304917D01*
X0000085929Y0000292437D01*
X0000080719Y0000284641D01*
X0000077072Y0000290100D01*
X0000064113Y0000298759D01*
X0000077072Y0000307419D01*
X0000089746Y0000326386D01*
X0000094196Y0000348759D01*
X0000089746Y0000371133D01*
X0000077072Y0000390100D01*
X0000064113Y0000398759D01*
X0000077072Y0000407419D01*
X0000089746Y0000426386D01*
X0000094196Y0000448759D01*
X0000089746Y0000471133D01*
X0000077072Y0000490100D01*
X0000058105Y0000502774D01*
X0000035731Y0000507224D01*
X0000033441Y0000507224D01*
X0000027952Y0000506132D01*
X0000027952Y0001153149D01*
X0000759447Y0001153149D01*
X0000759447Y0001086119D01*
X0000759447Y0001086119D01*
G37*
X0000759447Y0001086119D02*
X0000698425Y0001086119D01*
X0000689160Y0001084376D01*
X0000680651Y0001078901D01*
X0000674943Y0001070546D01*
X0000672935Y0001060629D01*
X0000672935Y0001029133D01*
X0000674678Y0001019868D01*
X0000674775Y0001019717D01*
X0000672935Y0001010629D01*
X0000672935Y0000979133D01*
X0000674678Y0000969869D01*
X0000674775Y0000969718D01*
X0000672935Y0000960629D01*
X0000672935Y0000929133D01*
X0000674678Y0000919869D01*
X0000674775Y0000919718D01*
X0000672935Y0000910629D01*
X0000672935Y0000879133D01*
X0000674678Y0000869869D01*
X0000674775Y0000869718D01*
X0000672935Y0000860629D01*
X0000672935Y0000829133D01*
X0000674678Y0000819869D01*
X0000680153Y0000811360D01*
X0000688507Y0000805652D01*
X0000698425Y0000803644D01*
X0000759447Y0000803644D01*
X0000759447Y0000501739D01*
X0000746266Y0000507214D01*
X0000723008Y0000507233D01*
X0000701512Y0000498352D01*
X0000685051Y0000481920D01*
X0000682668Y0000476181D01*
X0000615744Y0000476181D01*
X0000614927Y0000480524D01*
X0000609452Y0000489033D01*
X0000601097Y0000494741D01*
X0000591181Y0000496749D01*
X0000557795Y0000496749D01*
X0000557795Y0000668737D01*
X0000566665Y0000670407D01*
X0000575174Y0000675882D01*
X0000580883Y0000684236D01*
X0000582891Y0000694153D01*
X0000582891Y0000743366D01*
X0000581148Y0000752630D01*
X0000575672Y0000761138D01*
X0000567318Y0000766846D01*
X0000557401Y0000768854D01*
X0000555905Y0000768854D01*
X0000555905Y0000803644D01*
X0000561417Y0000803644D01*
X0000570681Y0000805387D01*
X0000579190Y0000810861D01*
X0000584898Y0000819216D01*
X0000586907Y0000829133D01*
X0000586907Y0000860629D01*
X0000585163Y0000869894D01*
X0000585066Y0000870045D01*
X0000586907Y0000879133D01*
X0000586907Y0000910629D01*
X0000585163Y0000919894D01*
X0000585066Y0000920045D01*
X0000586907Y0000929133D01*
X0000586907Y0000960629D01*
X0000585163Y0000969894D01*
X0000579688Y0000978403D01*
X0000571334Y0000984111D01*
X0000561417Y0000986119D01*
X0000490551Y0000986119D01*
X0000487006Y0000985452D01*
X0000487006Y0001004361D01*
X0000490551Y0001003644D01*
X0000561417Y0001003644D01*
X0000570681Y0001005387D01*
X0000579190Y0001010861D01*
X0000582927Y0001016331D01*
X0000593103Y0001016331D01*
X0000598696Y0001002796D01*
X0000609042Y0000992433D01*
X0000622566Y0000986817D01*
X0000637211Y0000986804D01*
X0000650745Y0000992396D01*
X0000661109Y0001002742D01*
X0000666725Y0001016267D01*
X0000666738Y0001030912D01*
X0000661145Y0001044446D01*
X0000650800Y0001054810D01*
X0000637275Y0001060426D01*
X0000622631Y0001060439D01*
X0000609096Y0001054847D01*
X0000598732Y0001044500D01*
X0000593116Y0001030975D01*
X0000593103Y0001016331D01*
X0000582927Y0001016331D01*
X0000584898Y0001019215D01*
X0000586907Y0001029133D01*
X0000586907Y0001060629D01*
X0000585163Y0001069894D01*
X0000579688Y0001078403D01*
X0000571334Y0001084111D01*
X0000561417Y0001086119D01*
X0000490551Y0001086119D01*
X0000481286Y0001084376D01*
X0000472777Y0001078901D01*
X0000467069Y0001070546D01*
X0000466395Y0001067218D01*
X0000462496Y0001071117D01*
X0000461915Y0001074205D01*
X0000456440Y0001082714D01*
X0000448085Y0001088422D01*
X0000438169Y0001090430D01*
X0000379114Y0001090430D01*
X0000369849Y0001088687D01*
X0000361340Y0001083212D01*
X0000359161Y0001080023D01*
X0000353037Y0001078805D01*
X0000344067Y0001072811D01*
X0000343805Y0001074205D01*
X0000338330Y0001082714D01*
X0000329975Y0001088422D01*
X0000320059Y0001090430D01*
X0000261002Y0001090430D01*
X0000251739Y0001088687D01*
X0000243958Y0001083681D01*
X0000235316Y0001083681D01*
X0000234573Y0001087630D01*
X0000229097Y0001096139D01*
X0000220743Y0001101847D01*
X0000210826Y0001103855D01*
X0000151771Y0001103855D01*
X0000142507Y0001102112D01*
X0000133998Y0001096637D01*
X0000128288Y0001088283D01*
X0000126281Y0001078366D01*
X0000126281Y0001045978D01*
X0000079552Y0000999249D01*
X0000065490Y0000999249D01*
X0000056227Y0000997506D01*
X0000047718Y0000992031D01*
X0000042010Y0000983676D01*
X0000040001Y0000973758D01*
X0000040001Y0000923759D01*
X0000041745Y0000914495D01*
X0000047220Y0000905986D01*
X0000049233Y0000904611D01*
X0000047781Y0000901114D01*
X0000047769Y0000886469D01*
X0000053361Y0000872935D01*
X0000063707Y0000862571D01*
X0000077232Y0000856955D01*
X0000091876Y0000856942D01*
X0000105411Y0000862533D01*
X0000115775Y0000872880D01*
X0000121390Y0000886405D01*
X0000121401Y0000898270D01*
X0000153681Y0000898270D01*
X0000162945Y0000900013D01*
X0000171454Y0000905488D01*
X0000177162Y0000913842D01*
X0000179170Y0000923759D01*
X0000179170Y0000973758D01*
X0000177426Y0000983024D01*
X0000176995Y0000983696D01*
X0000177137Y0000983838D01*
X0000241682Y0000983838D01*
X0000242731Y0000982207D01*
X0000251087Y0000976498D01*
X0000261002Y0000974490D01*
X0000320059Y0000974490D01*
X0000329323Y0000976233D01*
X0000329665Y0000976453D01*
X0000329665Y0000859901D01*
X0000331942Y0000848451D01*
X0000338429Y0000838744D01*
X0000366956Y0000810216D01*
X0000366362Y0000809817D01*
X0000343724Y0000787181D01*
X0000337237Y0000777473D01*
X0000334960Y0000766023D01*
X0000334960Y0000713951D01*
X0000326134Y0000719847D01*
X0000324921Y0000720089D01*
X0000324921Y0000724551D01*
X0000328324Y0000729531D01*
X0000330332Y0000739448D01*
X0000330332Y0000763070D01*
X0000328588Y0000772335D01*
X0000323113Y0000780844D01*
X0000323059Y0000780881D01*
X0000328324Y0000788586D01*
X0000330332Y0000798503D01*
X0000330332Y0000822124D01*
X0000328588Y0000831390D01*
X0000323113Y0000839899D01*
X0000314759Y0000845607D01*
X0000304842Y0000847615D01*
X0000285157Y0000847615D01*
X0000275892Y0000845872D01*
X0000267384Y0000840397D01*
X0000261675Y0000832042D01*
X0000259666Y0000822124D01*
X0000259666Y0000798503D01*
X0000261409Y0000789239D01*
X0000266886Y0000780730D01*
X0000266940Y0000780692D01*
X0000261675Y0000772987D01*
X0000259666Y0000763070D01*
X0000259666Y0000739448D01*
X0000261409Y0000730184D01*
X0000265078Y0000724484D01*
X0000265078Y0000722892D01*
X0000262108Y0000722892D01*
X0000260438Y0000731764D01*
X0000254964Y0000740273D01*
X0000246609Y0000745981D01*
X0000242982Y0000746716D01*
X0000243891Y0000748905D01*
X0000243904Y0000763549D01*
X0000238311Y0000777084D01*
X0000227965Y0000787448D01*
X0000214440Y0000793064D01*
X0000199796Y0000793077D01*
X0000186262Y0000787484D01*
X0000175897Y0000777138D01*
X0000170281Y0000763614D01*
X0000170269Y0000748969D01*
X0000172826Y0000742778D01*
X0000169707Y0000740771D01*
X0000163998Y0000732416D01*
X0000161990Y0000722500D01*
X0000161990Y0000663444D01*
X0000163733Y0000654180D01*
X0000169209Y0000645671D01*
X0000177563Y0000639963D01*
X0000187480Y0000637954D01*
X0000236692Y0000637954D01*
X0000245957Y0000639698D01*
X0000254466Y0000645173D01*
X0000260174Y0000653527D01*
X0000262102Y0000663051D01*
X0000266609Y0000663051D01*
X0000266886Y0000662620D01*
X0000275240Y0000656912D01*
X0000285157Y0000654903D01*
X0000304842Y0000654903D01*
X0000308906Y0000655668D01*
X0000309370Y0000655204D01*
X0000309370Y0000640674D01*
X0000308920Y0000640014D01*
X0000306911Y0000630098D01*
X0000306911Y0000616018D01*
X0000292543Y0000601649D01*
X0000286057Y0000591942D01*
X0000283779Y0000580492D01*
X0000283779Y0000577681D01*
X0000283329Y0000577023D01*
X0000281321Y0000567106D01*
X0000281321Y0000547421D01*
X0000283064Y0000538156D01*
X0000288539Y0000529647D01*
X0000296894Y0000523939D01*
X0000306811Y0000521931D01*
X0000320590Y0000521931D01*
X0000329855Y0000523674D01*
X0000338363Y0000529150D01*
X0000339226Y0000530414D01*
X0000339720Y0000529647D01*
X0000348075Y0000523939D01*
X0000357991Y0000521931D01*
X0000371771Y0000521931D01*
X0000376294Y0000522781D01*
X0000247192Y0000393681D01*
X0000232031Y0000393681D01*
X0000220580Y0000391403D01*
X0000213088Y0000386398D01*
X0000196220Y0000386398D01*
X0000184770Y0000384120D01*
X0000175063Y0000377634D01*
X0000137779Y0000340349D01*
X0000134097Y0000334840D01*
X0000129409Y0000334840D01*
X0000120144Y0000333095D01*
X0000111636Y0000327621D01*
X0000105927Y0000319267D01*
X0000103919Y0000309350D01*
X0000103919Y0000308599D01*
X0000098409Y0000304917D01*
X0000085929Y0000292437D01*
X0000080719Y0000284641D01*
X0000077072Y0000290100D01*
X0000064113Y0000298759D01*
X0000077072Y0000307419D01*
X0000089746Y0000326386D01*
X0000094196Y0000348759D01*
X0000089746Y0000371133D01*
X0000077072Y0000390100D01*
X0000064113Y0000398759D01*
X0000077072Y0000407419D01*
X0000089746Y0000426386D01*
X0000094196Y0000448759D01*
X0000089746Y0000471133D01*
X0000077072Y0000490100D01*
X0000058105Y0000502774D01*
X0000035731Y0000507224D01*
X0000033441Y0000507224D01*
X0000027952Y0000506132D01*
X0000027952Y0001153149D01*
X0000759447Y0001153149D01*
X0000759447Y0001086119D01*
M02*