%
M48
METRIC,000.000
T01C0.90
T02C1.00
T03C2.20
T10C0.40
T11C0.80
%
T01
X025630Y027748
X070330Y027748
X025246Y043514
X069946Y043514
X025246Y077550
X069946Y077550
T02
X048424Y001714
X050965Y001714
X053504Y001714
X056044Y001714
X024675Y001777
X027215Y001777
X029755Y001777
X066268Y001777
X068808Y001777
X071348Y001777
X024675Y004317
X027215Y004317
X029755Y004317
X066268Y004317
X068808Y004317
X071348Y004317
X024675Y006857
X027215Y006857
X029755Y006857
X061124Y006857
X066268Y006857
X068808Y006857
X071348Y006857
X024675Y009397
X027215Y009397
X029755Y009397
X061124Y009397
X066268Y009397
X068808Y009397
X071348Y009397
X024675Y011937
X027215Y011937
X029755Y011937
X061124Y011937
X066268Y011937
X068808Y011937
X071348Y011937
X024675Y014477
X027215Y014477
X029755Y014477
X061124Y014477
X066268Y014477
X068808Y014477
X071348Y014477
X027215Y017017
X029755Y017017
X061124Y017017
X066268Y017017
X068808Y017017
X071348Y017017
X050965Y019494
X053504Y019494
X056044Y019494
X058584Y019494
X027215Y019557
X029755Y019557
X061124Y019557
X066268Y019557
X068808Y019557
X071348Y019557
X048421Y051579
X050962Y051579
X053501Y051579
X056041Y051579
X024672Y051642
X027212Y051642
X029752Y051642
X066265Y051642
X068805Y051642
X071345Y051642
X024672Y054182
X027212Y054182
X029752Y054182
X066265Y054182
X068805Y054182
X071345Y054182
X024672Y056722
X027212Y056722
X029752Y056722
X061121Y056722
X066265Y056722
X068805Y056722
X071345Y056722
X024672Y059262
X027212Y059262
X029752Y059262
X061121Y059262
X066265Y059262
X068805Y059262
X071345Y059262
X024672Y061802
X027212Y061802
X029752Y061802
X061121Y061802
X066265Y061802
X068805Y061802
X071345Y061802
X024672Y064342
X027212Y064342
X029752Y064342
X061121Y064342
X066265Y064342
X068805Y064342
X071345Y064342
X027212Y066882
X029752Y066882
X061121Y066882
X066265Y066882
X068805Y066882
X071345Y066882
X050962Y069359
X053501Y069359
X056041Y069359
X058581Y069359
X027212Y069422
X029752Y069422
X061121Y069422
X066265Y069422
X068805Y069422
X071345Y069422
X076078Y013938
X076078Y011397
X076078Y008858
X076078Y006319
X081221Y001239
X083761Y001239
X086301Y001239
X088841Y001239
X091381Y001239
X093858Y011397
X093858Y008858
X093858Y006319
X093858Y003778
X093921Y001239
X076010Y061510
X076010Y058970
X076010Y056430
X076010Y053890
X076010Y051349
X076010Y048810
X076010Y046269
X076010Y043729
X076010Y041190
X076010Y038650
X078550Y061510
X078550Y058970
X078550Y056430
X078550Y053890
X078550Y051349
X078550Y048810
X078550Y046269
X078550Y043729
X078550Y041190
X078550Y038650
X081090Y061510
X081090Y058970
X081090Y056430
X081090Y053890
X081090Y051349
X081090Y048810
X081090Y046269
X081090Y043729
X081090Y041190
X081090Y038650
X081090Y036110
X081090Y033569
X083630Y061510
X083630Y058970
X083630Y056430
X083630Y053890
X083630Y051349
X083630Y048810
X083630Y046269
X083630Y043729
X083630Y041190
X083630Y033569
X086170Y061510
X086170Y058970
X086170Y056430
X086170Y053890
X086170Y051349
X086170Y048810
X086170Y046269
X086170Y043729
X086170Y041190
X086170Y033569
X088710Y061510
X088710Y058970
X088710Y056430
X088710Y053890
X088710Y051349
X088710Y048810
X088710Y046269
X088710Y043729
X088710Y041190
X088710Y038650
X088710Y036110
X088710Y033569
X091250Y061510
X091250Y058970
X091250Y056430
X091250Y053890
X091250Y051349
X091250Y048810
X091250Y046269
X091250Y043729
X091250Y041190
X091250Y038650
X091250Y036110
X091250Y033569
X093790Y061510
X093790Y058970
X093790Y056430
X093790Y053890
X093790Y051349
X093790Y048810
X093790Y046269
X093790Y043729
X093790Y041190
X093790Y038650
X093790Y036110
X093790Y033569
X076010Y094510
X076010Y091970
X076010Y089430
X076010Y086890
X076010Y084350
X076010Y081810
X076010Y079270
X076010Y076729
X076010Y074190
X076010Y071650
X078550Y094510
X078550Y091970
X078550Y089430
X078550Y086890
X078550Y084350
X078550Y081810
X078550Y079270
X078550Y076729
X078550Y074190
X078550Y071650
X081090Y094510
X081090Y091970
X081090Y089430
X081090Y086890
X081090Y084350
X081090Y081810
X081090Y079270
X081090Y076729
X081090Y074190
X081090Y071650
X081090Y069110
X081090Y066570
X083630Y094510
X083630Y091970
X083630Y089430
X083630Y086890
X083630Y084350
X083630Y081810
X083630Y079270
X083630Y076729
X083630Y074190
X083630Y066570
X086170Y094510
X086170Y091970
X086170Y089430
X086170Y086890
X086170Y084350
X086170Y081810
X086170Y079270
X086170Y076729
X086170Y074190
X086170Y066570
X088710Y094510
X088710Y091970
X088710Y089430
X088710Y086890
X088710Y084350
X088710Y081810
X088710Y079270
X088710Y076729
X088710Y074190
X088710Y071650
X088710Y069110
X088710Y066570
X091250Y094510
X091250Y091970
X091250Y089430
X091250Y086890
X091250Y084350
X091250Y081810
X091250Y079270
X091250Y076729
X091250Y074190
X091250Y071650
X091250Y069110
X091250Y066570
X093790Y094510
X093790Y091970
X093790Y089430
X093790Y086890
X093790Y084350
X093790Y081810
X093790Y079270
X093790Y076729
X093790Y074190
X093790Y071650
X093790Y069110
X093790Y066570
X000810Y093510
X000810Y090970
X000810Y088430
X000810Y085890
X000810Y083350
X000810Y080810
X000810Y078270
X000810Y075729
X000810Y073190
X000810Y070650
X003349Y093510
X003349Y090970
X003349Y088430
X003349Y085890
X003349Y083350
X003349Y080810
X003349Y078270
X003349Y075729
X003349Y073190
X003349Y070650
X005889Y093510
X005889Y090970
X005889Y088430
X005889Y085890
X005889Y083350
X005889Y080810
X005889Y078270
X005889Y075729
X005889Y073190
X005889Y070650
X005889Y068110
X005889Y065570
X008430Y093510
X008430Y090970
X008430Y088430
X008430Y085890
X008430Y083350
X008430Y080810
X008430Y078270
X008430Y075729
X008430Y073190
X008430Y065570
X010969Y093510
X010969Y090970
X010969Y088430
X010969Y085890
X010969Y083350
X010969Y080810
X010969Y078270
X010969Y075729
X010969Y073190
X010969Y065570
X013509Y093510
X013509Y090970
X013509Y088430
X013509Y085890
X013509Y083350
X013509Y080810
X013509Y078270
X013509Y075729
X013509Y073190
X013509Y070650
X013509Y068110
X013509Y065570
X016050Y093510
X016050Y090970
X016050Y088430
X016050Y085890
X016050Y083350
X016050Y080810
X016050Y078270
X016050Y075729
X016050Y073190
X016050Y070650
X016050Y068110
X016050Y065570
X018590Y093510
X018590Y090970
X018590Y088430
X018590Y085890
X018590Y083350
X018590Y080810
X018590Y078270
X018590Y075729
X018590Y073190
X018590Y070650
X018590Y068110
X018590Y065570
X000878Y045938
X000878Y043397
X000878Y040858
X000878Y038319
X006021Y033239
X008562Y033239
X011102Y033239
X013641Y033239
X016181Y033239
X018658Y043397
X018658Y040858
X018658Y038319
X018658Y035779
X018722Y033239
X000878Y013938
X000878Y011397
X000878Y008858
X000878Y006319
X006021Y001239
X008562Y001239
X011102Y001239
X013641Y001239
X016181Y001239
X018658Y011397
X018658Y008858
X018658Y006319
X018658Y003778
X018722Y001239
T03
X060553Y002793
X024104Y018922
X060550Y052658
X024101Y068787
X077157Y001810
X085031Y005111
X077200Y034000
X084900Y037379
X077200Y067000
X084900Y070380
X002000Y066000
X009699Y069380
X001957Y033810
X009831Y037111
X001957Y001810
X009831Y005111
T10
X077347Y022702
X080459Y019209
X083380Y003079
X085729Y011334
X086999Y021495
X002147Y054702
X005259Y051209
X008180Y035080
X010530Y043334
X011800Y053495
X002147Y022702
X005259Y019209
X008180Y003079
X010530Y011334
X011800Y021495
T11
X084396Y008858
X086396Y008858
X088396Y008858
X090396Y008858
X009197Y040858
X011197Y040858
X013197Y040858
X015197Y040858
X009197Y008858
X011197Y008858
X013197Y008858
X015197Y008858
M30