%
M48
METRIC,000.000
T01C0.90
T02C1.00
T03C2.20
T10C1.40
T11C0.40
T12C0.80
%
T01
X025630Y027748
X070330Y027748
X028958Y084750
X028958Y040050
X062994Y084750
X062994Y040050
T02
X048424Y001714
X050965Y001714
X053504Y001714
X056044Y001714
X024675Y001777
X027215Y001777
X029755Y001777
X066268Y001777
X068808Y001777
X071348Y001777
X024675Y004317
X027215Y004317
X029755Y004317
X066268Y004317
X068808Y004317
X071348Y004317
X024675Y006857
X027215Y006857
X029755Y006857
X061124Y006857
X066268Y006857
X068808Y006857
X071348Y006857
X024675Y009397
X027215Y009397
X029755Y009397
X061124Y009397
X066268Y009397
X068808Y009397
X071348Y009397
X024675Y011937
X027215Y011937
X029755Y011937
X061124Y011937
X066268Y011937
X068808Y011937
X071348Y011937
X024675Y014477
X027215Y014477
X029755Y014477
X061124Y014477
X066268Y014477
X068808Y014477
X071348Y014477
X027215Y017017
X029755Y017017
X061124Y017017
X066268Y017017
X068808Y017017
X071348Y017017
X050965Y019494
X053504Y019494
X056044Y019494
X058584Y019494
X027215Y019557
X029755Y019557
X061124Y019557
X066268Y019557
X068808Y019557
X071348Y019557
X037023Y061575
X037023Y059034
X037023Y056495
X037023Y053955
X037086Y085324
X037086Y082784
X037086Y080244
X037086Y043731
X037086Y041191
X037086Y038651
X039626Y085324
X039626Y082784
X039626Y080244
X039626Y043731
X039626Y041191
X039626Y038651
X042166Y085324
X042166Y082784
X042166Y080244
X042166Y048875
X042166Y043731
X042166Y041191
X042166Y038651
X044706Y085324
X044706Y082784
X044706Y080244
X044706Y048875
X044706Y043731
X044706Y041191
X044706Y038651
X047246Y085324
X047246Y082784
X047246Y080244
X047246Y048875
X047246Y043731
X047246Y041191
X047246Y038651
X049786Y085324
X049786Y082784
X049786Y080244
X049786Y048875
X049786Y043731
X049786Y041191
X049786Y038651
X052326Y082784
X052326Y080244
X052326Y048875
X052326Y043731
X052326Y041191
X052326Y038651
X054803Y059034
X054803Y056495
X054803Y053955
X054803Y051415
X054866Y082784
X054866Y080244
X054866Y048875
X054866Y043731
X054866Y041191
X054866Y038651
X-151134Y114255
X-151134Y114001
X072878Y083939
X072878Y081398
X072878Y078859
X072878Y076319
X078021Y071239
X080562Y071239
X083102Y071239
X085642Y071239
X088181Y071239
X090658Y081398
X090658Y078859
X090658Y076319
X090658Y073779
X090722Y071239
X072810Y066510
X072810Y063970
X072810Y061430
X072810Y058890
X072810Y056349
X072810Y053810
X072810Y051269
X072810Y048729
X072810Y046190
X072810Y043650
X075350Y066510
X075350Y063970
X075350Y061430
X075350Y058890
X075350Y056349
X075350Y053810
X075350Y051269
X075350Y048729
X075350Y046190
X075350Y043650
X077889Y066510
X077889Y063970
X077889Y061430
X077889Y058890
X077889Y056349
X077889Y053810
X077889Y051269
X077889Y048729
X077889Y046190
X077889Y043650
X077889Y041110
X077889Y038569
X080430Y066510
X080430Y063970
X080430Y061430
X080430Y058890
X080430Y056349
X080430Y053810
X080430Y051269
X080430Y048729
X080430Y046190
X080430Y038569
X082970Y066510
X082970Y063970
X082970Y061430
X082970Y058890
X082970Y056349
X082970Y053810
X082970Y051269
X082970Y048729
X082970Y046190
X082970Y038569
X085509Y066510
X085509Y063970
X085509Y061430
X085509Y058890
X085509Y056349
X085509Y053810
X085509Y051269
X085509Y048729
X085509Y046190
X085509Y043650
X085509Y041110
X085509Y038569
X088050Y066510
X088050Y063970
X088050Y061430
X088050Y058890
X088050Y056349
X088050Y053810
X088050Y051269
X088050Y048729
X088050Y046190
X088050Y043650
X088050Y041110
X088050Y038569
X090590Y066510
X090590Y063970
X090590Y061430
X090590Y058890
X090590Y056349
X090590Y053810
X090590Y051269
X090590Y048729
X090590Y046190
X090590Y043650
X090590Y041110
X090590Y038569
X075810Y029510
X075810Y026970
X075810Y024430
X075810Y021890
X075810Y019349
X075810Y016810
X075810Y014269
X075810Y011729
X075810Y009189
X075810Y006650
X078350Y029510
X078350Y026970
X078350Y024430
X078350Y021890
X078350Y019349
X078350Y016810
X078350Y014269
X078350Y011729
X078350Y009189
X078350Y006650
X080889Y029510
X080889Y026970
X080889Y024430
X080889Y021890
X080889Y019349
X080889Y016810
X080889Y014269
X080889Y011729
X080889Y009189
X080889Y006650
X080889Y004110
X080889Y001569
X083430Y029510
X083430Y026970
X083430Y024430
X083430Y021890
X083430Y019349
X083430Y016810
X083430Y014269
X083430Y011729
X083430Y009189
X083430Y001569
X085970Y029510
X085970Y026970
X085970Y024430
X085970Y021890
X085970Y019349
X085970Y016810
X085970Y014269
X085970Y011729
X085970Y009189
X085970Y001569
X088509Y029510
X088509Y026970
X088509Y024430
X088509Y021890
X088509Y019349
X088509Y016810
X088509Y014269
X088509Y011729
X088509Y009189
X088509Y006650
X088509Y004110
X088509Y001569
X091050Y029510
X091050Y026970
X091050Y024430
X091050Y021890
X091050Y019349
X091050Y016810
X091050Y014269
X091050Y011729
X091050Y009189
X091050Y006650
X091050Y004110
X091050Y001569
X093590Y029510
X093590Y026970
X093590Y024430
X093590Y021890
X093590Y019349
X093590Y016810
X093590Y014269
X093590Y011729
X093590Y009189
X093590Y006650
X093590Y004110
X093590Y001569
T03
X060553Y002793
X024104Y018922
X038102Y049446
X054231Y085895
X073958Y071810
X081832Y075112
X074000Y039000
X081699Y042379
X077000Y002000
X084699Y005379
T10
X-169982Y124995G85X-169982Y124995
X-169982Y124987G85X-169982Y124987
T11
X074148Y092702
X077259Y089209
X080181Y073080
X082530Y081335
X083800Y091495
T12
X081197Y078859
X083197Y078859
X085197Y078859
X087197Y078859
M30