%MOIN*%
%OFA0B0*%
%FSLAX46Y46*%
%IPPOS*%
%LPD*%
%ADD10C,0.0039370078740157488*%
%ADD11C,0.10236220472440946*%
%ADD12R,0.082677165354330714X0.082677165354330714*%
%ADD13C,0.082677165354330714*%
%ADD14O,0.082677165354330714X0.082677165354330714*%
%ADD15C,0.094488188976377951*%
%ADD26C,0.0039370078740157488*%
%ADD27C,0.10236220472440946*%
%ADD28R,0.082677165354330714X0.082677165354330714*%
%ADD29C,0.082677165354330714*%
%ADD30O,0.082677165354330714X0.082677165354330714*%
%ADD31C,0.094488188976377951*%
%ADD42C,0.0039370078740157488*%
%ADD43C,0.082677165354330714*%
%ADD44O,0.082677165354330714X0.082677165354330714*%
%ADD45C,0.10236220472440946*%
%ADD46R,0.074803149606299218X0.064960629921259838*%
%ADD47R,0.064960629921259838X0.074803149606299218*%
%ADD48R,0.053937007874015758X0.065748031496063*%
%ADD49R,0.074803149606299218X0.066929133858267723*%
%ADD50C,0.03937007874015748*%
%ADD51R,0.086614173228346469X0.047244094488188976*%
%ADD52R,0.074803149606299218X0.043307086614173235*%
%ADD53R,0.035433070866141732X0.03937007874015748*%
%ADD54R,0.03937007874015748X0.035433070866141732*%
%ADD55R,0.068897637795275593X0.068897637795275593*%
%ADD56O,0.068897637795275593X0.068897637795275593*%
%ADD57R,0.017716535433070866X0.023622047244094488*%
%ADD68C,0.0039370078740157488*%
%ADD69C,0.082677165354330714*%
%ADD70O,0.082677165354330714X0.082677165354330714*%
%ADD71C,0.10236220472440946*%
%ADD72R,0.074803149606299218X0.064960629921259838*%
%ADD73R,0.064960629921259838X0.074803149606299218*%
%ADD74R,0.053937007874015758X0.065748031496063*%
%ADD75R,0.074803149606299218X0.066929133858267723*%
%ADD76C,0.03937007874015748*%
%ADD77R,0.086614173228346469X0.047244094488188976*%
%ADD78R,0.074803149606299218X0.043307086614173235*%
%ADD79R,0.035433070866141732X0.03937007874015748*%
%ADD80R,0.03937007874015748X0.035433070866141732*%
%ADD81R,0.068897637795275593X0.068897637795275593*%
%ADD82O,0.068897637795275593X0.068897637795275593*%
%ADD83R,0.017716535433070866X0.023622047244094488*%
%ADD94C,0.0039370078740157488*%
%ADD95R,0.082677165354330714X0.082677165354330714*%
%ADD96C,0.10236220472440946*%
%ADD107C,0.0039370078740157488*%
%ADD108R,0.082677165354330714X0.082677165354330714*%
%ADD109C,0.10236220472440946*%
%ADD120C,0.0039370078740157488*%
%ADD121C,0.082677165354330714*%
%ADD122O,0.082677165354330714X0.082677165354330714*%
%ADD123C,0.10236220472440946*%
%ADD124R,0.07874015748031496X0.10157480314960631*%
%ADD125R,0.092519685039370081X0.1141732283464567*%
%ADD126R,0.074803149606299218X0.074803149606299218*%
%ADD127R,0.043307086614173235X0.066929133858267723*%
%ADD138C,0.0039370078740157488*%
%ADD139C,0.082677165354330714*%
%ADD140O,0.082677165354330714X0.082677165354330714*%
%ADD141C,0.10236220472440946*%
%ADD142R,0.07874015748031496X0.10157480314960631*%
%ADD143R,0.092519685039370081X0.1141732283464567*%
%ADD144R,0.074803149606299218X0.074803149606299218*%
%ADD145R,0.043307086614173235X0.066929133858267723*%
%LPD*%
G01*
D10*
D11*
X-0002440944Y-0006653543D02*
X0000974055Y0000751456D03*
D12*
X0001196555Y0000076456D03*
X0001196555Y0000176456D03*
X0001196555Y0000276456D03*
X0001196555Y0000376456D03*
X0001196555Y0000476456D03*
X0001196555Y0000576456D03*
X0001196555Y0000676456D03*
X0001196555Y0000776455D03*
X0001096555Y0000076456D03*
X0001096555Y0000176456D03*
X0001096555Y0000276456D03*
X0001096555Y0000376456D03*
X0001096555Y0000476456D03*
X0001096555Y0000576456D03*
X0001096555Y0000676456D03*
X0001096555Y0000776455D03*
X0000996555Y0000076456D03*
X0000996555Y0000176456D03*
X0000996555Y0000276456D03*
X0000996555Y0000376456D03*
X0000996555Y0000476456D03*
X0000996555Y0000576456D03*
X0002634055Y0000076456D03*
X0002634055Y0000176456D03*
X0002634055Y0000276456D03*
X0002634055Y0000376456D03*
X0002634055Y0000476456D03*
X0002634055Y0000576456D03*
X0002634055Y0000676456D03*
X0002634055Y0000776455D03*
X0002734055Y0000076456D03*
X0002734055Y0000176456D03*
X0002734055Y0000276456D03*
X0002734055Y0000376456D03*
X0002734055Y0000476456D03*
X0002734055Y0000576456D03*
X0002734055Y0000676456D03*
X0002734055Y0000776455D03*
X0002834055Y0000076456D03*
X0002834055Y0000176456D03*
X0002834055Y0000276456D03*
X0002834055Y0000376456D03*
X0002834055Y0000476456D03*
X0002834055Y0000576456D03*
X0002834055Y0000676456D03*
X0002834055Y0000776455D03*
D13*
X0001931555Y0000073956D03*
D14*
X0002031555Y0000073956D03*
X0002131555Y0000073956D03*
X0002231555Y0000073956D03*
D13*
X0002031555Y0000773956D03*
D14*
X0002131555Y0000773956D03*
X0002231555Y0000773956D03*
X0002331555Y0000773956D03*
D13*
X0002431555Y0000776455D03*
D14*
X0002431555Y0000676456D03*
X0002431555Y0000576456D03*
X0002431555Y0000476456D03*
X0002431555Y0000376456D03*
X0002431555Y0000276456D03*
D11*
X0002409055Y0000116456D03*
D15*
X0001034133Y0001098956D03*
X0002793976Y0001098956D03*
G01*
D26*
D27*
X-0002440944Y-0004685039D02*
X0000974055Y0002719960D03*
D28*
X0001196555Y0002044960D03*
X0001196555Y0002144960D03*
X0001196555Y0002244960D03*
X0001196555Y0002344960D03*
X0001196555Y0002444960D03*
X0001196555Y0002544960D03*
X0001196555Y0002644960D03*
X0001196555Y0002744960D03*
X0001096555Y0002044960D03*
X0001096555Y0002144960D03*
X0001096555Y0002244960D03*
X0001096555Y0002344960D03*
X0001096555Y0002444960D03*
X0001096555Y0002544960D03*
X0001096555Y0002644960D03*
X0001096555Y0002744960D03*
X0000996555Y0002044960D03*
X0000996555Y0002144960D03*
X0000996555Y0002244960D03*
X0000996555Y0002344960D03*
X0000996555Y0002444960D03*
X0000996555Y0002544960D03*
X0002634055Y0002044960D03*
X0002634055Y0002144960D03*
X0002634055Y0002244960D03*
X0002634055Y0002344960D03*
X0002634055Y0002444960D03*
X0002634055Y0002544960D03*
X0002634055Y0002644960D03*
X0002634055Y0002744960D03*
X0002734055Y0002044960D03*
X0002734055Y0002144960D03*
X0002734055Y0002244960D03*
X0002734055Y0002344960D03*
X0002734055Y0002444960D03*
X0002734055Y0002544960D03*
X0002734055Y0002644960D03*
X0002734055Y0002744960D03*
X0002834055Y0002044960D03*
X0002834055Y0002144960D03*
X0002834055Y0002244960D03*
X0002834055Y0002344960D03*
X0002834055Y0002444960D03*
X0002834055Y0002544960D03*
X0002834055Y0002644960D03*
X0002834055Y0002744960D03*
D29*
X0001931555Y0002042460D03*
D30*
X0002031555Y0002042460D03*
X0002131555Y0002042460D03*
X0002231555Y0002042460D03*
D29*
X0002031555Y0002742459D03*
D30*
X0002131555Y0002742459D03*
X0002231555Y0002742459D03*
X0002331555Y0002742459D03*
D29*
X0002431555Y0002744960D03*
D30*
X0002431555Y0002644960D03*
X0002431555Y0002544960D03*
X0002431555Y0002444960D03*
X0002431555Y0002344960D03*
X0002431555Y0002244960D03*
D27*
X0002409055Y0002084960D03*
D31*
X0001019133Y0003064959D03*
X0002778976Y0003064959D03*
X0002778976Y0001724960D03*
X0001019133Y0001724960D03*
G01*
D42*
D43*
X-0006692913Y0006220472D02*
X0000034586Y0001847972D03*
D44*
X0000034586Y0001747972D03*
X0000034586Y0001647972D03*
X0000034586Y0001547972D03*
D43*
X0000734586Y0001747972D03*
D44*
X0000734586Y0001647972D03*
X0000734586Y0001547972D03*
X0000734586Y0001447972D03*
D43*
X0000737086Y0001347972D03*
D44*
X0000637086Y0001347972D03*
X0000537086Y0001347972D03*
X0000437086Y0001347972D03*
X0000337086Y0001347972D03*
X0000237086Y0001347972D03*
D45*
X0000077086Y0001370472D03*
D46*
X0000181299Y0002352972D03*
X0000082873Y0002352972D03*
D47*
X0000212086Y0001992185D03*
X0000212086Y0001893759D03*
D48*
X0000472086Y0001745472D03*
X0000522086Y0001745472D03*
X0000572086Y0001745472D03*
X0000184586Y0002247972D03*
X0000134586Y0002247972D03*
X0000084586Y0002247972D03*
D49*
X0000158937Y0001582972D03*
X0000265236Y0001582972D03*
X0000158937Y0001500472D03*
X0000265236Y0001500472D03*
D50*
X0000629921Y0002322834D03*
D51*
X0000525984Y0002244094D03*
X0000525984Y0002294094D03*
X0000525984Y0002344094D03*
X0000525984Y0002194094D03*
X0000525984Y0002144094D03*
X0000733858Y0002244094D03*
X0000733858Y0002294094D03*
X0000733858Y0002344094D03*
X0000733858Y0002194094D03*
X0000733858Y0002144094D03*
D52*
X0000290531Y0002275570D03*
X0000290531Y0002312972D03*
X0000290531Y0002350374D03*
X0000408641Y0002350374D03*
X0000408641Y0002312972D03*
X0000408641Y0002275570D03*
D45*
X0000387086Y0001500472D03*
D53*
X0000294999Y0002109527D03*
X0000294999Y0002050472D03*
X0000294999Y0001991417D03*
X0000409173Y0001991417D03*
X0000409173Y0002050472D03*
X0000409173Y0002109527D03*
D54*
X0000352086Y0002111496D03*
D55*
X0000362086Y0001647972D03*
D56*
X0000440826Y0001647972D03*
X0000519566Y0001647972D03*
X0000598307Y0001647972D03*
D46*
X0000527873Y0002017971D03*
X0000626299Y0002017971D03*
D57*
X0000313700Y0001919467D03*
X0000339291Y0001919467D03*
X0000364881Y0001919467D03*
X0000390472Y0001919467D03*
X0000313700Y0001856476D03*
X0000339291Y0001856476D03*
X0000364881Y0001856476D03*
X0000390472Y0001856476D03*
G01*
D68*
D69*
X-0006692913Y0007480314D02*
X0000034586Y0003107814D03*
D70*
X0000034586Y0003007814D03*
X0000034586Y0002907814D03*
X0000034586Y0002807814D03*
D69*
X0000734586Y0003007814D03*
D70*
X0000734586Y0002907814D03*
X0000734586Y0002807814D03*
X0000734586Y0002707814D03*
D69*
X0000737086Y0002607813D03*
D70*
X0000637086Y0002607813D03*
X0000537086Y0002607813D03*
X0000437086Y0002607813D03*
X0000337086Y0002607813D03*
X0000237086Y0002607813D03*
D71*
X0000077086Y0002630314D03*
D72*
X0000181299Y0003612814D03*
X0000082873Y0003612814D03*
D73*
X0000212086Y0003252027D03*
X0000212086Y0003153602D03*
D74*
X0000472086Y0003005314D03*
X0000522086Y0003005314D03*
X0000572086Y0003005314D03*
X0000184586Y0003507814D03*
X0000134586Y0003507814D03*
X0000084586Y0003507814D03*
D75*
X0000158937Y0002842814D03*
X0000265236Y0002842814D03*
X0000158937Y0002760313D03*
X0000265236Y0002760313D03*
D76*
X0000629921Y0003582677D03*
D77*
X0000525984Y0003503937D03*
X0000525984Y0003553937D03*
X0000525984Y0003603937D03*
X0000525984Y0003453937D03*
X0000525984Y0003403937D03*
X0000733858Y0003503937D03*
X0000733858Y0003553937D03*
X0000733858Y0003603937D03*
X0000733858Y0003453937D03*
X0000733858Y0003403937D03*
D78*
X0000290531Y0003535413D03*
X0000290531Y0003572814D03*
X0000290531Y0003610216D03*
X0000408641Y0003610216D03*
X0000408641Y0003572814D03*
X0000408641Y0003535413D03*
D71*
X0000387086Y0002760313D03*
D79*
X0000294999Y0003369370D03*
X0000294999Y0003310314D03*
X0000294999Y0003251259D03*
X0000409173Y0003251259D03*
X0000409173Y0003310314D03*
X0000409173Y0003369370D03*
D80*
X0000352086Y0003371338D03*
D81*
X0000362086Y0002907814D03*
D82*
X0000440826Y0002907814D03*
X0000519566Y0002907814D03*
X0000598307Y0002907814D03*
D72*
X0000527873Y0003277814D03*
X0000626299Y0003277814D03*
D83*
X0000313700Y0003179311D03*
X0000339291Y0003179311D03*
X0000364881Y0003179311D03*
X0000390472Y0003179311D03*
X0000313700Y0003116318D03*
X0000339291Y0003116318D03*
X0000364881Y0003116318D03*
X0000390472Y0003116318D03*
G04 next file*
%LPD*%
G01*
D94*
D95*
X-0005118110Y0005511811D02*
X0000731889Y0001161811D03*
X0000631889Y0001161811D03*
X0000731889Y0001061811D03*
X0000631889Y0001061811D03*
D96*
X0000078740Y0000078740D03*
X0000381888Y0000211810D03*
D95*
X0000031889Y0001161811D03*
X0000131889Y0001161811D03*
X0000231889Y0001161811D03*
X0000331889Y0001161811D03*
X0000431889Y0001161811D03*
X0000531889Y0001161811D03*
X0000031889Y0001061811D03*
X0000131889Y0001061811D03*
X0000231889Y0001061811D03*
X0000331889Y0001061811D03*
X0000431889Y0001061811D03*
X0000531889Y0001061811D03*
X0000031889Y0000961810D03*
X0000131889Y0000961810D03*
X0000231889Y0000961810D03*
X0000331889Y0000961810D03*
X0000431889Y0000961810D03*
X0000531889Y0000961810D03*
X0000631889Y0000961810D03*
X0000731889Y0000961810D03*
X0000031889Y0000861810D03*
X0000131889Y0000861810D03*
X0000231889Y0000861810D03*
X0000331889Y0000861810D03*
X0000431889Y0000861810D03*
X0000531889Y0000861810D03*
X0000631889Y0000861810D03*
X0000731889Y0000861810D03*
X0000031889Y0000761810D03*
X0000131889Y0000761810D03*
X0000231889Y0000761810D03*
X0000331889Y0000761810D03*
X0000431889Y0000761810D03*
X0000531889Y0000761810D03*
X0000631889Y0000761810D03*
X0000731889Y0000761810D03*
X0000031889Y0000661811D03*
X0000131889Y0000661811D03*
X0000231889Y0000661811D03*
X0000331889Y0000661811D03*
X0000431889Y0000661811D03*
X0000531889Y0000661811D03*
X0000631889Y0000661811D03*
X0000731889Y0000661811D03*
X0000031889Y0000561810D03*
X0000131889Y0000561810D03*
X0000231889Y0000561810D03*
X0000331889Y0000561810D03*
X0000431889Y0000561810D03*
X0000531889Y0000561810D03*
X0000631889Y0000561810D03*
X0000731889Y0000561810D03*
X0000031889Y0000461809D03*
X0000131889Y0000461809D03*
X0000231889Y0000461809D03*
X0000331889Y0000461809D03*
X0000431889Y0000461809D03*
X0000531889Y0000461809D03*
X0000631889Y0000461809D03*
X0000731889Y0000461809D03*
X0000031889Y0000361810D03*
X0000131889Y0000361810D03*
X0000231889Y0000361810D03*
X0000331889Y0000361810D03*
X0000431889Y0000361810D03*
X0000531889Y0000361810D03*
X0000631889Y0000361810D03*
X0000731889Y0000361810D03*
X0000031889Y0000261811D03*
X0000131889Y0000261811D03*
X0000231889Y0000261811D03*
X0000531889Y0000261811D03*
X0000631889Y0000261811D03*
X0000731889Y0000261811D03*
X0000231889Y0000161811D03*
X0000531889Y0000161811D03*
X0000631889Y0000161811D03*
X0000731889Y0000161811D03*
X0000231889Y0000061810D03*
X0000331889Y0000061810D03*
X0000431889Y0000061810D03*
X0000531889Y0000061810D03*
X0000631889Y0000061810D03*
X0000731889Y0000061810D03*
G01*
D107*
D108*
X-0002125984Y0008031496D02*
X0003724015Y0003681496D03*
X0003624014Y0003681496D03*
X0003724015Y0003581496D03*
X0003624014Y0003581496D03*
D109*
X0003070866Y0002598425D03*
X0003374015Y0002731496D03*
D108*
X0003024015Y0003681496D03*
X0003124015Y0003681496D03*
X0003224015Y0003681496D03*
X0003324015Y0003681496D03*
X0003424015Y0003681496D03*
X0003524015Y0003681496D03*
X0003024015Y0003581496D03*
X0003124015Y0003581496D03*
X0003224015Y0003581496D03*
X0003324015Y0003581496D03*
X0003424015Y0003581496D03*
X0003524015Y0003581496D03*
X0003024015Y0003481496D03*
X0003124015Y0003481496D03*
X0003224015Y0003481496D03*
X0003324015Y0003481496D03*
X0003424015Y0003481496D03*
X0003524015Y0003481496D03*
X0003624014Y0003481496D03*
X0003724015Y0003481496D03*
X0003024015Y0003381496D03*
X0003124015Y0003381496D03*
X0003224015Y0003381496D03*
X0003324015Y0003381496D03*
X0003424015Y0003381496D03*
X0003524015Y0003381496D03*
X0003624014Y0003381496D03*
X0003724015Y0003381496D03*
X0003024015Y0003281496D03*
X0003124015Y0003281496D03*
X0003224015Y0003281496D03*
X0003324015Y0003281496D03*
X0003424015Y0003281496D03*
X0003524015Y0003281496D03*
X0003624014Y0003281496D03*
X0003724015Y0003281496D03*
X0003024015Y0003181496D03*
X0003124015Y0003181496D03*
X0003224015Y0003181496D03*
X0003324015Y0003181496D03*
X0003424015Y0003181496D03*
X0003524015Y0003181496D03*
X0003624014Y0003181496D03*
X0003724015Y0003181496D03*
X0003024015Y0003081496D03*
X0003124015Y0003081496D03*
X0003224015Y0003081496D03*
X0003324015Y0003081496D03*
X0003424015Y0003081496D03*
X0003524015Y0003081496D03*
X0003624014Y0003081496D03*
X0003724015Y0003081496D03*
X0003024015Y0002981496D03*
X0003124015Y0002981496D03*
X0003224015Y0002981496D03*
X0003324015Y0002981496D03*
X0003424015Y0002981496D03*
X0003524015Y0002981496D03*
X0003624014Y0002981496D03*
X0003724015Y0002981496D03*
X0003024015Y0002881496D03*
X0003124015Y0002881496D03*
X0003224015Y0002881496D03*
X0003324015Y0002881496D03*
X0003424015Y0002881496D03*
X0003524015Y0002881496D03*
X0003624014Y0002881496D03*
X0003724015Y0002881496D03*
X0003024015Y0002781496D03*
X0003124015Y0002781496D03*
X0003224015Y0002781496D03*
X0003524015Y0002781496D03*
X0003624014Y0002781496D03*
X0003724015Y0002781496D03*
X0003224015Y0002681496D03*
X0003524015Y0002681496D03*
X0003624014Y0002681496D03*
X0003724015Y0002681496D03*
X0003224015Y0002581496D03*
X0003324015Y0002581496D03*
X0003424015Y0002581496D03*
X0003524015Y0002581496D03*
X0003624014Y0002581496D03*
X0003724015Y0002581496D03*
G04 next file*
G01*
D120*
D121*
X-0003700787Y0006181102D02*
X0003724212Y0002091101D03*
D122*
X0003724212Y0001991102D03*
D121*
X0003029212Y0002358102D03*
D122*
X0003129212Y0002358102D03*
X0003229212Y0002358102D03*
X0003329211Y0002358102D03*
X0003429212Y0002358102D03*
X0003529212Y0002358102D03*
X0003629212Y0002358102D03*
X0003729211Y0002358102D03*
D121*
X0003726712Y0001708602D03*
D122*
X0003726712Y0001608602D03*
X0003726712Y0001508602D03*
X0003726712Y0001408602D03*
D121*
X0003729211Y0001308602D03*
D122*
X0003629212Y0001308602D03*
X0003529212Y0001308602D03*
X0003429212Y0001308602D03*
X0003329211Y0001308602D03*
X0003229212Y0001308602D03*
D123*
X0003069212Y0001331102D03*
X0003379211Y0001461102D03*
D124*
X0003075211Y0001589393D03*
X0003075211Y0001950810D03*
X0003240212Y0001590393D03*
X0003240212Y0001951809D03*
X0003406212Y0001590393D03*
X0003406212Y0001951809D03*
X0003573211Y0001590393D03*
X0003573211Y0001951809D03*
D125*
X0003483173Y0001452102D03*
X0003603250Y0001452102D03*
D126*
X0003071212Y0002174062D03*
X0003071212Y0002044141D03*
D127*
X0003033810Y0002252102D03*
X0003108614Y0002252102D03*
D126*
X0003239212Y0002174062D03*
X0003239212Y0002044141D03*
X0003405212Y0002174062D03*
X0003405212Y0002044141D03*
X0003573211Y0002174062D03*
X0003573211Y0002044141D03*
D127*
X0003276614Y0002252102D03*
X0003201811Y0002252102D03*
X0003441614Y0002251102D03*
X0003366811Y0002251102D03*
X0003608614Y0002252102D03*
X0003533811Y0002252102D03*
G04 next file*
G04 #@! TF.FileFunction,Soldermask,Top*
G04 Gerber Fmt 4.6, Leading zero omitted, Abs format (unit mm)*
G04 Created by KiCad (PCBNEW 4.0.2-stable) date 08.08.2017 13:07:48*
G01*
G04 APERTURE LIST*
G04 APERTURE END LIST*
D138*
D139*
X-0003700787Y0004921259D02*
X0003724212Y0000831259D03*
D140*
X0003724212Y0000731259D03*
D139*
X0003029212Y0001098259D03*
D140*
X0003129212Y0001098259D03*
X0003229212Y0001098259D03*
X0003329211Y0001098259D03*
X0003429212Y0001098259D03*
X0003529212Y0001098259D03*
X0003629212Y0001098259D03*
X0003729211Y0001098259D03*
D139*
X0003726712Y0000448759D03*
D140*
X0003726712Y0000348759D03*
X0003726712Y0000248759D03*
X0003726712Y0000148759D03*
D139*
X0003729211Y0000048759D03*
D140*
X0003629212Y0000048759D03*
X0003529212Y0000048759D03*
X0003429212Y0000048759D03*
X0003329211Y0000048759D03*
X0003229212Y0000048759D03*
D141*
X0003069212Y0000071259D03*
X0003379211Y0000201259D03*
D142*
X0003075211Y0000329551D03*
X0003075211Y0000690968D03*
X0003240212Y0000330551D03*
X0003240212Y0000691968D03*
X0003406212Y0000330551D03*
X0003406212Y0000691968D03*
X0003573211Y0000330551D03*
X0003573211Y0000691968D03*
D143*
X0003483173Y0000192259D03*
X0003603250Y0000192259D03*
D144*
X0003071212Y0000914219D03*
X0003071212Y0000784299D03*
D145*
X0003033810Y0000992258D03*
X0003108614Y0000992258D03*
D144*
X0003239212Y0000914219D03*
X0003239212Y0000784299D03*
X0003405212Y0000914219D03*
X0003405212Y0000784299D03*
X0003573211Y0000914219D03*
X0003573211Y0000784299D03*
D145*
X0003276614Y0000992258D03*
X0003201811Y0000992258D03*
X0003441614Y0000991259D03*
X0003366811Y0000991259D03*
X0003608614Y0000992258D03*
X0003533811Y0000992258D03*
M02*