%MOIN*%
%OFA0B0*%
%FSLAX46Y46*%
%IPPOS*%
%LPD*%
%ADD10C,0.0039370078740157488*%
%ADD21C,0.0039370078740157488*%
%ADD32C,0.0039370078740157488*%
%ADD43C,0.0039370078740157488*%
%ADD54C,0.0039370078740157488*%
%ADD55C,0.005905511811023622*%
%ADD66C,0.0039370078740157488*%
%LPD*%
G01*
D10*
G01*
D21*
G04 next file*
%LPD*%
G01*
D32*
G01*
D43*
G04 next file*
G01*
D54*
D55*
X0000522069Y0001775922D02*
X0000523943Y0001770298D01*
X0000525819Y0001768423D01*
X0000529568Y0001766548D01*
X0000535193Y0001766548D01*
X0000538942Y0001768423D01*
X0000540817Y0001770298D01*
X0000542692Y0001774047D01*
X0000542692Y0001789045D01*
X0000503322Y0001789045D01*
X0000503322Y0001775922D01*
X0000505196Y0001772172D01*
X0000507071Y0001770298D01*
X0000510820Y0001768423D01*
X0000514570Y0001768423D01*
X0000518320Y0001770298D01*
X0000520194Y0001772172D01*
X0000522069Y0001775922D01*
X0000522069Y0001789045D01*
X0000542692Y0001749675D02*
X0000503322Y0001749675D01*
X0000522069Y0001749675D02*
X0000522069Y0001727178D01*
X0000542692Y0001727178D02*
X0000503322Y0001727178D01*
X0000527694Y0001708430D02*
X0000527694Y0001678434D01*
X0000542692Y0001639064D02*
X0000542692Y0001661560D01*
X0000542692Y0001650313D02*
X0000503322Y0001650313D01*
X0000508946Y0001654062D01*
X0000512695Y0001657812D01*
X0000514570Y0001661560D01*
X0000520194Y0001616567D02*
X0000518320Y0001620316D01*
X0000516445Y0001622191D01*
X0000512695Y0001624065D01*
X0000510820Y0001624065D01*
X0000507071Y0001622191D01*
X0000505196Y0001620316D01*
X0000503322Y0001616567D01*
X0000503322Y0001609068D01*
X0000505196Y0001605318D01*
X0000507071Y0001603443D01*
X0000510820Y0001601569D01*
X0000512695Y0001601569D01*
X0000516445Y0001603443D01*
X0000518320Y0001605318D01*
X0000520194Y0001609068D01*
X0000520194Y0001616567D01*
X0000522069Y0001620316D01*
X0000523943Y0001622191D01*
X0000527694Y0001624065D01*
X0000535193Y0001624065D01*
X0000538942Y0001622191D01*
X0000540817Y0001620316D01*
X0000542692Y0001616567D01*
X0000542692Y0001609068D01*
X0000540817Y0001605318D01*
X0000538942Y0001603443D01*
X0000535193Y0001601569D01*
X0000527694Y0001601569D01*
X0000523943Y0001603443D01*
X0000522069Y0001605318D01*
X0000520194Y0001609068D01*
X0000503322Y0001567823D02*
X0000503322Y0001575321D01*
X0000505196Y0001579072D01*
X0000507071Y0001580946D01*
X0000512695Y0001584696D01*
X0000520194Y0001586570D01*
X0000535193Y0001586570D01*
X0000538942Y0001584696D01*
X0000540817Y0001582821D01*
X0000542692Y0001579072D01*
X0000542692Y0001571572D01*
X0000540817Y0001567823D01*
X0000538942Y0001565948D01*
X0000535193Y0001564073D01*
X0000525819Y0001564073D01*
X0000522069Y0001565948D01*
X0000520194Y0001567823D01*
X0000518320Y0001571572D01*
X0000518320Y0001579072D01*
X0000520194Y0001582821D01*
X0000522069Y0001584696D01*
X0000525819Y0001586570D01*
X0000503322Y0001528453D02*
X0000503322Y0001547200D01*
X0000522069Y0001549075D01*
X0000520194Y0001547200D01*
X0000518320Y0001543451D01*
X0000518320Y0001534077D01*
X0000520194Y0001530328D01*
X0000522069Y0001528453D01*
X0000525819Y0001526578D01*
X0000535193Y0001526578D01*
X0000538942Y0001528453D01*
X0000540817Y0001530328D01*
X0000542692Y0001534077D01*
X0000542692Y0001543451D01*
X0000540817Y0001547200D01*
X0000538942Y0001549075D01*
X0000503322Y0001502206D02*
X0000503322Y0001498457D01*
X0000505196Y0001494707D01*
X0000507071Y0001492832D01*
X0000510820Y0001490957D01*
X0000518320Y0001489083D01*
X0000527694Y0001489083D01*
X0000535193Y0001490957D01*
X0000538942Y0001492832D01*
X0000540817Y0001494707D01*
X0000542692Y0001498457D01*
X0000542692Y0001502206D01*
X0000540817Y0001505956D01*
X0000538942Y0001507830D01*
X0000535193Y0001509705D01*
X0000527694Y0001511580D01*
X0000518320Y0001511580D01*
X0000510820Y0001509705D01*
X0000507071Y0001507830D01*
X0000505196Y0001505956D01*
X0000503322Y0001502206D01*
X0000527694Y0001472210D02*
X0000527694Y0001442214D01*
X0000542692Y0001423466D02*
X0000503322Y0001423466D01*
X0000503322Y0001408468D01*
X0000505196Y0001404718D01*
X0000507071Y0001402844D01*
X0000510820Y0001400967D01*
X0000516445Y0001400967D01*
X0000520194Y0001402844D01*
X0000522069Y0001404718D01*
X0000523943Y0001408468D01*
X0000523943Y0001423466D01*
X0000538942Y0001361598D02*
X0000540817Y0001363473D01*
X0000542692Y0001369098D01*
X0000542692Y0001372847D01*
X0000540817Y0001378472D01*
X0000537067Y0001382221D01*
X0000533318Y0001384096D01*
X0000525819Y0001385970D01*
X0000520194Y0001385970D01*
X0000512695Y0001384096D01*
X0000508946Y0001382221D01*
X0000505196Y0001378472D01*
X0000503322Y0001372847D01*
X0000503322Y0001369098D01*
X0000505196Y0001363473D01*
X0000507071Y0001361598D01*
G04 next file*
G04 #@! TF.FileFunction,Legend,Bot*
G04 Gerber Fmt 4.6, Leading zero omitted, Abs format (unit mm)*
G04 Created by KiCad (PCBNEW 4.0.2-stable) date 05.07.2017 20:46:59*
G01*
G04 APERTURE LIST*
G04 APERTURE END LIST*
D66*
M02*